G04 Layer_Physical_Order=1*
G04 Layer_Color=255*
%FSLAX25Y25*%
%MOIN*%
G70*
G01*
G75*
%ADD10R,0.02953X0.05315*%
%ADD11R,0.03740X0.01575*%
%ADD12R,0.03937X0.06299*%
%ADD13C,0.01000*%
%ADD14C,0.05000*%
D10*
X334646Y8268D02*
D03*
Y23228D02*
D03*
X285433Y8268D02*
D03*
Y23228D02*
D03*
X240158Y8268D02*
D03*
Y23228D02*
D03*
X192913Y8268D02*
D03*
Y23228D02*
D03*
X145669Y8268D02*
D03*
Y23228D02*
D03*
X98425Y8268D02*
D03*
Y23228D02*
D03*
X51181Y8268D02*
D03*
Y23228D02*
D03*
X31496Y8268D02*
D03*
Y23228D02*
D03*
X334646Y57480D02*
D03*
Y72441D02*
D03*
X285433Y57480D02*
D03*
Y72441D02*
D03*
X240158Y57480D02*
D03*
Y72441D02*
D03*
X192913Y57480D02*
D03*
Y72441D02*
D03*
X145669Y57480D02*
D03*
Y72441D02*
D03*
X98425Y57480D02*
D03*
Y72441D02*
D03*
X51181Y57480D02*
D03*
Y72441D02*
D03*
X31496Y57480D02*
D03*
Y72441D02*
D03*
X334646Y102756D02*
D03*
Y117717D02*
D03*
X285433Y102756D02*
D03*
Y117717D02*
D03*
X240158Y102756D02*
D03*
Y117717D02*
D03*
X192913Y102756D02*
D03*
Y117717D02*
D03*
X145669Y102756D02*
D03*
Y117717D02*
D03*
X98425Y102756D02*
D03*
Y117717D02*
D03*
X51181Y102756D02*
D03*
Y117717D02*
D03*
X31496Y102756D02*
D03*
Y117717D02*
D03*
X334646Y151969D02*
D03*
Y166929D02*
D03*
X285433Y151969D02*
D03*
Y166929D02*
D03*
X240158Y151969D02*
D03*
Y166929D02*
D03*
X192913Y151969D02*
D03*
Y166929D02*
D03*
X145669Y151969D02*
D03*
Y166929D02*
D03*
X98425Y151969D02*
D03*
Y166929D02*
D03*
X51181Y151969D02*
D03*
Y166929D02*
D03*
X31496Y151969D02*
D03*
Y166929D02*
D03*
X334646Y197244D02*
D03*
Y212205D02*
D03*
X285433Y197244D02*
D03*
Y212205D02*
D03*
X240158Y197244D02*
D03*
Y212205D02*
D03*
X192913Y197244D02*
D03*
Y212205D02*
D03*
X145669Y197244D02*
D03*
Y212205D02*
D03*
X98425Y197244D02*
D03*
Y212205D02*
D03*
X51181Y197244D02*
D03*
Y212205D02*
D03*
X31496Y197244D02*
D03*
Y212205D02*
D03*
X333661Y246457D02*
D03*
Y261417D02*
D03*
X284449Y246457D02*
D03*
Y261417D02*
D03*
X239173Y246457D02*
D03*
Y261417D02*
D03*
X191929Y246457D02*
D03*
Y261417D02*
D03*
X144685Y246457D02*
D03*
Y261417D02*
D03*
X97441Y246457D02*
D03*
Y261417D02*
D03*
X50197Y246457D02*
D03*
Y261417D02*
D03*
X31496Y246457D02*
D03*
Y261417D02*
D03*
X333661Y291732D02*
D03*
Y306693D02*
D03*
X284449Y291732D02*
D03*
Y306693D02*
D03*
X239173Y291732D02*
D03*
Y306693D02*
D03*
X191929Y291732D02*
D03*
Y306693D02*
D03*
X144685Y291732D02*
D03*
Y306693D02*
D03*
X97441Y291732D02*
D03*
Y306693D02*
D03*
X50197Y291732D02*
D03*
Y306693D02*
D03*
X31496Y291732D02*
D03*
Y306693D02*
D03*
X334646Y355906D02*
D03*
Y340945D02*
D03*
X285433Y355906D02*
D03*
Y340945D02*
D03*
X240158Y355906D02*
D03*
Y340945D02*
D03*
X192913Y355906D02*
D03*
Y340945D02*
D03*
X145669Y355906D02*
D03*
Y340945D02*
D03*
X98425Y355906D02*
D03*
Y340945D02*
D03*
X51181Y355906D02*
D03*
Y340945D02*
D03*
X31496Y355906D02*
D03*
Y340945D02*
D03*
D11*
X351968Y14763D02*
D03*
Y17717D02*
D03*
Y20670D02*
D03*
X344882D02*
D03*
Y17717D02*
D03*
Y14763D02*
D03*
X302756D02*
D03*
Y17717D02*
D03*
Y20670D02*
D03*
X295670D02*
D03*
Y17717D02*
D03*
Y14763D02*
D03*
X257480Y14764D02*
D03*
Y17717D02*
D03*
Y20670D02*
D03*
X250394D02*
D03*
Y17717D02*
D03*
Y14764D02*
D03*
X210236Y14763D02*
D03*
Y17717D02*
D03*
Y20670D02*
D03*
X203150D02*
D03*
Y17717D02*
D03*
Y14763D02*
D03*
X162992D02*
D03*
Y17717D02*
D03*
Y20670D02*
D03*
X155906D02*
D03*
Y17717D02*
D03*
Y14763D02*
D03*
X115748D02*
D03*
Y17717D02*
D03*
Y20670D02*
D03*
X108662D02*
D03*
Y17717D02*
D03*
Y14763D02*
D03*
X68504D02*
D03*
Y17717D02*
D03*
Y20670D02*
D03*
X61418D02*
D03*
Y17717D02*
D03*
Y14763D02*
D03*
X21260D02*
D03*
Y17717D02*
D03*
Y20670D02*
D03*
X14174D02*
D03*
Y17717D02*
D03*
Y14763D02*
D03*
X344882Y67914D02*
D03*
Y64961D02*
D03*
Y62008D02*
D03*
X351968D02*
D03*
Y64961D02*
D03*
Y67914D02*
D03*
X295670D02*
D03*
Y64961D02*
D03*
Y62008D02*
D03*
X302756D02*
D03*
Y64961D02*
D03*
Y67914D02*
D03*
X250394Y67914D02*
D03*
Y64961D02*
D03*
Y62008D02*
D03*
X257480D02*
D03*
Y64961D02*
D03*
Y67914D02*
D03*
X203150Y67914D02*
D03*
Y64961D02*
D03*
Y62008D02*
D03*
X210236D02*
D03*
Y64961D02*
D03*
Y67914D02*
D03*
X155906D02*
D03*
Y64961D02*
D03*
Y62008D02*
D03*
X162992D02*
D03*
Y64961D02*
D03*
Y67914D02*
D03*
X108662D02*
D03*
Y64961D02*
D03*
Y62008D02*
D03*
X115748D02*
D03*
Y64961D02*
D03*
Y67914D02*
D03*
X61418D02*
D03*
Y64961D02*
D03*
Y62008D02*
D03*
X68504D02*
D03*
Y64961D02*
D03*
Y67914D02*
D03*
X14174D02*
D03*
Y64961D02*
D03*
Y62008D02*
D03*
X21260D02*
D03*
Y64961D02*
D03*
Y67914D02*
D03*
X351968Y109252D02*
D03*
Y112205D02*
D03*
Y115158D02*
D03*
X344882D02*
D03*
Y112205D02*
D03*
Y109252D02*
D03*
X302756D02*
D03*
Y112205D02*
D03*
Y115158D02*
D03*
X295670D02*
D03*
Y112205D02*
D03*
Y109252D02*
D03*
X257480Y109252D02*
D03*
Y112205D02*
D03*
Y115158D02*
D03*
X250394D02*
D03*
Y112205D02*
D03*
Y109252D02*
D03*
X210236Y109252D02*
D03*
Y112205D02*
D03*
Y115158D02*
D03*
X203150D02*
D03*
Y112205D02*
D03*
Y109252D02*
D03*
X162992D02*
D03*
Y112205D02*
D03*
Y115158D02*
D03*
X155906D02*
D03*
Y112205D02*
D03*
Y109252D02*
D03*
X115748D02*
D03*
Y112205D02*
D03*
Y115158D02*
D03*
X108662D02*
D03*
Y112205D02*
D03*
Y109252D02*
D03*
X68504D02*
D03*
Y112205D02*
D03*
Y115158D02*
D03*
X61418D02*
D03*
Y112205D02*
D03*
Y109252D02*
D03*
X21260D02*
D03*
Y112205D02*
D03*
Y115158D02*
D03*
X14174D02*
D03*
Y112205D02*
D03*
Y109252D02*
D03*
X344882Y162402D02*
D03*
Y159449D02*
D03*
Y156496D02*
D03*
X351968D02*
D03*
Y159449D02*
D03*
Y162402D02*
D03*
X295670D02*
D03*
Y159449D02*
D03*
Y156496D02*
D03*
X302756D02*
D03*
Y159449D02*
D03*
Y162402D02*
D03*
X250394Y162402D02*
D03*
Y159449D02*
D03*
Y156496D02*
D03*
X257480D02*
D03*
Y159449D02*
D03*
Y162402D02*
D03*
X203150Y162402D02*
D03*
Y159449D02*
D03*
Y156496D02*
D03*
X210236D02*
D03*
Y159449D02*
D03*
Y162402D02*
D03*
X155906D02*
D03*
Y159449D02*
D03*
Y156496D02*
D03*
X162992D02*
D03*
Y159449D02*
D03*
Y162402D02*
D03*
X108662D02*
D03*
Y159449D02*
D03*
Y156496D02*
D03*
X115748D02*
D03*
Y159449D02*
D03*
Y162402D02*
D03*
X61418D02*
D03*
Y159449D02*
D03*
Y156496D02*
D03*
X68504D02*
D03*
Y159449D02*
D03*
Y162402D02*
D03*
X14174D02*
D03*
Y159449D02*
D03*
Y156496D02*
D03*
X21260D02*
D03*
Y159449D02*
D03*
Y162402D02*
D03*
X351968Y203740D02*
D03*
Y206693D02*
D03*
Y209646D02*
D03*
X344882D02*
D03*
Y206693D02*
D03*
Y203740D02*
D03*
X302756D02*
D03*
Y206693D02*
D03*
Y209646D02*
D03*
X295670D02*
D03*
Y206693D02*
D03*
Y203740D02*
D03*
X257480Y203740D02*
D03*
Y206693D02*
D03*
Y209646D02*
D03*
X250394D02*
D03*
Y206693D02*
D03*
Y203740D02*
D03*
X210236Y203740D02*
D03*
Y206693D02*
D03*
Y209646D02*
D03*
X203150D02*
D03*
Y206693D02*
D03*
Y203740D02*
D03*
X162992D02*
D03*
Y206693D02*
D03*
Y209646D02*
D03*
X155906D02*
D03*
Y206693D02*
D03*
Y203740D02*
D03*
X115748D02*
D03*
Y206693D02*
D03*
Y209646D02*
D03*
X108662D02*
D03*
Y206693D02*
D03*
Y203740D02*
D03*
X68504D02*
D03*
Y206693D02*
D03*
Y209646D02*
D03*
X61418D02*
D03*
Y206693D02*
D03*
Y203740D02*
D03*
X21260D02*
D03*
Y206693D02*
D03*
Y209646D02*
D03*
X14174D02*
D03*
Y206693D02*
D03*
Y203740D02*
D03*
X344882Y256890D02*
D03*
Y253937D02*
D03*
Y250984D02*
D03*
X351968D02*
D03*
Y253937D02*
D03*
Y256890D02*
D03*
X295670D02*
D03*
Y253937D02*
D03*
Y250984D02*
D03*
X302756D02*
D03*
Y253937D02*
D03*
Y256890D02*
D03*
X250394Y256890D02*
D03*
Y253937D02*
D03*
Y250984D02*
D03*
X257480D02*
D03*
Y253937D02*
D03*
Y256890D02*
D03*
X203150Y256890D02*
D03*
Y253937D02*
D03*
Y250984D02*
D03*
X210236D02*
D03*
Y253937D02*
D03*
Y256890D02*
D03*
X155906D02*
D03*
Y253937D02*
D03*
Y250984D02*
D03*
X162992D02*
D03*
Y253937D02*
D03*
Y256890D02*
D03*
X108662D02*
D03*
Y253937D02*
D03*
Y250984D02*
D03*
X115748D02*
D03*
Y253937D02*
D03*
Y256890D02*
D03*
X61418D02*
D03*
Y253937D02*
D03*
Y250984D02*
D03*
X68504D02*
D03*
Y253937D02*
D03*
Y256890D02*
D03*
X14174D02*
D03*
Y253937D02*
D03*
Y250984D02*
D03*
X21260D02*
D03*
Y253937D02*
D03*
Y256890D02*
D03*
X351968Y298228D02*
D03*
Y301181D02*
D03*
Y304134D02*
D03*
X344882D02*
D03*
Y301181D02*
D03*
Y298228D02*
D03*
X302756D02*
D03*
Y301181D02*
D03*
Y304134D02*
D03*
X295670D02*
D03*
Y301181D02*
D03*
Y298228D02*
D03*
X257480Y298228D02*
D03*
Y301181D02*
D03*
Y304134D02*
D03*
X250394D02*
D03*
Y301181D02*
D03*
Y298228D02*
D03*
X210236Y298228D02*
D03*
Y301181D02*
D03*
Y304134D02*
D03*
X203150D02*
D03*
Y301181D02*
D03*
Y298228D02*
D03*
X162992D02*
D03*
Y301181D02*
D03*
Y304134D02*
D03*
X155906D02*
D03*
Y301181D02*
D03*
Y298228D02*
D03*
X115748D02*
D03*
Y301181D02*
D03*
Y304134D02*
D03*
X108662D02*
D03*
Y301181D02*
D03*
Y298228D02*
D03*
X68504D02*
D03*
Y301181D02*
D03*
Y304134D02*
D03*
X61418D02*
D03*
Y301181D02*
D03*
Y298228D02*
D03*
X21260D02*
D03*
Y301181D02*
D03*
Y304134D02*
D03*
X14174D02*
D03*
Y301181D02*
D03*
Y298228D02*
D03*
X344882Y351378D02*
D03*
Y348425D02*
D03*
Y345472D02*
D03*
X351968D02*
D03*
Y348425D02*
D03*
Y351378D02*
D03*
X295670D02*
D03*
Y348425D02*
D03*
Y345472D02*
D03*
X302756D02*
D03*
Y348425D02*
D03*
Y351378D02*
D03*
X250394D02*
D03*
Y348425D02*
D03*
Y345472D02*
D03*
X257480D02*
D03*
Y348425D02*
D03*
Y351378D02*
D03*
X203150D02*
D03*
Y348425D02*
D03*
Y345472D02*
D03*
X210236D02*
D03*
Y348425D02*
D03*
Y351378D02*
D03*
X155906D02*
D03*
Y348425D02*
D03*
Y345472D02*
D03*
X162992D02*
D03*
Y348425D02*
D03*
Y351378D02*
D03*
X108662D02*
D03*
Y348425D02*
D03*
Y345472D02*
D03*
X115748D02*
D03*
Y348425D02*
D03*
Y351378D02*
D03*
X61418D02*
D03*
Y348425D02*
D03*
Y345472D02*
D03*
X68504D02*
D03*
Y348425D02*
D03*
Y351378D02*
D03*
X14174D02*
D03*
Y348425D02*
D03*
Y345472D02*
D03*
X21260D02*
D03*
Y348425D02*
D03*
Y351378D02*
D03*
D12*
X343898Y31496D02*
D03*
X354921D02*
D03*
X294685D02*
D03*
X305709D02*
D03*
X249410D02*
D03*
X260433D02*
D03*
X202165D02*
D03*
X213189D02*
D03*
X154921D02*
D03*
X165945D02*
D03*
X107677D02*
D03*
X118701D02*
D03*
X60433D02*
D03*
X71457D02*
D03*
X22307D02*
D03*
X11283D02*
D03*
X343898Y80709D02*
D03*
X354921D02*
D03*
X294685D02*
D03*
X305709D02*
D03*
X249410Y80709D02*
D03*
X260433D02*
D03*
X202165Y80709D02*
D03*
X213189D02*
D03*
X154921D02*
D03*
X165945D02*
D03*
X107677D02*
D03*
X118701D02*
D03*
X60433D02*
D03*
X71457D02*
D03*
X22244D02*
D03*
X11220D02*
D03*
X343898Y125984D02*
D03*
X354921D02*
D03*
X294685D02*
D03*
X305709D02*
D03*
X249410Y125984D02*
D03*
X260433D02*
D03*
X202165Y125984D02*
D03*
X213189D02*
D03*
X154921D02*
D03*
X165945D02*
D03*
X107677Y125984D02*
D03*
X118701D02*
D03*
X60433Y125984D02*
D03*
X71457D02*
D03*
X22244Y125984D02*
D03*
X11220D02*
D03*
X343898Y175197D02*
D03*
X354921D02*
D03*
X294685D02*
D03*
X305709D02*
D03*
X249410D02*
D03*
X260433D02*
D03*
X202165D02*
D03*
X213189D02*
D03*
X154921D02*
D03*
X165945D02*
D03*
X107677D02*
D03*
X118701D02*
D03*
X60433D02*
D03*
X71457D02*
D03*
X22244D02*
D03*
X11220D02*
D03*
X343898Y221106D02*
D03*
X354921D02*
D03*
X294685D02*
D03*
X305709D02*
D03*
X249410Y221106D02*
D03*
X260433D02*
D03*
X202165Y221106D02*
D03*
X213189D02*
D03*
X154921D02*
D03*
X165945D02*
D03*
X107677Y220472D02*
D03*
X118701D02*
D03*
X60433Y221106D02*
D03*
X71457D02*
D03*
X22244Y220472D02*
D03*
X11220D02*
D03*
X343898Y269685D02*
D03*
X354921D02*
D03*
X294685D02*
D03*
X305709D02*
D03*
X249410Y269685D02*
D03*
X260433D02*
D03*
X202165Y269685D02*
D03*
X213189D02*
D03*
X154921D02*
D03*
X165945D02*
D03*
X107677D02*
D03*
X118701D02*
D03*
X60433D02*
D03*
X71457D02*
D03*
X22244D02*
D03*
X11220D02*
D03*
X343898Y315945D02*
D03*
X354921D02*
D03*
X294685D02*
D03*
X305709D02*
D03*
X249410Y315945D02*
D03*
X260433D02*
D03*
X202165Y315945D02*
D03*
X213189D02*
D03*
X154921D02*
D03*
X165945D02*
D03*
X107677D02*
D03*
X118701D02*
D03*
X60433D02*
D03*
X71457D02*
D03*
X22244D02*
D03*
X11220D02*
D03*
X343898Y332677D02*
D03*
X354921D02*
D03*
X294685D02*
D03*
X305709D02*
D03*
X249410D02*
D03*
X260433D02*
D03*
X202165D02*
D03*
X213189D02*
D03*
X154921D02*
D03*
X165945D02*
D03*
X107677D02*
D03*
X118701D02*
D03*
X60433D02*
D03*
X71457D02*
D03*
X22244D02*
D03*
X11220D02*
D03*
D13*
X51935Y356660D02*
X60400D01*
X51181Y355906D02*
X51935Y356660D01*
X85157Y363000D02*
X90657Y357500D01*
X10803Y353304D02*
X20500Y363000D01*
X78000Y361000D02*
X84500Y354500D01*
X14174Y351378D02*
X23795Y361000D01*
X78000D01*
X20500Y363000D02*
X85157D01*
X60400Y356660D02*
Y357000D01*
X99226Y357100D02*
X108200D01*
X98425Y356299D02*
X99226Y357100D01*
X258057D02*
X258800D01*
X252357Y362800D02*
X258057Y357100D01*
X234700Y360500D02*
X246300D01*
X233000Y358800D02*
X234700Y360500D01*
X212500Y358800D02*
X233000D01*
X213657Y362800D02*
X252357D01*
X206693Y352993D02*
X212500Y358800D01*
X206172Y355315D02*
X213657Y362800D01*
X307685Y345472D02*
X309157Y344000D01*
X302756Y345472D02*
X307685D01*
X317882Y339535D02*
X323882Y345535D01*
X301300Y339535D02*
X317882D01*
X309157Y344000D02*
X314200D01*
X302756Y348425D02*
X344882D01*
X302756Y345472D02*
X303528D01*
X295670Y345166D02*
X301300Y339535D01*
X295670Y345166D02*
Y345472D01*
X285433Y355315D02*
X286618Y356500D01*
X255192Y343185D02*
X257480Y345472D01*
X247903Y343185D02*
X255192D01*
X245615Y345472D02*
X247903Y343185D01*
X252809Y345472D02*
X253937Y346600D01*
X250394Y345472D02*
X252809D01*
X253937Y346600D02*
Y352863D01*
X257480Y348425D02*
X295670D01*
X267428Y345472D02*
X270000Y342900D01*
X257480Y345472D02*
X267428D01*
X257480Y351378D02*
X295670D01*
X238952Y354700D02*
X240158Y355906D01*
X228200Y354700D02*
X238952D01*
X227600Y354100D02*
X228200Y354700D01*
X210236Y345472D02*
X245615D01*
X230411Y348425D02*
X250394D01*
X230085Y348100D02*
X230411Y348425D01*
X225115Y348100D02*
X230085D01*
X224790Y348425D02*
X225115Y348100D01*
X210236Y348425D02*
X224790D01*
X225943Y350100D02*
X229257D01*
X224665Y351378D02*
X225943Y350100D01*
X229257D02*
X230535Y351378D01*
X250394D01*
X210236D02*
X224665D01*
X246300Y360500D02*
X253937Y352863D01*
X218730Y332613D02*
X219943Y331400D01*
X213646Y332613D02*
X218730D01*
X206693Y346800D02*
Y352993D01*
X205365Y345472D02*
X206693Y346800D01*
X203150Y345472D02*
X205365D01*
X141109Y348100D02*
X141434Y348425D01*
X134482Y348100D02*
X141109D01*
X134156Y348425D02*
X134482Y348100D01*
X128311Y348425D02*
X134156D01*
X135310Y350100D02*
X140280D01*
X134985Y350425D02*
X135310Y350100D01*
X127482Y350425D02*
X134985D01*
X136138Y352100D02*
X139452D01*
X134238Y354000D02*
X136138Y352100D01*
X141434Y348425D02*
X155906D01*
X127885Y348000D02*
X128311Y348425D01*
X122915Y348000D02*
X127885D01*
X122490Y348425D02*
X122915Y348000D01*
X115748Y348425D02*
X122490D01*
X127057Y350000D02*
X127482Y350425D01*
X123743Y350000D02*
X127057D01*
X139452Y352100D02*
X140730Y353378D01*
X140280Y350100D02*
X141559Y351378D01*
X122365D02*
X123743Y350000D01*
X162992Y351378D02*
X203150D01*
X162992Y348425D02*
X203150D01*
X177900Y335700D02*
X178000Y335600D01*
X170096Y343504D02*
X177900Y335700D01*
X168128Y345472D02*
X170096Y343504D01*
X162992Y345472D02*
X168128D01*
X159449Y346900D02*
Y352614D01*
X158021Y345472D02*
X159449Y346900D01*
X155906Y345472D02*
X158021D01*
X170096Y343504D02*
X170276D01*
X162992Y345203D02*
Y345472D01*
X159293Y341504D02*
X162992Y345203D01*
X155077Y341504D02*
X159293D01*
X151109Y345472D02*
X155077Y341504D01*
X115748Y345472D02*
X151109D01*
X131284Y341216D02*
X131700Y340800D01*
X104409Y341216D02*
X131284D01*
X70400Y343504D02*
X94729D01*
X125400Y354000D02*
X134238D01*
X128857Y356200D02*
X139512D01*
X127057Y358000D02*
X128857Y356200D01*
X123743Y358000D02*
X127057D01*
X121943Y356200D02*
X123743Y358000D01*
X115000Y356200D02*
X121943D01*
X139512D02*
X144064Y360752D01*
X141559Y351378D02*
X155906D01*
X115748D02*
X122365D01*
X144064Y360752D02*
X151311D01*
X159449Y352614D01*
X140730Y353378D02*
X143142D01*
X145669Y355906D01*
X70400Y343504D02*
Y343576D01*
X68504Y345472D02*
X70400Y343576D01*
X61418Y343504D02*
X65386Y339535D01*
X61418Y343504D02*
Y345472D01*
X112378Y347000D02*
Y353578D01*
X110850Y345472D02*
X112378Y347000D01*
X108662Y345472D02*
X110850D01*
X68504Y348425D02*
X108662D01*
X96328Y345102D02*
X100523D01*
X104409Y341216D01*
X112378Y353578D02*
X115000Y356200D01*
X87035Y351378D02*
X108662D01*
X86157Y350500D02*
X87035Y351378D01*
X82843Y350500D02*
X86157D01*
X81965Y351378D02*
X82843Y350500D01*
X94729Y343504D02*
X96328Y345102D01*
X65386Y339535D02*
X79444D01*
X68504Y351378D02*
X81965D01*
X21260Y348425D02*
X61418D01*
X21260Y351378D02*
X61418D01*
X32256Y356299D02*
X38386D01*
X249016Y334646D02*
Y335513D01*
X243584Y340945D02*
X249016Y335513D01*
X240158Y340945D02*
X243584D01*
X54795Y251059D02*
X65254Y240600D01*
X21260Y251059D02*
X54795D01*
X142353Y227204D02*
X161975D01*
X143181Y229204D02*
X161147D01*
X5906Y14764D02*
X14174D01*
X191000Y40300D02*
X197054Y46354D01*
X190950Y40350D02*
X191000Y40300D01*
X45102Y136000D02*
X46102Y137000D01*
X31058Y130917D02*
X31775Y130200D01*
X30575Y189898D02*
X54071D01*
X205437Y211933D02*
X218567D01*
X203150Y209646D02*
X205437Y211933D01*
X208410Y209646D02*
X210236D01*
X206866Y208102D02*
X208410Y209646D01*
X206866Y190934D02*
Y208102D01*
Y190934D02*
X208600Y189200D01*
X210236Y203740D02*
X250394D01*
X225943Y292900D02*
X230843Y288000D01*
X191929Y291732D02*
X193097Y292900D01*
X226943Y288900D02*
X231800Y284043D01*
X193097Y292900D02*
X225943D01*
X203600Y288900D02*
X226943D01*
X342913Y332677D02*
X343898D01*
X334646Y340945D02*
X342913Y332677D01*
X344882Y345472D02*
X348600Y341754D01*
Y328300D02*
Y341754D01*
X345300Y325000D02*
X348600Y328300D01*
X336000Y325000D02*
X345300D01*
X351300Y344804D02*
X351968Y345472D01*
X351300Y316108D02*
Y344804D01*
X344882Y309690D02*
X351300Y316108D01*
X328466Y178100D02*
X328800D01*
X328366Y178000D02*
X328466Y178100D01*
X213500Y88800D02*
X218143D01*
X220843Y91500D01*
X213700Y95800D02*
X221443D01*
X223743Y93500D01*
X212500Y88800D02*
X213500D01*
X195869Y99800D02*
X216657D01*
X192913Y102756D02*
X195869Y99800D01*
X225000Y87500D02*
X251500D01*
X213500Y103800D02*
Y105300D01*
X211836Y106964D02*
X213500Y105300D01*
X210236Y109252D02*
X250394D01*
X246820Y85358D02*
X256786D01*
X243154Y81693D02*
X246820Y85358D01*
X242224Y72441D02*
X249016Y79232D01*
X284000Y49400D02*
Y57843D01*
X250794Y156496D02*
X256390Y150900D01*
X250394Y156496D02*
X250794D01*
X256390Y150900D02*
X259300D01*
X245426Y146700D02*
X267900D01*
X302300D02*
X307400Y151800D01*
X293000Y146700D02*
X302300D01*
X295670Y154830D02*
Y156496D01*
Y154830D02*
X299400Y151100D01*
X317100Y174100D02*
X317500Y173700D01*
X335600Y183300D02*
X348300Y196000D01*
X308224Y272200D02*
X319900D01*
X305709Y269685D02*
X308224Y272200D01*
X262948D02*
X284400D01*
X260433Y269685D02*
X262948Y272200D01*
X258958Y313700D02*
X284200D01*
X258858Y313800D02*
X258958Y313700D01*
X300930Y304134D02*
X302756D01*
X299100Y302304D02*
X300930Y304134D01*
X297957Y306422D02*
X305578D01*
X295670Y304134D02*
X297957Y306422D01*
X336588Y300535D02*
X337233Y301181D01*
X330735Y300535D02*
X336588D01*
X330089Y301181D02*
X330735Y300535D01*
X302756Y301181D02*
X330089D01*
X331564Y302535D02*
X335759D01*
X337358Y304134D01*
X329099Y305000D02*
X331564Y302535D01*
X337233Y301181D02*
X344882D01*
X337358Y304134D02*
X344882D01*
X307000Y305000D02*
X329099D01*
X305578Y306422D02*
X307000Y305000D01*
X298941Y328028D02*
X321728D01*
X294291Y332677D02*
X298941Y328028D01*
X321728D02*
X334646Y340945D01*
X317913Y332677D02*
X326772Y341535D01*
X305709Y332677D02*
X317913D01*
X323882Y345535D02*
X344819D01*
X344882Y345472D01*
X304724Y351378D02*
X344882D01*
Y304134D02*
Y309690D01*
X343504Y311221D02*
Y312992D01*
X338976Y306693D02*
X343504Y311221D01*
X299100Y293420D02*
Y302304D01*
X302756Y298228D02*
X344882D01*
X348300Y303000D02*
X349434Y304134D01*
X348300Y294816D02*
Y303000D01*
X289205Y306134D02*
X294291Y311221D01*
X287317Y306134D02*
X289205D01*
X287285Y306102D02*
X287317Y306134D01*
X284449Y306102D02*
X287285D01*
X288145Y304134D02*
X295670D01*
X286546Y302535D02*
X288145Y304134D01*
X282351Y302535D02*
X286546D01*
X277086Y307800D02*
X282351Y302535D01*
X254060Y307800D02*
X277086D01*
X257480Y301181D02*
X258126Y300535D01*
X287375D01*
X287702Y300862D02*
X295670D01*
X287375Y300535D02*
X287702Y300862D01*
X257480Y298228D02*
X295670D01*
X265901Y318898D02*
X288386D01*
X294291Y312992D01*
Y311221D02*
Y312992D01*
X250394Y304134D02*
X254060Y307800D01*
X255031Y303469D02*
X255697Y304134D01*
X254989Y303469D02*
X255031D01*
X254110Y302590D02*
X254989Y303469D01*
X254110Y302548D02*
Y302590D01*
X254100Y302538D02*
X254110Y302548D01*
X255697Y304134D02*
X257480D01*
X254100Y295113D02*
Y302538D01*
X57940Y235000D02*
X70900D01*
X54240Y238700D02*
X57940Y235000D01*
X51700Y238700D02*
X54240D01*
X93811Y70800D02*
X95449Y69162D01*
X92983Y68800D02*
X93449Y68334D01*
X89243Y68800D02*
X92983D01*
X88415Y70800D02*
X93811D01*
X85528Y67914D02*
X88415Y70800D01*
X68504Y67914D02*
X85528D01*
X86900Y66457D02*
X89243Y68800D01*
X86900Y65657D02*
Y66457D01*
X86204Y64961D02*
X86900Y65657D01*
X90900Y63700D02*
Y64800D01*
X89643Y62443D02*
X90900Y63700D01*
X36100Y174500D02*
X41900Y180300D01*
X32300Y174500D02*
X36100D01*
X116743Y145500D02*
X121900D01*
X114300Y147943D02*
X116743Y145500D01*
X114300Y147943D02*
Y148029D01*
X108121Y154208D02*
X114300Y148029D01*
X117300Y149600D02*
X118300D01*
X110404Y156496D02*
X117300Y149600D01*
X121900Y145500D02*
X126200Y149800D01*
X69808Y112205D02*
X108662D01*
X87900Y115900D02*
Y116800D01*
X87158Y115158D02*
X87900Y115900D01*
X88100Y123868D02*
Y125100D01*
X87732Y123500D02*
X88100Y123868D01*
X162992Y156496D02*
X176467D01*
X177772Y157800D02*
X180600D01*
X176467Y156496D02*
X177772Y157800D01*
X163041Y159400D02*
X176543D01*
X180600Y157800D02*
X181500Y158700D01*
X177400Y152300D02*
Y152938D01*
Y152300D02*
Y152477D01*
X177600Y152677D01*
X176800Y152339D02*
X177600Y153138D01*
X176543Y159400D02*
X179843Y162700D01*
X199528Y189500D02*
X204628Y184400D01*
X198000Y188700D02*
Y189500D01*
X193100Y194400D02*
X198000Y189500D01*
Y188700D02*
X198728D01*
X199528Y189500D01*
X191200Y189300D02*
X200500Y180000D01*
X189900Y189300D02*
X191200D01*
X148300Y184800D02*
X150300Y186800D01*
Y188800D01*
X272100Y145243D02*
X276200Y149343D01*
X272100Y134500D02*
Y145243D01*
X323960Y113800D02*
X327000Y116840D01*
X318040Y113800D02*
X323960D01*
X302756Y112205D02*
X303401Y111559D01*
X337572D01*
X314340Y117500D02*
X318040Y113800D01*
X319900Y117800D02*
Y119000D01*
X320400Y119500D01*
X263618Y83500D02*
X284300D01*
X260827Y80709D02*
X263618Y83500D01*
X306102Y80709D02*
X308894Y83500D01*
X319800D01*
X141950Y61200D02*
X145669Y57480D01*
X115987Y65200D02*
X155666D01*
X155906Y64961D01*
X115748D02*
X115987Y65200D01*
X137400Y61200D02*
X141950D01*
X286094Y197249D02*
X294043Y189300D01*
X308200D01*
X31017Y130400D02*
Y130842D01*
X31000Y130860D02*
X31017Y130842D01*
X30675Y131300D02*
X31058Y130917D01*
X31000Y130860D02*
X31058Y130917D01*
X27640Y98900D02*
X31496Y102756D01*
X23400Y98900D02*
X27640D01*
X23400D02*
Y98991D01*
X23622Y99213D01*
X66055Y93598D02*
X154225D01*
X47557Y75100D02*
X66055Y93598D01*
X45900Y87100D02*
X54398Y95598D01*
X44243Y75100D02*
X47557D01*
X40543Y78800D02*
X44243Y75100D01*
X37900Y78800D02*
X40543D01*
X45900Y79100D02*
Y87100D01*
X31496Y72441D02*
X51181D01*
X21260Y67914D02*
X61418D01*
X97200Y80200D02*
X98100D01*
X109498Y91598D01*
X249200Y60814D02*
X250394Y62008D01*
X245200Y46532D02*
Y52500D01*
Y46532D02*
X245472Y46260D01*
X240100Y57600D02*
X245200Y52500D01*
X249200Y53300D02*
Y60814D01*
X31775Y130200D02*
X34209Y132634D01*
X44600Y136502D02*
Y137600D01*
Y136502D02*
X45102Y136000D01*
X213377Y146500D02*
X219777Y152900D01*
X207095Y146500D02*
X213377D01*
X201395Y152200D02*
X207095Y146500D01*
X210200Y150800D02*
Y156460D01*
X210236Y156496D01*
X218567Y211933D02*
X219000Y211500D01*
X286094Y197249D02*
Y197906D01*
X223743Y93500D02*
X228857D01*
X169536Y106964D02*
X172800Y103700D01*
X172600D02*
X172800D01*
X101300Y47700D02*
X101819Y47181D01*
X29842Y211300D02*
X50979D01*
X22638Y218504D02*
X29842Y211300D01*
X50979D02*
X60039Y220361D01*
X21260Y115158D02*
Y115379D01*
X18539Y118100D02*
X21260Y115379D01*
X5500Y118100D02*
X18539D01*
X5500Y145628D02*
X14174Y154302D01*
X5500Y118100D02*
Y145628D01*
X10411Y133500D02*
X10800D01*
X10000Y133089D02*
X10411Y133500D01*
X170796Y337327D02*
X173900Y334223D01*
X159177Y337327D02*
X170796D01*
X173900Y334043D02*
Y334223D01*
X176313Y331630D02*
X198756D01*
X170276Y343504D02*
X177900Y335880D01*
X173900Y334043D02*
X176313Y331630D01*
X177900Y335700D02*
Y335880D01*
X324700Y184100D02*
X330600Y190000D01*
X289228Y184100D02*
X324700D01*
X335500Y175000D02*
Y177657D01*
X288400Y182100D02*
X331057D01*
X326520Y179847D02*
X328366Y178000D01*
X331057Y182100D02*
X335500Y177657D01*
X275328Y198000D02*
X289228Y184100D01*
X276100Y194400D02*
X288400Y182100D01*
X278153Y179847D02*
X326520D01*
X330164Y190000D02*
X330600D01*
Y189564D02*
X330664Y189500D01*
X330600Y189564D02*
Y190000D01*
X210675Y9100D02*
X229000D01*
X210433Y8858D02*
X210675Y9100D01*
X203000Y48000D02*
X204600D01*
X201354Y46354D02*
X203000Y48000D01*
X203857Y44000D02*
X205597Y42260D01*
X200257Y44000D02*
X203857D01*
X198194Y52200D02*
X208700D01*
X193957Y37700D02*
X200257Y44000D01*
X287843Y40000D02*
X289843Y38000D01*
X202200Y40000D02*
X287843D01*
X201173Y41000D02*
X202173Y40000D01*
X205597Y42260D02*
X290772D01*
X202173Y40000D02*
X202200D01*
X179758Y44900D02*
X186958Y37700D01*
X197054Y46354D02*
X201354D01*
X186958Y37700D02*
X193957D01*
X190799Y41700D02*
X192300D01*
X181000Y29500D02*
X182500D01*
X175700Y24200D02*
X181000Y29500D01*
X158000Y24200D02*
X175700D01*
X200543Y281800D02*
X204343Y278000D01*
X142800Y281800D02*
X200543D01*
X142500Y281500D02*
X142800Y281800D01*
X153800Y277446D02*
Y277800D01*
Y277446D02*
X154000Y277246D01*
X260533Y124700D02*
X282100D01*
X260433Y124600D02*
X260533Y124700D01*
X273900Y119400D02*
Y119700D01*
Y119400D02*
X274500Y118800D01*
X72443Y227800D02*
X87900D01*
X35100Y230500D02*
X69743D01*
X87900Y227800D02*
X88600Y228500D01*
X69743Y230500D02*
X72443Y227800D01*
X70900Y235000D02*
X74100Y231800D01*
X324803Y63976D02*
X326771D01*
X226400Y333500D02*
X241500D01*
X224300Y331400D02*
X226400Y333500D01*
X219943Y331400D02*
X224300D01*
X213583Y332677D02*
X213646Y332613D01*
X213189Y31496D02*
X214846Y33153D01*
X216472D01*
X218816Y35496D01*
X226129Y31496D02*
X241142D01*
X222129Y35496D02*
X226129Y31496D01*
X218816Y35496D02*
X222129D01*
X241047Y37496D02*
X248422Y30122D01*
X201772Y29528D02*
X209740Y37496D01*
X241047D01*
X354000Y41000D02*
X354921Y40079D01*
Y31496D02*
Y40079D01*
X137657Y216800D02*
X140200Y214257D01*
X127343Y216800D02*
X137657D01*
X142243Y212205D02*
X144249D01*
X140200Y214247D02*
X142243Y212205D01*
X140200Y214247D02*
Y214257D01*
X126366Y215823D02*
X127343Y216800D01*
X144249Y212205D02*
X149501Y217457D01*
X152320Y212600D02*
X160038D01*
X136200D02*
X139019D01*
X148922Y206374D02*
X155906D01*
X115748Y203740D02*
X155906D01*
X161300Y182800D02*
X167500Y189000D01*
X159449Y190945D02*
Y208197D01*
X248185Y269685D02*
X249016D01*
X239327Y260827D02*
X248185Y269685D01*
X210630Y260827D02*
X239327D01*
X220720Y253937D02*
X250394D01*
X220157Y254500D02*
X220720Y253937D01*
X210236Y256890D02*
X250394D01*
X321953Y256890D02*
X324343Y254500D01*
X302756Y256890D02*
X321953D01*
X326000Y257260D02*
X337260D01*
X326000D02*
Y258500D01*
X324500Y260000D02*
X326000Y258500D01*
X300645Y260000D02*
X324500D01*
X299000Y258355D02*
X300645Y260000D01*
X299000Y258338D02*
Y258355D01*
Y255385D02*
Y255442D01*
Y255385D02*
X299040Y255346D01*
Y252652D02*
Y255346D01*
Y252652D02*
X300692Y251000D01*
X299000Y258338D02*
X299040Y258299D01*
Y255481D02*
Y258299D01*
X299000Y255442D02*
X299040Y255481D01*
X300692Y251000D02*
X302740D01*
X337500Y254500D02*
X339890Y256890D01*
X338563Y252500D02*
X340000Y253937D01*
X320235D02*
X321672Y252500D01*
X324343Y254500D02*
X337500D01*
X321672Y252500D02*
X338563D01*
X302756Y253937D02*
X320235D01*
X328988Y265500D02*
X333661Y260827D01*
X323843Y265500D02*
X328988D01*
X323379Y265035D02*
X323843Y265500D01*
X302740Y251000D02*
X302756Y250984D01*
X298941Y265035D02*
X323379D01*
X337260Y257260D02*
X339177Y259177D01*
X339890Y256890D02*
X344882D01*
X339177Y259177D02*
X347374D01*
X348500Y252400D02*
Y258051D01*
X347374Y259177D02*
X348500Y258051D01*
X340000Y253937D02*
X344882D01*
X294488Y269488D02*
X298941Y265035D01*
X276200Y149343D02*
Y152657D01*
X139764Y141732D02*
X245718D01*
X251450Y136000D01*
X243053Y132807D02*
X243860Y132000D01*
X206750Y132807D02*
X243053D01*
X257843Y130634D02*
X263023D01*
X256209Y129000D02*
X257843Y130634D01*
X258534Y132634D02*
X261450Y135550D01*
X257015Y132634D02*
X258534D01*
X256381Y132000D02*
X257015Y132634D01*
X243860Y132000D02*
X256381D01*
X205943D02*
X206750Y132807D01*
X194000Y132000D02*
X205943D01*
X193000Y133000D02*
X194000Y132000D01*
X210236Y159449D02*
X250394D01*
X355000Y137500D02*
X355500D01*
X356921Y138921D01*
X351453Y115673D02*
Y125890D01*
X344000Y138500D02*
X345500Y137000D01*
X348598Y140402D02*
X349500Y139500D01*
X259157Y285000D02*
X259739Y284417D01*
X255843Y285000D02*
X259157D01*
X255260Y284417D02*
X255843Y285000D01*
X241574Y284417D02*
X255260D01*
X316110D02*
X325787Y294094D01*
X259739Y284417D02*
X316110D01*
X267473Y287158D02*
X272638Y292323D01*
X243747Y287158D02*
X267473D01*
X239173Y291732D02*
X243747Y287158D01*
X288386Y286417D02*
X304134D01*
X284449Y290354D02*
X288386Y286417D01*
X254100Y295113D02*
X259456Y289756D01*
X230843Y288000D02*
X233500D01*
X211614Y269314D02*
X211875Y269575D01*
X358268Y67914D02*
X361207Y64974D01*
X359252Y14764D02*
X361207Y16719D01*
Y64974D01*
X356299Y64961D02*
X359000Y62260D01*
Y20417D02*
Y62260D01*
X356299Y17717D02*
X359000Y20417D01*
X353794Y253937D02*
X359500Y248231D01*
Y211862D02*
Y248231D01*
X354331Y206693D02*
X359500Y211862D01*
X354330Y256890D02*
X361500Y249720D01*
Y209925D02*
Y249720D01*
X355315Y203740D02*
X361500Y209925D01*
X357000Y323535D02*
Y325000D01*
X354921Y321457D02*
X357000Y323535D01*
X337598Y129921D02*
X343504Y124016D01*
X333177Y150500D02*
X334646Y151969D01*
X323000Y150500D02*
X333177D01*
X321500Y152000D02*
X323000Y150500D01*
X63831Y20670D02*
X65134Y19366D01*
X61418Y20670D02*
X63831D01*
X65134Y13355D02*
Y19366D01*
X70488Y8000D02*
X76500D01*
X65134Y13355D02*
X70488Y8000D01*
X68504Y17717D02*
X76036D01*
X76099Y17653D01*
X79413D01*
X68504Y14764D02*
X108662D01*
X84646Y25591D02*
X87598Y22638D01*
X79413Y17653D02*
X79476Y17717D01*
X108662D01*
X68504Y20670D02*
X76772D01*
X77756Y21654D01*
X71500Y29528D02*
X72291D01*
X61418Y17398D02*
Y17717D01*
X21579Y17398D02*
X61418D01*
X148257Y320772D02*
X166772D01*
X242288Y301181D02*
X243367Y300102D01*
X206520Y296819D02*
Y302980D01*
X205366Y304134D02*
X206520Y302980D01*
X203150Y304134D02*
X205366D01*
X187442Y293500D02*
X189882Y295941D01*
X177500Y293500D02*
X187442D01*
X205641Y295941D02*
X206520Y296819D01*
X189882Y295941D02*
X205641D01*
X163264Y298500D02*
X202878D01*
X162941Y293500D02*
X177500D01*
X157732Y304134D02*
X159622Y302244D01*
Y296819D02*
X162941Y293500D01*
X159622Y296819D02*
Y302244D01*
X155906Y304134D02*
X157732D01*
X202878Y298500D02*
X203150Y298228D01*
X162992D02*
X163264Y298500D01*
X85381Y301181D02*
X108662D01*
X85318Y301118D02*
X85381Y301181D01*
X82004Y301118D02*
X85318D01*
X81941Y301181D02*
X82004Y301118D01*
X68504Y301181D02*
X81941D01*
X144587Y306594D02*
X144685Y306693D01*
X135086Y306594D02*
X144587D01*
X132181Y309500D02*
X135086Y306594D01*
X151003Y301181D02*
X155906D01*
X150357Y300535D02*
X151003Y301181D01*
X141759Y300535D02*
X150357D01*
X142587Y302535D02*
X149528D01*
X160704Y306422D02*
X162992Y304134D01*
X153414Y306422D02*
X160704D01*
X115748Y301181D02*
X141113D01*
X117513Y309500D02*
X132181D01*
X111068Y315945D02*
X117513Y309500D01*
X130000Y305500D02*
X130524D01*
X132842Y303181D01*
X130000Y304213D02*
Y305500D01*
X129922Y304134D02*
X130000Y304213D01*
X141113Y301181D02*
X141759Y300535D01*
X141942Y303181D02*
X142587Y302535D01*
X132842Y303181D02*
X141942D01*
X149528Y302535D02*
X153414Y306422D01*
X115748Y298228D02*
X155906D01*
X144685Y306693D02*
X150000D01*
X154528Y311221D01*
X163311Y300862D02*
X203150D01*
X164281Y309976D02*
X177198D01*
X181072Y306102D01*
X155906Y304134D02*
X156800D01*
X158312Y315945D02*
X164281Y309976D01*
X166146Y313976D02*
X175197D01*
X162992Y301181D02*
X163311Y300862D01*
X154300Y277546D02*
X161816Y270030D01*
X257000Y281500D02*
X257500Y281000D01*
X247843Y281500D02*
X257000D01*
X244343Y278000D02*
X247843Y281500D01*
X241000Y273500D02*
X241500Y274000D01*
X226000Y273500D02*
X241000D01*
X211875Y269575D02*
X242732D01*
X245500Y272343D01*
Y273500D02*
X249500Y277500D01*
X245500Y272343D02*
Y273500D01*
X238906Y292000D02*
X239173Y291732D01*
X232500Y292000D02*
X238906D01*
X210362Y298102D02*
X250268D01*
X203150Y300862D02*
Y301181D01*
X203886Y234500D02*
X215520D01*
X191929Y246457D02*
X203886Y234500D01*
X284386Y246394D02*
X284924D01*
X224394Y221106D02*
X227000Y218500D01*
X261500Y241500D02*
X274500D01*
X248500Y228500D02*
X261500Y241500D01*
X245600Y224500D02*
X250306Y219794D01*
X249500Y226500D02*
X257500Y234500D01*
X286618Y356500D02*
X308000D01*
X216186Y177800D02*
X244300D01*
X210236Y304134D02*
X222622D01*
X210634Y243500D02*
X218500D01*
X203150Y250984D02*
Y250984D01*
Y250984D02*
X210634Y243500D01*
X218016Y250984D02*
X218500Y250500D01*
X210236Y250984D02*
X218016D01*
X216843Y254500D02*
X220157D01*
X215930Y253587D02*
X216843Y254500D01*
X210586Y253587D02*
X215930D01*
X241240Y210728D02*
X256268Y225756D01*
X287039D01*
X210555Y206374D02*
X250394D01*
X250394Y209646D02*
X252220D01*
X254110Y207756D01*
X257799Y206374D02*
X295670D01*
X257480Y206693D02*
X257799Y206374D01*
X263500Y194000D02*
X263900Y194400D01*
X249464Y175197D02*
X258861Y165800D01*
X249016Y175197D02*
X249464D01*
X240256Y166437D02*
X249016Y175197D01*
X261843Y198000D02*
X275328D01*
X237509Y162402D02*
X250394D01*
X237477Y162370D02*
X237509Y162402D01*
X210268Y162370D02*
X237477D01*
X258861Y165800D02*
X286371D01*
X244300Y177800D02*
X249100Y182600D01*
X257480Y159449D02*
X295670D01*
X286516Y210728D02*
X294291Y218504D01*
X193100Y194400D02*
Y197244D01*
X154000Y277246D02*
X154300Y277546D01*
X142500Y289547D02*
X144685Y291732D01*
X142500Y281500D02*
Y289547D01*
X290772Y42260D02*
X291756Y43244D01*
X257543Y14827D02*
X295606D01*
X257480Y17717D02*
X295670D01*
X286036Y9264D02*
X290442Y4858D01*
X294657Y39500D02*
X317800D01*
X293157Y38000D02*
X294657Y39500D01*
X289843Y38000D02*
X293157D01*
X317800Y39500D02*
X319700Y41400D01*
X28150Y54134D02*
X40603D01*
X23622D02*
X28150D01*
X164243Y44900D02*
X179758D01*
X162587Y43244D02*
X164243Y44900D01*
X51493Y43244D02*
X162587D01*
X177901Y35433D02*
X195866D01*
X249016Y29528D02*
X255906Y36417D01*
X287402D01*
X301181D02*
X336614D01*
X294291Y29528D02*
X301181Y36417D01*
X195866Y35433D02*
X201772Y29528D01*
X347900Y28056D02*
Y52800D01*
X350000Y44882D02*
X353500Y48382D01*
X350000Y28784D02*
Y44882D01*
X353500Y48382D02*
Y49500D01*
X351500Y56400D02*
Y61539D01*
X347900Y52800D02*
X351500Y56400D01*
X40603Y54134D02*
X51493Y43244D01*
X59055Y47244D02*
X63976Y52165D01*
X53150Y47244D02*
X59055D01*
X63976Y52165D02*
Y59449D01*
X87598Y22638D02*
X102165D01*
X107283Y27756D01*
Y30512D01*
X101441Y36354D02*
X107283Y30512D01*
X94551Y36354D02*
X101441D01*
X293400Y55443D02*
X295843Y53000D01*
X300657D01*
X284000Y57843D02*
X285800Y59643D01*
X301400Y60257D02*
Y60652D01*
Y60257D02*
X303000Y58657D01*
Y55343D02*
Y58657D01*
X300657Y53000D02*
X303000Y55343D01*
X299000Y57000D02*
Y60408D01*
X297400Y62008D02*
X299000Y60408D01*
X203150Y58850D02*
X204000Y58000D01*
X68500Y50000D02*
Y62004D01*
X68504Y62008D01*
X115748D02*
X119549D01*
X122200Y59357D01*
Y54700D02*
Y59357D01*
X114681Y47181D02*
X122200Y54700D01*
X101819Y47181D02*
X114681D01*
X115748Y67914D02*
X155906D01*
X102953Y57480D02*
X109252Y51181D01*
X257480Y209646D02*
X257646D01*
X271500Y186500D02*
X278153Y179847D01*
X294291Y175197D02*
X302988Y166500D01*
X294291Y173721D02*
Y175197D01*
X305709D02*
X315403D01*
X213189Y221106D02*
X224394D01*
X147909Y130634D02*
X154528Y124016D01*
X113901Y130634D02*
X147909D01*
X96457Y141732D02*
X105189Y133000D01*
X193000D01*
X179557Y127500D02*
X194657D01*
X161512Y131000D02*
X176057D01*
X154528Y124016D02*
X161512Y131000D01*
X176057D02*
X179557Y127500D01*
X195557Y128400D02*
X197387D01*
X194657Y127500D02*
X195557Y128400D01*
X142717Y189000D02*
Y194258D01*
Y186800D02*
Y189000D01*
X220843Y91500D02*
X247000D01*
X247500Y92000D01*
X228857Y93500D02*
X231357Y96000D01*
X332548Y113559D02*
X336743D01*
X332546Y113561D02*
X332548Y113559D01*
X329546Y113561D02*
X332546D01*
X336743Y113559D02*
X338342Y115158D01*
X327500Y115607D02*
X329546Y113561D01*
X337572Y111559D02*
X338217Y112205D01*
X327500Y115607D02*
Y116500D01*
X327340D02*
X327500D01*
X327000Y116840D02*
X327340Y116500D01*
X321000Y151500D02*
X321500Y152000D01*
X302756Y162402D02*
X344882D01*
X302988Y166500D02*
X334216D01*
X324004Y156496D02*
X325500Y155000D01*
X302756Y156496D02*
X324004D01*
X317200Y173400D02*
X317500Y173700D01*
X338217Y112205D02*
X344882D01*
X338342Y115158D02*
X344882D01*
X334646Y117717D02*
X335622D01*
Y117828D01*
X336794Y119000D01*
X338488D01*
X343504Y124016D01*
X310192Y129921D02*
X337598D01*
X309480Y130634D02*
X310192Y129921D01*
X233507Y197800D02*
X240713D01*
X233507Y197663D02*
Y197800D01*
X240158Y197244D02*
X240713Y197800D01*
X213583Y175197D02*
X216186Y177800D01*
X350000Y28784D02*
X351938Y26846D01*
X4000Y105378D02*
X10827Y112205D01*
X4000Y72772D02*
Y105378D01*
Y72772D02*
X11811Y64961D01*
X10809Y162402D02*
X14174D01*
X6571Y166640D02*
X10809Y162402D01*
X10000Y133089D02*
X11220Y131869D01*
X6500Y102957D02*
X12795Y109252D01*
X6500Y75587D02*
Y102957D01*
Y75587D02*
X14174Y67914D01*
X348598Y140402D02*
Y163811D01*
X354921Y170134D01*
Y175197D01*
X356921Y138921D02*
Y154907D01*
X355158Y156670D02*
X356921Y154907D01*
X354093Y156670D02*
X355158D01*
X353631Y156208D02*
X354093Y156670D01*
X352256Y156208D02*
X353631D01*
X351968Y156496D02*
X352256Y156208D01*
X344000Y155138D02*
X344882Y156020D01*
X344000Y138500D02*
Y155138D01*
X351453Y115673D02*
X351968Y115158D01*
X334646Y102756D02*
X339500Y97902D01*
Y91000D02*
Y97902D01*
X355118Y175394D02*
X355315Y175197D01*
X335236Y166929D02*
X343504Y175197D01*
X334646Y166929D02*
X335236D01*
X334216Y166500D02*
X334646Y166929D01*
X240158Y102756D02*
X241732Y104331D01*
X244942Y98598D02*
X246500Y100157D01*
X228298Y98598D02*
X244942D01*
X231357Y96000D02*
X254343D01*
X257343Y99000D01*
X281000D02*
X285000Y95000D01*
X257343Y99000D02*
X281000D01*
X227200Y97500D02*
X228298Y98598D01*
X241732Y104331D02*
X272638D01*
X251500Y87500D02*
X259000Y95000D01*
X213200Y81693D02*
X243154D01*
X256786Y85358D02*
X266428Y95000D01*
X233900Y103600D02*
X233998D01*
X285400Y102756D02*
X292656Y95500D01*
X308000D01*
X194488Y117717D02*
X201772Y125000D01*
X192913Y117717D02*
X194488D01*
X197387Y128400D02*
X200984Y124803D01*
X207406Y130634D02*
X242398D01*
X207372Y130600D02*
X207406Y130634D01*
X135827Y137795D02*
X139764Y141732D01*
X263023Y130634D02*
X264657Y129000D01*
X252032D02*
X256209D01*
X249016Y125984D02*
X252032Y129000D01*
X203150Y62008D02*
X203150D01*
X203150Y62008D01*
Y58850D02*
Y62008D01*
X302756Y159449D02*
X303106Y159098D01*
X344532D02*
X344882Y159449D01*
X257480Y115158D02*
X270858D01*
X274500Y118800D01*
X155000Y250078D02*
X155906Y250984D01*
X155000Y244000D02*
Y250078D01*
X155906Y250984D02*
X155906D01*
X159646Y325000D02*
X164370Y329724D01*
X122263Y329000D02*
X148882D01*
X139843Y323500D02*
X142343Y321000D01*
X92500Y323500D02*
X139843D01*
X145657Y321000D02*
X147429Y322772D01*
X146485Y319000D02*
X148257Y320772D01*
X141515Y319000D02*
X146485D01*
X139743Y320772D02*
X141515Y319000D01*
X95429Y320772D02*
X139743D01*
X142343Y321000D02*
X145657D01*
X144000Y325000D02*
X159646D01*
X148882Y329000D02*
X154528Y334646D01*
X154528Y315945D02*
X158312D01*
X121291Y328028D02*
X122263Y329000D01*
X115138D02*
X116111Y328028D01*
X112929Y329000D02*
X115138D01*
X116111Y328028D02*
X121291D01*
X107283Y334646D02*
X112929Y329000D01*
X85000Y321000D02*
X89343D01*
X90843Y319500D01*
X94157D01*
X95429Y320772D01*
X64225Y327756D02*
X100394D01*
X60039Y331942D02*
X64225Y327756D01*
X71457Y332677D02*
X79177D01*
X10201Y341500D02*
X14174Y345472D01*
X14174Y345472D02*
X14174Y345472D01*
X14174D01*
X8000Y341500D02*
X10201D01*
X11220Y311221D02*
Y315945D01*
X7638Y307638D02*
X11220Y311221D01*
X8500Y324000D02*
X11000Y326500D01*
Y329500D01*
X12009Y330509D01*
X12348Y348425D02*
X14174D01*
X10803Y349969D02*
X12348Y348425D01*
X10803Y349969D02*
Y353304D01*
X90657Y357500D02*
X92500D01*
X79444Y339535D02*
X80000Y340091D01*
Y339000D02*
Y340091D01*
X100394Y327756D02*
X107283Y334646D01*
X100984Y340945D02*
X107283Y334646D01*
X98425Y340945D02*
X100984D01*
X142700Y238600D02*
Y244472D01*
X144685Y246457D01*
X196100Y323554D02*
Y323700D01*
X160038Y212600D02*
X162992Y209646D01*
X179758Y115158D02*
X180000Y115400D01*
X181657Y111400D02*
X182462Y112205D01*
X178343Y111400D02*
X181657D01*
X177538Y112205D02*
X178343Y111400D01*
X162992Y112205D02*
X177538D01*
X180200Y157400D02*
X181500Y158700D01*
X186758Y159098D02*
X202800D01*
X183157Y162700D02*
X186758Y159098D01*
X179843Y162700D02*
X183157D01*
X186315Y162370D02*
X190233D01*
X183985Y164700D02*
X186315Y162370D01*
X179015Y164700D02*
X183985D01*
X189436Y164402D02*
X190386D01*
X189404Y164370D02*
X189436Y164402D01*
X187144Y164370D02*
X189404D01*
X184814Y166700D02*
X187144Y164370D01*
X178186Y166700D02*
X184814D01*
X176685Y162370D02*
X179015Y164700D01*
X175856Y164370D02*
X178186Y166700D01*
X173703Y175197D02*
X173800Y175100D01*
X157300Y102500D02*
X159743D01*
X91543Y182800D02*
X161300D01*
X96543Y184800D02*
X148300D01*
X85343Y189000D02*
X91543Y182800D01*
X84000Y189000D02*
X85343D01*
X83000Y180000D02*
X179000D01*
X98000Y189000D02*
X132000D01*
X142700Y194275D02*
X145669Y197244D01*
X142700Y194275D02*
X142717Y194258D01*
X154976Y175197D02*
X165802Y164370D01*
X154528Y175197D02*
X154976D01*
X154528Y173721D02*
Y175197D01*
X147638Y166831D02*
X154528Y173721D01*
X91000Y189000D02*
X92343D01*
X96543Y184800D01*
X126382Y174182D02*
Y174618D01*
X126200Y174000D02*
X126382Y174182D01*
X125003Y175197D02*
X126200Y174000D01*
X98425Y197244D02*
X109008D01*
X109252Y197000D01*
X86291Y132634D02*
X88657Y135000D01*
X46102Y137000D02*
X84000D01*
X34209Y132634D02*
X86291D01*
X88657Y135000D02*
X96000D01*
X66658Y130634D02*
X100665D01*
X58900Y147800D02*
Y148580D01*
X68898Y150591D02*
Y151379D01*
X62992Y156496D02*
X68898Y150591D01*
X65766Y146591D02*
X70555D01*
X75600Y145900D02*
X97210D01*
X61418Y115158D02*
X63705Y117445D01*
X77445D01*
X68504Y115158D02*
X87158D01*
X77445Y117445D02*
X80000Y120000D01*
X69489Y111886D02*
X69808Y112205D01*
X68598Y109158D02*
X108568D01*
X108662Y109252D01*
X68504D02*
X68598Y109158D01*
X68504Y111886D02*
X69489D01*
X71457Y125984D02*
X85247D01*
X87732Y123500D01*
X35433Y141732D02*
X96457D01*
X77406Y221106D02*
X77756Y221457D01*
X71457Y221106D02*
X77406D01*
X101351Y206047D02*
X101997Y206693D01*
X95499Y206047D02*
X101351D01*
X94853Y206693D02*
X95499Y206047D01*
X96328Y208047D02*
X100523D01*
X95682Y208693D02*
X96328Y208047D01*
X100523D02*
X102122Y209646D01*
X108343Y206693D02*
X108662Y206374D01*
Y206693D01*
X101997D02*
X108343D01*
X68504Y203740D02*
X108662D01*
X108662Y209646D02*
Y209646D01*
X108662Y209646D02*
X108662Y209646D01*
X102122Y209646D02*
X108662D01*
X108662Y206374D02*
Y206693D01*
X132400Y208800D02*
X136200Y212600D01*
X127343Y208800D02*
X132400D01*
X126497Y209646D02*
X127343Y208800D01*
X115748Y209646D02*
X126497D01*
X153480Y217457D02*
X161228Y225204D01*
X149501Y217457D02*
X153480D01*
X161228Y225204D02*
X162803D01*
X109600Y211000D02*
X111400Y212800D01*
X109965Y215823D02*
X126366D01*
X111400Y212800D02*
X129000D01*
X285433Y197244D02*
X286094Y197906D01*
X257480Y203740D02*
X295670D01*
X15300Y339513D02*
X21260Y345472D01*
X15300Y324400D02*
Y339513D01*
X14689Y304649D02*
Y323789D01*
X15300Y324400D01*
X14174Y304134D02*
X14689Y304649D01*
X308943Y216700D02*
X318600D01*
X319300Y216000D01*
X308243D02*
X308943Y216700D01*
X302024Y216000D02*
X308243D01*
X310100Y212700D02*
X310600D01*
X307046Y209646D02*
X310100Y212700D01*
X295670Y209646D02*
X302024Y216000D01*
X301543Y225756D02*
X336252D01*
X294291Y218504D02*
X301543Y225756D01*
X336252D02*
X343504Y218504D01*
X284924Y246394D02*
X295418Y235900D01*
X295670Y245570D02*
Y250984D01*
X295400Y245300D02*
X295670Y245570D01*
X295319Y253587D02*
X295670Y253937D01*
X257830Y253587D02*
X295319D01*
X293588Y269488D02*
X294488D01*
X285517Y261417D02*
X293588Y269488D01*
X284449Y261417D02*
X285517D01*
X155906Y209646D02*
X158000D01*
X159449Y208197D01*
X169086Y225204D02*
X195071D01*
X168535Y225756D02*
X169086Y225204D01*
X163355Y225756D02*
X168535D01*
X162803Y225204D02*
X163355Y225756D01*
X169915Y227204D02*
X209219D01*
X169363Y227756D02*
X169915Y227204D01*
X162527Y227756D02*
X169363D01*
X161975Y227204D02*
X162527Y227756D01*
X170743Y229204D02*
X208391D01*
X170192Y229756D02*
X170743Y229204D01*
X161698Y229756D02*
X170192D01*
X161147Y229204D02*
X161698Y229756D01*
X130357Y239200D02*
X142353Y227204D01*
X302756Y209646D02*
X307046D01*
X302756Y203740D02*
X344882D01*
X303075Y206374D02*
X344882D01*
X322300Y221000D02*
X325300Y218000D01*
X316600Y221000D02*
X322300D01*
X315300Y219700D02*
X316600Y221000D01*
X305700Y219700D02*
X315300D01*
X302756Y206693D02*
X303075Y206374D01*
X327500Y309400D02*
Y310000D01*
X315403Y175197D02*
X317200Y173400D01*
X260215Y111800D02*
X295265D01*
X257480Y162402D02*
X295670D01*
X242398Y130634D02*
X249016Y124016D01*
X213189Y125900D02*
X221500D01*
X247816Y124016D02*
X249016D01*
X241516Y117717D02*
X247816Y124016D01*
X321657Y246457D02*
X333661D01*
X319000Y243800D02*
X321657Y246457D01*
X237102Y164402D02*
X239300Y166600D01*
X236680Y164402D02*
X237102D01*
X236649Y164370D02*
X236680Y164402D01*
X213047Y164370D02*
X236649D01*
X219777Y152900D02*
X220800Y153200D01*
X193539Y152200D02*
X201395D01*
X192913Y151575D02*
X193539Y152200D01*
X165945Y175197D02*
X173703D01*
X295418Y235900D02*
X307900D01*
X119504Y156496D02*
X126200Y149800D01*
X115748Y156496D02*
X119504D01*
X108662D02*
X110404D01*
X118701Y230553D02*
X121500Y233352D01*
X118701Y220472D02*
Y230553D01*
X114700Y237000D02*
X118900Y241200D01*
X109252Y228652D02*
X119800Y239200D01*
X130357D01*
X118900Y241200D02*
X131185D01*
X143181Y229204D01*
X121500Y233352D02*
Y235100D01*
X119095Y175197D02*
X125003D01*
X75957Y221457D02*
X77756D01*
X243110Y318898D02*
X249016Y312992D01*
X265901Y329724D02*
X291339D01*
X264204Y328028D02*
X265901Y329724D01*
X258858Y334646D02*
X270669D01*
X154528Y31496D02*
Y33216D01*
X249016Y79232D02*
Y80709D01*
Y78075D02*
Y79232D01*
X201772Y79232D02*
Y80709D01*
X194980Y72441D02*
X201772Y79232D01*
X126200Y77400D02*
X134158Y85358D01*
X166339Y80709D02*
X172244Y74803D01*
X173228D01*
X168958Y85358D02*
X172183Y88582D01*
X118701Y82322D02*
X123977Y87598D01*
X155906Y62008D02*
X161417Y56496D01*
X167913Y57087D02*
X169291D01*
X162992Y62008D02*
X167913Y57087D01*
X77756Y80709D02*
X79724Y78740D01*
X71850Y80709D02*
X77756D01*
X66365Y72835D02*
X83661D01*
X344882Y20670D02*
X348330Y24117D01*
X351938Y26846D02*
X351968D01*
Y20670D02*
Y26846D01*
X264438Y26638D02*
X268389D01*
X261300Y23500D02*
X264438Y26638D01*
X268389D02*
X272389Y22638D01*
X277559D01*
X336614Y36417D02*
X343504Y29528D01*
X287402Y36417D02*
X294291Y29528D01*
X114173Y36417D02*
X147979D01*
X107283Y29528D02*
X114173Y36417D01*
X30784Y36146D02*
X37402Y29528D01*
X19323Y36146D02*
X30784D01*
X18445Y35267D02*
X19323Y36146D01*
X18445Y27725D02*
Y35267D01*
Y27725D02*
X21260Y24910D01*
Y20670D02*
Y24910D01*
X22638Y27756D02*
Y29528D01*
X21260Y14764D02*
X61418D01*
X23622Y7874D02*
Y9842D01*
X6890Y39370D02*
X8858D01*
X12795Y35433D01*
Y29528D02*
Y35433D01*
X323146Y67976D02*
X328429D01*
X319780Y64610D02*
X323146Y67976D01*
X303106Y64610D02*
X319780D01*
X322318Y69976D02*
X329871D01*
X319619Y70106D02*
X321490Y71976D01*
X305342Y70106D02*
X319619D01*
X320255Y67914D02*
X322318Y69976D01*
X302756Y67914D02*
X320255D01*
X328740Y62008D02*
X344882D01*
X336401Y57300D02*
X341535Y52165D01*
X294739Y80709D02*
X305342Y70106D01*
X162992Y67914D02*
X203150D01*
X10827Y80709D02*
Y88583D01*
X35827Y94882D02*
X44291Y103347D01*
X21260Y94882D02*
X35827Y94882D01*
X23622Y99213D02*
X23622Y99213D01*
X302725Y130634D02*
X309480D01*
X302012Y129921D02*
X302725Y130634D01*
X299213Y129921D02*
X302012D01*
X6571Y166640D02*
Y196137D01*
X14174Y154302D02*
Y156496D01*
X43306Y185039D02*
X45276D01*
X287039Y225756D02*
X294291Y218504D01*
X162992Y162402D02*
X163023Y162370D01*
X202220Y175197D02*
X213047Y164370D01*
X201772Y175197D02*
X202220D01*
X210236Y162402D02*
X210268Y162370D01*
X193209Y166634D02*
X201772Y175197D01*
X107283Y173721D02*
Y175197D01*
X68504Y162402D02*
X108662D01*
X71850Y185039D02*
X71850Y185039D01*
Y175197D02*
Y185039D01*
X21579Y206374D02*
X61418D01*
X116098Y159098D02*
X155555D01*
X6571Y196137D02*
X14174Y203740D01*
X4571Y165705D02*
Y199453D01*
X4921Y199803D01*
X25098Y246555D02*
X31496D01*
X21260Y250984D02*
Y251059D01*
X14764Y225394D02*
Y241536D01*
X12795Y223425D02*
X14764Y225394D01*
X12795Y218504D02*
Y223425D01*
X5906Y216383D02*
Y223578D01*
X9843Y227515D01*
Y228346D01*
X5906Y216383D02*
X8434Y213854D01*
X10555D01*
X10827Y213583D01*
X12795Y269685D02*
X12795Y269685D01*
Y281496D01*
X348500Y252400D02*
X349916Y250984D01*
X354331Y269685D02*
Y280512D01*
X192126Y260039D02*
X201772Y269685D01*
X156496D02*
X166142Y260039D01*
X154528Y269685D02*
X156496D01*
X163342Y253587D02*
X202800D01*
X173229Y250984D02*
X178150Y246063D01*
X162992Y250984D02*
X173229D01*
X146260Y261417D02*
X154528Y269685D01*
X117791Y259178D02*
X142445D01*
X107283Y269685D02*
X117791Y259178D01*
X100492Y261417D02*
X107283Y268209D01*
Y269685D01*
X76772Y263779D02*
X77756D01*
X72835Y267716D02*
X76772Y263779D01*
X69882Y267716D02*
X72835D01*
X69882D02*
X71850Y269685D01*
X3906Y293276D02*
X4921Y294291D01*
X3906Y260858D02*
X10827Y253937D01*
X3906Y260858D02*
Y293276D01*
X5906Y291338D02*
X12795Y298228D01*
X5906Y263627D02*
Y291338D01*
Y263627D02*
X8434Y261098D01*
X17800Y272874D02*
X19532Y274606D01*
X17800Y252000D02*
Y272874D01*
X8434Y261098D02*
X8587D01*
X12795Y256890D01*
X71850Y315945D02*
X72835Y314961D01*
X81693D01*
X124016D02*
X126969D01*
X123031Y315945D02*
X124016Y314961D01*
X63824Y315945D02*
X69729Y310039D01*
X100394Y306103D02*
X107283Y312992D01*
X60039Y315945D02*
X63824D01*
X62354Y304134D02*
X64641Y306422D01*
X61418Y304134D02*
X62354D01*
X64641Y306422D02*
X70995D01*
X72299Y305118D01*
X66234Y304134D02*
X68504D01*
X65100Y303000D02*
X66234Y304134D01*
X72299Y305118D02*
X82677D01*
X68504Y298228D02*
X108662D01*
X181072Y306102D02*
X194390D01*
X195374Y307087D01*
X201772Y313484D01*
X194882Y306594D02*
X195374Y307087D01*
X107283Y315945D02*
X111068D01*
X115748Y304134D02*
X129922D01*
X119095Y315945D02*
X123031D01*
X164370Y329724D02*
Y334646D01*
X201772Y313484D02*
Y315945D01*
X264204Y320595D02*
X265901Y318898D01*
X294291Y312992D02*
X301894Y320595D01*
X309480D01*
X311176Y318898D01*
X337599D01*
X343504Y312992D01*
X198756Y331630D02*
X200787Y333661D01*
X201772Y334646D01*
X155512Y333661D02*
X155512D01*
X154528Y334646D02*
X155512Y333661D01*
X154528Y332677D02*
X159177Y337327D01*
X200787Y333661D02*
X201772Y332677D01*
X291339Y329724D02*
X294291Y332677D01*
X155900Y22100D02*
X158000Y24200D01*
X160433Y20670D02*
X162992D01*
X159300Y19536D02*
X160433Y20670D01*
X159300Y8700D02*
Y19536D01*
X295670Y20670D02*
X298622Y23622D01*
X250394Y20670D02*
X253224Y23500D01*
X122047Y247047D02*
X123031D01*
X118111Y250984D02*
X122047Y247047D01*
X115748Y250984D02*
X118111D01*
X14174Y209646D02*
X15999D01*
X17600Y208045D01*
X10827Y213583D02*
X17263D01*
X253224Y23500D02*
X261300D01*
X109600Y209646D02*
Y211000D01*
X112300Y113958D02*
Y114000D01*
X111100Y115158D02*
X111142D01*
X108662D02*
X111100D01*
X17263Y213583D02*
X21200Y209646D01*
X21260D01*
X298542Y117500D02*
X314340D01*
X296200Y115158D02*
X298542Y117500D01*
X295670Y115158D02*
X296200D01*
X302700Y250984D02*
X302756D01*
X68504Y62008D02*
X68600D01*
X349916Y250984D02*
X351968D01*
X302756Y62008D02*
X302800D01*
X304134Y312992D02*
Y313000D01*
X324500D01*
X108662Y209646D02*
X109600D01*
X344882D02*
X347000D01*
X348300Y208346D01*
X155900Y20670D02*
Y22100D01*
Y20670D02*
X155906D01*
X250394D02*
X251500D01*
X258858Y29528D02*
Y33200D01*
X305634Y119500D02*
X320400D01*
X299200Y102800D02*
Y114000D01*
X300358Y115158D01*
X302756D01*
X111142D02*
X112300Y114000D01*
X20200Y304134D02*
X21260D01*
X108662D02*
X111000D01*
X112100Y303034D01*
Y296000D02*
Y303034D01*
X108662Y20670D02*
X108700D01*
X68504Y250984D02*
X71851D01*
X112300Y20670D02*
X115748D01*
X112300Y12500D02*
Y20670D01*
X117126Y29528D02*
Y29800D01*
X299200Y19870D02*
X300000Y20670D01*
X302756D01*
X111100Y115158D02*
X112300Y113958D01*
Y106800D02*
Y113958D01*
X158104Y156496D02*
X160400Y154200D01*
X155906Y156496D02*
X158104D01*
X210236D02*
X210300D01*
X16242Y115158D02*
X17800Y113600D01*
X14174Y115158D02*
X16242D01*
X11811Y17717D02*
X14174D01*
X117126Y334600D02*
Y334646D01*
X5950Y57050D02*
X10908Y62008D01*
X14174D01*
X115748Y115158D02*
X119658D01*
X16784Y250984D02*
X17800Y252000D01*
X14174Y250984D02*
X16784D01*
X295670Y62008D02*
X297400D01*
X349434Y304134D02*
X351968D01*
X249016Y124016D02*
Y125984D01*
X294291Y124016D02*
Y125000D01*
X60039Y331942D02*
Y334646D01*
X270669D02*
X278543Y342520D01*
X294291Y332677D02*
Y334646D01*
X154528Y311221D02*
Y312992D01*
X197244Y340945D02*
X201772Y336417D01*
Y334646D02*
Y336417D01*
X351968Y64961D02*
X356299D01*
X351968Y17717D02*
X356299D01*
X351968Y67914D02*
X358268D01*
X351968Y14764D02*
X359252D01*
X287992Y340945D02*
X294291Y334646D01*
X22638Y311221D02*
Y312992D01*
X60039Y311221D02*
Y312992D01*
X68504Y253937D02*
X68854Y253587D01*
X210236Y14764D02*
X250394D01*
X162992D02*
X203150D01*
X115748D02*
X155906D01*
X60039Y27756D02*
Y29528D01*
X21260Y111886D02*
X61099D01*
X21260Y109252D02*
X61418D01*
X61099Y111886D02*
X61418Y112205D01*
X115748Y109252D02*
X155906D01*
X257480Y67914D02*
X295670D01*
X351968Y351378D02*
X357283D01*
X351968Y298228D02*
X359252D01*
X295670Y300862D02*
Y301181D01*
X250075Y300862D02*
X250394Y301181D01*
X61418Y300862D02*
Y301181D01*
X21579Y300862D02*
X61418D01*
X21260Y301181D02*
X21579Y300862D01*
X12795Y298228D02*
X14174D01*
X11811Y301181D02*
X14174D01*
X4921Y294291D02*
X11811Y301181D01*
X10827Y253937D02*
X14174D01*
X12795Y256890D02*
X14174D01*
X351968Y301181D02*
X357284D01*
X351968Y256890D02*
X354330D01*
X351968Y203740D02*
X355315D01*
X351968Y206693D02*
X354331D01*
X351968Y253937D02*
X353794D01*
X344882Y206374D02*
Y206693D01*
X295670Y206374D02*
Y206693D01*
X162992Y203740D02*
X203150D01*
X250394Y206374D02*
Y206693D01*
X210236D02*
X210555Y206374D01*
X203150D02*
Y206693D01*
X163311Y206374D02*
X203150D01*
X162992Y206693D02*
X163311Y206374D01*
X155906D02*
Y206693D01*
X61418Y206374D02*
Y206693D01*
X21260D02*
X21579Y206374D01*
X11811Y206693D02*
X14174D01*
X4921Y199803D02*
X11811Y206693D01*
X10827Y159449D02*
X14174D01*
X21260Y111886D02*
Y112205D01*
X68504Y111886D02*
Y112205D01*
X210236Y111886D02*
Y112205D01*
X250075Y111886D02*
X250394Y112205D01*
X257480Y111886D02*
Y112205D01*
X210236Y67914D02*
X250394D01*
X302756Y64961D02*
X303106Y64610D01*
X202800Y159098D02*
X203150Y159449D01*
X190265Y162402D02*
X203150D01*
X115748Y159449D02*
X116098Y159098D01*
X155555D02*
X155906Y159449D01*
X21260D02*
X21610Y159098D01*
X61067D02*
X61418Y159449D01*
X115748Y256890D02*
X155906D01*
X162992D02*
X203150D01*
X257480D02*
X295670D01*
X257480Y253937D02*
X257830Y253587D01*
X210236Y253937D02*
X210586Y253587D01*
X162992Y253937D02*
X163342Y253587D01*
X202800D02*
X203150Y253937D01*
X68504Y256890D02*
X108662D01*
X351968Y162402D02*
X357283D01*
X362205Y157480D01*
X357283Y109252D02*
X362205Y114173D01*
X351968Y159449D02*
X355315D01*
X12795Y109252D02*
X14174D01*
X11811Y64961D02*
X14174D01*
X10827Y112205D02*
X14174D01*
X299200Y11824D02*
Y19870D01*
X17800Y98342D02*
Y113600D01*
Y98342D02*
X21260Y94882D01*
X210236Y115158D02*
X217700D01*
X218542Y116000D01*
X222000D01*
X210236Y111886D02*
X250075D01*
X264764Y20670D02*
X266732Y22638D01*
X257480Y20670D02*
X264764D01*
X302756Y14764D02*
X344882D01*
X305709Y29825D02*
X308896Y26638D01*
X319819D02*
X319882Y26575D01*
X308896Y26638D02*
X319819D01*
X298622Y23622D02*
X310039D01*
X299200Y11824D02*
X302165Y8858D01*
X257480Y111886D02*
X260129D01*
X257480Y109252D02*
X295670D01*
X68702Y151575D02*
X68898Y151379D01*
X257480Y14764D02*
X257543Y14827D01*
X295606D02*
X295670Y14764D01*
X302756Y109252D02*
X344882D01*
X348300Y196000D02*
Y208346D01*
X61418Y62008D02*
X63976Y59449D01*
X112300Y106800D02*
X118706Y100394D01*
X17600Y194998D02*
Y208045D01*
Y194998D02*
X29528Y183071D01*
X30512Y189961D02*
X30575Y189898D01*
X343504Y356299D02*
Y358268D01*
X6890Y22638D02*
X11811Y17717D01*
X6890Y22638D02*
X6890D01*
X5906Y14764D02*
X5906Y14764D01*
X108700Y20670D02*
X111652Y23622D01*
X126968D01*
X127953Y22637D01*
Y22145D02*
Y22637D01*
X117126Y29800D02*
X117754Y29172D01*
X117398Y29528D02*
X127953D01*
X99016Y8858D02*
X109252D01*
X149606Y339567D02*
X154528Y334646D01*
X149606Y339567D02*
Y339567D01*
X148228Y340945D02*
X149606Y339567D01*
X145669Y340945D02*
X148228D01*
X192913D02*
X197244D01*
X285433D02*
X287992D01*
X333661Y306693D02*
X338976D01*
X22638Y311221D02*
X27756Y306102D01*
X54921D01*
X60039Y311221D01*
X50197Y291732D02*
X50465Y292000D01*
X192913Y355906D02*
X193504Y355315D01*
X206172D01*
X334646Y356299D02*
X343504D01*
X22244Y268110D02*
X29528Y260827D01*
X22244Y268110D02*
Y269685D01*
X60039D02*
X60433D01*
X60039Y267519D02*
Y269685D01*
X70547Y259178D01*
X95201D01*
X97441Y261417D01*
X98276D01*
X97441D02*
X100492D01*
X142445Y259178D02*
X144685Y261417D01*
X146260D01*
X166142Y260039D02*
X192126D01*
X201772Y269685D02*
X210630Y260827D01*
X97441Y291732D02*
X102756D01*
X249016Y312992D02*
X249508Y313484D01*
X249016Y269685D02*
X257874Y260827D01*
X284449D01*
X294488Y269488D02*
X294685Y269685D01*
X284386Y246394D02*
X284449Y246457D01*
X344882Y250984D02*
Y250984D01*
X333661Y261417D02*
X335630D01*
X343898Y269685D01*
X325787Y294094D02*
X331299D01*
X333661Y291732D01*
X354921Y315945D02*
Y321457D01*
X45276Y193898D02*
X47835D01*
X51181Y197244D01*
X31496D02*
X38780D01*
X335630Y211614D02*
X342520Y218504D01*
X343504D01*
X30512Y166929D02*
X38229D01*
X22244Y175197D02*
X30512Y166929D01*
X60039Y175197D02*
X60433D01*
X51772Y166929D02*
X60039Y175197D01*
X51181Y166929D02*
X51772D01*
X98425D02*
X106693Y175197D01*
X107283D01*
X107677D01*
X107283D02*
X117780Y164700D01*
X108311Y159098D02*
X108662Y159449D01*
X68504D02*
X68854Y159098D01*
X108311D01*
X69945Y165291D02*
X96787D01*
X98425Y166929D01*
X60039Y175197D02*
X69945Y165291D01*
X239300Y166600D02*
X240093D01*
X285433Y151969D02*
X285500Y152035D01*
Y152331D02*
X285648Y152183D01*
X202461Y125689D02*
Y125689D01*
X202165Y125984D02*
X202461Y125689D01*
X201772Y125000D02*
X202461Y125689D01*
X201772Y124016D02*
Y125000D01*
Y125000D01*
X202461Y125689D01*
X207372Y130600D01*
X200984Y124803D02*
X201279Y124508D01*
X201772Y124016D01*
X98425Y117717D02*
X99410D01*
X106496Y124803D01*
X107677Y125984D01*
X106496Y124803D02*
X107283Y124016D01*
X113901Y130634D01*
X100665D02*
X106496Y124803D01*
X60039Y124016D02*
X66658Y130634D01*
X22244Y125984D02*
X23228D01*
X31496Y117717D01*
X31773Y117600D02*
X52200D01*
X58616Y124016D01*
X60039D01*
X51181Y102756D02*
X51772Y103347D01*
X61024D01*
X23622Y99213D02*
X23720Y99311D01*
X99016Y103346D02*
X109252D01*
X98425Y102756D02*
X99016Y103346D01*
X285400Y102756D02*
X285433D01*
X334646Y72441D02*
X335630D01*
X321490Y71976D02*
X334646D01*
X335630Y72441D02*
X343898Y80709D01*
X285433Y72441D02*
X286024D01*
X294291Y80709D02*
X294685D01*
X286024Y72441D02*
X294291Y80709D01*
X294685D02*
X294739D01*
X249016Y78075D02*
X254491Y72600D01*
X285433D01*
X240158Y72441D02*
X242224D01*
X201772Y80709D02*
X210180Y72300D01*
X239057D01*
X240158Y71200D01*
X192913Y72441D02*
X194980D01*
X164436Y70800D02*
X193000D01*
X145669Y72441D02*
X153937Y80709D01*
X154528D01*
X154921D01*
X154528D02*
X164436Y70800D01*
X143110Y154528D02*
X145669Y151969D01*
X192913Y151575D02*
Y151969D01*
X285433Y117717D02*
X287008D01*
X294685Y125984D02*
X294980Y125689D01*
X294685Y125984D02*
X294685D01*
X287008Y117717D02*
X293799Y124508D01*
X294291Y125000D01*
X294980Y125689D01*
X299213Y129921D01*
X293799Y124508D02*
X294291Y124016D01*
X240158Y117717D02*
X241516D01*
X146246Y116746D02*
X153516Y124016D01*
X154528D01*
X119658Y115158D02*
X121800Y117300D01*
X123000D01*
X172183Y88582D02*
X172244D01*
X134158Y85358D02*
X168958D01*
X159743Y102500D02*
X167600Y94643D01*
Y89943D02*
Y94643D01*
X160501Y106964D02*
X169536D01*
X159622Y107843D02*
X160501Y106964D01*
X159622Y107843D02*
Y113378D01*
X157842Y115158D02*
X159622Y113378D01*
X155906Y115158D02*
X157842D01*
X155900Y91700D02*
Y91924D01*
X162908Y91535D02*
X163535D01*
X158043Y96400D02*
X162908Y91535D01*
X193574Y22174D02*
X201900Y30500D01*
X160897Y26846D02*
X169315D01*
X177901Y35433D01*
X165945Y31496D02*
Y41555D01*
X165900Y41510D02*
X165945Y41555D01*
X165900Y40900D02*
Y41510D01*
X268028Y11500D02*
X268701Y10827D01*
X240300Y23100D02*
X241400D01*
X248422Y30122D01*
X286516Y21752D02*
X294291Y29528D01*
X290442Y4858D02*
X308008D01*
X335728Y21752D02*
X343504Y29528D01*
X335000Y57300D02*
X336401D01*
X348330Y24117D02*
Y27626D01*
X347900Y28056D02*
X348330Y27626D01*
X335542Y9558D02*
X343789D01*
X344488Y8858D01*
X206600Y12691D02*
X210433Y8858D01*
X239665Y7382D02*
Y7628D01*
X243538Y11500D01*
X268028D01*
X208195Y8268D02*
X212353Y4110D01*
X192913Y8268D02*
X208195D01*
X212353Y4110D02*
X245910D01*
X249200Y7400D01*
X132874Y9843D02*
X144094D01*
X145669Y8268D01*
X153419Y30978D02*
X153937Y31496D01*
X147979Y36417D02*
X153419Y30978D01*
X154528Y29869D01*
X153937Y31496D02*
X154528D01*
X154921D01*
X154528Y33216D02*
X160897Y26846D01*
X147128Y23228D02*
X153419Y29519D01*
Y30978D01*
X145669Y23228D02*
X147128D01*
X154021Y3421D02*
X159300Y8700D01*
X98425Y8268D02*
X99016Y8858D01*
X59646Y8268D02*
X61024Y6890D01*
X51181Y8268D02*
X59646D01*
X23622Y7874D02*
X31102D01*
X31496Y8268D01*
X28150Y54134D02*
X31496Y57480D01*
X51181D02*
X58662D01*
X98783Y213583D02*
X98800Y213600D01*
X192913Y212205D02*
X195472D01*
X201772Y218504D01*
X11220Y331298D02*
Y332677D01*
X50197Y246457D02*
X53740D01*
X102756Y241142D02*
X109252D01*
X97441Y246457D02*
X102756Y241142D01*
X68854Y253587D02*
X108311D01*
X108662Y253937D01*
X108662Y250984D02*
X108662Y250984D01*
X108662Y250984D02*
X108662D01*
X89200Y247300D02*
X90100D01*
X93784Y250984D01*
X108662D01*
X155555Y253587D02*
X155906Y253937D01*
X115748D02*
X116098Y253587D01*
X155555D01*
X347400Y214214D02*
Y229400D01*
Y214214D02*
X351968Y209646D01*
X354900Y221128D02*
Y229300D01*
Y221128D02*
X354921Y221106D01*
X347400Y229400D02*
Y248466D01*
X344882Y250984D02*
X347400Y248466D01*
X190233Y162370D02*
X190265Y162402D01*
X190386Y164402D02*
X192913Y166929D01*
X30512Y72441D02*
X31496D01*
X22244Y80709D02*
X30512Y72441D01*
X51181D02*
X59449Y80709D01*
X60039D01*
X60433D01*
X60039Y79161D02*
Y80709D01*
Y79161D02*
X66365Y72835D01*
X98032D02*
X98425Y72441D01*
X83661Y72835D02*
X98032D01*
X98425Y72441D02*
X106693Y80709D01*
X107677D01*
X115945Y72441D01*
X145669D01*
X329871Y69976D02*
X331934Y67914D01*
X344882D01*
X326771Y63976D02*
X328740Y62008D01*
X216300Y47000D02*
Y59804D01*
X129879Y3421D02*
X154021D01*
X123500Y9800D02*
X129879Y3421D01*
X115000Y9800D02*
X123500D01*
X112300Y12500D02*
X115000Y9800D01*
X15146Y27725D02*
Y39654D01*
X11220Y125984D02*
Y131869D01*
X32480Y144685D02*
X35433Y141732D01*
X10000Y245200D02*
X11100D01*
X14764Y241536D01*
X69729Y310039D02*
X84461D01*
X88397Y306103D01*
X100394D01*
X201772Y334646D02*
X203587D01*
X210205Y328028D01*
X218657Y318898D02*
X243110D01*
X216960Y320595D02*
X218657Y318898D01*
X207457Y320600D02*
X209457Y322600D01*
X210280Y320595D02*
X216960D01*
X205630Y315945D02*
X210280Y320595D01*
X199054Y320600D02*
X207457D01*
X201772Y315945D02*
X205630D01*
X324500Y313000D02*
X327500Y310000D01*
X257843Y328028D02*
X263023D01*
X263023Y328028D01*
X264204D01*
X257843Y320595D02*
X264204D01*
X254100Y322600D02*
X254400Y322900D01*
X251225Y334646D02*
X257843Y328028D01*
X250733Y313484D02*
X257843Y320595D01*
X249508Y313484D02*
X250733D01*
X249016Y334646D02*
X251225D01*
X243370Y329000D02*
X249016Y334646D01*
X216700Y329000D02*
X243370D01*
X215779Y328028D02*
X216657Y328906D01*
Y328958D01*
X210205Y328028D02*
X215779D01*
X216657Y328958D02*
X216700Y329000D01*
X196100Y323554D02*
X199054Y320600D01*
X11220Y331298D02*
X12009Y330509D01*
X195071Y225204D02*
X201772Y218504D01*
X208472Y225204D01*
X210048D01*
X210599Y225756D01*
X209219Y227204D02*
X209771Y227756D01*
X208391Y229204D02*
X208942Y229756D01*
X119095Y269685D02*
X124515D01*
X128000Y266200D01*
X117780Y164700D02*
X121743D01*
X123143Y163300D01*
X126457D01*
X115748Y162402D02*
X121213D01*
X122315Y161300D01*
X127285D01*
X128387Y162402D01*
X155906D01*
X129988Y166831D02*
X147638D01*
X126457Y163300D02*
X129988Y166831D01*
X163023Y162370D02*
X176685D01*
X165802Y164370D02*
X175856D01*
X162992Y159449D02*
X163041Y159400D01*
X160400Y154200D02*
X177600D01*
X189712Y156496D02*
X203150D01*
X143083Y154500D02*
X143110Y154528D01*
X138900Y154500D02*
X143083D01*
X98425Y57480D02*
X102953D01*
X295265Y111800D02*
X295670Y112205D01*
X260129Y111886D02*
X260215Y111800D01*
X344882Y156020D02*
Y156496D01*
X351968Y109252D02*
X357283D01*
X23300Y244757D02*
X25098Y246555D01*
X23300Y244600D02*
Y244757D01*
X178223Y153300D02*
X178923Y154000D01*
X187216D01*
X189712Y156496D01*
X38229Y166929D02*
X45700Y174400D01*
X51181Y168919D01*
Y166929D02*
Y168919D01*
X305634Y119500D02*
Y125984D01*
X118701Y80709D02*
Y82322D01*
X68504Y64961D02*
X86204D01*
X86500Y53264D02*
X86614Y53150D01*
X86500Y53264D02*
Y59257D01*
X95449Y69162D02*
X96328Y68283D01*
X93449Y68334D02*
X96822Y64961D01*
X93449Y68334D02*
Y68334D01*
X95449Y69162D02*
Y69162D01*
X108292Y68283D02*
X108662Y67914D01*
X96328Y68283D02*
X108292D01*
X115748Y112205D02*
X155906D01*
X162992Y115158D02*
X179758D01*
X167039Y127000D02*
X174400D01*
X351500Y89900D02*
X352242D01*
X13700Y41100D02*
X15146Y39654D01*
X13700Y41100D02*
Y51200D01*
X20000Y57500D01*
Y62008D01*
X54398Y95598D02*
X150682D01*
X151484Y96400D01*
X158043D01*
X154225Y93598D02*
X155900Y91924D01*
X109498Y91598D02*
X150345D01*
X165192Y87535D02*
X167600Y89943D01*
X150345Y91598D02*
X154408Y87535D01*
X165192D01*
X352242Y89900D02*
X353043Y90700D01*
X354921Y88821D01*
Y80709D02*
Y88821D01*
X14400Y26980D02*
X15146Y27725D01*
X14174Y20670D02*
X14400D01*
Y26980D01*
X31496Y151969D02*
X37402D01*
X51181D02*
X55512D01*
X58900Y148580D01*
X61418Y156496D02*
X62992D01*
X42156Y160528D02*
X43586Y159098D01*
X61067D01*
X21260Y162402D02*
X21385Y162528D01*
X61292D02*
X61418Y162402D01*
X21385Y162528D02*
X61292D01*
X41328Y158528D02*
X43360Y156496D01*
X55861D01*
X70555Y146591D02*
X72898Y148934D01*
X55861Y156496D02*
X65766Y146591D01*
X68649Y156496D02*
X72898Y152247D01*
Y148934D02*
Y152247D01*
X115748Y156496D02*
X115852Y156600D01*
X97210Y145900D02*
X105315Y137795D01*
X98425Y151969D02*
X104921D01*
X107800Y148700D02*
Y149090D01*
X104921Y151969D02*
X107800Y149090D01*
X103883Y156496D02*
X106170Y154208D01*
X108121D01*
X68504Y156496D02*
X68649D01*
X103883D01*
X118110Y125984D02*
X127953D01*
X105315Y137795D02*
X135827D01*
X21260Y17717D02*
X21579Y17398D01*
X22638Y27756D02*
X27756Y22638D01*
X54921D01*
X60039Y27756D01*
X328429Y67976D02*
X331444Y64961D01*
X344882D01*
X140354Y102756D02*
X145669D01*
X138779Y104331D02*
X140354Y102756D01*
X209457Y322600D02*
X254100D01*
X239173Y306693D02*
X240150D01*
Y306148D02*
Y306693D01*
X210236Y298228D02*
X210362Y298102D01*
X250268D02*
X250394Y298228D01*
X246681Y300102D02*
X247441Y300862D01*
X250075D01*
X243367Y300102D02*
X246681D01*
X284449Y290354D02*
Y291732D01*
X299100Y293420D02*
X301181Y291339D01*
X308071Y290354D02*
Y291339D01*
X304134Y286417D02*
X308071Y290354D01*
X44603Y277622D02*
X74740D01*
X82900Y269462D01*
X37402Y272638D02*
X39619D01*
X44603Y277622D01*
X23622Y283465D02*
Y283858D01*
X31496Y291732D01*
X50465Y292000D02*
X59001Y283464D01*
X60039D01*
X65100Y292183D02*
Y303000D01*
Y292183D02*
X73819Y283465D01*
X109252D02*
Y285236D01*
X102756Y291732D02*
X109252Y285236D01*
X122047Y283465D02*
Y286053D01*
X112100Y296000D02*
X122047Y286053D01*
X4571Y165705D02*
X10827Y159449D01*
X11220Y170134D02*
Y175197D01*
Y170134D02*
X17889Y163465D01*
X17600Y133600D02*
X17889Y133889D01*
Y163465D01*
X115748Y17717D02*
X155906D01*
X162992D02*
X203150D01*
X210236D02*
X250394D01*
X302756D02*
X344882D01*
X21260Y64961D02*
X61418D01*
X96822D02*
X108662D01*
X162992D02*
X203150D01*
X210236D02*
X250394D01*
X210236Y62008D02*
X214096D01*
X216300Y59804D01*
X257480Y64961D02*
X295670D01*
X262368Y60000D02*
X265200D01*
X257480Y62008D02*
X260361D01*
X262368Y60000D01*
X301400Y60652D02*
X302756Y62008D01*
X281698Y60000D02*
X283340Y61643D01*
X265200Y60000D02*
X281698D01*
X283340Y61643D02*
X287201D01*
X287205Y61638D01*
X351500Y61539D02*
X351968Y62008D01*
X203150Y20670D02*
X205880Y23400D01*
X227600D01*
X206600Y18859D02*
X208410Y20670D01*
X206600Y12691D02*
Y18859D01*
X208410Y20670D02*
X210236D01*
X305709Y29825D02*
Y31496D01*
X287205Y61638D02*
X289662D01*
X293400Y57900D01*
Y55443D02*
Y57900D01*
X161816Y270030D02*
X164370D01*
X21260Y298228D02*
X61418D01*
X19134Y304134D02*
X21260D01*
X28792Y272638D02*
X29490D01*
X29528D01*
X29490D02*
X29528Y272600D01*
X26823Y274606D02*
X28792Y272638D01*
X19532Y274606D02*
X26823D01*
X17889Y283540D02*
Y302889D01*
Y283540D02*
X26823Y274606D01*
X17889Y302889D02*
X19134Y304134D01*
X86500Y59257D02*
X89643Y62400D01*
Y62443D01*
X38900Y154400D02*
X39833D01*
X21260Y156496D02*
X35339D01*
X21610Y159098D02*
X35113D01*
X36542Y160528D01*
X35339Y156496D02*
X37371Y158528D01*
X37402Y151969D02*
X39833Y154400D01*
X37371Y158528D02*
X41328D01*
X36542Y160528D02*
X42156D01*
X38780Y197244D02*
X40600Y199065D01*
Y200100D01*
X21620Y204100D02*
X61058D01*
X21260Y203740D02*
X21620Y204100D01*
X61058D02*
X61418Y203740D01*
X79177Y332677D02*
X79500Y332354D01*
Y332200D02*
Y332354D01*
X29292Y341300D02*
X42400D01*
X53385D01*
X22638Y334646D02*
X29292Y341300D01*
X53385D02*
X60039Y334646D01*
X117126Y334600D02*
X126500D01*
X204343Y278000D02*
X244343D01*
X210599Y225756D02*
X215779D01*
X209771Y227756D02*
X216607D01*
X208942Y229756D02*
X217436D01*
X221400Y234400D02*
Y235900D01*
X223885Y228400D02*
X223985Y228500D01*
X248500D01*
X224714Y226400D02*
X224814Y226500D01*
X225542Y224400D02*
X225642Y224500D01*
X245600D01*
X224814Y226500D02*
X249500D01*
X217135Y224400D02*
X225542D01*
X217963Y226400D02*
X224714D01*
X218792Y228400D02*
X223885D01*
X219620Y230400D02*
X223057D01*
X215520Y234500D02*
X219620Y230400D01*
X217436Y229756D02*
X218792Y228400D01*
X216607Y227756D02*
X217963Y226400D01*
X215779Y225756D02*
X217135Y224400D01*
X223057Y230400D02*
X227157Y234500D01*
X228000D01*
X324700Y211500D02*
X325300Y212100D01*
Y218000D01*
X325500Y155000D02*
X325900Y155400D01*
X327200D01*
X303106Y159098D02*
X325242D01*
X325543Y159400D01*
X328857D01*
X329158Y159098D01*
X344532D01*
X345500Y131843D02*
X351453Y125890D01*
X345500Y131843D02*
Y137000D01*
X349500Y133500D02*
Y139500D01*
X308900Y5750D02*
Y6100D01*
X308008Y4858D02*
X308900Y5750D01*
X263023Y29300D02*
X279700D01*
X260827Y31496D02*
X263023Y29300D01*
X29528Y260827D02*
X53347D01*
X60039Y267519D01*
X21260Y256890D02*
X61418D01*
X21260Y253937D02*
X61418D01*
X71851Y250984D02*
X78000Y244835D01*
Y244500D02*
Y244835D01*
X53740Y246457D02*
X59055Y241142D01*
X61367Y250933D02*
X69100Y243200D01*
Y244600D01*
X59055Y241142D02*
X63197Y237000D01*
X114700D01*
X74657Y244500D02*
X78000D01*
X70757Y240600D02*
X74657Y244500D01*
X65254Y240600D02*
X70757D01*
X169200Y323200D02*
X170500D01*
X164415Y322772D02*
X168843Y327200D01*
X172157D01*
X174857Y324500D02*
X177500D01*
X172157Y327200D02*
X174857Y324500D01*
X166772Y320772D02*
X169200Y323200D01*
X147429Y322772D02*
X164415D01*
X210236Y301181D02*
X242288D01*
X223988Y305500D02*
X227900D01*
X222622Y304134D02*
X223988Y305500D01*
X240150Y306148D02*
X242172D01*
X249016Y312992D01*
X213189Y314211D02*
Y315945D01*
Y314211D02*
X218200Y309200D01*
X252701Y115158D02*
X256943Y119400D01*
X265500D01*
X250394Y115158D02*
X252701D01*
X289307Y129000D02*
X293799Y124508D01*
X264657Y129000D02*
X289307D01*
X260433Y124600D02*
Y125984D01*
X299200Y102800D02*
X301600Y100400D01*
X301700D01*
X363700Y115668D02*
Y155985D01*
X357262Y112205D02*
X361700Y116643D01*
Y153064D01*
X351968Y112205D02*
X357262D01*
X355315Y159449D02*
X361700Y153064D01*
X362205Y114173D02*
X363700Y115668D01*
X362205Y157480D02*
X363700Y155985D01*
X354921Y121079D02*
X357700Y118300D01*
X354921Y121079D02*
Y125984D01*
X77300Y34536D02*
Y37200D01*
X71712Y41200D02*
X89705D01*
X72291Y29528D02*
X77300Y34536D01*
X60039Y29528D02*
X71712Y41200D01*
X89705D02*
X94551Y36354D01*
X233500Y288000D02*
X235800Y285700D01*
Y284600D02*
Y285700D01*
X231800Y282943D02*
Y284043D01*
Y282943D02*
X234143Y280600D01*
X237757D01*
X241574Y284417D01*
X227000Y218500D02*
X230000D01*
X257500Y234500D02*
X264500D01*
X261434Y213600D02*
X265900D01*
X257480Y209646D02*
X261434Y213600D01*
X260433Y221106D02*
X272294D01*
X279200Y214200D01*
X260433Y175197D02*
X286951D01*
X263900Y194400D02*
X276100D01*
X268043Y191700D02*
X271557D01*
X275457Y187800D01*
X286371Y165800D02*
X294291Y173721D01*
X286951Y175197D02*
X287448Y174700D01*
X275457Y187800D02*
X276700D01*
X251900Y195300D02*
Y196590D01*
X254110Y198800D01*
Y207756D01*
X182462Y112205D02*
X203150D01*
X164362Y109252D02*
X203150D01*
X203150Y115158D02*
X205442D01*
X206866Y113734D01*
Y107843D02*
Y113734D01*
Y107843D02*
X207745Y106964D01*
X211836D01*
X216657Y99800D02*
X219157Y102300D01*
X233098D01*
X234198Y103400D01*
X334384Y280900D02*
X348300Y294816D01*
X221400Y235900D02*
X224100Y238600D01*
X261494Y246394D02*
X284386D01*
X258100Y247400D02*
Y250984D01*
X251300Y240600D02*
X258100Y247400D01*
X237000Y234500D02*
X245500D01*
X228500D02*
X237000D01*
X231087Y246457D02*
X239173D01*
X253700Y238600D02*
X261494Y246394D01*
X224100Y238600D02*
X253700D01*
X218500Y250500D02*
X228400Y240600D01*
X251300D01*
X247200Y244900D02*
Y247790D01*
X250394Y250984D01*
X68504Y206693D02*
X94853D01*
X84864Y208693D02*
X95682D01*
X106344Y219444D02*
X109965Y215823D01*
X56102Y185039D02*
X59055Y187992D01*
X45276Y185039D02*
X54134D01*
X56102D01*
X54134Y185039D02*
X54134Y185039D01*
X43307Y185039D02*
X54134D01*
X62900Y180300D02*
X66400Y176800D01*
Y172200D02*
Y176800D01*
Y172200D02*
X69309Y169291D01*
X77756D01*
X41900Y180300D02*
X62900D01*
X60039Y220361D02*
X66300Y214100D01*
X101000D01*
X81623Y211933D02*
X84864Y208693D01*
X101000Y214100D02*
X106344Y219444D01*
X139019Y212600D02*
X143572Y208047D01*
X147767D02*
X152320Y212600D01*
X143572Y208047D02*
X147767D01*
X115748Y206693D02*
X142097D01*
X142743Y206047D01*
X148595D01*
X148922Y206374D01*
X58100Y193927D02*
X63916D01*
X54071Y189898D02*
X58100Y193927D01*
X77500Y185500D02*
X83000Y180000D01*
X65000Y198500D02*
Y208917D01*
X61418Y209646D02*
X63705Y211933D01*
X81623D01*
X65000Y208917D02*
X65728Y209646D01*
X68504D01*
X169300Y213300D02*
Y217751D01*
X165945Y221106D02*
X169300Y217751D01*
X240158Y151969D02*
X245426Y146700D01*
X267900D02*
X272200Y151000D01*
X257480Y156496D02*
X272361D01*
X276200Y152657D01*
X285433Y151969D02*
X287732D01*
X293000Y146700D01*
X58662Y57480D02*
X59100Y57042D01*
Y56300D02*
Y57042D01*
X118200Y56900D02*
Y57700D01*
X108662Y62008D02*
X113669Y57000D01*
X117500D01*
X118200Y57700D01*
X192913Y57480D02*
X198194Y52200D01*
X208700D02*
X212000Y55500D01*
X203500Y57500D02*
X204000Y58000D01*
X203500Y56400D02*
Y57500D01*
X356900Y340900D02*
X357500D01*
X363500Y302476D02*
Y345161D01*
X361500Y305398D02*
Y342557D01*
X355632Y348425D02*
X361500Y342557D01*
X357284Y301181D02*
X361500Y305398D01*
X351968Y348425D02*
X355632D01*
X359252Y298228D02*
X363500Y302476D01*
X357283Y351378D02*
X363500Y345161D01*
X354921Y332677D02*
X358000Y335756D01*
Y339800D01*
X356900Y340900D02*
X358000Y339800D01*
X229400Y188743D02*
X231743Y186400D01*
X235057D01*
X233400Y190400D02*
X233700Y190700D01*
X254543D01*
X229400Y188743D02*
Y193557D01*
X235057Y186400D02*
X237357Y188700D01*
X240789Y180000D02*
X247489Y186700D01*
X268700D01*
X237042Y184400D02*
X237142Y184500D01*
X204628Y184400D02*
X237042D01*
X237357Y188700D02*
X265043D01*
X200500Y180000D02*
X240789D01*
X268700Y186700D02*
X269700Y187700D01*
X229400Y193557D02*
X233507Y197663D01*
X265043Y188700D02*
X268043Y191700D01*
X254543Y190700D02*
X261843Y198000D01*
X329964Y190200D02*
X330164Y190000D01*
X319500Y189000D02*
X327350Y196850D01*
X333661D01*
X63916Y193927D02*
X66843Y191000D01*
X72000D01*
X77500Y185500D01*
X70200Y186689D02*
Y186800D01*
Y186689D02*
X71850Y185039D01*
X68400Y195100D02*
X69900D01*
X65000Y198500D02*
X68400Y195100D01*
D14*
X60400Y357000D02*
D03*
X108200Y357100D02*
D03*
X258800D02*
D03*
X233000Y358800D02*
D03*
X314200Y344000D02*
D03*
X270000D02*
D03*
X227600Y354100D02*
D03*
X221600Y335400D02*
D03*
X125400Y354000D02*
D03*
X84500Y354500D02*
D03*
X38386Y356100D02*
D03*
X208600Y189200D02*
D03*
X206600Y282300D02*
D03*
X203600Y288900D02*
D03*
X42400Y312600D02*
D03*
X42100Y305200D02*
D03*
X328800Y178100D02*
D03*
X213700Y95800D02*
D03*
X225000Y87500D02*
D03*
X213500Y103800D02*
D03*
Y88800D02*
D03*
X284000Y49400D02*
D03*
X342400Y52100D02*
D03*
X259300Y150900D02*
D03*
X299400Y151100D02*
D03*
X317100Y174100D02*
D03*
X284400Y272200D02*
D03*
X284200Y313700D02*
D03*
X320400Y305400D02*
D03*
X51700Y238700D02*
D03*
X87000Y52500D02*
D03*
X91000Y58000D02*
D03*
X90900Y64800D02*
D03*
X32300Y182100D02*
D03*
Y174500D02*
D03*
X32200Y189400D02*
D03*
X118300Y149600D02*
D03*
X87900Y116800D02*
D03*
X88100Y125100D02*
D03*
X177400Y152300D02*
D03*
X266500Y88100D02*
D03*
X198000Y188700D02*
D03*
X189900D02*
D03*
X150300Y188800D02*
D03*
X272100Y134500D02*
D03*
X319900Y117800D02*
D03*
X284300Y83500D02*
D03*
X319800D02*
D03*
X137400Y61200D02*
D03*
X308200Y189300D02*
D03*
X31017Y130400D02*
D03*
X24000Y137600D02*
D03*
X23400Y98900D02*
D03*
X45900Y79100D02*
D03*
X37900Y78800D02*
D03*
X97200Y80200D02*
D03*
X249200Y53300D02*
D03*
X44600Y137600D02*
D03*
X210200Y150800D02*
D03*
X219000Y211500D02*
D03*
X293300Y195700D02*
D03*
X172600Y103700D02*
D03*
X195100Y275200D02*
D03*
X101300Y47700D02*
D03*
X41500Y210700D02*
D03*
X5500Y118100D02*
D03*
X10800Y133500D02*
D03*
X177900Y335700D02*
D03*
X335500Y175000D02*
D03*
X330600Y190000D02*
D03*
X335600Y183300D02*
D03*
X229000Y9100D02*
D03*
X204600Y48000D02*
D03*
X202200Y40000D02*
D03*
X192300Y41700D02*
D03*
X182500Y29500D02*
D03*
X137200Y23500D02*
D03*
X153800Y277800D02*
D03*
X282100Y124700D02*
D03*
X273900Y119700D02*
D03*
X241500Y333500D02*
D03*
X159449Y189000D02*
D03*
X167500D02*
D03*
X230000Y246000D02*
D03*
X326000Y258500D02*
D03*
X251450Y136000D02*
D03*
X272200Y151000D02*
D03*
X355000Y137500D02*
D03*
X357000Y325000D02*
D03*
X76500Y8000D02*
D03*
X84646Y25591D02*
D03*
X77756Y21654D02*
D03*
X61024Y7874D02*
D03*
X336000Y325000D02*
D03*
X177500Y293500D02*
D03*
X130000Y305500D02*
D03*
X175197Y313976D02*
D03*
X257500Y281000D02*
D03*
X241500Y274000D02*
D03*
X232500Y292000D02*
D03*
X238500Y184000D02*
D03*
X308000Y356500D02*
D03*
X218500Y243500D02*
D03*
Y250500D02*
D03*
X263500Y194000D02*
D03*
X249500Y277500D02*
D03*
X142500Y281500D02*
D03*
X291500Y42000D02*
D03*
X354000Y41000D02*
D03*
X353500Y49500D02*
D03*
X351500Y56400D02*
D03*
X299000Y57000D02*
D03*
X319700Y41400D02*
D03*
X212000Y55500D02*
D03*
X68500Y50000D02*
D03*
X109252Y51181D02*
D03*
X193000Y133000D02*
D03*
X274500Y241500D02*
D03*
X247500Y92000D02*
D03*
X327500Y116500D02*
D03*
X321000Y151500D02*
D03*
X323000Y134000D02*
D03*
X327000Y124500D02*
D03*
X344000Y138500D02*
D03*
X339500Y91000D02*
D03*
X247500Y100157D02*
D03*
X227200Y97500D02*
D03*
X259000Y95000D02*
D03*
X266428D02*
D03*
X233900Y103600D02*
D03*
X285000Y95000D02*
D03*
X308000Y95500D02*
D03*
X261450Y135550D02*
D03*
X155000Y244000D02*
D03*
X144000Y325000D02*
D03*
X8000Y341500D02*
D03*
Y324000D02*
D03*
X80000Y339000D02*
D03*
X85000Y321000D02*
D03*
X177500Y324500D02*
D03*
X92500Y323500D02*
D03*
Y357500D02*
D03*
X142700Y238600D02*
D03*
X143900Y333200D02*
D03*
X196100Y323700D02*
D03*
X180000Y115400D02*
D03*
X181500Y158700D02*
D03*
X173800Y175100D02*
D03*
X157300Y102500D02*
D03*
X98000Y189000D02*
D03*
X132000D02*
D03*
X91000D02*
D03*
X142717D02*
D03*
X179000Y180000D02*
D03*
X84000Y189000D02*
D03*
X126382Y174618D02*
D03*
X109252Y197000D02*
D03*
X84000Y137000D02*
D03*
X58900Y147800D02*
D03*
X68898Y150591D02*
D03*
X75600Y145900D02*
D03*
X80000Y120000D02*
D03*
X96000Y135000D02*
D03*
X74100Y231800D02*
D03*
X136200Y212600D02*
D03*
X129000Y212800D02*
D03*
X272638Y104331D02*
D03*
X15300Y324400D02*
D03*
X310600Y212700D02*
D03*
X319300Y216000D02*
D03*
X334646Y219488D02*
D03*
X295400Y245300D02*
D03*
X327500Y309400D02*
D03*
X221500Y125900D02*
D03*
X319000Y243800D02*
D03*
X220800Y153200D02*
D03*
X307900Y235900D02*
D03*
X126200Y149800D02*
D03*
X121500Y235100D02*
D03*
X128700Y235200D02*
D03*
X77756Y221457D02*
D03*
X173228Y74803D02*
D03*
X123977Y87598D02*
D03*
X161417Y56496D02*
D03*
X169291Y57087D02*
D03*
X79724Y78740D02*
D03*
X277559Y22638D02*
D03*
X241142Y31496D02*
D03*
X220472D02*
D03*
X23622Y7874D02*
D03*
X37402Y29528D02*
D03*
X10827Y88583D02*
D03*
X45276Y185039D02*
D03*
X109252Y228652D02*
D03*
X10000Y228346D02*
D03*
X354331Y280512D02*
D03*
X77756Y263779D02*
D03*
X83661Y269462D02*
D03*
X12795Y281496D02*
D03*
X325787Y294094D02*
D03*
X126969Y314961D02*
D03*
X83661Y305118D02*
D03*
X266732Y22638D02*
D03*
X258858Y291339D02*
D03*
X178150Y246063D02*
D03*
X123031Y247047D02*
D03*
X45276Y193898D02*
D03*
X29528Y272638D02*
D03*
X137795Y356100D02*
D03*
X88600Y228500D02*
D03*
X227600Y23400D02*
D03*
X126200Y77400D02*
D03*
X6000Y57000D02*
D03*
X278543Y342520D02*
D03*
X326772Y341535D02*
D03*
X83661Y72835D02*
D03*
X109252Y241142D02*
D03*
X132874Y8858D02*
D03*
X109252Y103346D02*
D03*
X148031Y30709D02*
D03*
X29527Y88427D02*
D03*
X131758Y100394D02*
D03*
X222000Y116000D02*
D03*
X319882Y26575D02*
D03*
X329724Y29528D02*
D03*
X310039Y22638D02*
D03*
X302165Y8858D02*
D03*
X245079Y46260D02*
D03*
X77756Y169291D02*
D03*
X268701Y10827D02*
D03*
X53150Y47244D02*
D03*
X118706Y100394D02*
D03*
X23622Y54134D02*
D03*
X44291Y103347D02*
D03*
X61024D02*
D03*
X343504Y358268D02*
D03*
X6000Y22638D02*
D03*
Y14764D02*
D03*
X127953Y22145D02*
D03*
Y30709D02*
D03*
X344488Y8858D02*
D03*
X40400Y117800D02*
D03*
X123000Y117300D02*
D03*
X172244Y88582D02*
D03*
X155900Y91700D02*
D03*
X163535Y91535D02*
D03*
X165900Y40900D02*
D03*
X249200Y7400D02*
D03*
X123500Y8858D02*
D03*
X89200Y247300D02*
D03*
X347400Y229400D02*
D03*
X354900Y229300D02*
D03*
X216300Y46600D02*
D03*
X6000Y40100D02*
D03*
X32480Y144685D02*
D03*
X10000Y245200D02*
D03*
X254400Y322900D02*
D03*
X128000Y266200D02*
D03*
X138900Y154500D02*
D03*
X91500Y100400D02*
D03*
X43307Y261811D02*
D03*
X23300Y244600D02*
D03*
X45700Y174400D02*
D03*
X35100Y230500D02*
D03*
X174400Y127000D02*
D03*
X351500Y89900D02*
D03*
X13700Y51200D02*
D03*
X20600Y229900D02*
D03*
X107800Y148700D02*
D03*
X127953Y125984D02*
D03*
X138779Y104331D02*
D03*
X272638Y291339D02*
D03*
X301181D02*
D03*
X308071D02*
D03*
X37402Y272638D02*
D03*
X23622Y283465D02*
D03*
X53150D02*
D03*
X60039Y283464D02*
D03*
X73819Y283465D02*
D03*
X109252D02*
D03*
X122047D02*
D03*
X17600Y133600D02*
D03*
X265200Y60000D02*
D03*
X109252Y8858D02*
D03*
X38900Y154400D02*
D03*
X40600Y200100D02*
D03*
X83400Y314300D02*
D03*
X79500Y332200D02*
D03*
X42400Y341300D02*
D03*
X126500Y334600D02*
D03*
X131700Y340800D02*
D03*
X221400Y234400D02*
D03*
X324700Y211500D02*
D03*
X327200Y155400D02*
D03*
X349500Y133500D02*
D03*
X335800Y144400D02*
D03*
X325800Y63800D02*
D03*
X308900Y6100D02*
D03*
X279700Y29300D02*
D03*
X78000Y244500D02*
D03*
X59055Y241142D02*
D03*
X69100Y244600D02*
D03*
X170500Y323200D02*
D03*
X218200Y309200D02*
D03*
X227900Y305500D02*
D03*
X249146Y182700D02*
D03*
X265500Y119400D02*
D03*
X301700Y100400D02*
D03*
X357700Y118300D02*
D03*
X77300Y37200D02*
D03*
X235800Y284600D02*
D03*
X225400Y274000D02*
D03*
X230000Y218500D02*
D03*
X264500Y234500D02*
D03*
X265900Y213600D02*
D03*
X279200Y214200D02*
D03*
X269700Y187700D02*
D03*
X287448Y174700D02*
D03*
X276700Y187800D02*
D03*
X251900Y195300D02*
D03*
X336000Y281500D02*
D03*
X245500Y234500D02*
D03*
X228500D02*
D03*
X237000D02*
D03*
X247200Y244900D02*
D03*
X59055Y187992D02*
D03*
X169300Y213300D02*
D03*
X307400Y151800D02*
D03*
X59100Y56300D02*
D03*
X118200Y56900D02*
D03*
X203500Y56400D02*
D03*
X357500Y340900D02*
D03*
X7638Y307638D02*
D03*
X319900Y272200D02*
D03*
X233400Y190400D02*
D03*
X319500Y189000D02*
D03*
X70200Y186800D02*
D03*
X69900Y195100D02*
D03*
M02*
