M48
;Layer_Color=9474304
;FILE_FORMAT=2:5
INCH,LZ
;TYPE=PLATED
T1F00S00C0.02800
%
T01
X0006Y0014764
Y0022638
Y00401
X00137Y00512
X0023622Y0054134
X005315Y0047244
X0037402Y0029528
X0023622Y0007874
X0061024
X00765Y0008
X0077756Y0021654
X0084646Y0025591
X00773Y00372
X00685Y005
X0087Y00525
X01013Y00477
X0109252Y0051181
X0127953Y0030709
Y0022145
X01372Y00235
X0148031Y0030709
X01659Y00409
X01923Y00417
X02022Y004
X02046Y0048
X0212Y00555
X01825Y00295
X0132874Y0008858
X01235
X0109252
X0229Y00091
X02276Y00234
X0220472Y0031496
X02163Y00466
X0245079Y004626
X02492Y00533
X0241142Y0031496
X02492Y00074
X0268701Y0010827
X0266732Y0022638
X0277559
X02797Y00293
X0284Y00494
X02915Y0042
X03197Y00414
X0319882Y0026575
X0329724Y0029528
X0310039Y0022638
X03089Y00061
X0302165Y0008858
X0344488
X0354Y0041
X03535Y00495
X03424Y00521
X03515Y00564
X03258Y00638
X03198Y00835
X0308Y00955
X03017Y01004
X0285Y0095
X02843Y00835
X02665Y00881
X0266428Y0095
X0259
X02475Y0092
Y0100157
X02339Y01036
X02272Y00975
X0225Y00875
X02135Y00888
X02137Y00958
X02135Y01038
X0222Y0116
X02215Y01259
X02208Y01532
X02593Y01509
X02722Y0151
X02721Y01345
X026145Y013555
X025145Y0136
X02655Y01194
X02739Y01197
X02821Y01247
X0272638Y0104331
X02652Y006
X0299Y0057
X03395Y0091
X03515Y00899
X03577Y01183
X0355Y01375
X03495Y01335
X0344Y01385
X03358Y01444
X03272Y01554
X0321Y01515
X03074Y01518
X02994Y01511
X0287448Y01747
X02767Y01878
X02697Y01877
X02635Y0194
X02519Y01953
X0249146Y01827
X02385Y0184
X02334Y01904
X0219Y02115
X02933Y01957
X03082Y01893
X03195Y0189
X03306Y019
X03356Y01833
X03355Y0175
X03288Y01781
X03171Y01741
X03247Y02115
X0323Y0134
X0327Y01245
X03275Y01165
X03199Y01178
X0193Y0133
X01744Y0127
X018Y01154
X01726Y01037
X0172244Y0088582
X0163535Y0091535
X01559Y00917
X01573Y01025
X0138779Y0104331
X0131758Y0100394
X0118706
X0109252Y0103346
X00915Y01004
X00879Y01168
X00881Y01251
X008Y012
X0084Y0137
X0096Y0135
X01078Y01487
X01183Y01496
X01262Y01498
X01389Y01545
X0126382Y0174618
X0132Y0189
X0142717
X01503Y01888
X0159449Y0189
X01675
X01738Y01751
X0179Y018
X01899Y01887
X0198
X02086Y01892
X02102Y01508
X01774Y01523
X01815Y01587
X0127953Y0125984
X0123Y01173
X0123977Y0087598
X01262Y00774
X01374Y00612
X01182Y00569
X0091Y0058
X00909Y00648
X0083661Y0072835
X0079724Y007874
X00972Y00802
X0061024Y0103347
X00589Y01478
X0068898Y0150591
X00756Y01459
X0077756Y0169291
X00702Y01868
X00699Y01951
X0059055Y0187992
X0084Y0189
X0091
X0098
X0109252Y0197
X0173228Y0074803
X0169291Y0057087
X0161417Y0056496
X02035Y00564
X00591Y00563
X00459Y00791
X00379Y00788
X0029527Y0088427
X00234Y00989
X0010827Y0088583
X00055Y01181
X00108Y01335
X00176Y01336
X0024Y01376
X0031017Y01304
X003248Y0144685
X00389Y01544
X00446Y01376
X00404Y01178
X0044291Y0103347
X00457Y01744
X0045276Y0185039
Y0193898
X00406Y02001
X00415Y02107
X00322Y01894
X00323Y01821
Y01745
X0006Y0057
X001Y0228346
X00206Y02299
X00351Y02305
X00517Y02387
X0043307Y0261811
X0037402Y0272638
X0029528
X0023622Y0283465
X0012795Y0281496
X0007638Y0307638
X0008Y0324
X00153Y03244
X0008Y03415
X00424Y03413
X0038386Y03561
X00424Y03126
X00421Y03052
X005315Y0283465
X00233Y02446
X001Y02452
X0059055Y0241142
X00691Y02446
X0078Y02445
X00892Y02473
X00886Y02285
X00741Y02318
X0077756Y0221457
X0109252Y0228652
X0109252Y0241142
X01215Y02351
X01287Y02352
X01427Y02386
X0155Y0244
X017815Y0246063
X01693Y02133
X01362Y02126
X0129Y02128
X0123031Y0247047
X0128Y02662
X0122047Y0283465
X0109252
X01425Y02815
X01538Y02778
X01775Y02935
X0175197Y0313976
X01775Y03245
X01705Y03232
X01779Y03357
X01961Y03237
X02036Y02889
X02066Y02823
X01951Y02752
X013Y03055
X0126969Y0314961
X01265Y03346
X01317Y03408
X01254Y0354
X0137795Y03561
X01439Y03332
X0144Y0325
X00925Y03235
X0085Y0321
X00834Y03143
X0083661Y0305118
X00795Y03322
X008Y0339
X00845Y03545
X00925Y03575
X01082Y03571
X00604Y0357
X0060039Y0283464
X0073819Y0283465
X0077756Y0263779
X0083661Y0269462
X02254Y0274
X02415
X02495Y02775
X02575Y0281
X0258858Y0291339
X0272638
X0301181
X0308071
X0325787Y0294094
X03204Y03054
X03275Y03094
X0336Y0325
X0357
X03575Y03409
X0343504Y0358268
X0326772Y0341535
X03142Y0344
X0308Y03565
X0278543Y034252
X027Y0344
X02588Y03571
X0233Y03588
X02276Y03541
X02216Y03354
X02415Y03335
X02544Y03229
X02842Y03137
X02844Y02722
X03199
X0326Y02585
X0319Y02438
X03079Y02359
X02954Y02453
X02745Y02415
X02645Y02345
X02455
X0237
X02285
X02214Y02344
X02185Y02435
Y02505
X023Y0246
X02472Y02449
X023Y02185
X02659Y02136
X02792Y02142
X03106Y02127
X03193Y0216
X0334646Y0219488
X03474Y02294
X03549Y02293
X0354331Y0280512
X0336Y02815
X02358Y02846
X02325Y0292
X02279Y03055
X02182Y03092
M30
