G04 Layer_Physical_Order=4*
G04 Layer_Color=16711680*
%FSLAX24Y24*%
%MOIN*%
G70*
G01*
G75*
%ADD13C,0.0100*%
%ADD14C,0.0500*%
%ADD19R,0.0276X0.0354*%
%ADD20R,0.0217X0.0453*%
%ADD21R,0.0453X0.0236*%
%ADD22R,0.0354X0.0276*%
%ADD23R,0.0700X0.2400*%
%ADD24R,0.2400X0.0700*%
%ADD25R,0.0394X0.0787*%
%ADD26R,0.0236X0.0197*%
%ADD27R,0.0984X0.0299*%
%ADD28R,0.0140X0.0580*%
%ADD29R,0.0580X0.0140*%
%ADD30R,0.0197X0.0236*%
%ADD31R,0.0410X0.0630*%
D13*
X1870Y4724D02*
Y12659D01*
X30315Y3445D02*
X30807Y2953D01*
X31010Y2750D01*
X30805Y2953D02*
X30805Y2953D01*
X30807D01*
X31010Y860D02*
Y2750D01*
X30217Y886D02*
Y2953D01*
X30217Y2953D01*
X34154Y2953D02*
Y5020D01*
Y876D02*
Y2953D01*
X34154Y2953D01*
X34154Y876D02*
X34210Y820D01*
X30805Y2953D02*
X30807D01*
X30807Y2953D01*
X28413Y2984D02*
X28445Y3016D01*
X27842Y2350D02*
X28445Y2953D01*
X27840Y2350D02*
X27842D01*
X27864Y4714D02*
Y10682D01*
Y2962D02*
Y4714D01*
X27776Y4626D02*
Y4626D01*
X27864Y4714D01*
X27854Y2953D02*
X27864Y2962D01*
X31988Y2322D02*
Y2953D01*
Y2322D02*
X32030Y2280D01*
X33071Y4823D02*
Y5829D01*
X31398Y4429D02*
Y7677D01*
X32580Y6320D02*
X33071Y5829D01*
X32512Y4768D02*
X33225Y4055D01*
X32512Y4768D02*
Y4855D01*
X31319Y3425D02*
Y4429D01*
Y3032D02*
Y3425D01*
Y3032D02*
X31398Y2953D01*
X27264Y1164D02*
Y7677D01*
X23965Y740D02*
X24920D01*
X26950Y850D02*
X27264Y1164D01*
X26680Y850D02*
X26950D01*
X25870Y1660D02*
X26680Y850D01*
X25870Y1660D02*
Y3496D01*
X24920Y4729D02*
X26673Y2975D01*
Y2953D02*
Y2975D01*
X24920Y4729D02*
Y5330D01*
X24740Y4626D02*
X25870Y3496D01*
X24508Y4626D02*
X24740D01*
X13855Y13973D02*
Y14919D01*
X13490Y15284D02*
X13855Y14919D01*
X13490Y15284D02*
Y15616D01*
X14272Y12402D02*
Y13768D01*
X14060Y13980D02*
X14272Y13768D01*
X14060Y13980D02*
Y15365D01*
X13681Y12402D02*
Y13799D01*
X13855Y13973D01*
X17142Y12402D02*
X17440Y12700D01*
X15395Y12402D02*
X17142D01*
X12598D02*
X12795Y12598D01*
X12008Y12402D02*
X12598D01*
X2960Y27510D02*
Y31292D01*
X2953Y31299D02*
X2960Y31292D01*
Y26582D02*
Y27510D01*
X2953Y26575D02*
X2960Y26582D01*
X2953Y31299D02*
X2953Y31299D01*
X5315Y31299D02*
Y33465D01*
Y28346D02*
Y31299D01*
X8350Y30528D02*
Y30590D01*
Y30528D02*
X9463Y29415D01*
X24060Y33210D02*
X24128D01*
X24150Y33232D01*
X24803Y32579D01*
X13790Y33920D02*
X14390Y33320D01*
Y33256D02*
X14456Y33190D01*
X14390Y33160D02*
Y33320D01*
Y33160D02*
Y33256D01*
X14370Y32350D02*
Y32530D01*
X14271Y32629D02*
X14370Y32530D01*
X14456Y33190D02*
X15642Y34376D01*
X12620Y6468D02*
Y7740D01*
X25394Y32276D02*
X26286Y31384D01*
X22300Y8700D02*
X22640Y8360D01*
X1430Y17550D02*
X3260D01*
X20383Y4740D02*
X20800Y5157D01*
X3346Y31784D02*
Y32185D01*
X15630Y9239D02*
X15650Y9220D01*
X21657Y26907D02*
Y28728D01*
X8433Y13633D02*
Y17649D01*
X3051Y18996D02*
X3200Y19145D01*
X13500Y20350D02*
X13665Y20185D01*
X20027Y24306D02*
X20227Y24106D01*
X20027Y24306D02*
Y25818D01*
X20315Y24106D02*
X20669D01*
X6690Y24806D02*
Y35616D01*
X4928Y35208D02*
X5820Y36100D01*
X5900Y31294D02*
X6040Y31434D01*
X6206Y36100D02*
X6690Y35616D01*
X5820Y36100D02*
X6206D01*
X6040Y31434D02*
Y35700D01*
X10820Y35637D02*
X10925Y35532D01*
X23622Y33600D02*
X25732Y35710D01*
X25880D01*
X22164Y35880D02*
X23300D01*
X22130Y35846D02*
X22164Y35880D01*
X31420Y34274D02*
Y34400D01*
X31410Y34264D02*
X31420Y34274D01*
X22709Y35461D02*
X22760Y35410D01*
X21990Y34620D02*
Y35210D01*
X22950Y31378D02*
Y33660D01*
X21990Y34620D02*
X22950Y33660D01*
X22760Y34329D02*
X23234Y33854D01*
X22760Y34329D02*
Y35410D01*
X23234Y31060D02*
Y33854D01*
X22130Y35514D02*
Y35846D01*
X21808Y33540D02*
X22160D01*
X12540Y34136D02*
Y35400D01*
X8450Y32150D02*
Y35450D01*
X4239Y35419D02*
Y35796D01*
X3383Y34563D02*
X4239Y35419D01*
X4004Y36030D02*
X4239Y35796D01*
X22468Y17312D02*
X23031D01*
X20345Y19435D02*
X22468Y17312D01*
X20345Y19435D02*
Y19700D01*
X20660Y27174D02*
Y28230D01*
X20200Y28700D02*
X20360Y28860D01*
Y28890D01*
X33563Y31299D02*
Y33465D01*
X3860Y31260D02*
X4240D01*
X3383Y30783D02*
X3860Y31260D01*
X3383Y29628D02*
Y30783D01*
X4731Y25861D02*
Y30769D01*
X4240Y31260D02*
X4731Y30769D01*
X3386Y28839D02*
Y29800D01*
X3383Y29628D02*
X3386Y29626D01*
X3748Y30520D02*
X4210D01*
X3740Y30512D02*
X3748Y30520D01*
X3440Y31690D02*
X4050D01*
X3346Y31784D02*
X3440Y31690D01*
X4050D02*
X5050Y32690D01*
Y33202D01*
X2953Y31299D02*
Y33465D01*
X2953Y33465D01*
X4353Y25470D02*
X4724Y25098D01*
Y22854D02*
Y25098D01*
X32480Y18996D02*
X33070Y19586D01*
X32480Y17641D02*
X33180Y16941D01*
X32880Y17604D02*
X33843Y16642D01*
X32480Y17641D02*
Y18996D01*
X32880Y17604D02*
Y17810D01*
X32280Y17300D02*
Y18490D01*
X19720Y1591D02*
Y4246D01*
X19340Y4626D02*
X19720Y4246D01*
X18602Y4626D02*
X19340D01*
X18602Y5552D02*
X19283Y6233D01*
X18602Y4626D02*
Y5552D01*
X19820Y4429D02*
X20220Y4029D01*
Y4000D02*
Y4029D01*
X19820Y4429D02*
Y9104D01*
X20000Y9284D01*
X21900Y8830D02*
Y9830D01*
X20343Y8774D02*
X20891D01*
X21550Y8480D02*
X21900Y8830D01*
X21184Y8480D02*
X21550D01*
X20891Y8774D02*
X21184Y8480D01*
X22100Y8150D02*
Y9116D01*
Y8150D02*
X22440Y7810D01*
X22300Y8700D02*
X22350Y8750D01*
X22640Y6400D02*
Y8360D01*
X20418Y10054D02*
X21204Y10840D01*
X20343Y10054D02*
X20418D01*
X21156Y9794D02*
X21370Y9580D01*
X21350Y10380D02*
X21900Y9830D01*
X22350Y8750D02*
X22500D01*
X22100Y9116D02*
X22130Y9146D01*
X20343Y9794D02*
X21156D01*
X21606Y10840D02*
X22130Y10316D01*
X21204Y10840D02*
X21606D01*
X22130Y9146D02*
Y10316D01*
X20343Y8254D02*
X20350Y8246D01*
Y5640D02*
Y8246D01*
X21106Y9024D02*
X21250Y8880D01*
X20343Y9024D02*
X21106D01*
X28400Y4384D02*
Y4940D01*
X34652Y4443D02*
Y5364D01*
X33900Y5470D02*
X34240Y5130D01*
X34494Y5522D02*
X34652Y5364D01*
X34494Y5522D02*
Y7727D01*
X34240Y5130D02*
Y5210D01*
Y5106D02*
Y5210D01*
X34154Y5020D02*
X34240Y5106D01*
X27500Y16094D02*
Y16650D01*
X26145Y14739D02*
X27500Y16094D01*
X26145Y13555D02*
Y14739D01*
X25860Y15090D02*
X25930D01*
X25800Y15150D02*
X25860Y15090D01*
X30150Y4948D02*
Y13620D01*
X29940Y13830D02*
X30150Y13620D01*
X29940Y13830D02*
Y15110D01*
X30145Y13973D02*
Y14727D01*
Y13973D02*
X30855Y13263D01*
X30145Y14727D02*
X30855Y15437D01*
X31710Y17410D02*
X31750D01*
X31760Y17420D01*
X31800Y17380D01*
X28445Y26575D02*
Y27220D01*
X28420Y31370D02*
Y32062D01*
X28445Y32087D01*
X27854Y27054D02*
X27860Y27060D01*
X31988Y33460D02*
X32137D01*
X27264Y29134D02*
Y32087D01*
X26673Y26575D02*
Y33465D01*
X26286Y24002D02*
Y31384D01*
X25900Y23616D02*
X26286Y24002D01*
X5020Y23720D02*
X5170Y23870D01*
X8700Y5250D02*
Y5286D01*
Y5158D02*
Y5250D01*
X9100Y5800D02*
X9170D01*
X9100D02*
Y5816D01*
X8413Y8338D02*
X9090Y7661D01*
Y6480D02*
Y7661D01*
X8690Y6274D02*
X9124Y5840D01*
X8690Y6274D02*
Y6646D01*
X8766Y6722D02*
Y7646D01*
X8690Y6646D02*
X8766Y6722D01*
X2567Y19972D02*
X3200Y19339D01*
Y19145D02*
Y19339D01*
X3050Y18210D02*
X3230D01*
X1339Y17642D02*
X1430Y17550D01*
X3230Y17450D02*
Y17520D01*
X3260Y17550D01*
X9200Y13334D02*
X9410Y13124D01*
X8750Y10206D02*
X9410Y10866D01*
X8550Y10289D02*
X9210Y10949D01*
X7193Y12500D02*
X8800D01*
X8810Y12510D01*
X9210Y10949D02*
Y12676D01*
X9410Y10866D02*
Y13124D01*
X8800Y13070D02*
X8960Y12910D01*
X8976D01*
X9210Y12676D01*
X8800Y13070D02*
Y13866D01*
X16500Y15170D02*
Y16650D01*
X15500D02*
X16750Y17900D01*
X26650Y7700D02*
Y8810D01*
X34570Y32700D02*
X34744Y32874D01*
X34570Y32270D02*
Y32700D01*
Y32270D02*
X34744Y32096D01*
X34744Y32874D02*
Y33465D01*
X34744Y26575D02*
Y32096D01*
X21360Y16650D02*
X21500D01*
X20210Y17800D02*
X21360Y16650D01*
X19410Y17800D02*
X20210D01*
X22080Y15320D02*
Y16860D01*
X20560Y18380D02*
X22080Y16860D01*
X20342Y18380D02*
X20560D01*
X19852Y18870D02*
X20342Y18380D01*
X18590Y18620D02*
X19410Y17800D01*
X18590Y18620D02*
Y19708D01*
X19800Y18870D02*
Y19655D01*
Y18870D02*
X19852D01*
X18590Y19708D02*
X18855Y19973D01*
X15005Y17500D02*
Y18289D01*
X15080Y19396D02*
Y22055D01*
X14689Y18639D02*
X14930Y18880D01*
X31145Y17759D02*
X31398Y18012D01*
X31145Y15646D02*
Y17759D01*
X28145Y13995D02*
Y14727D01*
X27810Y13660D02*
X28145Y13995D01*
X27810Y11480D02*
Y13660D01*
X26950Y13756D02*
Y14830D01*
X26810Y13616D02*
X26950Y13756D01*
X26810Y13284D02*
Y13616D01*
Y13284D02*
X26950Y13144D01*
Y11774D02*
Y13144D01*
Y14830D02*
X27220Y15100D01*
X31988Y11782D02*
Y12450D01*
Y11782D02*
X31990Y11780D01*
X28430Y7692D02*
Y8350D01*
Y7692D02*
X28445Y7677D01*
X31988Y7677D02*
Y8342D01*
X31980Y8350D02*
X31988Y8342D01*
X31980Y8221D02*
Y8350D01*
Y8221D02*
X31988Y8212D01*
X13740Y6120D02*
X13830D01*
X14272Y6562D01*
X13740Y6050D02*
Y6120D01*
Y6050D02*
X14272Y5518D01*
X30820Y18930D02*
Y19574D01*
Y18025D02*
Y18930D01*
X3102Y13040D02*
X3642Y12500D01*
X3363Y13868D02*
X3497D01*
X2362Y7677D02*
Y12868D01*
X3280Y14068D02*
X3414D01*
X2362Y12868D02*
X3363Y13868D01*
X1870Y12659D02*
X3280Y14068D01*
X1847Y13760D02*
X2400D01*
X2362Y23585D02*
X3750Y22197D01*
Y20832D02*
Y22197D01*
X2172Y23492D02*
X3550Y22114D01*
Y19890D02*
Y22114D01*
X5315Y9488D02*
Y12402D01*
Y9488D02*
X5374Y9429D01*
X5315Y12402D02*
X5315Y12402D01*
X5315Y12402D02*
Y12402D01*
X3602Y8642D02*
X3790Y8454D01*
Y7880D02*
Y8454D01*
X4603Y5292D02*
Y7897D01*
X4590Y7910D02*
X4603Y7897D01*
X9114Y8020D02*
X9720D01*
X9104Y8010D02*
X9114Y8020D01*
X24928Y5330D02*
X25361Y5763D01*
X24920Y5330D02*
X24928D01*
X25927Y5667D02*
X26181Y5413D01*
X25927Y5667D02*
Y5675D01*
X25839Y5763D02*
X25927Y5675D01*
X25361Y5763D02*
X25839D01*
X4460Y13760D02*
Y14438D01*
X4429Y14469D02*
X4460Y14438D01*
X17500Y20350D02*
Y21326D01*
X18500Y20350D02*
Y20609D01*
X29280Y19570D02*
X29330D01*
Y17252D02*
Y19570D01*
Y17252D02*
X29350Y17232D01*
X17726Y10370D02*
X18043Y10054D01*
X17260Y10370D02*
X17726D01*
X18855Y22273D02*
Y32194D01*
X19110Y30214D02*
X20115Y31219D01*
X19591Y27520D02*
X19685Y27614D01*
X19110Y18940D02*
Y30214D01*
X19510Y27520D02*
X19591D01*
X9535Y4035D02*
X10130Y4630D01*
X10341Y5125D02*
Y7671D01*
X10130Y4630D02*
Y4770D01*
X10335Y7677D02*
X10341Y7671D01*
X3550Y19890D02*
X3850Y19590D01*
X3750Y20832D02*
X4060Y20522D01*
X4150Y21070D02*
X4619D01*
X4626Y21063D01*
X1114Y13950D02*
X1303D01*
X1339Y13985D02*
Y14642D01*
X1339Y14642D02*
X1339Y14642D01*
X1303Y13950D02*
X1339Y13985D01*
X680Y13516D02*
X1114Y13950D01*
X680Y11940D02*
Y13516D01*
X550Y11810D02*
X680Y11940D01*
X1280Y12880D02*
X1760Y13360D01*
X1280Y12402D02*
Y12880D01*
X992Y11284D02*
Y13342D01*
X1280Y10532D02*
Y10996D01*
X992Y11284D02*
X1280Y10996D01*
X1000Y13350D02*
X1080D01*
X992Y13342D02*
X1000Y13350D01*
X1677Y13930D02*
X1847Y13760D01*
X17790Y34940D02*
X17815Y34965D01*
X17790Y33570D02*
Y34940D01*
X34052Y19972D02*
X35276D01*
X33100Y19020D02*
X34052Y19972D01*
X32940Y19020D02*
X33100D01*
X33070Y19586D02*
Y21399D01*
X33843Y16642D02*
X35138D01*
X34226Y18996D02*
X35114D01*
X33560Y18330D02*
X34226Y18996D01*
X34996Y17500D02*
X35138Y17642D01*
X35276D02*
X35276Y17642D01*
X35138Y17642D02*
X35276D01*
X33550Y17500D02*
X34996D01*
X31950Y18820D02*
X32280Y18490D01*
X32150Y17170D02*
X32280Y17300D01*
X33060Y18970D02*
Y19000D01*
X33050Y18960D02*
X33060Y18970D01*
X33180Y14090D02*
Y16941D01*
X22244Y1795D02*
X22900Y1139D01*
Y910D02*
Y1139D01*
X20800Y5157D02*
Y5716D01*
X19720Y1591D02*
X19972Y1339D01*
X19131Y1497D02*
Y4170D01*
X18972Y1339D02*
X19131Y1497D01*
Y4170D02*
X19230D01*
X18250Y2950D02*
Y3140D01*
X18000Y3390D02*
X18250Y3140D01*
X18000Y3390D02*
Y3630D01*
X17642Y2342D02*
X18250Y2950D01*
X17642Y1339D02*
Y2342D01*
X14087Y3100D02*
X14116Y3071D01*
X14803D01*
X13681Y4035D02*
X13693Y4023D01*
Y3100D02*
Y4023D01*
Y3100D02*
X13720Y3073D01*
Y2350D02*
Y3073D01*
X13661Y4016D02*
X13681Y4035D01*
X13720Y2350D02*
X14642Y1428D01*
Y1339D02*
Y1428D01*
X13287Y984D02*
Y4232D01*
X15354Y26575D02*
Y27754D01*
X15380Y27780D01*
X28250Y12470D02*
X28445Y12665D01*
X28210Y12470D02*
X28250D01*
X27810Y11480D02*
X27854Y11436D01*
X3898Y32224D02*
Y33465D01*
Y32224D02*
X3937Y32185D01*
X5020Y23130D02*
Y23720D01*
X14270Y23152D02*
Y23860D01*
X14609Y19726D02*
X14855Y19973D01*
X14272Y19726D02*
X14609D01*
X14855Y19973D02*
Y21563D01*
X14272Y18900D02*
Y19726D01*
X33313Y7113D02*
Y7727D01*
X23234Y31060D02*
X23250Y31044D01*
X22950Y29466D02*
Y31200D01*
X22850Y29366D02*
X22950Y29466D01*
X23622Y32579D02*
Y33600D01*
Y32579D02*
X23650Y32551D01*
X23250Y29200D02*
Y31044D01*
X35085Y8925D02*
X35150Y8990D01*
X35085Y7727D02*
Y8925D01*
X35150Y8909D02*
X35250Y8809D01*
X28150Y32500D02*
Y33169D01*
X27860Y32210D02*
X28150Y32500D01*
X27860Y27060D02*
Y32210D01*
X4928Y33325D02*
Y35208D01*
Y33325D02*
X5050Y33202D01*
X14764Y13091D02*
X15005Y13331D01*
Y17500D01*
X15595D02*
Y17985D01*
X14689Y17217D02*
Y18639D01*
X14500Y17028D02*
X14689Y17217D01*
X14500Y16650D02*
Y17028D01*
X16345Y19061D02*
X16584Y19300D01*
X16345Y18734D02*
Y19061D01*
X15595Y17985D02*
X16345Y18734D01*
X16750Y17900D02*
Y18900D01*
X17150Y17740D02*
Y19066D01*
X16916Y19300D02*
X17150Y19066D01*
X15945Y19094D02*
Y19905D01*
X14764Y5197D02*
Y7677D01*
X14685Y5118D02*
X14764Y5197D01*
Y13091D02*
X14764Y13091D01*
X14764Y7677D02*
Y13091D01*
X14685Y4114D02*
Y5118D01*
X14272Y17242D02*
Y18680D01*
X14080Y17050D02*
X14272Y17242D01*
X14080Y15450D02*
Y17050D01*
X13200Y17150D02*
X13500Y16850D01*
Y16650D02*
Y16850D01*
X23250Y25550D02*
Y26266D01*
X23000Y24600D02*
Y25300D01*
X23250Y25550D01*
X23000Y24100D02*
Y24600D01*
X23622Y23260D02*
Y26575D01*
X28150Y24200D02*
Y25900D01*
X27854Y26196D02*
X28150Y25900D01*
X27854Y26196D02*
Y26575D01*
Y27054D01*
X25145Y12694D02*
Y13600D01*
X25050Y10450D02*
Y12150D01*
X24845Y12355D02*
X25050Y12150D01*
X24845Y12355D02*
Y12550D01*
X30855Y15437D02*
Y17027D01*
X30792Y17090D02*
Y17997D01*
Y17090D02*
X30855Y17027D01*
X30792Y17997D02*
X30807Y18012D01*
X35335Y12402D02*
Y12965D01*
X27055Y20063D02*
Y20810D01*
X20145Y21705D02*
X21500Y20350D01*
X20145Y21705D02*
Y23189D01*
X19827Y23507D02*
X20145Y23189D01*
X19827Y23507D02*
Y25901D01*
X20200Y26274D01*
Y28700D01*
X20209Y26000D02*
X20750D01*
X20027Y25818D02*
X20209Y26000D01*
X18785Y17115D02*
X20285D01*
X23750Y27969D02*
X24213Y28431D01*
X23750Y27234D02*
Y27969D01*
X24213Y28431D02*
Y32579D01*
X35700Y32500D02*
X35773D01*
X35827Y32447D01*
X9301Y800D02*
X9615Y486D01*
X7650Y800D02*
X9301D01*
X8465Y2559D02*
X9016D01*
X9615Y486D02*
X11091D01*
X9016Y2559D02*
X9114Y2461D01*
X7776Y2165D02*
X7972Y1969D01*
X6988Y2953D02*
X7229D01*
X6102Y689D02*
Y2756D01*
X7972Y1969D02*
X9350D01*
X10335Y2953D01*
X17949Y33100D02*
X18855Y32194D01*
X16145Y22273D02*
Y30829D01*
X15945Y22190D02*
Y31195D01*
X16145Y30829D02*
X17750Y32434D01*
X14764Y26575D02*
Y31299D01*
X17520Y31398D02*
X17728D01*
X25750Y27645D02*
Y28100D01*
X22204Y27856D02*
X22600Y27460D01*
Y27350D02*
Y27460D01*
X23038Y27492D02*
Y27823D01*
X23030Y27484D02*
X23038Y27492D01*
X23030Y26575D02*
Y27484D01*
X23550Y28334D02*
X23683Y28467D01*
X23750Y27234D02*
X24145Y26839D01*
Y23621D02*
Y26839D01*
X23550Y27151D02*
Y28334D01*
Y27151D02*
X23622Y27079D01*
Y26575D02*
Y27079D01*
X24150Y27400D02*
Y27600D01*
X24803Y28253D01*
X23250Y26883D02*
X23319Y26814D01*
Y26335D02*
Y26814D01*
X23250Y26266D02*
X23319Y26335D01*
X22850Y29034D02*
Y29366D01*
X22145Y22273D02*
Y23505D01*
X24145Y18821D02*
X24250Y18716D01*
X22145Y22273D02*
X22500Y21918D01*
Y20350D02*
Y21918D01*
X22250Y24184D02*
Y24516D01*
X21672Y23606D02*
X22250Y24184D01*
X24145Y23621D02*
X24150Y23616D01*
X23000Y20118D02*
X23468Y19650D01*
X23560D01*
X23500Y20350D02*
Y21918D01*
X24250Y18234D02*
Y18716D01*
X24145Y18129D02*
X24250Y18234D01*
X24145Y16273D02*
Y18129D01*
X23850Y18305D02*
Y18400D01*
X24500Y20350D02*
Y21918D01*
X26673Y26575D02*
X26673Y26575D01*
Y26227D02*
X26850Y26050D01*
X26673Y26227D02*
Y26575D01*
X27055Y20063D02*
X27668Y19450D01*
X26855Y19980D02*
Y20727D01*
Y19980D02*
X27105Y19730D01*
X23855Y13973D02*
Y17079D01*
X23850Y17568D02*
Y18305D01*
X23622Y17340D02*
X23850Y17568D01*
X23622Y17312D02*
Y17340D01*
Y17312D02*
X23855Y17079D01*
X23622Y12402D02*
Y13740D01*
X23630Y10710D02*
Y12402D01*
X23390Y10470D02*
X23630Y10710D01*
X23622Y13740D02*
X23855Y13973D01*
X23031Y14833D02*
Y17312D01*
Y14833D02*
X23055Y14810D01*
Y10591D02*
Y14810D01*
X22500Y15082D02*
X22855Y14727D01*
Y13973D02*
Y14727D01*
X22831Y13949D02*
X22855Y13973D01*
X22831Y13731D02*
Y13949D01*
X22600Y13500D02*
X22831Y13731D01*
X21972Y34605D02*
Y35012D01*
X20750Y26000D02*
X21657Y26907D01*
X18850Y22268D02*
X18855Y22273D01*
X18850Y20732D02*
Y22268D01*
Y20732D02*
X18855Y20727D01*
Y19973D02*
Y20727D01*
X23850Y18305D02*
X23855Y18300D01*
X22500Y15082D02*
Y16650D01*
X21850Y24916D02*
Y25050D01*
Y24916D02*
X22250Y24516D01*
X20669Y24606D02*
X21594D01*
X21850Y24350D01*
X23031Y26575D02*
X23086Y26521D01*
X20669Y25106D02*
X21794D01*
X21850Y25050D01*
X25500Y20350D02*
Y21918D01*
X25894Y19856D02*
X26350Y19400D01*
X25894Y19856D02*
Y21140D01*
X27855Y23317D02*
Y23580D01*
X24213Y32579D02*
X24213Y32579D01*
X25145Y27040D02*
X25750Y27645D01*
X24803Y26575D02*
Y27603D01*
X24950Y27750D01*
X24803Y28253D02*
Y31299D01*
X14250Y28150D02*
Y31214D01*
X14272Y31236D01*
X14250Y26596D02*
Y28150D01*
Y26596D02*
X14272Y26575D01*
X22204Y28190D02*
X22204Y28190D01*
X22204Y27856D02*
Y28190D01*
X28807Y4543D02*
Y5416D01*
Y4543D02*
X29150Y4200D01*
X28984Y3800D02*
X29347D01*
X29702Y3445D01*
X28400Y4384D02*
X28984Y3800D01*
X35400Y3729D02*
Y4100D01*
X5315Y4724D02*
Y7677D01*
Y4724D02*
Y6315D01*
X28807Y5416D02*
X28895Y5504D01*
X29358D01*
X29461Y5607D01*
Y6007D01*
X29350Y6118D02*
X29461Y6007D01*
X29350Y6118D02*
Y13680D01*
X29145Y13885D02*
X29350Y13680D01*
X29145Y13885D02*
Y17027D01*
X29350Y17232D01*
X29702Y3445D02*
X30315D01*
X29134Y5807D02*
Y8866D01*
X30150Y4948D02*
X30295Y4803D01*
X30807Y2953D02*
Y7677D01*
X31970Y4140D02*
Y5233D01*
X32153Y5416D01*
X28500Y9500D02*
X29134Y8866D01*
X30807Y7677D02*
Y12402D01*
X31398Y7677D02*
Y13437D01*
X30855Y12402D02*
Y13263D01*
X30945Y13890D02*
X31398Y13437D01*
X33313Y7727D02*
Y10500D01*
X34744Y9972D02*
Y12402D01*
Y9972D02*
X34750Y9966D01*
Y7983D02*
Y9966D01*
X21650Y5100D02*
X21796D01*
X21200Y5550D02*
X21650Y5100D01*
X21284Y6200D02*
X22440D01*
X20800Y5716D02*
X21284Y6200D01*
X6850Y4981D02*
Y5000D01*
Y4981D02*
X6850Y4980D01*
X7520Y5650D01*
X10925Y2953D02*
Y5118D01*
Y7677D01*
X11417Y2953D02*
Y7677D01*
X23334Y16816D02*
Y19034D01*
X30217Y17099D02*
Y19901D01*
X31398Y18012D02*
Y19587D01*
X28500Y20350D02*
X29280Y19570D01*
X19755Y19700D02*
X19800Y19655D01*
X20500Y16650D02*
Y16900D01*
X20285Y17115D02*
X20500Y16900D01*
X23334Y16816D02*
X23500Y16650D01*
X19466Y13700D02*
X19666Y13500D01*
X19134Y13700D02*
X19466D01*
X18900Y13466D02*
X19134Y13700D01*
X18900Y13134D02*
Y13466D01*
Y13134D02*
X19083Y12951D01*
X19283Y13283D02*
X19300Y13300D01*
X19666Y13500D02*
X22600D01*
X14945Y22190D02*
X15080Y22055D01*
X14272Y18680D02*
Y18900D01*
X14272Y18680D02*
Y18900D01*
X25145Y12694D02*
X25250Y12589D01*
X24140Y13978D02*
Y15266D01*
X27855Y23905D02*
X28150Y24200D01*
X27855Y23580D02*
Y23905D01*
X27450Y23432D02*
Y24150D01*
X27854Y33465D02*
X28150Y33169D01*
X28445Y23450D02*
X28855Y23040D01*
X27720Y19475D02*
X27795Y19400D01*
X27668Y19450D02*
X27695D01*
X27105D02*
Y19730D01*
X27264Y24529D02*
Y26575D01*
X27050Y24316D02*
X27264Y24529D01*
X24515Y9200D02*
X24750D01*
X24515Y7438D02*
Y9200D01*
Y7438D02*
X24570Y7383D01*
Y6634D02*
Y7383D01*
Y6634D02*
X25200Y6004D01*
X24213Y15338D02*
Y16205D01*
X24140Y15266D02*
X24213Y15338D01*
Y7677D02*
Y13905D01*
X24140Y13978D02*
X24213Y13905D01*
X24145Y16273D02*
X24213Y16205D01*
Y7677D02*
X24250D01*
Y5333D02*
Y7677D01*
X24035Y5118D02*
X24250Y5333D01*
X23622Y4032D02*
Y7677D01*
X23232Y3642D02*
X23622Y4032D01*
X24803Y3839D02*
Y4035D01*
X24114Y3150D02*
X24803Y3839D01*
X30145Y17027D02*
X30217Y17099D01*
Y20799D02*
Y22201D01*
X30145Y20727D02*
X30217Y20799D01*
X30145Y19973D02*
Y20727D01*
Y19973D02*
X30217Y19901D01*
Y23099D02*
Y33465D01*
X30145Y23027D02*
X30217Y23099D01*
X30145Y22273D02*
Y23027D01*
Y22273D02*
X30217Y22201D01*
X27264Y26575D02*
Y29134D01*
X32500Y15650D02*
Y16650D01*
X32145Y13555D02*
Y15005D01*
Y13555D02*
X32300Y13400D01*
X31500Y15082D02*
Y16650D01*
X31145Y13973D02*
X32668Y12450D01*
X32700D01*
X32150Y17032D02*
Y17170D01*
X32145Y17027D02*
X32150Y17032D01*
X32145Y16273D02*
Y17027D01*
X32700Y12450D02*
X32750Y12400D01*
X33305D01*
X33326Y12379D01*
Y10513D02*
Y12379D01*
X32145Y16273D02*
X32150Y16268D01*
Y14800D02*
Y16268D01*
X32300Y13400D02*
X33130D01*
X31145Y15646D02*
X31150Y15641D01*
X31988Y19587D02*
Y20758D01*
X33130Y13400D02*
X33900Y12630D01*
X28145Y19973D02*
X28250Y19868D01*
X28150Y14732D02*
Y16268D01*
X28145Y14727D02*
X28150Y14732D01*
X28145Y16273D02*
X28150Y16268D01*
X26350Y16800D02*
X26500Y16650D01*
X35335Y3663D02*
X35400Y3729D01*
X35335Y2953D02*
Y3663D01*
X34484Y13850D02*
X35276Y14642D01*
X34400Y13850D02*
X34484D01*
X35335Y10531D02*
Y10550D01*
X35295D02*
Y11445D01*
X34652Y4443D02*
X34665Y4429D01*
Y3031D02*
Y4429D01*
X34665Y4429D01*
X34494Y7727D02*
X34750Y7983D01*
X33900Y5470D02*
Y12630D01*
X33313Y10500D02*
X33326Y10513D01*
X34513Y15642D02*
X35138D01*
X33480Y14608D02*
X34513Y15642D01*
X24650Y10050D02*
X25050Y10450D01*
X24650Y10016D02*
Y10050D01*
X25250Y11856D02*
X25900Y11206D01*
X25250Y11856D02*
Y12589D01*
X22720Y9750D02*
Y12020D01*
X25900Y9500D02*
Y11206D01*
X24820Y7677D02*
X26643Y9500D01*
X24803Y7677D02*
X24820D01*
X26650Y7700D02*
X26673Y7677D01*
X23120Y5600D02*
Y9916D01*
X23390Y10360D02*
Y10470D01*
X23301Y10360D02*
X23390D01*
X23301D02*
X23622Y10039D01*
X22150Y12590D02*
X22720Y12020D01*
X23012Y5492D02*
X23120Y5600D01*
X18043Y8514D02*
X18388D01*
X18043Y8254D02*
X18411D01*
X18120Y13249D02*
X18883Y12486D01*
X17055Y14031D02*
X18683Y12403D01*
X17606Y13100D02*
X18483Y12223D01*
X18312Y5910D02*
X19083Y6681D01*
X27220Y15100D02*
X27855Y15735D01*
X16145Y22273D02*
X16268Y22150D01*
X18550Y15132D02*
Y16600D01*
X16950Y32850D02*
X17916D01*
X18150Y32616D01*
Y31820D02*
Y32616D01*
X17728Y31398D02*
X18150Y31820D01*
X20343Y8254D02*
Y8514D01*
X21796Y5100D02*
X22054Y4842D01*
X21630Y4256D02*
X22716Y3170D01*
X21630Y4256D02*
Y4700D01*
X22440Y6736D02*
Y7810D01*
X27215Y11681D02*
X27450Y11916D01*
X27215Y11090D02*
Y11681D01*
X28445Y23450D02*
Y23580D01*
X17589Y33100D02*
X17949D01*
X16642Y34047D02*
X17589Y33100D01*
X15945Y22190D02*
X16185Y21950D01*
X17750Y32434D02*
Y32450D01*
X12540Y32710D02*
X12622Y32629D01*
X13206Y32302D02*
X14272Y31236D01*
X16642Y34047D02*
Y35138D01*
X15600Y31500D02*
X16950Y32850D01*
X20115Y31219D02*
Y34995D01*
X12914Y32302D02*
X13206D01*
X15354Y31500D02*
X15600D01*
X12879Y32102D02*
X13681Y31299D01*
X12558Y32102D02*
X12879D01*
X12622Y32594D02*
X12914Y32302D01*
X12031Y32629D02*
X12558Y32102D01*
X13704Y32629D02*
X14271D01*
X13114D02*
Y32692D01*
X13504Y32302D01*
X14272Y31236D02*
Y31299D01*
X13504Y32302D02*
X13796D01*
X14764Y31334D01*
Y31299D02*
Y31334D01*
X14272Y31299D02*
Y31299D01*
Y31299D02*
X14272D01*
X12622Y32594D02*
Y32629D01*
X9250Y32350D02*
Y35750D01*
X8450Y32150D02*
X8500Y32100D01*
X6988Y33465D02*
X7785D01*
X1280Y31180D02*
Y31299D01*
X878Y30778D02*
X1280Y31180D01*
X815Y30850D02*
X842D01*
X1280Y32830D02*
Y33465D01*
X737Y32287D02*
X1280Y32830D01*
X12500Y31299D02*
X12697Y31496D01*
X12008Y31299D02*
X12500D01*
X15080Y23245D02*
Y26259D01*
X15233Y23115D02*
X15545D01*
X15710Y23280D01*
X15145Y22273D02*
X16118Y21300D01*
X14145Y22273D02*
X14855Y21563D01*
X14945Y23110D02*
X15080Y23245D01*
X14945Y22190D02*
Y23110D01*
X15145Y22273D02*
Y23027D01*
X15233Y23115D01*
X14764Y26575D02*
X15080Y26259D01*
X14270Y23860D02*
X14272Y23862D01*
X15710Y23280D02*
Y23700D01*
X13681Y23289D02*
Y26575D01*
X11417Y23626D02*
Y31299D01*
X10925Y24114D02*
Y26575D01*
X10335Y9452D02*
Y33465D01*
X6398Y28518D02*
Y33465D01*
X6004Y28346D02*
Y31190D01*
X9463Y19949D02*
Y29415D01*
X5900Y31294D02*
X6004Y31190D01*
X14272Y23862D02*
Y26575D01*
X7186Y31496D02*
X8169D01*
X6989Y31299D02*
X7186Y31496D01*
X11417Y31299D02*
Y33465D01*
Y31299D02*
X11417Y31299D01*
X10925Y28248D02*
Y35532D01*
X10925Y26575D02*
Y28346D01*
X19610Y32370D02*
Y32885D01*
X18972Y33522D02*
Y35138D01*
Y33522D02*
X19610Y32885D01*
X19685Y27614D02*
Y28728D01*
X17900Y18000D02*
X18785Y17115D01*
X18120Y13249D02*
Y14702D01*
X17055Y14031D02*
Y16205D01*
X18304Y5910D02*
X18312D01*
X18120Y14702D02*
X18550Y15132D01*
X16500Y15170D02*
X16855Y14815D01*
Y13845D02*
Y14815D01*
Y13845D02*
X17600Y13100D01*
X17606D01*
X17150Y17740D02*
X17380Y17510D01*
X16584Y19300D02*
X16916D01*
X16484Y9284D02*
X18043D01*
X17422Y9554D02*
X18023D01*
X17419Y9550D02*
X17422Y9554D01*
X16523Y9550D02*
X17419D01*
X15730Y10250D02*
Y10451D01*
Y10088D02*
Y10250D01*
X9666Y18900D02*
X9800D01*
X13200Y17150D02*
Y18900D01*
X8972D02*
X9100D01*
X9056Y19509D02*
X9666Y18900D01*
X8183Y19617D02*
Y19949D01*
Y19617D02*
X8291Y19509D01*
X9056D01*
X7923Y19549D02*
Y19949D01*
Y19549D02*
X8163Y19309D01*
X8289Y18900D02*
X8400D01*
X7663Y19526D02*
X8289Y18900D01*
X8163Y19309D02*
X8563D01*
X8972Y18900D01*
X7663Y19526D02*
Y19949D01*
X12008Y17462D02*
X12638D01*
X10925Y24114D02*
X10925Y24114D01*
X10925Y7677D02*
Y24114D01*
X11373Y7721D02*
Y19543D01*
Y7721D02*
X11417Y7677D01*
X11373Y19543D02*
X11417Y19587D01*
X8693Y13973D02*
X8800Y13866D01*
X8693Y13973D02*
Y17649D01*
X8400Y13666D02*
Y13700D01*
Y13666D02*
X8433Y13633D01*
X8183Y14133D02*
Y17649D01*
X6700Y12650D02*
X8183Y14133D01*
X6700Y12162D02*
Y12650D01*
X6388Y18002D02*
X6404Y18018D01*
X6388Y12411D02*
X6398Y12402D01*
X6388Y12411D02*
Y18002D01*
X7480Y14670D02*
Y16634D01*
X5890Y14779D02*
Y14780D01*
Y14779D02*
X5906Y14764D01*
X6700Y12162D02*
X6788Y12074D01*
X7926D01*
X8000Y12000D01*
X7095Y12402D02*
X7193Y12500D01*
X6988Y12402D02*
X7095D01*
X6398Y10605D02*
Y12402D01*
Y10605D02*
X6502Y10500D01*
X7480Y16634D02*
X7776Y16929D01*
X7480Y14670D02*
X7560Y14590D01*
X5906Y12402D02*
Y14764D01*
X5906Y12402D02*
X5906D01*
X5906Y10433D02*
Y12402D01*
Y10433D02*
X6004Y10335D01*
X9200Y13334D02*
Y13666D01*
X9600Y13500D02*
Y13816D01*
X6502Y10169D02*
Y10500D01*
X6398Y10064D02*
X6502Y10169D01*
X6398Y2953D02*
Y10064D01*
X8550Y9791D02*
Y10289D01*
Y9791D02*
X8633Y9708D01*
Y9617D02*
Y9708D01*
X8750Y9874D02*
Y10206D01*
Y9874D02*
X9004Y9621D01*
X8169Y9154D02*
X8633Y9617D01*
X9200Y13666D02*
X9203Y13669D01*
X9463Y13953D02*
X9600Y13816D01*
X9004Y9511D02*
Y9621D01*
X8413Y8920D02*
X9004Y9511D01*
X9463Y13953D02*
Y17649D01*
X7890Y22597D02*
X8433Y22054D01*
X8693Y19949D02*
Y22077D01*
X8090Y22680D02*
X8693Y22077D01*
X8943Y19949D02*
Y22110D01*
X8290Y22763D02*
X8943Y22110D01*
X9203Y19949D02*
Y22507D01*
X8860Y22850D02*
X9203Y22507D01*
X8090Y22680D02*
Y23066D01*
X7576Y23580D02*
X8090Y23066D01*
X7410Y23080D02*
Y23180D01*
Y23080D02*
X7890Y22600D01*
X6988Y20450D02*
Y21600D01*
X8290Y22763D02*
Y26946D01*
X7663Y19109D02*
X7923Y18849D01*
Y17649D02*
Y18849D01*
X7663Y17649D02*
Y19109D01*
X5305Y20480D02*
X5315Y20470D01*
Y12402D02*
Y20470D01*
X13890Y15450D02*
X14080D01*
X15500Y20350D02*
X15945Y19905D01*
X13620Y20470D02*
Y21174D01*
X14444Y20350D02*
X14500D01*
X13620Y21174D02*
X14444Y20350D01*
X13620Y21174D02*
Y21260D01*
X13500Y20350D02*
X13620Y20470D01*
X27264Y7677D02*
Y10433D01*
X26654Y11043D02*
X27264Y10433D01*
X27854Y10691D02*
Y11436D01*
Y10691D02*
X27864Y10682D01*
X26654Y11043D02*
Y11090D01*
X31145Y19839D02*
X31398Y19587D01*
X30807D02*
X30820Y19574D01*
X30807Y18012D02*
X30820Y18025D01*
X31900Y24380D02*
X32865Y23415D01*
X1870Y26575D02*
Y32214D01*
X1567Y32477D02*
Y33904D01*
X1530Y32440D02*
X1567Y32477D01*
X1930Y32274D02*
Y33405D01*
X1870Y33465D02*
X1930Y33405D01*
X1870Y32214D02*
X1930Y32274D01*
X30855Y22273D02*
Y26575D01*
X30807D02*
X30855D01*
X30660Y22078D02*
X30855Y22273D01*
X30660Y21104D02*
Y22078D01*
Y21104D02*
X30855Y20909D01*
Y19635D02*
Y20909D01*
X30807Y19587D02*
X30855Y19635D01*
X31500Y21082D02*
Y21918D01*
X31145Y20727D02*
X31500Y21082D01*
X31145Y19839D02*
Y20727D01*
X33399Y21949D02*
X33465D01*
Y22401D01*
X14272Y18680D02*
X14272Y18680D01*
X31145Y23027D02*
X31398Y23280D01*
X31145Y22273D02*
X31500Y21918D01*
X31145Y22273D02*
Y23027D01*
X32940Y19020D02*
Y19070D01*
X31398Y26575D02*
Y30517D01*
Y23280D02*
Y26575D01*
X31390Y30524D02*
Y33457D01*
Y30524D02*
X31398Y30517D01*
X31390Y33457D02*
X31398Y33465D01*
X32153Y5416D02*
X32241Y5504D01*
X32153Y5416D02*
Y5416D01*
X30807Y29134D02*
Y35630D01*
X35335Y31299D02*
Y31955D01*
X30807Y2953D02*
X30807Y2953D01*
Y12402D02*
X30855D01*
X13176Y10039D02*
X13478Y10342D01*
Y10599D01*
X13681Y10802D01*
Y12402D01*
X13878Y10433D02*
X14272Y10827D01*
X14100Y4476D02*
X14272Y4304D01*
X13531Y4476D02*
X14100D01*
X13287Y4232D02*
X13531Y4476D01*
X23030Y26575D02*
X23031D01*
X11327Y23535D02*
X11417Y23626D01*
X11327Y22208D02*
Y23535D01*
Y22208D02*
X11417Y22117D01*
Y19587D02*
Y22117D01*
X6988Y21600D02*
X7534Y22146D01*
X7890Y22597D02*
Y22600D01*
X7534Y22146D02*
X7776D01*
X35335Y31955D02*
X35827Y32447D01*
X18012Y3642D02*
Y4626D01*
X16642Y2567D02*
X17421Y3346D01*
X16339Y9168D02*
X16354Y9154D01*
X17308Y7480D02*
X17323D01*
X17119Y7670D02*
X17308Y7480D01*
X18023Y9554D02*
X18043Y9534D01*
X15729Y10452D02*
X15730Y10451D01*
X4603Y5292D02*
X4606Y5295D01*
Y4862D02*
Y5295D01*
X12008Y7694D02*
X12398Y8083D01*
X12008Y7677D02*
Y7694D01*
X12398Y8083D02*
Y8760D01*
X8701Y8413D02*
Y8681D01*
Y8413D02*
X9104Y8010D01*
X8169Y8243D02*
X8766Y7646D01*
X8169Y8243D02*
Y9154D01*
X7192Y7874D02*
X7972D01*
X6988Y7670D02*
X7192Y7874D01*
X23622Y1083D02*
Y4035D01*
X20972Y2239D02*
X21884Y3150D01*
X22047D01*
X22054Y4396D02*
X22808Y3642D01*
X23232D01*
X3740Y2953D02*
X3740Y2953D01*
X32480Y5807D02*
X32480D01*
X32480Y5743D02*
Y5807D01*
X16642Y1339D02*
Y2567D01*
X22440Y6200D02*
X22640Y6400D01*
X22200Y6496D02*
X22440Y6736D01*
X1083Y8858D02*
X1280Y8661D01*
Y8268D02*
Y8661D01*
Y8268D02*
X1280Y8268D01*
X4528Y18504D02*
Y19390D01*
X8433Y19949D02*
Y22054D01*
X10925Y22865D02*
Y24114D01*
X6404Y18018D02*
Y24118D01*
X5906Y18898D02*
Y19587D01*
X2362Y23819D02*
Y23819D01*
X988Y22835D02*
X1663Y22160D01*
X984Y22835D02*
X988D01*
X35433Y26673D02*
Y28051D01*
X35335Y26575D02*
X35433Y26673D01*
X7090Y26378D02*
X7776D01*
X6988Y26480D02*
X7090Y26378D01*
X34154Y33465D02*
X34154Y33465D01*
X5315Y33465D02*
X5315Y33465D01*
X5315Y26575D02*
X5315Y26575D01*
X12697Y31373D02*
Y31496D01*
X6988Y31300D02*
X6989Y31299D01*
X22716Y3170D02*
X22760D01*
X15354Y7670D02*
X17119D01*
X7874Y4626D02*
X8268D01*
X7480Y5020D02*
X7874Y4626D01*
X7480Y5020D02*
Y5020D01*
X33622Y4823D02*
X33642Y4803D01*
X33071Y4823D02*
X33622D01*
X34738Y26568D02*
X34744Y26575D01*
X34738Y23825D02*
X34744Y23819D01*
X34738Y23825D02*
Y26568D01*
X14272Y26575D02*
X14272Y26575D01*
X10925Y28248D02*
X10925Y28248D01*
X10925Y24114D02*
X10925Y24114D01*
X2362Y26575D02*
X2362Y26575D01*
X2953Y26575D02*
X2953Y26575D01*
X3383Y33465D02*
X3386D01*
X3346Y32677D02*
X3386Y32717D01*
Y33465D01*
X10827Y26673D02*
X10925Y26575D01*
X4016Y4880D02*
Y4902D01*
Y4154D02*
Y4880D01*
X4724Y14156D02*
X4921Y13959D01*
X9203Y13669D02*
Y17649D01*
X33642Y4803D02*
X33730D01*
X21850Y6496D02*
X22200D01*
X4921Y13091D02*
Y13959D01*
X1280Y23819D02*
Y23985D01*
X22760Y2340D02*
Y3170D01*
X12585Y6468D02*
X12620D01*
X4016Y4902D02*
X4075D01*
X15354Y7670D02*
Y7677D01*
X12008Y26575D02*
Y26593D01*
X12800D01*
X10925Y10335D02*
X10930Y10330D01*
X6988Y26480D02*
Y26575D01*
X12008Y2953D02*
Y2960D01*
X6988Y7670D02*
Y7677D01*
Y31299D02*
Y31300D01*
X15354Y31299D02*
Y31500D01*
X7520Y5650D02*
Y6299D01*
X10335Y2953D02*
Y2953D01*
X32677Y34000D02*
Y34154D01*
X32137Y33460D02*
X32677Y34000D01*
X31988Y33460D02*
Y33465D01*
X3976Y4880D02*
Y4902D01*
Y4880D02*
X4016D01*
X28445Y33465D02*
Y33661D01*
X27854Y34252D02*
X28445Y33661D01*
X1181Y26575D02*
X1280D01*
X9882Y9390D02*
Y9688D01*
X2953Y23819D02*
Y26575D01*
X1551Y14567D02*
X1551Y14567D01*
X1230Y26624D02*
X1280Y26673D01*
X1870Y2953D02*
Y4724D01*
X12008Y33465D02*
X12106Y33366D01*
X17642Y35138D02*
X17815Y34965D01*
X1280Y7677D02*
Y8268D01*
X8169Y7087D02*
X8366Y7283D01*
X7776Y7087D02*
X8169D01*
X984Y1969D02*
X1280D01*
X2953Y2953D02*
Y4154D01*
X1870Y591D02*
Y1969D01*
X12585Y5425D02*
Y5878D01*
Y5425D02*
X13266Y4744D01*
X13661D01*
X21850Y5433D02*
X22539Y4744D01*
X23012D01*
X23031Y4035D02*
Y4207D01*
X23012Y5492D02*
X23388Y5116D01*
Y4564D02*
Y5116D01*
X23031Y4207D02*
X23388Y4564D01*
X8858Y4626D02*
X8858D01*
X8858Y3248D02*
Y4626D01*
X8071Y5610D02*
X8071D01*
X8071Y5020D02*
Y5610D01*
X8031Y6299D02*
X8071Y6260D01*
Y5610D02*
Y6260D01*
X3740Y13091D02*
X3740Y13091D01*
X4331D01*
X4370Y13051D01*
Y12402D02*
Y13051D01*
X4882Y13051D02*
X4921Y13091D01*
X4882Y12402D02*
Y13051D01*
X4626Y11614D02*
Y11614D01*
X5020Y14469D02*
X5020D01*
Y14961D01*
X5020D02*
X5020D01*
X5020D02*
Y15650D01*
X3445Y23858D02*
X3445D01*
X3642Y30413D02*
X3740Y30512D01*
X4429Y22638D02*
Y23130D01*
X4980Y22598D02*
X5020Y22638D01*
X4980Y21949D02*
Y22598D01*
X4429Y22638D02*
X4469Y22598D01*
Y21949D02*
Y22598D01*
X4626Y21063D02*
X4724Y21161D01*
X29724Y4823D02*
X29744Y4803D01*
X30295D01*
X29902Y4055D02*
X30295D01*
X29134Y4823D02*
X29902Y4055D01*
X29134Y4823D02*
Y5217D01*
X32480Y4823D02*
X32480Y4823D01*
Y4886D01*
X21850Y5433D02*
Y5906D01*
X25591Y5413D02*
X25591D01*
X25591Y5020D02*
Y5413D01*
Y5020D02*
X26358Y4252D01*
X26752D01*
X35114Y18996D02*
X35138Y18972D01*
X13681Y7677D02*
X13681D01*
X10335Y9452D02*
X10364Y9423D01*
X9298Y8675D02*
X10364D01*
X9291Y8681D02*
X9298Y8675D01*
X4232Y8681D02*
X5374D01*
X1476Y15642D02*
X2239D01*
X20972Y34376D02*
Y35138D01*
X15642Y34376D02*
Y35138D01*
X2894Y4154D02*
X2953D01*
X1476Y19972D02*
X2567D01*
X1476Y20972D02*
X2272D01*
X2362Y7677D02*
X2362D01*
X5906Y2953D02*
X5906D01*
X5906Y19587D02*
X5906D01*
X5906Y26575D02*
X5906D01*
X2362Y26575D02*
X2362Y26575D01*
X9882Y9390D02*
X9915Y9423D01*
X10364D01*
X9291Y8681D02*
Y9390D01*
X4834Y9418D02*
X5363D01*
X5374Y9429D01*
X4496Y9756D02*
X4834Y9418D01*
X4193Y9390D02*
X4232Y9429D01*
X4193Y8642D02*
Y9390D01*
Y8642D02*
X4232Y8681D01*
X2953Y4154D02*
X3425D01*
X34376Y20972D02*
X35138D01*
X1476Y21972D02*
X1663Y22160D01*
X20669Y1780D02*
X20972Y1476D01*
X1280Y26673D02*
Y28150D01*
X10337Y8648D02*
X10364Y8675D01*
X5363Y8670D02*
X5374Y8681D01*
X2894Y4902D02*
X3976D01*
X4075D02*
X4114Y4862D01*
X6398Y33465D02*
X6398Y33465D01*
X10925Y7677D02*
X10925Y7677D01*
X10925Y2953D02*
X10925Y2953D01*
X32480Y4886D02*
Y5315D01*
Y4886D02*
X32512Y4855D01*
X1181Y26575D02*
X1230Y26624D01*
X2953Y7677D02*
Y8843D01*
X13176Y5425D02*
X13243Y5492D01*
X34154Y33465D02*
Y35433D01*
X34154Y31299D02*
Y33500D01*
X2953Y2953D02*
X3740D01*
X2953Y8843D02*
X3866Y9756D01*
X2953Y7677D02*
X2953Y7677D01*
X2953Y8843D02*
Y10532D01*
X2953Y10532D01*
X4724Y14156D02*
Y14744D01*
X4567Y14902D02*
X4724Y14744D01*
X4508Y15532D02*
Y15650D01*
X4435Y15459D02*
X4508Y15532D01*
X4429Y14961D02*
X4435Y14967D01*
Y15459D01*
X4429Y14469D02*
X4429Y14469D01*
X3445Y24409D02*
Y25039D01*
X3484Y25079D01*
Y25239D02*
X3715Y25470D01*
X3484Y25079D02*
Y25239D01*
X13176Y10039D02*
X13681Y9534D01*
Y7677D02*
Y9534D01*
X13176Y5425D02*
Y10039D01*
X22441Y5433D02*
X22953D01*
X23012Y5492D01*
X14685Y4114D02*
X14764Y4035D01*
X32972Y2953D02*
X33563D01*
X32972Y2953D02*
X32972Y2953D01*
X34665Y3031D02*
X34744Y2953D01*
X25200Y6004D02*
X25591D01*
X24035Y4213D02*
Y5118D01*
Y4213D02*
X24213Y4035D01*
X26181Y5020D02*
Y5413D01*
Y5020D02*
X26727D01*
X2239Y15642D02*
X2756Y15124D01*
X1339Y16642D02*
X2157D01*
X5906Y18012D02*
X5906Y18012D01*
X7677Y17649D02*
X7677Y17649D01*
X4724Y22854D02*
X4941Y22638D01*
X5020D01*
X28445Y7677D02*
X28445Y7677D01*
X5315Y6315D02*
X5315Y6315D01*
X5315Y2953D02*
X5315Y2953D01*
Y4724D01*
X5315Y7677D02*
X5315Y7677D01*
X21949Y1500D02*
X21972Y1476D01*
X14803Y3071D02*
X14809D01*
X21949Y1500D02*
X22244Y1795D01*
X20972Y1476D02*
Y2239D01*
X15642Y1476D02*
Y2239D01*
X14809Y3071D02*
X15642Y2239D01*
X2362Y5413D02*
Y7677D01*
X2362Y5413D02*
X2362Y5413D01*
X23622Y7677D02*
Y10039D01*
X3866Y9756D02*
X4496D01*
X4429Y10335D02*
Y10827D01*
X4961Y11358D01*
Y12402D01*
X2953Y10532D02*
Y12402D01*
X3642Y12500D02*
X3740D01*
X6004Y10335D02*
X6102D01*
X6021Y8875D02*
Y9235D01*
X6102Y9316D01*
Y10335D01*
X5906Y7677D02*
X6093Y7865D01*
Y8803D01*
X6021Y8875D02*
X6093Y8803D01*
X1339Y18972D02*
X2287D01*
X3050Y18210D01*
X34154Y35433D02*
X34350Y35630D01*
Y35827D01*
X689Y2264D02*
X984Y1969D01*
X689Y2264D02*
X689D01*
X1280Y1476D02*
X1280Y1476D01*
X3445Y23858D02*
X3445Y23858D01*
X2264Y26476D02*
X2362Y26575D01*
X2264Y23917D02*
X2362Y23819D01*
X1864Y23825D02*
X1870Y23819D01*
X1864Y23825D02*
Y26569D01*
X5906Y2953D02*
X6102Y2756D01*
X12621Y2960D02*
X12713Y3051D01*
X12008Y2960D02*
X12621D01*
X12713Y3051D02*
X12795Y2968D01*
Y2953D02*
Y2968D01*
X10925Y2953D02*
X10925Y2953D01*
X10925Y886D02*
Y2953D01*
X2953Y591D02*
Y2953D01*
X2756Y394D02*
X2953Y591D01*
X2362Y5413D02*
X2362Y5413D01*
X2750Y387D02*
X2756Y394D01*
X2073Y387D02*
X2750D01*
X1870Y591D02*
X2073Y387D01*
X3740Y30512D02*
X3740Y30512D01*
X3976Y28346D02*
Y29547D01*
X3898Y29626D02*
X3976Y29547D01*
X3996Y24449D02*
Y25079D01*
Y24449D02*
X4035Y24409D01*
Y23858D02*
Y24409D01*
X3715Y25470D02*
X4353D01*
X4460Y11780D02*
X4626Y11614D01*
X4040Y11780D02*
X4460D01*
X5906Y14764D02*
Y18012D01*
X17224Y8974D02*
X17274Y9024D01*
X18043D01*
X17224Y8858D02*
Y8974D01*
X16354Y9154D02*
X16484Y9284D01*
X16024Y9794D02*
X18043D01*
X15590Y9199D02*
X15630Y9239D01*
X15590Y9170D02*
Y9199D01*
X16354Y9154D02*
Y9183D01*
X16339Y9168D02*
X16354Y9183D01*
X15650Y9220D02*
X15980Y9550D01*
X16184D01*
X16188Y9554D01*
X16519D01*
X16523Y9550D01*
X15730Y10088D02*
X16024Y9794D01*
X16535Y4035D02*
X16590Y4090D01*
X15354Y4035D02*
X16535D01*
X23622Y1083D02*
X23965Y740D01*
X33225Y4055D02*
X33642D01*
X2362Y787D02*
Y2953D01*
Y5413D01*
X5906Y2953D02*
Y7677D01*
X689Y3543D02*
Y3937D01*
Y3543D02*
X1280Y2953D01*
X18662Y3582D02*
X19056Y3975D01*
X14248Y26551D02*
X14272Y26575D01*
X35490Y22930D02*
Y23664D01*
X35335Y23819D02*
X35490Y23664D01*
X34740Y22820D02*
Y22940D01*
Y22820D02*
X35276Y22284D01*
Y21972D02*
Y22284D01*
X32241Y5504D02*
X32241D01*
X32480Y5743D01*
X22054Y4396D02*
Y4842D01*
X591Y1476D02*
X600D01*
X1280D01*
X2157Y16642D02*
X3248Y15551D01*
Y14468D02*
Y15551D01*
X1000Y24264D02*
X1280Y23985D01*
X1000Y24264D02*
Y24520D01*
X20972Y34376D02*
X20980Y34368D01*
X31390Y18019D02*
X31398Y18012D01*
X31390Y33457D02*
X31398Y33465D01*
X25394Y32276D02*
X25407Y32290D01*
X25440D01*
X19972Y35138D02*
X20115Y34995D01*
X20972Y34376D02*
X21808Y33540D01*
X13780Y35610D02*
X14252Y35138D01*
X14642D01*
X12675Y26620D02*
X12800D01*
X9150Y10040D02*
X9530D01*
X9882Y9688D01*
X10930Y5118D02*
Y10330D01*
X14272Y4035D02*
Y4304D01*
X14272Y4035D02*
Y5518D01*
X14272Y6562D02*
Y7677D01*
X14272Y7677D01*
X13176Y5425D02*
X13594D01*
X13661Y5492D01*
X3740Y25866D02*
X4055Y26181D01*
X4331D01*
X1870Y23794D02*
Y23819D01*
Y23794D02*
X2074Y23590D01*
Y23580D02*
Y23590D01*
Y23580D02*
X2162Y23492D01*
X2264Y26476D02*
X2330Y26410D01*
Y24460D02*
Y26410D01*
X2264Y23917D02*
X2330Y23984D01*
Y24460D01*
X4570Y16631D02*
Y17440D01*
Y16631D02*
X4764Y16437D01*
X3445Y23858D02*
X3510Y23793D01*
Y23050D02*
Y23793D01*
X2272Y20972D02*
X2890Y21591D01*
Y22320D01*
X2210Y23000D02*
X2890Y22320D01*
X2162Y23492D02*
X2172D01*
X2362Y23585D02*
Y23819D01*
X31391Y18006D02*
X31398Y18012D01*
X17421Y5027D02*
X18304Y5910D01*
X17421Y3346D02*
Y5027D01*
X9449Y4626D02*
Y5521D01*
X8661Y5315D02*
X8666Y5320D01*
X8268Y4626D02*
X8750Y5108D01*
X8413Y8338D02*
Y8920D01*
X14272Y7677D02*
X14272D01*
X28445Y12665D02*
Y13091D01*
X35150Y8909D02*
Y8990D01*
X3693Y36030D02*
X4004D01*
X3383Y33465D02*
Y34563D01*
X1567Y33904D02*
X3693Y36030D01*
X1864Y26569D02*
X1870Y26575D01*
X2060Y22850D02*
X2210Y23000D01*
X2060Y22839D02*
X2221Y23000D01*
X2060Y22850D02*
Y22990D01*
Y22839D02*
X2070Y22829D01*
X2060Y22839D02*
Y22990D01*
X14272Y10827D02*
Y12402D01*
Y7677D02*
Y10039D01*
X13878Y10433D02*
X14272Y10039D01*
X27264Y32087D02*
Y33465D01*
X30807Y26575D02*
X30807Y26575D01*
Y29134D01*
X30807Y35630D02*
X30807Y35630D01*
X3740Y27264D02*
Y27992D01*
X3445Y28287D02*
X3740Y27992D01*
X2362Y26575D02*
X2362Y26575D01*
X2362Y26575D02*
Y28346D01*
X2362Y28346D01*
Y33465D01*
X5315Y26575D02*
X5315Y26575D01*
Y28346D01*
X5315Y33465D02*
X5315Y33465D01*
X5900Y26580D02*
X5906Y26575D01*
X5900Y26580D02*
X6004Y26684D01*
Y28346D01*
X6398Y28518D02*
X6404Y28512D01*
X10925Y28248D02*
Y28346D01*
X34681Y23819D02*
X34744D01*
X33465Y22401D02*
X33753Y22690D01*
X34147D02*
X34490D01*
X34740Y22940D01*
X13790Y33920D02*
Y34083D01*
X13780Y34093D02*
X13790Y34083D01*
X13780Y34487D02*
Y35610D01*
X1677Y13930D02*
X1677Y13930D01*
X2395Y13885D02*
X2756Y14246D01*
Y15124D01*
X11091Y486D02*
X12795Y2190D01*
Y2215D01*
X8700Y5158D02*
X8750Y5108D01*
X8666Y5320D02*
X8700Y5286D01*
X9100Y5816D02*
X9124Y5840D01*
X9170Y5800D02*
X9449Y5521D01*
X3890Y15440D02*
X3984D01*
X3490Y15274D02*
X3648Y15116D01*
X3490Y15274D02*
Y15606D01*
X3984Y15440D02*
X4060Y15516D01*
X3648Y14303D02*
Y15116D01*
X3414Y14068D02*
X3648Y14303D01*
X3497Y13868D02*
X3890Y14262D01*
Y15440D01*
X3490Y15606D02*
X3850Y15966D01*
Y19590D01*
X4060Y20010D02*
Y20522D01*
Y15516D02*
Y20010D01*
X7785Y33465D02*
X7950Y33300D01*
Y33220D02*
Y33300D01*
X3913Y34130D02*
X4240D01*
X3642Y34252D02*
X3791D01*
X3913Y34130D01*
X2362Y33465D02*
Y34154D01*
X3839Y35630D01*
X13050Y33220D02*
Y33626D01*
X12540Y32710D02*
X13050Y33220D01*
X12570Y33380D02*
X12650Y33460D01*
X12092Y33380D02*
X12570D01*
X12540Y34136D02*
X13050Y33626D01*
X20652Y27166D02*
X20660Y27174D01*
X22140Y23500D02*
X22145Y23505D01*
X22140Y23440D02*
Y23500D01*
X20669Y23606D02*
X21672D01*
X23000Y24100D02*
X23250Y23850D01*
X31988Y20758D02*
X32380Y21150D01*
X32470D01*
X32865Y21321D02*
X32870Y21316D01*
X32865Y21321D02*
Y22515D01*
X33065Y21404D02*
X33070Y21399D01*
X33065Y21404D02*
Y22430D01*
X32870Y19820D02*
Y21316D01*
X32500Y15650D02*
X32610Y15540D01*
X32720D01*
X34950Y13350D02*
X35335Y12965D01*
X33250Y14020D02*
X34751Y12519D01*
X34754Y12402D01*
X33580Y14440D02*
Y14508D01*
X33180Y14090D02*
X33250Y14020D01*
X33480Y14608D02*
X33580Y14508D01*
X32580Y6320D02*
Y6380D01*
X33313Y7113D01*
X5906Y19587D02*
Y26575D01*
X7224Y23580D02*
X7576D01*
X4353Y25470D02*
Y25483D01*
X4731Y25861D01*
X15945Y31195D02*
X17050Y32300D01*
Y32320D01*
X21820Y30920D02*
X22204Y30536D01*
Y28190D02*
Y30536D01*
X13681Y26575D02*
Y31176D01*
X24836Y18270D02*
X24915D01*
X24803Y17312D02*
X24920Y17429D01*
Y18186D01*
X24836Y18270D02*
X24920Y18186D01*
X26625Y11090D02*
Y11449D01*
X26950Y11774D01*
X18000Y3630D02*
X18012Y3642D01*
X35295Y11445D02*
X35680Y11830D01*
X35770D01*
X7730Y3454D02*
Y3720D01*
X7229Y2953D02*
X7730Y3454D01*
X23580Y32481D02*
X23650Y32551D01*
X23250Y26883D02*
Y28224D01*
X23180Y28294D02*
X23250Y28224D01*
X23180Y28294D02*
Y28626D01*
X23250Y28696D01*
Y29200D01*
X23580Y29436D02*
X23650Y29366D01*
X23580Y29436D02*
Y32481D01*
Y28460D02*
X23650Y28530D01*
Y29366D01*
X22980Y27881D02*
X23038Y27823D01*
X22980Y27881D02*
Y28904D01*
X22850Y29034D02*
X22980Y28904D01*
X23000Y20118D02*
Y21850D01*
X23145Y23029D02*
X23250Y23134D01*
X23145Y22273D02*
Y23029D01*
Y22273D02*
X23500Y21918D01*
X23855Y18300D02*
Y23027D01*
X23622Y23260D02*
X23855Y23027D01*
X24145Y18821D02*
Y23279D01*
X24150Y23284D01*
Y23616D01*
X24500Y21918D02*
X24855Y22273D01*
Y23115D01*
X24550Y23420D02*
X24855Y23115D01*
X25145Y22273D02*
X25500Y21918D01*
X26450Y23420D02*
Y23450D01*
X26855Y22273D02*
Y23027D01*
X26850Y23032D02*
X26855Y23027D01*
X26850Y23032D02*
Y26050D01*
X27055Y22190D02*
Y23110D01*
X27050Y23115D02*
X27055Y23110D01*
X27050Y23115D02*
Y24316D01*
X28075Y22210D02*
X28082D01*
X27450Y23432D02*
X27855Y23027D01*
Y22273D02*
Y23027D01*
X27855Y23317D02*
X28145Y23027D01*
X28082Y22210D02*
X28145Y22273D01*
Y23027D01*
X27695Y19450D02*
X27855Y19290D01*
X28855Y22263D02*
Y23040D01*
X27766Y22185D02*
X27767D01*
X27855Y22273D01*
X27849Y21985D02*
X27850D01*
X28075Y22210D01*
X28012Y21420D02*
X28855Y22263D01*
X27050Y20815D02*
X27055Y20810D01*
X27050Y22185D02*
X27055Y22190D01*
X26710Y20872D02*
X26855Y20727D01*
X26710Y22128D02*
X26855Y22273D01*
X26710Y20872D02*
Y22128D01*
X27050Y20815D02*
Y22185D01*
X27250Y21669D02*
X27766Y22185D01*
X27490Y21626D02*
X27849Y21985D01*
X27250Y21181D02*
Y21669D01*
Y21181D02*
X27500Y20931D01*
Y20350D02*
Y20931D01*
X27490Y21240D02*
Y21626D01*
Y21240D02*
X28145Y20585D01*
Y19973D02*
Y20585D01*
X27920Y21420D02*
X28012D01*
X25894Y21140D02*
X25900Y21147D01*
Y23616D01*
X26145Y23115D02*
X26450Y23420D01*
X26145Y20705D02*
Y23115D01*
Y20705D02*
X26500Y20350D01*
X28840Y17565D02*
Y18132D01*
X28145Y16273D02*
Y17027D01*
X28150Y17032D01*
X28745Y17470D02*
X28840Y17565D01*
X28150Y17032D02*
Y17184D01*
X28250Y17284D01*
Y19868D01*
X26350Y16800D02*
Y19400D01*
X27855Y15735D02*
Y19290D01*
X25145Y13600D02*
Y15295D01*
X27202Y18650D02*
X27500Y18352D01*
Y16650D02*
Y18352D01*
X27145Y18060D02*
X27205Y18120D01*
X27145Y16495D02*
Y18060D01*
X18411Y8254D02*
X18883Y8726D01*
X18043Y8774D02*
X18365D01*
X18388Y8514D02*
X18683Y8809D01*
X20000Y9284D02*
X20343D01*
X18365Y8774D02*
X18483Y8891D01*
X18883Y8726D02*
Y12486D01*
X19083Y6681D02*
Y12951D01*
X19283Y6233D02*
Y13283D01*
X18483Y8891D02*
Y12223D01*
X18683Y8809D02*
Y12403D01*
X22980Y10056D02*
X23120Y9916D01*
X22980Y10056D02*
Y10516D01*
X23055Y10591D01*
X35335Y33465D02*
Y33565D01*
X33399Y21949D02*
X34376Y20972D01*
X32865Y22515D02*
X33766Y23416D01*
X34135Y23692D02*
X34154Y23710D01*
Y23819D01*
X34154Y23819D02*
X34154Y23819D01*
X34154Y23819D02*
X34154Y23819D01*
X34353Y23492D02*
X34681Y23819D01*
X34043Y23692D02*
X34135D01*
X33065Y22430D02*
X34126Y23492D01*
X34353D01*
X32865Y23415D02*
X33767D01*
X34043Y23692D01*
X33563Y23819D02*
Y26575D01*
Y28113D02*
X33600Y28150D01*
X33563Y26575D02*
Y28113D01*
X31988Y31299D02*
X32391D01*
X32750Y30940D01*
X32579Y29409D02*
X33844D01*
X34154Y29100D01*
Y23819D02*
Y29100D01*
X33844Y29409D02*
X34154Y29719D01*
Y33465D01*
X23250Y23134D02*
Y23850D01*
X25145Y22273D02*
Y27040D01*
X5906Y18012D02*
Y18799D01*
X6510Y24626D02*
X6690Y24806D01*
X6510Y24294D02*
Y24626D01*
Y24294D02*
X7224Y23580D01*
X6310Y24211D02*
X6404Y24118D01*
X6310Y24211D02*
Y24709D01*
X6404Y24802D01*
Y28512D01*
X16959Y22150D02*
X18500Y20609D01*
X16876Y21950D02*
X17500Y21326D01*
X16185Y21950D02*
X16876D01*
X16268Y22150D02*
X16959D01*
X25800Y15150D02*
X27145Y16495D01*
X31145Y13973D02*
Y14727D01*
X31500Y15082D01*
X30945Y13890D02*
Y14810D01*
X31150Y15015D01*
Y15641D01*
X17055Y16205D02*
X17500Y16650D01*
X18500D02*
X18550Y16600D01*
X25145Y15295D02*
X26500Y16650D01*
X35750Y33980D02*
Y34090D01*
X35335Y33565D02*
X35750Y33980D01*
X31988Y26575D02*
X31990Y26577D01*
Y27220D01*
X23334Y19034D02*
X23340Y19040D01*
X31950Y18900D02*
X32870Y19820D01*
X31950Y18820D02*
Y18900D01*
X7252Y19520D02*
X7663Y19109D01*
X6988Y18012D02*
X7020Y18044D01*
Y18680D01*
X7242Y19510D02*
X7252Y19520D01*
X6990Y19510D02*
X7242D01*
X31800Y17380D02*
X31988Y17568D01*
Y18012D01*
X10335Y2953D02*
X10341Y2959D01*
Y4415D01*
X10530Y4604D01*
Y4936D01*
X10341Y5125D02*
X10530Y4936D01*
X9370Y3248D02*
Y4035D01*
X9535D01*
X15080Y19396D02*
X15430Y19046D01*
X15005Y18289D02*
X15430Y18714D01*
Y19046D01*
X14930Y18880D02*
X15030D01*
X16118Y21300D02*
X16900D01*
X16930Y21330D01*
X13490Y15616D02*
X13665Y15790D01*
Y16185D01*
X13767D01*
X13855Y16273D01*
Y17027D01*
X13767Y17115D02*
X13855Y17027D01*
X13665Y17115D02*
X13767D01*
X13665D02*
Y20185D01*
X12008Y20537D02*
Y23368D01*
X12150Y23510D01*
X14145Y22273D02*
Y23027D01*
X14270Y23152D01*
X13620Y21260D02*
Y22038D01*
X13855Y22273D01*
Y23115D01*
X13681Y23289D02*
X13855Y23115D01*
X29851Y15199D02*
X30145Y15494D01*
Y17027D01*
X29724Y4823D02*
Y5524D01*
X29900Y5700D01*
D14*
X1360Y5610D02*
D03*
X31010Y820D02*
D03*
X30217D02*
D03*
X34210D02*
D03*
X32030Y2280D02*
D03*
X27840Y2350D02*
D03*
X24920Y740D02*
D03*
X26810D02*
D03*
X2960Y27510D02*
D03*
X8350Y30590D02*
D03*
X24060Y33210D02*
D03*
X14390Y33160D02*
D03*
X14370Y32350D02*
D03*
X6040Y35700D02*
D03*
X10820Y35710D02*
D03*
X25880D02*
D03*
X23300Y35880D02*
D03*
X31420Y34400D02*
D03*
X27000D02*
D03*
X22760Y35410D02*
D03*
X22160Y33540D02*
D03*
X12540Y35400D02*
D03*
X8450Y35450D02*
D03*
X3839Y35610D02*
D03*
X20860Y18920D02*
D03*
X20660Y28230D02*
D03*
X20360Y28890D02*
D03*
X4240Y31260D02*
D03*
X4210Y30520D02*
D03*
X32880Y17810D02*
D03*
X21370Y9580D02*
D03*
X22500Y8750D02*
D03*
X21350Y10380D02*
D03*
Y8880D02*
D03*
X28400Y4940D02*
D03*
X34240Y5210D02*
D03*
X25930Y15090D02*
D03*
X29940Y15110D02*
D03*
X31710Y17410D02*
D03*
X28440Y27220D02*
D03*
X28420Y31370D02*
D03*
X32040Y30540D02*
D03*
X5170Y23870D02*
D03*
X8700Y5250D02*
D03*
X9100Y5800D02*
D03*
X9090Y6480D02*
D03*
X3230Y18210D02*
D03*
Y17450D02*
D03*
X3220Y18940D02*
D03*
X11830Y14960D02*
D03*
X8790Y11680D02*
D03*
X8810Y12510D02*
D03*
X17740Y15230D02*
D03*
X26650Y8810D02*
D03*
X19800Y18870D02*
D03*
X18990D02*
D03*
X27210Y13450D02*
D03*
X31990Y11780D02*
D03*
X28430Y8350D02*
D03*
X31980D02*
D03*
X13740Y6120D02*
D03*
X30820Y18930D02*
D03*
X3102Y13040D02*
D03*
X2400Y13760D02*
D03*
X2340Y9890D02*
D03*
X4590Y7910D02*
D03*
X3790Y7880D02*
D03*
X9720Y8020D02*
D03*
X24920Y5330D02*
D03*
X4460Y13760D02*
D03*
X21020Y15080D02*
D03*
X21900Y21150D02*
D03*
X29330Y19570D02*
D03*
X17260Y10370D02*
D03*
X19510Y27520D02*
D03*
X10130Y4770D02*
D03*
X4150Y21070D02*
D03*
X550Y11810D02*
D03*
X1080Y13350D02*
D03*
X17790Y33570D02*
D03*
X33550Y17500D02*
D03*
X33060Y19000D02*
D03*
X33560Y18330D02*
D03*
X22900Y910D02*
D03*
X20460Y4800D02*
D03*
X20220Y4000D02*
D03*
X19230Y4170D02*
D03*
X18250Y2950D02*
D03*
X13720Y2350D02*
D03*
X15380Y27780D02*
D03*
X28210Y12470D02*
D03*
X27390Y11970D02*
D03*
X15945Y18900D02*
D03*
X16750D02*
D03*
X23000Y24600D02*
D03*
X32600Y25850D02*
D03*
X25145Y13600D02*
D03*
X27220Y15100D02*
D03*
X35500Y13750D02*
D03*
X35700Y32500D02*
D03*
X7650Y800D02*
D03*
X8465Y2559D02*
D03*
X7776Y2165D02*
D03*
X6102Y787D02*
D03*
X33600Y32500D02*
D03*
X17750Y29350D02*
D03*
X13000Y30550D02*
D03*
X17520Y31398D02*
D03*
X25750Y28100D02*
D03*
X24150Y27400D02*
D03*
X23250Y29200D02*
D03*
X23850Y18400D02*
D03*
X30800Y35650D02*
D03*
X21850Y24350D02*
D03*
Y25050D02*
D03*
X26350Y19400D02*
D03*
X24950Y27750D02*
D03*
X14250Y28150D02*
D03*
X29150Y4200D02*
D03*
X35400Y4100D02*
D03*
X35150Y5640D02*
D03*
X29900Y5700D02*
D03*
X31970Y4140D02*
D03*
X21200Y5550D02*
D03*
X6850Y5000D02*
D03*
X10925Y5118D02*
D03*
X19300Y13300D02*
D03*
X27450Y24150D02*
D03*
X24750Y9200D02*
D03*
X32750Y11650D02*
D03*
X32100Y15150D02*
D03*
X32700Y12450D02*
D03*
X34400Y13850D02*
D03*
X33950Y9100D02*
D03*
X24750Y10016D02*
D03*
X22720Y9750D02*
D03*
X25900Y9500D02*
D03*
X26643D02*
D03*
X23390Y10360D02*
D03*
X28500Y9500D02*
D03*
X30800Y9550D02*
D03*
X26145Y13555D02*
D03*
X15500Y24400D02*
D03*
X800Y34150D02*
D03*
Y32400D02*
D03*
X8000Y33900D02*
D03*
X8500Y32100D02*
D03*
X17750Y32450D02*
D03*
X9250Y32350D02*
D03*
Y35750D02*
D03*
X14270Y23860D02*
D03*
X19610Y32370D02*
D03*
X18000Y11540D02*
D03*
X18150Y15870D02*
D03*
X17380Y17510D02*
D03*
X15730Y10250D02*
D03*
X9800Y18900D02*
D03*
X13200D02*
D03*
X9100D02*
D03*
X14272D02*
D03*
X17900Y18000D02*
D03*
X8400Y18900D02*
D03*
X12638Y17462D02*
D03*
X10925Y19700D02*
D03*
X8400Y13700D02*
D03*
X5890Y14780D02*
D03*
X6890Y15059D02*
D03*
X7560Y14590D02*
D03*
X8000Y12000D02*
D03*
X9600Y13500D02*
D03*
X7410Y23180D02*
D03*
X13620Y21260D02*
D03*
X27264Y10433D02*
D03*
X1530Y32440D02*
D03*
X31060Y21270D02*
D03*
X31930Y21600D02*
D03*
X33465Y21949D02*
D03*
X29540Y24530D02*
D03*
X32750Y30940D02*
D03*
X22150Y12590D02*
D03*
X31900Y24380D02*
D03*
X22080Y15320D02*
D03*
X30790Y23590D02*
D03*
X12620Y14980D02*
D03*
X12150Y23510D02*
D03*
X7776Y22146D02*
D03*
X17323Y7480D02*
D03*
X12398Y8760D02*
D03*
X16142Y5650D02*
D03*
X16929Y5709D02*
D03*
X7972Y7874D02*
D03*
X24114Y3150D02*
D03*
X22047D02*
D03*
X2362Y787D02*
D03*
X3740Y2953D02*
D03*
X1083Y8858D02*
D03*
X4528Y18504D02*
D03*
X10925Y22865D02*
D03*
X1000Y22835D02*
D03*
X35433Y28051D02*
D03*
X7776Y26378D02*
D03*
X8366Y26946D02*
D03*
X1280Y28150D02*
D03*
X32579Y29409D02*
D03*
X12697Y31496D02*
D03*
X25886Y29134D02*
D03*
X17815Y24606D02*
D03*
X12303Y24705D02*
D03*
X4528Y19390D02*
D03*
X13780Y35610D02*
D03*
X8860Y22850D02*
D03*
X22760Y2340D02*
D03*
X12620Y7740D02*
D03*
X27854Y34252D02*
D03*
X32677Y34154D02*
D03*
X8366Y7283D02*
D03*
X10925Y24114D02*
D03*
X13287Y886D02*
D03*
X10925Y10335D02*
D03*
X14803Y3071D02*
D03*
X2953Y8843D02*
D03*
X13176Y10039D02*
D03*
X22200Y11600D02*
D03*
X32972Y2953D02*
D03*
X24508Y4626D02*
D03*
X7776Y16929D02*
D03*
X5315Y4724D02*
D03*
X11871Y10039D02*
D03*
X2362Y5413D02*
D03*
X4429Y10335D02*
D03*
X6102D02*
D03*
X34350Y35827D02*
D03*
X600Y2264D02*
D03*
Y1476D02*
D03*
X12795Y2215D02*
D03*
Y3071D02*
D03*
X4040Y11780D02*
D03*
X12300Y11730D02*
D03*
X17224Y8858D02*
D03*
X15590Y9170D02*
D03*
X16354Y9154D02*
D03*
X16590Y4090D02*
D03*
X12350Y886D02*
D03*
X8920Y24730D02*
D03*
X34740Y22940D02*
D03*
X35490Y22930D02*
D03*
X21630Y4660D02*
D03*
X600Y4010D02*
D03*
X3248Y14468D02*
D03*
X1000Y24520D02*
D03*
X25440Y32290D02*
D03*
X12800Y26620D02*
D03*
X13890Y15450D02*
D03*
X9150Y10040D02*
D03*
X4331Y26181D02*
D03*
X2330Y24460D02*
D03*
X4570Y17440D02*
D03*
X3510Y23050D02*
D03*
X17440Y12700D02*
D03*
X35150Y8990D02*
D03*
X2060Y22990D02*
D03*
X10780Y14870D02*
D03*
X12795Y12598D02*
D03*
X13878Y10433D02*
D03*
X27264Y29134D02*
D03*
X30118D02*
D03*
X30807D02*
D03*
X3740Y27264D02*
D03*
X2362Y28346D02*
D03*
X5315D02*
D03*
X6004Y28346D02*
D03*
X10925Y28346D02*
D03*
X1760Y13360D02*
D03*
X10925Y886D02*
D03*
X3890Y15440D02*
D03*
X4060Y20010D02*
D03*
X8340Y31430D02*
D03*
X7950Y33220D02*
D03*
X4240Y34130D02*
D03*
X12650Y33460D02*
D03*
X13170Y34080D02*
D03*
X22140Y23440D02*
D03*
X32470Y21150D02*
D03*
X32720Y15540D02*
D03*
X34950Y13350D02*
D03*
X33580Y14440D02*
D03*
X32580Y6380D02*
D03*
X7800Y24450D02*
D03*
X5906Y24114D02*
D03*
X6910Y24460D02*
D03*
X17050Y32320D02*
D03*
X21820Y30920D02*
D03*
X22790Y30550D02*
D03*
X24915Y18270D02*
D03*
X26550Y11940D02*
D03*
X30170Y10040D02*
D03*
X35770Y11830D02*
D03*
X7730Y3720D02*
D03*
X23580Y28460D02*
D03*
X22540Y27400D02*
D03*
X23000Y21850D02*
D03*
X26450Y23450D02*
D03*
X26590Y21360D02*
D03*
X27920Y21420D02*
D03*
X26970Y18770D02*
D03*
X28745Y17470D02*
D03*
X27670Y18780D02*
D03*
X25190Y19530D02*
D03*
X33600Y28150D02*
D03*
X24550Y23450D02*
D03*
X22850D02*
D03*
X23700D02*
D03*
X24720Y24490D02*
D03*
X5906Y18799D02*
D03*
X16930Y21330D02*
D03*
X30740Y15180D02*
D03*
X5910Y5630D02*
D03*
X11820Y5690D02*
D03*
X20350Y5640D02*
D03*
X35750Y34090D02*
D03*
X764Y30764D02*
D03*
X31990Y27220D02*
D03*
X23340Y19040D02*
D03*
X31950Y18900D02*
D03*
X7020Y18680D02*
D03*
X6990Y19510D02*
D03*
X15030Y18880D02*
D03*
D19*
X14805Y12402D02*
D03*
X15395D02*
D03*
X13681D02*
D03*
X14272D02*
D03*
X11417D02*
D03*
X12008D02*
D03*
X10335D02*
D03*
X10925D02*
D03*
X6398D02*
D03*
X6988D02*
D03*
X5315D02*
D03*
X5906D02*
D03*
X1870Y12402D02*
D03*
X1280D02*
D03*
X2953D02*
D03*
X2362D02*
D03*
X21850Y5433D02*
D03*
X22441D02*
D03*
X12585Y5425D02*
D03*
X13176D02*
D03*
X34494Y7727D02*
D03*
X35085D02*
D03*
X33313D02*
D03*
X33904D02*
D03*
X31398Y7677D02*
D03*
X31988D02*
D03*
X30217D02*
D03*
X30807D02*
D03*
X27854D02*
D03*
X28445D02*
D03*
X26673D02*
D03*
X27264D02*
D03*
X23031Y7677D02*
D03*
X23622D02*
D03*
X24213D02*
D03*
X24803D02*
D03*
X23031Y4035D02*
D03*
X23622D02*
D03*
X24213D02*
D03*
X24803D02*
D03*
X13681Y4035D02*
D03*
X14272D02*
D03*
X14764Y4035D02*
D03*
X15354D02*
D03*
X1870Y33465D02*
D03*
X1280D02*
D03*
X6398Y33465D02*
D03*
X6988D02*
D03*
X11417D02*
D03*
X12008D02*
D03*
X13114Y32629D02*
D03*
X13704D02*
D03*
X24213Y32579D02*
D03*
X24803D02*
D03*
X27854Y33465D02*
D03*
X28445D02*
D03*
X31398Y33465D02*
D03*
X31988D02*
D03*
X34744D02*
D03*
X35335D02*
D03*
X1870Y31299D02*
D03*
X1280D02*
D03*
X6398Y31299D02*
D03*
X6988D02*
D03*
X11417D02*
D03*
X12008D02*
D03*
X14764Y31299D02*
D03*
X15354D02*
D03*
X24213Y31299D02*
D03*
X24803D02*
D03*
X27854Y32087D02*
D03*
X28445D02*
D03*
X31398Y31299D02*
D03*
X31988D02*
D03*
X34744D02*
D03*
X35335D02*
D03*
X1870Y26575D02*
D03*
X1280D02*
D03*
X6398Y26575D02*
D03*
X6988D02*
D03*
X11417D02*
D03*
X12008D02*
D03*
X14764Y26575D02*
D03*
X15354D02*
D03*
X27854Y26575D02*
D03*
X28445D02*
D03*
X31398D02*
D03*
X31988D02*
D03*
X34744D02*
D03*
X35335D02*
D03*
X1870Y23819D02*
D03*
X1280D02*
D03*
X6405Y20450D02*
D03*
X6995D02*
D03*
X15055Y23700D02*
D03*
X15645D02*
D03*
X24150Y19650D02*
D03*
X23560D02*
D03*
X27855Y23580D02*
D03*
X28445D02*
D03*
X31398Y19587D02*
D03*
X31988D02*
D03*
X34744Y23819D02*
D03*
X35335D02*
D03*
X11417Y17462D02*
D03*
X12008D02*
D03*
X15005Y17500D02*
D03*
X15595D02*
D03*
X24213Y17312D02*
D03*
X24803D02*
D03*
X28250Y18132D02*
D03*
X28840D02*
D03*
X31398Y18012D02*
D03*
X31988D02*
D03*
X34744Y12402D02*
D03*
X35335D02*
D03*
X1870Y10532D02*
D03*
X1280D02*
D03*
X24255Y12550D02*
D03*
X24845D02*
D03*
X27854Y13091D02*
D03*
X28445D02*
D03*
X31405Y12450D02*
D03*
X31995D02*
D03*
X34705Y10550D02*
D03*
X35295D02*
D03*
X1870Y7677D02*
D03*
X1280D02*
D03*
X6398Y7677D02*
D03*
X6988D02*
D03*
X11417Y7677D02*
D03*
X12008D02*
D03*
X14764Y7677D02*
D03*
X15354D02*
D03*
X11417Y2953D02*
D03*
X12008D02*
D03*
X31398D02*
D03*
X31988D02*
D03*
X34744D02*
D03*
X35335D02*
D03*
X2953Y33465D02*
D03*
X2362D02*
D03*
X5315Y33465D02*
D03*
X5906D02*
D03*
X10335D02*
D03*
X10925D02*
D03*
X12031Y32629D02*
D03*
X12622D02*
D03*
X22931Y32579D02*
D03*
X23522D02*
D03*
X26673Y33465D02*
D03*
X27264D02*
D03*
X30217D02*
D03*
X30807D02*
D03*
X33563D02*
D03*
X34154D02*
D03*
X2953Y31299D02*
D03*
X2362D02*
D03*
X5315Y31299D02*
D03*
X5906D02*
D03*
X10335D02*
D03*
X10925D02*
D03*
X13681D02*
D03*
X14272D02*
D03*
X22931Y31299D02*
D03*
X23522D02*
D03*
X26673Y32087D02*
D03*
X27264D02*
D03*
X30217Y31299D02*
D03*
X30807D02*
D03*
X33563D02*
D03*
X34154D02*
D03*
X2953Y26575D02*
D03*
X2362D02*
D03*
X5315Y26575D02*
D03*
X5906D02*
D03*
X10335D02*
D03*
X10925D02*
D03*
X13681D02*
D03*
X14272D02*
D03*
X26673D02*
D03*
X27264D02*
D03*
X30217D02*
D03*
X30807D02*
D03*
X33563D02*
D03*
X34154D02*
D03*
X2953Y23819D02*
D03*
X2362D02*
D03*
X5305Y20480D02*
D03*
X5895D02*
D03*
X10335Y20537D02*
D03*
X10925D02*
D03*
X13655Y19700D02*
D03*
X14245D02*
D03*
X20345Y19700D02*
D03*
X19755D02*
D03*
X27105Y19450D02*
D03*
X27695D02*
D03*
X30217Y19587D02*
D03*
X30807D02*
D03*
X33563Y23819D02*
D03*
X34154D02*
D03*
X5315Y18012D02*
D03*
X5906D02*
D03*
X10335Y17462D02*
D03*
X10925D02*
D03*
X13655Y17300D02*
D03*
X14245D02*
D03*
X23031Y17312D02*
D03*
X23622D02*
D03*
X27205Y18120D02*
D03*
X27795D02*
D03*
X30217Y18012D02*
D03*
X30807D02*
D03*
X33305Y12400D02*
D03*
X33895D02*
D03*
X2953Y10532D02*
D03*
X2362D02*
D03*
X23055Y12550D02*
D03*
X23645D02*
D03*
X27215Y11090D02*
D03*
X26625D02*
D03*
X30217Y12402D02*
D03*
X30807D02*
D03*
X33326Y10513D02*
D03*
X33917D02*
D03*
X2953Y7677D02*
D03*
X2362D02*
D03*
X5315Y7677D02*
D03*
X5906D02*
D03*
X10335D02*
D03*
X10925D02*
D03*
X13681D02*
D03*
X14272D02*
D03*
X5315Y2953D02*
D03*
X5906D02*
D03*
X10335D02*
D03*
X10925D02*
D03*
X30215D02*
D03*
X30805D02*
D03*
X33563D02*
D03*
X34154D02*
D03*
X4232Y9429D02*
D03*
X4823D02*
D03*
X9291Y9390D02*
D03*
X9882D02*
D03*
X3602Y8642D02*
D03*
X4193D02*
D03*
X8701Y8681D02*
D03*
X9291D02*
D03*
X4921Y13091D02*
D03*
X4331D02*
D03*
X6398Y2953D02*
D03*
X6988D02*
D03*
X6398Y18012D02*
D03*
X6988D02*
D03*
X11417Y20537D02*
D03*
X12008D02*
D03*
X24213Y26575D02*
D03*
X24803D02*
D03*
X1870Y2953D02*
D03*
X1280D02*
D03*
X23031Y26575D02*
D03*
X23622D02*
D03*
X2953Y2953D02*
D03*
X2362D02*
D03*
X4016Y4154D02*
D03*
X3425D02*
D03*
X4606Y4862D02*
D03*
X4016D02*
D03*
X3945Y32150D02*
D03*
X3355D02*
D03*
X3976Y28346D02*
D03*
X3386D02*
D03*
X4035Y23858D02*
D03*
X3445D02*
D03*
X4429Y23130D02*
D03*
X5020D02*
D03*
X5020Y14469D02*
D03*
X4429D02*
D03*
X8858Y4626D02*
D03*
X9449D02*
D03*
X3346Y32677D02*
D03*
X3937D02*
D03*
X3386Y28839D02*
D03*
X3976D02*
D03*
X3445Y24409D02*
D03*
X4035D02*
D03*
X5020Y22638D02*
D03*
X4429D02*
D03*
X4429Y14961D02*
D03*
X5020D02*
D03*
X9449Y4035D02*
D03*
X8858D02*
D03*
X29134Y4823D02*
D03*
X29724D02*
D03*
X32480Y4823D02*
D03*
X33071D02*
D03*
X27854Y2953D02*
D03*
X28445D02*
D03*
X26673D02*
D03*
X27264D02*
D03*
X18012Y3642D02*
D03*
X18602D02*
D03*
X1870Y1969D02*
D03*
X1280D02*
D03*
X1870Y1476D02*
D03*
X1280D02*
D03*
X18012Y4626D02*
D03*
X18602D02*
D03*
X7480Y5610D02*
D03*
X8071D02*
D03*
X8071Y5020D02*
D03*
X7480D02*
D03*
X25591Y5020D02*
D03*
X26181D02*
D03*
D20*
X9114Y2461D02*
D03*
X9370Y3248D02*
D03*
X8858D02*
D03*
X3642Y34252D02*
D03*
X3386Y33465D02*
D03*
X3898D02*
D03*
X3642Y30413D02*
D03*
X3386Y29626D02*
D03*
X3898D02*
D03*
X3740Y25866D02*
D03*
X3484Y25079D02*
D03*
X3996D02*
D03*
X4764Y16437D02*
D03*
X4508Y15650D02*
D03*
X5020D02*
D03*
X7776Y7087D02*
D03*
X7520Y6299D02*
D03*
X8031D02*
D03*
X4626Y11614D02*
D03*
X4882Y12402D02*
D03*
X4370D02*
D03*
X4724Y21161D02*
D03*
X4980Y21949D02*
D03*
X4469D02*
D03*
D21*
X1870Y4528D02*
D03*
X2894Y4154D02*
D03*
Y4902D02*
D03*
X31319Y4429D02*
D03*
X30295Y4803D02*
D03*
Y4055D02*
D03*
X34665Y4429D02*
D03*
X33642Y4803D02*
D03*
Y4055D02*
D03*
X27776Y4626D02*
D03*
X26752Y5000D02*
D03*
Y4252D02*
D03*
X24035Y5118D02*
D03*
X23012Y5492D02*
D03*
Y4744D02*
D03*
X14685Y5118D02*
D03*
X13661Y5492D02*
D03*
Y4744D02*
D03*
X6398Y9055D02*
D03*
X5374Y9429D02*
D03*
Y8681D02*
D03*
X11388Y9049D02*
D03*
X10364Y9423D02*
D03*
Y8675D02*
D03*
D22*
X12585Y6468D02*
D03*
Y5878D02*
D03*
X25600Y6065D02*
D03*
Y5475D02*
D03*
X3740Y13091D02*
D03*
Y12500D02*
D03*
X29134Y5807D02*
D03*
Y5217D02*
D03*
X32480Y5807D02*
D03*
Y5217D02*
D03*
X21850Y6496D02*
D03*
Y5906D02*
D03*
D23*
X14642Y1339D02*
D03*
X15642D02*
D03*
X16642D02*
D03*
X17642D02*
D03*
X18972D02*
D03*
X19972D02*
D03*
X20972D02*
D03*
X21972D02*
D03*
X14642Y35276D02*
D03*
X15642D02*
D03*
X16642D02*
D03*
X17642D02*
D03*
X18972D02*
D03*
X19972D02*
D03*
X20972D02*
D03*
X21972D02*
D03*
D24*
X35276Y21972D02*
D03*
Y20972D02*
D03*
Y19972D02*
D03*
Y18972D02*
D03*
Y17642D02*
D03*
Y16642D02*
D03*
Y15642D02*
D03*
Y14642D02*
D03*
X1339Y21972D02*
D03*
Y20972D02*
D03*
Y19972D02*
D03*
Y18972D02*
D03*
Y17642D02*
D03*
Y16642D02*
D03*
Y15642D02*
D03*
Y14642D02*
D03*
D25*
X21640Y28434D02*
D03*
X19668D02*
D03*
X20652Y27166D02*
D03*
D26*
X14087Y3100D02*
D03*
X13693D02*
D03*
X1697Y13950D02*
D03*
X1303D02*
D03*
X33753Y22690D02*
D03*
X34147D02*
D03*
D27*
X20669Y24606D02*
D03*
Y24106D02*
D03*
Y23606D02*
D03*
Y25106D02*
D03*
Y25606D02*
D03*
D28*
X9463Y17649D02*
D03*
X9203D02*
D03*
X8943D02*
D03*
X8693D02*
D03*
X8433D02*
D03*
X8183D02*
D03*
X7923D02*
D03*
X7663D02*
D03*
Y19949D02*
D03*
X7923D02*
D03*
X8183D02*
D03*
X8433D02*
D03*
X8693D02*
D03*
X8943D02*
D03*
X9203D02*
D03*
X9463D02*
D03*
D29*
X20343Y10054D02*
D03*
Y9794D02*
D03*
Y9534D02*
D03*
Y9284D02*
D03*
Y9024D02*
D03*
Y8774D02*
D03*
Y8514D02*
D03*
Y8254D02*
D03*
X18043D02*
D03*
Y8514D02*
D03*
Y8774D02*
D03*
Y9024D02*
D03*
Y9284D02*
D03*
Y9534D02*
D03*
Y9794D02*
D03*
Y10054D02*
D03*
D30*
X13790Y34083D02*
D03*
Y34477D02*
D03*
D31*
X32500Y22650D02*
D03*
X31500D02*
D03*
X30500D02*
D03*
X29500D02*
D03*
X28500D02*
D03*
X27500D02*
D03*
X26500D02*
D03*
X25500D02*
D03*
X24500D02*
D03*
X23500D02*
D03*
X22500D02*
D03*
X21500D02*
D03*
X20500D02*
D03*
X19500D02*
D03*
X18500D02*
D03*
X17500D02*
D03*
X16500D02*
D03*
X15500D02*
D03*
X14500D02*
D03*
X13500D02*
D03*
X32500Y20350D02*
D03*
X31500D02*
D03*
X30500D02*
D03*
X29500D02*
D03*
X28500D02*
D03*
X27500D02*
D03*
X26500D02*
D03*
X25500D02*
D03*
X24500D02*
D03*
X23500D02*
D03*
X22500D02*
D03*
X21500D02*
D03*
X20500D02*
D03*
X19500D02*
D03*
X18500D02*
D03*
X17500D02*
D03*
X16500D02*
D03*
X15500D02*
D03*
X14500D02*
D03*
X13500D02*
D03*
X32500Y16650D02*
D03*
X31500D02*
D03*
X30500D02*
D03*
X29500D02*
D03*
X28500D02*
D03*
X27500D02*
D03*
X26500D02*
D03*
X25500D02*
D03*
X24500D02*
D03*
X23500D02*
D03*
X22500D02*
D03*
X21500D02*
D03*
X20500D02*
D03*
X19500D02*
D03*
X18500D02*
D03*
X17500D02*
D03*
X16500D02*
D03*
X15500D02*
D03*
X14500D02*
D03*
X13500D02*
D03*
X32500Y14350D02*
D03*
X31500D02*
D03*
X30500D02*
D03*
X29500D02*
D03*
X28500D02*
D03*
X27500D02*
D03*
X26500D02*
D03*
X25500D02*
D03*
X24500D02*
D03*
X23500D02*
D03*
X22500D02*
D03*
X21500D02*
D03*
X20500D02*
D03*
X19500D02*
D03*
X18500D02*
D03*
X17500D02*
D03*
X16500D02*
D03*
X15500D02*
D03*
X14500D02*
D03*
X13500D02*
D03*
M02*
