G04 Layer_Physical_Order=2*
G04 Layer_Color=32768*
%FSLAX24Y24*%
%MOIN*%
G70*
G01*
G75*
%ADD15C,0.0050*%
%ADD16C,0.0400*%
%ADD17C,0.0680*%
G04:AMPARAMS|DCode=18|XSize=88mil|YSize=88mil|CornerRadius=0mil|HoleSize=0mil|Usage=FLASHONLY|Rotation=0.000|XOffset=0mil|YOffset=0mil|HoleType=Round|Shape=Relief|Width=10mil|Gap=10mil|Entries=4|*
%AMTHD18*
7,0,0,0.0880,0.0680,0.0100,45*
%
%ADD18THD18*%
D15*
X34990Y14340D02*
X35720D01*
X33380Y13830D02*
X33810D01*
X34320Y14340D01*
X2490Y13100D02*
X3030Y13640D01*
X35433Y2461D02*
X36000Y3028D01*
X3030Y13640D02*
Y14120D01*
X984Y16166D02*
X2146Y15004D01*
X984Y16166D02*
Y20884D01*
X2760Y22660D01*
X984Y24126D02*
X1490Y23620D01*
X984Y24126D02*
Y34449D01*
X1969Y35433D01*
X13287D01*
X13780Y34941D01*
Y32972D02*
Y34941D01*
Y32972D02*
X14162Y32590D01*
X14711D01*
X16571Y34450D01*
X18650D01*
X23130Y34941D02*
X23622Y35433D01*
X34449D01*
X35433Y34449D01*
Y23622D02*
Y34449D01*
X34971Y23160D02*
X35433Y23622D01*
X33810Y23160D02*
X34971D01*
X32740Y22090D02*
X33810Y23160D01*
X32740Y21490D02*
Y22090D01*
Y21490D02*
X34053Y20177D01*
X34941D01*
X35433Y19685D01*
Y17173D02*
Y19685D01*
X34500Y16240D02*
X35433Y17173D01*
X32999Y14739D02*
X34500Y16240D01*
X32999Y14211D02*
Y14739D01*
Y14211D02*
X33380Y13830D01*
X34320Y14340D02*
X34990D01*
X35720D02*
X36000Y14060D01*
Y3028D02*
Y14060D01*
X34182Y1210D02*
X35433Y2461D01*
X25365Y1210D02*
X34182D01*
X23130Y3445D02*
X25365Y1210D01*
X22638Y3937D02*
X23130Y3445D01*
X20571Y3937D02*
X22638D01*
X20177Y3543D02*
X20571Y3937D01*
X20177Y1476D02*
Y3543D01*
X19685Y984D02*
X20177Y1476D01*
X16732Y984D02*
X19685D01*
X16240Y1476D02*
X16732Y984D01*
X16240Y1476D02*
Y3445D01*
X15748Y3937D02*
X16240Y3445D01*
X13780Y3937D02*
X15748D01*
X13287Y3445D02*
X13780Y3937D01*
X13287Y1476D02*
Y3445D01*
X12795Y984D02*
X13287Y1476D01*
X3366Y984D02*
X12795D01*
X2382Y1969D02*
X3366Y984D01*
X18650Y34450D02*
X18850Y34250D01*
Y27400D02*
Y34225D01*
X19280Y26970D02*
X19860D01*
X18850Y27400D02*
X19280Y26970D01*
X19860D02*
X21900Y29010D01*
Y31800D01*
X23130Y33030D01*
Y34941D01*
X1100Y11710D02*
X2490Y13100D01*
X1490Y23620D02*
X2330D01*
X2760Y23190D01*
Y22660D02*
Y23190D01*
X2146Y15004D02*
X3030Y14120D01*
X1100Y4780D02*
X2382Y3498D01*
X1100Y4780D02*
Y11710D01*
X2382Y1969D02*
Y3498D01*
D16*
X0Y0D02*
X36614D01*
Y36614D01*
X0D02*
X36614D01*
X0Y0D02*
Y36614D01*
D17*
X27840Y2270D02*
D03*
X18030Y24720D02*
D03*
X15030Y18880D02*
D03*
X6990Y19510D02*
D03*
X7020Y18680D02*
D03*
X31950Y18900D02*
D03*
X23340Y19040D02*
D03*
X31990Y27220D02*
D03*
X764Y30764D02*
D03*
X35750Y34090D02*
D03*
X20350Y5640D02*
D03*
X11820Y5690D02*
D03*
X5910Y5630D02*
D03*
X30740Y15180D02*
D03*
X16930Y21330D02*
D03*
X5906Y18799D02*
D03*
X24720Y24490D02*
D03*
X23700Y23450D02*
D03*
X22850D02*
D03*
X24550D02*
D03*
X33600Y28150D02*
D03*
X27670Y18780D02*
D03*
X28745Y17470D02*
D03*
X26970Y18770D02*
D03*
X27920Y21420D02*
D03*
X26590Y21360D02*
D03*
X26450Y23450D02*
D03*
X23000Y21850D02*
D03*
X22540Y27400D02*
D03*
X23580Y28460D02*
D03*
X7730Y3720D02*
D03*
X35770Y11830D02*
D03*
X30170Y10040D02*
D03*
X24915Y18270D02*
D03*
X22790Y30550D02*
D03*
X21820Y30920D02*
D03*
X17050Y32320D02*
D03*
X6910Y24460D02*
D03*
X5906Y24114D02*
D03*
X32580Y6380D02*
D03*
X34950Y13350D02*
D03*
X32470Y21150D02*
D03*
X22140Y23440D02*
D03*
X12650Y33460D02*
D03*
X4240Y34130D02*
D03*
X7950Y33220D02*
D03*
X8340Y31430D02*
D03*
X4060Y20010D02*
D03*
X3890Y15440D02*
D03*
X10925Y886D02*
D03*
X1760Y13360D02*
D03*
X10925Y28346D02*
D03*
X6004Y28346D02*
D03*
X5315Y28346D02*
D03*
X2362D02*
D03*
X3740Y27264D02*
D03*
X30807Y29134D02*
D03*
X30118D02*
D03*
X27264D02*
D03*
X13878Y10433D02*
D03*
X12795Y12598D02*
D03*
X10780Y14870D02*
D03*
X35150Y8990D02*
D03*
X17440Y12700D02*
D03*
X3510Y23050D02*
D03*
X4570Y17440D02*
D03*
X2330Y24460D02*
D03*
X4331Y26181D02*
D03*
X9150Y10040D02*
D03*
X13890Y15450D02*
D03*
X12800Y26620D02*
D03*
X25440Y32290D02*
D03*
X1000Y24520D02*
D03*
X3248Y14468D02*
D03*
X600Y4010D02*
D03*
X35490Y22930D02*
D03*
X34740Y22940D02*
D03*
X8920Y24730D02*
D03*
X12350Y886D02*
D03*
X16590Y4090D02*
D03*
X16354Y9154D02*
D03*
X15590Y9170D02*
D03*
X17224Y8858D02*
D03*
X12300Y11730D02*
D03*
X4040Y11780D02*
D03*
X12795Y3071D02*
D03*
X600Y1476D02*
D03*
Y2264D02*
D03*
X34350Y35827D02*
D03*
X6102Y10335D02*
D03*
X2362Y5413D02*
D03*
X5315Y4724D02*
D03*
X7776Y16929D02*
D03*
X24508Y4626D02*
D03*
X32972Y2953D02*
D03*
X22200Y11600D02*
D03*
X13176Y10039D02*
D03*
X2953Y8843D02*
D03*
X10925Y10335D02*
D03*
X13287Y886D02*
D03*
X10925Y24114D02*
D03*
X8366Y7283D02*
D03*
X32677Y34154D02*
D03*
X27854Y34252D02*
D03*
X12620Y7740D02*
D03*
X22760Y2340D02*
D03*
X8860Y22850D02*
D03*
X13780Y35610D02*
D03*
X4528Y19390D02*
D03*
X25886Y29134D02*
D03*
X12697Y31496D02*
D03*
X32579Y29409D02*
D03*
X1280Y28150D02*
D03*
X8366Y26946D02*
D03*
X7776Y26378D02*
D03*
X35433Y28051D02*
D03*
X1000Y22835D02*
D03*
X10925Y22865D02*
D03*
X4528Y18504D02*
D03*
X1083Y8858D02*
D03*
X3740Y2953D02*
D03*
X2362Y787D02*
D03*
X24114Y3150D02*
D03*
X7972Y7874D02*
D03*
X16142Y5650D02*
D03*
X12398Y8760D02*
D03*
X17323Y7480D02*
D03*
X7776Y22146D02*
D03*
X12150Y23510D02*
D03*
X30790Y23590D02*
D03*
X22080Y15320D02*
D03*
X31900Y24380D02*
D03*
X22150Y12590D02*
D03*
X32750Y30940D02*
D03*
X29540Y24530D02*
D03*
X31060Y21270D02*
D03*
X27264Y10433D02*
D03*
X13620Y21260D02*
D03*
X7410Y23180D02*
D03*
X9600Y13500D02*
D03*
X7560Y14590D02*
D03*
X6890Y15059D02*
D03*
X5890Y14780D02*
D03*
X8400Y13700D02*
D03*
X10925Y19700D02*
D03*
X12638Y17462D02*
D03*
X8400Y18900D02*
D03*
X17900Y18000D02*
D03*
X14272Y18900D02*
D03*
X9100D02*
D03*
X13200D02*
D03*
X9800D02*
D03*
X15730Y10250D02*
D03*
X17380Y17510D02*
D03*
X18000Y11540D02*
D03*
X19610Y32370D02*
D03*
X14270Y23860D02*
D03*
X9250Y35750D02*
D03*
Y32350D02*
D03*
X17750Y32450D02*
D03*
X8500Y32100D02*
D03*
X8000Y33900D02*
D03*
X800Y32400D02*
D03*
Y34150D02*
D03*
X26145Y13555D02*
D03*
X30800Y9550D02*
D03*
X28500Y9500D02*
D03*
X23390Y10360D02*
D03*
X26643Y9500D02*
D03*
X25900D02*
D03*
X22720Y9750D02*
D03*
X24750Y10016D02*
D03*
X33950Y9100D02*
D03*
X34400Y13850D02*
D03*
X32700Y12450D02*
D03*
X32100Y15150D02*
D03*
X24750Y9200D02*
D03*
X27450Y24150D02*
D03*
X19300Y13300D02*
D03*
X10925Y5118D02*
D03*
X21200Y5550D02*
D03*
X31970Y4140D02*
D03*
X29900Y5700D02*
D03*
X35400Y4100D02*
D03*
X29150Y4200D02*
D03*
X14250Y28150D02*
D03*
X24950Y27750D02*
D03*
X26350Y19400D02*
D03*
X30800Y35650D02*
D03*
X23850Y18400D02*
D03*
X23250Y29200D02*
D03*
X24150Y27400D02*
D03*
X25750Y28100D02*
D03*
X17520Y31398D02*
D03*
X13000Y30550D02*
D03*
X33600Y32500D02*
D03*
X6102Y787D02*
D03*
X7776Y2165D02*
D03*
X8465Y2559D02*
D03*
X7650Y800D02*
D03*
X35700Y32500D02*
D03*
X27220Y15100D02*
D03*
X25145Y13600D02*
D03*
X23000Y24600D02*
D03*
X16750Y18900D02*
D03*
X27390Y11970D02*
D03*
X28210Y12470D02*
D03*
X15380Y27780D02*
D03*
X13720Y2350D02*
D03*
X19230Y4170D02*
D03*
X20220Y4000D02*
D03*
X20460Y4800D02*
D03*
X22900Y910D02*
D03*
X33060Y19000D02*
D03*
X33550Y17500D02*
D03*
X1080Y13350D02*
D03*
X550Y11810D02*
D03*
X4150Y21070D02*
D03*
X29330Y19570D02*
D03*
X4460Y13760D02*
D03*
X24920Y5330D02*
D03*
X9720Y8020D02*
D03*
X3790Y7880D02*
D03*
X4590Y7910D02*
D03*
X2340Y9890D02*
D03*
X3102Y13040D02*
D03*
X30820Y18930D02*
D03*
X13740Y6120D02*
D03*
X31980Y8350D02*
D03*
X28430D02*
D03*
X31990Y11780D02*
D03*
X18990Y18870D02*
D03*
X19800D02*
D03*
X26650Y8810D02*
D03*
X17740Y15230D02*
D03*
X8810Y12510D02*
D03*
X8790Y11680D02*
D03*
X11830Y14960D02*
D03*
X3220Y18940D02*
D03*
X3230Y17450D02*
D03*
X9090Y6480D02*
D03*
X9100Y5800D02*
D03*
X8700Y5250D02*
D03*
X5170Y23870D02*
D03*
X28420Y31370D02*
D03*
X28440Y27220D02*
D03*
X31710Y17410D02*
D03*
X29940Y15110D02*
D03*
X25930Y15090D02*
D03*
X34240Y5210D02*
D03*
X28400Y4940D02*
D03*
X21350Y8880D02*
D03*
X22500Y8750D02*
D03*
X21370Y9580D02*
D03*
X32880Y17810D02*
D03*
X4210Y30520D02*
D03*
X20360Y28890D02*
D03*
X18050Y26620D02*
D03*
X20860Y18920D02*
D03*
X3839Y35610D02*
D03*
X8450Y35450D02*
D03*
X12540Y35400D02*
D03*
X22760Y35410D02*
D03*
X23300Y35880D02*
D03*
X25880Y35710D02*
D03*
X10820D02*
D03*
X6040Y35700D02*
D03*
X14370Y32350D02*
D03*
X24060Y33210D02*
D03*
X2960Y27510D02*
D03*
X26810Y740D02*
D03*
X24920D02*
D03*
X32030Y2280D02*
D03*
X34210Y820D02*
D03*
X30217D02*
D03*
X31010D02*
D03*
X1360Y5610D02*
D03*
D18*
X21870Y24580D02*
D03*
X17080Y24720D02*
D03*
X19270Y27560D02*
D03*
X25190Y19530D02*
D03*
X26550Y11940D02*
D03*
X7800Y24450D02*
D03*
X33580Y14440D02*
D03*
X32720Y15540D02*
D03*
X13170Y34080D02*
D03*
X2060Y22990D02*
D03*
X21630Y4660D02*
D03*
X12795Y2215D02*
D03*
X4429Y10335D02*
D03*
X11871Y10039D02*
D03*
X14803Y3071D02*
D03*
X12303Y24705D02*
D03*
X22047Y3150D02*
D03*
X16929Y5709D02*
D03*
X12620Y14980D02*
D03*
X33465Y21949D02*
D03*
X31930Y21600D02*
D03*
X1530Y32440D02*
D03*
X8000Y12000D02*
D03*
X18150Y15870D02*
D03*
X32750Y11650D02*
D03*
X6850Y5000D02*
D03*
X35150Y5640D02*
D03*
X17750Y29350D02*
D03*
X35500Y13750D02*
D03*
X32600Y25850D02*
D03*
X15945Y18900D02*
D03*
X18250Y2950D02*
D03*
X33560Y18330D02*
D03*
X17790Y33570D02*
D03*
X10130Y4770D02*
D03*
X17260Y10370D02*
D03*
X21900Y21150D02*
D03*
X21020Y15080D02*
D03*
X2400Y13760D02*
D03*
X27210Y13450D02*
D03*
X3230Y18210D02*
D03*
X32040Y30540D02*
D03*
X21350Y10380D02*
D03*
X4240Y31260D02*
D03*
X22160Y33540D02*
D03*
X27000Y34400D02*
D03*
X31420D02*
D03*
X14390Y33160D02*
D03*
X8350Y30590D02*
D03*
M02*
