G04 Layer_Color=128*
%FSLAX25Y25*%
%MOIN*%
G70*
G01*
G75*
%ADD59C,0.00200*%
D59*
X59000Y357000D02*
X61800D01*
X60400Y355600D02*
Y358400D01*
X106800Y357100D02*
X109600D01*
X108200Y355700D02*
Y358500D01*
X257400Y357100D02*
X260200D01*
X258800Y355700D02*
Y358500D01*
X231600Y358800D02*
X234400D01*
X233000Y357400D02*
Y360200D01*
X312800Y344000D02*
X315600D01*
X314200Y342600D02*
Y345400D01*
X268600Y344000D02*
X271400D01*
X270000Y342600D02*
Y345400D01*
X226200Y354100D02*
X229000D01*
X227600Y352700D02*
Y355500D01*
X220200Y335400D02*
X223000D01*
X221600Y334000D02*
Y336800D01*
X124000Y354000D02*
X126800D01*
X125400Y352600D02*
Y355400D01*
X83100Y354500D02*
X85900D01*
X84500Y353100D02*
Y355900D01*
X36986Y356100D02*
X39786D01*
X38386Y354700D02*
Y357500D01*
X207200Y189200D02*
X210000D01*
X208600Y187800D02*
Y190600D01*
X205200Y282300D02*
X208000D01*
X206600Y280900D02*
Y283700D01*
X202200Y288900D02*
X205000D01*
X203600Y287500D02*
Y290300D01*
X41000Y312600D02*
X43800D01*
X42400Y311200D02*
Y314000D01*
X40700Y305200D02*
X43500D01*
X42100Y303800D02*
Y306600D01*
X327400Y178100D02*
X330200D01*
X328800Y176700D02*
Y179500D01*
X212300Y95800D02*
X215100D01*
X213700Y94400D02*
Y97200D01*
X223600Y87500D02*
X226400D01*
X225000Y86100D02*
Y88900D01*
X212100Y103800D02*
X214900D01*
X213500Y102400D02*
Y105200D01*
X212100Y88800D02*
X214900D01*
X213500Y87400D02*
Y90200D01*
X282600Y49400D02*
X285400D01*
X284000Y48000D02*
Y50800D01*
X341000Y52100D02*
X343800D01*
X342400Y50700D02*
Y53500D01*
X257900Y150900D02*
X260700D01*
X259300Y149500D02*
Y152300D01*
X298000Y151100D02*
X300800D01*
X299400Y149700D02*
Y152500D01*
X315700Y174100D02*
X318500D01*
X317100Y172700D02*
Y175500D01*
X283000Y272200D02*
X285800D01*
X284400Y270800D02*
Y273600D01*
X282800Y313700D02*
X285600D01*
X284200Y312300D02*
Y315100D01*
X319000Y305400D02*
X321800D01*
X320400Y304000D02*
Y306800D01*
X50300Y238700D02*
X53100D01*
X51700Y237300D02*
Y240100D01*
X85600Y52500D02*
X88400D01*
X87000Y51100D02*
Y53900D01*
X89600Y58000D02*
X92400D01*
X91000Y56600D02*
Y59400D01*
X89500Y64800D02*
X92300D01*
X90900Y63400D02*
Y66200D01*
X30900Y182100D02*
X33700D01*
X32300Y180700D02*
Y183500D01*
X30900Y174500D02*
X33700D01*
X32300Y173100D02*
Y175900D01*
X30800Y189400D02*
X33600D01*
X32200Y188000D02*
Y190800D01*
X116900Y149600D02*
X119700D01*
X118300Y148200D02*
Y151000D01*
X86500Y116800D02*
X89300D01*
X87900Y115400D02*
Y118200D01*
X86700Y125100D02*
X89500D01*
X88100Y123700D02*
Y126500D01*
X176000Y152300D02*
X178800D01*
X177400Y150900D02*
Y153700D01*
X265100Y88100D02*
X267900D01*
X266500Y86700D02*
Y89500D01*
X196600Y188700D02*
X199400D01*
X198000Y187300D02*
Y190100D01*
X188500Y188700D02*
X191300D01*
X189900Y187300D02*
Y190100D01*
X148900Y188800D02*
X151700D01*
X150300Y187400D02*
Y190200D01*
X270700Y134500D02*
X273500D01*
X272100Y133100D02*
Y135900D01*
X318500Y117800D02*
X321300D01*
X319900Y116400D02*
Y119200D01*
X282900Y83500D02*
X285700D01*
X284300Y82100D02*
Y84900D01*
X318400Y83500D02*
X321200D01*
X319800Y82100D02*
Y84900D01*
X136000Y61200D02*
X138800D01*
X137400Y59800D02*
Y62600D01*
X306800Y189300D02*
X309600D01*
X308200Y187900D02*
Y190700D01*
X29617Y130400D02*
X32417D01*
X31017Y129000D02*
Y131800D01*
X22600Y137600D02*
X25400D01*
X24000Y136200D02*
Y139000D01*
X22000Y98900D02*
X24800D01*
X23400Y97500D02*
Y100300D01*
X44500Y79100D02*
X47300D01*
X45900Y77700D02*
Y80500D01*
X36500Y78800D02*
X39300D01*
X37900Y77400D02*
Y80200D01*
X95800D02*
X98600D01*
X97200Y78800D02*
Y81600D01*
X247800Y53300D02*
X250600D01*
X249200Y51900D02*
Y54700D01*
X43200Y137600D02*
X46000D01*
X44600Y136200D02*
Y139000D01*
X208800Y150800D02*
X211600D01*
X210200Y149400D02*
Y152200D01*
X217600Y211500D02*
X220400D01*
X219000Y210100D02*
Y212900D01*
X291900Y195700D02*
X294700D01*
X293300Y194300D02*
Y197100D01*
X171200Y103700D02*
X174000D01*
X172600Y102300D02*
Y105100D01*
X193700Y275200D02*
X196500D01*
X195100Y273800D02*
Y276600D01*
X99900Y47700D02*
X102700D01*
X101300Y46300D02*
Y49100D01*
X40100Y210700D02*
X42900D01*
X41500Y209300D02*
Y212100D01*
X4100Y118100D02*
X6900D01*
X5500Y116700D02*
Y119500D01*
X9400Y133500D02*
X12200D01*
X10800Y132100D02*
Y134900D01*
X176500Y335700D02*
X179300D01*
X177900Y334300D02*
Y337100D01*
X334100Y175000D02*
X336900D01*
X335500Y173600D02*
Y176400D01*
X329200Y190000D02*
X332000D01*
X330600Y188600D02*
Y191400D01*
X334200Y183300D02*
X337000D01*
X335600Y181900D02*
Y184700D01*
X227600Y9100D02*
X230400D01*
X229000Y7700D02*
Y10500D01*
X203200Y48000D02*
X206000D01*
X204600Y46600D02*
Y49400D01*
X200800Y40000D02*
X203600D01*
X202200Y38600D02*
Y41400D01*
X190900Y41700D02*
X193700D01*
X192300Y40300D02*
Y43100D01*
X181100Y29500D02*
X183900D01*
X182500Y28100D02*
Y30900D01*
X135800Y23500D02*
X138600D01*
X137200Y22100D02*
Y24900D01*
X152400Y277800D02*
X155200D01*
X153800Y276400D02*
Y279200D01*
X280700Y124700D02*
X283500D01*
X282100Y123300D02*
Y126100D01*
X272500Y119700D02*
X275300D01*
X273900Y118300D02*
Y121100D01*
X240100Y333500D02*
X242900D01*
X241500Y332100D02*
Y334900D01*
X158049Y189000D02*
X160849D01*
X159449Y187600D02*
Y190400D01*
X166100Y189000D02*
X168900D01*
X167500Y187600D02*
Y190400D01*
X228600Y246000D02*
X231400D01*
X230000Y244600D02*
Y247400D01*
X324600Y258500D02*
X327400D01*
X326000Y257100D02*
Y259900D01*
X250050Y136000D02*
X252850D01*
X251450Y134600D02*
Y137400D01*
X270800Y151000D02*
X273600D01*
X272200Y149600D02*
Y152400D01*
X353600Y137500D02*
X356400D01*
X355000Y136100D02*
Y138900D01*
X355600Y325000D02*
X358400D01*
X357000Y323600D02*
Y326400D01*
X75100Y8000D02*
X77900D01*
X76500Y6600D02*
Y9400D01*
X83246Y25591D02*
X86046D01*
X84646Y24191D02*
Y26991D01*
X76356Y21654D02*
X79156D01*
X77756Y20254D02*
Y23054D01*
X59624Y7874D02*
X62424D01*
X61024Y6474D02*
Y9274D01*
X334600Y325000D02*
X337400D01*
X336000Y323600D02*
Y326400D01*
X176100Y293500D02*
X178900D01*
X177500Y292100D02*
Y294900D01*
X128600Y305500D02*
X131400D01*
X130000Y304100D02*
Y306900D01*
X173796Y313976D02*
X176596D01*
X175197Y312576D02*
Y315376D01*
X256100Y281000D02*
X258900D01*
X257500Y279600D02*
Y282400D01*
X240100Y274000D02*
X242900D01*
X241500Y272600D02*
Y275400D01*
X231100Y292000D02*
X233900D01*
X232500Y290600D02*
Y293400D01*
X237100Y184000D02*
X239900D01*
X238500Y182600D02*
Y185400D01*
X306600Y356500D02*
X309400D01*
X308000Y355100D02*
Y357900D01*
X217100Y243500D02*
X219900D01*
X218500Y242100D02*
Y244900D01*
X217100Y250500D02*
X219900D01*
X218500Y249100D02*
Y251900D01*
X262100Y194000D02*
X264900D01*
X263500Y192600D02*
Y195400D01*
X248100Y277500D02*
X250900D01*
X249500Y276100D02*
Y278900D01*
X141100Y281500D02*
X143900D01*
X142500Y280100D02*
Y282900D01*
X290100Y42000D02*
X292900D01*
X291500Y40600D02*
Y43400D01*
X352600Y41000D02*
X355400D01*
X354000Y39600D02*
Y42400D01*
X352100Y49500D02*
X354900D01*
X353500Y48100D02*
Y50900D01*
X350100Y56400D02*
X352900D01*
X351500Y55000D02*
Y57800D01*
X297600Y57000D02*
X300400D01*
X299000Y55600D02*
Y58400D01*
X318300Y41400D02*
X321100D01*
X319700Y40000D02*
Y42800D01*
X210600Y55500D02*
X213400D01*
X212000Y54100D02*
Y56900D01*
X67100Y50000D02*
X69900D01*
X68500Y48600D02*
Y51400D01*
X107852Y51181D02*
X110652D01*
X109252Y49781D02*
Y52581D01*
X191600Y133000D02*
X194400D01*
X193000Y131600D02*
Y134400D01*
X273100Y241500D02*
X275900D01*
X274500Y240100D02*
Y242900D01*
X246100Y92000D02*
X248900D01*
X247500Y90600D02*
Y93400D01*
X326100Y116500D02*
X328900D01*
X327500Y115100D02*
Y117900D01*
X319600Y151500D02*
X322400D01*
X321000Y150100D02*
Y152900D01*
X321600Y134000D02*
X324400D01*
X323000Y132600D02*
Y135400D01*
X325600Y124500D02*
X328400D01*
X327000Y123100D02*
Y125900D01*
X342600Y138500D02*
X345400D01*
X344000Y137100D02*
Y139900D01*
X338100Y91000D02*
X340900D01*
X339500Y89600D02*
Y92400D01*
X246100Y100157D02*
X248900D01*
X247500Y98757D02*
Y101557D01*
X225800Y97500D02*
X228600D01*
X227200Y96100D02*
Y98900D01*
X257600Y95000D02*
X260400D01*
X259000Y93600D02*
Y96400D01*
X265028Y95000D02*
X267828D01*
X266428Y93600D02*
Y96400D01*
X232500Y103600D02*
X235300D01*
X233900Y102200D02*
Y105000D01*
X283600Y95000D02*
X286400D01*
X285000Y93600D02*
Y96400D01*
X306600Y95500D02*
X309400D01*
X308000Y94100D02*
Y96900D01*
X260050Y135550D02*
X262850D01*
X261450Y134150D02*
Y136950D01*
X153600Y244000D02*
X156400D01*
X155000Y242600D02*
Y245400D01*
X142600Y325000D02*
X145400D01*
X144000Y323600D02*
Y326400D01*
X6600Y341500D02*
X9400D01*
X8000Y340100D02*
Y342900D01*
X6600Y324000D02*
X9400D01*
X8000Y322600D02*
Y325400D01*
X78600Y339000D02*
X81400D01*
X80000Y337600D02*
Y340400D01*
X83600Y321000D02*
X86400D01*
X85000Y319600D02*
Y322400D01*
X176100Y324500D02*
X178900D01*
X177500Y323100D02*
Y325900D01*
X91100Y323500D02*
X93900D01*
X92500Y322100D02*
Y324900D01*
X91100Y357500D02*
X93900D01*
X92500Y356100D02*
Y358900D01*
X141300Y238600D02*
X144100D01*
X142700Y237200D02*
Y240000D01*
X142500Y333200D02*
X145300D01*
X143900Y331800D02*
Y334600D01*
X194700Y323700D02*
X197500D01*
X196100Y322300D02*
Y325100D01*
X178600Y115400D02*
X181400D01*
X180000Y114000D02*
Y116800D01*
X180100Y158700D02*
X182900D01*
X181500Y157300D02*
Y160100D01*
X172400Y175100D02*
X175200D01*
X173800Y173700D02*
Y176500D01*
X155900Y102500D02*
X158700D01*
X157300Y101100D02*
Y103900D01*
X96600Y189000D02*
X99400D01*
X98000Y187600D02*
Y190400D01*
X130600Y189000D02*
X133400D01*
X132000Y187600D02*
Y190400D01*
X89600Y189000D02*
X92400D01*
X91000Y187600D02*
Y190400D01*
X141317Y189000D02*
X144117D01*
X142717Y187600D02*
Y190400D01*
X177600Y180000D02*
X180400D01*
X179000Y178600D02*
Y181400D01*
X82600Y189000D02*
X85400D01*
X84000Y187600D02*
Y190400D01*
X124982Y174618D02*
X127782D01*
X126382Y173218D02*
Y176018D01*
X107852Y197000D02*
X110652D01*
X109252Y195600D02*
Y198400D01*
X82600Y137000D02*
X85400D01*
X84000Y135600D02*
Y138400D01*
X57500Y147800D02*
X60300D01*
X58900Y146400D02*
Y149200D01*
X67498Y150591D02*
X70298D01*
X68898Y149191D02*
Y151991D01*
X74200Y145900D02*
X77000D01*
X75600Y144500D02*
Y147300D01*
X78600Y120000D02*
X81400D01*
X80000Y118600D02*
Y121400D01*
X94600Y135000D02*
X97400D01*
X96000Y133600D02*
Y136400D01*
X72700Y231800D02*
X75500D01*
X74100Y230400D02*
Y233200D01*
X134800Y212600D02*
X137600D01*
X136200Y211200D02*
Y214000D01*
X127600Y212800D02*
X130400D01*
X129000Y211400D02*
Y214200D01*
X271238Y104331D02*
X274038D01*
X272638Y102931D02*
Y105731D01*
X13900Y324400D02*
X16700D01*
X15300Y323000D02*
Y325800D01*
X309200Y212700D02*
X312000D01*
X310600Y211300D02*
Y214100D01*
X317900Y216000D02*
X320700D01*
X319300Y214600D02*
Y217400D01*
X333246Y219488D02*
X336046D01*
X334646Y218088D02*
Y220888D01*
X294000Y245300D02*
X296800D01*
X295400Y243900D02*
Y246700D01*
X326100Y309400D02*
X328900D01*
X327500Y308000D02*
Y310800D01*
X220100Y125900D02*
X222900D01*
X221500Y124500D02*
Y127300D01*
X317600Y243800D02*
X320400D01*
X319000Y242400D02*
Y245200D01*
X219400Y153200D02*
X222200D01*
X220800Y151800D02*
Y154600D01*
X306500Y235900D02*
X309300D01*
X307900Y234500D02*
Y237300D01*
X124800Y149800D02*
X127600D01*
X126200Y148400D02*
Y151200D01*
X120100Y235100D02*
X122900D01*
X121500Y233700D02*
Y236500D01*
X127300Y235200D02*
X130100D01*
X128700Y233800D02*
Y236600D01*
X76356Y221457D02*
X79156D01*
X77756Y220057D02*
Y222857D01*
X171828Y74803D02*
X174628D01*
X173228Y73403D02*
Y76203D01*
X122577Y87598D02*
X125377D01*
X123977Y86198D02*
Y88998D01*
X160017Y56496D02*
X162817D01*
X161417Y55096D02*
Y57896D01*
X167891Y57087D02*
X170691D01*
X169291Y55687D02*
Y58487D01*
X78324Y78740D02*
X81124D01*
X79724Y77340D02*
Y80140D01*
X276159Y22638D02*
X278959D01*
X277559Y21238D02*
Y24038D01*
X239742Y31496D02*
X242542D01*
X241142Y30096D02*
Y32896D01*
X219072Y31496D02*
X221872D01*
X220472Y30096D02*
Y32896D01*
X22222Y7874D02*
X25022D01*
X23622Y6474D02*
Y9274D01*
X36002Y29528D02*
X38802D01*
X37402Y28128D02*
Y30928D01*
X9427Y88583D02*
X12227D01*
X10827Y87183D02*
Y89983D01*
X43876Y185039D02*
X46676D01*
X45276Y183639D02*
Y186439D01*
X107852Y228652D02*
X110652D01*
X109252Y227252D02*
Y230052D01*
X8600Y228346D02*
X11400D01*
X10000Y226946D02*
Y229747D01*
X352931Y280512D02*
X355731D01*
X354331Y279112D02*
Y281912D01*
X76356Y263779D02*
X79156D01*
X77756Y262380D02*
Y265179D01*
X82261Y269462D02*
X85061D01*
X83661Y268062D02*
Y270862D01*
X11395Y281496D02*
X14195D01*
X12795Y280096D02*
Y282896D01*
X324387Y294094D02*
X327187D01*
X325787Y292694D02*
Y295494D01*
X125568Y314961D02*
X128368D01*
X126969Y313561D02*
Y316361D01*
X82261Y305118D02*
X85061D01*
X83661Y303718D02*
Y306518D01*
X265332Y22638D02*
X268132D01*
X266732Y21238D02*
Y24038D01*
X257458Y291339D02*
X260258D01*
X258858Y289939D02*
Y292739D01*
X176750Y246063D02*
X179550D01*
X178150Y244663D02*
Y247463D01*
X121632Y247047D02*
X124432D01*
X123031Y245647D02*
Y248447D01*
X43876Y193898D02*
X46676D01*
X45276Y192498D02*
Y195298D01*
X28128Y272638D02*
X30928D01*
X29528Y271238D02*
Y274038D01*
X136395Y356100D02*
X139195D01*
X137795Y354700D02*
Y357500D01*
X87200Y228500D02*
X90000D01*
X88600Y227100D02*
Y229900D01*
X226200Y23400D02*
X229000D01*
X227600Y22000D02*
Y24800D01*
X124800Y77400D02*
X127600D01*
X126200Y76000D02*
Y78800D01*
X4600Y57000D02*
X7400D01*
X6000Y55600D02*
Y58400D01*
X277143Y342520D02*
X279943D01*
X278543Y341120D02*
Y343920D01*
X325372Y341535D02*
X328172D01*
X326772Y340135D02*
Y342935D01*
X82261Y72835D02*
X85061D01*
X83661Y71435D02*
Y74235D01*
X107852Y241142D02*
X110652D01*
X109252Y239742D02*
Y242542D01*
X131474Y8858D02*
X134274D01*
X132874Y7458D02*
Y10258D01*
X107852Y103346D02*
X110652D01*
X109252Y101946D02*
Y104746D01*
X146631Y30709D02*
X149431D01*
X148031Y29309D02*
Y32109D01*
X28127Y88427D02*
X30927D01*
X29527Y87027D02*
Y89827D01*
X130358Y100394D02*
X133158D01*
X131758Y98994D02*
Y101794D01*
X220600Y116000D02*
X223400D01*
X222000Y114600D02*
Y117400D01*
X318482Y26575D02*
X321282D01*
X319882Y25175D02*
Y27975D01*
X328324Y29528D02*
X331124D01*
X329724Y28128D02*
Y30928D01*
X308639Y22638D02*
X311439D01*
X310039Y21238D02*
Y24038D01*
X300765Y8858D02*
X303565D01*
X302165Y7458D02*
Y10258D01*
X243679Y46260D02*
X246479D01*
X245079Y44860D02*
Y47660D01*
X76356Y169291D02*
X79156D01*
X77756Y167891D02*
Y170691D01*
X267301Y10827D02*
X270101D01*
X268701Y9427D02*
Y12227D01*
X51750Y47244D02*
X54550D01*
X53150Y45844D02*
Y48644D01*
X117306Y100394D02*
X120106D01*
X118706Y98994D02*
Y101794D01*
X22222Y54134D02*
X25022D01*
X23622Y52734D02*
Y55534D01*
X42891Y103347D02*
X45691D01*
X44291Y101946D02*
Y104746D01*
X59624Y103347D02*
X62424D01*
X61024Y101946D02*
Y104746D01*
X342104Y358268D02*
X344904D01*
X343504Y356868D02*
Y359668D01*
X4600Y22638D02*
X7400D01*
X6000Y21238D02*
Y24038D01*
X4600Y14764D02*
X7400D01*
X6000Y13364D02*
Y16164D01*
X126553Y22145D02*
X129353D01*
X127953Y20745D02*
Y23546D01*
X126553Y30709D02*
X129353D01*
X127953Y29309D02*
Y32109D01*
X343088Y8858D02*
X345888D01*
X344488Y7458D02*
Y10258D01*
X39000Y117800D02*
X41800D01*
X40400Y116400D02*
Y119200D01*
X121600Y117300D02*
X124400D01*
X123000Y115900D02*
Y118700D01*
X170844Y88582D02*
X173644D01*
X172244Y87182D02*
Y89982D01*
X154500Y91700D02*
X157300D01*
X155900Y90300D02*
Y93100D01*
X162135Y91535D02*
X164935D01*
X163535Y90135D02*
Y92935D01*
X164500Y40900D02*
X167300D01*
X165900Y39500D02*
Y42300D01*
X247800Y7400D02*
X250600D01*
X249200Y6000D02*
Y8800D01*
X122100Y8858D02*
X124900D01*
X123500Y7458D02*
Y10258D01*
X87800Y247300D02*
X90600D01*
X89200Y245900D02*
Y248700D01*
X346000Y229400D02*
X348800D01*
X347400Y228000D02*
Y230800D01*
X353500Y229300D02*
X356300D01*
X354900Y227900D02*
Y230700D01*
X214900Y46600D02*
X217700D01*
X216300Y45200D02*
Y48000D01*
X4600Y40100D02*
X7400D01*
X6000Y38700D02*
Y41500D01*
X31080Y144685D02*
X33880D01*
X32480Y143285D02*
Y146085D01*
X8600Y245200D02*
X11400D01*
X10000Y243800D02*
Y246600D01*
X253000Y322900D02*
X255800D01*
X254400Y321500D02*
Y324300D01*
X126600Y266200D02*
X129400D01*
X128000Y264800D02*
Y267600D01*
X137500Y154500D02*
X140300D01*
X138900Y153100D02*
Y155900D01*
X90100Y100400D02*
X92900D01*
X91500Y99000D02*
Y101800D01*
X41907Y261811D02*
X44707D01*
X43307Y260411D02*
Y263211D01*
X21900Y244600D02*
X24700D01*
X23300Y243200D02*
Y246000D01*
X44300Y174400D02*
X47100D01*
X45700Y173000D02*
Y175800D01*
X33700Y230500D02*
X36500D01*
X35100Y229100D02*
Y231900D01*
X173000Y127000D02*
X175800D01*
X174400Y125600D02*
Y128400D01*
X350100Y89900D02*
X352900D01*
X351500Y88500D02*
Y91300D01*
X12300Y51200D02*
X15100D01*
X13700Y49800D02*
Y52600D01*
X19200Y229900D02*
X22000D01*
X20600Y228500D02*
Y231300D01*
X106400Y148700D02*
X109200D01*
X107800Y147300D02*
Y150100D01*
X126553Y125984D02*
X129353D01*
X127953Y124584D02*
Y127384D01*
X137380Y104331D02*
X140180D01*
X138779Y102931D02*
Y105731D01*
X271238Y291339D02*
X274038D01*
X272638Y289939D02*
Y292739D01*
X299781Y291339D02*
X302581D01*
X301181Y289939D02*
Y292739D01*
X306671Y291339D02*
X309471D01*
X308071Y289939D02*
Y292739D01*
X36002Y272638D02*
X38802D01*
X37402Y271238D02*
Y274038D01*
X22222Y283465D02*
X25022D01*
X23622Y282065D02*
Y284865D01*
X51750Y283465D02*
X54550D01*
X53150Y282065D02*
Y284865D01*
X58639Y283464D02*
X61439D01*
X60039Y282064D02*
Y284864D01*
X72419Y283465D02*
X75219D01*
X73819Y282065D02*
Y284865D01*
X107852Y283465D02*
X110652D01*
X109252Y282065D02*
Y284865D01*
X120647Y283465D02*
X123447D01*
X122047Y282065D02*
Y284865D01*
X16200Y133600D02*
X19000D01*
X17600Y132200D02*
Y135000D01*
X263800Y60000D02*
X266600D01*
X265200Y58600D02*
Y61400D01*
X107852Y8858D02*
X110652D01*
X109252Y7458D02*
Y10258D01*
X37500Y154400D02*
X40300D01*
X38900Y153000D02*
Y155800D01*
X39200Y200100D02*
X42000D01*
X40600Y198700D02*
Y201500D01*
X82000Y314300D02*
X84800D01*
X83400Y312900D02*
Y315700D01*
X78100Y332200D02*
X80900D01*
X79500Y330800D02*
Y333600D01*
X41000Y341300D02*
X43800D01*
X42400Y339900D02*
Y342700D01*
X125100Y334600D02*
X127900D01*
X126500Y333200D02*
Y336000D01*
X130300Y340800D02*
X133100D01*
X131700Y339400D02*
Y342200D01*
X220000Y234400D02*
X222800D01*
X221400Y233000D02*
Y235800D01*
X323300Y211500D02*
X326100D01*
X324700Y210100D02*
Y212900D01*
X325800Y155400D02*
X328600D01*
X327200Y154000D02*
Y156800D01*
X348100Y133500D02*
X350900D01*
X349500Y132100D02*
Y134900D01*
X334400Y144400D02*
X337200D01*
X335800Y143000D02*
Y145800D01*
X324400Y63800D02*
X327200D01*
X325800Y62400D02*
Y65200D01*
X307500Y6100D02*
X310300D01*
X308900Y4700D02*
Y7500D01*
X278300Y29300D02*
X281100D01*
X279700Y27900D02*
Y30700D01*
X76600Y244500D02*
X79400D01*
X78000Y243100D02*
Y245900D01*
X57655Y241142D02*
X60455D01*
X59055Y239742D02*
Y242542D01*
X67700Y244600D02*
X70500D01*
X69100Y243200D02*
Y246000D01*
X169100Y323200D02*
X171900D01*
X170500Y321800D02*
Y324600D01*
X216800Y309200D02*
X219600D01*
X218200Y307800D02*
Y310600D01*
X226500Y305500D02*
X229300D01*
X227900Y304100D02*
Y306900D01*
X247746Y182700D02*
X250546D01*
X249146Y181300D02*
Y184100D01*
X264100Y119400D02*
X266900D01*
X265500Y118000D02*
Y120800D01*
X300300Y100400D02*
X303100D01*
X301700Y99000D02*
Y101800D01*
X356300Y118300D02*
X359100D01*
X357700Y116900D02*
Y119700D01*
X75900Y37200D02*
X78700D01*
X77300Y35800D02*
Y38600D01*
X234400Y284600D02*
X237200D01*
X235800Y283200D02*
Y286000D01*
X224000Y274000D02*
X226800D01*
X225400Y272600D02*
Y275400D01*
X228600Y218500D02*
X231400D01*
X230000Y217100D02*
Y219900D01*
X263100Y234500D02*
X265900D01*
X264500Y233100D02*
Y235900D01*
Y213600D02*
X267300D01*
X265900Y212200D02*
Y215000D01*
X277800Y214200D02*
X280600D01*
X279200Y212800D02*
Y215600D01*
X268300Y187700D02*
X271100D01*
X269700Y186300D02*
Y189100D01*
X286048Y174700D02*
X288848D01*
X287448Y173300D02*
Y176100D01*
X275300Y187800D02*
X278100D01*
X276700Y186400D02*
Y189200D01*
X250500Y195300D02*
X253300D01*
X251900Y193900D02*
Y196700D01*
X334600Y281500D02*
X337400D01*
X336000Y280100D02*
Y282900D01*
X244100Y234500D02*
X246900D01*
X245500Y233100D02*
Y235900D01*
X227100Y234500D02*
X229900D01*
X228500Y233100D02*
Y235900D01*
X235600Y234500D02*
X238400D01*
X237000Y233100D02*
Y235900D01*
X245800Y244900D02*
X248600D01*
X247200Y243500D02*
Y246300D01*
X57655Y187992D02*
X60455D01*
X59055Y186592D02*
Y189392D01*
X167900Y213300D02*
X170700D01*
X169300Y211900D02*
Y214700D01*
X306000Y151800D02*
X308800D01*
X307400Y150400D02*
Y153200D01*
X57700Y56300D02*
X60500D01*
X59100Y54900D02*
Y57700D01*
X116800Y56900D02*
X119600D01*
X118200Y55500D02*
Y58300D01*
X202100Y56400D02*
X204900D01*
X203500Y55000D02*
Y57800D01*
X356100Y340900D02*
X358900D01*
X357500Y339500D02*
Y342300D01*
X6238Y307638D02*
X9038D01*
X7638Y306238D02*
Y309038D01*
X318500Y272200D02*
X321300D01*
X319900Y270800D02*
Y273600D01*
X232000Y190400D02*
X234800D01*
X233400Y189000D02*
Y191800D01*
X318100Y189000D02*
X320900D01*
X319500Y187600D02*
Y190400D01*
X68800Y186800D02*
X71600D01*
X70200Y185400D02*
Y188200D01*
X68500Y195100D02*
X71300D01*
X69900Y193700D02*
Y196500D01*
M02*
