G04 Layer_Color=128*
%FSLAX24Y24*%
%MOIN*%
G70*
G01*
G75*
%ADD55C,0.0020*%
D55*
X30870Y820D02*
X31150D01*
X31010Y680D02*
Y960D01*
X30077Y820D02*
X30357D01*
X30217Y680D02*
Y960D01*
X34070Y820D02*
X34350D01*
X34210Y680D02*
Y960D01*
X31890Y2280D02*
X32170D01*
X32030Y2140D02*
Y2420D01*
X27700Y2350D02*
X27980D01*
X27840Y2210D02*
Y2490D01*
X24780Y740D02*
X25060D01*
X24920Y600D02*
Y880D01*
X26670Y740D02*
X26950D01*
X26810Y600D02*
Y880D01*
X2820Y27510D02*
X3100D01*
X2960Y27370D02*
Y27650D01*
X8210Y30590D02*
X8490D01*
X8350Y30450D02*
Y30730D01*
X23920Y33210D02*
X24200D01*
X24060Y33070D02*
Y33350D01*
X14250Y33160D02*
X14530D01*
X14390Y33020D02*
Y33300D01*
X14230Y32350D02*
X14510D01*
X14370Y32210D02*
Y32490D01*
X5900Y35700D02*
X6180D01*
X6040Y35560D02*
Y35840D01*
X10680Y35710D02*
X10960D01*
X10820Y35570D02*
Y35850D01*
X25740Y35710D02*
X26020D01*
X25880Y35570D02*
Y35850D01*
X23160Y35880D02*
X23440D01*
X23300Y35740D02*
Y36020D01*
X31280Y34400D02*
X31560D01*
X31420Y34260D02*
Y34540D01*
X26860Y34400D02*
X27140D01*
X27000Y34260D02*
Y34540D01*
X22620Y35410D02*
X22900D01*
X22760Y35270D02*
Y35550D01*
X22020Y33540D02*
X22300D01*
X22160Y33400D02*
Y33680D01*
X12400Y35400D02*
X12680D01*
X12540Y35260D02*
Y35540D01*
X8310Y35450D02*
X8590D01*
X8450Y35310D02*
Y35590D01*
X3699Y35610D02*
X3979D01*
X3839Y35470D02*
Y35750D01*
X20720Y18920D02*
X21000D01*
X20860Y18780D02*
Y19060D01*
X20520Y28230D02*
X20800D01*
X20660Y28090D02*
Y28370D01*
X20220Y28890D02*
X20500D01*
X20360Y28750D02*
Y29030D01*
X4100Y31260D02*
X4380D01*
X4240Y31120D02*
Y31400D01*
X4070Y30520D02*
X4350D01*
X4210Y30380D02*
Y30660D01*
X32740Y17810D02*
X33020D01*
X32880Y17670D02*
Y17950D01*
X21230Y9580D02*
X21510D01*
X21370Y9440D02*
Y9720D01*
X22360Y8750D02*
X22640D01*
X22500Y8610D02*
Y8890D01*
X21210Y10380D02*
X21490D01*
X21350Y10240D02*
Y10520D01*
X21210Y8880D02*
X21490D01*
X21350Y8740D02*
Y9020D01*
X28260Y4940D02*
X28540D01*
X28400Y4800D02*
Y5080D01*
X34100Y5210D02*
X34380D01*
X34240Y5070D02*
Y5350D01*
X25790Y15090D02*
X26070D01*
X25930Y14950D02*
Y15230D01*
X29800Y15110D02*
X30080D01*
X29940Y14970D02*
Y15250D01*
X31570Y17410D02*
X31850D01*
X31710Y17270D02*
Y17550D01*
X28300Y27220D02*
X28580D01*
X28440Y27080D02*
Y27360D01*
X28280Y31370D02*
X28560D01*
X28420Y31230D02*
Y31510D01*
X31900Y30540D02*
X32180D01*
X32040Y30400D02*
Y30680D01*
X5030Y23870D02*
X5310D01*
X5170Y23730D02*
Y24010D01*
X8560Y5250D02*
X8840D01*
X8700Y5110D02*
Y5390D01*
X8960Y5800D02*
X9240D01*
X9100Y5660D02*
Y5940D01*
X8950Y6480D02*
X9230D01*
X9090Y6340D02*
Y6620D01*
X3090Y18210D02*
X3370D01*
X3230Y18070D02*
Y18350D01*
X3090Y17450D02*
X3370D01*
X3230Y17310D02*
Y17590D01*
X3080Y18940D02*
X3360D01*
X3220Y18800D02*
Y19080D01*
X11690Y14960D02*
X11970D01*
X11830Y14820D02*
Y15100D01*
X8650Y11680D02*
X8930D01*
X8790Y11540D02*
Y11820D01*
X8670Y12510D02*
X8950D01*
X8810Y12370D02*
Y12650D01*
X17600Y15230D02*
X17880D01*
X17740Y15090D02*
Y15370D01*
X26510Y8810D02*
X26790D01*
X26650Y8670D02*
Y8950D01*
X19660Y18870D02*
X19940D01*
X19800Y18730D02*
Y19010D01*
X18850Y18870D02*
X19130D01*
X18990Y18730D02*
Y19010D01*
X27070Y13450D02*
X27350D01*
X27210Y13310D02*
Y13590D01*
X31850Y11780D02*
X32130D01*
X31990Y11640D02*
Y11920D01*
X28290Y8350D02*
X28570D01*
X28430Y8210D02*
Y8490D01*
X31840Y8350D02*
X32120D01*
X31980Y8210D02*
Y8490D01*
X13600Y6120D02*
X13880D01*
X13740Y5980D02*
Y6260D01*
X30680Y18930D02*
X30960D01*
X30820Y18790D02*
Y19070D01*
X2962Y13040D02*
X3242D01*
X3102Y12900D02*
Y13180D01*
X2260Y13760D02*
X2540D01*
X2400Y13620D02*
Y13900D01*
X2200Y9890D02*
X2480D01*
X2340Y9750D02*
Y10030D01*
X4450Y7910D02*
X4730D01*
X4590Y7770D02*
Y8050D01*
X3650Y7880D02*
X3930D01*
X3790Y7740D02*
Y8020D01*
X9580D02*
X9860D01*
X9720Y7880D02*
Y8160D01*
X24780Y5330D02*
X25060D01*
X24920Y5190D02*
Y5470D01*
X4320Y13760D02*
X4600D01*
X4460Y13620D02*
Y13900D01*
X20880Y15080D02*
X21160D01*
X21020Y14940D02*
Y15220D01*
X21760Y21150D02*
X22040D01*
X21900Y21010D02*
Y21290D01*
X29190Y19570D02*
X29470D01*
X29330Y19430D02*
Y19710D01*
X17120Y10370D02*
X17400D01*
X17260Y10230D02*
Y10510D01*
X19370Y27520D02*
X19650D01*
X19510Y27380D02*
Y27660D01*
X9990Y4770D02*
X10270D01*
X10130Y4630D02*
Y4910D01*
X4010Y21070D02*
X4290D01*
X4150Y20930D02*
Y21210D01*
X410Y11810D02*
X690D01*
X550Y11670D02*
Y11950D01*
X940Y13350D02*
X1220D01*
X1080Y13210D02*
Y13490D01*
X17650Y33570D02*
X17930D01*
X17790Y33430D02*
Y33710D01*
X33410Y17500D02*
X33690D01*
X33550Y17360D02*
Y17640D01*
X32920Y19000D02*
X33200D01*
X33060Y18860D02*
Y19140D01*
X33420Y18330D02*
X33700D01*
X33560Y18190D02*
Y18470D01*
X22760Y910D02*
X23040D01*
X22900Y770D02*
Y1050D01*
X20320Y4800D02*
X20600D01*
X20460Y4660D02*
Y4940D01*
X20080Y4000D02*
X20360D01*
X20220Y3860D02*
Y4140D01*
X19090Y4170D02*
X19370D01*
X19230Y4030D02*
Y4310D01*
X18110Y2950D02*
X18390D01*
X18250Y2810D02*
Y3090D01*
X13580Y2350D02*
X13860D01*
X13720Y2210D02*
Y2490D01*
X15240Y27780D02*
X15520D01*
X15380Y27640D02*
Y27920D01*
X28070Y12470D02*
X28350D01*
X28210Y12330D02*
Y12610D01*
X27250Y11970D02*
X27530D01*
X27390Y11830D02*
Y12110D01*
X15805Y18900D02*
X16085D01*
X15945Y18760D02*
Y19040D01*
X16610Y18900D02*
X16890D01*
X16750Y18760D02*
Y19040D01*
X22860Y24600D02*
X23140D01*
X23000Y24460D02*
Y24740D01*
X32460Y25850D02*
X32740D01*
X32600Y25710D02*
Y25990D01*
X25005Y13600D02*
X25285D01*
X25145Y13460D02*
Y13740D01*
X27080Y15100D02*
X27360D01*
X27220Y14960D02*
Y15240D01*
X35360Y13750D02*
X35640D01*
X35500Y13610D02*
Y13890D01*
X35560Y32500D02*
X35840D01*
X35700Y32360D02*
Y32640D01*
X7510Y800D02*
X7790D01*
X7650Y660D02*
Y940D01*
X8325Y2559D02*
X8605D01*
X8465Y2419D02*
Y2699D01*
X7636Y2165D02*
X7916D01*
X7776Y2025D02*
Y2305D01*
X5962Y787D02*
X6242D01*
X6102Y647D02*
Y927D01*
X33460Y32500D02*
X33740D01*
X33600Y32360D02*
Y32640D01*
X17610Y29350D02*
X17890D01*
X17750Y29210D02*
Y29490D01*
X12860Y30550D02*
X13140D01*
X13000Y30410D02*
Y30690D01*
X17380Y31398D02*
X17660D01*
X17520Y31258D02*
Y31538D01*
X25610Y28100D02*
X25890D01*
X25750Y27960D02*
Y28240D01*
X24010Y27400D02*
X24290D01*
X24150Y27260D02*
Y27540D01*
X23110Y29200D02*
X23390D01*
X23250Y29060D02*
Y29340D01*
X23710Y18400D02*
X23990D01*
X23850Y18260D02*
Y18540D01*
X30660Y35650D02*
X30940D01*
X30800Y35510D02*
Y35790D01*
X21710Y24350D02*
X21990D01*
X21850Y24210D02*
Y24490D01*
X21710Y25050D02*
X21990D01*
X21850Y24910D02*
Y25190D01*
X26210Y19400D02*
X26490D01*
X26350Y19260D02*
Y19540D01*
X24810Y27750D02*
X25090D01*
X24950Y27610D02*
Y27890D01*
X14110Y28150D02*
X14390D01*
X14250Y28010D02*
Y28290D01*
X29010Y4200D02*
X29290D01*
X29150Y4060D02*
Y4340D01*
X35260Y4100D02*
X35540D01*
X35400Y3960D02*
Y4240D01*
X35010Y5640D02*
X35290D01*
X35150Y5500D02*
Y5780D01*
X29760Y5700D02*
X30040D01*
X29900Y5560D02*
Y5840D01*
X31830Y4140D02*
X32110D01*
X31970Y4000D02*
Y4280D01*
X21060Y5550D02*
X21340D01*
X21200Y5410D02*
Y5690D01*
X6710Y5000D02*
X6990D01*
X6850Y4860D02*
Y5140D01*
X10785Y5118D02*
X11065D01*
X10925Y4978D02*
Y5258D01*
X19160Y13300D02*
X19440D01*
X19300Y13160D02*
Y13440D01*
X27310Y24150D02*
X27590D01*
X27450Y24010D02*
Y24290D01*
X24610Y9200D02*
X24890D01*
X24750Y9060D02*
Y9340D01*
X32610Y11650D02*
X32890D01*
X32750Y11510D02*
Y11790D01*
X31960Y15150D02*
X32240D01*
X32100Y15010D02*
Y15290D01*
X32560Y12450D02*
X32840D01*
X32700Y12310D02*
Y12590D01*
X34260Y13850D02*
X34540D01*
X34400Y13710D02*
Y13990D01*
X33810Y9100D02*
X34090D01*
X33950Y8960D02*
Y9240D01*
X24610Y10016D02*
X24890D01*
X24750Y9876D02*
Y10156D01*
X22580Y9750D02*
X22860D01*
X22720Y9610D02*
Y9890D01*
X25760Y9500D02*
X26040D01*
X25900Y9360D02*
Y9640D01*
X26503Y9500D02*
X26783D01*
X26643Y9360D02*
Y9640D01*
X23250Y10360D02*
X23530D01*
X23390Y10220D02*
Y10500D01*
X28360Y9500D02*
X28640D01*
X28500Y9360D02*
Y9640D01*
X30660Y9550D02*
X30940D01*
X30800Y9410D02*
Y9690D01*
X26005Y13555D02*
X26285D01*
X26145Y13415D02*
Y13695D01*
X15360Y24400D02*
X15640D01*
X15500Y24260D02*
Y24540D01*
X660Y34150D02*
X940D01*
X800Y34010D02*
Y34290D01*
X660Y32400D02*
X940D01*
X800Y32260D02*
Y32540D01*
X7860Y33900D02*
X8140D01*
X8000Y33760D02*
Y34040D01*
X8360Y32100D02*
X8640D01*
X8500Y31960D02*
Y32240D01*
X17610Y32450D02*
X17890D01*
X17750Y32310D02*
Y32590D01*
X9110Y32350D02*
X9390D01*
X9250Y32210D02*
Y32490D01*
X9110Y35750D02*
X9390D01*
X9250Y35610D02*
Y35890D01*
X14130Y23860D02*
X14410D01*
X14270Y23720D02*
Y24000D01*
X19470Y32370D02*
X19750D01*
X19610Y32230D02*
Y32510D01*
X17860Y11540D02*
X18140D01*
X18000Y11400D02*
Y11680D01*
X18010Y15870D02*
X18290D01*
X18150Y15730D02*
Y16010D01*
X17240Y17510D02*
X17520D01*
X17380Y17370D02*
Y17650D01*
X15590Y10250D02*
X15870D01*
X15730Y10110D02*
Y10390D01*
X9660Y18900D02*
X9940D01*
X9800Y18760D02*
Y19040D01*
X13060Y18900D02*
X13340D01*
X13200Y18760D02*
Y19040D01*
X8960Y18900D02*
X9240D01*
X9100Y18760D02*
Y19040D01*
X14132Y18900D02*
X14412D01*
X14272Y18760D02*
Y19040D01*
X17760Y18000D02*
X18040D01*
X17900Y17860D02*
Y18140D01*
X8260Y18900D02*
X8540D01*
X8400Y18760D02*
Y19040D01*
X12498Y17462D02*
X12778D01*
X12638Y17322D02*
Y17602D01*
X10785Y19700D02*
X11065D01*
X10925Y19560D02*
Y19840D01*
X8260Y13700D02*
X8540D01*
X8400Y13560D02*
Y13840D01*
X5750Y14780D02*
X6030D01*
X5890Y14640D02*
Y14920D01*
X6750Y15059D02*
X7030D01*
X6890Y14919D02*
Y15199D01*
X7420Y14590D02*
X7700D01*
X7560Y14450D02*
Y14730D01*
X7860Y12000D02*
X8140D01*
X8000Y11860D02*
Y12140D01*
X9460Y13500D02*
X9740D01*
X9600Y13360D02*
Y13640D01*
X7270Y23180D02*
X7550D01*
X7410Y23040D02*
Y23320D01*
X13480Y21260D02*
X13760D01*
X13620Y21120D02*
Y21400D01*
X27124Y10433D02*
X27404D01*
X27264Y10293D02*
Y10573D01*
X1390Y32440D02*
X1670D01*
X1530Y32300D02*
Y32580D01*
X30920Y21270D02*
X31200D01*
X31060Y21130D02*
Y21410D01*
X31790Y21600D02*
X32070D01*
X31930Y21460D02*
Y21740D01*
X33325Y21949D02*
X33605D01*
X33465Y21809D02*
Y22089D01*
X29400Y24530D02*
X29680D01*
X29540Y24390D02*
Y24670D01*
X32610Y30940D02*
X32890D01*
X32750Y30800D02*
Y31080D01*
X22010Y12590D02*
X22290D01*
X22150Y12450D02*
Y12730D01*
X31760Y24380D02*
X32040D01*
X31900Y24240D02*
Y24520D01*
X21940Y15320D02*
X22220D01*
X22080Y15180D02*
Y15460D01*
X30650Y23590D02*
X30930D01*
X30790Y23450D02*
Y23730D01*
X12480Y14980D02*
X12760D01*
X12620Y14840D02*
Y15120D01*
X12010Y23510D02*
X12290D01*
X12150Y23370D02*
Y23650D01*
X7636Y22146D02*
X7916D01*
X7776Y22006D02*
Y22286D01*
X17183Y7480D02*
X17463D01*
X17323Y7340D02*
Y7620D01*
X12258Y8760D02*
X12538D01*
X12398Y8620D02*
Y8900D01*
X16002Y5650D02*
X16282D01*
X16142Y5510D02*
Y5790D01*
X16789Y5709D02*
X17069D01*
X16929Y5569D02*
Y5849D01*
X7832Y7874D02*
X8112D01*
X7972Y7734D02*
Y8014D01*
X23974Y3150D02*
X24254D01*
X24114Y3010D02*
Y3290D01*
X21907Y3150D02*
X22187D01*
X22047Y3010D02*
Y3290D01*
X2222Y787D02*
X2502D01*
X2362Y647D02*
Y927D01*
X3600Y2953D02*
X3880D01*
X3740Y2813D02*
Y3093D01*
X943Y8858D02*
X1223D01*
X1083Y8718D02*
Y8998D01*
X4388Y18504D02*
X4668D01*
X4528Y18364D02*
Y18644D01*
X10785Y22865D02*
X11065D01*
X10925Y22725D02*
Y23005D01*
X860Y22835D02*
X1140D01*
X1000Y22695D02*
Y22975D01*
X35293Y28051D02*
X35573D01*
X35433Y27911D02*
Y28191D01*
X7636Y26378D02*
X7916D01*
X7776Y26238D02*
Y26518D01*
X8226Y26946D02*
X8506D01*
X8366Y26806D02*
Y27086D01*
X1140Y28150D02*
X1420D01*
X1280Y28010D02*
Y28290D01*
X32439Y29409D02*
X32719D01*
X32579Y29269D02*
Y29549D01*
X12557Y31496D02*
X12837D01*
X12697Y31356D02*
Y31636D01*
X25746Y29134D02*
X26026D01*
X25886Y28994D02*
Y29274D01*
X17675Y24606D02*
X17955D01*
X17815Y24466D02*
Y24746D01*
X12163Y24705D02*
X12443D01*
X12303Y24565D02*
Y24845D01*
X4388Y19390D02*
X4668D01*
X4528Y19250D02*
Y19530D01*
X13640Y35610D02*
X13920D01*
X13780Y35470D02*
Y35750D01*
X8720Y22850D02*
X9000D01*
X8860Y22710D02*
Y22990D01*
X22620Y2340D02*
X22900D01*
X22760Y2200D02*
Y2480D01*
X12480Y7740D02*
X12760D01*
X12620Y7600D02*
Y7880D01*
X27714Y34252D02*
X27994D01*
X27854Y34112D02*
Y34392D01*
X32537Y34154D02*
X32817D01*
X32677Y34014D02*
Y34294D01*
X8226Y7283D02*
X8506D01*
X8366Y7143D02*
Y7423D01*
X10785Y24114D02*
X11065D01*
X10925Y23974D02*
Y24254D01*
X13147Y886D02*
X13427D01*
X13287Y746D02*
Y1026D01*
X10785Y10335D02*
X11065D01*
X10925Y10195D02*
Y10475D01*
X14663Y3071D02*
X14943D01*
X14803Y2931D02*
Y3211D01*
X2813Y8843D02*
X3093D01*
X2953Y8703D02*
Y8983D01*
X13036Y10039D02*
X13316D01*
X13176Y9899D02*
Y10179D01*
X22060Y11600D02*
X22340D01*
X22200Y11460D02*
Y11740D01*
X32832Y2953D02*
X33112D01*
X32972Y2813D02*
Y3093D01*
X24368Y4626D02*
X24648D01*
X24508Y4486D02*
Y4766D01*
X7636Y16929D02*
X7916D01*
X7776Y16789D02*
Y17069D01*
X5175Y4724D02*
X5455D01*
X5315Y4584D02*
Y4864D01*
X11731Y10039D02*
X12011D01*
X11871Y9899D02*
Y10179D01*
X2222Y5413D02*
X2502D01*
X2362Y5273D02*
Y5553D01*
X4289Y10335D02*
X4569D01*
X4429Y10195D02*
Y10475D01*
X5962Y10335D02*
X6242D01*
X6102Y10195D02*
Y10475D01*
X34210Y35827D02*
X34490D01*
X34350Y35687D02*
Y35967D01*
X460Y2264D02*
X740D01*
X600Y2124D02*
Y2404D01*
X460Y1476D02*
X740D01*
X600Y1336D02*
Y1616D01*
X12655Y2215D02*
X12935D01*
X12795Y2075D02*
Y2355D01*
X12655Y3071D02*
X12935D01*
X12795Y2931D02*
Y3211D01*
X3900Y11780D02*
X4180D01*
X4040Y11640D02*
Y11920D01*
X12160Y11730D02*
X12440D01*
X12300Y11590D02*
Y11870D01*
X17084Y8858D02*
X17364D01*
X17224Y8718D02*
Y8998D01*
X15450Y9170D02*
X15730D01*
X15590Y9030D02*
Y9310D01*
X16214Y9154D02*
X16494D01*
X16354Y9014D02*
Y9294D01*
X16450Y4090D02*
X16730D01*
X16590Y3950D02*
Y4230D01*
X12210Y886D02*
X12490D01*
X12350Y746D02*
Y1026D01*
X8780Y24730D02*
X9060D01*
X8920Y24590D02*
Y24870D01*
X34600Y22940D02*
X34880D01*
X34740Y22800D02*
Y23080D01*
X35350Y22930D02*
X35630D01*
X35490Y22790D02*
Y23070D01*
X21490Y4660D02*
X21770D01*
X21630Y4520D02*
Y4800D01*
X460Y4010D02*
X740D01*
X600Y3870D02*
Y4150D01*
X3108Y14468D02*
X3388D01*
X3248Y14329D02*
Y14609D01*
X860Y24520D02*
X1140D01*
X1000Y24380D02*
Y24660D01*
X25300Y32290D02*
X25580D01*
X25440Y32150D02*
Y32430D01*
X12660Y26620D02*
X12940D01*
X12800Y26480D02*
Y26760D01*
X13750Y15450D02*
X14030D01*
X13890Y15310D02*
Y15590D01*
X9010Y10040D02*
X9290D01*
X9150Y9900D02*
Y10180D01*
X4191Y26181D02*
X4471D01*
X4331Y26041D02*
Y26321D01*
X2190Y24460D02*
X2470D01*
X2330Y24320D02*
Y24600D01*
X4430Y17440D02*
X4710D01*
X4570Y17300D02*
Y17580D01*
X3370Y23050D02*
X3650D01*
X3510Y22910D02*
Y23190D01*
X17300Y12700D02*
X17580D01*
X17440Y12560D02*
Y12840D01*
X35010Y8990D02*
X35290D01*
X35150Y8850D02*
Y9130D01*
X1230Y5120D02*
X1510D01*
X1370Y4980D02*
Y5260D01*
X1920Y22990D02*
X2200D01*
X2060Y22850D02*
Y23130D01*
X10640Y14870D02*
X10920D01*
X10780Y14730D02*
Y15010D01*
X12655Y12598D02*
X12935D01*
X12795Y12458D02*
Y12738D01*
X13738Y10433D02*
X14018D01*
X13878Y10293D02*
Y10573D01*
X27124Y29134D02*
X27404D01*
X27264Y28994D02*
Y29274D01*
X29978Y29134D02*
X30258D01*
X30118Y28994D02*
Y29274D01*
X30667Y29134D02*
X30947D01*
X30807Y28994D02*
Y29274D01*
X3600Y27264D02*
X3880D01*
X3740Y27124D02*
Y27404D01*
X2222Y28346D02*
X2502D01*
X2362Y28206D02*
Y28486D01*
X5175Y28346D02*
X5455D01*
X5315Y28206D02*
Y28486D01*
X5864Y28346D02*
X6144D01*
X6004Y28206D02*
Y28486D01*
X10785Y28346D02*
X11065D01*
X10925Y28206D02*
Y28486D01*
X1620Y13360D02*
X1900D01*
X1760Y13220D02*
Y13500D01*
X10785Y886D02*
X11065D01*
X10925Y746D02*
Y1026D01*
X3750Y15440D02*
X4030D01*
X3890Y15300D02*
Y15580D01*
X3920Y20010D02*
X4200D01*
X4060Y19870D02*
Y20150D01*
X8200Y31430D02*
X8480D01*
X8340Y31290D02*
Y31570D01*
X7810Y33220D02*
X8090D01*
X7950Y33080D02*
Y33360D01*
X4100Y34130D02*
X4380D01*
X4240Y33990D02*
Y34270D01*
X12510Y33460D02*
X12790D01*
X12650Y33320D02*
Y33600D01*
X13030Y34080D02*
X13310D01*
X13170Y33940D02*
Y34220D01*
X22000Y23440D02*
X22280D01*
X22140Y23300D02*
Y23580D01*
X32330Y21150D02*
X32610D01*
X32470Y21010D02*
Y21290D01*
X32580Y15540D02*
X32860D01*
X32720Y15400D02*
Y15680D01*
X34810Y13350D02*
X35090D01*
X34950Y13210D02*
Y13490D01*
X33440Y14440D02*
X33720D01*
X33580Y14300D02*
Y14580D01*
X32440Y6380D02*
X32720D01*
X32580Y6240D02*
Y6520D01*
X7660Y24450D02*
X7940D01*
X7800Y24310D02*
Y24590D01*
X5766Y24114D02*
X6046D01*
X5906Y23974D02*
Y24254D01*
X6770Y24460D02*
X7050D01*
X6910Y24320D02*
Y24600D01*
X16910Y32320D02*
X17190D01*
X17050Y32180D02*
Y32460D01*
X21680Y30920D02*
X21960D01*
X21820Y30780D02*
Y31060D01*
X22650Y30550D02*
X22930D01*
X22790Y30410D02*
Y30690D01*
X24775Y18270D02*
X25055D01*
X24915Y18130D02*
Y18410D01*
X26410Y11940D02*
X26690D01*
X26550Y11800D02*
Y12080D01*
X30030Y10040D02*
X30310D01*
X30170Y9900D02*
Y10180D01*
X35630Y11830D02*
X35910D01*
X35770Y11690D02*
Y11970D01*
X7590Y3720D02*
X7870D01*
X7730Y3580D02*
Y3860D01*
X23440Y28460D02*
X23720D01*
X23580Y28320D02*
Y28600D01*
X22400Y27400D02*
X22680D01*
X22540Y27260D02*
Y27540D01*
X22860Y21850D02*
X23140D01*
X23000Y21710D02*
Y21990D01*
X26310Y23450D02*
X26590D01*
X26450Y23310D02*
Y23590D01*
Y21360D02*
X26730D01*
X26590Y21220D02*
Y21500D01*
X27780Y21420D02*
X28060D01*
X27920Y21280D02*
Y21560D01*
X26830Y18770D02*
X27110D01*
X26970Y18630D02*
Y18910D01*
X28605Y17470D02*
X28885D01*
X28745Y17330D02*
Y17610D01*
X27530Y18780D02*
X27810D01*
X27670Y18640D02*
Y18920D01*
X25050Y19530D02*
X25330D01*
X25190Y19390D02*
Y19670D01*
X33460Y28150D02*
X33740D01*
X33600Y28010D02*
Y28290D01*
X24410Y23450D02*
X24690D01*
X24550Y23310D02*
Y23590D01*
X22710Y23450D02*
X22990D01*
X22850Y23310D02*
Y23590D01*
X23560Y23450D02*
X23840D01*
X23700Y23310D02*
Y23590D01*
X24580Y24490D02*
X24860D01*
X24720Y24350D02*
Y24630D01*
X5766Y18799D02*
X6046D01*
X5906Y18659D02*
Y18939D01*
X16790Y21330D02*
X17070D01*
X16930Y21190D02*
Y21470D01*
X30600Y15180D02*
X30880D01*
X30740Y15040D02*
Y15320D01*
X5770Y5630D02*
X6050D01*
X5910Y5490D02*
Y5770D01*
X11680Y5690D02*
X11960D01*
X11820Y5550D02*
Y5830D01*
X20210Y5640D02*
X20490D01*
X20350Y5500D02*
Y5780D01*
X35610Y34090D02*
X35890D01*
X35750Y33950D02*
Y34230D01*
X624Y30764D02*
X904D01*
X764Y30624D02*
Y30904D01*
X31850Y27220D02*
X32130D01*
X31990Y27080D02*
Y27360D01*
X23200Y19040D02*
X23480D01*
X23340Y18900D02*
Y19180D01*
X31810Y18900D02*
X32090D01*
X31950Y18760D02*
Y19040D01*
X6880Y18680D02*
X7160D01*
X7020Y18540D02*
Y18820D01*
X6850Y19510D02*
X7130D01*
X6990Y19370D02*
Y19650D01*
X14890Y18880D02*
X15170D01*
X15030Y18740D02*
Y19020D01*
X460Y5700D02*
X740D01*
X600Y5560D02*
Y5840D01*
M02*
