G04 Layer_Color=32896*
%FSLAX25Y25*%
%MOIN*%
G70*
G01*
G75*
%ADD15C,0.00500*%
%ADD33C,0.00248*%
%ADD51C,0.00600*%
%ADD52C,0.00787*%
%ADD53C,0.00787*%
%ADD54C,0.00197*%
D15*
X217520Y232283D02*
Y259842D01*
X245079D01*
Y232283D02*
Y259842D01*
X217520Y232283D02*
X245079D01*
X191106Y272882D02*
X203350D01*
X191106D02*
Y283118D01*
X193705D01*
X219492D02*
X221992D01*
Y272882D02*
Y283118D01*
X209650Y272882D02*
X221992D01*
D33*
X333000Y204500D02*
Y225500D01*
X127000Y204500D02*
Y225500D01*
X333000Y144500D02*
Y165500D01*
X127000Y144500D02*
Y165500D01*
X190967Y77773D02*
Y79021D01*
X190551Y78605D01*
X190135Y79021D01*
Y77773D01*
X189719Y77565D02*
X188888D01*
X187640Y78813D02*
X187848Y79021D01*
X188264D01*
X188472Y78813D01*
Y77981D01*
X188264Y77773D01*
X187848D01*
X187640Y77981D01*
X121827Y200778D02*
X121411D01*
X121619D01*
Y199531D01*
X121827D01*
X121411D01*
X120787D02*
Y200778D01*
X120163D01*
X119955Y200570D01*
Y200154D01*
X120163Y199947D01*
X120787D01*
X120371D02*
X119955Y199531D01*
X119539Y199323D02*
X118708D01*
X118292Y199531D02*
Y200778D01*
X117668D01*
X117460Y200570D01*
Y200154D01*
X117668Y199947D01*
X118292D01*
X117876D02*
X117460Y199531D01*
X116212D02*
X117044D01*
X116212Y200362D01*
Y200570D01*
X116420Y200778D01*
X116836D01*
X117044Y200570D01*
X115797Y200778D02*
X114965D01*
Y200570D01*
X115797Y199739D01*
Y199531D01*
X332900Y197748D02*
Y196500D01*
Y197124D01*
X332068D01*
Y197748D01*
Y196500D01*
X330821D02*
X331652D01*
X330821Y197332D01*
Y197540D01*
X331029Y197748D01*
X331444D01*
X331652Y197540D01*
X332900Y137748D02*
Y136500D01*
Y137124D01*
X332068D01*
Y137748D01*
Y136500D01*
X331652D02*
X331237D01*
X331444D01*
Y137748D01*
X331652Y137540D01*
X87316Y169684D02*
Y170932D01*
X86900Y170516D01*
X86484Y170932D01*
Y169684D01*
X86068Y169476D02*
X85236D01*
X84820Y169684D02*
Y170932D01*
X84197D01*
X83989Y170724D01*
Y170308D01*
X84197Y170100D01*
X84820D01*
X84405D02*
X83989Y169684D01*
X224800Y229800D02*
Y228969D01*
X224384Y228553D01*
X223968Y228969D01*
Y229800D01*
X223552Y228553D02*
Y229800D01*
X222929D01*
X222721Y229592D01*
Y229177D01*
X222929Y228969D01*
X223552D01*
X223136D02*
X222721Y228553D01*
X222305D02*
X221889D01*
X222097D01*
Y229800D01*
X222305Y229592D01*
X71595Y175512D02*
X71179D01*
X71387D01*
Y174265D01*
X71595D01*
X71179D01*
X70556D02*
Y175512D01*
X69932D01*
X69724Y175304D01*
Y174888D01*
X69932Y174680D01*
X70556D01*
X70140D02*
X69724Y174265D01*
X69308Y174057D02*
X68476D01*
X68060Y174265D02*
Y175512D01*
X67436D01*
X67229Y175304D01*
Y174888D01*
X67436Y174680D01*
X68060D01*
X67644D02*
X67229Y174265D01*
X66813Y175304D02*
X66605Y175512D01*
X66189D01*
X65981Y175304D01*
Y175096D01*
X66189Y174888D01*
X66397D01*
X66189D01*
X65981Y174680D01*
Y174472D01*
X66189Y174265D01*
X66605D01*
X66813Y174472D01*
X64941Y174265D02*
Y175512D01*
X65565Y174888D01*
X64733D01*
X71600Y24942D02*
X71184D01*
X71392D01*
Y23695D01*
X71600D01*
X71184D01*
X70560D02*
Y24942D01*
X69937D01*
X69729Y24734D01*
Y24318D01*
X69937Y24110D01*
X70560D01*
X70144D02*
X69729Y23695D01*
X69313Y23486D02*
X68481D01*
X68065Y23695D02*
Y24942D01*
X67441D01*
X67233Y24734D01*
Y24318D01*
X67441Y24110D01*
X68065D01*
X67649D02*
X67233Y23695D01*
X65986Y24942D02*
X66817D01*
Y24318D01*
X66401Y24526D01*
X66194D01*
X65986Y24318D01*
Y23902D01*
X66194Y23695D01*
X66610D01*
X66817Y23902D01*
X65570Y24734D02*
X65362Y24942D01*
X64946D01*
X64738Y24734D01*
Y24526D01*
X64946Y24318D01*
X64738Y24110D01*
Y23902D01*
X64946Y23695D01*
X65362D01*
X65570Y23902D01*
Y24110D01*
X65362Y24318D01*
X65570Y24526D01*
Y24734D01*
X65362Y24318D02*
X64946D01*
X101500Y44500D02*
Y45748D01*
X100876D01*
X100668Y45540D01*
Y45124D01*
X100876Y44916D01*
X101500D01*
X101084D02*
X100668Y44500D01*
X100252Y45332D02*
X99836Y44500D01*
X99421Y45332D01*
X99005Y44500D02*
X98381D01*
X98173Y44708D01*
X98381Y44916D01*
X98797D01*
X99005Y45124D01*
X98797Y45332D01*
X98173D01*
X97757Y45748D02*
X96925D01*
Y45540D01*
X97757Y44708D01*
Y44500D01*
X82416Y60664D02*
Y61911D01*
X81793D01*
X81585Y61703D01*
Y61288D01*
X81793Y61080D01*
X82416D01*
X82001D02*
X81585Y60664D01*
X81169Y61496D02*
X80753Y60664D01*
X80337Y61496D01*
X79921Y60664D02*
X79298D01*
X79089Y60872D01*
X79298Y61080D01*
X79713D01*
X79921Y61288D01*
X79713Y61496D01*
X79089D01*
X77842Y61911D02*
X78258Y61703D01*
X78674Y61288D01*
Y60872D01*
X78466Y60664D01*
X78050D01*
X77842Y60872D01*
Y61080D01*
X78050Y61288D01*
X78674D01*
X50906Y125053D02*
Y126300D01*
X50282D01*
X50074Y126092D01*
Y125677D01*
X50282Y125469D01*
X50906D01*
X50490D02*
X50074Y125053D01*
X49658Y125884D02*
X49242Y125053D01*
X48826Y125884D01*
X48410Y125053D02*
X47786D01*
X47578Y125261D01*
X47786Y125469D01*
X48202D01*
X48410Y125677D01*
X48202Y125884D01*
X47578D01*
X46331Y126300D02*
X47163D01*
Y125677D01*
X46747Y125884D01*
X46539D01*
X46331Y125677D01*
Y125261D01*
X46539Y125053D01*
X46955D01*
X47163Y125261D01*
X58000Y151000D02*
Y152248D01*
X57376D01*
X57168Y152040D01*
Y151624D01*
X57376Y151416D01*
X58000D01*
X57584D02*
X57168Y151000D01*
X56752Y151832D02*
X56336Y151000D01*
X55921Y151832D01*
X55505Y151000D02*
X54881D01*
X54673Y151208D01*
X54881Y151416D01*
X55297D01*
X55505Y151624D01*
X55297Y151832D01*
X54673D01*
X53633Y151000D02*
Y152248D01*
X54257Y151624D01*
X53425D01*
X57500Y225500D02*
Y226748D01*
X56876D01*
X56668Y226540D01*
Y226124D01*
X56876Y225916D01*
X57500D01*
X57084D02*
X56668Y225500D01*
X56252Y226332D02*
X55836Y225500D01*
X55421Y226332D01*
X55005Y225500D02*
X54381D01*
X54173Y225708D01*
X54381Y225916D01*
X54797D01*
X55005Y226124D01*
X54797Y226332D01*
X54173D01*
X53757Y226540D02*
X53549Y226748D01*
X53133D01*
X52925Y226540D01*
Y226332D01*
X53133Y226124D01*
X53341D01*
X53133D01*
X52925Y225916D01*
Y225708D01*
X53133Y225500D01*
X53549D01*
X53757Y225708D01*
X48500Y243000D02*
Y244248D01*
X47876D01*
X47668Y244040D01*
Y243624D01*
X47876Y243416D01*
X48500D01*
X48084D02*
X47668Y243000D01*
X47252Y243832D02*
X46837Y243000D01*
X46421Y243832D01*
X46005Y243000D02*
X45381D01*
X45173Y243208D01*
X45381Y243416D01*
X45797D01*
X46005Y243624D01*
X45797Y243832D01*
X45173D01*
X43925Y243000D02*
X44757D01*
X43925Y243832D01*
Y244040D01*
X44133Y244248D01*
X44549D01*
X44757Y244040D01*
X47500Y288000D02*
Y289248D01*
X46876D01*
X46668Y289040D01*
Y288624D01*
X46876Y288416D01*
X47500D01*
X47084D02*
X46668Y288000D01*
X46252Y288832D02*
X45836Y288000D01*
X45421Y288832D01*
X45005Y288000D02*
X44381D01*
X44173Y288208D01*
X44381Y288416D01*
X44797D01*
X45005Y288624D01*
X44797Y288832D01*
X44173D01*
X43757Y288000D02*
X43341D01*
X43549D01*
Y289248D01*
X43757Y289040D01*
X46500Y326000D02*
Y327248D01*
X45876D01*
X45668Y327040D01*
Y326624D01*
X45876Y326416D01*
X46500D01*
X46084D02*
X45668Y326000D01*
X45252Y326832D02*
X44837Y326000D01*
X44421Y326832D01*
X44005Y326000D02*
X43381D01*
X43173Y326208D01*
X43381Y326416D01*
X43797D01*
X44005Y326624D01*
X43797Y326832D01*
X43173D01*
X42757Y327040D02*
X42549Y327248D01*
X42133D01*
X41925Y327040D01*
Y326208D01*
X42133Y326000D01*
X42549D01*
X42757Y326208D01*
Y327040D01*
X101500Y38500D02*
Y39748D01*
X100876D01*
X100668Y39540D01*
Y39124D01*
X100876Y38916D01*
X101500D01*
X101084D02*
X100668Y38500D01*
X100252D02*
X99836D01*
X100044D01*
Y39332D01*
X100252D01*
X99213Y38500D02*
Y39332D01*
X98589D01*
X98381Y39124D01*
Y38500D01*
X97965Y39748D02*
X97133D01*
Y39540D01*
X97965Y38708D01*
Y38500D01*
X82416Y44364D02*
Y45611D01*
X81793D01*
X81585Y45404D01*
Y44988D01*
X81793Y44780D01*
X82416D01*
X82001D02*
X81585Y44364D01*
X81169D02*
X80753D01*
X80961D01*
Y45195D01*
X81169D01*
X80129Y44364D02*
Y45195D01*
X79505D01*
X79298Y44988D01*
Y44364D01*
X78050Y45611D02*
X78466Y45404D01*
X78882Y44988D01*
Y44572D01*
X78674Y44364D01*
X78258D01*
X78050Y44572D01*
Y44780D01*
X78258Y44988D01*
X78882D01*
X39500Y119516D02*
Y120763D01*
X38876D01*
X38668Y120555D01*
Y120140D01*
X38876Y119932D01*
X39500D01*
X39084D02*
X38668Y119516D01*
X38252D02*
X37837D01*
X38044D01*
Y120347D01*
X38252D01*
X37213Y119516D02*
Y120347D01*
X36589D01*
X36381Y120140D01*
Y119516D01*
X35133Y120763D02*
X35965D01*
Y120140D01*
X35549Y120347D01*
X35341D01*
X35133Y120140D01*
Y119724D01*
X35341Y119516D01*
X35757D01*
X35965Y119724D01*
X58000Y142000D02*
Y143248D01*
X57376D01*
X57168Y143040D01*
Y142624D01*
X57376Y142416D01*
X58000D01*
X57584D02*
X57168Y142000D01*
X56752D02*
X56336D01*
X56544D01*
Y142832D01*
X56752D01*
X55713Y142000D02*
Y142832D01*
X55089D01*
X54881Y142624D01*
Y142000D01*
X53841D02*
Y143248D01*
X54465Y142624D01*
X53633D01*
X57500Y231000D02*
Y232248D01*
X56876D01*
X56668Y232040D01*
Y231624D01*
X56876Y231416D01*
X57500D01*
X57084D02*
X56668Y231000D01*
X56252D02*
X55836D01*
X56044D01*
Y231832D01*
X56252D01*
X55213Y231000D02*
Y231832D01*
X54589D01*
X54381Y231624D01*
Y231000D01*
X53965Y232040D02*
X53757Y232248D01*
X53341D01*
X53133Y232040D01*
Y231832D01*
X53341Y231624D01*
X53549D01*
X53341D01*
X53133Y231416D01*
Y231208D01*
X53341Y231000D01*
X53757D01*
X53965Y231208D01*
X47500Y238500D02*
Y239748D01*
X46876D01*
X46668Y239540D01*
Y239124D01*
X46876Y238916D01*
X47500D01*
X47084D02*
X46668Y238500D01*
X46252D02*
X45836D01*
X46044D01*
Y239332D01*
X46252D01*
X45213Y238500D02*
Y239332D01*
X44589D01*
X44381Y239124D01*
Y238500D01*
X43133D02*
X43965D01*
X43133Y239332D01*
Y239540D01*
X43341Y239748D01*
X43757D01*
X43965Y239540D01*
X47000Y283000D02*
Y284248D01*
X46376D01*
X46168Y284040D01*
Y283624D01*
X46376Y283416D01*
X47000D01*
X46584D02*
X46168Y283000D01*
X45752D02*
X45336D01*
X45544D01*
Y283832D01*
X45752D01*
X44713Y283000D02*
Y283832D01*
X44089D01*
X43881Y283624D01*
Y283000D01*
X43465D02*
X43049D01*
X43257D01*
Y284248D01*
X43465Y284040D01*
X47583Y320650D02*
Y321897D01*
X46959D01*
X46751Y321689D01*
Y321273D01*
X46959Y321065D01*
X47583D01*
X47167D02*
X46751Y320650D01*
X46335D02*
X45919D01*
X46127D01*
Y321481D01*
X46335D01*
X45295Y320650D02*
Y321481D01*
X44672D01*
X44464Y321273D01*
Y320650D01*
X44048Y321689D02*
X43840Y321897D01*
X43424D01*
X43216Y321689D01*
Y320858D01*
X43424Y320650D01*
X43840D01*
X44048Y320858D01*
Y321689D01*
X326869Y46716D02*
Y47963D01*
X326245D01*
X326037Y47755D01*
Y47340D01*
X326245Y47132D01*
X326869D01*
X326453D02*
X326037Y46716D01*
X324789Y47548D02*
X325413D01*
X325621Y47340D01*
Y46924D01*
X325413Y46716D01*
X324789D01*
X324373D02*
X323957D01*
X324165D01*
Y47548D01*
X324373D01*
X323334Y47963D02*
X322502D01*
Y47755D01*
X323334Y46924D01*
Y46716D01*
X300301Y54524D02*
Y55772D01*
X299677D01*
X299469Y55564D01*
Y55148D01*
X299677Y54940D01*
X300301D01*
X299885D02*
X299469Y54524D01*
X298221Y55356D02*
X298845D01*
X299053Y55148D01*
Y54732D01*
X298845Y54524D01*
X298221D01*
X297806D02*
X297390D01*
X297598D01*
Y55356D01*
X297806D01*
X295934Y55772D02*
X296350Y55564D01*
X296766Y55148D01*
Y54732D01*
X296558Y54524D01*
X296142D01*
X295934Y54732D01*
Y54940D01*
X296142Y55148D01*
X296766D01*
X258111Y49306D02*
Y50554D01*
X257487D01*
X257279Y50346D01*
Y49930D01*
X257487Y49722D01*
X258111D01*
X257695D02*
X257279Y49306D01*
X256032Y50138D02*
X256656D01*
X256863Y49930D01*
Y49514D01*
X256656Y49306D01*
X256032D01*
X255616D02*
X255200D01*
X255408D01*
Y50138D01*
X255616D01*
X253744Y50554D02*
X254576D01*
Y49930D01*
X254160Y50138D01*
X253952D01*
X253744Y49930D01*
Y49514D01*
X253952Y49306D01*
X254368D01*
X254576Y49514D01*
X227528Y61414D02*
Y62662D01*
X226905D01*
X226697Y62454D01*
Y62038D01*
X226905Y61830D01*
X227528D01*
X227113D02*
X226697Y61414D01*
X225449Y62246D02*
X226073D01*
X226281Y62038D01*
Y61622D01*
X226073Y61414D01*
X225449D01*
X225033D02*
X224617D01*
X224825D01*
Y62246D01*
X225033D01*
X223370Y61414D02*
Y62662D01*
X223993Y62038D01*
X223162D01*
X127968Y53354D02*
Y54602D01*
X127344D01*
X127136Y54394D01*
Y53978D01*
X127344Y53770D01*
X127968D01*
X127552D02*
X127136Y53354D01*
X125888Y54186D02*
X126512D01*
X126720Y53978D01*
Y53562D01*
X126512Y53354D01*
X125888D01*
X125473D02*
X125057D01*
X125265D01*
Y54186D01*
X125473D01*
X124433Y54394D02*
X124225Y54602D01*
X123809D01*
X123601Y54394D01*
Y54186D01*
X123809Y53978D01*
X124017D01*
X123809D01*
X123601Y53770D01*
Y53562D01*
X123809Y53354D01*
X124225D01*
X124433Y53562D01*
X94632Y80905D02*
Y82153D01*
X94008D01*
X93800Y81945D01*
Y81529D01*
X94008Y81321D01*
X94632D01*
X94216D02*
X93800Y80905D01*
X92553Y81737D02*
X93177D01*
X93385Y81529D01*
Y81113D01*
X93177Y80905D01*
X92553D01*
X92137D02*
X91721D01*
X91929D01*
Y81737D01*
X92137D01*
X90266Y80905D02*
X91097D01*
X90266Y81737D01*
Y81945D01*
X90474Y82153D01*
X90889D01*
X91097Y81945D01*
X50143Y85805D02*
Y87053D01*
X49519D01*
X49311Y86845D01*
Y86429D01*
X49519Y86221D01*
X50143D01*
X49727D02*
X49311Y85805D01*
X48063Y86637D02*
X48687D01*
X48895Y86429D01*
Y86014D01*
X48687Y85805D01*
X48063D01*
X47647D02*
X47231D01*
X47439D01*
Y86637D01*
X47647D01*
X46608Y85805D02*
X46192D01*
X46400D01*
Y87053D01*
X46608Y86845D01*
X47500Y43500D02*
Y44748D01*
X46876D01*
X46668Y44540D01*
Y44124D01*
X46876Y43916D01*
X47500D01*
X47084D02*
X46668Y43500D01*
X45421Y44332D02*
X46044D01*
X46252Y44124D01*
Y43708D01*
X46044Y43500D01*
X45421D01*
X45005D02*
X44589D01*
X44797D01*
Y44332D01*
X45005D01*
X43965Y44540D02*
X43757Y44748D01*
X43341D01*
X43133Y44540D01*
Y43708D01*
X43341Y43500D01*
X43757D01*
X43965Y43708D01*
Y44540D01*
X332434Y42370D02*
Y43618D01*
X331810D01*
X331602Y43410D01*
Y42994D01*
X331810Y42786D01*
X332434D01*
X332018D02*
X331602Y42370D01*
X330354Y43202D02*
X330978D01*
X331186Y42994D01*
Y42578D01*
X330978Y42370D01*
X330354D01*
X329523Y41954D02*
X329315D01*
X329107Y42162D01*
Y43202D01*
X329731D01*
X329939Y42994D01*
Y42578D01*
X329731Y42370D01*
X329107D01*
X328691Y43618D02*
X327859D01*
Y43410D01*
X328691Y42578D01*
Y42370D01*
X299002Y42420D02*
Y43667D01*
X298378D01*
X298170Y43459D01*
Y43044D01*
X298378Y42836D01*
X299002D01*
X298586D02*
X298170Y42420D01*
X296922Y43251D02*
X297546D01*
X297754Y43044D01*
Y42628D01*
X297546Y42420D01*
X296922D01*
X296091Y42004D02*
X295883D01*
X295675Y42212D01*
Y43251D01*
X296299D01*
X296507Y43044D01*
Y42628D01*
X296299Y42420D01*
X295675D01*
X294427Y43667D02*
X294843Y43459D01*
X295259Y43044D01*
Y42628D01*
X295051Y42420D01*
X294635D01*
X294427Y42628D01*
Y42836D01*
X294635Y43044D01*
X295259D01*
X263572Y44329D02*
Y45577D01*
X262948D01*
X262740Y45369D01*
Y44953D01*
X262948Y44745D01*
X263572D01*
X263156D02*
X262740Y44329D01*
X261492Y45161D02*
X262116D01*
X262324Y44953D01*
Y44537D01*
X262116Y44329D01*
X261492D01*
X260661Y43913D02*
X260453D01*
X260245Y44121D01*
Y45161D01*
X260869D01*
X261076Y44953D01*
Y44537D01*
X260869Y44329D01*
X260245D01*
X258997Y45577D02*
X259829D01*
Y44953D01*
X259413Y45161D01*
X259205D01*
X258997Y44953D01*
Y44537D01*
X259205Y44329D01*
X259621D01*
X259829Y44537D01*
X226134Y48488D02*
Y49736D01*
X225510D01*
X225302Y49528D01*
Y49112D01*
X225510Y48904D01*
X226134D01*
X225718D02*
X225302Y48488D01*
X224055Y49320D02*
X224678D01*
X224886Y49112D01*
Y48696D01*
X224678Y48488D01*
X224055D01*
X223223Y48072D02*
X223015D01*
X222807Y48280D01*
Y49320D01*
X223431D01*
X223639Y49112D01*
Y48696D01*
X223431Y48488D01*
X222807D01*
X221767D02*
Y49736D01*
X222391Y49112D01*
X221559D01*
X133447Y48344D02*
Y49591D01*
X132824D01*
X132616Y49383D01*
Y48967D01*
X132824Y48760D01*
X133447D01*
X133031D02*
X132616Y48344D01*
X131368Y49175D02*
X131992D01*
X132200Y48967D01*
Y48552D01*
X131992Y48344D01*
X131368D01*
X130536Y47928D02*
X130328D01*
X130120Y48136D01*
Y49175D01*
X130744D01*
X130952Y48967D01*
Y48552D01*
X130744Y48344D01*
X130120D01*
X129704Y49383D02*
X129497Y49591D01*
X129081D01*
X128873Y49383D01*
Y49175D01*
X129081Y48967D01*
X129289D01*
X129081D01*
X128873Y48760D01*
Y48552D01*
X129081Y48344D01*
X129497D01*
X129704Y48552D01*
X100532Y88006D02*
Y89253D01*
X99909D01*
X99700Y89045D01*
Y88629D01*
X99909Y88421D01*
X100532D01*
X100116D02*
X99700Y88006D01*
X98453Y88837D02*
X99077D01*
X99285Y88629D01*
Y88213D01*
X99077Y88006D01*
X98453D01*
X97621Y87590D02*
X97413D01*
X97205Y87798D01*
Y88837D01*
X97829D01*
X98037Y88629D01*
Y88213D01*
X97829Y88006D01*
X97205D01*
X95958D02*
X96789D01*
X95958Y88837D01*
Y89045D01*
X96166Y89253D01*
X96582D01*
X96789Y89045D01*
X49942Y88406D02*
Y89653D01*
X49319D01*
X49111Y89445D01*
Y89029D01*
X49319Y88821D01*
X49942D01*
X49527D02*
X49111Y88406D01*
X47863Y89237D02*
X48487D01*
X48695Y89029D01*
Y88613D01*
X48487Y88406D01*
X47863D01*
X47031Y87990D02*
X46823D01*
X46615Y88198D01*
Y89237D01*
X47239D01*
X47447Y89029D01*
Y88613D01*
X47239Y88406D01*
X46615D01*
X46200D02*
X45784D01*
X45992D01*
Y89653D01*
X46200Y89445D01*
X41500Y36500D02*
Y37748D01*
X40876D01*
X40668Y37540D01*
Y37124D01*
X40876Y36916D01*
X41500D01*
X41084D02*
X40668Y36500D01*
X39421Y37332D02*
X40044D01*
X40252Y37124D01*
Y36708D01*
X40044Y36500D01*
X39421D01*
X38589Y36084D02*
X38381D01*
X38173Y36292D01*
Y37332D01*
X38797D01*
X39005Y37124D01*
Y36708D01*
X38797Y36500D01*
X38173D01*
X37757Y37540D02*
X37549Y37748D01*
X37133D01*
X36925Y37540D01*
Y36708D01*
X37133Y36500D01*
X37549D01*
X37757Y36708D01*
Y37540D01*
X343300Y23653D02*
Y24900D01*
X342676D01*
X342468Y24692D01*
Y24277D01*
X342676Y24069D01*
X343300D01*
X342052Y24900D02*
X341221D01*
X341636D01*
Y23653D01*
X340805Y23445D02*
X339973D01*
X339557Y23653D02*
Y24900D01*
X338933D01*
X338725Y24692D01*
Y24277D01*
X338933Y24069D01*
X339557D01*
X339141D02*
X338725Y23653D01*
X337478Y24900D02*
X337894Y24692D01*
X338310Y24277D01*
Y23861D01*
X338102Y23653D01*
X337686D01*
X337478Y23861D01*
Y24069D01*
X337686Y24277D01*
X338310D01*
X336438Y23653D02*
Y24900D01*
X337062Y24277D01*
X336230D01*
X309817Y23684D02*
Y24932D01*
X309193D01*
X308985Y24724D01*
Y24308D01*
X309193Y24100D01*
X309817D01*
X308569Y24932D02*
X307737D01*
X308153D01*
Y23684D01*
X307321Y23476D02*
X306489D01*
X306074Y23684D02*
Y24932D01*
X305450D01*
X305242Y24724D01*
Y24308D01*
X305450Y24100D01*
X306074D01*
X305658D02*
X305242Y23684D01*
X303994Y24932D02*
X304410Y24724D01*
X304826Y24308D01*
Y23892D01*
X304618Y23684D01*
X304202D01*
X303994Y23892D01*
Y24100D01*
X304202Y24308D01*
X304826D01*
X303578Y24724D02*
X303370Y24932D01*
X302955D01*
X302747Y24724D01*
Y24516D01*
X302955Y24308D01*
X303163D01*
X302955D01*
X302747Y24100D01*
Y23892D01*
X302955Y23684D01*
X303370D01*
X303578Y23892D01*
X274359Y25653D02*
Y26900D01*
X273735D01*
X273527Y26692D01*
Y26277D01*
X273735Y26069D01*
X274359D01*
X273111Y26900D02*
X272280D01*
X272696D01*
Y25653D01*
X271864Y25445D02*
X271032D01*
X270616Y25653D02*
Y26900D01*
X269992D01*
X269784Y26692D01*
Y26277D01*
X269992Y26069D01*
X270616D01*
X270200D02*
X269784Y25653D01*
X268537Y26900D02*
X268953Y26692D01*
X269369Y26277D01*
Y25861D01*
X269161Y25653D01*
X268745D01*
X268537Y25861D01*
Y26069D01*
X268745Y26277D01*
X269369D01*
X267289Y25653D02*
X268121D01*
X267289Y26485D01*
Y26692D01*
X267497Y26900D01*
X267913D01*
X268121Y26692D01*
X237970Y34500D02*
Y35748D01*
X237346D01*
X237138Y35540D01*
Y35124D01*
X237346Y34916D01*
X237970D01*
X236722Y35748D02*
X235891D01*
X236307D01*
Y34500D01*
X235475Y34292D02*
X234643D01*
X234227Y34500D02*
Y35748D01*
X233603D01*
X233396Y35540D01*
Y35124D01*
X233603Y34916D01*
X234227D01*
X233811D02*
X233396Y34500D01*
X232148Y35748D02*
X232564Y35540D01*
X232980Y35124D01*
Y34708D01*
X232772Y34500D01*
X232356D01*
X232148Y34708D01*
Y34916D01*
X232356Y35124D01*
X232980D01*
X231732Y34500D02*
X231316D01*
X231524D01*
Y35748D01*
X231732Y35540D01*
X144442Y34528D02*
Y35775D01*
X143819D01*
X143611Y35567D01*
Y35151D01*
X143819Y34943D01*
X144442D01*
X143195Y35775D02*
X142363D01*
X142779D01*
Y34528D01*
X141947Y34320D02*
X141115D01*
X140700Y34528D02*
Y35775D01*
X140076D01*
X139868Y35567D01*
Y35151D01*
X140076Y34943D01*
X140700D01*
X140284D02*
X139868Y34528D01*
X138620Y35775D02*
X139036Y35567D01*
X139452Y35151D01*
Y34736D01*
X139244Y34528D01*
X138828D01*
X138620Y34736D01*
Y34943D01*
X138828Y35151D01*
X139452D01*
X138204Y35567D02*
X137996Y35775D01*
X137581D01*
X137373Y35567D01*
Y34736D01*
X137581Y34528D01*
X137996D01*
X138204Y34736D01*
Y35567D01*
X111021Y23684D02*
Y24932D01*
X110397D01*
X110189Y24724D01*
Y24308D01*
X110397Y24100D01*
X111021D01*
X109773Y24932D02*
X108942D01*
X109358D01*
Y23684D01*
X108526Y23476D02*
X107694D01*
X107278Y23684D02*
Y24932D01*
X106654D01*
X106446Y24724D01*
Y24308D01*
X106654Y24100D01*
X107278D01*
X106862D02*
X106446Y23684D01*
X105199Y24932D02*
X106030D01*
Y24308D01*
X105615Y24516D01*
X105407D01*
X105199Y24308D01*
Y23892D01*
X105407Y23684D01*
X105823D01*
X106030Y23892D01*
X104783D02*
X104575Y23684D01*
X104159D01*
X103951Y23892D01*
Y24724D01*
X104159Y24932D01*
X104575D01*
X104783Y24724D01*
Y24516D01*
X104575Y24308D01*
X103951D01*
X60816Y23700D02*
Y24948D01*
X60192D01*
X59984Y24740D01*
Y24324D01*
X60192Y24116D01*
X60816D01*
X59568Y24948D02*
X58736D01*
X59152D01*
Y23700D01*
X58320Y23492D02*
X57489D01*
X57073Y23700D02*
Y24948D01*
X56449D01*
X56241Y24740D01*
Y24324D01*
X56449Y24116D01*
X57073D01*
X56657D02*
X56241Y23700D01*
X54993Y24948D02*
X55825D01*
Y24324D01*
X55409Y24532D01*
X55201D01*
X54993Y24324D01*
Y23908D01*
X55201Y23700D01*
X55617D01*
X55825Y23908D01*
X54578Y24740D02*
X54370Y24948D01*
X53954D01*
X53746Y24740D01*
Y24532D01*
X53954Y24324D01*
X53746Y24116D01*
Y23908D01*
X53954Y23700D01*
X54370D01*
X54578Y23908D01*
Y24116D01*
X54370Y24324D01*
X54578Y24532D01*
Y24740D01*
X54370Y24324D02*
X53954D01*
X30500Y24500D02*
Y25748D01*
X29876D01*
X29668Y25540D01*
Y25124D01*
X29876Y24916D01*
X30500D01*
X29252Y25748D02*
X28421D01*
X28837D01*
Y24500D01*
X28005Y24292D02*
X27173D01*
X26757Y24500D02*
Y25748D01*
X26133D01*
X25925Y25540D01*
Y25124D01*
X26133Y24916D01*
X26757D01*
X26341D02*
X25925Y24500D01*
X24678Y25748D02*
X25510D01*
Y25124D01*
X25094Y25332D01*
X24886D01*
X24678Y25124D01*
Y24708D01*
X24886Y24500D01*
X25302D01*
X25510Y24708D01*
X24262Y25748D02*
X23430D01*
Y25540D01*
X24262Y24708D01*
Y24500D01*
X340784Y71400D02*
Y72648D01*
X340160D01*
X339952Y72440D01*
Y72024D01*
X340160Y71816D01*
X340784D01*
X339537Y72648D02*
X338705D01*
X339121D01*
Y71400D01*
X338289Y71192D02*
X337457D01*
X337041Y71400D02*
Y72648D01*
X336418D01*
X336210Y72440D01*
Y72024D01*
X336418Y71816D01*
X337041D01*
X336626D02*
X336210Y71400D01*
X334962Y72648D02*
X335794D01*
Y72024D01*
X335378Y72232D01*
X335170D01*
X334962Y72024D01*
Y71608D01*
X335170Y71400D01*
X335586D01*
X335794Y71608D01*
X333714Y72648D02*
X334130Y72440D01*
X334546Y72024D01*
Y71608D01*
X334338Y71400D01*
X333922D01*
X333714Y71608D01*
Y71816D01*
X333922Y72024D01*
X334546D01*
X309832Y70921D02*
Y72169D01*
X309208D01*
X309000Y71961D01*
Y71545D01*
X309208Y71337D01*
X309832D01*
X308585Y72169D02*
X307753D01*
X308169D01*
Y70921D01*
X307337Y70713D02*
X306505D01*
X306089Y70921D02*
Y72169D01*
X305466D01*
X305258Y71961D01*
Y71545D01*
X305466Y71337D01*
X306089D01*
X305674D02*
X305258Y70921D01*
X304010Y72169D02*
X304842D01*
Y71545D01*
X304426Y71753D01*
X304218D01*
X304010Y71545D01*
Y71129D01*
X304218Y70921D01*
X304634D01*
X304842Y71129D01*
X302762Y72169D02*
X303594D01*
Y71545D01*
X303178Y71753D01*
X302970D01*
X302762Y71545D01*
Y71129D01*
X302970Y70921D01*
X303386D01*
X303594Y71129D01*
X274359Y70953D02*
Y72200D01*
X273735D01*
X273527Y71992D01*
Y71577D01*
X273735Y71369D01*
X274359D01*
X273111Y72200D02*
X272280D01*
X272696D01*
Y70953D01*
X271864Y70745D02*
X271032D01*
X270616Y70953D02*
Y72200D01*
X269992D01*
X269784Y71992D01*
Y71577D01*
X269992Y71369D01*
X270616D01*
X270200D02*
X269784Y70953D01*
X268537Y72200D02*
X269369D01*
Y71577D01*
X268953Y71785D01*
X268745D01*
X268537Y71577D01*
Y71161D01*
X268745Y70953D01*
X269161D01*
X269369Y71161D01*
X267497Y70953D02*
Y72200D01*
X268121Y71577D01*
X267289D01*
X237986Y70884D02*
Y72132D01*
X237362D01*
X237154Y71924D01*
Y71508D01*
X237362Y71300D01*
X237986D01*
X236738Y72132D02*
X235907D01*
X236322D01*
Y70884D01*
X235491Y70676D02*
X234659D01*
X234243Y70884D02*
Y72132D01*
X233619D01*
X233411Y71924D01*
Y71508D01*
X233619Y71300D01*
X234243D01*
X233827D02*
X233411Y70884D01*
X232164Y72132D02*
X232995D01*
Y71508D01*
X232579Y71716D01*
X232371D01*
X232164Y71508D01*
Y71092D01*
X232371Y70884D01*
X232787D01*
X232995Y71092D01*
X231748Y71924D02*
X231540Y72132D01*
X231124D01*
X230916Y71924D01*
Y71716D01*
X231124Y71508D01*
X231332D01*
X231124D01*
X230916Y71300D01*
Y71092D01*
X231124Y70884D01*
X231540D01*
X231748Y71092D01*
X144475Y70961D02*
Y72208D01*
X143851D01*
X143643Y72000D01*
Y71584D01*
X143851Y71377D01*
X144475D01*
X143227Y72208D02*
X142395D01*
X142811D01*
Y70961D01*
X141980Y70753D02*
X141148D01*
X140732Y70961D02*
Y72208D01*
X140108D01*
X139900Y72000D01*
Y71584D01*
X140108Y71377D01*
X140732D01*
X140316D02*
X139900Y70961D01*
X138653Y72208D02*
X139484D01*
Y71584D01*
X139068Y71792D01*
X138860D01*
X138653Y71584D01*
Y71169D01*
X138860Y70961D01*
X139276D01*
X139484Y71169D01*
X137405Y70961D02*
X138237D01*
X137405Y71792D01*
Y72000D01*
X137613Y72208D01*
X138029D01*
X138237Y72000D01*
X110953Y70953D02*
Y72200D01*
X110329D01*
X110121Y71992D01*
Y71577D01*
X110329Y71369D01*
X110953D01*
X109705Y72200D02*
X108873D01*
X109289D01*
Y70953D01*
X108458Y70745D02*
X107626D01*
X107210Y70953D02*
Y72200D01*
X106586D01*
X106378Y71992D01*
Y71577D01*
X106586Y71369D01*
X107210D01*
X106794D02*
X106378Y70953D01*
X105131Y72200D02*
X105962D01*
Y71577D01*
X105546Y71785D01*
X105338D01*
X105131Y71577D01*
Y71161D01*
X105338Y70953D01*
X105754D01*
X105962Y71161D01*
X104715Y70953D02*
X104299D01*
X104507D01*
Y72200D01*
X104715Y71992D01*
X60769Y70953D02*
Y72200D01*
X60145D01*
X59937Y71992D01*
Y71577D01*
X60145Y71369D01*
X60769D01*
X59521Y72200D02*
X58689D01*
X59105D01*
Y70953D01*
X58273Y70745D02*
X57442D01*
X57026Y70953D02*
Y72200D01*
X56402D01*
X56194Y71992D01*
Y71577D01*
X56402Y71369D01*
X57026D01*
X56610D02*
X56194Y70953D01*
X54946Y72200D02*
X55778D01*
Y71577D01*
X55362Y71785D01*
X55154D01*
X54946Y71577D01*
Y71161D01*
X55154Y70953D01*
X55570D01*
X55778Y71161D01*
X54530Y71992D02*
X54322Y72200D01*
X53907D01*
X53699Y71992D01*
Y71161D01*
X53907Y70953D01*
X54322D01*
X54530Y71161D01*
Y71992D01*
X31231Y70868D02*
Y72116D01*
X30608D01*
X30400Y71908D01*
Y71492D01*
X30608Y71284D01*
X31231D01*
X29984Y72116D02*
X29152D01*
X29568D01*
Y70868D01*
X28736Y70661D02*
X27904D01*
X27489Y70868D02*
Y72116D01*
X26865D01*
X26657Y71908D01*
Y71492D01*
X26865Y71284D01*
X27489D01*
X27073D02*
X26657Y70868D01*
X25617D02*
Y72116D01*
X26241Y71492D01*
X25409D01*
X24993Y71076D02*
X24785Y70868D01*
X24370D01*
X24162Y71076D01*
Y71908D01*
X24370Y72116D01*
X24785D01*
X24993Y71908D01*
Y71700D01*
X24785Y71492D01*
X24162D01*
X340914Y99267D02*
Y100515D01*
X340290D01*
X340083Y100307D01*
Y99891D01*
X340290Y99683D01*
X340914D01*
X339667Y100515D02*
X338835D01*
X339251D01*
Y99267D01*
X338419Y99059D02*
X337587D01*
X337171Y99267D02*
Y100515D01*
X336548D01*
X336340Y100307D01*
Y99891D01*
X336548Y99683D01*
X337171D01*
X336755D02*
X336340Y99267D01*
X335300D02*
Y100515D01*
X335924Y99891D01*
X335092D01*
X334676Y100307D02*
X334468Y100515D01*
X334052D01*
X333844Y100307D01*
Y100099D01*
X334052Y99891D01*
X333844Y99683D01*
Y99475D01*
X334052Y99267D01*
X334468D01*
X334676Y99475D01*
Y99683D01*
X334468Y99891D01*
X334676Y100099D01*
Y100307D01*
X334468Y99891D02*
X334052D01*
X309832Y118137D02*
Y119385D01*
X309208D01*
X309000Y119177D01*
Y118761D01*
X309208Y118553D01*
X309832D01*
X308585Y119385D02*
X307753D01*
X308169D01*
Y118137D01*
X307337Y117929D02*
X306505D01*
X306089Y118137D02*
Y119385D01*
X305466D01*
X305258Y119177D01*
Y118761D01*
X305466Y118553D01*
X306089D01*
X305674D02*
X305258Y118137D01*
X304218D02*
Y119385D01*
X304842Y118761D01*
X304010D01*
X303594Y119385D02*
X302762D01*
Y119177D01*
X303594Y118345D01*
Y118137D01*
X273900Y105000D02*
Y106248D01*
X273276D01*
X273068Y106040D01*
Y105624D01*
X273276Y105416D01*
X273900D01*
X272652Y106248D02*
X271821D01*
X272236D01*
Y105000D01*
X271405Y104792D02*
X270573D01*
X270157Y105000D02*
Y106248D01*
X269533D01*
X269325Y106040D01*
Y105624D01*
X269533Y105416D01*
X270157D01*
X269741D02*
X269325Y105000D01*
X268286D02*
Y106248D01*
X268910Y105624D01*
X268078D01*
X266830Y106248D02*
X267246Y106040D01*
X267662Y105624D01*
Y105208D01*
X267454Y105000D01*
X267038D01*
X266830Y105208D01*
Y105416D01*
X267038Y105624D01*
X267662D01*
X238124Y119653D02*
Y120900D01*
X237500D01*
X237292Y120693D01*
Y120277D01*
X237500Y120069D01*
X238124D01*
X236876Y120900D02*
X236044D01*
X236460D01*
Y119653D01*
X235628Y119445D02*
X234797D01*
X234381Y119653D02*
Y120900D01*
X233757D01*
X233549Y120693D01*
Y120277D01*
X233757Y120069D01*
X234381D01*
X233965D02*
X233549Y119653D01*
X232509D02*
Y120900D01*
X233133Y120277D01*
X232301D01*
X231054Y120900D02*
X231886D01*
Y120277D01*
X231470Y120484D01*
X231262D01*
X231054Y120277D01*
Y119861D01*
X231262Y119653D01*
X231678D01*
X231886Y119861D01*
X144447Y118148D02*
Y119396D01*
X143823D01*
X143615Y119188D01*
Y118772D01*
X143823Y118564D01*
X144447D01*
X143200Y119396D02*
X142368D01*
X142784D01*
Y118148D01*
X141952Y117940D02*
X141120D01*
X140704Y118148D02*
Y119396D01*
X140080D01*
X139873Y119188D01*
Y118772D01*
X140080Y118564D01*
X140704D01*
X140288D02*
X139873Y118148D01*
X138833D02*
Y119396D01*
X139457Y118772D01*
X138625D01*
X137585Y118148D02*
Y119396D01*
X138209Y118772D01*
X137377D01*
X110968Y118184D02*
Y119432D01*
X110345D01*
X110137Y119224D01*
Y118808D01*
X110345Y118600D01*
X110968D01*
X109721Y119432D02*
X108889D01*
X109305D01*
Y118184D01*
X108473Y117976D02*
X107641D01*
X107226Y118184D02*
Y119432D01*
X106602D01*
X106394Y119224D01*
Y118808D01*
X106602Y118600D01*
X107226D01*
X106810D02*
X106394Y118184D01*
X105354D02*
Y119432D01*
X105978Y118808D01*
X105146D01*
X104730Y119224D02*
X104522Y119432D01*
X104106D01*
X103899Y119224D01*
Y119016D01*
X104106Y118808D01*
X104314D01*
X104106D01*
X103899Y118600D01*
Y118392D01*
X104106Y118184D01*
X104522D01*
X104730Y118392D01*
X60769Y118127D02*
Y119374D01*
X60145D01*
X59937Y119167D01*
Y118751D01*
X60145Y118543D01*
X60769D01*
X59521Y119374D02*
X58689D01*
X59105D01*
Y118127D01*
X58273Y117919D02*
X57442D01*
X57026Y118127D02*
Y119374D01*
X56402D01*
X56194Y119167D01*
Y118751D01*
X56402Y118543D01*
X57026D01*
X56610D02*
X56194Y118127D01*
X55154D02*
Y119374D01*
X55778Y118751D01*
X54946D01*
X53699Y118127D02*
X54530D01*
X53699Y118958D01*
Y119167D01*
X53907Y119374D01*
X54322D01*
X54530Y119167D01*
X31247Y99505D02*
Y100752D01*
X30623D01*
X30415Y100544D01*
Y100128D01*
X30623Y99921D01*
X31247D01*
X30000Y100752D02*
X29168D01*
X29584D01*
Y99505D01*
X28752Y99297D02*
X27920D01*
X27504Y99505D02*
Y100752D01*
X26880D01*
X26673Y100544D01*
Y100128D01*
X26880Y99921D01*
X27504D01*
X27088D02*
X26673Y99505D01*
X25633D02*
Y100752D01*
X26257Y100128D01*
X25425D01*
X25009Y99505D02*
X24593D01*
X24801D01*
Y100752D01*
X25009Y100544D01*
X340717Y118184D02*
Y119432D01*
X340093D01*
X339886Y119224D01*
Y118808D01*
X340093Y118600D01*
X340717D01*
X339470Y119432D02*
X338638D01*
X339054D01*
Y118184D01*
X338222Y117976D02*
X337390D01*
X336974Y118184D02*
Y119432D01*
X336351D01*
X336143Y119224D01*
Y118808D01*
X336351Y118600D01*
X336974D01*
X336559D02*
X336143Y118184D01*
X335103D02*
Y119432D01*
X335727Y118808D01*
X334895D01*
X334479Y119224D02*
X334271Y119432D01*
X333855D01*
X333647Y119224D01*
Y118392D01*
X333855Y118184D01*
X334271D01*
X334479Y118392D01*
Y119224D01*
X309832Y174268D02*
Y175516D01*
X309208D01*
X309000Y175308D01*
Y174892D01*
X309208Y174684D01*
X309832D01*
X308585Y175516D02*
X307753D01*
X308169D01*
Y174268D01*
X307337Y174061D02*
X306505D01*
X306089Y174268D02*
Y175516D01*
X305466D01*
X305258Y175308D01*
Y174892D01*
X305466Y174684D01*
X306089D01*
X305674D02*
X305258Y174268D01*
X304842Y175308D02*
X304634Y175516D01*
X304218D01*
X304010Y175308D01*
Y175100D01*
X304218Y174892D01*
X304426D01*
X304218D01*
X304010Y174684D01*
Y174476D01*
X304218Y174268D01*
X304634D01*
X304842Y174476D01*
X303594D02*
X303386Y174268D01*
X302970D01*
X302762Y174476D01*
Y175308D01*
X302970Y175516D01*
X303386D01*
X303594Y175308D01*
Y175100D01*
X303386Y174892D01*
X302762D01*
X279690Y175366D02*
Y176614D01*
X279066D01*
X278858Y176406D01*
Y175990D01*
X279066Y175782D01*
X279690D01*
X278442Y176614D02*
X277610D01*
X278026D01*
Y175366D01*
X277194Y175158D02*
X276363D01*
X275947Y175366D02*
Y176614D01*
X275323D01*
X275115Y176406D01*
Y175990D01*
X275323Y175782D01*
X275947D01*
X275531D02*
X275115Y175366D01*
X274699Y176406D02*
X274491Y176614D01*
X274075D01*
X273868Y176406D01*
Y176198D01*
X274075Y175990D01*
X274283D01*
X274075D01*
X273868Y175782D01*
Y175574D01*
X274075Y175366D01*
X274491D01*
X274699Y175574D01*
X273452Y176406D02*
X273244Y176614D01*
X272828D01*
X272620Y176406D01*
Y176198D01*
X272828Y175990D01*
X272620Y175782D01*
Y175574D01*
X272828Y175366D01*
X273244D01*
X273452Y175574D01*
Y175782D01*
X273244Y175990D01*
X273452Y176198D01*
Y176406D01*
X273244Y175990D02*
X272828D01*
X237986Y167253D02*
Y168500D01*
X237362D01*
X237154Y168292D01*
Y167877D01*
X237362Y167669D01*
X237986D01*
X236738Y168500D02*
X235907D01*
X236322D01*
Y167253D01*
X235491Y167045D02*
X234659D01*
X234243Y167253D02*
Y168500D01*
X233619D01*
X233411Y168292D01*
Y167877D01*
X233619Y167669D01*
X234243D01*
X233827D02*
X233411Y167253D01*
X232995Y168292D02*
X232787Y168500D01*
X232371D01*
X232164Y168292D01*
Y168084D01*
X232371Y167877D01*
X232579D01*
X232371D01*
X232164Y167669D01*
Y167461D01*
X232371Y167253D01*
X232787D01*
X232995Y167461D01*
X231748Y168500D02*
X230916D01*
Y168292D01*
X231748Y167461D01*
Y167253D01*
X144205Y167182D02*
Y168430D01*
X143581D01*
X143373Y168222D01*
Y167806D01*
X143581Y167598D01*
X144205D01*
X142957Y168430D02*
X142125D01*
X142541D01*
Y167182D01*
X141709Y166974D02*
X140878D01*
X140462Y167182D02*
Y168430D01*
X139838D01*
X139630Y168222D01*
Y167806D01*
X139838Y167598D01*
X140462D01*
X140046D02*
X139630Y167182D01*
X139214Y168222D02*
X139006Y168430D01*
X138590D01*
X138382Y168222D01*
Y168014D01*
X138590Y167806D01*
X138798D01*
X138590D01*
X138382Y167598D01*
Y167390D01*
X138590Y167182D01*
X139006D01*
X139214Y167390D01*
X137135Y168430D02*
X137551Y168222D01*
X137967Y167806D01*
Y167390D01*
X137759Y167182D01*
X137343D01*
X137135Y167390D01*
Y167598D01*
X137343Y167806D01*
X137967D01*
X110953Y168731D02*
Y169979D01*
X110329D01*
X110121Y169771D01*
Y169355D01*
X110329Y169147D01*
X110953D01*
X109705Y169979D02*
X108873D01*
X109289D01*
Y168731D01*
X108457Y168524D02*
X107626D01*
X107210Y168731D02*
Y169979D01*
X106586D01*
X106378Y169771D01*
Y169355D01*
X106586Y169147D01*
X107210D01*
X106794D02*
X106378Y168731D01*
X105962Y169771D02*
X105754Y169979D01*
X105338D01*
X105130Y169771D01*
Y169563D01*
X105338Y169355D01*
X105546D01*
X105338D01*
X105130Y169147D01*
Y168939D01*
X105338Y168731D01*
X105754D01*
X105962Y168939D01*
X103883Y169979D02*
X104715D01*
Y169355D01*
X104299Y169563D01*
X104091D01*
X103883Y169355D01*
Y168939D01*
X104091Y168731D01*
X104507D01*
X104715Y168939D01*
X60753Y174253D02*
Y175500D01*
X60129D01*
X59921Y175293D01*
Y174877D01*
X60129Y174669D01*
X60753D01*
X59505Y175500D02*
X58673D01*
X59089D01*
Y174253D01*
X58258Y174045D02*
X57426D01*
X57010Y174253D02*
Y175500D01*
X56386D01*
X56178Y175293D01*
Y174877D01*
X56386Y174669D01*
X57010D01*
X56594D02*
X56178Y174253D01*
X55762Y175293D02*
X55554Y175500D01*
X55138D01*
X54931Y175293D01*
Y175084D01*
X55138Y174877D01*
X55346D01*
X55138D01*
X54931Y174669D01*
Y174461D01*
X55138Y174253D01*
X55554D01*
X55762Y174461D01*
X53891Y174253D02*
Y175500D01*
X54515Y174877D01*
X53683D01*
X31284Y118179D02*
Y119426D01*
X30660D01*
X30452Y119218D01*
Y118802D01*
X30660Y118595D01*
X31284D01*
X30037Y119426D02*
X29205D01*
X29621D01*
Y118179D01*
X28789Y117971D02*
X27957D01*
X27541Y118179D02*
Y119426D01*
X26918D01*
X26710Y119218D01*
Y118802D01*
X26918Y118595D01*
X27541D01*
X27125D02*
X26710Y118179D01*
X26294Y119218D02*
X26086Y119426D01*
X25670D01*
X25462Y119218D01*
Y119010D01*
X25670Y118802D01*
X25878D01*
X25670D01*
X25462Y118595D01*
Y118387D01*
X25670Y118179D01*
X26086D01*
X26294Y118387D01*
X25046Y119218D02*
X24838Y119426D01*
X24422D01*
X24214Y119218D01*
Y119010D01*
X24422Y118802D01*
X24630D01*
X24422D01*
X24214Y118595D01*
Y118387D01*
X24422Y118179D01*
X24838D01*
X25046Y118387D01*
X343237Y232290D02*
Y233537D01*
X342613D01*
X342405Y233330D01*
Y232914D01*
X342613Y232706D01*
X343237D01*
X341989Y233537D02*
X341158D01*
X341574D01*
Y232290D01*
X340742Y232082D02*
X339910D01*
X339494Y232290D02*
Y233537D01*
X338870D01*
X338662Y233330D01*
Y232914D01*
X338870Y232706D01*
X339494D01*
X339078D02*
X338662Y232290D01*
X338246Y233330D02*
X338038Y233537D01*
X337623D01*
X337415Y233330D01*
Y233121D01*
X337623Y232914D01*
X337831D01*
X337623D01*
X337415Y232706D01*
Y232498D01*
X337623Y232290D01*
X338038D01*
X338246Y232498D01*
X336167Y232290D02*
X336999D01*
X336167Y233121D01*
Y233330D01*
X336375Y233537D01*
X336791D01*
X336999Y233330D01*
X309832Y190053D02*
Y191300D01*
X309208D01*
X309000Y191092D01*
Y190677D01*
X309208Y190469D01*
X309832D01*
X308585Y191300D02*
X307753D01*
X308169D01*
Y190053D01*
X307337Y189845D02*
X306505D01*
X306089Y190053D02*
Y191300D01*
X305466D01*
X305258Y191092D01*
Y190677D01*
X305466Y190469D01*
X306089D01*
X305674D02*
X305258Y190053D01*
X304842Y191092D02*
X304634Y191300D01*
X304218D01*
X304010Y191092D01*
Y190884D01*
X304218Y190677D01*
X304426D01*
X304218D01*
X304010Y190469D01*
Y190261D01*
X304218Y190053D01*
X304634D01*
X304842Y190261D01*
X303594Y190053D02*
X303178D01*
X303386D01*
Y191300D01*
X303594Y191092D01*
X278690Y188639D02*
Y189887D01*
X278066D01*
X277858Y189679D01*
Y189263D01*
X278066Y189055D01*
X278690D01*
X277442Y189887D02*
X276610D01*
X277026D01*
Y188639D01*
X276195Y188431D02*
X275363D01*
X274947Y188639D02*
Y189887D01*
X274323D01*
X274115Y189679D01*
Y189263D01*
X274323Y189055D01*
X274947D01*
X274531D02*
X274115Y188639D01*
X273699Y189679D02*
X273491Y189887D01*
X273075D01*
X272867Y189679D01*
Y189471D01*
X273075Y189263D01*
X273283D01*
X273075D01*
X272867Y189055D01*
Y188847D01*
X273075Y188639D01*
X273491D01*
X273699Y188847D01*
X272452Y189679D02*
X272244Y189887D01*
X271828D01*
X271620Y189679D01*
Y188847D01*
X271828Y188639D01*
X272244D01*
X272452Y188847D01*
Y189679D01*
X205200Y191100D02*
Y192348D01*
X204576D01*
X204368Y192140D01*
Y191724D01*
X204576Y191516D01*
X205200D01*
X203952Y192348D02*
X203121D01*
X203537D01*
Y191100D01*
X202705Y190892D02*
X201873D01*
X201457Y191100D02*
Y192348D01*
X200833D01*
X200625Y192140D01*
Y191724D01*
X200833Y191516D01*
X201457D01*
X201041D02*
X200625Y191100D01*
X199378D02*
X200209D01*
X199378Y191932D01*
Y192140D01*
X199586Y192348D01*
X200002D01*
X200209Y192140D01*
X198962Y191308D02*
X198754Y191100D01*
X198338D01*
X198130Y191308D01*
Y192140D01*
X198338Y192348D01*
X198754D01*
X198962Y192140D01*
Y191932D01*
X198754Y191724D01*
X198130D01*
X144205Y191134D02*
Y192382D01*
X143581D01*
X143373Y192174D01*
Y191758D01*
X143581Y191550D01*
X144205D01*
X142957Y192382D02*
X142125D01*
X142541D01*
Y191134D01*
X141709Y190926D02*
X140878D01*
X140462Y191134D02*
Y192382D01*
X139838D01*
X139630Y192174D01*
Y191758D01*
X139838Y191550D01*
X140462D01*
X140046D02*
X139630Y191134D01*
X138382D02*
X139214D01*
X138382Y191966D01*
Y192174D01*
X138590Y192382D01*
X139006D01*
X139214Y192174D01*
X137967D02*
X137759Y192382D01*
X137343D01*
X137135Y192174D01*
Y191966D01*
X137343Y191758D01*
X137135Y191550D01*
Y191342D01*
X137343Y191134D01*
X137759D01*
X137967Y191342D01*
Y191550D01*
X137759Y191758D01*
X137967Y191966D01*
Y192174D01*
X137759Y191758D02*
X137343D01*
X110937Y199469D02*
Y200716D01*
X110313D01*
X110105Y200508D01*
Y200092D01*
X110313Y199884D01*
X110937D01*
X109689Y200716D02*
X108857D01*
X109273D01*
Y199469D01*
X108442Y199261D02*
X107610D01*
X107194Y199469D02*
Y200716D01*
X106570D01*
X106362Y200508D01*
Y200092D01*
X106570Y199884D01*
X107194D01*
X106778D02*
X106362Y199469D01*
X105115D02*
X105946D01*
X105115Y200300D01*
Y200508D01*
X105323Y200716D01*
X105738D01*
X105946Y200508D01*
X104699Y200716D02*
X103867D01*
Y200508D01*
X104699Y199676D01*
Y199469D01*
X60682Y198971D02*
Y200219D01*
X60058D01*
X59850Y200011D01*
Y199595D01*
X60058Y199387D01*
X60682D01*
X59434Y200219D02*
X58602D01*
X59018D01*
Y198971D01*
X58187Y198763D02*
X57355D01*
X56939Y198971D02*
Y200219D01*
X56315D01*
X56107Y200011D01*
Y199595D01*
X56315Y199387D01*
X56939D01*
X56523D02*
X56107Y198971D01*
X54860D02*
X55691D01*
X54860Y199803D01*
Y200011D01*
X55068Y200219D01*
X55483D01*
X55691Y200011D01*
X53612Y200219D02*
X54028Y200011D01*
X54444Y199595D01*
Y199179D01*
X54236Y198971D01*
X53820D01*
X53612Y199179D01*
Y199387D01*
X53820Y199595D01*
X54444D01*
X31216Y232306D02*
Y233553D01*
X30592D01*
X30384Y233345D01*
Y232929D01*
X30592Y232721D01*
X31216D01*
X29968Y233553D02*
X29136D01*
X29552D01*
Y232306D01*
X28721Y232098D02*
X27889D01*
X27473Y232306D02*
Y233553D01*
X26849D01*
X26641Y233345D01*
Y232929D01*
X26849Y232721D01*
X27473D01*
X27057D02*
X26641Y232306D01*
X25394D02*
X26225D01*
X25394Y233137D01*
Y233345D01*
X25601Y233553D01*
X26017D01*
X26225Y233345D01*
X24146Y233553D02*
X24978D01*
Y232929D01*
X24562Y233137D01*
X24354D01*
X24146Y232929D01*
Y232513D01*
X24354Y232306D01*
X24770D01*
X24978Y232513D01*
X343300Y259900D02*
Y261148D01*
X342676D01*
X342468Y260940D01*
Y260524D01*
X342676Y260316D01*
X343300D01*
X342052Y261148D02*
X341221D01*
X341636D01*
Y259900D01*
X340805Y259692D02*
X339973D01*
X339557Y259900D02*
Y261148D01*
X338933D01*
X338725Y260940D01*
Y260524D01*
X338933Y260316D01*
X339557D01*
X339141D02*
X338725Y259900D01*
X337478D02*
X338310D01*
X337478Y260732D01*
Y260940D01*
X337686Y261148D01*
X338102D01*
X338310Y260940D01*
X336438Y259900D02*
Y261148D01*
X337062Y260524D01*
X336230D01*
X309832Y259937D02*
Y261185D01*
X309208D01*
X309000Y260977D01*
Y260561D01*
X309208Y260353D01*
X309832D01*
X308585Y261185D02*
X307753D01*
X308169D01*
Y259937D01*
X307337Y259729D02*
X306505D01*
X306089Y259937D02*
Y261185D01*
X305466D01*
X305258Y260977D01*
Y260561D01*
X305466Y260353D01*
X306089D01*
X305674D02*
X305258Y259937D01*
X304010D02*
X304842D01*
X304010Y260769D01*
Y260977D01*
X304218Y261185D01*
X304634D01*
X304842Y260977D01*
X303594D02*
X303386Y261185D01*
X302970D01*
X302762Y260977D01*
Y260769D01*
X302970Y260561D01*
X303178D01*
X302970D01*
X302762Y260353D01*
Y260145D01*
X302970Y259937D01*
X303386D01*
X303594Y260145D01*
X274375Y259937D02*
Y261185D01*
X273751D01*
X273543Y260977D01*
Y260561D01*
X273751Y260353D01*
X274375D01*
X273127Y261185D02*
X272295D01*
X272711D01*
Y259937D01*
X271880Y259729D02*
X271048D01*
X270632Y259937D02*
Y261185D01*
X270008D01*
X269800Y260977D01*
Y260561D01*
X270008Y260353D01*
X270632D01*
X270216D02*
X269800Y259937D01*
X268552D02*
X269384D01*
X268552Y260769D01*
Y260977D01*
X268760Y261185D01*
X269176D01*
X269384Y260977D01*
X267305Y259937D02*
X268137D01*
X267305Y260769D01*
Y260977D01*
X267513Y261185D01*
X267929D01*
X268137Y260977D01*
X226500Y262500D02*
Y263748D01*
X225876D01*
X225668Y263540D01*
Y263124D01*
X225876Y262916D01*
X226500D01*
X225252Y263748D02*
X224421D01*
X224836D01*
Y262500D01*
X224005Y262292D02*
X223173D01*
X222757Y262500D02*
Y263748D01*
X222133D01*
X221925Y263540D01*
Y263124D01*
X222133Y262916D01*
X222757D01*
X222341D02*
X221925Y262500D01*
X220678D02*
X221510D01*
X220678Y263332D01*
Y263540D01*
X220886Y263748D01*
X221302D01*
X221510Y263540D01*
X220262Y262500D02*
X219846D01*
X220054D01*
Y263748D01*
X220262Y263540D01*
X144468Y259932D02*
Y261180D01*
X143845D01*
X143637Y260972D01*
Y260556D01*
X143845Y260348D01*
X144468D01*
X143221Y261180D02*
X142389D01*
X142805D01*
Y259932D01*
X141973Y259724D02*
X141141D01*
X140726Y259932D02*
Y261180D01*
X140102D01*
X139894Y260972D01*
Y260556D01*
X140102Y260348D01*
X140726D01*
X140310D02*
X139894Y259932D01*
X138646D02*
X139478D01*
X138646Y260764D01*
Y260972D01*
X138854Y261180D01*
X139270D01*
X139478Y260972D01*
X138230D02*
X138022Y261180D01*
X137607D01*
X137399Y260972D01*
Y260140D01*
X137607Y259932D01*
X138022D01*
X138230Y260140D01*
Y260972D01*
X110937Y259921D02*
Y261169D01*
X110313D01*
X110105Y260961D01*
Y260545D01*
X110313Y260337D01*
X110937D01*
X109689Y261169D02*
X108857D01*
X109273D01*
Y259921D01*
X108441Y259713D02*
X107610D01*
X107194Y259921D02*
Y261169D01*
X106570D01*
X106362Y260961D01*
Y260545D01*
X106570Y260337D01*
X107194D01*
X106778D02*
X106362Y259921D01*
X105946D02*
X105530D01*
X105738D01*
Y261169D01*
X105946Y260961D01*
X104907Y260129D02*
X104699Y259921D01*
X104283D01*
X104075Y260129D01*
Y260961D01*
X104283Y261169D01*
X104699D01*
X104907Y260961D01*
Y260753D01*
X104699Y260545D01*
X104075D01*
X60769Y259864D02*
Y261111D01*
X60145D01*
X59937Y260904D01*
Y260488D01*
X60145Y260280D01*
X60769D01*
X59521Y261111D02*
X58689D01*
X59105D01*
Y259864D01*
X58273Y259656D02*
X57442D01*
X57026Y259864D02*
Y261111D01*
X56402D01*
X56194Y260904D01*
Y260488D01*
X56402Y260280D01*
X57026D01*
X56610D02*
X56194Y259864D01*
X55778D02*
X55362D01*
X55570D01*
Y261111D01*
X55778Y260904D01*
X54738D02*
X54530Y261111D01*
X54115D01*
X53907Y260904D01*
Y260696D01*
X54115Y260488D01*
X53907Y260280D01*
Y260072D01*
X54115Y259864D01*
X54530D01*
X54738Y260072D01*
Y260280D01*
X54530Y260488D01*
X54738Y260696D01*
Y260904D01*
X54530Y260488D02*
X54115D01*
X31247Y259900D02*
Y261148D01*
X30623D01*
X30415Y260940D01*
Y260524D01*
X30623Y260316D01*
X31247D01*
X30000Y261148D02*
X29168D01*
X29584D01*
Y259900D01*
X28752Y259692D02*
X27920D01*
X27504Y259900D02*
Y261148D01*
X26880D01*
X26673Y260940D01*
Y260524D01*
X26880Y260316D01*
X27504D01*
X27088D02*
X26673Y259900D01*
X26257D02*
X25841D01*
X26049D01*
Y261148D01*
X26257Y260940D01*
X25217Y261148D02*
X24385D01*
Y260940D01*
X25217Y260108D01*
Y259900D01*
X343263Y307147D02*
Y308395D01*
X342639D01*
X342431Y308187D01*
Y307771D01*
X342639Y307563D01*
X343263D01*
X342015Y308395D02*
X341184D01*
X341599D01*
Y307147D01*
X340768Y306939D02*
X339936D01*
X339520Y307147D02*
Y308395D01*
X338896D01*
X338688Y308187D01*
Y307771D01*
X338896Y307563D01*
X339520D01*
X339104D02*
X338688Y307147D01*
X338273D02*
X337857D01*
X338065D01*
Y308395D01*
X338273Y308187D01*
X336401Y308395D02*
X336817Y308187D01*
X337233Y307771D01*
Y307355D01*
X337025Y307147D01*
X336609D01*
X336401Y307355D01*
Y307563D01*
X336609Y307771D01*
X337233D01*
X309832Y307100D02*
Y308348D01*
X309208D01*
X309000Y308140D01*
Y307724D01*
X309208Y307516D01*
X309832D01*
X308585Y308348D02*
X307753D01*
X308169D01*
Y307100D01*
X307337Y306892D02*
X306505D01*
X306089Y307100D02*
Y308348D01*
X305466D01*
X305258Y308140D01*
Y307724D01*
X305466Y307516D01*
X306089D01*
X305674D02*
X305258Y307100D01*
X304842D02*
X304426D01*
X304634D01*
Y308348D01*
X304842Y308140D01*
X302970Y308348D02*
X303802D01*
Y307724D01*
X303386Y307932D01*
X303178D01*
X302970Y307724D01*
Y307308D01*
X303178Y307100D01*
X303594D01*
X303802Y307308D01*
X274375Y315011D02*
Y316259D01*
X273751D01*
X273543Y316051D01*
Y315635D01*
X273751Y315427D01*
X274375D01*
X273127Y316259D02*
X272295D01*
X272711D01*
Y315011D01*
X271880Y314803D02*
X271048D01*
X270632Y315011D02*
Y316259D01*
X270008D01*
X269800Y316051D01*
Y315635D01*
X270008Y315427D01*
X270632D01*
X270216D02*
X269800Y315011D01*
X269384D02*
X268968D01*
X269176D01*
Y316259D01*
X269384Y316051D01*
X267721Y315011D02*
Y316259D01*
X268345Y315635D01*
X267513D01*
X236986Y307127D02*
Y308374D01*
X236362D01*
X236154Y308166D01*
Y307751D01*
X236362Y307543D01*
X236986D01*
X235738Y308374D02*
X234907D01*
X235322D01*
Y307127D01*
X234491Y306919D02*
X233659D01*
X233243Y307127D02*
Y308374D01*
X232619D01*
X232411Y308166D01*
Y307751D01*
X232619Y307543D01*
X233243D01*
X232827D02*
X232411Y307127D01*
X231995D02*
X231579D01*
X231787D01*
Y308374D01*
X231995Y308166D01*
X230956D02*
X230748Y308374D01*
X230332D01*
X230124Y308166D01*
Y307959D01*
X230332Y307751D01*
X230540D01*
X230332D01*
X230124Y307543D01*
Y307335D01*
X230332Y307127D01*
X230748D01*
X230956Y307335D01*
X144421Y307117D02*
Y308364D01*
X143798D01*
X143589Y308156D01*
Y307740D01*
X143798Y307532D01*
X144421D01*
X143174Y308364D02*
X142342D01*
X142758D01*
Y307117D01*
X141926Y306909D02*
X141094D01*
X140678Y307117D02*
Y308364D01*
X140055D01*
X139847Y308156D01*
Y307740D01*
X140055Y307532D01*
X140678D01*
X140262D02*
X139847Y307117D01*
X139431D02*
X139015D01*
X139223D01*
Y308364D01*
X139431Y308156D01*
X137559Y307117D02*
X138391D01*
X137559Y307948D01*
Y308156D01*
X137767Y308364D01*
X138183D01*
X138391Y308156D01*
X110927Y307132D02*
Y308379D01*
X110303D01*
X110095Y308171D01*
Y307755D01*
X110303Y307547D01*
X110927D01*
X109679Y308379D02*
X108847D01*
X109263D01*
Y307132D01*
X108431Y306924D02*
X107600D01*
X107184Y307132D02*
Y308379D01*
X106560D01*
X106352Y308171D01*
Y307755D01*
X106560Y307547D01*
X107184D01*
X106768D02*
X106352Y307132D01*
X105936D02*
X105520D01*
X105728D01*
Y308379D01*
X105936Y308171D01*
X104896Y307132D02*
X104481D01*
X104689D01*
Y308379D01*
X104896Y308171D01*
X60769Y307153D02*
Y308400D01*
X60145D01*
X59937Y308192D01*
Y307777D01*
X60145Y307569D01*
X60769D01*
X59521Y308400D02*
X58689D01*
X59105D01*
Y307153D01*
X58273Y306945D02*
X57442D01*
X57026Y307153D02*
Y308400D01*
X56402D01*
X56194Y308192D01*
Y307777D01*
X56402Y307569D01*
X57026D01*
X56610D02*
X56194Y307153D01*
X55778D02*
X55362D01*
X55570D01*
Y308400D01*
X55778Y308192D01*
X54738D02*
X54530Y308400D01*
X54115D01*
X53907Y308192D01*
Y307361D01*
X54115Y307153D01*
X54530D01*
X54738Y307361D01*
Y308192D01*
X31231Y307169D02*
Y308416D01*
X30608D01*
X30400Y308208D01*
Y307792D01*
X30608Y307584D01*
X31231D01*
X29984Y308416D02*
X29152D01*
X29568D01*
Y307169D01*
X28736Y306961D02*
X27904D01*
X27489Y307169D02*
Y308416D01*
X26865D01*
X26657Y308208D01*
Y307792D01*
X26865Y307584D01*
X27489D01*
X27073D02*
X26657Y307169D01*
X26241Y307377D02*
X26033Y307169D01*
X25617D01*
X25409Y307377D01*
Y308208D01*
X25617Y308416D01*
X26033D01*
X26241Y308208D01*
Y308000D01*
X26033Y307792D01*
X25409D01*
X343300Y328800D02*
Y330048D01*
X342676D01*
X342468Y329840D01*
Y329424D01*
X342676Y329216D01*
X343300D01*
X342052Y330048D02*
X341221D01*
X341636D01*
Y328800D01*
X340805Y328592D02*
X339973D01*
X339557Y328800D02*
Y330048D01*
X338933D01*
X338725Y329840D01*
Y329424D01*
X338933Y329216D01*
X339557D01*
X339141D02*
X338725Y328800D01*
X338310Y329840D02*
X338102Y330048D01*
X337686D01*
X337478Y329840D01*
Y329632D01*
X337686Y329424D01*
X337478Y329216D01*
Y329008D01*
X337686Y328800D01*
X338102D01*
X338310Y329008D01*
Y329216D01*
X338102Y329424D01*
X338310Y329632D01*
Y329840D01*
X338102Y329424D02*
X337686D01*
X309817Y328816D02*
Y330063D01*
X309193D01*
X308985Y329855D01*
Y329440D01*
X309193Y329232D01*
X309817D01*
X308569Y330063D02*
X307737D01*
X308153D01*
Y328816D01*
X307321Y328608D02*
X306489D01*
X306074Y328816D02*
Y330063D01*
X305450D01*
X305242Y329855D01*
Y329440D01*
X305450Y329232D01*
X306074D01*
X305658D02*
X305242Y328816D01*
X304826Y330063D02*
X303994D01*
Y329855D01*
X304826Y329024D01*
Y328816D01*
X274391Y328800D02*
Y330048D01*
X273767D01*
X273559Y329840D01*
Y329424D01*
X273767Y329216D01*
X274391D01*
X273143Y330048D02*
X272311D01*
X272727D01*
Y328800D01*
X271895Y328592D02*
X271063D01*
X270648Y328800D02*
Y330048D01*
X270024D01*
X269816Y329840D01*
Y329424D01*
X270024Y329216D01*
X270648D01*
X270232D02*
X269816Y328800D01*
X268568Y330048D02*
X268984Y329840D01*
X269400Y329424D01*
Y329008D01*
X269192Y328800D01*
X268776D01*
X268568Y329008D01*
Y329216D01*
X268776Y329424D01*
X269400D01*
X236965Y319963D02*
Y321211D01*
X236341D01*
X236133Y321003D01*
Y320587D01*
X236341Y320379D01*
X236965D01*
X235717Y321211D02*
X234885D01*
X235301D01*
Y319963D01*
X234469Y319755D02*
X233638D01*
X233222Y319963D02*
Y321211D01*
X232598D01*
X232390Y321003D01*
Y320587D01*
X232598Y320379D01*
X233222D01*
X232806D02*
X232390Y319963D01*
X231142Y321211D02*
X231974D01*
Y320587D01*
X231558Y320795D01*
X231350D01*
X231142Y320587D01*
Y320171D01*
X231350Y319963D01*
X231766D01*
X231974Y320171D01*
X127969Y320400D02*
Y321648D01*
X127345D01*
X127137Y321440D01*
Y321024D01*
X127345Y320816D01*
X127969D01*
X126721Y321648D02*
X125889D01*
X126305D01*
Y320400D01*
X125473Y320192D02*
X124642D01*
X124226Y320400D02*
Y321648D01*
X123602D01*
X123394Y321440D01*
Y321024D01*
X123602Y320816D01*
X124226D01*
X123810D02*
X123394Y320400D01*
X122354D02*
Y321648D01*
X122978Y321024D01*
X122146D01*
X110968Y328795D02*
Y330042D01*
X110345D01*
X110137Y329834D01*
Y329418D01*
X110345Y329210D01*
X110968D01*
X109721Y330042D02*
X108889D01*
X109305D01*
Y328795D01*
X108473Y328587D02*
X107641D01*
X107226Y328795D02*
Y330042D01*
X106602D01*
X106394Y329834D01*
Y329418D01*
X106602Y329210D01*
X107226D01*
X106810D02*
X106394Y328795D01*
X105978Y329834D02*
X105770Y330042D01*
X105354D01*
X105146Y329834D01*
Y329626D01*
X105354Y329418D01*
X105562D01*
X105354D01*
X105146Y329210D01*
Y329002D01*
X105354Y328795D01*
X105770D01*
X105978Y329002D01*
X60769Y328832D02*
Y330079D01*
X60145D01*
X59937Y329871D01*
Y329455D01*
X60145Y329247D01*
X60769D01*
X59521Y330079D02*
X58689D01*
X59105D01*
Y328832D01*
X58273Y328624D02*
X57442D01*
X57026Y328832D02*
Y330079D01*
X56402D01*
X56194Y329871D01*
Y329455D01*
X56402Y329247D01*
X57026D01*
X56610D02*
X56194Y328832D01*
X54946D02*
X55778D01*
X54946Y329663D01*
Y329871D01*
X55154Y330079D01*
X55570D01*
X55778Y329871D01*
X31231Y328747D02*
Y329995D01*
X30608D01*
X30400Y329787D01*
Y329371D01*
X30608Y329163D01*
X31231D01*
X29984Y329995D02*
X29152D01*
X29568D01*
Y328747D01*
X28736Y328539D02*
X27904D01*
X27489Y328747D02*
Y329995D01*
X26865D01*
X26657Y329787D01*
Y329371D01*
X26865Y329163D01*
X27489D01*
X27073D02*
X26657Y328747D01*
X26241D02*
X25825D01*
X26033D01*
Y329995D01*
X26241Y329787D01*
X96343Y17775D02*
Y19022D01*
X95927Y18607D01*
X95512Y19022D01*
Y17775D01*
X94472Y19022D02*
X94888D01*
X95096Y18814D01*
Y17983D01*
X94888Y17775D01*
X94472D01*
X94264Y17983D01*
Y18814D01*
X94472Y19022D01*
X93016Y18814D02*
X93224Y19022D01*
X93640D01*
X93848Y18814D01*
Y18607D01*
X93640Y18399D01*
X93224D01*
X93016Y18191D01*
Y17983D01*
X93224Y17775D01*
X93640D01*
X93848Y17983D01*
X92600Y17775D02*
Y19022D01*
X91977D01*
X91769Y18814D01*
Y18399D01*
X91977Y18191D01*
X92600D01*
X91353Y19022D02*
X90521D01*
Y18814D01*
X91353Y17983D01*
Y17775D01*
X82916Y56164D02*
Y57411D01*
X82501Y56995D01*
X82085Y57411D01*
Y56164D01*
X81045Y57411D02*
X81461D01*
X81669Y57204D01*
Y56372D01*
X81461Y56164D01*
X81045D01*
X80837Y56372D01*
Y57204D01*
X81045Y57411D01*
X79589Y57204D02*
X79798Y57411D01*
X80213D01*
X80421Y57204D01*
Y56995D01*
X80213Y56788D01*
X79798D01*
X79589Y56580D01*
Y56372D01*
X79798Y56164D01*
X80213D01*
X80421Y56372D01*
X79174Y56164D02*
Y57411D01*
X78550D01*
X78342Y57204D01*
Y56788D01*
X78550Y56580D01*
X79174D01*
X77094Y57411D02*
X77510Y57204D01*
X77926Y56788D01*
Y56372D01*
X77718Y56164D01*
X77302D01*
X77094Y56372D01*
Y56580D01*
X77302Y56788D01*
X77926D01*
X51406Y109253D02*
Y110500D01*
X50990Y110084D01*
X50574Y110500D01*
Y109253D01*
X49534Y110500D02*
X49950D01*
X50158Y110292D01*
Y109461D01*
X49950Y109253D01*
X49534D01*
X49326Y109461D01*
Y110292D01*
X49534Y110500D01*
X48079Y110292D02*
X48286Y110500D01*
X48702D01*
X48910Y110292D01*
Y110084D01*
X48702Y109877D01*
X48286D01*
X48079Y109669D01*
Y109461D01*
X48286Y109253D01*
X48702D01*
X48910Y109461D01*
X47663Y109253D02*
Y110500D01*
X47039D01*
X46831Y110292D01*
Y109877D01*
X47039Y109669D01*
X47663D01*
X45583Y110500D02*
X46415D01*
Y109877D01*
X45999Y110084D01*
X45791D01*
X45583Y109877D01*
Y109461D01*
X45791Y109253D01*
X46207D01*
X46415Y109461D01*
X60000Y155500D02*
Y156748D01*
X59584Y156332D01*
X59168Y156748D01*
Y155500D01*
X58129Y156748D02*
X58544D01*
X58752Y156540D01*
Y155708D01*
X58544Y155500D01*
X58129D01*
X57921Y155708D01*
Y156540D01*
X58129Y156748D01*
X56673Y156540D02*
X56881Y156748D01*
X57297D01*
X57505Y156540D01*
Y156332D01*
X57297Y156124D01*
X56881D01*
X56673Y155916D01*
Y155708D01*
X56881Y155500D01*
X57297D01*
X57505Y155708D01*
X56257Y155500D02*
Y156748D01*
X55633D01*
X55425Y156540D01*
Y156124D01*
X55633Y155916D01*
X56257D01*
X54386Y155500D02*
Y156748D01*
X55010Y156124D01*
X54178D01*
X56000Y210000D02*
Y211248D01*
X55584Y210832D01*
X55168Y211248D01*
Y210000D01*
X54129Y211248D02*
X54544D01*
X54752Y211040D01*
Y210208D01*
X54544Y210000D01*
X54129D01*
X53921Y210208D01*
Y211040D01*
X54129Y211248D01*
X52673Y211040D02*
X52881Y211248D01*
X53297D01*
X53505Y211040D01*
Y210832D01*
X53297Y210624D01*
X52881D01*
X52673Y210416D01*
Y210208D01*
X52881Y210000D01*
X53297D01*
X53505Y210208D01*
X52257Y210000D02*
Y211248D01*
X51633D01*
X51425Y211040D01*
Y210624D01*
X51633Y210416D01*
X52257D01*
X51010Y211040D02*
X50801Y211248D01*
X50386D01*
X50178Y211040D01*
Y210832D01*
X50386Y210624D01*
X50594D01*
X50386D01*
X50178Y210416D01*
Y210208D01*
X50386Y210000D01*
X50801D01*
X51010Y210208D01*
X48500Y257000D02*
Y258248D01*
X48084Y257832D01*
X47668Y258248D01*
Y257000D01*
X46629Y258248D02*
X47044D01*
X47252Y258040D01*
Y257208D01*
X47044Y257000D01*
X46629D01*
X46421Y257208D01*
Y258040D01*
X46629Y258248D01*
X45173Y258040D02*
X45381Y258248D01*
X45797D01*
X46005Y258040D01*
Y257832D01*
X45797Y257624D01*
X45381D01*
X45173Y257416D01*
Y257208D01*
X45381Y257000D01*
X45797D01*
X46005Y257208D01*
X44757Y257000D02*
Y258248D01*
X44133D01*
X43925Y258040D01*
Y257624D01*
X44133Y257416D01*
X44757D01*
X42678Y257000D02*
X43510D01*
X42678Y257832D01*
Y258040D01*
X42886Y258248D01*
X43301D01*
X43510Y258040D01*
X44500Y309500D02*
Y310748D01*
X44084Y310332D01*
X43668Y310748D01*
Y309500D01*
X42629Y310748D02*
X43044D01*
X43252Y310540D01*
Y309708D01*
X43044Y309500D01*
X42629D01*
X42421Y309708D01*
Y310540D01*
X42629Y310748D01*
X41173Y310540D02*
X41381Y310748D01*
X41797D01*
X42005Y310540D01*
Y310332D01*
X41797Y310124D01*
X41381D01*
X41173Y309916D01*
Y309708D01*
X41381Y309500D01*
X41797D01*
X42005Y309708D01*
X40757Y309500D02*
Y310748D01*
X40133D01*
X39925Y310540D01*
Y310124D01*
X40133Y309916D01*
X40757D01*
X39509Y309500D02*
X39094D01*
X39301D01*
Y310748D01*
X39509Y310540D01*
X45500Y344000D02*
Y345248D01*
X45084Y344832D01*
X44668Y345248D01*
Y344000D01*
X43629Y345248D02*
X44044D01*
X44252Y345040D01*
Y344208D01*
X44044Y344000D01*
X43629D01*
X43421Y344208D01*
Y345040D01*
X43629Y345248D01*
X42173Y345040D02*
X42381Y345248D01*
X42797D01*
X43005Y345040D01*
Y344832D01*
X42797Y344624D01*
X42381D01*
X42173Y344416D01*
Y344208D01*
X42381Y344000D01*
X42797D01*
X43005Y344208D01*
X41757Y344000D02*
Y345248D01*
X41133D01*
X40925Y345040D01*
Y344624D01*
X41133Y344416D01*
X41757D01*
X40510Y345040D02*
X40301Y345248D01*
X39886D01*
X39678Y345040D01*
Y344208D01*
X39886Y344000D01*
X40301D01*
X40510Y344208D01*
Y345040D01*
X349761Y33573D02*
Y34821D01*
X349345Y34405D01*
X348929Y34821D01*
Y33573D01*
X347889Y34821D02*
X348305D01*
X348513Y34613D01*
Y33781D01*
X348305Y33573D01*
X347889D01*
X347681Y33781D01*
Y34613D01*
X347889Y34821D01*
X346434Y34613D02*
X346642Y34821D01*
X347058D01*
X347266Y34613D01*
Y34405D01*
X347058Y34197D01*
X346642D01*
X346434Y33989D01*
Y33781D01*
X346642Y33573D01*
X347058D01*
X347266Y33781D01*
X346018Y33573D02*
Y34821D01*
X345186Y33573D01*
Y34821D01*
X344770D02*
X343938D01*
Y34613D01*
X344770Y33781D01*
Y33573D01*
X316333Y33626D02*
Y34874D01*
X315917Y34458D01*
X315501Y34874D01*
Y33626D01*
X314462Y34874D02*
X314878D01*
X315086Y34666D01*
Y33834D01*
X314878Y33626D01*
X314462D01*
X314254Y33834D01*
Y34666D01*
X314462Y34874D01*
X313006Y34666D02*
X313214Y34874D01*
X313630D01*
X313838Y34666D01*
Y34458D01*
X313630Y34250D01*
X313214D01*
X313006Y34042D01*
Y33834D01*
X313214Y33626D01*
X313630D01*
X313838Y33834D01*
X312590Y33626D02*
Y34874D01*
X311759Y33626D01*
Y34874D01*
X310511D02*
X310927Y34666D01*
X311343Y34250D01*
Y33834D01*
X311135Y33626D01*
X310719D01*
X310511Y33834D01*
Y34042D01*
X310719Y34250D01*
X311343D01*
X280900Y35532D02*
Y36780D01*
X280484Y36364D01*
X280068Y36780D01*
Y35532D01*
X279029Y36780D02*
X279445D01*
X279653Y36572D01*
Y35740D01*
X279445Y35532D01*
X279029D01*
X278821Y35740D01*
Y36572D01*
X279029Y36780D01*
X277573Y36572D02*
X277781Y36780D01*
X278197D01*
X278405Y36572D01*
Y36364D01*
X278197Y36156D01*
X277781D01*
X277573Y35948D01*
Y35740D01*
X277781Y35532D01*
X278197D01*
X278405Y35740D01*
X277157Y35532D02*
Y36780D01*
X276325Y35532D01*
Y36780D01*
X275078D02*
X275910D01*
Y36156D01*
X275494Y36364D01*
X275286D01*
X275078Y36156D01*
Y35740D01*
X275286Y35532D01*
X275702D01*
X275910Y35740D01*
X243425Y40482D02*
Y41729D01*
X243009Y41313D01*
X242593Y41729D01*
Y40482D01*
X241553Y41729D02*
X241969D01*
X242177Y41521D01*
Y40690D01*
X241969Y40482D01*
X241553D01*
X241345Y40690D01*
Y41521D01*
X241553Y41729D01*
X240098Y41521D02*
X240306Y41729D01*
X240722D01*
X240929Y41521D01*
Y41313D01*
X240722Y41106D01*
X240306D01*
X240098Y40898D01*
Y40690D01*
X240306Y40482D01*
X240722D01*
X240929Y40690D01*
X239682Y40482D02*
Y41729D01*
X238850Y40482D01*
Y41729D01*
X237810Y40482D02*
Y41729D01*
X238434Y41106D01*
X237602D01*
X149951Y40531D02*
Y41779D01*
X149535Y41363D01*
X149119Y41779D01*
Y40531D01*
X148079Y41779D02*
X148495D01*
X148703Y41571D01*
Y40739D01*
X148495Y40531D01*
X148079D01*
X147871Y40739D01*
Y41571D01*
X148079Y41779D01*
X146624Y41571D02*
X146831Y41779D01*
X147247D01*
X147455Y41571D01*
Y41363D01*
X147247Y41155D01*
X146831D01*
X146624Y40947D01*
Y40739D01*
X146831Y40531D01*
X147247D01*
X147455Y40739D01*
X146208Y40531D02*
Y41779D01*
X145376Y40531D01*
Y41779D01*
X144960Y41571D02*
X144752Y41779D01*
X144336D01*
X144128Y41571D01*
Y41363D01*
X144336Y41155D01*
X144544D01*
X144336D01*
X144128Y40947D01*
Y40739D01*
X144336Y40531D01*
X144752D01*
X144960Y40739D01*
X116932Y79805D02*
Y81053D01*
X116516Y80637D01*
X116101Y81053D01*
Y79805D01*
X115061Y81053D02*
X115477D01*
X115685Y80845D01*
Y80014D01*
X115477Y79805D01*
X115061D01*
X114853Y80014D01*
Y80845D01*
X115061Y81053D01*
X113605Y80845D02*
X113813Y81053D01*
X114229D01*
X114437Y80845D01*
Y80637D01*
X114229Y80429D01*
X113813D01*
X113605Y80221D01*
Y80014D01*
X113813Y79805D01*
X114229D01*
X114437Y80014D01*
X113189Y79805D02*
Y81053D01*
X112358Y79805D01*
Y81053D01*
X111110Y79805D02*
X111942D01*
X111110Y80637D01*
Y80845D01*
X111318Y81053D01*
X111734D01*
X111942Y80845D01*
X67042Y79905D02*
Y81153D01*
X66627Y80737D01*
X66211Y81153D01*
Y79905D01*
X65171Y81153D02*
X65587D01*
X65795Y80945D01*
Y80114D01*
X65587Y79905D01*
X65171D01*
X64963Y80114D01*
Y80945D01*
X65171Y81153D01*
X63715Y80945D02*
X63924Y81153D01*
X64339D01*
X64547Y80945D01*
Y80737D01*
X64339Y80529D01*
X63924D01*
X63715Y80321D01*
Y80114D01*
X63924Y79905D01*
X64339D01*
X64547Y80114D01*
X63300Y79905D02*
Y81153D01*
X62468Y79905D01*
Y81153D01*
X62052Y79905D02*
X61636D01*
X61844D01*
Y81153D01*
X62052Y80945D01*
X32042Y34579D02*
Y35826D01*
X31626Y35410D01*
X31210Y35826D01*
Y34579D01*
X30170Y35826D02*
X30586D01*
X30794Y35618D01*
Y34787D01*
X30586Y34579D01*
X30170D01*
X29962Y34787D01*
Y35618D01*
X30170Y35826D01*
X28715Y35618D02*
X28923Y35826D01*
X29338D01*
X29546Y35618D01*
Y35410D01*
X29338Y35203D01*
X28923D01*
X28715Y34995D01*
Y34787D01*
X28923Y34579D01*
X29338D01*
X29546Y34787D01*
X28299Y34579D02*
Y35826D01*
X27467Y34579D01*
Y35826D01*
X27051Y35618D02*
X26843Y35826D01*
X26427D01*
X26219Y35618D01*
Y34787D01*
X26427Y34579D01*
X26843D01*
X27051Y34787D01*
Y35618D01*
X355095Y24948D02*
X354679D01*
X354887D01*
Y23700D01*
X355095D01*
X354679D01*
X354055D02*
Y24948D01*
X353431D01*
X353223Y24740D01*
Y24324D01*
X353431Y24116D01*
X354055D01*
X353639D02*
X353223Y23700D01*
X352807Y23492D02*
X351975D01*
X351559Y23700D02*
Y24948D01*
X350936D01*
X350728Y24740D01*
Y24324D01*
X350936Y24116D01*
X351559D01*
X351144D02*
X350728Y23700D01*
X349480Y24948D02*
X349896Y24740D01*
X350312Y24324D01*
Y23908D01*
X350104Y23700D01*
X349688D01*
X349480Y23908D01*
Y24116D01*
X349688Y24324D01*
X350312D01*
X348441Y23700D02*
Y24948D01*
X349064Y24324D01*
X348233D01*
X321617Y28848D02*
X321201D01*
X321409D01*
Y27600D01*
X321617D01*
X321201D01*
X320577D02*
Y28848D01*
X319953D01*
X319745Y28640D01*
Y28224D01*
X319953Y28016D01*
X320577D01*
X320161D02*
X319745Y27600D01*
X319329Y27392D02*
X318497D01*
X318082Y27600D02*
Y28848D01*
X317458D01*
X317250Y28640D01*
Y28224D01*
X317458Y28016D01*
X318082D01*
X317666D02*
X317250Y27600D01*
X316002Y28848D02*
X316418Y28640D01*
X316834Y28224D01*
Y27808D01*
X316626Y27600D01*
X316210D01*
X316002Y27808D01*
Y28016D01*
X316210Y28224D01*
X316834D01*
X315586Y28640D02*
X315378Y28848D01*
X314963D01*
X314755Y28640D01*
Y28432D01*
X314963Y28224D01*
X315170D01*
X314963D01*
X314755Y28016D01*
Y27808D01*
X314963Y27600D01*
X315378D01*
X315586Y27808D01*
X286169Y30811D02*
X285753D01*
X285961D01*
Y29564D01*
X286169D01*
X285753D01*
X285130D02*
Y30811D01*
X284506D01*
X284298Y30604D01*
Y30188D01*
X284506Y29980D01*
X285130D01*
X284714D02*
X284298Y29564D01*
X283882Y29356D02*
X283050D01*
X282634Y29564D02*
Y30811D01*
X282011D01*
X281803Y30604D01*
Y30188D01*
X282011Y29980D01*
X282634D01*
X282219D02*
X281803Y29564D01*
X280555Y30811D02*
X280971Y30604D01*
X281387Y30188D01*
Y29772D01*
X281179Y29564D01*
X280763D01*
X280555Y29772D01*
Y29980D01*
X280763Y30188D01*
X281387D01*
X279307Y29564D02*
X280139D01*
X279307Y30395D01*
Y30604D01*
X279515Y30811D01*
X279931D01*
X280139Y30604D01*
X249733Y35711D02*
X249317D01*
X249525D01*
Y34463D01*
X249733D01*
X249317D01*
X248693D02*
Y35711D01*
X248070D01*
X247862Y35503D01*
Y35087D01*
X248070Y34879D01*
X248693D01*
X248277D02*
X247862Y34463D01*
X247446Y34255D02*
X246614D01*
X246198Y34463D02*
Y35711D01*
X245574D01*
X245366Y35503D01*
Y35087D01*
X245574Y34879D01*
X246198D01*
X245782D02*
X245366Y34463D01*
X244119Y35711D02*
X244535Y35503D01*
X244951Y35087D01*
Y34671D01*
X244743Y34463D01*
X244327D01*
X244119Y34671D01*
Y34879D01*
X244327Y35087D01*
X244951D01*
X243703Y34463D02*
X243287D01*
X243495D01*
Y35711D01*
X243703Y35503D01*
X155305Y35695D02*
X154889D01*
X155097D01*
Y34447D01*
X155305D01*
X154889D01*
X154265D02*
Y35695D01*
X153641D01*
X153433Y35487D01*
Y35071D01*
X153641Y34863D01*
X154265D01*
X153849D02*
X153433Y34447D01*
X153017Y34239D02*
X152186D01*
X151770Y34447D02*
Y35695D01*
X151146D01*
X150938Y35487D01*
Y35071D01*
X151146Y34863D01*
X151770D01*
X151354D02*
X150938Y34447D01*
X149690Y35695D02*
X150106Y35487D01*
X150522Y35071D01*
Y34655D01*
X150314Y34447D01*
X149898D01*
X149690Y34655D01*
Y34863D01*
X149898Y35071D01*
X150522D01*
X149275Y35487D02*
X149066Y35695D01*
X148651D01*
X148443Y35487D01*
Y34655D01*
X148651Y34447D01*
X149066D01*
X149275Y34655D01*
Y35487D01*
X121790Y24911D02*
X121374D01*
X121582D01*
Y23663D01*
X121790D01*
X121374D01*
X120750D02*
Y24911D01*
X120126D01*
X119918Y24703D01*
Y24287D01*
X120126Y24079D01*
X120750D01*
X120334D02*
X119918Y23663D01*
X119502Y23455D02*
X118671D01*
X118255Y23663D02*
Y24911D01*
X117631D01*
X117423Y24703D01*
Y24287D01*
X117631Y24079D01*
X118255D01*
X117839D02*
X117423Y23663D01*
X116175Y24911D02*
X117007D01*
Y24287D01*
X116591Y24495D01*
X116383D01*
X116175Y24287D01*
Y23871D01*
X116383Y23663D01*
X116799D01*
X117007Y23871D01*
X115760D02*
X115552Y23663D01*
X115136D01*
X114928Y23871D01*
Y24703D01*
X115136Y24911D01*
X115552D01*
X115760Y24703D01*
Y24495D01*
X115552Y24287D01*
X114928D01*
X19500Y25748D02*
X19084D01*
X19292D01*
Y24500D01*
X19500D01*
X19084D01*
X18460D02*
Y25748D01*
X17837D01*
X17629Y25540D01*
Y25124D01*
X17837Y24916D01*
X18460D01*
X18044D02*
X17629Y24500D01*
X17213Y24292D02*
X16381D01*
X15965Y24500D02*
Y25748D01*
X15341D01*
X15133Y25540D01*
Y25124D01*
X15341Y24916D01*
X15965D01*
X15549D02*
X15133Y24500D01*
X13886Y25748D02*
X14717D01*
Y25124D01*
X14301Y25332D01*
X14094D01*
X13886Y25124D01*
Y24708D01*
X14094Y24500D01*
X14510D01*
X14717Y24708D01*
X13470Y25748D02*
X12638D01*
Y25540D01*
X13470Y24708D01*
Y24500D01*
X352553Y72700D02*
X352137D01*
X352345D01*
Y71453D01*
X352553D01*
X352137D01*
X351513D02*
Y72700D01*
X350889D01*
X350681Y72492D01*
Y72077D01*
X350889Y71869D01*
X351513D01*
X351097D02*
X350681Y71453D01*
X350265Y71245D02*
X349434D01*
X349018Y71453D02*
Y72700D01*
X348394D01*
X348186Y72492D01*
Y72077D01*
X348394Y71869D01*
X349018D01*
X348602D02*
X348186Y71453D01*
X346938Y72700D02*
X347770D01*
Y72077D01*
X347354Y72285D01*
X347146D01*
X346938Y72077D01*
Y71661D01*
X347146Y71453D01*
X347562D01*
X347770Y71661D01*
X345691Y72700D02*
X346107Y72492D01*
X346523Y72077D01*
Y71661D01*
X346315Y71453D01*
X345899D01*
X345691Y71661D01*
Y71869D01*
X345899Y72077D01*
X346523D01*
X321595Y72148D02*
X321179D01*
X321387D01*
Y70900D01*
X321595D01*
X321179D01*
X320556D02*
Y72148D01*
X319932D01*
X319724Y71940D01*
Y71524D01*
X319932Y71316D01*
X320556D01*
X320140D02*
X319724Y70900D01*
X319308Y70692D02*
X318476D01*
X318060Y70900D02*
Y72148D01*
X317437D01*
X317229Y71940D01*
Y71524D01*
X317437Y71316D01*
X318060D01*
X317644D02*
X317229Y70900D01*
X315981Y72148D02*
X316813D01*
Y71524D01*
X316397Y71732D01*
X316189D01*
X315981Y71524D01*
Y71108D01*
X316189Y70900D01*
X316605D01*
X316813Y71108D01*
X314733Y72148D02*
X315565D01*
Y71524D01*
X315149Y71732D01*
X314941D01*
X314733Y71524D01*
Y71108D01*
X314941Y70900D01*
X315357D01*
X315565Y71108D01*
X286206Y72148D02*
X285790D01*
X285998D01*
Y70900D01*
X286206D01*
X285790D01*
X285167D02*
Y72148D01*
X284543D01*
X284335Y71940D01*
Y71524D01*
X284543Y71316D01*
X285167D01*
X284751D02*
X284335Y70900D01*
X283919Y70692D02*
X283087D01*
X282671Y70900D02*
Y72148D01*
X282048D01*
X281840Y71940D01*
Y71524D01*
X282048Y71316D01*
X282671D01*
X282256D02*
X281840Y70900D01*
X280592Y72148D02*
X281424D01*
Y71524D01*
X281008Y71732D01*
X280800D01*
X280592Y71524D01*
Y71108D01*
X280800Y70900D01*
X281216D01*
X281424Y71108D01*
X279552Y70900D02*
Y72148D01*
X280176Y71524D01*
X279344D01*
X249786Y72169D02*
X249370D01*
X249578D01*
Y70921D01*
X249786D01*
X249370D01*
X248746D02*
Y72169D01*
X248122D01*
X247914Y71961D01*
Y71545D01*
X248122Y71337D01*
X248746D01*
X248330D02*
X247914Y70921D01*
X247498Y70713D02*
X246667D01*
X246251Y70921D02*
Y72169D01*
X245627D01*
X245419Y71961D01*
Y71545D01*
X245627Y71337D01*
X246251D01*
X245835D02*
X245419Y70921D01*
X244172Y72169D02*
X245003D01*
Y71545D01*
X244587Y71753D01*
X244379D01*
X244172Y71545D01*
Y71129D01*
X244379Y70921D01*
X244795D01*
X245003Y71129D01*
X243756Y71961D02*
X243548Y72169D01*
X243132D01*
X242924Y71961D01*
Y71753D01*
X243132Y71545D01*
X243340D01*
X243132D01*
X242924Y71337D01*
Y71129D01*
X243132Y70921D01*
X243548D01*
X243756Y71129D01*
X155312Y72148D02*
X154896D01*
X155104D01*
Y70900D01*
X155312D01*
X154896D01*
X154272D02*
Y72148D01*
X153648D01*
X153440Y71940D01*
Y71524D01*
X153648Y71316D01*
X154272D01*
X153856D02*
X153440Y70900D01*
X153024Y70692D02*
X152193D01*
X151777Y70900D02*
Y72148D01*
X151153D01*
X150945Y71940D01*
Y71524D01*
X151153Y71316D01*
X151777D01*
X151361D02*
X150945Y70900D01*
X149697Y72148D02*
X150529D01*
Y71524D01*
X150113Y71732D01*
X149905D01*
X149697Y71524D01*
Y71108D01*
X149905Y70900D01*
X150321D01*
X150529Y71108D01*
X148450Y70900D02*
X149282D01*
X148450Y71732D01*
Y71940D01*
X148658Y72148D01*
X149074D01*
X149282Y71940D01*
X121816Y72132D02*
X121400D01*
X121608D01*
Y70884D01*
X121816D01*
X121400D01*
X120776D02*
Y72132D01*
X120152D01*
X119944Y71924D01*
Y71508D01*
X120152Y71300D01*
X120776D01*
X120360D02*
X119944Y70884D01*
X119528Y70676D02*
X118697D01*
X118281Y70884D02*
Y72132D01*
X117657D01*
X117449Y71924D01*
Y71508D01*
X117657Y71300D01*
X118281D01*
X117865D02*
X117449Y70884D01*
X116201Y72132D02*
X117033D01*
Y71508D01*
X116617Y71716D01*
X116409D01*
X116201Y71508D01*
Y71092D01*
X116409Y70884D01*
X116825D01*
X117033Y71092D01*
X115786Y70884D02*
X115370D01*
X115578D01*
Y72132D01*
X115786Y71924D01*
X71584Y72142D02*
X71168D01*
X71376D01*
Y70894D01*
X71584D01*
X71168D01*
X70545D02*
Y72142D01*
X69921D01*
X69713Y71934D01*
Y71518D01*
X69921Y71310D01*
X70545D01*
X70129D02*
X69713Y70894D01*
X69297Y70687D02*
X68465D01*
X68049Y70894D02*
Y72142D01*
X67426D01*
X67218Y71934D01*
Y71518D01*
X67426Y71310D01*
X68049D01*
X67633D02*
X67218Y70894D01*
X65970Y72142D02*
X66802D01*
Y71518D01*
X66386Y71726D01*
X66178D01*
X65970Y71518D01*
Y71102D01*
X66178Y70894D01*
X66594D01*
X66802Y71102D01*
X65554Y71934D02*
X65346Y72142D01*
X64930D01*
X64722Y71934D01*
Y71102D01*
X64930Y70894D01*
X65346D01*
X65554Y71102D01*
Y71934D01*
X20432Y72116D02*
X20016D01*
X20224D01*
Y70868D01*
X20432D01*
X20016D01*
X19392D02*
Y72116D01*
X18768D01*
X18560Y71908D01*
Y71492D01*
X18768Y71284D01*
X19392D01*
X18976D02*
X18560Y70868D01*
X18144Y70661D02*
X17312D01*
X16896Y70868D02*
Y72116D01*
X16273D01*
X16065Y71908D01*
Y71492D01*
X16273Y71284D01*
X16896D01*
X16481D02*
X16065Y70868D01*
X15025D02*
Y72116D01*
X15649Y71492D01*
X14817D01*
X14401Y71076D02*
X14193Y70868D01*
X13778D01*
X13569Y71076D01*
Y71908D01*
X13778Y72116D01*
X14193D01*
X14401Y71908D01*
Y71700D01*
X14193Y71492D01*
X13569D01*
X354643Y100922D02*
X354227D01*
X354435D01*
Y99674D01*
X354643D01*
X354227D01*
X353604D02*
Y100922D01*
X352980D01*
X352772Y100714D01*
Y100298D01*
X352980Y100090D01*
X353604D01*
X353188D02*
X352772Y99674D01*
X352356Y99466D02*
X351524D01*
X351108Y99674D02*
Y100922D01*
X350484D01*
X350277Y100714D01*
Y100298D01*
X350484Y100090D01*
X351108D01*
X350693D02*
X350277Y99674D01*
X349237D02*
Y100922D01*
X349861Y100298D01*
X349029D01*
X348613Y100714D02*
X348405Y100922D01*
X347989D01*
X347781Y100714D01*
Y100506D01*
X347989Y100298D01*
X347781Y100090D01*
Y99882D01*
X347989Y99674D01*
X348405D01*
X348613Y99882D01*
Y100090D01*
X348405Y100298D01*
X348613Y100506D01*
Y100714D01*
X348405Y100298D02*
X347989D01*
X321624Y119890D02*
X321209D01*
X321416D01*
Y118642D01*
X321624D01*
X321209D01*
X320585D02*
Y119890D01*
X319961D01*
X319753Y119682D01*
Y119266D01*
X319961Y119058D01*
X320585D01*
X320169D02*
X319753Y118642D01*
X319337Y118435D02*
X318505D01*
X318090Y118642D02*
Y119890D01*
X317466D01*
X317258Y119682D01*
Y119266D01*
X317466Y119058D01*
X318090D01*
X317674D02*
X317258Y118642D01*
X316218D02*
Y119890D01*
X316842Y119266D01*
X316010D01*
X315594Y119890D02*
X314762D01*
Y119682D01*
X315594Y118851D01*
Y118642D01*
X286201Y126306D02*
X285785D01*
X285993D01*
Y125058D01*
X286201D01*
X285785D01*
X285161D02*
Y126306D01*
X284537D01*
X284329Y126098D01*
Y125682D01*
X284537Y125474D01*
X285161D01*
X284745D02*
X284329Y125058D01*
X283913Y124850D02*
X283082D01*
X282666Y125058D02*
Y126306D01*
X282042D01*
X281834Y126098D01*
Y125682D01*
X282042Y125474D01*
X282666D01*
X282250D02*
X281834Y125058D01*
X280794D02*
Y126306D01*
X281418Y125682D01*
X280587D01*
X279339Y126306D02*
X279755Y126098D01*
X280171Y125682D01*
Y125266D01*
X279963Y125058D01*
X279547D01*
X279339Y125266D01*
Y125474D01*
X279547Y125682D01*
X280171D01*
X250176Y120880D02*
X249760D01*
X249968D01*
Y119632D01*
X250176D01*
X249760D01*
X249136D02*
Y120880D01*
X248512D01*
X248304Y120672D01*
Y120256D01*
X248512Y120048D01*
X249136D01*
X248720D02*
X248304Y119632D01*
X247888Y119424D02*
X247057D01*
X246641Y119632D02*
Y120880D01*
X246017D01*
X245809Y120672D01*
Y120256D01*
X246017Y120048D01*
X246641D01*
X246225D02*
X245809Y119632D01*
X244769D02*
Y120880D01*
X245393Y120256D01*
X244561D01*
X243314Y120880D02*
X244145D01*
Y120256D01*
X243729Y120464D01*
X243522D01*
X243314Y120256D01*
Y119840D01*
X243522Y119632D01*
X243937D01*
X244145Y119840D01*
X155242Y126263D02*
X154826D01*
X155034D01*
Y125016D01*
X155242D01*
X154826D01*
X154202D02*
Y126263D01*
X153578D01*
X153370Y126055D01*
Y125640D01*
X153578Y125432D01*
X154202D01*
X153786D02*
X153370Y125016D01*
X152954Y124808D02*
X152123D01*
X151707Y125016D02*
Y126263D01*
X151083D01*
X150875Y126055D01*
Y125640D01*
X151083Y125432D01*
X151707D01*
X151291D02*
X150875Y125016D01*
X149835D02*
Y126263D01*
X150459Y125640D01*
X149627D01*
X148588Y125016D02*
Y126263D01*
X149212Y125640D01*
X148380D01*
X121843Y126337D02*
X121427D01*
X121634D01*
Y125090D01*
X121843D01*
X121427D01*
X120803D02*
Y126337D01*
X120179D01*
X119971Y126129D01*
Y125714D01*
X120179Y125506D01*
X120803D01*
X120387D02*
X119971Y125090D01*
X119555Y124882D02*
X118723D01*
X118307Y125090D02*
Y126337D01*
X117684D01*
X117476Y126129D01*
Y125714D01*
X117684Y125506D01*
X118307D01*
X117892D02*
X117476Y125090D01*
X116436D02*
Y126337D01*
X117060Y125714D01*
X116228D01*
X115812Y126129D02*
X115604Y126337D01*
X115188D01*
X114980Y126129D01*
Y125921D01*
X115188Y125714D01*
X115396D01*
X115188D01*
X114980Y125506D01*
Y125298D01*
X115188Y125090D01*
X115604D01*
X115812Y125298D01*
X71574Y119432D02*
X71158D01*
X71366D01*
Y118184D01*
X71574D01*
X71158D01*
X70534D02*
Y119432D01*
X69911D01*
X69703Y119224D01*
Y118808D01*
X69911Y118600D01*
X70534D01*
X70118D02*
X69703Y118184D01*
X69287Y117976D02*
X68455D01*
X68039Y118184D02*
Y119432D01*
X67415D01*
X67207Y119224D01*
Y118808D01*
X67415Y118600D01*
X68039D01*
X67623D02*
X67207Y118184D01*
X66168D02*
Y119432D01*
X66791Y118808D01*
X65960D01*
X64712Y118184D02*
X65544D01*
X64712Y119016D01*
Y119224D01*
X64920Y119432D01*
X65336D01*
X65544Y119224D01*
X20416Y100743D02*
X20000D01*
X20208D01*
Y99495D01*
X20416D01*
X20000D01*
X19376D02*
Y100743D01*
X18752D01*
X18544Y100535D01*
Y100119D01*
X18752Y99911D01*
X19376D01*
X18960D02*
X18544Y99495D01*
X18128Y99287D02*
X17297D01*
X16881Y99495D02*
Y100743D01*
X16257D01*
X16049Y100535D01*
Y100119D01*
X16257Y99911D01*
X16881D01*
X16465D02*
X16049Y99495D01*
X15009D02*
Y100743D01*
X15633Y100119D01*
X14801D01*
X14386Y99495D02*
X13970D01*
X14178D01*
Y100743D01*
X14386Y100535D01*
X355100Y119400D02*
X354684D01*
X354892D01*
Y118152D01*
X355100D01*
X354684D01*
X354060D02*
Y119400D01*
X353436D01*
X353229Y119192D01*
Y118776D01*
X353436Y118568D01*
X354060D01*
X353644D02*
X353229Y118152D01*
X352813Y117944D02*
X351981D01*
X351565Y118152D02*
Y119400D01*
X350941D01*
X350733Y119192D01*
Y118776D01*
X350941Y118568D01*
X351565D01*
X351149D02*
X350733Y118152D01*
X349694D02*
Y119400D01*
X350317Y118776D01*
X349486D01*
X349070Y119192D02*
X348862Y119400D01*
X348446D01*
X348238Y119192D01*
Y118360D01*
X348446Y118152D01*
X348862D01*
X349070Y118360D01*
Y119192D01*
X321585Y175543D02*
X321169D01*
X321377D01*
Y174295D01*
X321585D01*
X321169D01*
X320545D02*
Y175543D01*
X319921D01*
X319714Y175335D01*
Y174919D01*
X319921Y174711D01*
X320545D01*
X320129D02*
X319714Y174295D01*
X319298Y174087D02*
X318466D01*
X318050Y174295D02*
Y175543D01*
X317426D01*
X317218Y175335D01*
Y174919D01*
X317426Y174711D01*
X318050D01*
X317634D02*
X317218Y174295D01*
X316803Y175335D02*
X316595Y175543D01*
X316179D01*
X315971Y175335D01*
Y175127D01*
X316179Y174919D01*
X316387D01*
X316179D01*
X315971Y174711D01*
Y174503D01*
X316179Y174295D01*
X316595D01*
X316803Y174503D01*
X315555D02*
X315347Y174295D01*
X314931D01*
X314723Y174503D01*
Y175335D01*
X314931Y175543D01*
X315347D01*
X315555Y175335D01*
Y175127D01*
X315347Y174919D01*
X314723D01*
X290164Y176711D02*
X289748D01*
X289956D01*
Y175464D01*
X290164D01*
X289748D01*
X289124D02*
Y176711D01*
X288500D01*
X288292Y176504D01*
Y176088D01*
X288500Y175880D01*
X289124D01*
X288708D02*
X288292Y175464D01*
X287877Y175256D02*
X287045D01*
X286629Y175464D02*
Y176711D01*
X286005D01*
X285797Y176504D01*
Y176088D01*
X286005Y175880D01*
X286629D01*
X286213D02*
X285797Y175464D01*
X285381Y176504D02*
X285173Y176711D01*
X284757D01*
X284549Y176504D01*
Y176295D01*
X284757Y176088D01*
X284965D01*
X284757D01*
X284549Y175880D01*
Y175672D01*
X284757Y175464D01*
X285173D01*
X285381Y175672D01*
X284134Y176504D02*
X283926Y176711D01*
X283510D01*
X283302Y176504D01*
Y176295D01*
X283510Y176088D01*
X283302Y175880D01*
Y175672D01*
X283510Y175464D01*
X283926D01*
X284134Y175672D01*
Y175880D01*
X283926Y176088D01*
X284134Y176295D01*
Y176504D01*
X283926Y176088D02*
X283510D01*
X249707Y168527D02*
X249291D01*
X249499D01*
Y167280D01*
X249707D01*
X249291D01*
X248667D02*
Y168527D01*
X248044D01*
X247836Y168319D01*
Y167903D01*
X248044Y167695D01*
X248667D01*
X248252D02*
X247836Y167280D01*
X247420Y167072D02*
X246588D01*
X246172Y167280D02*
Y168527D01*
X245548D01*
X245340Y168319D01*
Y167903D01*
X245548Y167695D01*
X246172D01*
X245756D02*
X245340Y167280D01*
X244924Y168319D02*
X244717Y168527D01*
X244301D01*
X244093Y168319D01*
Y168111D01*
X244301Y167903D01*
X244509D01*
X244301D01*
X244093Y167695D01*
Y167487D01*
X244301Y167280D01*
X244717D01*
X244924Y167487D01*
X243677Y168527D02*
X242845D01*
Y168319D01*
X243677Y167487D01*
Y167280D01*
X157714Y170355D02*
X157298D01*
X157506D01*
Y169108D01*
X157714D01*
X157298D01*
X156675D02*
Y170355D01*
X156051D01*
X155843Y170148D01*
Y169732D01*
X156051Y169524D01*
X156675D01*
X156259D02*
X155843Y169108D01*
X155427Y168900D02*
X154595D01*
X154179Y169108D02*
Y170355D01*
X153555D01*
X153348Y170148D01*
Y169732D01*
X153555Y169524D01*
X154179D01*
X153763D02*
X153348Y169108D01*
X152932Y170148D02*
X152724Y170355D01*
X152308D01*
X152100Y170148D01*
Y169940D01*
X152308Y169732D01*
X152516D01*
X152308D01*
X152100Y169524D01*
Y169316D01*
X152308Y169108D01*
X152724D01*
X152932Y169316D01*
X150852Y170355D02*
X151268Y170148D01*
X151684Y169732D01*
Y169316D01*
X151476Y169108D01*
X151060D01*
X150852Y169316D01*
Y169524D01*
X151060Y169732D01*
X151684D01*
X121821Y169959D02*
X121405D01*
X121613D01*
Y168711D01*
X121821D01*
X121405D01*
X120782D02*
Y169959D01*
X120158D01*
X119950Y169751D01*
Y169335D01*
X120158Y169127D01*
X120782D01*
X120366D02*
X119950Y168711D01*
X119534Y168503D02*
X118702D01*
X118286Y168711D02*
Y169959D01*
X117663D01*
X117455Y169751D01*
Y169335D01*
X117663Y169127D01*
X118286D01*
X117870D02*
X117455Y168711D01*
X117039Y169751D02*
X116831Y169959D01*
X116415D01*
X116207Y169751D01*
Y169543D01*
X116415Y169335D01*
X116623D01*
X116415D01*
X116207Y169127D01*
Y168919D01*
X116415Y168711D01*
X116831D01*
X117039Y168919D01*
X114959Y169959D02*
X115791D01*
Y169335D01*
X115375Y169543D01*
X115167D01*
X114959Y169335D01*
Y168919D01*
X115167Y168711D01*
X115583D01*
X115791Y168919D01*
X20416Y119448D02*
X20000D01*
X20208D01*
Y118200D01*
X20416D01*
X20000D01*
X19376D02*
Y119448D01*
X18752D01*
X18544Y119240D01*
Y118824D01*
X18752Y118616D01*
X19376D01*
X18960D02*
X18544Y118200D01*
X18128Y117992D02*
X17297D01*
X16881Y118200D02*
Y119448D01*
X16257D01*
X16049Y119240D01*
Y118824D01*
X16257Y118616D01*
X16881D01*
X16465D02*
X16049Y118200D01*
X15633Y119240D02*
X15425Y119448D01*
X15009D01*
X14801Y119240D01*
Y119032D01*
X15009Y118824D01*
X15217D01*
X15009D01*
X14801Y118616D01*
Y118408D01*
X15009Y118200D01*
X15425D01*
X15633Y118408D01*
X14386Y119240D02*
X14178Y119448D01*
X13762D01*
X13554Y119240D01*
Y119032D01*
X13762Y118824D01*
X13970D01*
X13762D01*
X13554Y118616D01*
Y118408D01*
X13762Y118200D01*
X14178D01*
X14386Y118408D01*
X355053Y233563D02*
X354637D01*
X354845D01*
Y232316D01*
X355053D01*
X354637D01*
X354013D02*
Y233563D01*
X353389D01*
X353181Y233355D01*
Y232940D01*
X353389Y232732D01*
X354013D01*
X353597D02*
X353181Y232316D01*
X352765Y232108D02*
X351934D01*
X351518Y232316D02*
Y233563D01*
X350894D01*
X350686Y233355D01*
Y232940D01*
X350894Y232732D01*
X351518D01*
X351102D02*
X350686Y232316D01*
X350270Y233355D02*
X350062Y233563D01*
X349646D01*
X349438Y233355D01*
Y233148D01*
X349646Y232940D01*
X349854D01*
X349646D01*
X349438Y232732D01*
Y232524D01*
X349646Y232316D01*
X350062D01*
X350270Y232524D01*
X348191Y232316D02*
X349023D01*
X348191Y233148D01*
Y233355D01*
X348399Y233563D01*
X348815D01*
X349023Y233355D01*
X321601Y191226D02*
X321185D01*
X321393D01*
Y189978D01*
X321601D01*
X321185D01*
X320561D02*
Y191226D01*
X319937D01*
X319729Y191018D01*
Y190602D01*
X319937Y190394D01*
X320561D01*
X320145D02*
X319729Y189978D01*
X319314Y189770D02*
X318482D01*
X318066Y189978D02*
Y191226D01*
X317442D01*
X317234Y191018D01*
Y190602D01*
X317442Y190394D01*
X318066D01*
X317650D02*
X317234Y189978D01*
X316818Y191018D02*
X316610Y191226D01*
X316194D01*
X315986Y191018D01*
Y190810D01*
X316194Y190602D01*
X316402D01*
X316194D01*
X315986Y190394D01*
Y190186D01*
X316194Y189978D01*
X316610D01*
X316818Y190186D01*
X315571Y189978D02*
X315155D01*
X315363D01*
Y191226D01*
X315571Y191018D01*
X286157Y231144D02*
X285742D01*
X285949D01*
Y229896D01*
X286157D01*
X285742D01*
X285118D02*
Y231144D01*
X284494D01*
X284286Y230936D01*
Y230520D01*
X284494Y230312D01*
X285118D01*
X284702D02*
X284286Y229896D01*
X283870Y229688D02*
X283038D01*
X282623Y229896D02*
Y231144D01*
X281999D01*
X281791Y230936D01*
Y230520D01*
X281999Y230312D01*
X282623D01*
X282207D02*
X281791Y229896D01*
X281375Y230936D02*
X281167Y231144D01*
X280751D01*
X280543Y230936D01*
Y230728D01*
X280751Y230520D01*
X280959D01*
X280751D01*
X280543Y230312D01*
Y230104D01*
X280751Y229896D01*
X281167D01*
X281375Y230104D01*
X280127Y230936D02*
X279919Y231144D01*
X279503D01*
X279295Y230936D01*
Y230104D01*
X279503Y229896D01*
X279919D01*
X280127Y230104D01*
Y230936D01*
X243250Y191848D02*
X242834D01*
X243042D01*
Y190600D01*
X243250D01*
X242834D01*
X242210D02*
Y191848D01*
X241586D01*
X241379Y191640D01*
Y191224D01*
X241586Y191016D01*
X242210D01*
X241794D02*
X241379Y190600D01*
X240963Y190392D02*
X240131D01*
X239715Y190600D02*
Y191848D01*
X239091D01*
X238883Y191640D01*
Y191224D01*
X239091Y191016D01*
X239715D01*
X239299D02*
X238883Y190600D01*
X237636D02*
X238467D01*
X237636Y191432D01*
Y191640D01*
X237844Y191848D01*
X238260D01*
X238467Y191640D01*
X237220Y190808D02*
X237012Y190600D01*
X236596D01*
X236388Y190808D01*
Y191640D01*
X236596Y191848D01*
X237012D01*
X237220Y191640D01*
Y191432D01*
X237012Y191224D01*
X236388D01*
X158135Y232422D02*
X157720D01*
X157928D01*
Y231175D01*
X158135D01*
X157720D01*
X157096D02*
Y232422D01*
X156472D01*
X156264Y232214D01*
Y231799D01*
X156472Y231591D01*
X157096D01*
X156680D02*
X156264Y231175D01*
X155848Y230967D02*
X155016D01*
X154601Y231175D02*
Y232422D01*
X153977D01*
X153769Y232214D01*
Y231799D01*
X153977Y231591D01*
X154601D01*
X154185D02*
X153769Y231175D01*
X152521D02*
X153353D01*
X152521Y232007D01*
Y232214D01*
X152729Y232422D01*
X153145D01*
X153353Y232214D01*
X152105D02*
X151897Y232422D01*
X151481D01*
X151274Y232214D01*
Y232007D01*
X151481Y231799D01*
X151274Y231591D01*
Y231383D01*
X151481Y231175D01*
X151897D01*
X152105Y231383D01*
Y231591D01*
X151897Y231799D01*
X152105Y232007D01*
Y232214D01*
X151897Y231799D02*
X151481D01*
X71639Y199907D02*
X71223D01*
X71431D01*
Y198659D01*
X71639D01*
X71223D01*
X70600D02*
Y199907D01*
X69976D01*
X69768Y199699D01*
Y199283D01*
X69976Y199075D01*
X70600D01*
X70184D02*
X69768Y198659D01*
X69352Y198451D02*
X68520D01*
X68104Y198659D02*
Y199907D01*
X67481D01*
X67273Y199699D01*
Y199283D01*
X67481Y199075D01*
X68104D01*
X67689D02*
X67273Y198659D01*
X66025D02*
X66857D01*
X66025Y199491D01*
Y199699D01*
X66233Y199907D01*
X66649D01*
X66857Y199699D01*
X64777Y199907D02*
X65193Y199699D01*
X65609Y199283D01*
Y198867D01*
X65401Y198659D01*
X64985D01*
X64777Y198867D01*
Y199075D01*
X64985Y199283D01*
X65609D01*
X20416Y233548D02*
X20000D01*
X20208D01*
Y232300D01*
X20416D01*
X20000D01*
X19376D02*
Y233548D01*
X18752D01*
X18544Y233340D01*
Y232924D01*
X18752Y232716D01*
X19376D01*
X18960D02*
X18544Y232300D01*
X18128Y232092D02*
X17297D01*
X16881Y232300D02*
Y233548D01*
X16257D01*
X16049Y233340D01*
Y232924D01*
X16257Y232716D01*
X16881D01*
X16465D02*
X16049Y232300D01*
X14801D02*
X15633D01*
X14801Y233132D01*
Y233340D01*
X15009Y233548D01*
X15425D01*
X15633Y233340D01*
X13554Y233548D02*
X14386D01*
Y232924D01*
X13970Y233132D01*
X13762D01*
X13554Y232924D01*
Y232508D01*
X13762Y232300D01*
X14178D01*
X14386Y232508D01*
X355058Y261100D02*
X354642D01*
X354850D01*
Y259853D01*
X355058D01*
X354642D01*
X354019D02*
Y261100D01*
X353395D01*
X353187Y260892D01*
Y260477D01*
X353395Y260269D01*
X354019D01*
X353603D02*
X353187Y259853D01*
X352771Y259645D02*
X351939D01*
X351523Y259853D02*
Y261100D01*
X350900D01*
X350692Y260892D01*
Y260477D01*
X350900Y260269D01*
X351523D01*
X351107D02*
X350692Y259853D01*
X349444D02*
X350276D01*
X349444Y260684D01*
Y260892D01*
X349652Y261100D01*
X350068D01*
X350276Y260892D01*
X348404Y259853D02*
Y261100D01*
X349028Y260477D01*
X348196D01*
X321601Y261089D02*
X321185D01*
X321393D01*
Y259842D01*
X321601D01*
X321185D01*
X320561D02*
Y261089D01*
X319937D01*
X319729Y260881D01*
Y260466D01*
X319937Y260258D01*
X320561D01*
X320145D02*
X319729Y259842D01*
X319314Y259634D02*
X318482D01*
X318066Y259842D02*
Y261089D01*
X317442D01*
X317234Y260881D01*
Y260466D01*
X317442Y260258D01*
X318066D01*
X317650D02*
X317234Y259842D01*
X315986D02*
X316818D01*
X315986Y260673D01*
Y260881D01*
X316194Y261089D01*
X316610D01*
X316818Y260881D01*
X315571D02*
X315363Y261089D01*
X314947D01*
X314739Y260881D01*
Y260673D01*
X314947Y260466D01*
X315155D01*
X314947D01*
X314739Y260258D01*
Y260050D01*
X314947Y259842D01*
X315363D01*
X315571Y260050D01*
X286143Y261089D02*
X285727D01*
X285935D01*
Y259842D01*
X286143D01*
X285727D01*
X285104D02*
Y261089D01*
X284480D01*
X284272Y260881D01*
Y260466D01*
X284480Y260258D01*
X285104D01*
X284688D02*
X284272Y259842D01*
X283856Y259634D02*
X283024D01*
X282608Y259842D02*
Y261089D01*
X281984D01*
X281777Y260881D01*
Y260466D01*
X281984Y260258D01*
X282608D01*
X282192D02*
X281777Y259842D01*
X280529D02*
X281361D01*
X280529Y260673D01*
Y260881D01*
X280737Y261089D01*
X281153D01*
X281361Y260881D01*
X279281Y259842D02*
X280113D01*
X279281Y260673D01*
Y260881D01*
X279489Y261089D01*
X279905D01*
X280113Y260881D01*
X258000Y263748D02*
X257584D01*
X257792D01*
Y262500D01*
X258000D01*
X257584D01*
X256960D02*
Y263748D01*
X256336D01*
X256129Y263540D01*
Y263124D01*
X256336Y262916D01*
X256960D01*
X256544D02*
X256129Y262500D01*
X255713Y262292D02*
X254881D01*
X254465Y262500D02*
Y263748D01*
X253841D01*
X253633Y263540D01*
Y263124D01*
X253841Y262916D01*
X254465D01*
X254049D02*
X253633Y262500D01*
X252386D02*
X253217D01*
X252386Y263332D01*
Y263540D01*
X252594Y263748D01*
X253010D01*
X253217Y263540D01*
X251970Y262500D02*
X251554D01*
X251762D01*
Y263748D01*
X251970Y263540D01*
X155289Y261163D02*
X154873D01*
X155081D01*
Y259916D01*
X155289D01*
X154873D01*
X154249D02*
Y261163D01*
X153626D01*
X153418Y260956D01*
Y260540D01*
X153626Y260332D01*
X154249D01*
X153833D02*
X153418Y259916D01*
X153002Y259708D02*
X152170D01*
X151754Y259916D02*
Y261163D01*
X151130D01*
X150922Y260956D01*
Y260540D01*
X151130Y260332D01*
X151754D01*
X151338D02*
X150922Y259916D01*
X149675D02*
X150506D01*
X149675Y260748D01*
Y260956D01*
X149883Y261163D01*
X150298D01*
X150506Y260956D01*
X149259D02*
X149051Y261163D01*
X148635D01*
X148427Y260956D01*
Y260124D01*
X148635Y259916D01*
X149051D01*
X149259Y260124D01*
Y260956D01*
X121843Y261095D02*
X121427D01*
X121635D01*
Y259847D01*
X121843D01*
X121427D01*
X120803D02*
Y261095D01*
X120179D01*
X119971Y260887D01*
Y260471D01*
X120179Y260263D01*
X120803D01*
X120387D02*
X119971Y259847D01*
X119555Y259639D02*
X118723D01*
X118308Y259847D02*
Y261095D01*
X117684D01*
X117476Y260887D01*
Y260471D01*
X117684Y260263D01*
X118308D01*
X117892D02*
X117476Y259847D01*
X117060D02*
X116644D01*
X116852D01*
Y261095D01*
X117060Y260887D01*
X116020Y260055D02*
X115812Y259847D01*
X115396D01*
X115189Y260055D01*
Y260887D01*
X115396Y261095D01*
X115812D01*
X116020Y260887D01*
Y260679D01*
X115812Y260471D01*
X115189D01*
X71575Y261172D02*
X71159D01*
X71367D01*
Y259924D01*
X71575D01*
X71159D01*
X70535D02*
Y261172D01*
X69911D01*
X69703Y260964D01*
Y260548D01*
X69911Y260340D01*
X70535D01*
X70119D02*
X69703Y259924D01*
X69288Y259717D02*
X68456D01*
X68040Y259924D02*
Y261172D01*
X67416D01*
X67208Y260964D01*
Y260548D01*
X67416Y260340D01*
X68040D01*
X67624D02*
X67208Y259924D01*
X66792D02*
X66376D01*
X66584D01*
Y261172D01*
X66792Y260964D01*
X65753D02*
X65545Y261172D01*
X65129D01*
X64921Y260964D01*
Y260756D01*
X65129Y260548D01*
X64921Y260340D01*
Y260132D01*
X65129Y259924D01*
X65545D01*
X65753Y260132D01*
Y260340D01*
X65545Y260548D01*
X65753Y260756D01*
Y260964D01*
X65545Y260548D02*
X65129D01*
X20384Y261137D02*
X19968D01*
X20176D01*
Y259890D01*
X20384D01*
X19968D01*
X19345D02*
Y261137D01*
X18721D01*
X18513Y260929D01*
Y260514D01*
X18721Y260306D01*
X19345D01*
X18929D02*
X18513Y259890D01*
X18097Y259682D02*
X17265D01*
X16849Y259890D02*
Y261137D01*
X16226D01*
X16017Y260929D01*
Y260514D01*
X16226Y260306D01*
X16849D01*
X16433D02*
X16017Y259890D01*
X15602D02*
X15186D01*
X15394D01*
Y261137D01*
X15602Y260929D01*
X14562Y261137D02*
X13730D01*
Y260929D01*
X14562Y260098D01*
Y259890D01*
X355105Y308348D02*
X354690D01*
X354898D01*
Y307100D01*
X355105D01*
X354690D01*
X354066D02*
Y308348D01*
X353442D01*
X353234Y308140D01*
Y307724D01*
X353442Y307516D01*
X354066D01*
X353650D02*
X353234Y307100D01*
X352818Y306892D02*
X351986D01*
X351571Y307100D02*
Y308348D01*
X350947D01*
X350739Y308140D01*
Y307724D01*
X350947Y307516D01*
X351571D01*
X351155D02*
X350739Y307100D01*
X350323D02*
X349907D01*
X350115D01*
Y308348D01*
X350323Y308140D01*
X348451Y308348D02*
X348867Y308140D01*
X349283Y307724D01*
Y307308D01*
X349075Y307100D01*
X348659D01*
X348451Y307308D01*
Y307516D01*
X348659Y307724D01*
X349283D01*
X321595Y308342D02*
X321179D01*
X321387D01*
Y307095D01*
X321595D01*
X321179D01*
X320556D02*
Y308342D01*
X319932D01*
X319724Y308134D01*
Y307718D01*
X319932Y307510D01*
X320556D01*
X320140D02*
X319724Y307095D01*
X319308Y306887D02*
X318476D01*
X318060Y307095D02*
Y308342D01*
X317437D01*
X317229Y308134D01*
Y307718D01*
X317437Y307510D01*
X318060D01*
X317644D02*
X317229Y307095D01*
X316813D02*
X316397D01*
X316605D01*
Y308342D01*
X316813Y308134D01*
X314941Y308342D02*
X315773D01*
Y307718D01*
X315357Y307926D01*
X315149D01*
X314941Y307718D01*
Y307302D01*
X315149Y307095D01*
X315565D01*
X315773Y307302D01*
X286216Y316253D02*
X285801D01*
X286009D01*
Y315005D01*
X286216D01*
X285801D01*
X285177D02*
Y316253D01*
X284553D01*
X284345Y316045D01*
Y315629D01*
X284553Y315421D01*
X285177D01*
X284761D02*
X284345Y315005D01*
X283929Y314798D02*
X283098D01*
X282682Y315005D02*
Y316253D01*
X282058D01*
X281850Y316045D01*
Y315629D01*
X282058Y315421D01*
X282682D01*
X282266D02*
X281850Y315005D01*
X281434D02*
X281018D01*
X281226D01*
Y316253D01*
X281434Y316045D01*
X279770Y315005D02*
Y316253D01*
X280394Y315629D01*
X279562D01*
X249780Y308379D02*
X249364D01*
X249572D01*
Y307131D01*
X249780D01*
X249364D01*
X248741D02*
Y308379D01*
X248117D01*
X247909Y308171D01*
Y307755D01*
X248117Y307547D01*
X248741D01*
X248325D02*
X247909Y307131D01*
X247493Y306924D02*
X246661D01*
X246245Y307131D02*
Y308379D01*
X245622D01*
X245414Y308171D01*
Y307755D01*
X245622Y307547D01*
X246245D01*
X245830D02*
X245414Y307131D01*
X244998D02*
X244582D01*
X244790D01*
Y308379D01*
X244998Y308171D01*
X243958D02*
X243750Y308379D01*
X243334D01*
X243126Y308171D01*
Y307963D01*
X243334Y307755D01*
X243542D01*
X243334D01*
X243126Y307547D01*
Y307339D01*
X243334Y307131D01*
X243750D01*
X243958Y307339D01*
X155269Y308416D02*
X154853D01*
X155061D01*
Y307169D01*
X155269D01*
X154853D01*
X154229D02*
Y308416D01*
X153605D01*
X153397Y308208D01*
Y307792D01*
X153605Y307585D01*
X154229D01*
X153813D02*
X153397Y307169D01*
X152981Y306961D02*
X152149D01*
X151734Y307169D02*
Y308416D01*
X151110D01*
X150902Y308208D01*
Y307792D01*
X151110Y307585D01*
X151734D01*
X151318D02*
X150902Y307169D01*
X150486D02*
X150070D01*
X150278D01*
Y308416D01*
X150486Y308208D01*
X148615Y307169D02*
X149446D01*
X148615Y308000D01*
Y308208D01*
X148822Y308416D01*
X149238D01*
X149446Y308208D01*
X121848Y308348D02*
X121432D01*
X121640D01*
Y307100D01*
X121848D01*
X121432D01*
X120808D02*
Y308348D01*
X120185D01*
X119977Y308140D01*
Y307724D01*
X120185Y307516D01*
X120808D01*
X120393D02*
X119977Y307100D01*
X119561Y306892D02*
X118729D01*
X118313Y307100D02*
Y308348D01*
X117689D01*
X117481Y308140D01*
Y307724D01*
X117689Y307516D01*
X118313D01*
X117897D02*
X117481Y307100D01*
X117066D02*
X116650D01*
X116858D01*
Y308348D01*
X117066Y308140D01*
X116026Y307100D02*
X115610D01*
X115818D01*
Y308348D01*
X116026Y308140D01*
X71591Y308352D02*
X71175D01*
X71383D01*
Y307105D01*
X71591D01*
X71175D01*
X70551D02*
Y308352D01*
X69927D01*
X69719Y308144D01*
Y307729D01*
X69927Y307521D01*
X70551D01*
X70135D02*
X69719Y307105D01*
X69303Y306897D02*
X68471D01*
X68056Y307105D02*
Y308352D01*
X67432D01*
X67224Y308144D01*
Y307729D01*
X67432Y307521D01*
X68056D01*
X67640D02*
X67224Y307105D01*
X66808D02*
X66392D01*
X66600D01*
Y308352D01*
X66808Y308144D01*
X65768D02*
X65560Y308352D01*
X65144D01*
X64937Y308144D01*
Y307313D01*
X65144Y307105D01*
X65560D01*
X65768Y307313D01*
Y308144D01*
X20469Y308363D02*
X20053D01*
X20261D01*
Y307116D01*
X20469D01*
X20053D01*
X19429D02*
Y308363D01*
X18805D01*
X18597Y308155D01*
Y307740D01*
X18805Y307532D01*
X19429D01*
X19013D02*
X18597Y307116D01*
X18181Y306908D02*
X17349D01*
X16933Y307116D02*
Y308363D01*
X16310D01*
X16102Y308155D01*
Y307740D01*
X16310Y307532D01*
X16933D01*
X16518D02*
X16102Y307116D01*
X15686Y307324D02*
X15478Y307116D01*
X15062D01*
X14854Y307324D01*
Y308155D01*
X15062Y308363D01*
X15478D01*
X15686Y308155D01*
Y307947D01*
X15478Y307740D01*
X14854D01*
X355080Y330079D02*
X354664D01*
X354872D01*
Y328832D01*
X355080D01*
X354664D01*
X354040D02*
Y330079D01*
X353416D01*
X353208Y329871D01*
Y329455D01*
X353416Y329247D01*
X354040D01*
X353624D02*
X353208Y328832D01*
X352792Y328624D02*
X351960D01*
X351545Y328832D02*
Y330079D01*
X350921D01*
X350713Y329871D01*
Y329455D01*
X350921Y329247D01*
X351545D01*
X351129D02*
X350713Y328832D01*
X350297Y329871D02*
X350089Y330079D01*
X349673D01*
X349465Y329871D01*
Y329663D01*
X349673Y329455D01*
X349465Y329247D01*
Y329039D01*
X349673Y328832D01*
X350089D01*
X350297Y329039D01*
Y329247D01*
X350089Y329455D01*
X350297Y329663D01*
Y329871D01*
X350089Y329455D02*
X349673D01*
X321642Y329989D02*
X321227D01*
X321435D01*
Y328742D01*
X321642D01*
X321227D01*
X320603D02*
Y329989D01*
X319979D01*
X319771Y329781D01*
Y329365D01*
X319979Y329158D01*
X320603D01*
X320187D02*
X319771Y328742D01*
X319355Y328534D02*
X318524D01*
X318108Y328742D02*
Y329989D01*
X317484D01*
X317276Y329781D01*
Y329365D01*
X317484Y329158D01*
X318108D01*
X317692D02*
X317276Y328742D01*
X316860Y329989D02*
X316028D01*
Y329781D01*
X316860Y328950D01*
Y328742D01*
X286165Y330074D02*
X285749D01*
X285957D01*
Y328826D01*
X286165D01*
X285749D01*
X285125D02*
Y330074D01*
X284501D01*
X284293Y329866D01*
Y329450D01*
X284501Y329242D01*
X285125D01*
X284709D02*
X284293Y328826D01*
X283877Y328618D02*
X283046D01*
X282630Y328826D02*
Y330074D01*
X282006D01*
X281798Y329866D01*
Y329450D01*
X282006Y329242D01*
X282630D01*
X282214D02*
X281798Y328826D01*
X280550Y330074D02*
X280966Y329866D01*
X281382Y329450D01*
Y329034D01*
X281174Y328826D01*
X280758D01*
X280550Y329034D01*
Y329242D01*
X280758Y329450D01*
X281382D01*
X249802Y321211D02*
X249386D01*
X249594D01*
Y319963D01*
X249802D01*
X249386D01*
X248762D02*
Y321211D01*
X248138D01*
X247930Y321003D01*
Y320587D01*
X248138Y320379D01*
X248762D01*
X248346D02*
X247930Y319963D01*
X247514Y319755D02*
X246683D01*
X246267Y319963D02*
Y321211D01*
X245643D01*
X245435Y321003D01*
Y320587D01*
X245643Y320379D01*
X246267D01*
X245851D02*
X245435Y319963D01*
X244187Y321211D02*
X245019D01*
Y320587D01*
X244603Y320795D01*
X244395D01*
X244187Y320587D01*
Y320171D01*
X244395Y319963D01*
X244811D01*
X245019Y320171D01*
X138768Y321674D02*
X138352D01*
X138560D01*
Y320426D01*
X138768D01*
X138352D01*
X137728D02*
Y321674D01*
X137104D01*
X136896Y321466D01*
Y321050D01*
X137104Y320842D01*
X137728D01*
X137312D02*
X136896Y320426D01*
X136480Y320218D02*
X135649D01*
X135233Y320426D02*
Y321674D01*
X134609D01*
X134401Y321466D01*
Y321050D01*
X134609Y320842D01*
X135233D01*
X134817D02*
X134401Y320426D01*
X133361D02*
Y321674D01*
X133985Y321050D01*
X133153D01*
X121832Y330079D02*
X121416D01*
X121624D01*
Y328832D01*
X121832D01*
X121416D01*
X120793D02*
Y330079D01*
X120169D01*
X119961Y329871D01*
Y329455D01*
X120169Y329247D01*
X120793D01*
X120377D02*
X119961Y328832D01*
X119545Y328624D02*
X118713D01*
X118297Y328832D02*
Y330079D01*
X117674D01*
X117466Y329871D01*
Y329455D01*
X117674Y329247D01*
X118297D01*
X117882D02*
X117466Y328832D01*
X117050Y329871D02*
X116842Y330079D01*
X116426D01*
X116218Y329871D01*
Y329663D01*
X116426Y329455D01*
X116634D01*
X116426D01*
X116218Y329247D01*
Y329039D01*
X116426Y328832D01*
X116842D01*
X117050Y329039D01*
X71596Y329995D02*
X71180D01*
X71388D01*
Y328747D01*
X71596D01*
X71180D01*
X70556D02*
Y329995D01*
X69933D01*
X69725Y329787D01*
Y329371D01*
X69933Y329163D01*
X70556D01*
X70140D02*
X69725Y328747D01*
X69309Y328539D02*
X68477D01*
X68061Y328747D02*
Y329995D01*
X67437D01*
X67229Y329787D01*
Y329371D01*
X67437Y329163D01*
X68061D01*
X67645D02*
X67229Y328747D01*
X65982D02*
X66813D01*
X65982Y329579D01*
Y329787D01*
X66190Y329995D01*
X66606D01*
X66813Y329787D01*
X20416Y330063D02*
X20000D01*
X20208D01*
Y328816D01*
X20416D01*
X20000D01*
X19376D02*
Y330063D01*
X18752D01*
X18544Y329855D01*
Y329440D01*
X18752Y329232D01*
X19376D01*
X18960D02*
X18544Y328816D01*
X18128Y328608D02*
X17297D01*
X16881Y328816D02*
Y330063D01*
X16257D01*
X16049Y329855D01*
Y329440D01*
X16257Y329232D01*
X16881D01*
X16465D02*
X16049Y328816D01*
X15633D02*
X15217D01*
X15425D01*
Y330063D01*
X15633Y329855D01*
X221000Y269748D02*
Y268500D01*
Y269124D01*
X220168D01*
Y269748D01*
Y268500D01*
X219752Y268292D02*
X218921D01*
X218505Y269540D02*
X218297Y269748D01*
X217881D01*
X217673Y269540D01*
Y269332D01*
X217881Y269124D01*
X218089D01*
X217881D01*
X217673Y268916D01*
Y268708D01*
X217881Y268500D01*
X218297D01*
X218505Y268708D01*
X217257Y268292D02*
X216425D01*
X216009Y268500D02*
X215594D01*
X215802D01*
Y269748D01*
X216009Y269540D01*
X348000Y183540D02*
X347792Y183748D01*
X347376D01*
X347168Y183540D01*
Y183332D01*
X347376Y183124D01*
X347584D01*
X347376D01*
X347168Y182916D01*
Y182708D01*
X347376Y182500D01*
X347792D01*
X348000Y182708D01*
X346752Y182500D02*
X346337D01*
X346544D01*
Y183748D01*
X346752Y183540D01*
X345713Y182708D02*
X345505Y182500D01*
X345089D01*
X344881Y182708D01*
Y183540D01*
X345089Y183748D01*
X345505D01*
X345713Y183540D01*
Y183332D01*
X345505Y183124D01*
X344881D01*
X344465Y182292D02*
X343633D01*
X343217Y183540D02*
X343009Y183748D01*
X342594D01*
X342386Y183540D01*
Y183332D01*
X342594Y183124D01*
X342801D01*
X342594D01*
X342386Y182916D01*
Y182708D01*
X342594Y182500D01*
X343009D01*
X343217Y182708D01*
X362500Y183540D02*
X362292Y183748D01*
X361876D01*
X361668Y183540D01*
Y183332D01*
X361876Y183124D01*
X362084D01*
X361876D01*
X361668Y182916D01*
Y182708D01*
X361876Y182500D01*
X362292D01*
X362500Y182708D01*
X361252Y182500D02*
X360837D01*
X361044D01*
Y183748D01*
X361252Y183540D01*
X360213Y182708D02*
X360005Y182500D01*
X359589D01*
X359381Y182708D01*
Y183540D01*
X359589Y183748D01*
X360005D01*
X360213Y183540D01*
Y183332D01*
X360005Y183124D01*
X359381D01*
X358965Y182292D02*
X358133D01*
X356886Y182500D02*
X357717D01*
X356886Y183332D01*
Y183540D01*
X357094Y183748D01*
X357509D01*
X357717Y183540D01*
X182960Y9000D02*
X182752Y8792D01*
Y8376D01*
X182960Y8168D01*
X183168D01*
X183376Y8376D01*
Y8584D01*
Y8376D01*
X183584Y8168D01*
X183792D01*
X184000Y8376D01*
Y8792D01*
X183792Y9000D01*
X184000Y7752D02*
Y7337D01*
Y7544D01*
X182752D01*
X182960Y7752D01*
X183792Y6713D02*
X184000Y6505D01*
Y6089D01*
X183792Y5881D01*
X182960D01*
X182752Y6089D01*
Y6505D01*
X182960Y6713D01*
X183168D01*
X183376Y6505D01*
Y5881D01*
X184208Y5465D02*
Y4633D01*
X184000Y4217D02*
Y3802D01*
Y4010D01*
X182752D01*
X182960Y4217D01*
X182460Y21000D02*
X182252Y20792D01*
Y20376D01*
X182460Y20168D01*
X182668D01*
X182876Y20376D01*
Y20584D01*
Y20376D01*
X183084Y20168D01*
X183292D01*
X183500Y20376D01*
Y20792D01*
X183292Y21000D01*
X183500Y19752D02*
Y19336D01*
Y19544D01*
X182252D01*
X182460Y19752D01*
X183292Y18713D02*
X183500Y18505D01*
Y18089D01*
X183292Y17881D01*
X182460D01*
X182252Y18089D01*
Y18505D01*
X182460Y18713D01*
X182668D01*
X182876Y18505D01*
Y17881D01*
X183708Y17465D02*
Y16633D01*
X182460Y16217D02*
X182252Y16010D01*
Y15594D01*
X182460Y15386D01*
X183292D01*
X183500Y15594D01*
Y16010D01*
X183292Y16217D01*
X182460D01*
X28000Y19000D02*
Y20248D01*
X27376D01*
X27168Y20040D01*
Y19624D01*
X27376Y19416D01*
X28000D01*
X27584D02*
X27168Y19000D01*
X26129Y20248D02*
X26544D01*
X26752Y20040D01*
Y19208D01*
X26544Y19000D01*
X26129D01*
X25921Y19208D01*
Y20040D01*
X26129Y20248D01*
X25505D02*
Y19208D01*
X25297Y19000D01*
X24881D01*
X24673Y19208D01*
Y20248D01*
X24257D02*
X23425D01*
X23841D01*
Y19000D01*
X23009Y20040D02*
X22802Y20248D01*
X22386D01*
X22178Y20040D01*
Y19208D01*
X22386Y19000D01*
X22802D01*
X23009Y19208D01*
Y20040D01*
X27500Y14000D02*
Y15248D01*
X26876D01*
X26668Y15040D01*
Y14624D01*
X26876Y14416D01*
X27500D01*
X27084D02*
X26668Y14000D01*
X25629Y15248D02*
X26044D01*
X26252Y15040D01*
Y14208D01*
X26044Y14000D01*
X25629D01*
X25421Y14208D01*
Y15040D01*
X25629Y15248D01*
X25005D02*
Y14208D01*
X24797Y14000D01*
X24381D01*
X24173Y14208D01*
Y15248D01*
X23757D02*
X22925D01*
X23341D01*
Y14000D01*
X22510D02*
X22094D01*
X22301D01*
Y15248D01*
X22510Y15040D01*
X11000Y183540D02*
X10792Y183748D01*
X10376D01*
X10168Y183540D01*
Y183332D01*
X10376Y183124D01*
X10168Y182916D01*
Y182708D01*
X10376Y182500D01*
X10792D01*
X11000Y182708D01*
Y182916D01*
X10792Y183124D01*
X11000Y183332D01*
Y183540D01*
X10792Y183124D02*
X10376D01*
X9752Y182500D02*
X9336D01*
X9544D01*
Y183748D01*
X9752Y183540D01*
X8713D02*
X8505Y183748D01*
X8089D01*
X7881Y183540D01*
Y182708D01*
X8089Y182500D01*
X8505D01*
X8713Y182708D01*
Y183540D01*
X7465Y182292D02*
X6633D01*
X6217Y183540D02*
X6010Y183748D01*
X5594D01*
X5386Y183540D01*
Y182708D01*
X5594Y182500D01*
X6010D01*
X6217Y182708D01*
Y183540D01*
X22500D02*
X22292Y183748D01*
X21876D01*
X21668Y183540D01*
Y183332D01*
X21876Y183124D01*
X21668Y182916D01*
Y182708D01*
X21876Y182500D01*
X22292D01*
X22500Y182708D01*
Y182916D01*
X22292Y183124D01*
X22500Y183332D01*
Y183540D01*
X22292Y183124D02*
X21876D01*
X21252Y182500D02*
X20836D01*
X21044D01*
Y183748D01*
X21252Y183540D01*
X20213D02*
X20005Y183748D01*
X19589D01*
X19381Y183540D01*
Y182708D01*
X19589Y182500D01*
X20005D01*
X20213Y182708D01*
Y183540D01*
X18965Y182292D02*
X18133D01*
X17717Y182500D02*
X17301D01*
X17510D01*
Y183748D01*
X17717Y183540D01*
X182460Y346500D02*
X182252Y346292D01*
Y345876D01*
X182460Y345668D01*
X182668D01*
X182876Y345876D01*
X183084Y345668D01*
X183292D01*
X183500Y345876D01*
Y346292D01*
X183292Y346500D01*
X183084D01*
X182876Y346292D01*
X182668Y346500D01*
X182460D01*
X182876Y346292D02*
Y345876D01*
X183500Y345252D02*
Y344836D01*
Y345044D01*
X182252D01*
X182460Y345252D01*
Y344213D02*
X182252Y344005D01*
Y343589D01*
X182460Y343381D01*
X183292D01*
X183500Y343589D01*
Y344005D01*
X183292Y344213D01*
X182460D01*
X183708Y342965D02*
Y342133D01*
X183500Y340886D02*
Y341717D01*
X182668Y340886D01*
X182460D01*
X182252Y341094D01*
Y341510D01*
X182460Y341717D01*
X182960Y358500D02*
X182752Y358292D01*
Y357876D01*
X182960Y357668D01*
X183168D01*
X183376Y357876D01*
X183584Y357668D01*
X183792D01*
X184000Y357876D01*
Y358292D01*
X183792Y358500D01*
X183584D01*
X183376Y358292D01*
X183168Y358500D01*
X182960D01*
X183376Y358292D02*
Y357876D01*
X184000Y357252D02*
Y356837D01*
Y357044D01*
X182752D01*
X182960Y357252D01*
Y356213D02*
X182752Y356005D01*
Y355589D01*
X182960Y355381D01*
X183792D01*
X184000Y355589D01*
Y356005D01*
X183792Y356213D01*
X182960D01*
X184208Y354965D02*
Y354133D01*
X182960Y353717D02*
X182752Y353509D01*
Y353094D01*
X182960Y352886D01*
X183168D01*
X183376Y353094D01*
Y353302D01*
Y353094D01*
X183584Y352886D01*
X183792D01*
X184000Y353094D01*
Y353509D01*
X183792Y353717D01*
D51*
X95630Y189192D02*
G03*
X95630Y186792I0J-1200D01*
G01*
X190729Y101535D02*
G03*
X193129Y101535I1200J0D01*
G01*
X95630Y180592D02*
Y186792D01*
Y189192D01*
Y195392D01*
X75630Y180592D02*
Y195392D01*
X79230Y203792D02*
Y207792D01*
X193129Y101535D02*
X199329D01*
X190729D02*
X193129D01*
X184529D02*
X190729D01*
X184529Y81535D02*
X199329D01*
X172129Y85135D02*
X176129D01*
D52*
X90748Y41732D02*
X92323D01*
X90748Y38976D02*
X92323D01*
X76968Y54724D02*
X78543D01*
X76968Y57480D02*
X78543D01*
X45472Y132283D02*
X47047D01*
X45472Y129528D02*
X47047D01*
X46457Y148228D02*
X48031D01*
X46457Y150984D02*
X48031D01*
X46457Y227756D02*
X48031D01*
X46457Y225000D02*
X48031D01*
X36614Y242717D02*
X38189D01*
X36614Y245472D02*
X38189D01*
X36024Y287008D02*
X37598D01*
X36024Y289764D02*
X37598D01*
X35630Y325394D02*
X37205D01*
X35630Y328150D02*
X37205D01*
X14961Y16142D02*
X16535D01*
X14961Y13386D02*
X16535D01*
X14961Y21063D02*
X16535D01*
X14961Y18307D02*
X16535D01*
X90748Y44882D02*
X92323D01*
X90748Y47638D02*
X92323D01*
X76968Y51575D02*
X78543D01*
X76968Y48819D02*
X78543D01*
X36024Y127165D02*
Y128740D01*
X38780Y127165D02*
Y128740D01*
X46457Y146063D02*
X48031D01*
X46457Y143307D02*
X48031D01*
X46457Y229921D02*
X48031D01*
X46457Y232677D02*
X48031D01*
X36614Y239961D02*
X38189D01*
X36614Y237205D02*
X38189D01*
X36024Y284842D02*
X37598D01*
X36024Y282087D02*
X37598D01*
X35713Y322878D02*
X37287D01*
X35713Y320122D02*
X37287D01*
X323425Y54331D02*
Y55905D01*
X326181Y54331D02*
Y55905D01*
X289961Y54331D02*
Y55905D01*
X292717Y54331D02*
Y55905D01*
X254622Y56913D02*
Y58487D01*
X257378Y56913D02*
Y58487D01*
X217126Y61220D02*
Y62795D01*
X219882Y61220D02*
Y62795D01*
X124474Y60944D02*
Y62519D01*
X127230Y60944D02*
Y62519D01*
X89173Y85433D02*
X90748D01*
X89173Y88189D02*
X90748D01*
X38189Y85039D02*
X39764D01*
X38189Y87795D02*
X39764D01*
X42323Y50000D02*
X43898D01*
X42323Y47244D02*
X43898D01*
X326968Y46850D02*
X328543D01*
X326968Y49606D02*
X328543D01*
X293504Y46850D02*
X295079D01*
X293504Y49606D02*
X295079D01*
X258071Y48819D02*
X259646D01*
X258071Y51575D02*
X259646D01*
X220669Y52953D02*
X222244D01*
X220669Y55709D02*
X222244D01*
X128017Y52874D02*
X129592D01*
X128017Y55629D02*
X129592D01*
X95079Y92520D02*
X96654D01*
X95079Y95276D02*
X96654D01*
X44488Y92913D02*
X46063D01*
X44488Y95669D02*
X46063D01*
X36417Y42913D02*
X37992D01*
X36417Y40157D02*
X37992D01*
X182283Y44882D02*
X183858D01*
X182283Y47638D02*
X183858D01*
X182283Y35039D02*
X183858D01*
X182283Y37795D02*
X183858D01*
X337795Y28150D02*
X339370D01*
X337795Y30906D02*
X339370D01*
X304331Y28150D02*
X305906D01*
X304331Y30906D02*
X305906D01*
X268898Y30118D02*
X270472D01*
X268898Y32874D02*
X270472D01*
X232480Y38976D02*
X234055D01*
X232480Y41732D02*
X234055D01*
X138976Y38976D02*
X140551D01*
X138976Y41732D02*
X140551D01*
X105512Y28150D02*
X107086D01*
X105512Y30906D02*
X107086D01*
X55315Y28150D02*
X56890D01*
X55315Y30906D02*
X56890D01*
X25787Y30906D02*
X27362D01*
X25787Y28150D02*
X27362D01*
X335295Y75894D02*
X336870D01*
X335295Y78650D02*
X336870D01*
X304331Y75394D02*
X305906D01*
X304331Y78150D02*
X305906D01*
X268898Y75394D02*
X270472D01*
X268898Y78150D02*
X270472D01*
X232480Y75394D02*
X234055D01*
X232480Y78149D02*
X234055D01*
X138976Y75394D02*
X140551D01*
X138976Y78150D02*
X140551D01*
X105512Y75394D02*
X107087D01*
X105512Y78150D02*
X107087D01*
X55315Y75394D02*
X56890D01*
X55315Y78150D02*
X56890D01*
X25787Y78150D02*
X27362D01*
X25787Y75394D02*
X27362D01*
X335425Y103752D02*
X337000D01*
X335425Y106508D02*
X337000D01*
X304331Y122638D02*
X305906D01*
X304331Y125394D02*
X305906D01*
X268413Y112278D02*
X269987D01*
X268413Y109522D02*
X269987D01*
X232713Y124122D02*
X234287D01*
X232713Y126878D02*
X234287D01*
X138976Y122638D02*
X140551D01*
X138976Y125394D02*
X140551D01*
X105512Y122638D02*
X107087D01*
X105512Y125394D02*
X107087D01*
X55315Y122638D02*
X56890D01*
X55315Y125394D02*
X56890D01*
X25787Y106693D02*
X27362D01*
X25787Y103937D02*
X27362D01*
X335213Y122622D02*
X336787D01*
X335213Y125378D02*
X336787D01*
X304331Y178740D02*
X305906D01*
X304331Y181496D02*
X305906D01*
X274213Y179822D02*
X275787D01*
X274213Y182578D02*
X275787D01*
X232480Y171740D02*
X234055D01*
X232480Y174496D02*
X234055D01*
X138713Y171622D02*
X140287D01*
X138713Y174378D02*
X140287D01*
X105512Y173240D02*
X107087D01*
X105512Y175996D02*
X107087D01*
X55315Y178740D02*
X56890D01*
X55315Y181496D02*
X56890D01*
X25787Y125394D02*
X27362D01*
X25787Y122638D02*
X27362D01*
X337795Y236811D02*
X339370D01*
X337795Y239567D02*
X339370D01*
X304331Y194488D02*
X305906D01*
X304331Y197244D02*
X305906D01*
X273213Y193122D02*
X274787D01*
X273213Y195878D02*
X274787D01*
X199713Y198378D02*
X201287D01*
X199713Y195622D02*
X201287D01*
X138713Y195622D02*
X140287D01*
X138713Y198378D02*
X140287D01*
X105512Y203988D02*
X107086D01*
X105512Y206744D02*
X107086D01*
X55213Y203422D02*
X56787D01*
X55213Y206178D02*
X56787D01*
X25787Y239567D02*
X27362D01*
X25787Y236811D02*
X27362D01*
X337795Y264370D02*
X339370D01*
X337795Y267126D02*
X339370D01*
X304331Y264370D02*
X305906D01*
X304331Y267126D02*
X305906D01*
X268898Y264370D02*
X270472D01*
X268898Y267126D02*
X270472D01*
X232480Y264370D02*
X234055D01*
X232480Y267126D02*
X234055D01*
X138976Y264370D02*
X140551D01*
X138976Y267126D02*
X140551D01*
X105512Y264370D02*
X107086D01*
X105512Y267126D02*
X107086D01*
X55315Y264370D02*
X56890D01*
X55315Y267126D02*
X56890D01*
X25787Y267126D02*
X27362D01*
X25787Y264370D02*
X27362D01*
X337795Y311614D02*
X339370D01*
X337795Y314370D02*
X339370D01*
X304331Y311614D02*
X305906D01*
X304331Y314370D02*
X305906D01*
X268898Y319488D02*
X270472D01*
X268898Y322244D02*
X270472D01*
X231480Y311614D02*
X233055D01*
X231480Y314370D02*
X233055D01*
X138976Y311614D02*
X140551D01*
X138976Y314370D02*
X140551D01*
X105512Y311614D02*
X107087D01*
X105512Y314370D02*
X107087D01*
X55315Y311614D02*
X56890D01*
X55315Y314370D02*
X56890D01*
X25787Y314370D02*
X27362D01*
X25787Y311614D02*
X27362D01*
X337795Y333268D02*
X339370D01*
X337795Y336024D02*
X339370D01*
X304331Y333268D02*
X305906D01*
X304331Y336024D02*
X305906D01*
X268898Y333268D02*
X270472D01*
X268898Y336024D02*
X270472D01*
X231480Y324409D02*
X233055D01*
X231480Y327165D02*
X233055D01*
X122476Y324909D02*
X124051D01*
X122476Y327665D02*
X124051D01*
X105512Y333268D02*
X107087D01*
X105512Y336024D02*
X107087D01*
X55315Y333268D02*
X56890D01*
X55315Y336024D02*
X56890D01*
X25787Y336024D02*
X27362D01*
X25787Y333268D02*
X27362D01*
X349606Y28150D02*
X351181D01*
X349606Y30906D02*
X351181D01*
X316142Y32087D02*
X317717D01*
X316142Y34843D02*
X317717D01*
X280709Y34055D02*
X282283D01*
X280709Y36811D02*
X282283D01*
X244291Y38976D02*
X245866D01*
X244291Y41732D02*
X245866D01*
X149803Y38976D02*
X151378D01*
X149803Y41732D02*
X151378D01*
X116339Y28150D02*
X117913D01*
X116339Y30906D02*
X117913D01*
X66142Y28150D02*
X67716D01*
X66142Y30906D02*
X67716D01*
X14961Y30906D02*
X16535D01*
X14961Y28150D02*
X16535D01*
X347106Y75894D02*
X348681D01*
X347106Y78650D02*
X348681D01*
X316142Y75394D02*
X317717D01*
X316142Y78150D02*
X317717D01*
X280709Y75394D02*
X282283D01*
X280709Y78150D02*
X282283D01*
X244291Y75394D02*
X245866D01*
X244291Y78149D02*
X245866D01*
X149803Y75394D02*
X151378D01*
X149803Y78150D02*
X151378D01*
X116339Y75394D02*
X117913D01*
X116339Y78150D02*
X117913D01*
X66142Y75394D02*
X67716D01*
X66142Y78150D02*
X67716D01*
X14961Y78150D02*
X16535D01*
X14961Y75394D02*
X16535D01*
X349213Y104122D02*
X350787D01*
X349213Y106878D02*
X350787D01*
X316213Y123122D02*
X317787D01*
X316213Y125878D02*
X317787D01*
X280709Y129527D02*
X282283D01*
X280709Y132283D02*
X282283D01*
X244713Y124122D02*
X246287D01*
X244713Y126878D02*
X246287D01*
X149803Y129527D02*
X151378D01*
X149803Y132283D02*
X151378D01*
X116339Y129527D02*
X117913D01*
X116339Y132283D02*
X117913D01*
X66142Y122638D02*
X67716D01*
X66142Y125394D02*
X67716D01*
X14961Y106693D02*
X16535D01*
X14961Y103937D02*
X16535D01*
X349606Y122638D02*
X351181D01*
X349606Y125394D02*
X351181D01*
X316142Y178740D02*
X317717D01*
X316142Y181496D02*
X317717D01*
X284661Y179940D02*
X286236D01*
X284661Y182696D02*
X286236D01*
X244291Y171740D02*
X245866D01*
X244291Y174496D02*
X245866D01*
X152213Y173622D02*
X153787D01*
X152213Y176378D02*
X153787D01*
X116339Y173240D02*
X117913D01*
X116339Y175996D02*
X117913D01*
X66142Y178740D02*
X67716D01*
X66142Y181496D02*
X67716D01*
X14961Y125394D02*
X16535D01*
X14961Y122638D02*
X16535D01*
X349606Y236811D02*
X351181D01*
X349606Y239567D02*
X351181D01*
X316142Y194488D02*
X317717D01*
X316142Y197244D02*
X317717D01*
X280713Y234422D02*
X282287D01*
X280713Y237178D02*
X282287D01*
X237763Y197878D02*
X239337D01*
X237763Y195122D02*
X239337D01*
X152713Y235622D02*
X154287D01*
X152713Y238378D02*
X154287D01*
X116339Y203988D02*
X117913D01*
X116339Y206744D02*
X117913D01*
X66213Y203122D02*
X67787D01*
X66213Y205878D02*
X67787D01*
X14961Y239567D02*
X16535D01*
X14961Y236811D02*
X16535D01*
X349606Y264370D02*
X351181D01*
X349606Y267126D02*
X351181D01*
X316142Y264370D02*
X317717D01*
X316142Y267126D02*
X317717D01*
X280709Y264370D02*
X282283D01*
X280709Y267126D02*
X282283D01*
X244291Y264370D02*
X245866D01*
X244291Y267126D02*
X245866D01*
X149803Y264370D02*
X151378D01*
X149803Y267126D02*
X151378D01*
X116339Y264370D02*
X117913D01*
X116339Y267126D02*
X117913D01*
X66142Y264370D02*
X67716D01*
X66142Y267126D02*
X67716D01*
X14961Y267126D02*
X16535D01*
X14961Y264370D02*
X16535D01*
X349606Y311614D02*
X351181D01*
X349606Y314370D02*
X351181D01*
X316142Y311614D02*
X317717D01*
X316142Y314370D02*
X317717D01*
X280709Y319488D02*
X282283D01*
X280709Y322244D02*
X282283D01*
X244291Y311614D02*
X245866D01*
X244291Y314370D02*
X245866D01*
X149803Y311614D02*
X151378D01*
X149803Y314370D02*
X151378D01*
X116339Y311614D02*
X117913D01*
X116339Y314370D02*
X117913D01*
X66142Y311614D02*
X67716D01*
X66142Y314370D02*
X67716D01*
X14961Y314370D02*
X16535D01*
X14961Y311614D02*
X16535D01*
X349606Y333268D02*
X351181D01*
X349606Y336024D02*
X351181D01*
X316142Y333268D02*
X317717D01*
X316142Y336024D02*
X317717D01*
X280709Y333268D02*
X282283D01*
X280709Y336024D02*
X282283D01*
X244291Y324409D02*
X245866D01*
X244291Y327165D02*
X245866D01*
X133303Y324909D02*
X134878D01*
X133303Y327665D02*
X134878D01*
X116339Y333268D02*
X117913D01*
X116339Y336024D02*
X117913D01*
X66142Y333268D02*
X67716D01*
X66142Y336024D02*
X67716D01*
X14961Y336024D02*
X16535D01*
X14961Y333268D02*
X16535D01*
D53*
X86516Y30216D02*
Y34744D01*
X87205Y28838D02*
X95079D01*
Y28248D02*
Y28838D01*
X87205Y28248D02*
X95079D01*
X87205D02*
Y28838D01*
X82382Y60728D02*
Y65256D01*
X73819Y66634D02*
X81693D01*
X73819D02*
Y67224D01*
X81693D01*
Y66634D02*
Y67224D01*
X41634Y121752D02*
Y126280D01*
X42323Y120374D02*
X50197D01*
Y119784D02*
Y120374D01*
X42323Y119784D02*
X50197D01*
X42323D02*
Y120374D01*
X52264Y154232D02*
Y158760D01*
X43701Y160138D02*
X51575D01*
X43701D02*
Y160728D01*
X51575D01*
Y160138D02*
Y160728D01*
X42618Y217224D02*
Y221752D01*
X43307Y215846D02*
X51181D01*
Y215256D02*
Y215846D01*
X43307Y215256D02*
X51181D01*
X43307D02*
Y215846D01*
X42028Y248523D02*
Y253051D01*
X33465Y254429D02*
X41339D01*
X33465D02*
Y255019D01*
X41339D01*
Y254429D02*
Y255019D01*
X41043Y293996D02*
Y298524D01*
X32480Y299902D02*
X40354D01*
X32480D02*
Y300492D01*
X40354D01*
Y299902D02*
Y300492D01*
X41043Y332382D02*
Y336910D01*
X32480Y338288D02*
X40354D01*
X32480D02*
Y338878D01*
X40354D01*
Y338288D02*
Y338878D01*
X334153Y38385D02*
X338681D01*
X340059D02*
Y50197D01*
X343011D01*
Y38385D02*
Y50197D01*
X340059Y38385D02*
X343011D01*
X300689D02*
X305217D01*
X306595D02*
Y50197D01*
X309547D01*
Y38385D02*
Y50197D01*
X306595Y38385D02*
X309547D01*
X265256Y40354D02*
X269784D01*
X271162D02*
Y52166D01*
X274114D01*
Y40354D02*
Y52166D01*
X271162Y40354D02*
X274114D01*
X227854Y45275D02*
X232382D01*
X233760D02*
Y57087D01*
X236712D01*
Y45275D02*
Y57087D01*
X233760Y45275D02*
X236712D01*
X134350Y45275D02*
X138878D01*
X140256D02*
Y57087D01*
X143208D01*
Y45275D02*
Y57087D01*
X140256Y45275D02*
X143208D01*
X101378Y84580D02*
X105906D01*
X107284D02*
Y96392D01*
X110236D01*
Y84580D02*
Y96392D01*
X107284Y84580D02*
X110236D01*
X51476Y84645D02*
X56004D01*
X57382D02*
Y96457D01*
X60334D01*
Y84645D02*
Y96457D01*
X57382Y84645D02*
X60334D01*
X26673Y51182D02*
X31201D01*
X25295Y39370D02*
Y51182D01*
X22343Y39370D02*
X25295D01*
X22343D02*
Y51182D01*
X25295D01*
D54*
X184747Y40679D02*
Y41663D01*
X184255D01*
X184091Y41499D01*
Y41171D01*
X184255Y41007D01*
X184747D01*
X184419D02*
X184091Y40679D01*
X183107D02*
X183763D01*
X183107Y41335D01*
Y41499D01*
X183271Y41663D01*
X183599D01*
X183763Y41499D01*
X182779D02*
X182615Y41663D01*
X182287D01*
X182123Y41499D01*
Y40843D01*
X182287Y40679D01*
X182615D01*
X182779Y40843D01*
Y41499D01*
X181796Y40679D02*
X181467D01*
X181632D01*
Y41663D01*
X181796Y41499D01*
X187000Y31500D02*
Y32484D01*
X186508D01*
X186344Y32320D01*
Y31992D01*
X186508Y31828D01*
X187000D01*
X186672D02*
X186344Y31500D01*
X185360D02*
X186016D01*
X185360Y32156D01*
Y32320D01*
X185524Y32484D01*
X185852D01*
X186016Y32320D01*
X185032D02*
X184868Y32484D01*
X184540D01*
X184376Y32320D01*
Y31664D01*
X184540Y31500D01*
X184868D01*
X185032Y31664D01*
Y32320D01*
X184048D02*
X183884Y32484D01*
X183556D01*
X183392Y32320D01*
Y31664D01*
X183556Y31500D01*
X183884D01*
X184048Y31664D01*
Y32320D01*
X137244Y28420D02*
X137408Y28584D01*
X137736D01*
X137900Y28420D01*
Y27764D01*
X137736Y27600D01*
X137408D01*
X137244Y27764D01*
X136916Y27600D02*
X136588D01*
X136752D01*
Y28584D01*
X136916Y28420D01*
X339677Y223010D02*
X339841Y223175D01*
X340169D01*
X340333Y223010D01*
Y222355D01*
X340169Y222190D01*
X339841D01*
X339677Y222355D01*
X338693Y222190D02*
X339349D01*
X338693Y222847D01*
Y223010D01*
X338857Y223175D01*
X339185D01*
X339349Y223010D01*
X15144Y135520D02*
X15308Y135684D01*
X15636D01*
X15800Y135520D01*
Y134864D01*
X15636Y134700D01*
X15308D01*
X15144Y134864D01*
X14816Y135520D02*
X14652Y135684D01*
X14324D01*
X14160Y135520D01*
Y135356D01*
X14324Y135192D01*
X14488D01*
X14324D01*
X14160Y135028D01*
Y134864D01*
X14324Y134700D01*
X14652D01*
X14816Y134864D01*
X138044Y336720D02*
X138208Y336884D01*
X138536D01*
X138700Y336720D01*
Y336064D01*
X138536Y335900D01*
X138208D01*
X138044Y336064D01*
X137224Y335900D02*
Y336884D01*
X137716Y336392D01*
X137060D01*
M02*
