G04 Layer_Color=8421504*
%FSLAX24Y24*%
%MOIN*%
G70*
G01*
G75*
%ADD10R,0.0295X0.0532*%
%ADD11R,0.0394X0.0630*%
%ADD12R,0.0374X0.0158*%
D10*
X3150Y15197D02*
D03*
Y16693D02*
D03*
X3150Y35591D02*
D03*
Y34094D02*
D03*
X5118Y35591D02*
D03*
Y34094D02*
D03*
X9843Y35591D02*
D03*
Y34094D02*
D03*
X14567Y35591D02*
D03*
Y34094D02*
D03*
X19291Y35591D02*
D03*
Y34094D02*
D03*
X24016Y35591D02*
D03*
Y34094D02*
D03*
X28543Y35591D02*
D03*
Y34094D02*
D03*
X33465Y35591D02*
D03*
Y34094D02*
D03*
X19291Y15197D02*
D03*
Y16693D02*
D03*
X33465Y827D02*
D03*
Y2323D02*
D03*
X28543Y827D02*
D03*
Y2323D02*
D03*
X24016Y827D02*
D03*
Y2323D02*
D03*
X14567Y827D02*
D03*
Y2323D02*
D03*
X33465Y5748D02*
D03*
Y7244D02*
D03*
X28543Y5748D02*
D03*
Y7244D02*
D03*
X14567Y15197D02*
D03*
Y16693D02*
D03*
Y19724D02*
D03*
Y21220D02*
D03*
X9843Y19724D02*
D03*
Y21220D02*
D03*
X5118Y19724D02*
D03*
Y21220D02*
D03*
X3150Y19724D02*
D03*
Y21220D02*
D03*
X14468Y24646D02*
D03*
Y26142D02*
D03*
X5020Y24646D02*
D03*
Y26142D02*
D03*
X9744Y29173D02*
D03*
Y30669D02*
D03*
X3150Y29173D02*
D03*
Y30669D02*
D03*
X5020Y29173D02*
D03*
Y30669D02*
D03*
X14468Y29173D02*
D03*
Y30669D02*
D03*
X19193Y29173D02*
D03*
Y30669D02*
D03*
X23917Y29173D02*
D03*
Y30669D02*
D03*
X28445Y29173D02*
D03*
Y30669D02*
D03*
X33366Y29173D02*
D03*
Y30669D02*
D03*
X3150Y24646D02*
D03*
Y26142D02*
D03*
X9744Y24646D02*
D03*
Y26142D02*
D03*
X19193Y24646D02*
D03*
Y26142D02*
D03*
X23917Y24646D02*
D03*
Y26142D02*
D03*
X28445Y24646D02*
D03*
Y26142D02*
D03*
X33366Y24646D02*
D03*
Y26142D02*
D03*
X19291Y19724D02*
D03*
Y21220D02*
D03*
X24016Y19724D02*
D03*
Y21220D02*
D03*
X28543Y19724D02*
D03*
Y21220D02*
D03*
X33465Y19724D02*
D03*
Y21220D02*
D03*
X5118Y15197D02*
D03*
Y16693D02*
D03*
X9843Y15197D02*
D03*
Y16693D02*
D03*
X24016Y15197D02*
D03*
Y16693D02*
D03*
X28543Y15197D02*
D03*
Y16693D02*
D03*
X33465Y15197D02*
D03*
Y16693D02*
D03*
X3150Y10276D02*
D03*
Y11772D02*
D03*
X5118Y10276D02*
D03*
Y11772D02*
D03*
X9843Y10276D02*
D03*
Y11772D02*
D03*
X14567Y10276D02*
D03*
Y11772D02*
D03*
X19291Y10276D02*
D03*
Y11772D02*
D03*
X24016Y10276D02*
D03*
Y11772D02*
D03*
X28543Y10276D02*
D03*
Y11772D02*
D03*
X3150Y5748D02*
D03*
Y7244D02*
D03*
X5118Y5748D02*
D03*
Y7244D02*
D03*
X9843Y5748D02*
D03*
Y7244D02*
D03*
X14567Y5748D02*
D03*
Y7244D02*
D03*
X19291Y5748D02*
D03*
Y7244D02*
D03*
X24016Y5748D02*
D03*
Y7244D02*
D03*
X3150Y827D02*
D03*
Y2323D02*
D03*
X5118Y827D02*
D03*
Y2323D02*
D03*
X9843Y827D02*
D03*
Y2323D02*
D03*
X19291Y827D02*
D03*
Y2323D02*
D03*
X33465Y10276D02*
D03*
Y11772D02*
D03*
D11*
X20217Y8071D02*
D03*
X21319D02*
D03*
X2231Y3150D02*
D03*
X1128D02*
D03*
X34390Y8071D02*
D03*
X35492D02*
D03*
X29469D02*
D03*
X30571D02*
D03*
X24941Y8071D02*
D03*
X26043D02*
D03*
X15492Y8071D02*
D03*
X16594D02*
D03*
X10768D02*
D03*
X11870D02*
D03*
X2224D02*
D03*
X1122D02*
D03*
X34390Y12598D02*
D03*
X35492D02*
D03*
X29469D02*
D03*
X30571D02*
D03*
X2224D02*
D03*
X1122D02*
D03*
X6043Y26969D02*
D03*
X7146D02*
D03*
X2224D02*
D03*
X1122D02*
D03*
X34390Y31594D02*
D03*
X35492D02*
D03*
X2224Y33268D02*
D03*
X1122D02*
D03*
X6043D02*
D03*
X7146D02*
D03*
X10768D02*
D03*
X11870D02*
D03*
X15492D02*
D03*
X16594D02*
D03*
X20217D02*
D03*
X21319D02*
D03*
X24941D02*
D03*
X26043D02*
D03*
X29469D02*
D03*
X30571D02*
D03*
X34390D02*
D03*
X35492D02*
D03*
X2224Y31594D02*
D03*
X1122D02*
D03*
X6043D02*
D03*
X7146D02*
D03*
X10768D02*
D03*
X11870D02*
D03*
X15492D02*
D03*
X16594D02*
D03*
X20217D02*
D03*
X21319D02*
D03*
X24941Y31594D02*
D03*
X26043D02*
D03*
X29469Y31594D02*
D03*
X30571D02*
D03*
X10768Y26969D02*
D03*
X11870D02*
D03*
X15492D02*
D03*
X16594D02*
D03*
X20217D02*
D03*
X21319D02*
D03*
X24941Y26969D02*
D03*
X26043D02*
D03*
X29469Y26969D02*
D03*
X30571D02*
D03*
X34390D02*
D03*
X35492D02*
D03*
X2224Y22047D02*
D03*
X1122D02*
D03*
X10768D02*
D03*
X11870D02*
D03*
X15492Y22111D02*
D03*
X16594D02*
D03*
X20217D02*
D03*
X21319D02*
D03*
X24941Y22111D02*
D03*
X26043D02*
D03*
X34390Y22111D02*
D03*
X35492D02*
D03*
X2224Y17520D02*
D03*
X1122D02*
D03*
X6043D02*
D03*
X7146D02*
D03*
X10768D02*
D03*
X11870D02*
D03*
X15492D02*
D03*
X16594D02*
D03*
X20217D02*
D03*
X21319D02*
D03*
X24941D02*
D03*
X26043D02*
D03*
X29469D02*
D03*
X30571D02*
D03*
X34390D02*
D03*
X35492D02*
D03*
X6043Y12598D02*
D03*
X7146D02*
D03*
X10768Y12598D02*
D03*
X11870D02*
D03*
X15492Y12598D02*
D03*
X16594D02*
D03*
X20217D02*
D03*
X21319D02*
D03*
X24941Y12598D02*
D03*
X26043D02*
D03*
X6043Y8071D02*
D03*
X7146D02*
D03*
X6043Y3150D02*
D03*
X7146D02*
D03*
X10768D02*
D03*
X11870D02*
D03*
X15492D02*
D03*
X16594D02*
D03*
X20217D02*
D03*
X21319D02*
D03*
X24941D02*
D03*
X26043D02*
D03*
X29469D02*
D03*
X30571D02*
D03*
X34390D02*
D03*
X35492D02*
D03*
X6043Y22111D02*
D03*
X7146D02*
D03*
X29469D02*
D03*
X30571D02*
D03*
D12*
X11575Y1476D02*
D03*
Y1772D02*
D03*
Y2067D02*
D03*
X10866D02*
D03*
Y1772D02*
D03*
Y1476D02*
D03*
X16299D02*
D03*
Y1772D02*
D03*
Y2067D02*
D03*
X15591D02*
D03*
Y1772D02*
D03*
Y1476D02*
D03*
X30276D02*
D03*
Y1772D02*
D03*
Y2067D02*
D03*
X29567D02*
D03*
Y1772D02*
D03*
Y1476D02*
D03*
X35197D02*
D03*
Y1772D02*
D03*
Y2067D02*
D03*
X34488D02*
D03*
Y1772D02*
D03*
Y1476D02*
D03*
X6850Y29823D02*
D03*
Y30118D02*
D03*
Y30413D02*
D03*
X6142D02*
D03*
Y30118D02*
D03*
Y29823D02*
D03*
X11575D02*
D03*
Y30118D02*
D03*
Y30413D02*
D03*
X10866D02*
D03*
Y30118D02*
D03*
Y29823D02*
D03*
X1417Y35138D02*
D03*
Y34843D02*
D03*
Y34547D02*
D03*
X2126D02*
D03*
Y34843D02*
D03*
Y35138D02*
D03*
X6142D02*
D03*
Y34843D02*
D03*
Y34547D02*
D03*
X6850D02*
D03*
Y34843D02*
D03*
Y35138D02*
D03*
X10866D02*
D03*
Y34843D02*
D03*
Y34547D02*
D03*
X11575D02*
D03*
Y34843D02*
D03*
Y35138D02*
D03*
X15591D02*
D03*
Y34843D02*
D03*
Y34547D02*
D03*
X16299D02*
D03*
Y34843D02*
D03*
Y35138D02*
D03*
X20315D02*
D03*
Y34843D02*
D03*
Y34547D02*
D03*
X21024D02*
D03*
Y34843D02*
D03*
Y35138D02*
D03*
X25039D02*
D03*
Y34843D02*
D03*
Y34547D02*
D03*
X25748D02*
D03*
Y34843D02*
D03*
Y35138D02*
D03*
X29567D02*
D03*
Y34843D02*
D03*
Y34547D02*
D03*
X30276D02*
D03*
Y34843D02*
D03*
Y35138D02*
D03*
X34488D02*
D03*
Y34843D02*
D03*
Y34547D02*
D03*
X35197D02*
D03*
Y34843D02*
D03*
Y35138D02*
D03*
Y29823D02*
D03*
Y30118D02*
D03*
Y30413D02*
D03*
X34488D02*
D03*
Y30118D02*
D03*
Y29823D02*
D03*
X30276D02*
D03*
Y30118D02*
D03*
Y30413D02*
D03*
X29567D02*
D03*
Y30118D02*
D03*
Y29823D02*
D03*
X25748Y29823D02*
D03*
Y30118D02*
D03*
Y30413D02*
D03*
X25039D02*
D03*
Y30118D02*
D03*
Y29823D02*
D03*
X21024Y29823D02*
D03*
Y30118D02*
D03*
Y30413D02*
D03*
X20315D02*
D03*
Y30118D02*
D03*
Y29823D02*
D03*
X16299D02*
D03*
Y30118D02*
D03*
Y30413D02*
D03*
X15591D02*
D03*
Y30118D02*
D03*
Y29823D02*
D03*
X2126D02*
D03*
Y30118D02*
D03*
Y30413D02*
D03*
X1417D02*
D03*
Y30118D02*
D03*
Y29823D02*
D03*
Y25689D02*
D03*
Y25394D02*
D03*
Y25098D02*
D03*
X2126D02*
D03*
Y25394D02*
D03*
Y25689D02*
D03*
X6142D02*
D03*
Y25394D02*
D03*
Y25098D02*
D03*
X6850D02*
D03*
Y25394D02*
D03*
Y25689D02*
D03*
X10866D02*
D03*
Y25394D02*
D03*
Y25098D02*
D03*
X11575D02*
D03*
Y25394D02*
D03*
Y25689D02*
D03*
X15591D02*
D03*
Y25394D02*
D03*
Y25098D02*
D03*
X16299D02*
D03*
Y25394D02*
D03*
Y25689D02*
D03*
X20315D02*
D03*
Y25394D02*
D03*
Y25098D02*
D03*
X21024D02*
D03*
Y25394D02*
D03*
Y25689D02*
D03*
X25039Y25689D02*
D03*
Y25394D02*
D03*
Y25098D02*
D03*
X25748D02*
D03*
Y25394D02*
D03*
Y25689D02*
D03*
X29567Y25689D02*
D03*
Y25394D02*
D03*
Y25098D02*
D03*
X30276D02*
D03*
Y25394D02*
D03*
Y25689D02*
D03*
X34488D02*
D03*
Y25394D02*
D03*
Y25098D02*
D03*
X35197D02*
D03*
Y25394D02*
D03*
Y25689D02*
D03*
Y20374D02*
D03*
Y20669D02*
D03*
Y20965D02*
D03*
X34488D02*
D03*
Y20669D02*
D03*
Y20374D02*
D03*
X21024D02*
D03*
Y20669D02*
D03*
Y20965D02*
D03*
X20315D02*
D03*
Y20669D02*
D03*
Y20374D02*
D03*
X16299D02*
D03*
Y20669D02*
D03*
Y20965D02*
D03*
X15591D02*
D03*
Y20669D02*
D03*
Y20374D02*
D03*
X11575D02*
D03*
Y20669D02*
D03*
Y20965D02*
D03*
X10866D02*
D03*
Y20669D02*
D03*
Y20374D02*
D03*
X6850D02*
D03*
Y20669D02*
D03*
Y20965D02*
D03*
X6142D02*
D03*
Y20669D02*
D03*
Y20374D02*
D03*
X2126D02*
D03*
Y20669D02*
D03*
Y20965D02*
D03*
X1417D02*
D03*
Y20669D02*
D03*
Y20374D02*
D03*
Y16240D02*
D03*
Y15945D02*
D03*
Y15650D02*
D03*
X2126D02*
D03*
Y15945D02*
D03*
Y16240D02*
D03*
X6142D02*
D03*
Y15945D02*
D03*
Y15650D02*
D03*
X6850D02*
D03*
Y15945D02*
D03*
Y16240D02*
D03*
X10866D02*
D03*
Y15945D02*
D03*
Y15650D02*
D03*
X11575D02*
D03*
Y15945D02*
D03*
Y16240D02*
D03*
X15591D02*
D03*
Y15945D02*
D03*
Y15650D02*
D03*
X16299D02*
D03*
Y15945D02*
D03*
Y16240D02*
D03*
X20315D02*
D03*
Y15945D02*
D03*
Y15650D02*
D03*
X21024D02*
D03*
Y15945D02*
D03*
Y16240D02*
D03*
X25039Y16240D02*
D03*
Y15945D02*
D03*
Y15650D02*
D03*
X25748D02*
D03*
Y15945D02*
D03*
Y16240D02*
D03*
X29567Y16240D02*
D03*
Y15945D02*
D03*
Y15650D02*
D03*
X30276D02*
D03*
Y15945D02*
D03*
Y16240D02*
D03*
X34488D02*
D03*
Y15945D02*
D03*
Y15650D02*
D03*
X35197D02*
D03*
Y15945D02*
D03*
Y16240D02*
D03*
Y10925D02*
D03*
Y11220D02*
D03*
Y11516D02*
D03*
X34488D02*
D03*
Y11220D02*
D03*
Y10925D02*
D03*
X30276D02*
D03*
Y11220D02*
D03*
Y11516D02*
D03*
X29567D02*
D03*
Y11220D02*
D03*
Y10925D02*
D03*
X25748Y10925D02*
D03*
Y11220D02*
D03*
Y11516D02*
D03*
X25039D02*
D03*
Y11220D02*
D03*
Y10925D02*
D03*
X21024Y10925D02*
D03*
Y11220D02*
D03*
Y11516D02*
D03*
X20315D02*
D03*
Y11220D02*
D03*
Y10925D02*
D03*
X11575D02*
D03*
Y11220D02*
D03*
Y11516D02*
D03*
X10866D02*
D03*
Y11220D02*
D03*
Y10925D02*
D03*
X6850D02*
D03*
Y11220D02*
D03*
Y11516D02*
D03*
X6142D02*
D03*
Y11220D02*
D03*
Y10925D02*
D03*
X2126D02*
D03*
Y11220D02*
D03*
Y11516D02*
D03*
X1417D02*
D03*
Y11220D02*
D03*
Y10925D02*
D03*
Y6791D02*
D03*
Y6496D02*
D03*
Y6201D02*
D03*
X2126D02*
D03*
Y6496D02*
D03*
Y6791D02*
D03*
X6142D02*
D03*
Y6496D02*
D03*
Y6201D02*
D03*
X6850D02*
D03*
Y6496D02*
D03*
Y6791D02*
D03*
X10866D02*
D03*
Y6496D02*
D03*
Y6201D02*
D03*
X11575D02*
D03*
Y6496D02*
D03*
Y6791D02*
D03*
X15591D02*
D03*
Y6496D02*
D03*
Y6201D02*
D03*
X16299D02*
D03*
Y6496D02*
D03*
Y6791D02*
D03*
X20315D02*
D03*
Y6496D02*
D03*
Y6201D02*
D03*
X21024D02*
D03*
Y6496D02*
D03*
Y6791D02*
D03*
X25039Y6791D02*
D03*
Y6496D02*
D03*
Y6201D02*
D03*
X25748D02*
D03*
Y6496D02*
D03*
Y6791D02*
D03*
X29567Y6791D02*
D03*
Y6496D02*
D03*
Y6201D02*
D03*
X30276D02*
D03*
Y6496D02*
D03*
Y6791D02*
D03*
X34488D02*
D03*
Y6496D02*
D03*
Y6201D02*
D03*
X35197D02*
D03*
Y6496D02*
D03*
Y6791D02*
D03*
X6850Y1476D02*
D03*
Y1772D02*
D03*
Y2067D02*
D03*
X6142D02*
D03*
Y1772D02*
D03*
Y1476D02*
D03*
X2126D02*
D03*
Y1772D02*
D03*
Y2067D02*
D03*
X1417D02*
D03*
Y1772D02*
D03*
Y1476D02*
D03*
X30276Y20374D02*
D03*
Y20669D02*
D03*
Y20965D02*
D03*
X29567D02*
D03*
Y20669D02*
D03*
Y20374D02*
D03*
X16299Y10925D02*
D03*
Y11220D02*
D03*
Y11516D02*
D03*
X15591D02*
D03*
Y11220D02*
D03*
Y10925D02*
D03*
X25748Y20374D02*
D03*
Y20669D02*
D03*
Y20965D02*
D03*
X25039D02*
D03*
Y20669D02*
D03*
Y20374D02*
D03*
X21024Y1476D02*
D03*
Y1772D02*
D03*
Y2067D02*
D03*
X20315D02*
D03*
Y1772D02*
D03*
Y1476D02*
D03*
X25748Y1476D02*
D03*
Y1772D02*
D03*
Y2067D02*
D03*
X25039D02*
D03*
Y1772D02*
D03*
Y1476D02*
D03*
M02*
