M48
;Layer_Color=9474304
;FILE_FORMAT=2:4
INCH,LZ
T2F00S00C0.2000
%
G90
G05
T02
G00X036813Y-00098
M15
G01X037004Y-000921
G01X037179Y-000825
G01X037332Y-000696
G01X037456Y-00054
G01X037546Y-000362
G01X0376Y-000169
G01X037614Y0
G01X037614Y036614
G01X037594Y036813
G01X037535Y037004
G01X037439Y037179
G01X037311Y037332
G01X037154Y037456
G01X036976Y037546
G01X036784Y0376
G01X036614Y037614
G01X0Y037614
G01X-000199Y037594
G01X-00039Y037535
G01X-000565Y037439
G01X-000718Y037311
G01X-000842Y037154
G01X-000932Y036976
G01X-000986Y036784
G01X-001Y036614
G01X-001Y0
G01X-00098Y-000199
G01X-000921Y-00039
G01X-000825Y-000565
G01X-000696Y-000718
G01X-00054Y-000842
G01X-000362Y-000932
G01X-000169Y-000986
G01X0Y-001
G01X036614Y-001
G01X036813Y-00098
M16
M17
M30
