G04 Layer_Physical_Order=3*
G04 Layer_Color=128*
%FSLAX25Y25*%
%MOIN*%
G70*
G01*
G75*
%ADD16C,0.04000*%
%ADD17C,0.06800*%
G04:AMPARAMS|DCode=18|XSize=88mil|YSize=88mil|CornerRadius=0mil|HoleSize=0mil|Usage=FLASHONLY|Rotation=0.000|XOffset=0mil|YOffset=0mil|HoleType=Round|Shape=Relief|Width=10mil|Gap=10mil|Entries=4|*
%AMTHD18*
7,0,0,0.08800,0.06800,0.01000,45*
%
%ADD18THD18*%
D16*
X0Y0D02*
Y366142D01*
X366142D01*
Y0D02*
Y366142D01*
X0Y0D02*
X366142D01*
D17*
X60400Y357000D02*
D03*
X108200Y357100D02*
D03*
X258800D02*
D03*
X314200Y344000D02*
D03*
X270000D02*
D03*
X227600Y354100D02*
D03*
X221600Y335400D02*
D03*
X125400Y354000D02*
D03*
X84500Y354500D02*
D03*
X38386Y356100D02*
D03*
X203600Y288900D02*
D03*
X42400Y312600D02*
D03*
X42100Y305200D02*
D03*
X328800Y178100D02*
D03*
X213700Y95800D02*
D03*
X225000Y87500D02*
D03*
X213500Y103800D02*
D03*
Y88800D02*
D03*
X284000Y49400D02*
D03*
X342400Y52100D02*
D03*
X317100Y174100D02*
D03*
X284400Y272200D02*
D03*
X284200Y313700D02*
D03*
X320400Y305400D02*
D03*
X51700Y238700D02*
D03*
X87000Y52500D02*
D03*
X91000Y58000D02*
D03*
X90900Y64800D02*
D03*
X32300Y182100D02*
D03*
Y174500D02*
D03*
X32200Y189400D02*
D03*
X88100Y125100D02*
D03*
X198000Y188700D02*
D03*
X189900D02*
D03*
X150300Y188800D02*
D03*
X272100Y134500D02*
D03*
X319900Y117800D02*
D03*
X284300Y83500D02*
D03*
X319800D02*
D03*
X137400Y61200D02*
D03*
X308200Y189300D02*
D03*
X31017Y130400D02*
D03*
X24000Y137600D02*
D03*
X23400Y98900D02*
D03*
X45900Y79100D02*
D03*
X37900Y78800D02*
D03*
X97200Y80200D02*
D03*
X44600Y137600D02*
D03*
X210200Y150800D02*
D03*
X219000Y211500D02*
D03*
X293300Y195700D02*
D03*
X172600Y103700D02*
D03*
X195100Y275200D02*
D03*
X101300Y47700D02*
D03*
X41500Y210700D02*
D03*
X10800Y133500D02*
D03*
X177900Y335700D02*
D03*
X335500Y175000D02*
D03*
X330600Y190000D02*
D03*
X335600Y183300D02*
D03*
X204600Y48000D02*
D03*
X202200Y40000D02*
D03*
X192300Y41700D02*
D03*
X182500Y29500D02*
D03*
X153800Y277800D02*
D03*
X282100Y124700D02*
D03*
X241500Y333500D02*
D03*
X159449Y189000D02*
D03*
X167500D02*
D03*
X230000Y246000D02*
D03*
X326000Y258500D02*
D03*
X251450Y136000D02*
D03*
X272200Y151000D02*
D03*
X355000Y137500D02*
D03*
X357000Y325000D02*
D03*
X76500Y8000D02*
D03*
X84646Y25591D02*
D03*
X61024Y7874D02*
D03*
X177500Y293500D02*
D03*
X175197Y313976D02*
D03*
X257500Y281000D02*
D03*
X241500Y274000D02*
D03*
X232500Y292000D02*
D03*
X238500Y184000D02*
D03*
X308000Y356500D02*
D03*
X218500Y250500D02*
D03*
X263500Y194000D02*
D03*
X249500Y277500D02*
D03*
X142500Y281500D02*
D03*
X291500Y42000D02*
D03*
X354000Y41000D02*
D03*
X351500Y56400D02*
D03*
X319700Y41400D02*
D03*
X212000Y55500D02*
D03*
X68500Y50000D02*
D03*
X109252Y51181D02*
D03*
X193000Y133000D02*
D03*
X274500Y241500D02*
D03*
X247500Y92000D02*
D03*
X327500Y116500D02*
D03*
X321000Y151500D02*
D03*
X323000Y134000D02*
D03*
X339500Y91000D02*
D03*
X247500Y100157D02*
D03*
X227200Y97500D02*
D03*
X259000Y95000D02*
D03*
X266428D02*
D03*
X233900Y103600D02*
D03*
X285000Y95000D02*
D03*
X308000Y95500D02*
D03*
X261450Y135550D02*
D03*
X144000Y325000D02*
D03*
X8000Y324000D02*
D03*
X85000Y321000D02*
D03*
X177500Y324500D02*
D03*
X92500Y323500D02*
D03*
Y357500D02*
D03*
X142700Y238600D02*
D03*
X143900Y333200D02*
D03*
X196100Y323700D02*
D03*
X181500Y158700D02*
D03*
X173800Y175100D02*
D03*
X157300Y102500D02*
D03*
X98000Y189000D02*
D03*
X132000D02*
D03*
X91000D02*
D03*
X142717D02*
D03*
X179000Y180000D02*
D03*
X84000Y189000D02*
D03*
X126382Y174618D02*
D03*
X109252Y197000D02*
D03*
X84000Y137000D02*
D03*
X58900Y147800D02*
D03*
X75600Y145900D02*
D03*
X80000Y120000D02*
D03*
X96000Y135000D02*
D03*
X74100Y231800D02*
D03*
X129000Y212800D02*
D03*
X272638Y104331D02*
D03*
X15300Y324400D02*
D03*
X319300Y216000D02*
D03*
X334646Y219488D02*
D03*
X327500Y309400D02*
D03*
X221500Y125900D02*
D03*
X319000Y243800D02*
D03*
X220800Y153200D02*
D03*
X307900Y235900D02*
D03*
X126200Y149800D02*
D03*
X121500Y235100D02*
D03*
X77756Y221457D02*
D03*
X173228Y74803D02*
D03*
X123977Y87598D02*
D03*
X169291Y57087D02*
D03*
X79724Y78740D02*
D03*
X277559Y22638D02*
D03*
X241142Y31496D02*
D03*
X220472D02*
D03*
X23622Y7874D02*
D03*
X10827Y88583D02*
D03*
X45276Y185039D02*
D03*
X109252Y228652D02*
D03*
X354331Y280512D02*
D03*
X77756Y263779D02*
D03*
X83661Y269462D02*
D03*
X12795Y281496D02*
D03*
X325787Y294094D02*
D03*
X126969Y314961D02*
D03*
X83661Y305118D02*
D03*
X178150Y246063D02*
D03*
X123031Y247047D02*
D03*
X45276Y193898D02*
D03*
X88600Y228500D02*
D03*
X227600Y23400D02*
D03*
X126200Y77400D02*
D03*
X278543Y342520D02*
D03*
X326772Y341535D02*
D03*
X83661Y72835D02*
D03*
X109252Y241142D02*
D03*
X132874Y8858D02*
D03*
X109252Y103346D02*
D03*
X148031Y30709D02*
D03*
X319882Y26575D02*
D03*
X310039Y22638D02*
D03*
X245079Y46260D02*
D03*
X77756Y169291D02*
D03*
X268701Y10827D02*
D03*
X118706Y100394D02*
D03*
X23622Y54134D02*
D03*
X44291Y103347D02*
D03*
X61024D02*
D03*
X343504Y358268D02*
D03*
X6000Y22638D02*
D03*
Y14764D02*
D03*
X127953Y22145D02*
D03*
Y30709D02*
D03*
X344488Y8858D02*
D03*
X40400Y117800D02*
D03*
X172244Y88582D02*
D03*
X155900Y91700D02*
D03*
X163535Y91535D02*
D03*
X165900Y40900D02*
D03*
X249200Y7400D02*
D03*
X354900Y229300D02*
D03*
X216300Y46600D02*
D03*
X6000Y40100D02*
D03*
X32480Y144685D02*
D03*
X10000Y245200D02*
D03*
X254400Y322900D02*
D03*
X128000Y266200D02*
D03*
X138900Y154500D02*
D03*
X43307Y261811D02*
D03*
X23300Y244600D02*
D03*
X45700Y174400D02*
D03*
X35100Y230500D02*
D03*
X174400Y127000D02*
D03*
X351500Y89900D02*
D03*
X13700Y51200D02*
D03*
X20600Y229900D02*
D03*
X107800Y148700D02*
D03*
X127953Y125984D02*
D03*
X138779Y104331D02*
D03*
X272638Y291339D02*
D03*
X308071D02*
D03*
X37402Y272638D02*
D03*
X23622Y283465D02*
D03*
X60039Y283464D02*
D03*
X109252Y283465D02*
D03*
X122047D02*
D03*
X17600Y133600D02*
D03*
X265200Y60000D02*
D03*
X109252Y8858D02*
D03*
X38900Y154400D02*
D03*
X40600Y200100D02*
D03*
X83400Y314300D02*
D03*
X79500Y332200D02*
D03*
X42400Y341300D02*
D03*
X126500Y334600D02*
D03*
X131700Y340800D02*
D03*
X221400Y234400D02*
D03*
X324700Y211500D02*
D03*
X327200Y155400D02*
D03*
X349500Y133500D02*
D03*
X335800Y144400D02*
D03*
X308900Y6100D02*
D03*
X279700Y29300D02*
D03*
X78000Y244500D02*
D03*
X59055Y241142D02*
D03*
X170500Y323200D02*
D03*
X218200Y309200D02*
D03*
X249146Y182700D02*
D03*
X265500Y119400D02*
D03*
X357700Y118300D02*
D03*
X77300Y37200D02*
D03*
X235800Y284600D02*
D03*
X225400Y274000D02*
D03*
X230000Y218500D02*
D03*
X264500Y234500D02*
D03*
X279200Y214200D02*
D03*
X269700Y187700D02*
D03*
X287448Y174700D02*
D03*
X276700Y187800D02*
D03*
X251900Y195300D02*
D03*
X245500Y234500D02*
D03*
X228500D02*
D03*
X237000D02*
D03*
X59055Y187992D02*
D03*
X169300Y213300D02*
D03*
X307400Y151800D02*
D03*
X59100Y56300D02*
D03*
X357500Y340900D02*
D03*
X7638Y307638D02*
D03*
X319900Y272200D02*
D03*
X233400Y190400D02*
D03*
X319500Y189000D02*
D03*
X70200Y186800D02*
D03*
D18*
X233000Y358800D02*
D03*
X208600Y189200D02*
D03*
X206600Y282300D02*
D03*
X259300Y150900D02*
D03*
X299400Y151100D02*
D03*
X118300Y149600D02*
D03*
X87900Y116800D02*
D03*
X177400Y152300D02*
D03*
X266500Y88100D02*
D03*
X249200Y53300D02*
D03*
X5500Y118100D02*
D03*
X229000Y9100D02*
D03*
X137200Y23500D02*
D03*
X273900Y119700D02*
D03*
X77756Y21654D02*
D03*
X336000Y325000D02*
D03*
X130000Y305500D02*
D03*
X218500Y243500D02*
D03*
X353500Y49500D02*
D03*
X299000Y57000D02*
D03*
X327000Y124500D02*
D03*
X344000Y138500D02*
D03*
X155000Y244000D02*
D03*
X8000Y341500D02*
D03*
X80000Y339000D02*
D03*
X180000Y115400D02*
D03*
X68898Y150591D02*
D03*
X136200Y212600D02*
D03*
X310600Y212700D02*
D03*
X295400Y245300D02*
D03*
X128700Y235200D02*
D03*
X161417Y56496D02*
D03*
X37402Y29528D02*
D03*
X10000Y228346D02*
D03*
X266732Y22638D02*
D03*
X258858Y291339D02*
D03*
X29528Y272638D02*
D03*
X137795Y356100D02*
D03*
X6000Y57000D02*
D03*
X29527Y88427D02*
D03*
X131758Y100394D02*
D03*
X222000Y116000D02*
D03*
X329724Y29528D02*
D03*
X302165Y8858D02*
D03*
X53150Y47244D02*
D03*
X123000Y117300D02*
D03*
X123500Y8858D02*
D03*
X89200Y247300D02*
D03*
X347400Y229400D02*
D03*
X91500Y100400D02*
D03*
X301181Y291339D02*
D03*
X53150Y283465D02*
D03*
X73819D02*
D03*
X325800Y63800D02*
D03*
X69100Y244600D02*
D03*
X227900Y305500D02*
D03*
X301700Y100400D02*
D03*
X265900Y213600D02*
D03*
X336000Y281500D02*
D03*
X247200Y244900D02*
D03*
X118200Y56900D02*
D03*
X203500Y56400D02*
D03*
X69900Y195100D02*
D03*
M02*
