G04 Layer_Color=255*
%FSLAX24Y24*%
%MOIN*%
G70*
G01*
G75*
%ADD19R,0.0276X0.0354*%
%ADD20R,0.0217X0.0453*%
%ADD21R,0.0453X0.0236*%
%ADD22R,0.0354X0.0276*%
%ADD23R,0.0700X0.2400*%
%ADD24R,0.2400X0.0700*%
%ADD25R,0.0394X0.0787*%
%ADD26R,0.0236X0.0197*%
%ADD27R,0.0140X0.0580*%
%ADD28R,0.0580X0.0140*%
%ADD29R,0.0197X0.0236*%
%ADD30R,0.0410X0.0630*%
D19*
X14805Y12402D02*
D03*
X15395D02*
D03*
X13681D02*
D03*
X14272D02*
D03*
X11417D02*
D03*
X12008D02*
D03*
X10335D02*
D03*
X10925D02*
D03*
X6398D02*
D03*
X6988D02*
D03*
X5315D02*
D03*
X5906D02*
D03*
X1870Y12402D02*
D03*
X1280D02*
D03*
X2953D02*
D03*
X2362D02*
D03*
X21850Y5433D02*
D03*
X22441D02*
D03*
X12585Y5425D02*
D03*
X13176D02*
D03*
X34494Y7727D02*
D03*
X35085D02*
D03*
X33313D02*
D03*
X33904D02*
D03*
X31398Y7677D02*
D03*
X31988D02*
D03*
X30217D02*
D03*
X30807D02*
D03*
X27854D02*
D03*
X28445D02*
D03*
X26673D02*
D03*
X27264D02*
D03*
X23031Y7677D02*
D03*
X23622D02*
D03*
X24213D02*
D03*
X24803D02*
D03*
X23031Y4035D02*
D03*
X23622D02*
D03*
X24213D02*
D03*
X24803D02*
D03*
X13681Y4035D02*
D03*
X14272D02*
D03*
X14764Y4035D02*
D03*
X15354D02*
D03*
X1870Y33465D02*
D03*
X1280D02*
D03*
X6398Y33465D02*
D03*
X6988D02*
D03*
X11417D02*
D03*
X12008D02*
D03*
X13114Y32629D02*
D03*
X13704D02*
D03*
X24213Y32579D02*
D03*
X24803D02*
D03*
X27854Y33465D02*
D03*
X28445D02*
D03*
X31398Y33465D02*
D03*
X31988D02*
D03*
X34744D02*
D03*
X35335D02*
D03*
X1870Y31299D02*
D03*
X1280D02*
D03*
X6398Y31299D02*
D03*
X6988D02*
D03*
X11417D02*
D03*
X12008D02*
D03*
X14764Y31299D02*
D03*
X15354D02*
D03*
X24213Y31299D02*
D03*
X24803D02*
D03*
X27854Y32087D02*
D03*
X28445D02*
D03*
X31398Y31299D02*
D03*
X31988D02*
D03*
X34744D02*
D03*
X35335D02*
D03*
X1870Y26575D02*
D03*
X1280D02*
D03*
X6398Y26575D02*
D03*
X6988D02*
D03*
X11417D02*
D03*
X12008D02*
D03*
X14764Y26575D02*
D03*
X15354D02*
D03*
X27854Y26575D02*
D03*
X28445D02*
D03*
X31398D02*
D03*
X31988D02*
D03*
X34744D02*
D03*
X35335D02*
D03*
X1870Y23819D02*
D03*
X1280D02*
D03*
X6405Y20450D02*
D03*
X6995D02*
D03*
X15055Y23700D02*
D03*
X15645D02*
D03*
X24150Y19650D02*
D03*
X23560D02*
D03*
X27855Y23580D02*
D03*
X28445D02*
D03*
X31398Y19587D02*
D03*
X31988D02*
D03*
X34744Y23819D02*
D03*
X35335D02*
D03*
X11417Y17462D02*
D03*
X12008D02*
D03*
X15005Y17500D02*
D03*
X15595D02*
D03*
X24213Y17312D02*
D03*
X24803D02*
D03*
X28250Y18132D02*
D03*
X28840D02*
D03*
X31398Y18012D02*
D03*
X31988D02*
D03*
X34744Y12402D02*
D03*
X35335D02*
D03*
X1870Y10532D02*
D03*
X1280D02*
D03*
X24255Y12550D02*
D03*
X24845D02*
D03*
X27854Y13091D02*
D03*
X28445D02*
D03*
X31405Y12450D02*
D03*
X31995D02*
D03*
X34705Y10550D02*
D03*
X35295D02*
D03*
X1870Y7677D02*
D03*
X1280D02*
D03*
X6398Y7677D02*
D03*
X6988D02*
D03*
X11417Y7677D02*
D03*
X12008D02*
D03*
X14764Y7677D02*
D03*
X15354D02*
D03*
X11417Y2953D02*
D03*
X12008D02*
D03*
X31398D02*
D03*
X31988D02*
D03*
X34744D02*
D03*
X35335D02*
D03*
X2953Y33465D02*
D03*
X2362D02*
D03*
X5315Y33465D02*
D03*
X5906D02*
D03*
X10335D02*
D03*
X10925D02*
D03*
X12031Y32629D02*
D03*
X12622D02*
D03*
X22931Y32579D02*
D03*
X23522D02*
D03*
X26673Y33465D02*
D03*
X27264D02*
D03*
X30217D02*
D03*
X30807D02*
D03*
X33563D02*
D03*
X34154D02*
D03*
X2953Y31299D02*
D03*
X2362D02*
D03*
X5315Y31299D02*
D03*
X5906D02*
D03*
X10335D02*
D03*
X10925D02*
D03*
X13681D02*
D03*
X14272D02*
D03*
X22931Y31299D02*
D03*
X23522D02*
D03*
X26673Y32087D02*
D03*
X27264D02*
D03*
X30217Y31299D02*
D03*
X30807D02*
D03*
X33563D02*
D03*
X34154D02*
D03*
X2953Y26575D02*
D03*
X2362D02*
D03*
X5315Y26575D02*
D03*
X5906D02*
D03*
X10335D02*
D03*
X10925D02*
D03*
X13681D02*
D03*
X14272D02*
D03*
X26673D02*
D03*
X27264D02*
D03*
X30217D02*
D03*
X30807D02*
D03*
X33563D02*
D03*
X34154D02*
D03*
X2953Y23819D02*
D03*
X2362D02*
D03*
X5305Y20480D02*
D03*
X5895D02*
D03*
X10335Y20537D02*
D03*
X10925D02*
D03*
X13655Y19700D02*
D03*
X14245D02*
D03*
X20345Y19700D02*
D03*
X19755D02*
D03*
X27105Y19450D02*
D03*
X27695D02*
D03*
X30217Y19587D02*
D03*
X30807D02*
D03*
X33563Y23819D02*
D03*
X34154D02*
D03*
X5315Y18012D02*
D03*
X5906D02*
D03*
X10335Y17462D02*
D03*
X10925D02*
D03*
X13655Y17300D02*
D03*
X14245D02*
D03*
X23031Y17312D02*
D03*
X23622D02*
D03*
X27205Y18120D02*
D03*
X27795D02*
D03*
X30217Y18012D02*
D03*
X30807D02*
D03*
X33305Y12400D02*
D03*
X33895D02*
D03*
X2953Y10532D02*
D03*
X2362D02*
D03*
X23055Y12550D02*
D03*
X23645D02*
D03*
X27215Y11090D02*
D03*
X26625D02*
D03*
X30217Y12402D02*
D03*
X30807D02*
D03*
X33326Y10513D02*
D03*
X33917D02*
D03*
X2953Y7677D02*
D03*
X2362D02*
D03*
X5315Y7677D02*
D03*
X5906D02*
D03*
X10335D02*
D03*
X10925D02*
D03*
X13681D02*
D03*
X14272D02*
D03*
X5315Y2953D02*
D03*
X5906D02*
D03*
X10335D02*
D03*
X10925D02*
D03*
X30215D02*
D03*
X30805D02*
D03*
X33563D02*
D03*
X34154D02*
D03*
X4232Y9429D02*
D03*
X4823D02*
D03*
X9291Y9390D02*
D03*
X9882D02*
D03*
X3602Y8642D02*
D03*
X4193D02*
D03*
X8701Y8681D02*
D03*
X9291D02*
D03*
X4921Y13091D02*
D03*
X4331D02*
D03*
X6398Y2953D02*
D03*
X6988D02*
D03*
X6398Y18012D02*
D03*
X6988D02*
D03*
X11417Y20537D02*
D03*
X12008D02*
D03*
X24213Y26575D02*
D03*
X24803D02*
D03*
X1870Y2953D02*
D03*
X1280D02*
D03*
X23031Y26575D02*
D03*
X23622D02*
D03*
X2953Y2953D02*
D03*
X2362D02*
D03*
X4016Y4154D02*
D03*
X3425D02*
D03*
X4606Y4862D02*
D03*
X4016D02*
D03*
X3945Y32150D02*
D03*
X3355D02*
D03*
X3976Y28346D02*
D03*
X3386D02*
D03*
X4035Y23858D02*
D03*
X3445D02*
D03*
X4429Y23130D02*
D03*
X5020D02*
D03*
X5020Y14469D02*
D03*
X4429D02*
D03*
X8858Y4626D02*
D03*
X9449D02*
D03*
X3346Y32677D02*
D03*
X3937D02*
D03*
X3386Y28839D02*
D03*
X3976D02*
D03*
X3445Y24409D02*
D03*
X4035D02*
D03*
X5020Y22638D02*
D03*
X4429D02*
D03*
X4429Y14961D02*
D03*
X5020D02*
D03*
X9449Y4035D02*
D03*
X8858D02*
D03*
X29134Y4823D02*
D03*
X29724D02*
D03*
X32480Y4823D02*
D03*
X33071D02*
D03*
X27854Y2953D02*
D03*
X28445D02*
D03*
X26673D02*
D03*
X27264D02*
D03*
X18012Y3642D02*
D03*
X18602D02*
D03*
X1870Y1969D02*
D03*
X1280D02*
D03*
X1870Y1476D02*
D03*
X1280D02*
D03*
X18012Y4626D02*
D03*
X18602D02*
D03*
X7480Y5610D02*
D03*
X8071D02*
D03*
X8071Y5020D02*
D03*
X7480D02*
D03*
X25591Y5020D02*
D03*
X26181D02*
D03*
D20*
X9114Y2461D02*
D03*
X9370Y3248D02*
D03*
X8858D02*
D03*
X3642Y34252D02*
D03*
X3386Y33465D02*
D03*
X3898D02*
D03*
X3642Y30413D02*
D03*
X3386Y29626D02*
D03*
X3898D02*
D03*
X3740Y25866D02*
D03*
X3484Y25079D02*
D03*
X3996D02*
D03*
X4764Y16437D02*
D03*
X4508Y15650D02*
D03*
X5020D02*
D03*
X7776Y7087D02*
D03*
X7520Y6299D02*
D03*
X8031D02*
D03*
X4626Y11614D02*
D03*
X4882Y12402D02*
D03*
X4370D02*
D03*
X4724Y21161D02*
D03*
X4980Y21949D02*
D03*
X4469D02*
D03*
D21*
X1870Y4528D02*
D03*
X2894Y4154D02*
D03*
Y4902D02*
D03*
X31319Y4429D02*
D03*
X30295Y4803D02*
D03*
Y4055D02*
D03*
X34665Y4429D02*
D03*
X33642Y4803D02*
D03*
Y4055D02*
D03*
X27776Y4626D02*
D03*
X26752Y5000D02*
D03*
Y4252D02*
D03*
X24035Y5118D02*
D03*
X23012Y5492D02*
D03*
Y4744D02*
D03*
X14685Y5118D02*
D03*
X13661Y5492D02*
D03*
Y4744D02*
D03*
X6398Y9055D02*
D03*
X5374Y9429D02*
D03*
Y8681D02*
D03*
X11388Y9049D02*
D03*
X10364Y9423D02*
D03*
Y8675D02*
D03*
D22*
X12585Y6468D02*
D03*
Y5878D02*
D03*
X25600Y6065D02*
D03*
Y5475D02*
D03*
X3740Y13091D02*
D03*
Y12500D02*
D03*
X29134Y5807D02*
D03*
Y5217D02*
D03*
X32480Y5807D02*
D03*
Y5217D02*
D03*
X21850Y6496D02*
D03*
Y5906D02*
D03*
D23*
X14642Y1339D02*
D03*
X15642D02*
D03*
X16642D02*
D03*
X17642D02*
D03*
X18972D02*
D03*
X19972D02*
D03*
X20972D02*
D03*
X21972D02*
D03*
X14642Y35276D02*
D03*
X15642D02*
D03*
X16642D02*
D03*
X17642D02*
D03*
X18972D02*
D03*
X19972D02*
D03*
X20972D02*
D03*
X21972D02*
D03*
D24*
X35276Y21972D02*
D03*
Y20972D02*
D03*
Y19972D02*
D03*
Y18972D02*
D03*
Y17642D02*
D03*
Y16642D02*
D03*
Y15642D02*
D03*
Y14642D02*
D03*
X1339Y21972D02*
D03*
Y20972D02*
D03*
Y19972D02*
D03*
Y18972D02*
D03*
Y17642D02*
D03*
Y16642D02*
D03*
Y15642D02*
D03*
Y14642D02*
D03*
D25*
X17070Y26606D02*
D03*
X19042D02*
D03*
X18058Y27874D02*
D03*
D26*
X14087Y3100D02*
D03*
X13693D02*
D03*
X1697Y13950D02*
D03*
X1303D02*
D03*
X33753Y22690D02*
D03*
X34147D02*
D03*
D27*
X9463Y17649D02*
D03*
X9203D02*
D03*
X8943D02*
D03*
X8693D02*
D03*
X8433D02*
D03*
X8183D02*
D03*
X7923D02*
D03*
X7663D02*
D03*
Y19949D02*
D03*
X7923D02*
D03*
X8183D02*
D03*
X8433D02*
D03*
X8693D02*
D03*
X8943D02*
D03*
X9203D02*
D03*
X9463D02*
D03*
D28*
X20343Y10054D02*
D03*
Y9794D02*
D03*
Y9534D02*
D03*
Y9284D02*
D03*
Y9024D02*
D03*
Y8774D02*
D03*
Y8514D02*
D03*
Y8254D02*
D03*
X18043D02*
D03*
Y8514D02*
D03*
Y8774D02*
D03*
Y9024D02*
D03*
Y9284D02*
D03*
Y9534D02*
D03*
Y9794D02*
D03*
Y10054D02*
D03*
D29*
X13790Y34083D02*
D03*
Y34477D02*
D03*
D30*
X32500Y22650D02*
D03*
X31500D02*
D03*
X30500D02*
D03*
X29500D02*
D03*
X28500D02*
D03*
X27500D02*
D03*
X26500D02*
D03*
X25500D02*
D03*
X24500D02*
D03*
X23500D02*
D03*
X22500D02*
D03*
X21500D02*
D03*
X20500D02*
D03*
X19500D02*
D03*
X18500D02*
D03*
X17500D02*
D03*
X16500D02*
D03*
X15500D02*
D03*
X14500D02*
D03*
X13500D02*
D03*
X32500Y20350D02*
D03*
X31500D02*
D03*
X30500D02*
D03*
X29500D02*
D03*
X28500D02*
D03*
X27500D02*
D03*
X26500D02*
D03*
X25500D02*
D03*
X24500D02*
D03*
X23500D02*
D03*
X22500D02*
D03*
X21500D02*
D03*
X20500D02*
D03*
X19500D02*
D03*
X18500D02*
D03*
X17500D02*
D03*
X16500D02*
D03*
X15500D02*
D03*
X14500D02*
D03*
X13500D02*
D03*
X32500Y16650D02*
D03*
X31500D02*
D03*
X30500D02*
D03*
X29500D02*
D03*
X28500D02*
D03*
X27500D02*
D03*
X26500D02*
D03*
X25500D02*
D03*
X24500D02*
D03*
X23500D02*
D03*
X22500D02*
D03*
X21500D02*
D03*
X20500D02*
D03*
X19500D02*
D03*
X18500D02*
D03*
X17500D02*
D03*
X16500D02*
D03*
X15500D02*
D03*
X14500D02*
D03*
X13500D02*
D03*
X32500Y14350D02*
D03*
X31500D02*
D03*
X30500D02*
D03*
X29500D02*
D03*
X28500D02*
D03*
X27500D02*
D03*
X26500D02*
D03*
X25500D02*
D03*
X24500D02*
D03*
X23500D02*
D03*
X22500D02*
D03*
X21500D02*
D03*
X20500D02*
D03*
X19500D02*
D03*
X18500D02*
D03*
X17500D02*
D03*
X16500D02*
D03*
X15500D02*
D03*
X14500D02*
D03*
X13500D02*
D03*
M02*
