G04 Layer_Physical_Order=2*
G04 Layer_Color=32768*
%FSLAX25Y25*%
%MOIN*%
G70*
G01*
G75*
%ADD16C,0.04000*%
%ADD17C,0.00500*%
G04:AMPARAMS|DCode=18|XSize=88mil|YSize=88mil|CornerRadius=0mil|HoleSize=0mil|Usage=FLASHONLY|Rotation=0.000|XOffset=0mil|YOffset=0mil|HoleType=Round|Shape=Relief|Width=10mil|Gap=10mil|Entries=4|*
%AMTHD18*
7,0,0,0.08800,0.06800,0.01000,45*
%
%ADD18THD18*%
%ADD19C,0.06800*%
D16*
X0Y0D02*
Y366142D01*
X366142D01*
Y0D02*
Y366142D01*
X0Y0D02*
X366142D01*
D17*
X9843Y16732D02*
X16732Y9843D01*
X9843Y16732D02*
Y19685D01*
X16732Y9843D02*
X127953D01*
X132874Y14764D01*
Y34449D01*
X137795Y39370D01*
X157480D01*
X162402Y34449D01*
Y14764D02*
Y34449D01*
Y14764D02*
X167323Y9843D01*
X196850D01*
X201772Y14764D01*
Y35433D01*
X205709Y39370D01*
X226378D01*
X231299Y34449D01*
Y14764D02*
Y34449D01*
Y14764D02*
X236220Y9843D01*
X344488D01*
X354331Y19685D01*
Y24606D01*
X356700Y26976D02*
Y125584D01*
X349409Y132874D02*
X356700Y125584D01*
X329724Y132874D02*
X349409D01*
X324803Y137795D02*
X329724Y132874D01*
X324803Y137795D02*
Y157480D01*
X329724Y162402D01*
X349409D01*
X354331Y167323D01*
Y196850D01*
X349409Y201772D02*
X354331Y196850D01*
X329724Y201772D02*
X349409D01*
X324803Y206693D02*
X329724Y201772D01*
X324803Y206693D02*
Y226378D01*
X330025Y231600D01*
X349710D01*
X354331Y236220D01*
Y344488D01*
X344488Y354331D02*
X354331Y344488D01*
X236220Y354331D02*
X344488D01*
X231299Y349409D02*
X236220Y354331D01*
X231299Y329724D02*
Y349409D01*
X226378Y324803D02*
X231299Y329724D01*
X206693Y324803D02*
X226378D01*
X201772Y329724D02*
X206693Y324803D01*
X201772Y329724D02*
Y349409D01*
X196850Y354331D02*
X201772Y349409D01*
X195866Y354331D02*
X196850D01*
X172244D02*
X195866D01*
X167323Y349409D02*
X172244Y354331D01*
X167323Y329724D02*
Y349409D01*
X162402Y324803D02*
X167323Y329724D01*
X142717Y324803D02*
X162402D01*
X137795Y329724D02*
X142717Y324803D01*
X137795Y329724D02*
Y349409D01*
X132874Y354331D02*
X137795Y349409D01*
X19685Y354331D02*
X132874D01*
X9843Y344488D02*
X19685Y354331D01*
X9843Y236220D02*
Y344488D01*
Y236220D02*
X10863Y235200D01*
X30548D01*
X33800Y231948D01*
Y219700D02*
Y231948D01*
X9843Y195743D02*
X33800Y219700D01*
X9843Y172244D02*
Y195743D01*
Y172244D02*
X14764Y167323D01*
X34449D01*
X39370Y162402D01*
Y148670D02*
Y162402D01*
X29364Y138664D02*
X39370Y148670D01*
X11400Y136100D02*
X26800D01*
X9843Y134543D02*
X11400Y136100D01*
X9843Y19685D02*
Y134543D01*
X354331Y24606D02*
X356700Y26976D01*
X26800Y136100D02*
X29364Y138664D01*
D18*
X177165Y283465D02*
D03*
X176399Y305118D02*
D03*
X319300Y216000D02*
D03*
X334646Y219488D02*
D03*
X319000Y151300D02*
D03*
X350600Y324800D02*
D03*
X317900Y306900D02*
D03*
X318898Y189961D02*
D03*
X335629Y187007D02*
D03*
X268200Y119800D02*
D03*
X210236Y149016D02*
D03*
X223700Y239300D02*
D03*
X126200Y149800D02*
D03*
X129500Y212000D02*
D03*
X97441Y188976D02*
D03*
X169291Y57087D02*
D03*
X277559Y22638D02*
D03*
X220472Y31496D02*
D03*
X219647Y216315D02*
D03*
X178150Y335630D02*
D03*
X83661Y305118D02*
D03*
X180118Y30512D02*
D03*
X99410Y40354D02*
D03*
X178150Y246063D02*
D03*
X123031Y247047D02*
D03*
X122400Y339900D02*
D03*
X325400Y266100D02*
D03*
X312992Y341535D02*
D03*
X148031Y30709D02*
D03*
X75787Y247047D02*
D03*
X310039Y22638D02*
D03*
X68504Y45276D02*
D03*
X118706Y100394D02*
D03*
X159449Y190945D02*
D03*
X44291Y103347D02*
D03*
X76772Y104331D02*
D03*
X127953Y22145D02*
D03*
X173800Y102700D02*
D03*
X216300Y46600D02*
D03*
X240400Y333000D02*
D03*
X221600Y335400D02*
D03*
X75787Y341535D02*
D03*
X181500Y158700D02*
D03*
X335000Y142500D02*
D03*
X327000Y119000D02*
D03*
X45200Y248400D02*
D03*
X32200Y182700D02*
D03*
X16400Y340300D02*
D03*
X15748Y307845D02*
D03*
X13700Y51200D02*
D03*
X351500Y56400D02*
D03*
X143900Y333200D02*
D03*
X81400Y31800D02*
D03*
X20600Y229900D02*
D03*
X23500Y139300D02*
D03*
X265748Y342520D02*
D03*
X254921Y309055D02*
D03*
X46260Y272638D02*
D03*
X122047Y283465D02*
D03*
X265200Y60000D02*
D03*
X213700Y103600D02*
D03*
D19*
X247400Y240000D02*
D03*
X254100Y245700D02*
D03*
X226300Y248819D02*
D03*
X253300Y234200D02*
D03*
X175197Y313976D02*
D03*
X196100Y323700D02*
D03*
X310600Y212700D02*
D03*
X295400Y245300D02*
D03*
X334500Y280900D02*
D03*
X160300Y214400D02*
D03*
X142700Y238600D02*
D03*
X142717Y186800D02*
D03*
X324600Y212300D02*
D03*
X285000Y174000D02*
D03*
X232000Y187800D02*
D03*
X280800Y218400D02*
D03*
X327500Y309400D02*
D03*
X329600Y189400D02*
D03*
X329300Y181400D02*
D03*
X318900Y173400D02*
D03*
X324760Y196228D02*
D03*
X290000Y189900D02*
D03*
X258100Y150200D02*
D03*
X277700Y152500D02*
D03*
X211300Y137000D02*
D03*
X221500Y125900D02*
D03*
X319000Y243800D02*
D03*
X268700Y152700D02*
D03*
X319700Y41400D02*
D03*
X245400Y151000D02*
D03*
X220800Y153200D02*
D03*
X177700Y181600D02*
D03*
X173800Y175100D02*
D03*
X307900Y235900D02*
D03*
X173800Y216100D02*
D03*
X236220Y237204D02*
D03*
X229170Y243204D02*
D03*
X261000Y241100D02*
D03*
X222000Y187800D02*
D03*
X242800Y280700D02*
D03*
X223730Y233200D02*
D03*
X217700Y239300D02*
D03*
X142717Y283465D02*
D03*
X119900Y149600D02*
D03*
X121500Y235100D02*
D03*
X128700Y235200D02*
D03*
X127000Y173200D02*
D03*
X127300Y195600D02*
D03*
X77756Y221457D02*
D03*
X358267Y324802D02*
D03*
X296260Y151770D02*
D03*
X189961Y40354D02*
D03*
X319882Y82677D02*
D03*
X263779Y98425D02*
D03*
X246200Y92500D02*
D03*
X173228Y74803D02*
D03*
X46260Y78740D02*
D03*
X123977Y87598D02*
D03*
X161417Y56496D02*
D03*
X79724Y78740D02*
D03*
X52165Y82043D02*
D03*
X354331Y49213D02*
D03*
X280512Y29528D02*
D03*
X241142Y31496D02*
D03*
X23622Y7874D02*
D03*
X37402Y29528D02*
D03*
X324803Y63976D02*
D03*
X342519Y51181D02*
D03*
X198819Y40354D02*
D03*
X284449Y82677D02*
D03*
X289370Y94488D02*
D03*
X297400Y57100D02*
D03*
X211614Y56102D02*
D03*
X266732Y92520D02*
D03*
X10827Y88583D02*
D03*
X23622Y99409D02*
D03*
X250000Y99410D02*
D03*
X335300Y180800D02*
D03*
X324900Y154331D02*
D03*
X298228Y100394D02*
D03*
X45276Y185039D02*
D03*
X109252Y228652D02*
D03*
X262700Y190400D02*
D03*
X69882Y186024D02*
D03*
X60039Y188976D02*
D03*
X41339Y199803D02*
D03*
X42323Y210630D02*
D03*
X109252Y190945D02*
D03*
X53149Y174212D02*
D03*
X74100Y230800D02*
D03*
X10000Y228346D02*
D03*
X354331Y280512D02*
D03*
X287402Y277559D02*
D03*
X77756Y263779D02*
D03*
X83661Y269462D02*
D03*
X12795Y281496D02*
D03*
X341535D02*
D03*
X325787Y294094D02*
D03*
X282600Y313800D02*
D03*
X126969Y314961D02*
D03*
X83661D02*
D03*
X130905Y305118D02*
D03*
X125700Y334700D02*
D03*
X220472Y312007D02*
D03*
X224410Y306102D02*
D03*
X294291Y324803D02*
D03*
X354331Y340551D02*
D03*
X272638Y186024D02*
D03*
X180118Y74803D02*
D03*
X77756Y21654D02*
D03*
X84646Y25591D02*
D03*
X266732Y22638D02*
D03*
X208661Y186024D02*
D03*
X226300Y285900D02*
D03*
X258858Y291339D02*
D03*
X268701Y212008D02*
D03*
X164000Y244800D02*
D03*
X45276Y193898D02*
D03*
X29528Y272638D02*
D03*
X327756Y325787D02*
D03*
X308071Y356299D02*
D03*
X137795Y356100D02*
D03*
X108268D02*
D03*
X202900Y290700D02*
D03*
X319882Y271400D02*
D03*
X208100Y195700D02*
D03*
X88600Y228500D02*
D03*
X227600Y23400D02*
D03*
X98000Y80100D02*
D03*
X225500Y212200D02*
D03*
X126200Y77400D02*
D03*
X329484Y97531D02*
D03*
X193100Y181700D02*
D03*
X74200Y211100D02*
D03*
X118200Y57700D02*
D03*
X6000Y57000D02*
D03*
X308071Y188976D02*
D03*
X278543Y342520D02*
D03*
X326772Y341535D02*
D03*
X319882D02*
D03*
X83661Y72835D02*
D03*
X109252Y241142D02*
D03*
X59055D02*
D03*
X137992Y30709D02*
D03*
X258858Y356299D02*
D03*
X228346Y357283D02*
D03*
X132874Y8858D02*
D03*
X109252Y103346D02*
D03*
X59055Y57087D02*
D03*
X227362Y8858D02*
D03*
X109252Y51181D02*
D03*
X29527Y88427D02*
D03*
X44291Y136811D02*
D03*
X131758Y100394D02*
D03*
X222000Y116000D02*
D03*
X319882Y26575D02*
D03*
X329724Y29528D02*
D03*
X302165Y8858D02*
D03*
X308071Y5906D02*
D03*
X272638Y104331D02*
D03*
X250000Y53150D02*
D03*
X245079Y46260D02*
D03*
X5906Y138779D02*
D03*
X39671Y154528D02*
D03*
X77756Y169291D02*
D03*
X268701Y10827D02*
D03*
X321000Y118900D02*
D03*
X329500Y134700D02*
D03*
X53150Y47244D02*
D03*
X23622Y54134D02*
D03*
X69882Y136811D02*
D03*
X91911D02*
D03*
X254921Y94488D02*
D03*
X61024Y103347D02*
D03*
X343504Y358268D02*
D03*
X295276Y356299D02*
D03*
X6000Y22638D02*
D03*
Y14764D02*
D03*
X61024Y7874D02*
D03*
X127953Y30709D02*
D03*
X344488Y8858D02*
D03*
X60039Y356100D02*
D03*
X76772Y190945D02*
D03*
X40400Y117800D02*
D03*
X123000Y117300D02*
D03*
X172244Y88582D02*
D03*
X157300Y102500D02*
D03*
X165600Y102300D02*
D03*
X155900Y91700D02*
D03*
X163535Y91535D02*
D03*
X233900Y103600D02*
D03*
X165900Y40900D02*
D03*
X249200Y7400D02*
D03*
X354600Y41300D02*
D03*
X123500Y8858D02*
D03*
X89200Y247300D02*
D03*
X194300Y237300D02*
D03*
X347400Y229400D02*
D03*
X354900Y229300D02*
D03*
X201900Y46600D02*
D03*
X209100D02*
D03*
X6000Y40100D02*
D03*
X9350Y133739D02*
D03*
X32480Y144685D02*
D03*
X10000Y245200D02*
D03*
X42100Y305200D02*
D03*
X205800Y324600D02*
D03*
X254400Y322900D02*
D03*
X229900Y334300D02*
D03*
X160433Y326772D02*
D03*
X77300Y356100D02*
D03*
X86700D02*
D03*
X95800Y322800D02*
D03*
Y315200D02*
D03*
X5500Y324000D02*
D03*
X83661Y341535D02*
D03*
Y334646D02*
D03*
X125400Y354000D02*
D03*
X186900Y324000D02*
D03*
X128000Y266200D02*
D03*
X177600Y153800D02*
D03*
X138900Y154500D02*
D03*
X78500Y124300D02*
D03*
Y116800D02*
D03*
X91500Y100400D02*
D03*
X137500Y60400D02*
D03*
X213700Y90000D02*
D03*
X187200Y136100D02*
D03*
X192300Y132700D02*
D03*
X355100Y135000D02*
D03*
X348400Y137400D02*
D03*
X326600Y125000D02*
D03*
X341400Y91000D02*
D03*
X335400D02*
D03*
X43307Y261811D02*
D03*
X50197Y239173D02*
D03*
X23300Y244600D02*
D03*
X75600Y241000D02*
D03*
X32100Y176000D02*
D03*
Y189100D02*
D03*
X45700Y174400D02*
D03*
X35100Y230500D02*
D03*
X254800Y184100D02*
D03*
X254700Y190700D02*
D03*
X274500Y119600D02*
D03*
X184700Y55100D02*
D03*
X91300Y58400D02*
D03*
X87500Y53200D02*
D03*
X5500Y347400D02*
D03*
X208100Y309800D02*
D03*
X180000Y115400D02*
D03*
X174400Y127000D02*
D03*
X286000Y125100D02*
D03*
X351500Y89900D02*
D03*
X46500Y330300D02*
D03*
X38386Y356100D02*
D03*
X6600Y310700D02*
D03*
X76500Y39000D02*
D03*
X351500Y96700D02*
D03*
X58900Y147800D02*
D03*
X68898Y150591D02*
D03*
X75600Y145900D02*
D03*
X107800Y148700D02*
D03*
X127953Y125984D02*
D03*
X285800Y49000D02*
D03*
X138779Y104331D02*
D03*
X272638Y291339D02*
D03*
X301181D02*
D03*
X308071D02*
D03*
X232283D02*
D03*
X255906Y280512D02*
D03*
X226378Y276575D02*
D03*
X37402Y272638D02*
D03*
X23622Y283465D02*
D03*
X53150D02*
D03*
X60039Y283464D02*
D03*
X73819Y283465D02*
D03*
X109252D02*
D03*
X164370D02*
D03*
X193898Y276575D02*
D03*
X207677Y282480D02*
D03*
X31496Y129921D02*
D03*
X17600Y133600D02*
D03*
X91663Y64463D02*
D03*
X195500Y89700D02*
D03*
X227200Y97500D02*
D03*
X223000Y90000D02*
D03*
X109252Y8858D02*
D03*
X154300Y278500D02*
D03*
X269700Y307000D02*
D03*
M02*
