M48
;Layer_Color=9474304
;FILE_FORMAT=2:5
INCH,LZ
;TYPE=PLATED
T1F00S00C0.02800
%
T01
X0006Y0014764
Y0022638
Y00401
X00137Y00512
X0023622Y0054134
X005315Y0047244
X0037402Y0029528
X0023622Y0007874
X0061024
X00765Y0008
X0077756Y0021654
X0084646Y0025591
X00765Y0037
X00685Y005
X00875Y00532
X00985Y00505
X0109252Y0051181
X0127953Y0030709
Y0022145
X01235Y0008858
X0132874
X0109252
X0137992Y0030709
X0148031
X01659Y00409
X0180118Y0030512
X0189961Y0040354
X0198819
X0203Y0048
X0212Y00555
X01847Y00551
X02163Y00466
X0220472Y0031496
X02276Y00234
X0227362Y0008858
X02492Y00074
X0268701Y0010827
X0266732Y0022638
X0277559
X0280512Y0029528
X0284Y0049
X02915Y0042
X03197Y00414
X0319882Y0026575
X0329724Y0029528
X0310039Y0022638
X0308071Y0005906
X0302165Y0008858
X0344488
X0354Y0041
X03535Y00495
X0342519Y0051181
X025Y005315
X0245079Y004626
X0241142Y0031496
X02652Y006
X02665Y00885
X0266428Y0095
X0259
X02475Y0092
Y0100157
X02339Y01036
X02272Y00975
X0223Y00875
X02137Y01036
X0222Y0116
X02215Y01259
X02208Y01532
X0258Y01515
X02722Y0151
X02745Y0135
X026145Y013555
X025145Y0136
X0265Y012
X02745Y01196
X0286Y01251
X0285Y0095
X0284449Y0082677
X0298228Y0100394
X0308Y00955
X0319882Y0082677
X03255Y00635
X0299Y0057
X03515Y00564
Y00899
X03395Y0091
X03275Y01165
X0327Y01245
X0321Y01189
X0323Y0134
X0321Y01515
X03265Y0155
X03365Y01455
X0344Y01385
X03495Y01335
X0355Y01375
X0357Y01185
X0335642Y01805
X03365Y01865
X03305Y019
X03295Y0182
X0325Y01965
X03246Y02123
X03082Y01899
X02935Y01965
X02765Y01875
X02695
X02635Y0194
X02545Y0195
X0248Y0182
X02385Y0184
X0234Y0191
X0219Y02105
X0287Y01735
X029626Y015177
X0305Y01515
X03175Y01743
X0272638Y0104331
X0211Y009
X0197Y00965
X01738Y01027
X0172244Y0088582
X0163535Y0091535
X01559Y00917
X01573Y01025
X0138779Y0104331
X0131758Y0100394
X0118706
X0109252Y0103346
X00915Y01004
X0088Y0117
Y01235
X008Y012
X0084Y0137
X0096Y0135
X01078Y01487
X01199Y01496
X01262Y01498
X01389Y01545
X0126382Y0174618
X0132Y0189
X0142717
X01495
X0159449
X01675
X01738Y01751
X0179Y018
X01975Y0183
X0198Y01895
X0205Y0189685
X0210236Y0149016
X0193Y0133
X01744Y0127
X018Y01154
X01776Y01538
X01815Y01587
X0127953Y0125984
X0123Y01173
X0123977Y0087598
X01262Y00774
X01182Y00577
X01375Y00604
X0161417Y0056496
X0169291Y0057087
X0173228Y0074803
X0204Y0057
X00913Y00584
X0091663Y0064463
X0083661Y0072835
X0079724Y007874
X0098Y00801
X0061024Y0103347
X00589Y01478
X0068898Y0150591
X00756Y01459
X0077756Y0169291
X0069882Y0186024
X00694Y01941
X0060039Y0188976
X0084Y0189
X0091
X0098
X0109252Y0197
X00742Y02104
X0059055Y0057087
X0052165Y0082043
X004626Y007874
X0029527Y0088427
X0023622Y0099409
X0010827Y0088583
X0006Y0057
X001Y01335
X00176Y01336
X00235Y01393
X003248Y0144685
X0031496Y0129921
X0044291Y0136811
X0039671Y0154528
X00457Y01744
X0053149Y0174212
X0045276Y0185039
Y0193898
X0041339Y0199803
X0042323Y021063
X00321Y01891
X00322Y01827
X00321Y0176
X00065Y0139
X00404Y01178
X0044291Y0103347
X00351Y02305
X00206Y02299
X001Y0228346
Y02452
X00233Y02446
X00452Y02484
X0043307Y0261811
X004626Y0272638
X0037402
X0029528
X0023622Y0283465
X0012795Y0281496
X0008Y03085
Y0324
X00153Y03244
X0008Y03415
X00425Y0340551
X0038386Y03561
X00421Y03052
X005315Y0283465
X00525Y02395
X0059055Y0241142
X00756Y0241
X0075787Y0247047
X00892Y02473
X00886Y02285
X00741Y02318
X0077756Y0221457
X0109252Y0228652
X0109252Y0241142
X01215Y02351
X01287Y02352
X01427Y02386
X0155Y0244
X017815Y0246063
X01685Y0213
X01362Y02126
X0129Y02128
X0123031Y0247047
X0128Y02662
X0122047Y0283465
X0109252
X01425Y02815
X0154Y02765
X01775Y02935
X0175197Y0313976
X01775Y03245
X017Y03225
X0178Y03365
X01961Y03237
X02081Y03098
X02025Y02875
X0206Y0282
X0197Y0276
X013Y03055
X0126969Y0314961
X01257Y03347
X01325Y034
X01439Y03332
X0144Y0325
X0137795Y03561
X01254Y0354
X0108268Y03561
X00925Y03575
X00845Y03545
X008Y0339
X00795Y0333
X0085Y0321
X0083661Y0314961
Y0305118
X00925Y03235
X0073819Y0283465
X0060039Y0283464
X0077756Y0263779
X0083661Y0269462
X0060039Y03561
X0228346Y0357283
X02325Y03525
X02216Y03354
X02415Y03335
X02544Y03229
X0254921Y0309055
X0258858Y0291339
X02575Y0281
X02495Y02775
X02415Y0274
X0226
X02365Y0285
X02325Y0292
X02235Y0306
X02185Y02505
Y02435
X0221Y02355
X02285Y02345
X0237
X02455
X02465Y02465
X023Y0246
Y02185
X0268Y02135
X02855Y0218679
X03106Y02127
X03193Y0216
X0334646Y0219488
X03474Y02294
X03549Y02293
X0319Y02438
X03079Y02359
X02954Y02453
X02745Y02415
X02645Y02345
X0272638Y0291339
X0287402Y0277559
X0301181Y0291339
X0308071
X0325787Y0294094
X03275Y03094
X03179Y03069
X0336Y0325
X03506Y03248
X0357Y0325
X0354331Y0340551
X0343504Y0358268
X0326772Y0341535
X0319882
X0312992
X0308Y03565
X0278543Y034252
X0265748Y034252
X0258858Y0356299
X02826Y03138
X0319882Y02714
X0326Y02585
X03345Y02809
X0354331Y0280512
M30
