M48
;Layer_Color=9474304
;FILE_FORMAT=2:4
INCH,LZ
;TYPE=PLATED
T1F00S00C0.0280
;TYPE=NON_PLATED
%
T01
X0006Y001476
Y002264
Y00401
X00137Y00512
X002362Y005413
X005315Y004724
X00374Y002953
X002362Y000787
X006102
X00765Y0008
X007776Y002165
X008465Y002559
X00773Y00372
X00685Y005
X0087Y00525
X01013Y00477
X010925Y005118
X012795Y003071
Y002215
X01372Y00235
X014803Y003071
X01659Y00409
X01923Y00417
X02022Y004
X02046Y0048
X0212Y00555
X01825Y00295
X013287Y000886
X01235
X010925
X0229Y00091
X02276Y00234
X022047Y00315
X02163Y00466
X024508Y004626
X02492Y00533
X024114Y00315
X02492Y00074
X02687Y001083
X026673Y002264
X027756
X02797Y00293
X0284Y00494
X02915Y0042
X03197Y00414
X031988Y002657
X032972Y002953
X031004Y002264
X03089Y00061
X030217Y000886
X034449
X0354Y0041
X03535Y00495
X03424Y00521
X03515Y00564
X03258Y00638
X03198Y00835
X0308Y00955
X03017Y01004
X0285Y0095
X02843Y00835
X02665Y00881
X026643Y0095
X0259
X02475Y0092
Y010016
X02339Y01036
X02272Y00975
X0225Y00875
X02135Y00888
X02137Y00958
X02135Y01038
X0222Y0116
X02215Y01259
X02208Y01532
X02593Y01509
X02722Y0151
X02721Y01345
X026145Y013555
X025145Y0136
X02655Y01194
X02739Y01197
X02821Y01247
X027264Y010433
X02652Y006
X0299Y0057
X03395Y0091
X03515Y00899
X03577Y01183
X0355Y01375
X03495Y01335
X0344Y01385
X03358Y01444
X03272Y01554
X0321Y01515
X03074Y01518
X02994Y01511
X028745Y01747
X02767Y01878
X02697Y01877
X02635Y0194
X02519Y01953
X024915Y01827
X02385Y0184
X02334Y01904
X0219Y02115
X02933Y01957
X03082Y01893
X03195Y0189
X03306Y019
X03356Y01833
X03355Y0175
X03288Y01781
X03171Y01741
X03247Y02115
X0323Y0134
X0327Y01245
X03275Y01165
X03199Y01178
X0193Y0133
X01744Y0127
X018Y01154
X01726Y01037
X017224Y008858
X016354Y009154
X01559Y00917
X01573Y01025
X013878Y010433
X013176Y010039
X011871
X010925Y010335
X00915Y01004
X00879Y01168
X00881Y01251
X008Y012
X0084Y0137
X0096Y0135
X01078Y01487
X01183Y01496
X01262Y01498
X01389Y01545
X012638Y017462
X0132Y0189
X014272
X01503Y01888
X015945Y0189
X01675
X01738Y01751
X0179Y018
X01899Y01887
X0198
X02086Y01892
X02102Y01508
X01774Y01523
X01815Y01587
X012795Y012598
X0123Y01173
X012398Y00876
X01262Y00774
X01374Y00612
X01182Y00569
X0091Y0058
X00909Y00648
X008366Y007283
X007972Y007874
X00972Y00802
X006102Y010335
X00589Y01478
X00689Y015059
X00756Y01459
X007776Y016929
X00702Y01868
X00699Y01951
X005906Y018799
X0084Y0189
X0091
X0098
X010925Y0197
X017323Y00748
X016929Y005709
X016142Y00565
X02035Y00564
X00591Y00563
X00459Y00791
X00379Y00788
X002953Y008843
X00234Y00989
X001083Y008858
X00055Y01181
X00108Y01335
X00176Y01336
X0024Y01376
X003102Y01304
X003248Y014468
X00389Y01544
X00446Y01376
X00404Y01178
X004429Y010335
X00457Y01744
X004528Y018504
Y01939
X00406Y02001
X00415Y02107
X00322Y01894
X00323Y01821
Y01745
X0006Y0057
X001Y022835
X00206Y02299
X00351Y02305
X00517Y02387
X004331Y026181
X00374Y027264
X002953
X002362Y028346
X00128Y02815
X000764Y030764
X0008Y0324
X00153Y03244
X0008Y03415
X00424Y03413
X003839Y03561
X00424Y03126
X00421Y03052
X005315Y028346
X00233Y02446
X001Y02452
X005906Y024114
X00691Y02446
X0078Y02445
X00892Y02473
X00886Y02285
X00741Y02318
X007776Y022146
X010925Y022865
X010925Y024114
X01215Y02351
X01287Y02352
X01427Y02386
X0155Y0244
X017815Y024606
X01693Y02133
X01362Y02126
X0129Y02128
X012303Y024705
X0128Y02662
X012205Y028346
X010925
X01425Y02815
X01538Y02778
X01775Y02935
X01752Y031398
X01775Y03245
X01705Y03232
X01779Y03357
X01961Y03237
X02036Y02889
X02066Y02823
X01951Y02752
X013Y03055
X012697Y031496
X01265Y03346
X01317Y03408
X01254Y0354
X01378Y03561
X01439Y03332
X0144Y0325
X00925Y03235
X0085Y0321
X00834Y03143
X008366Y030512
X00795Y03322
X008Y0339
X00845Y03545
X00925Y03575
X01082Y03571
X00604Y0357
X006004Y028346
X007382Y028346
X007776Y026378
X008366Y026946
X02254Y0274
X02415
X02495Y02775
X02575Y0281
X025886Y029134
X027264
X030118
X030807
X032579Y029409
X03204Y03054
X03275Y03094
X0336Y0325
X0357
X03575Y03409
X03435Y035827
X032677Y034154
X03142Y0344
X0308Y03565
X027854Y034252
X027Y0344
X02588Y03571
X0233Y03588
X02276Y03541
X02216Y03354
X02415Y03335
X02544Y03229
X02842Y03137
X02844Y02722
X03199
X0326Y02585
X0319Y02438
X03079Y02359
X02954Y02453
X02745Y02415
X02645Y02345
X02455
X0237
X02285
X02214Y02344
X02185Y02435
Y02505
X023Y0246
X02472Y02449
X023Y02185
X02659Y02136
X02792Y02142
X03106Y02127
X03193Y0216
X033465Y021949
X03474Y02294
X03549Y02293
X035433Y028051
X0336Y02815
X02358Y02846
X02325Y0292
X02279Y03055
X02182Y03092
M30
