G04 Layer_Color=16711935*
%FSLAX24Y24*%
%MOIN*%
G70*
G01*
G75*
%ADD37C,0.0580*%
%ADD38R,0.0356X0.0434*%
%ADD39R,0.0297X0.0533*%
%ADD40R,0.0533X0.0316*%
%ADD41R,0.0434X0.0356*%
%ADD42R,0.0780X0.2480*%
%ADD43R,0.2480X0.0780*%
%ADD44R,0.0474X0.0867*%
%ADD45R,0.0316X0.0277*%
%ADD46R,0.1064X0.0379*%
%ADD47R,0.0220X0.0660*%
%ADD48R,0.0660X0.0220*%
%ADD49R,0.0277X0.0316*%
%ADD50R,0.0490X0.0710*%
D37*
X1360Y5610D02*
D03*
X31010Y820D02*
D03*
X30217D02*
D03*
X34210D02*
D03*
X32030Y2280D02*
D03*
X27840Y2350D02*
D03*
X24920Y740D02*
D03*
X26810D02*
D03*
X2960Y27510D02*
D03*
X8350Y30590D02*
D03*
X24060Y33210D02*
D03*
X14390Y33160D02*
D03*
X14370Y32350D02*
D03*
X6040Y35700D02*
D03*
X10820Y35710D02*
D03*
X25880D02*
D03*
X23300Y35880D02*
D03*
X31420Y34400D02*
D03*
X27000D02*
D03*
X22760Y35410D02*
D03*
X22160Y33540D02*
D03*
X12540Y35400D02*
D03*
X8450Y35450D02*
D03*
X3839Y35610D02*
D03*
X20860Y18920D02*
D03*
X20660Y28230D02*
D03*
X20360Y28890D02*
D03*
X4240Y31260D02*
D03*
X4210Y30520D02*
D03*
X32880Y17810D02*
D03*
X21370Y9580D02*
D03*
X22500Y8750D02*
D03*
X21350Y10380D02*
D03*
Y8880D02*
D03*
X28400Y4940D02*
D03*
X34240Y5210D02*
D03*
X25930Y15090D02*
D03*
X29940Y15110D02*
D03*
X31710Y17410D02*
D03*
X28440Y27220D02*
D03*
X28420Y31370D02*
D03*
X32040Y30540D02*
D03*
X5170Y23870D02*
D03*
X8700Y5250D02*
D03*
X9100Y5800D02*
D03*
X9090Y6480D02*
D03*
X3230Y18210D02*
D03*
Y17450D02*
D03*
X3220Y18940D02*
D03*
X11830Y14960D02*
D03*
X8790Y11680D02*
D03*
X8810Y12510D02*
D03*
X17740Y15230D02*
D03*
X26650Y8810D02*
D03*
X19800Y18870D02*
D03*
X18990D02*
D03*
X27210Y13450D02*
D03*
X31990Y11780D02*
D03*
X28430Y8350D02*
D03*
X31980D02*
D03*
X13740Y6120D02*
D03*
X30820Y18930D02*
D03*
X3102Y13040D02*
D03*
X2400Y13760D02*
D03*
X2340Y9890D02*
D03*
X4590Y7910D02*
D03*
X3790Y7880D02*
D03*
X9720Y8020D02*
D03*
X24920Y5330D02*
D03*
X4460Y13760D02*
D03*
X21020Y15080D02*
D03*
X21900Y21150D02*
D03*
X29330Y19570D02*
D03*
X17260Y10370D02*
D03*
X19510Y27520D02*
D03*
X10130Y4770D02*
D03*
X4150Y21070D02*
D03*
X550Y11810D02*
D03*
X1080Y13350D02*
D03*
X17790Y33570D02*
D03*
X33550Y17500D02*
D03*
X33060Y19000D02*
D03*
X33560Y18330D02*
D03*
X22900Y910D02*
D03*
X20460Y4800D02*
D03*
X20220Y4000D02*
D03*
X19230Y4170D02*
D03*
X18250Y2950D02*
D03*
X13720Y2350D02*
D03*
X15380Y27780D02*
D03*
X28210Y12470D02*
D03*
X27390Y11970D02*
D03*
X15945Y18900D02*
D03*
X16750D02*
D03*
X23000Y24600D02*
D03*
X32600Y25850D02*
D03*
X25145Y13600D02*
D03*
X27220Y15100D02*
D03*
X35500Y13750D02*
D03*
X35700Y32500D02*
D03*
X7650Y800D02*
D03*
X8465Y2559D02*
D03*
X7776Y2165D02*
D03*
X6102Y787D02*
D03*
X33600Y32500D02*
D03*
X17750Y29350D02*
D03*
X13000Y30550D02*
D03*
X17520Y31398D02*
D03*
X25750Y28100D02*
D03*
X24150Y27400D02*
D03*
X23250Y29200D02*
D03*
X23850Y18400D02*
D03*
X30800Y35650D02*
D03*
X21850Y24350D02*
D03*
Y25050D02*
D03*
X26350Y19400D02*
D03*
X24950Y27750D02*
D03*
X14250Y28150D02*
D03*
X29150Y4200D02*
D03*
X35400Y4100D02*
D03*
X35150Y5640D02*
D03*
X29900Y5700D02*
D03*
X31970Y4140D02*
D03*
X21200Y5550D02*
D03*
X6850Y5000D02*
D03*
X10925Y5118D02*
D03*
X19300Y13300D02*
D03*
X27450Y24150D02*
D03*
X24750Y9200D02*
D03*
X32750Y11650D02*
D03*
X32100Y15150D02*
D03*
X32700Y12450D02*
D03*
X34400Y13850D02*
D03*
X33950Y9100D02*
D03*
X24750Y10016D02*
D03*
X22720Y9750D02*
D03*
X25900Y9500D02*
D03*
X26643D02*
D03*
X23390Y10360D02*
D03*
X28500Y9500D02*
D03*
X30800Y9550D02*
D03*
X26145Y13555D02*
D03*
X15500Y24400D02*
D03*
X800Y34150D02*
D03*
Y32400D02*
D03*
X8000Y33900D02*
D03*
X8500Y32100D02*
D03*
X17750Y32450D02*
D03*
X9250Y32350D02*
D03*
Y35750D02*
D03*
X14270Y23860D02*
D03*
X19610Y32370D02*
D03*
X18000Y11540D02*
D03*
X18150Y15870D02*
D03*
X17380Y17510D02*
D03*
X15730Y10250D02*
D03*
X9800Y18900D02*
D03*
X13200D02*
D03*
X9100D02*
D03*
X14272D02*
D03*
X17900Y18000D02*
D03*
X8400Y18900D02*
D03*
X12638Y17462D02*
D03*
X10925Y19700D02*
D03*
X8400Y13700D02*
D03*
X5890Y14780D02*
D03*
X6890Y15059D02*
D03*
X7560Y14590D02*
D03*
X8000Y12000D02*
D03*
X9600Y13500D02*
D03*
X7410Y23180D02*
D03*
X13620Y21260D02*
D03*
X27264Y10433D02*
D03*
X1530Y32440D02*
D03*
X31060Y21270D02*
D03*
X31930Y21600D02*
D03*
X33465Y21949D02*
D03*
X29540Y24530D02*
D03*
X32750Y30940D02*
D03*
X22150Y12590D02*
D03*
X31900Y24380D02*
D03*
X22080Y15320D02*
D03*
X30790Y23590D02*
D03*
X12620Y14980D02*
D03*
X12150Y23510D02*
D03*
X7776Y22146D02*
D03*
X17323Y7480D02*
D03*
X12398Y8760D02*
D03*
X16142Y5650D02*
D03*
X16929Y5709D02*
D03*
X7972Y7874D02*
D03*
X24114Y3150D02*
D03*
X22047D02*
D03*
X2362Y787D02*
D03*
X3740Y2953D02*
D03*
X1083Y8858D02*
D03*
X4528Y18504D02*
D03*
X10925Y22865D02*
D03*
X1000Y22835D02*
D03*
X35433Y28051D02*
D03*
X7776Y26378D02*
D03*
X8366Y26946D02*
D03*
X1280Y28150D02*
D03*
X32579Y29409D02*
D03*
X12697Y31496D02*
D03*
X25886Y29134D02*
D03*
X17815Y24606D02*
D03*
X12303Y24705D02*
D03*
X4528Y19390D02*
D03*
X13780Y35610D02*
D03*
X8860Y22850D02*
D03*
X22760Y2340D02*
D03*
X12620Y7740D02*
D03*
X27854Y34252D02*
D03*
X32677Y34154D02*
D03*
X8366Y7283D02*
D03*
X10925Y24114D02*
D03*
X13287Y886D02*
D03*
X10925Y10335D02*
D03*
X14803Y3071D02*
D03*
X2953Y8843D02*
D03*
X13176Y10039D02*
D03*
X22200Y11600D02*
D03*
X32972Y2953D02*
D03*
X24508Y4626D02*
D03*
X7776Y16929D02*
D03*
X5315Y4724D02*
D03*
X11871Y10039D02*
D03*
X2362Y5413D02*
D03*
X4429Y10335D02*
D03*
X6102D02*
D03*
X34350Y35827D02*
D03*
X600Y2264D02*
D03*
Y1476D02*
D03*
X12795Y2215D02*
D03*
Y3071D02*
D03*
X4040Y11780D02*
D03*
X12300Y11730D02*
D03*
X17224Y8858D02*
D03*
X15590Y9170D02*
D03*
X16354Y9154D02*
D03*
X16590Y4090D02*
D03*
X12350Y886D02*
D03*
X8920Y24730D02*
D03*
X34740Y22940D02*
D03*
X35490Y22930D02*
D03*
X21630Y4660D02*
D03*
X600Y4010D02*
D03*
X3248Y14468D02*
D03*
X1000Y24520D02*
D03*
X25440Y32290D02*
D03*
X12800Y26620D02*
D03*
X13890Y15450D02*
D03*
X9150Y10040D02*
D03*
X4331Y26181D02*
D03*
X2330Y24460D02*
D03*
X4570Y17440D02*
D03*
X3510Y23050D02*
D03*
X17440Y12700D02*
D03*
X35150Y8990D02*
D03*
X2060Y22990D02*
D03*
X10780Y14870D02*
D03*
X12795Y12598D02*
D03*
X13878Y10433D02*
D03*
X27264Y29134D02*
D03*
X30118D02*
D03*
X30807D02*
D03*
X3740Y27264D02*
D03*
X2362Y28346D02*
D03*
X5315D02*
D03*
X6004Y28346D02*
D03*
X10925Y28346D02*
D03*
X1760Y13360D02*
D03*
X10925Y886D02*
D03*
X3890Y15440D02*
D03*
X4060Y20010D02*
D03*
X8340Y31430D02*
D03*
X7950Y33220D02*
D03*
X4240Y34130D02*
D03*
X12650Y33460D02*
D03*
X13170Y34080D02*
D03*
X22140Y23440D02*
D03*
X32470Y21150D02*
D03*
X32720Y15540D02*
D03*
X34950Y13350D02*
D03*
X33580Y14440D02*
D03*
X32580Y6380D02*
D03*
X7800Y24450D02*
D03*
X5906Y24114D02*
D03*
X6910Y24460D02*
D03*
X17050Y32320D02*
D03*
X21820Y30920D02*
D03*
X22790Y30550D02*
D03*
X24915Y18270D02*
D03*
X26550Y11940D02*
D03*
X30170Y10040D02*
D03*
X35770Y11830D02*
D03*
X7730Y3720D02*
D03*
X23580Y28460D02*
D03*
X22540Y27400D02*
D03*
X23000Y21850D02*
D03*
X26450Y23450D02*
D03*
X26590Y21360D02*
D03*
X27920Y21420D02*
D03*
X26970Y18770D02*
D03*
X28745Y17470D02*
D03*
X27670Y18780D02*
D03*
X25190Y19530D02*
D03*
X33600Y28150D02*
D03*
X24550Y23450D02*
D03*
X22850D02*
D03*
X23700D02*
D03*
X24720Y24490D02*
D03*
X5906Y18799D02*
D03*
X16930Y21330D02*
D03*
X30740Y15180D02*
D03*
X5910Y5630D02*
D03*
X11820Y5690D02*
D03*
X20350Y5640D02*
D03*
X35750Y34090D02*
D03*
X764Y30764D02*
D03*
X31990Y27220D02*
D03*
X23340Y19040D02*
D03*
X31950Y18900D02*
D03*
X7020Y18680D02*
D03*
X6990Y19510D02*
D03*
X15030Y18880D02*
D03*
D38*
X14805Y12402D02*
D03*
X15395D02*
D03*
X13681D02*
D03*
X14272D02*
D03*
X11417D02*
D03*
X12008D02*
D03*
X10335D02*
D03*
X10925D02*
D03*
X6398D02*
D03*
X6988D02*
D03*
X5315D02*
D03*
X5906D02*
D03*
X1870Y12402D02*
D03*
X1280D02*
D03*
X2953D02*
D03*
X2362D02*
D03*
X21850Y5433D02*
D03*
X22441D02*
D03*
X12585Y5425D02*
D03*
X13176D02*
D03*
X34494Y7727D02*
D03*
X35085D02*
D03*
X33313D02*
D03*
X33904D02*
D03*
X31398Y7677D02*
D03*
X31988D02*
D03*
X30217D02*
D03*
X30807D02*
D03*
X27854D02*
D03*
X28445D02*
D03*
X26673D02*
D03*
X27264D02*
D03*
X23031Y7677D02*
D03*
X23622D02*
D03*
X24213D02*
D03*
X24803D02*
D03*
X23031Y4035D02*
D03*
X23622D02*
D03*
X24213D02*
D03*
X24803D02*
D03*
X13681Y4035D02*
D03*
X14272D02*
D03*
X14764Y4035D02*
D03*
X15354D02*
D03*
X1870Y33465D02*
D03*
X1280D02*
D03*
X6398Y33465D02*
D03*
X6988D02*
D03*
X11417D02*
D03*
X12008D02*
D03*
X13114Y32629D02*
D03*
X13704D02*
D03*
X24213Y32579D02*
D03*
X24803D02*
D03*
X27854Y33465D02*
D03*
X28445D02*
D03*
X31398Y33465D02*
D03*
X31988D02*
D03*
X34744D02*
D03*
X35335D02*
D03*
X1870Y31299D02*
D03*
X1280D02*
D03*
X6398Y31299D02*
D03*
X6988D02*
D03*
X11417D02*
D03*
X12008D02*
D03*
X14764Y31299D02*
D03*
X15354D02*
D03*
X24213Y31299D02*
D03*
X24803D02*
D03*
X27854Y32087D02*
D03*
X28445D02*
D03*
X31398Y31299D02*
D03*
X31988D02*
D03*
X34744D02*
D03*
X35335D02*
D03*
X1870Y26575D02*
D03*
X1280D02*
D03*
X6398Y26575D02*
D03*
X6988D02*
D03*
X11417D02*
D03*
X12008D02*
D03*
X14764Y26575D02*
D03*
X15354D02*
D03*
X27854Y26575D02*
D03*
X28445D02*
D03*
X31398D02*
D03*
X31988D02*
D03*
X34744D02*
D03*
X35335D02*
D03*
X1870Y23819D02*
D03*
X1280D02*
D03*
X6405Y20450D02*
D03*
X6995D02*
D03*
X15055Y23700D02*
D03*
X15645D02*
D03*
X24150Y19650D02*
D03*
X23560D02*
D03*
X27855Y23580D02*
D03*
X28445D02*
D03*
X31398Y19587D02*
D03*
X31988D02*
D03*
X34744Y23819D02*
D03*
X35335D02*
D03*
X11417Y17462D02*
D03*
X12008D02*
D03*
X15005Y17500D02*
D03*
X15595D02*
D03*
X24213Y17312D02*
D03*
X24803D02*
D03*
X28250Y18132D02*
D03*
X28840D02*
D03*
X31398Y18012D02*
D03*
X31988D02*
D03*
X34744Y12402D02*
D03*
X35335D02*
D03*
X1870Y10532D02*
D03*
X1280D02*
D03*
X24255Y12550D02*
D03*
X24845D02*
D03*
X27854Y13091D02*
D03*
X28445D02*
D03*
X31405Y12450D02*
D03*
X31995D02*
D03*
X34705Y10550D02*
D03*
X35295D02*
D03*
X1870Y7677D02*
D03*
X1280D02*
D03*
X6398Y7677D02*
D03*
X6988D02*
D03*
X11417Y7677D02*
D03*
X12008D02*
D03*
X14764Y7677D02*
D03*
X15354D02*
D03*
X11417Y2953D02*
D03*
X12008D02*
D03*
X31398D02*
D03*
X31988D02*
D03*
X34744D02*
D03*
X35335D02*
D03*
X2953Y33465D02*
D03*
X2362D02*
D03*
X5315Y33465D02*
D03*
X5906D02*
D03*
X10335D02*
D03*
X10925D02*
D03*
X12031Y32629D02*
D03*
X12622D02*
D03*
X22931Y32579D02*
D03*
X23522D02*
D03*
X26673Y33465D02*
D03*
X27264D02*
D03*
X30217D02*
D03*
X30807D02*
D03*
X33563D02*
D03*
X34154D02*
D03*
X2953Y31299D02*
D03*
X2362D02*
D03*
X5315Y31299D02*
D03*
X5906D02*
D03*
X10335D02*
D03*
X10925D02*
D03*
X13681D02*
D03*
X14272D02*
D03*
X22931Y31299D02*
D03*
X23522D02*
D03*
X26673Y32087D02*
D03*
X27264D02*
D03*
X30217Y31299D02*
D03*
X30807D02*
D03*
X33563D02*
D03*
X34154D02*
D03*
X2953Y26575D02*
D03*
X2362D02*
D03*
X5315Y26575D02*
D03*
X5906D02*
D03*
X10335D02*
D03*
X10925D02*
D03*
X13681D02*
D03*
X14272D02*
D03*
X26673D02*
D03*
X27264D02*
D03*
X30217D02*
D03*
X30807D02*
D03*
X33563D02*
D03*
X34154D02*
D03*
X2953Y23819D02*
D03*
X2362D02*
D03*
X5305Y20480D02*
D03*
X5895D02*
D03*
X10335Y20537D02*
D03*
X10925D02*
D03*
X13655Y19700D02*
D03*
X14245D02*
D03*
X20345Y19700D02*
D03*
X19755D02*
D03*
X27105Y19450D02*
D03*
X27695D02*
D03*
X30217Y19587D02*
D03*
X30807D02*
D03*
X33563Y23819D02*
D03*
X34154D02*
D03*
X5315Y18012D02*
D03*
X5906D02*
D03*
X10335Y17462D02*
D03*
X10925D02*
D03*
X13655Y17300D02*
D03*
X14245D02*
D03*
X23031Y17312D02*
D03*
X23622D02*
D03*
X27205Y18120D02*
D03*
X27795D02*
D03*
X30217Y18012D02*
D03*
X30807D02*
D03*
X33305Y12400D02*
D03*
X33895D02*
D03*
X2953Y10532D02*
D03*
X2362D02*
D03*
X23055Y12550D02*
D03*
X23645D02*
D03*
X27215Y11090D02*
D03*
X26625D02*
D03*
X30217Y12402D02*
D03*
X30807D02*
D03*
X33326Y10513D02*
D03*
X33917D02*
D03*
X2953Y7677D02*
D03*
X2362D02*
D03*
X5315Y7677D02*
D03*
X5906D02*
D03*
X10335D02*
D03*
X10925D02*
D03*
X13681D02*
D03*
X14272D02*
D03*
X5315Y2953D02*
D03*
X5906D02*
D03*
X10335D02*
D03*
X10925D02*
D03*
X30215D02*
D03*
X30805D02*
D03*
X33563D02*
D03*
X34154D02*
D03*
X4232Y9429D02*
D03*
X4823D02*
D03*
X9291Y9390D02*
D03*
X9882D02*
D03*
X3602Y8642D02*
D03*
X4193D02*
D03*
X8701Y8681D02*
D03*
X9291D02*
D03*
X4921Y13091D02*
D03*
X4331D02*
D03*
X6398Y2953D02*
D03*
X6988D02*
D03*
X6398Y18012D02*
D03*
X6988D02*
D03*
X11417Y20537D02*
D03*
X12008D02*
D03*
X24213Y26575D02*
D03*
X24803D02*
D03*
X1870Y2953D02*
D03*
X1280D02*
D03*
X23031Y26575D02*
D03*
X23622D02*
D03*
X2953Y2953D02*
D03*
X2362D02*
D03*
X4016Y4154D02*
D03*
X3425D02*
D03*
X4606Y4862D02*
D03*
X4016D02*
D03*
X3945Y32150D02*
D03*
X3355D02*
D03*
X3976Y28346D02*
D03*
X3386D02*
D03*
X4035Y23858D02*
D03*
X3445D02*
D03*
X4429Y23130D02*
D03*
X5020D02*
D03*
X5020Y14469D02*
D03*
X4429D02*
D03*
X8858Y4626D02*
D03*
X9449D02*
D03*
X3346Y32677D02*
D03*
X3937D02*
D03*
X3386Y28839D02*
D03*
X3976D02*
D03*
X3445Y24409D02*
D03*
X4035D02*
D03*
X5020Y22638D02*
D03*
X4429D02*
D03*
X4429Y14961D02*
D03*
X5020D02*
D03*
X9449Y4035D02*
D03*
X8858D02*
D03*
X29134Y4823D02*
D03*
X29724D02*
D03*
X32480Y4823D02*
D03*
X33071D02*
D03*
X27854Y2953D02*
D03*
X28445D02*
D03*
X26673D02*
D03*
X27264D02*
D03*
X18012Y3642D02*
D03*
X18602D02*
D03*
X1870Y1969D02*
D03*
X1280D02*
D03*
X1870Y1476D02*
D03*
X1280D02*
D03*
X18012Y4626D02*
D03*
X18602D02*
D03*
X7480Y5610D02*
D03*
X8071D02*
D03*
X8071Y5020D02*
D03*
X7480D02*
D03*
X25591Y5020D02*
D03*
X26181D02*
D03*
D39*
X9114Y2461D02*
D03*
X9370Y3248D02*
D03*
X8858D02*
D03*
X3642Y34252D02*
D03*
X3386Y33465D02*
D03*
X3898D02*
D03*
X3642Y30413D02*
D03*
X3386Y29626D02*
D03*
X3898D02*
D03*
X3740Y25866D02*
D03*
X3484Y25079D02*
D03*
X3996D02*
D03*
X4764Y16437D02*
D03*
X4508Y15650D02*
D03*
X5020D02*
D03*
X7776Y7087D02*
D03*
X7520Y6299D02*
D03*
X8031D02*
D03*
X4626Y11614D02*
D03*
X4882Y12402D02*
D03*
X4370D02*
D03*
X4724Y21161D02*
D03*
X4980Y21949D02*
D03*
X4469D02*
D03*
D40*
X1870Y4528D02*
D03*
X2894Y4154D02*
D03*
Y4902D02*
D03*
X31319Y4429D02*
D03*
X30295Y4803D02*
D03*
Y4055D02*
D03*
X34665Y4429D02*
D03*
X33642Y4803D02*
D03*
Y4055D02*
D03*
X27776Y4626D02*
D03*
X26752Y5000D02*
D03*
Y4252D02*
D03*
X24035Y5118D02*
D03*
X23012Y5492D02*
D03*
Y4744D02*
D03*
X14685Y5118D02*
D03*
X13661Y5492D02*
D03*
Y4744D02*
D03*
X6398Y9055D02*
D03*
X5374Y9429D02*
D03*
Y8681D02*
D03*
X11388Y9049D02*
D03*
X10364Y9423D02*
D03*
Y8675D02*
D03*
D41*
X12585Y6468D02*
D03*
Y5878D02*
D03*
X25600Y6065D02*
D03*
Y5475D02*
D03*
X3740Y13091D02*
D03*
Y12500D02*
D03*
X29134Y5807D02*
D03*
Y5217D02*
D03*
X32480Y5807D02*
D03*
Y5217D02*
D03*
X21850Y6496D02*
D03*
Y5906D02*
D03*
D42*
X14642Y1339D02*
D03*
X15642D02*
D03*
X16642D02*
D03*
X17642D02*
D03*
X18972D02*
D03*
X19972D02*
D03*
X20972D02*
D03*
X21972D02*
D03*
X14642Y35276D02*
D03*
X15642D02*
D03*
X16642D02*
D03*
X17642D02*
D03*
X18972D02*
D03*
X19972D02*
D03*
X20972D02*
D03*
X21972D02*
D03*
D43*
X35276Y21972D02*
D03*
Y20972D02*
D03*
Y19972D02*
D03*
Y18972D02*
D03*
Y17642D02*
D03*
Y16642D02*
D03*
Y15642D02*
D03*
Y14642D02*
D03*
X1339Y21972D02*
D03*
Y20972D02*
D03*
Y19972D02*
D03*
Y18972D02*
D03*
Y17642D02*
D03*
Y16642D02*
D03*
Y15642D02*
D03*
Y14642D02*
D03*
D44*
X21640Y28434D02*
D03*
X19668D02*
D03*
X20652Y27166D02*
D03*
D45*
X14087Y3100D02*
D03*
X13693D02*
D03*
X1697Y13950D02*
D03*
X1303D02*
D03*
X33753Y22690D02*
D03*
X34147D02*
D03*
D46*
X20669Y24606D02*
D03*
Y24106D02*
D03*
Y23606D02*
D03*
Y25106D02*
D03*
Y25606D02*
D03*
D47*
X9463Y17649D02*
D03*
X9203D02*
D03*
X8943D02*
D03*
X8693D02*
D03*
X8433D02*
D03*
X8183D02*
D03*
X7923D02*
D03*
X7663D02*
D03*
Y19949D02*
D03*
X7923D02*
D03*
X8183D02*
D03*
X8433D02*
D03*
X8693D02*
D03*
X8943D02*
D03*
X9203D02*
D03*
X9463D02*
D03*
D48*
X20343Y10054D02*
D03*
Y9794D02*
D03*
Y9534D02*
D03*
Y9284D02*
D03*
Y9024D02*
D03*
Y8774D02*
D03*
Y8514D02*
D03*
Y8254D02*
D03*
X18043D02*
D03*
Y8514D02*
D03*
Y8774D02*
D03*
Y9024D02*
D03*
Y9284D02*
D03*
Y9534D02*
D03*
Y9794D02*
D03*
Y10054D02*
D03*
D49*
X13790Y34083D02*
D03*
Y34477D02*
D03*
D50*
X32500Y22650D02*
D03*
X31500D02*
D03*
X30500D02*
D03*
X29500D02*
D03*
X28500D02*
D03*
X27500D02*
D03*
X26500D02*
D03*
X25500D02*
D03*
X24500D02*
D03*
X23500D02*
D03*
X22500D02*
D03*
X21500D02*
D03*
X20500D02*
D03*
X19500D02*
D03*
X18500D02*
D03*
X17500D02*
D03*
X16500D02*
D03*
X15500D02*
D03*
X14500D02*
D03*
X13500D02*
D03*
X32500Y20350D02*
D03*
X31500D02*
D03*
X30500D02*
D03*
X29500D02*
D03*
X28500D02*
D03*
X27500D02*
D03*
X26500D02*
D03*
X25500D02*
D03*
X24500D02*
D03*
X23500D02*
D03*
X22500D02*
D03*
X21500D02*
D03*
X20500D02*
D03*
X19500D02*
D03*
X18500D02*
D03*
X17500D02*
D03*
X16500D02*
D03*
X15500D02*
D03*
X14500D02*
D03*
X13500D02*
D03*
X32500Y16650D02*
D03*
X31500D02*
D03*
X30500D02*
D03*
X29500D02*
D03*
X28500D02*
D03*
X27500D02*
D03*
X26500D02*
D03*
X25500D02*
D03*
X24500D02*
D03*
X23500D02*
D03*
X22500D02*
D03*
X21500D02*
D03*
X20500D02*
D03*
X19500D02*
D03*
X18500D02*
D03*
X17500D02*
D03*
X16500D02*
D03*
X15500D02*
D03*
X14500D02*
D03*
X13500D02*
D03*
X32500Y14350D02*
D03*
X31500D02*
D03*
X30500D02*
D03*
X29500D02*
D03*
X28500D02*
D03*
X27500D02*
D03*
X26500D02*
D03*
X25500D02*
D03*
X24500D02*
D03*
X23500D02*
D03*
X22500D02*
D03*
X21500D02*
D03*
X20500D02*
D03*
X19500D02*
D03*
X18500D02*
D03*
X17500D02*
D03*
X16500D02*
D03*
X15500D02*
D03*
X14500D02*
D03*
X13500D02*
D03*
M02*
