M48
;Layer_Color=9474304
;FILE_FORMAT=2:4
INCH,TZ
T2F00S00C0.2000
%
G90
G05
T02
G00X36813Y-980
M15
G01X37004Y-921
G01X37179Y-825
G01X37332Y-696
G01X37456Y-540
G01X37546Y-362
G01X37600Y-169
G01X37614Y0
G01X37614Y36614
G01X37594Y36813
G01X37535Y37004
G01X37439Y37179
G01X37311Y37332
G01X37154Y37456
G01X36976Y37546
G01X36784Y37600
G01X36614Y37614
G01X0Y37614
G01X-199Y37594
G01X-390Y37535
G01X-565Y37439
G01X-718Y37311
G01X-842Y37154
G01X-932Y36976
G01X-986Y36784
G01X-1000Y36614
G01X-1000Y0
G01X-980Y-199
G01X-921Y-390
G01X-825Y-565
G01X-696Y-718
G01X-540Y-842
G01X-362Y-932
G01X-169Y-986
G01X0Y-1000
G01X36614Y-1000
G01X36813Y-980
M16
M17
M30
