G04 Layer_Physical_Order=4*
G04 Layer_Color=16711680*
%FSLAX25Y25*%
%MOIN*%
G70*
G01*
G75*
%ADD13C,0.01000*%
%ADD15C,0.05000*%
%ADD20R,0.04100X0.06300*%
%ADD21R,0.01400X0.05800*%
%ADD22R,0.09843X0.02992*%
%ADD23R,0.02756X0.03543*%
%ADD24R,0.03543X0.02756*%
%ADD25R,0.02165X0.04528*%
%ADD26R,0.04528X0.02362*%
%ADD27R,0.05800X0.01400*%
%ADD28R,0.03937X0.07874*%
%ADD29R,0.07000X0.24000*%
%ADD30R,0.24000X0.07000*%
%ADD31R,0.02362X0.01969*%
%ADD32R,0.01969X0.02362*%
D13*
X183300Y234954D02*
Y294336D01*
X185300Y236000D02*
Y293507D01*
X202900Y264600D02*
Y280616D01*
X195692Y257392D02*
X202900Y264600D01*
X195692Y255211D02*
Y257392D01*
X194300Y253819D02*
X195692Y255211D01*
X230315Y238692D02*
X233171Y241547D01*
X230315Y195866D02*
Y238692D01*
X236221Y232601D02*
Y265748D01*
Y232601D02*
X238550Y230271D01*
Y199729D02*
Y230271D01*
X242126Y232035D02*
Y275717D01*
X241078Y230987D02*
X242126Y232035D01*
X241078Y76772D02*
Y230987D01*
X237671Y198850D02*
X238550Y199729D01*
X236221Y198850D02*
X237671D01*
X247400Y240000D02*
X248188D01*
X226300Y248819D02*
Y270840D01*
X230315Y247717D02*
Y265748D01*
Y247717D02*
X233171Y244861D01*
X222300Y247162D02*
X226258Y243204D01*
X222300Y247162D02*
Y260900D01*
X271450Y207271D02*
X272701Y208522D01*
X271450Y199729D02*
Y207271D01*
Y199729D02*
X272638Y198541D01*
X194300Y237300D02*
Y253819D01*
X266732Y180118D02*
Y195866D01*
X185300Y293507D02*
X205800Y314007D01*
X183300Y294336D02*
X201154Y312190D01*
X169843Y327600D02*
X180557D01*
X182900Y325257D01*
X181385Y329600D02*
X187400Y323585D01*
X168600Y329600D02*
X181385D01*
X175290Y331600D02*
X188800D01*
X178900Y323336D02*
Y323600D01*
X182900Y322343D02*
Y325257D01*
X175197Y313976D02*
X177276D01*
X183000Y319700D01*
X182900Y322343D02*
X183000Y322243D01*
Y319700D02*
Y322243D01*
X188800Y331600D02*
X191500Y328900D01*
X187400Y322700D02*
Y323585D01*
X158819Y309410D02*
X171500Y322091D01*
X157243Y315000D02*
X169843Y327600D01*
X162700Y335500D02*
X168600Y329600D01*
X196100Y323700D02*
Y328848D01*
X201154Y312190D02*
Y349949D01*
X189724Y335224D02*
Y351378D01*
Y335224D02*
X196100Y328848D01*
X166417Y340472D02*
X175290Y331600D01*
X171500Y322091D02*
Y323600D01*
X173100Y287100D02*
X191500Y305500D01*
X200200Y258271D02*
X216575Y274646D01*
X200200Y241063D02*
Y258271D01*
X216575Y274646D02*
Y287284D01*
X249700Y99709D02*
Y125863D01*
X248031Y127531D02*
X249700Y125863D01*
X253937Y322763D02*
X262858Y313842D01*
X245400Y151000D02*
X246800D01*
X251450Y146350D01*
Y139729D02*
Y146350D01*
X308550Y222729D02*
Y265748D01*
X308071D02*
X308550D01*
X306600Y220779D02*
X308550Y222729D01*
X306600Y211043D02*
Y220779D01*
Y211043D02*
X308550Y209093D01*
Y196345D02*
Y209093D01*
X308071Y195866D02*
X308550Y196345D01*
X315000Y210821D02*
Y219179D01*
X311450Y207271D02*
X315000Y210821D01*
X311450Y199729D02*
Y207271D01*
X328646Y199824D02*
Y232400D01*
X333993Y219488D02*
X334646D01*
Y224014D01*
X330646Y196457D02*
Y223380D01*
X333993Y219488D02*
X343757Y209724D01*
X162329Y208150D02*
X165850D01*
X161450Y207271D02*
X162329Y208150D01*
X186024Y53776D02*
Y55524D01*
X165850Y208150D02*
X173800Y216100D01*
X161450Y202629D02*
Y207271D01*
X153653Y194831D02*
X161450Y202629D01*
X153653Y192400D02*
Y194831D01*
Y192400D02*
X153700Y192353D01*
X185000Y203500D02*
X188550Y199950D01*
X147638Y180118D02*
Y195988D01*
X144869Y194217D02*
Y196048D01*
X147638Y265748D02*
X147638Y265748D01*
X147638Y234012D02*
Y265748D01*
Y234012D02*
X150550Y231100D01*
Y198900D02*
Y231100D01*
X147638Y195988D02*
X150550Y198900D01*
X145638Y233184D02*
X148550Y230271D01*
X145638Y233184D02*
Y235662D01*
X148550Y199729D02*
Y230271D01*
X144869Y196048D02*
X148550Y199729D01*
X142700Y238600D02*
X145638Y235662D01*
X142717Y186800D02*
Y192064D01*
X144869Y194217D01*
X142553Y191900D02*
X142717Y192064D01*
X128700Y219800D02*
X145000Y203500D01*
X147638Y265748D02*
Y312992D01*
X142700Y238600D02*
X142717Y238617D01*
X136811Y243311D02*
Y265748D01*
X128700Y235200D02*
X136811Y243311D01*
X136811Y172010D02*
Y191900D01*
X132947Y195600D02*
X136647Y191900D01*
X127300Y195600D02*
X132947D01*
X142717Y186800D02*
X142717Y186800D01*
X142717Y180118D02*
Y189883D01*
X301400Y49584D02*
Y333880D01*
X319882Y207582D02*
X324600Y212300D01*
X311450Y230271D02*
X313976Y232798D01*
X311450Y222729D02*
X315000Y219179D01*
X311450Y199729D02*
X312329Y198850D01*
X311450Y222729D02*
Y230271D01*
X284449Y180118D02*
X285000Y179567D01*
Y174000D02*
Y179567D01*
X329400Y190200D02*
Y190700D01*
Y190200D02*
X332916D01*
X342441Y199724D01*
X239000Y139432D02*
Y177339D01*
X236221Y180118D02*
X239000Y177339D01*
X236221Y180118D02*
Y183070D01*
X232000Y187291D02*
X236221Y183070D01*
X232000Y187291D02*
Y187800D01*
X236221Y195866D02*
Y198850D01*
X238800Y279043D02*
X242126Y275717D01*
X233171Y241547D02*
Y244861D01*
X232000Y190110D02*
X236221Y194331D01*
X232000Y187800D02*
Y190110D01*
X272638Y130906D02*
X272638Y130905D01*
X272606Y130937D02*
X272638Y130906D01*
X272638D01*
X271494D02*
X272638D01*
X272638Y195866D02*
Y198541D01*
Y186024D02*
Y195866D01*
Y180118D02*
Y186024D01*
Y171459D02*
Y180118D01*
Y291339D02*
Y304281D01*
Y265748D02*
Y291339D01*
X272606Y130937D02*
X272638Y130905D01*
X272606Y130937D02*
Y130937D01*
X272638Y130969D01*
Y137662D01*
X271450Y138850D02*
X272638Y137662D01*
X271450Y138850D02*
Y147271D01*
X272700Y148521D01*
Y154357D01*
X271450Y155607D02*
X272700Y154357D01*
X271450Y155607D02*
Y170271D01*
X272638Y171459D01*
X272701Y208522D02*
Y213665D01*
X271450Y214915D02*
X272701Y213665D01*
X271450Y214915D02*
Y230271D01*
X272638Y231459D01*
Y265748D01*
X266732Y126925D02*
X274500Y119157D01*
X278543Y124042D02*
Y139715D01*
X278550Y177682D02*
Y207271D01*
Y221807D02*
Y334639D01*
X278543Y139715D02*
X278550Y139722D01*
Y147693D01*
X281700Y150843D01*
Y154157D01*
X278550Y157307D02*
X281700Y154157D01*
X278550Y157307D02*
Y170271D01*
X275896Y172925D02*
X278550Y170271D01*
X275896Y172925D02*
Y175028D01*
X278550Y177682D01*
X276800Y209021D02*
X278550Y207271D01*
X276800Y209021D02*
Y220057D01*
X278550Y221807D01*
X278543Y334646D02*
X278550Y334639D01*
X275857Y123900D02*
Y127687D01*
X272638Y130906D02*
X275857Y127687D01*
Y123900D02*
X278500Y121257D01*
X280800Y218400D02*
X283000D01*
X308550Y124016D02*
Y179639D01*
X311450Y170271D02*
X313913Y172735D01*
X311450Y138850D02*
Y170271D01*
X275100Y113743D02*
X278500Y117143D01*
Y121257D01*
X275100Y106793D02*
Y113743D01*
X313189Y43504D02*
X313976Y44291D01*
X313976Y33465D02*
X313976Y33465D01*
X313189Y34252D02*
X313976Y33465D01*
Y76772D02*
Y132874D01*
Y33465D02*
Y76772D01*
Y33465D02*
Y33465D01*
X313913Y172735D02*
X313976Y172798D01*
X313913Y172735D02*
Y180055D01*
Y172556D02*
Y172735D01*
X313976Y195866D02*
Y198850D01*
Y180118D02*
Y195866D01*
Y172798D02*
Y180118D01*
Y265748D02*
Y305167D01*
Y232798D02*
Y265748D01*
X313900Y305243D02*
Y334569D01*
X313976Y132874D02*
Y136324D01*
X311450Y138850D02*
X313976Y136324D01*
X312329Y198850D02*
X313976D01*
X313900Y305243D02*
X313976Y305167D01*
X313900Y334569D02*
X313976Y334646D01*
X321532Y54165D02*
X322410Y55043D01*
X321532Y54164D02*
Y54165D01*
X319700Y52333D02*
X321532Y54164D01*
X319700Y41400D02*
Y52333D01*
X319882Y195866D02*
Y207582D01*
X308071Y291339D02*
Y356299D01*
X322202Y309400D02*
X327500D01*
X319882Y311720D02*
X322202Y309400D01*
X319882Y311720D02*
Y312992D01*
X332700Y295900D02*
Y337400D01*
X335630Y238189D02*
Y334645D01*
X341535Y281496D02*
Y334646D01*
X346500Y313933D02*
Y327740D01*
Y313933D02*
X347441Y312992D01*
Y265748D02*
Y312992D01*
X353347D02*
Y319546D01*
X327743Y232600D02*
X335172D01*
X325400Y234943D02*
X327743Y232600D01*
X324898Y190709D02*
X330646Y196457D01*
X329600Y189400D02*
Y190500D01*
X329300Y178670D02*
Y181400D01*
X330646Y223380D02*
X334850Y227585D01*
X325400Y234943D02*
Y237400D01*
X317900Y306900D02*
Y307800D01*
X341535Y52165D02*
Y123765D01*
X330600Y134700D02*
X341535Y123765D01*
X329500Y134700D02*
X330600D01*
X318000Y173800D02*
X318400Y173400D01*
X318900D01*
X325050Y196228D02*
X328646Y199824D01*
X324760Y196228D02*
X325050D01*
X324898Y177388D02*
Y190709D01*
X329400Y190700D02*
X329600Y190500D01*
X335629Y187007D02*
X335630D01*
X264059Y138850D02*
X269610Y133299D01*
X262329Y138850D02*
X264059D01*
X258550Y143850D02*
Y149750D01*
X258100Y150200D02*
X258550Y149750D01*
Y143850D02*
X261450Y140950D01*
Y139729D02*
X262329Y138850D01*
X261450Y139729D02*
Y140950D01*
X269610Y132790D02*
X271494Y130906D01*
X269610Y132790D02*
Y133299D01*
X249700Y99709D02*
X250000Y99410D01*
X251450Y139729D02*
X251700Y139479D01*
Y119363D02*
Y139479D01*
Y119363D02*
X254921Y116142D01*
X308071Y29528D02*
X308900Y28698D01*
X303150Y34449D02*
X308071Y29528D01*
X308071Y76772D02*
Y124016D01*
Y29528D02*
Y76772D01*
X308071Y29528D02*
X308071Y29528D01*
X308071Y29528D02*
X308071D01*
X308071D02*
X308071Y29528D01*
Y124016D02*
X308550D01*
X308071Y180118D02*
X308550Y179639D01*
X230315Y149254D02*
Y180118D01*
Y149254D02*
X230315Y149254D01*
X188550Y139729D02*
Y199950D01*
X187200Y138379D02*
X188550Y139729D01*
X187200Y136100D02*
Y138379D01*
X192300Y132700D02*
X200000D01*
X201771Y130929D01*
X211300Y137000D02*
X211803D01*
X221500Y125900D02*
X227200Y120200D01*
X228800Y122501D02*
X230315Y124016D01*
X228800Y121428D02*
Y122501D01*
Y121428D02*
X229200Y121028D01*
X230315Y124016D02*
Y149254D01*
X236300Y136732D02*
X239000Y139432D01*
X236300Y107100D02*
Y136732D01*
X291400Y58071D02*
Y86100D01*
X278543Y180118D02*
Y195866D01*
X128700Y219800D02*
Y235200D01*
X142717Y172417D02*
Y180118D01*
X141450Y171150D02*
X142717Y172417D01*
X141450Y154500D02*
Y171150D01*
X129400Y212000D02*
X135000Y206400D01*
Y203500D02*
Y206400D01*
X142717Y238617D02*
Y265748D01*
X144445Y203500D02*
X145000D01*
X138900Y154500D02*
X141450D01*
Y139729D02*
Y154500D01*
Y139729D02*
X142717Y138462D01*
Y124016D02*
Y138462D01*
X131758Y100394D02*
X134780Y103415D01*
Y105988D01*
X136811Y108019D01*
Y124016D01*
X138550Y125755D01*
Y147271D01*
X134900Y150921D02*
X138550Y147271D01*
X134900Y150921D02*
Y156157D01*
X138550Y159807D01*
Y170271D01*
X136811Y172010D02*
X138550Y170271D01*
X138779Y104331D02*
X142717Y108268D01*
X141000Y44760D02*
X142716Y43044D01*
X135311Y44760D02*
X141000D01*
X132874Y42323D02*
X135311Y44760D01*
X335729Y229384D02*
X336650D01*
X334850Y228506D02*
X335729Y229384D01*
X334850Y227585D02*
Y228506D01*
X337629Y234917D02*
X338508Y235796D01*
X337489Y234917D02*
X337629D01*
X335172Y232600D02*
X337489Y234917D01*
X342183D02*
X343535D01*
X336650Y229384D02*
X342183Y234917D01*
X340233Y235796D02*
X341536Y237098D01*
X338508Y235796D02*
X340233D01*
X319000Y243800D02*
X325400Y237400D01*
X301400Y333880D02*
X302165Y334646D01*
X301400Y49584D02*
X302953Y48031D01*
X324898Y177388D02*
X330000Y172285D01*
Y167315D02*
Y172285D01*
X245400Y150269D02*
Y151000D01*
X215000Y159000D02*
X220800Y153200D01*
X241078Y76772D02*
X243047D01*
X215000Y159000D02*
Y166500D01*
X211803Y137000D02*
X212403Y137600D01*
X168782Y180118D02*
X173800Y175100D01*
X153543Y180118D02*
X168782D01*
X168819Y313255D02*
X178900Y323336D01*
X226258Y243204D02*
X229170D01*
X223700Y239300D02*
Y242934D01*
X215571Y251063D02*
X223700Y242934D01*
X262858Y244899D02*
Y313842D01*
Y244899D02*
X265000Y242757D01*
X222000Y187800D02*
X222369Y187431D01*
X242800Y280700D02*
X250200Y288100D01*
X242126Y285683D02*
Y325787D01*
X238800Y282357D02*
X242126Y285683D01*
X220043Y263157D02*
X222300Y260900D01*
X220043Y263157D02*
Y292800D01*
X230300Y265748D02*
Y272012D01*
Y265748D02*
X230315D01*
X236221Y265748D02*
Y287402D01*
X236220Y265748D02*
X236221Y265748D01*
X236220Y265748D02*
X236221D01*
X262700Y190400D02*
X262858Y190558D01*
X277200Y333302D02*
X278543Y334646D01*
X185300Y236000D02*
X189200Y232100D01*
X213396D01*
X147638Y312992D02*
Y325787D01*
X147638Y325787D02*
X147638Y325787D01*
X147638Y325787D02*
X147638D01*
X147638D02*
X147638Y325787D01*
X142717Y265748D02*
Y283465D01*
Y312992D01*
X147638Y180118D02*
X147638Y180118D01*
Y180118D01*
X146148Y55033D02*
X146850Y54330D01*
X122800Y198587D02*
Y230017D01*
X121500Y231317D02*
X122800Y230017D01*
X121500Y231317D02*
Y235100D01*
X114173Y236259D02*
Y312992D01*
X113269Y235354D02*
X114173Y236259D01*
X113269Y222077D02*
Y235354D01*
X120079Y195866D02*
X122800Y198587D01*
X113269Y222077D02*
X114173Y221173D01*
Y195866D02*
Y221173D01*
X113733Y195426D02*
X114173Y195866D01*
X113733Y77212D02*
Y195426D01*
X127000Y171200D02*
X127998Y172198D01*
X120079Y180118D02*
X127998Y172198D01*
X127000Y171200D02*
Y173200D01*
X50197Y231299D02*
Y240157D01*
X113733Y77212D02*
X114173Y76772D01*
X89430Y199492D02*
Y221096D01*
X69882Y216000D02*
X75339Y221457D01*
X78900Y225970D02*
X81756Y223113D01*
X78900Y216944D02*
X81756Y219800D01*
X78900Y208430D02*
Y216944D01*
Y225970D02*
Y226000D01*
X82900Y227626D02*
X89430Y221096D01*
X82900Y227626D02*
Y269462D01*
X80900Y226798D02*
Y230600D01*
Y226798D02*
X83756Y223942D01*
Y218971D02*
Y223942D01*
X80900Y216115D02*
X83756Y218971D01*
X80900Y211030D02*
Y216115D01*
X81756Y219800D02*
Y223113D01*
X75339Y221457D02*
X77756D01*
X358267Y324467D02*
Y324802D01*
X353347Y319546D02*
X358267Y324467D01*
X219724Y348661D02*
X228346Y357283D01*
X219724Y346048D02*
Y348661D01*
X94630Y191787D02*
X97441Y188976D01*
X94630Y191787D02*
Y199492D01*
X89567Y181102D02*
X97441Y188976D01*
X82677Y181102D02*
X89567D01*
X79230Y176492D02*
Y188486D01*
X81830Y180255D02*
X82677Y181102D01*
X180118Y36417D02*
Y46260D01*
X193961Y26771D02*
X194724Y26007D01*
X180118Y36417D02*
X180118Y36417D01*
X180118Y30512D02*
Y36417D01*
X189724Y13386D02*
X189961Y13622D01*
X166417Y25669D02*
X174213Y33465D01*
X319882Y82677D02*
X319882Y82677D01*
X319882Y76772D02*
Y82677D01*
X319882Y82125D02*
Y82677D01*
X263779Y97648D02*
Y98425D01*
X248031Y81900D02*
X263779Y97648D01*
X254921Y94488D02*
Y116142D01*
X224400Y67361D02*
Y78750D01*
X245100Y91400D02*
X246200Y92500D01*
X163386Y91685D02*
X163535Y91535D01*
X179239Y75892D02*
X179700Y76354D01*
X179239Y75892D02*
X180118Y75013D01*
X173085Y74803D02*
X173228D01*
X171188Y76700D02*
X173085Y74803D01*
X180229Y95535D02*
X180429Y95335D01*
X157288Y104523D02*
X157300Y104511D01*
X46035Y52924D02*
Y78515D01*
X46260Y78740D01*
X46035Y52924D02*
X46063Y52953D01*
Y48622D02*
Y52953D01*
X120079Y76935D02*
X123977Y80834D01*
X120079Y76772D02*
Y76935D01*
X123977Y80834D02*
Y87598D01*
X87008Y84127D02*
Y86811D01*
Y84127D02*
X91035Y80100D01*
X98000D01*
X81693Y82428D02*
X87661Y76460D01*
X81693Y82428D02*
Y91535D01*
X71922Y78740D02*
X79724D01*
X69882Y76700D02*
X71922Y78740D01*
X52165Y82043D02*
X52943D01*
X54000Y83100D01*
X241142Y31496D02*
X245128D01*
X248031Y34400D01*
X236220Y10827D02*
Y40354D01*
X209724Y22385D02*
X218835Y31496D01*
X220472D01*
X220535Y43965D02*
X228083Y36417D01*
X232317D01*
X37402Y29528D02*
X37402Y29528D01*
X330709Y48228D02*
Y58071D01*
X324803Y63976D02*
X330709Y58071D01*
X335630Y74803D02*
Y76772D01*
X324803Y63976D02*
X335630Y74803D01*
X342519Y51181D02*
Y51182D01*
Y51181D02*
X342520Y51182D01*
X341535Y52165D02*
X342519Y51182D01*
X342520Y51182D02*
Y51749D01*
X341535Y50765D02*
X342520Y51749D01*
X210622Y62000D02*
X224400D01*
X324800Y58071D02*
X324803D01*
X324800Y57433D02*
Y58071D01*
X284449Y76772D02*
Y82677D01*
X281500Y96000D02*
X291400Y86100D01*
X297400Y48384D02*
Y57100D01*
X166417Y13386D02*
Y25669D01*
X226400Y64000D02*
Y80600D01*
X224400Y62000D02*
X226400Y64000D01*
X222000Y64961D02*
X224400Y67361D01*
X203429Y87735D02*
X207000D01*
X194724Y18386D02*
Y26007D01*
Y18386D02*
X199724Y13386D01*
X266732Y76772D02*
Y92520D01*
Y76772D02*
X266732Y76772D01*
X10827Y88583D02*
X12795Y86614D01*
Y82677D02*
Y86614D01*
Y82677D02*
X12795Y82677D01*
X203400Y108000D02*
X205800Y110400D01*
X335630Y92520D02*
Y105315D01*
X120079Y130500D02*
X124595Y125984D01*
X6890Y109810D02*
X11000Y105700D01*
X192101Y180701D02*
X193100Y181700D01*
X335138Y179626D02*
X339567Y175197D01*
X350157D01*
X334646Y180118D02*
X335300Y180772D01*
Y180800D01*
Y179788D02*
Y180772D01*
X334646Y180118D02*
X335138Y179626D01*
X335300Y179788D01*
X334645Y180117D02*
X334646Y180118D01*
X318000Y173800D02*
X319882Y175682D01*
Y180118D01*
X324772Y154459D02*
X324900Y154331D01*
X335630Y187007D02*
X338583Y189961D01*
X278543Y179134D02*
Y180118D01*
X45276Y185039D02*
Y193898D01*
X92030Y199492D02*
Y225070D01*
X84330Y199492D02*
Y203000D01*
X86930Y199492D02*
Y205000D01*
X109252Y228652D02*
Y241142D01*
X262700Y174500D02*
Y190400D01*
X69882Y182087D02*
Y186024D01*
X69882Y182087D02*
X69882Y182087D01*
X69882Y182087D02*
X70866Y181103D01*
X69882Y180118D02*
X70866Y181103D01*
X60039Y181102D02*
Y188976D01*
X42323Y210630D02*
X46260D01*
X78001Y177722D02*
X79076Y178797D01*
X76771Y176493D02*
X78001Y177722D01*
X64039Y180181D02*
Y195803D01*
X63913Y124079D02*
Y180055D01*
X109252Y241142D02*
X109252Y241142D01*
X53149Y174212D02*
Y195866D01*
X53150Y195866D01*
X53149Y124016D02*
Y174212D01*
X69882Y180118D02*
X69882Y180118D01*
X59055Y188976D02*
Y195866D01*
X63976D02*
X64039Y195803D01*
X63913Y180055D02*
X64039Y180181D01*
X59055Y180118D02*
X60039Y181102D01*
X74100Y230800D02*
X78900Y226000D01*
X68100Y234800D02*
X76700D01*
X80900Y230600D01*
X66900Y236000D02*
Y356000D01*
Y236000D02*
X68100Y234800D01*
X23622Y238189D02*
Y238189D01*
X9883Y228346D02*
X16635Y221595D01*
X9843Y228346D02*
X9883D01*
X354331Y266732D02*
Y280512D01*
X353347Y265748D02*
X354331Y266732D01*
X287402Y275840D02*
Y277559D01*
Y275840D02*
X287442Y275800D01*
X284449Y272807D02*
X287442Y275800D01*
X152559Y266732D02*
X153543Y265748D01*
X70902Y263779D02*
X77756D01*
X69882Y264800D02*
X70902Y263779D01*
X341535Y334646D02*
X341535Y334646D01*
Y238189D02*
Y281496D01*
X341535Y238189D02*
X341535Y238189D01*
X325787Y294094D02*
X330894D01*
X332700Y295900D01*
X248031Y292669D02*
Y312992D01*
X282600Y313800D02*
Y317951D01*
X9843Y312992D02*
X12795D01*
X53149Y334646D02*
X53150Y334646D01*
X53149Y265748D02*
X53150Y265748D01*
X126969Y313728D02*
Y314961D01*
X126233Y312992D02*
X126969Y313728D01*
X69890Y312991D02*
X71859Y314961D01*
X81693D01*
X69882Y313000D02*
X69890Y312991D01*
X178150Y335630D02*
Y349646D01*
X136811Y311759D02*
Y325787D01*
Y311759D02*
X137858Y310712D01*
Y266795D02*
Y310712D01*
X122101Y334700D02*
X125700D01*
X209724Y320976D02*
X218693Y312007D01*
X220472D01*
X224410Y306102D02*
Y307086D01*
X153543Y325787D02*
X154527Y326772D01*
X156417Y338000D02*
X158917Y335500D01*
X166417Y340472D02*
Y351378D01*
X294291Y324803D02*
Y325448D01*
X294449Y325606D01*
X351377Y325787D02*
Y326377D01*
X351378Y326378D01*
X354331Y340338D02*
Y340551D01*
X353346Y339354D02*
X354331Y340338D01*
X353346Y334646D02*
Y339354D01*
X194000Y94500D02*
X198335D01*
X200000Y92835D01*
X203429D01*
X176417Y26811D02*
X180118Y30512D01*
X176417Y13386D02*
Y26811D01*
X203429Y85135D02*
X209156D01*
X227158Y31700D02*
X227600D01*
X153543Y76700D02*
X171188D01*
X180118Y74803D02*
Y75013D01*
X77756Y21654D02*
X79724Y19685D01*
X93504D01*
X103346Y29527D01*
X84646Y25591D02*
X90157D01*
X78740Y46260D02*
X82677D01*
X74803Y50197D02*
X78740Y46260D01*
X74803Y50197D02*
Y50197D01*
X68504Y49803D02*
X75197Y56496D01*
X93701Y32480D02*
X94488Y33268D01*
Y40354D01*
X99409D02*
X99410Y40354D01*
X94488Y40354D02*
X99409D01*
X103346Y29527D02*
X103409Y29591D01*
Y76709D01*
X103346Y76772D02*
X103409Y76709D01*
X302165Y29528D02*
X302165Y29528D01*
X277756Y36221D02*
X278543Y35433D01*
X277756Y36221D02*
Y46260D01*
X336220Y48228D02*
X336417Y48031D01*
X330709Y48228D02*
X336220D01*
X328740Y124016D02*
X335630D01*
X336221Y123425D01*
X347377Y265684D02*
X347441Y265748D01*
X347377Y238253D02*
X347441Y238189D01*
X347377Y238253D02*
Y265684D01*
X142716Y265748D02*
X142717Y265748D01*
X248031Y292669D02*
X250200Y290500D01*
X207321Y308400D02*
X222043Y293677D01*
Y278557D02*
Y293677D01*
X205000Y292800D02*
X220043D01*
X226300Y282300D02*
Y285900D01*
X230315Y312992D02*
Y325787D01*
X224410Y307086D02*
X230300Y312977D01*
X109252Y282481D02*
X109252Y282481D01*
X108268Y356299D02*
X109252Y355315D01*
Y282481D02*
Y355315D01*
X109252Y241142D02*
Y265748D01*
Y241142D02*
X109252Y241142D01*
X81830Y176492D02*
Y180255D01*
X23622Y265748D02*
X23622Y265748D01*
X29528Y272638D02*
Y312992D01*
X29528Y312992D01*
X29528Y265748D02*
Y272638D01*
Y265748D02*
X29528Y265748D01*
X33835Y334646D02*
X33858D01*
X33464Y326772D02*
X33858Y327165D01*
Y334646D01*
X294156Y356299D02*
X308071D01*
X263780Y342700D02*
X263960Y342520D01*
X108268Y266732D02*
X109252Y265748D01*
X108268Y356299D02*
X109252D01*
X142700Y326400D02*
Y328000D01*
Y326400D02*
X142716Y326384D01*
X29528Y265748D02*
Y266100D01*
X40158Y48800D02*
Y49016D01*
Y41536D02*
Y48800D01*
X122400Y341600D02*
X122967D01*
X47244Y141556D02*
X49213Y139587D01*
X156417Y338000D02*
Y343757D01*
X92030Y147330D02*
Y176492D01*
X202900Y290700D02*
X205000Y292800D01*
X256520Y356299D02*
X258858D01*
X258700Y20000D02*
Y39528D01*
X336417Y48031D02*
X337300D01*
X319882Y265748D02*
Y271400D01*
X191500Y305500D02*
Y328900D01*
X248031Y76772D02*
Y81900D01*
X203400Y100535D02*
X203429D01*
X218504Y64961D02*
X222000D01*
X248031Y127531D02*
Y130905D01*
X245100Y66939D02*
Y91400D01*
X291339Y58071D02*
X291400D01*
X199000Y98935D02*
Y110100D01*
Y98935D02*
X200000Y97935D01*
X203429D01*
X49213Y130906D02*
Y139587D01*
X12795Y238189D02*
Y239847D01*
X88600Y228500D02*
X92030Y225070D01*
X33858Y298000D02*
X35958Y300100D01*
X227600Y23400D02*
Y31700D01*
X98700Y40999D02*
Y42100D01*
X203429Y82535D02*
X208736D01*
X254900Y347700D02*
X260300D01*
X122967Y341600D02*
X123032Y341535D01*
X78900Y208430D02*
X84330Y203000D01*
X80900Y211030D02*
X86930Y205000D01*
X120079Y130500D02*
Y130906D01*
X332700Y337400D02*
X333300Y338000D01*
X338536D01*
X125852Y64685D02*
X126200D01*
X248031Y265748D02*
Y272531D01*
X132874Y9843D02*
Y42323D01*
X335178Y241000D02*
X335630Y240548D01*
X40158Y49016D02*
X40748D01*
X153543Y76700D02*
Y76772D01*
X353346Y115654D02*
Y124016D01*
X248031Y34400D02*
Y40354D01*
X120079Y265748D02*
Y265925D01*
X128000D01*
X282600Y317951D02*
X284449Y319800D01*
Y320866D01*
X94630Y139530D02*
Y176492D01*
X109252Y103346D02*
X109300Y103298D01*
X69882Y195866D02*
Y216000D01*
X69882Y264800D02*
Y265748D01*
X120079Y29528D02*
Y29600D01*
X353346Y76400D02*
Y76772D01*
X69882Y76700D02*
Y76772D01*
Y312992D02*
Y313000D01*
X153543Y312992D02*
Y315000D01*
X284449Y265748D02*
Y272807D01*
X350400Y112446D02*
Y128000D01*
X12795Y105315D02*
Y105700D01*
X11000D02*
X12795D01*
X75197Y56496D02*
Y62992D01*
X196850Y282346D02*
Y287284D01*
X103346Y29527D02*
Y29527D01*
X219724Y346048D02*
X228000D01*
X326772Y340000D02*
Y341535D01*
X321372Y334600D02*
X326772Y340000D01*
X319882Y334600D02*
X321372D01*
X319882D02*
Y334646D01*
X39764Y48800D02*
Y49016D01*
Y48800D02*
X40158D01*
X284449Y334646D02*
Y336614D01*
X278543Y342520D02*
X284449Y336614D01*
X11811Y265748D02*
X12795D01*
X113878Y83695D02*
Y90486D01*
Y83695D02*
X114173Y83400D01*
Y76772D02*
Y83400D01*
X98819Y93898D02*
Y96881D01*
X266732Y22638D02*
X266732Y31496D01*
X308071Y180118D02*
Y188976D01*
X29528Y312992D02*
Y334646D01*
Y238189D02*
Y265748D01*
X15512Y145669D02*
X15512Y145669D01*
X12303Y266240D02*
X12795Y266732D01*
X18701Y29528D02*
Y47244D01*
X63976Y29528D02*
Y90551D01*
X242126Y325788D02*
X242126Y325787D01*
X121063Y333662D02*
X122101Y334700D01*
X120079Y334646D02*
X121063Y333662D01*
X176417Y351378D02*
X178150Y349646D01*
X12795Y76772D02*
Y82677D01*
X81693Y70866D02*
X83661Y72835D01*
X77756Y70866D02*
X81693D01*
X90157Y25591D02*
X91142Y24606D01*
X9842Y19685D02*
X12795D01*
X29528Y29528D02*
Y41536D01*
X18701Y5906D02*
Y19685D01*
X125852Y54252D02*
Y58779D01*
Y54252D02*
X132662Y47441D01*
X136614D01*
X218504Y54331D02*
X225393Y47441D01*
X230118D01*
X230315Y40354D02*
Y42071D01*
X230118Y54921D02*
X233882Y51157D01*
Y45639D02*
Y51157D01*
X230315Y42071D02*
X233882Y45639D01*
X136811Y40354D02*
X138583Y38583D01*
X88583Y46260D02*
X88583D01*
X88583Y32480D02*
Y46260D01*
X80709Y56102D02*
X80709D01*
X80709Y50197D02*
Y56102D01*
X80315Y62992D02*
X80709Y62598D01*
Y56102D02*
Y62598D01*
X37402Y130905D02*
X37402Y130906D01*
X43307D01*
X43701Y130512D01*
Y124016D02*
Y130512D01*
X48819Y130512D02*
X49213Y130906D01*
X48819Y124016D02*
Y130512D01*
X46260Y116142D02*
Y116142D01*
X50197Y144685D02*
X50197D01*
Y149606D01*
X50197D02*
X50197D01*
X50197D02*
Y156496D01*
X34449Y238583D02*
X34449D01*
X33858Y288386D02*
Y298000D01*
X39370Y321850D02*
Y326772D01*
X36417Y304134D02*
X37402Y305118D01*
X44291Y226378D02*
Y231299D01*
X49803Y225984D02*
X50197Y226378D01*
X49803Y219488D02*
Y225984D01*
X44291Y226378D02*
X44685Y225984D01*
Y219488D02*
Y225984D01*
X46260Y210630D02*
X47244Y211614D01*
X278543Y180118D02*
X278543Y180118D01*
X297244Y48228D02*
X297441Y48031D01*
X302953D01*
X299016Y40551D02*
X302953D01*
X291339Y48228D02*
X299016Y40551D01*
X291339Y48228D02*
Y52165D01*
X324803Y48228D02*
X324803Y48229D01*
Y48863D01*
X218504Y54331D02*
Y59055D01*
X255905Y54134D02*
X255906D01*
X255905Y50197D02*
Y54134D01*
Y50197D02*
X263583Y42520D01*
X267520D01*
X335630Y334646D02*
X335630Y334645D01*
X266732Y195866D02*
X266732Y195866D01*
X350157Y175197D02*
X351378Y176417D01*
X351142Y189961D02*
X351378Y189724D01*
X341535Y238189D02*
X341536Y238189D01*
X278543Y195866D02*
X278543Y195866D01*
X230315Y195866D02*
X230315D01*
X136811Y325787D02*
X136811Y325787D01*
Y76772D02*
X136811D01*
X103346Y94521D02*
X103642Y94226D01*
X92979Y86746D02*
X103642D01*
X92913Y86811D02*
X92979Y86746D01*
X42323Y86811D02*
X53740D01*
X29528Y334646D02*
X29528Y334646D01*
X14764Y156417D02*
X22385D01*
X209724Y343757D02*
Y351378D01*
X156417Y343757D02*
Y351378D01*
X145861Y333200D02*
X156417Y343757D01*
X28937Y41536D02*
X29528D01*
X53149Y124016D02*
X53740Y123425D01*
X14764Y199724D02*
X25669D01*
X14764Y209724D02*
X22717D01*
X23622Y76772D02*
X23622D01*
X59055Y29528D02*
X59055D01*
X59055Y124016D02*
X59055D01*
X59055Y195866D02*
X59055D01*
X59055Y265748D02*
X59055D01*
X23622Y265748D02*
X23622Y265748D01*
X98819Y93898D02*
X99147Y94226D01*
X103642D01*
X92913Y86811D02*
Y93898D01*
X48341Y94179D02*
X53628D01*
X53740Y94291D01*
X44957Y97563D02*
X48341Y94179D01*
X41929Y93898D02*
X42323Y94291D01*
X41929Y86417D02*
Y93898D01*
Y86417D02*
X42323Y86811D01*
X29528Y41536D02*
X34252D01*
X38976Y327165D02*
X39370Y326772D01*
X343425Y156417D02*
X351378D01*
X343757Y209724D02*
X351378D01*
X14764Y219724D02*
X16635Y221595D01*
X206693Y17795D02*
X209724Y14764D01*
X12795Y266732D02*
Y281496D01*
X103374Y86479D02*
X103642Y86746D01*
X53628Y86699D02*
X53740Y86811D01*
X28937Y49016D02*
X39764D01*
X40748D02*
X41142Y48622D01*
X63976Y334646D02*
X63976Y334646D01*
X114173Y312992D02*
Y334646D01*
Y312992D02*
X114173Y312992D01*
X114173Y29528D02*
Y76772D01*
X109252Y76771D02*
X109252Y76772D01*
X109252Y51181D02*
Y76771D01*
Y29527D02*
X109252Y29527D01*
X38976Y327165D02*
Y334646D01*
X93701Y32480D02*
Y33600D01*
X312992Y341535D02*
X314100Y342643D01*
X122400Y339900D02*
Y341600D01*
X324803Y48863D02*
Y53149D01*
Y48863D02*
X325120Y48546D01*
X11811Y265748D02*
X12303Y266240D01*
X29527Y76772D02*
Y88427D01*
X131758Y54252D02*
X132427Y54921D01*
X338536Y338000D02*
X341536Y335000D01*
X341535Y334646D02*
Y354331D01*
X341536Y312992D02*
Y335000D01*
X235900Y40000D02*
Y59376D01*
X142716Y312600D02*
Y326384D01*
X109252Y29527D02*
Y51181D01*
X59055Y195866D02*
Y265748D01*
X59055Y124016D02*
Y147638D01*
X29528Y29528D02*
X37402D01*
X29527Y88427D02*
X38663Y97563D01*
X29527Y76772D02*
X29528Y76772D01*
X29527Y88427D02*
Y105315D01*
X29528Y105315D01*
X47244Y141556D02*
Y147441D01*
X45669Y149016D02*
X47244Y147441D01*
X45079Y155315D02*
Y156496D01*
X44354Y154591D02*
X45079Y155315D01*
X44291Y149606D02*
X44354Y149669D01*
Y154591D01*
X44291Y144685D02*
X44291Y144685D01*
X44291Y136811D02*
Y144685D01*
X34449Y244095D02*
Y250394D01*
X34842Y250787D01*
Y252394D02*
X37149Y254700D01*
X34842Y250787D02*
Y252394D01*
X131758Y100394D02*
X136811Y95341D01*
Y76772D02*
Y95341D01*
X131758Y54252D02*
Y100394D01*
X224409Y54331D02*
X229528D01*
X230118Y54921D01*
X146850Y41142D02*
Y54330D01*
Y41142D02*
X147638Y40354D01*
X319882Y26575D02*
Y33465D01*
X329725Y29527D02*
X335630D01*
X319882Y26575D02*
X319882Y26575D01*
X329724Y29528D02*
X329725Y29527D01*
X346653Y30315D02*
Y44291D01*
Y30315D02*
X347441Y29528D01*
X347441Y76772D02*
X347441Y44291D01*
X347441Y105315D02*
X347441Y76772D01*
X347441Y124016D02*
X347441Y105315D01*
X298351Y34449D02*
X303150D01*
X302165Y8858D02*
Y29528D01*
X305118Y26575D02*
X308071Y29528D01*
X305118Y13780D02*
Y26575D01*
Y13780D02*
X308071Y10827D01*
Y5906D02*
Y10827D01*
X297244Y48228D02*
X297400Y48384D01*
X232317Y36417D02*
X235900Y40000D01*
X266732Y130906D02*
X267400Y130238D01*
X245100Y66939D02*
X252000Y60039D01*
X255906D01*
X243047Y53874D02*
Y76772D01*
X240354Y51181D02*
X243047Y53874D01*
X240354Y42126D02*
Y51181D01*
Y42126D02*
X242126Y40354D01*
X251969Y46260D02*
X258700Y39528D01*
X245079Y46260D02*
X251969D01*
X261811Y50197D02*
Y54134D01*
X258858Y57087D02*
X261811Y54134D01*
X253588Y57087D02*
X258858D01*
X250000Y53499D02*
X253588Y57087D01*
X250000Y53150D02*
Y53499D01*
X261811Y50197D02*
X267271D01*
X317000Y111000D02*
X329484Y97531D01*
X22385Y156417D02*
X27559Y151243D01*
X13386Y166417D02*
X21575D01*
X13386Y146260D02*
Y146417D01*
X86930Y160749D02*
Y176492D01*
X79724Y157480D02*
X84330Y162086D01*
Y176492D01*
X59055Y180118D02*
X59055Y180118D01*
X76771Y176493D02*
X76772Y176492D01*
X39671Y143391D02*
Y154528D01*
X39972D01*
X47244Y228543D02*
Y236221D01*
Y228543D02*
X49409Y226378D01*
X50197D01*
X74803Y166339D02*
X77756Y169291D01*
X258700Y20000D02*
X268857Y9843D01*
X271654Y10827D02*
X272638Y11811D01*
X268701Y10827D02*
X271654D01*
X268701Y9999D02*
Y10827D01*
X284449Y76772D02*
X284449Y76772D01*
X319882Y120018D02*
Y132874D01*
Y120018D02*
X321000Y118900D01*
X352756Y142126D02*
Y146417D01*
X338583Y189961D02*
X351142D01*
X36024Y86417D02*
X39341Y83100D01*
X83598Y157417D02*
X86930Y160749D01*
X75816Y124016D02*
X75816Y124016D01*
X69882Y124016D02*
X75816D01*
X53150Y63150D02*
X53150Y63150D01*
Y47244D02*
Y63150D01*
X53150Y29528D02*
X53150Y29528D01*
Y47244D01*
X53150Y76772D02*
X53150Y76772D01*
Y47244D02*
Y76772D01*
X68504Y45276D02*
Y49803D01*
X81693Y91535D02*
X83598Y93441D01*
Y157417D01*
X219488Y15000D02*
X219724Y14764D01*
X148031Y30709D02*
X148094D01*
X227362Y8858D02*
Y13032D01*
X222441Y17953D02*
X227362Y13032D01*
X219488Y15000D02*
X222441Y17953D01*
X209724Y14764D02*
Y22385D01*
X156417Y14764D02*
Y22385D01*
X148094Y30709D02*
X156417Y22385D01*
X146417Y14764D02*
Y23858D01*
X143504Y26772D02*
X146417Y23858D01*
X138583Y26772D02*
X143504D01*
X23622Y54134D02*
Y76772D01*
X23622Y54134D02*
X23622Y54134D01*
X236220Y76772D02*
Y100394D01*
X38663Y97563D02*
X44957D01*
X44291Y103347D02*
Y108268D01*
X59055Y104331D02*
Y124016D01*
X44291Y108268D02*
X49606Y113583D01*
Y124016D01*
X29528Y105315D02*
Y124016D01*
X91911Y136811D02*
X94630Y139530D01*
X86614Y91688D02*
Y141914D01*
X92030Y147330D01*
X36417Y125000D02*
X37402D01*
X63913Y124079D02*
X65945Y122047D01*
X63976Y90551D02*
X65945Y92520D01*
Y122047D01*
X59055Y104331D02*
X60039Y103347D01*
X61024D01*
X60212Y88749D02*
Y92353D01*
X61024Y93165D01*
Y103347D01*
X59055Y76772D02*
X60933Y78649D01*
Y88028D01*
X60212Y88749D02*
X60933Y88028D01*
X329724Y141732D02*
X347441Y124016D01*
X342441Y199724D02*
X352756D01*
X13386Y189724D02*
X22874D01*
X29528Y183071D01*
X25669Y199724D02*
X30512Y194882D01*
Y189961D02*
Y194882D01*
X236220Y325787D02*
X236221Y325787D01*
X341535Y354331D02*
X343504Y356299D01*
Y358268D01*
X294156Y356299D02*
X294156Y356299D01*
X295276D01*
X6890Y22638D02*
X9842Y19685D01*
X6890Y22638D02*
X6890D01*
X12795Y14764D02*
X12795Y14764D01*
X34449Y238583D02*
X34449Y238583D01*
X22638Y264763D02*
X23622Y265748D01*
X22638Y239173D02*
X23622Y238189D01*
X18638Y238252D02*
X18701Y238189D01*
X18638Y238252D02*
Y265685D01*
X59055Y29528D02*
X61024Y27559D01*
Y6890D02*
Y27559D01*
X126213Y29600D02*
X127125Y30512D01*
X120079Y29600D02*
X126213D01*
X127125Y30512D02*
X127953Y29684D01*
Y29528D02*
Y29684D01*
X109252Y29527D02*
X109252Y29527D01*
X109252Y8858D02*
Y29527D01*
X344488Y8858D02*
Y26575D01*
X341535Y29527D02*
X344488Y26575D01*
X29528Y5906D02*
Y29528D01*
X27559Y3937D02*
X29528Y5906D01*
X23622Y54134D02*
X23622Y54134D01*
X27496Y3874D02*
X27559Y3937D01*
X20732Y3874D02*
X27496D01*
X18701Y5906D02*
X20732Y3874D01*
X37402Y305118D02*
X37402Y305118D01*
X39764Y283465D02*
Y295472D01*
X38976Y296260D02*
X39764Y295472D01*
X60039Y313976D02*
Y356299D01*
X57499Y360299D02*
X62601D01*
X66900Y356000D01*
X39960Y244489D02*
Y250787D01*
Y244489D02*
X40354Y244095D01*
Y238583D02*
Y244095D01*
X37149Y254700D02*
X43528D01*
X76772Y190945D02*
X76772D01*
X79230Y188486D01*
X136811Y265748D02*
X137858Y266795D01*
X117200Y164747D02*
X118819Y163128D01*
X44602Y117800D02*
X46260Y116142D01*
X40400Y117800D02*
X44602D01*
X272638Y11811D02*
Y31496D01*
Y76772D01*
Y104331D01*
X59055Y147638D02*
Y180118D01*
X109252Y76772D02*
Y228652D01*
X172244Y89744D02*
X172735Y90235D01*
X180429D01*
X153748Y82582D02*
X174729D01*
X155617Y84583D02*
X173901D01*
X172244Y88582D02*
Y89744D01*
X164835Y92835D02*
X180429D01*
X163535Y91535D02*
X164835Y92835D01*
X160243Y97935D02*
X180429D01*
X174185Y95500D02*
X174221Y95535D01*
X180229D01*
X157300Y100879D02*
Y102500D01*
Y104511D01*
X165600Y102300D02*
X167100D01*
X165227Y95500D02*
X174185D01*
X155900Y91995D02*
X156300Y92395D01*
X155900Y91700D02*
Y91995D01*
X151900Y88300D02*
X155617Y84583D01*
X149900Y86430D02*
X153748Y82582D01*
X163535Y91535D02*
Y91834D01*
X163386Y91685D02*
X163535Y91834D01*
X156496Y92198D02*
X159798Y95500D01*
X161843D01*
X161878Y95535D01*
X165192D01*
X165227Y95500D01*
X157300Y100879D02*
X160243Y97935D01*
X173800Y102700D02*
X178265D01*
X180429Y100535D01*
X233014Y103600D02*
X236220Y100394D01*
X233014Y103600D02*
X233900D01*
Y104700D02*
X236300Y107100D01*
X233900Y103600D02*
Y104700D01*
X165354Y40354D02*
X165900Y40900D01*
X153543Y40354D02*
X165354D01*
X236220Y10827D02*
X239647Y7400D01*
X249200D01*
X341535Y29527D02*
Y50197D01*
X342519Y51181D01*
X325120Y47680D02*
Y48546D01*
Y47680D02*
X332249Y40551D01*
X336417D01*
X353346Y29528D02*
Y35433D01*
X354600Y36687D01*
Y41300D01*
X280512Y29528D02*
X284449Y33465D01*
Y35433D01*
X23622Y7874D02*
Y29528D01*
Y54134D01*
X59055Y29528D02*
Y76772D01*
X6890Y35433D02*
Y39370D01*
Y35433D02*
X12795Y29528D01*
X186024Y36417D02*
X189961Y40354D01*
Y40354D01*
Y13622D02*
Y40354D01*
X109252Y190945D02*
Y241142D01*
X103346Y94521D02*
Y334646D01*
X142478Y265509D02*
X142717Y265748D01*
X200200Y241063D02*
X206693D01*
X354900Y229300D02*
Y236635D01*
X353346Y238189D02*
X354900Y236635D01*
X341536Y237098D02*
Y238189D01*
X347400Y228200D02*
Y229400D01*
Y228200D02*
X352756Y222844D01*
Y219724D02*
Y222844D01*
X322410Y55043D02*
X322410D01*
X324800Y57433D01*
X201900Y47400D02*
X203833D01*
X197900Y49057D02*
X197929Y49086D01*
Y60186D01*
X197900Y41273D02*
Y49057D01*
X203833Y47400D02*
X203989Y47244D01*
X197900Y41273D02*
X198819Y40354D01*
X216300Y42558D02*
Y47000D01*
X217957Y51000D02*
X220535Y48421D01*
X213402Y51000D02*
X217957D01*
X216300Y42558D02*
X227158Y31700D01*
X208900Y46498D02*
X213402Y51000D01*
X220535Y43965D02*
Y48421D01*
X204724Y56102D02*
X210622Y62000D01*
X203989Y47244D02*
X204724Y47980D01*
Y56102D01*
X208900Y46498D02*
Y47000D01*
X5906Y14764D02*
X6000D01*
X12795D01*
X6890Y109810D02*
X9350Y112271D01*
Y133739D01*
X21575Y166417D02*
X32480Y155512D01*
X34137Y140685D02*
X36480Y143028D01*
X32480Y144685D02*
Y155512D01*
X10000Y242642D02*
X12795Y239847D01*
X10000Y242642D02*
Y245200D01*
X37402Y305118D02*
X37484Y305200D01*
X42100D01*
X18701Y331568D02*
Y334646D01*
Y331568D02*
X20732Y329537D01*
X12795Y332029D02*
Y334646D01*
X6702Y309851D02*
X9843Y312992D01*
X209724Y320976D02*
Y322867D01*
X209800Y322943D01*
X209724Y343757D02*
X209800Y343681D01*
Y322943D02*
Y343681D01*
X205800Y314007D02*
Y324600D01*
X317000Y308700D02*
X317900Y307800D01*
X313900Y180194D02*
X313976Y180118D01*
X313900Y334569D02*
X313976Y334646D01*
X253937Y322763D02*
X254074Y322900D01*
X254400D01*
X230300Y312977D02*
Y325100D01*
X232400Y327200D01*
X236220Y325787D02*
Y336000D01*
X256520Y356299D01*
X232400Y327200D02*
Y331143D01*
X233900Y332643D01*
Y340148D01*
X228000Y346048D02*
X233900Y340148D01*
X199724Y351378D02*
X201154Y349949D01*
X218081Y335400D02*
X221600D01*
X209724Y343757D02*
X218081Y335400D01*
X20732Y325875D02*
Y329537D01*
X18701Y323844D02*
X20732Y325875D01*
X154527Y326772D02*
X160433D01*
X33465Y317835D02*
Y321850D01*
X5500Y324000D02*
Y324733D01*
X12795Y332029D01*
X69882Y334646D02*
X69882Y334646D01*
X81693D01*
X87661Y323339D02*
Y343192D01*
X77300Y353554D02*
X87661Y343192D01*
Y323339D02*
X95800Y315200D01*
X89661Y328939D02*
X95800Y322800D01*
X89661Y328939D02*
Y344021D01*
X86700Y346982D02*
X89661Y344021D01*
X86700Y346982D02*
Y356100D01*
X77300Y353554D02*
Y356100D01*
Y356400D01*
X125400Y345300D02*
Y354000D01*
Y345300D02*
X142700Y328000D01*
X137795Y356100D02*
X142517Y351378D01*
X146417D01*
X158917Y335500D02*
X162700D01*
X153543Y315000D02*
X157243D01*
X206693Y251063D02*
X215571D01*
X216694Y239600D02*
X217700D01*
X206693Y246063D02*
X210231D01*
X216694Y239600D01*
X126749Y266200D02*
X128000D01*
X35958Y300100D02*
X40604D01*
X75816Y124016D02*
X76100Y124300D01*
X78500D01*
X91500Y100400D02*
X95300D01*
X98819Y96881D01*
X109300Y51181D02*
Y103298D01*
X142716Y40354D02*
Y43044D01*
X142717Y40354D02*
Y55184D01*
X137500Y60400D02*
X142717Y55184D01*
X137500Y60400D02*
X142716Y65616D01*
Y76772D01*
X142716Y76772D01*
X131758Y54251D02*
X135945D01*
X136614Y54921D01*
X149900Y86430D02*
Y103643D01*
X213700Y87500D02*
Y90000D01*
X209156Y85135D02*
X213700Y89679D01*
Y90000D01*
X208736Y82535D02*
X213700Y87500D01*
X199000Y110100D02*
X201771Y112871D01*
X183200Y134443D02*
Y137757D01*
X184829Y60813D02*
Y132814D01*
X183200Y134443D02*
X184829Y132814D01*
X201771Y112871D02*
Y130929D01*
X277756Y46260D02*
X278543Y47048D01*
X272638Y104331D02*
X275100Y106793D01*
X278543Y47048D02*
Y114358D01*
X280500Y116315D01*
X335000Y142500D02*
Y147992D01*
X343425Y156417D01*
X355100Y132700D02*
Y135000D01*
X350400Y128000D02*
X355100Y132700D01*
X348400Y137770D02*
X352756Y142126D01*
X348400Y137400D02*
Y137770D01*
X341500Y105315D02*
X341535Y105280D01*
X341500Y124400D02*
X341535Y124365D01*
X341400Y105146D02*
X341535Y105280D01*
X341400Y124231D02*
X341535Y124365D01*
X341400Y92843D02*
Y124231D01*
X335610Y92500D02*
X335630Y92520D01*
X335400Y92500D02*
X335610D01*
X353346Y115654D02*
X357284Y111716D01*
X37402Y258661D02*
X40551Y261811D01*
X43307D01*
X50197Y240157D02*
X50197Y240157D01*
Y239173D02*
Y240157D01*
X43528Y254700D02*
X45221Y253008D01*
X45200Y238265D02*
Y248400D01*
Y252987D02*
X45221Y253008D01*
X45200Y248400D02*
Y252987D01*
Y238265D02*
X47244Y236221D01*
X18701Y237940D02*
Y238189D01*
Y237940D02*
X20744Y235896D01*
Y235796D02*
Y235896D01*
Y235796D02*
X21623Y234917D01*
X22638Y264763D02*
X23300Y264101D01*
Y244600D02*
Y264101D01*
X22638Y239173D02*
X23300Y239836D01*
Y244600D01*
X31683Y176417D02*
X32100Y176000D01*
X13386Y176417D02*
X31683D01*
X41339Y197705D02*
Y199803D01*
Y205957D01*
X35671Y152871D02*
Y156184D01*
X34966Y138685D02*
X39671Y143391D01*
X36480Y143028D02*
Y152062D01*
X35671Y152871D02*
X36480Y152062D01*
X18701Y47244D02*
Y126101D01*
X33285Y140685D02*
X34137D01*
X34113Y138685D02*
X34966D01*
X45700Y166308D02*
Y174400D01*
Y166308D02*
X47638Y164370D01*
X39972Y154528D02*
X40600Y155155D01*
Y196967D01*
X41339Y197705D01*
X35671Y156184D02*
X38500Y159013D01*
Y196985D01*
X37339Y198146D02*
X38500Y196985D01*
X37339Y198146D02*
Y201460D01*
X38500Y202621D01*
Y205967D01*
X36323Y208145D02*
X38500Y205967D01*
X38323Y208973D02*
X41339Y205957D01*
X34449Y238583D02*
X35100Y237932D01*
Y230500D02*
Y237932D01*
X21723Y234917D02*
X36323Y220318D01*
X22717Y209724D02*
X28900Y215908D01*
Y223197D01*
X22097Y230000D02*
X28900Y223197D01*
X23622Y235847D02*
X38323Y221146D01*
Y208973D02*
Y221146D01*
X36323Y208145D02*
Y220318D01*
X21623Y234917D02*
X21723D01*
X23622Y235847D02*
Y238189D01*
X329300Y178670D02*
X341553Y166417D01*
X351378D01*
X313913Y180055D02*
X313976Y180118D01*
X313913Y172556D02*
X313976Y172493D01*
X228000Y182433D02*
X230315Y180118D01*
X248031Y180118D02*
X250818D01*
X228000Y182433D02*
Y190474D01*
X230315Y192789D01*
Y195866D01*
X250818Y180118D02*
X254800Y184100D01*
X274500Y119157D02*
Y119600D01*
X266732Y126925D02*
Y130906D01*
X183043Y59100D02*
X183116D01*
X184829Y60813D01*
X174213Y50270D02*
X183043Y59100D01*
X174213Y33465D02*
Y50270D01*
X184700Y55100D02*
X186024Y53776D01*
X193961Y26771D02*
Y47639D01*
X186024Y46260D02*
Y53776D01*
X184700Y55100D02*
X185600D01*
X187200Y56700D02*
Y136100D01*
X186024Y55524D02*
Y55576D01*
X185600Y55100D02*
X186024Y55524D01*
X186050Y55550D01*
X187200Y56700D01*
X186024Y55576D02*
X186050Y55550D01*
X193961Y47639D01*
X84130Y89204D02*
X86614Y91688D01*
X94488Y46260D02*
Y55212D01*
X91243Y58400D02*
X91300D01*
X87500Y51083D02*
Y53200D01*
X86614Y53150D02*
X86665Y53200D01*
X87500D01*
X82677Y46260D02*
X87500Y51083D01*
X91300Y58400D02*
X94488Y55212D01*
X84130Y83377D02*
Y89204D01*
X91663Y75770D02*
X91700Y75807D01*
X84130Y83377D02*
X91700Y75807D01*
X87661Y61982D02*
X91243Y58400D01*
X207321Y308400D02*
X208100Y309179D01*
Y309800D01*
X142716Y76772D02*
X142716D01*
X165600Y102300D02*
X168300Y105000D01*
X151900Y88300D02*
Y94900D01*
X155572Y98572D01*
Y98572D01*
X153300Y100843D02*
X155572Y98572D01*
X153300Y100843D02*
Y104157D01*
X157449Y127000D02*
X174400D01*
X153543Y130905D02*
X157449Y127000D01*
X168300Y109357D02*
X181100Y122157D01*
Y132400D01*
X179100Y122985D02*
Y131437D01*
X168300Y105000D02*
Y109357D01*
X153300Y104157D02*
X158543Y109400D01*
X165515D01*
X179100Y122985D01*
X284449Y126651D02*
Y130906D01*
X280500Y116315D02*
Y122085D01*
X278543Y124042D02*
X280500Y122085D01*
X284449Y126651D02*
X286000Y125100D01*
X33465Y317835D02*
X34400Y316900D01*
X40500D01*
X353346Y76772D02*
Y87247D01*
X351500Y89093D02*
Y89900D01*
Y89093D02*
X353346Y87247D01*
X350400Y112446D02*
X353346Y109500D01*
Y105315D02*
Y109500D01*
X356224Y110656D02*
X357284Y111716D01*
X356224Y102922D02*
Y110656D01*
X46500Y330300D02*
Y332590D01*
X50500Y326900D02*
Y332024D01*
X49275Y333249D02*
X50500Y332024D01*
X40500Y316900D02*
X50500Y326900D01*
X49275Y352076D02*
X57499Y360299D01*
X36417Y342520D02*
X40527Y338410D01*
X40680D01*
X46500Y332590D01*
X49275Y333249D02*
Y352076D01*
X36028Y356299D02*
X38386D01*
X42386Y354186D02*
Y357956D01*
X36928Y360299D02*
X40043D01*
X42386Y357956D01*
X33835Y345635D02*
X42386Y354186D01*
X33835Y334646D02*
Y345635D01*
X23622Y334646D02*
Y343894D01*
X36028Y356299D01*
X16400Y340300D02*
X16929D01*
X36928Y360299D01*
X18638Y265685D02*
X18701Y265748D01*
Y312056D02*
X19900Y310857D01*
X18701Y312056D02*
Y323844D01*
Y265748D02*
Y305141D01*
X19900Y306341D01*
Y310857D01*
X6553Y310000D02*
X6702Y309851D01*
X6553Y310000D02*
X6600Y310047D01*
Y310700D01*
X346200Y333405D02*
X347441Y334646D01*
X346200Y328040D02*
Y333405D01*
Y328040D02*
X346500Y327740D01*
X20600Y228503D02*
X22097Y230000D01*
X20600Y228388D02*
X22212Y230000D01*
X76500Y33736D02*
Y39000D01*
X69882Y29528D02*
X72291D01*
X76500Y33736D01*
X81400Y30955D02*
Y31800D01*
X73756Y23310D02*
X81400Y30955D01*
X91507Y9500D02*
X96148Y4858D01*
X73756Y19644D02*
Y23310D01*
Y19644D02*
X83900Y9500D01*
X91507D01*
X350002Y96700D02*
X356224Y102922D01*
X350002Y96700D02*
X351500D01*
X20600Y228503D02*
Y229900D01*
Y228388D02*
X20700Y228288D01*
X20600Y228388D02*
Y229900D01*
X58900Y147793D02*
Y147800D01*
Y147793D02*
X59055Y147638D01*
X39341Y83100D02*
X54000D01*
X156300Y92395D02*
X156496Y92198D01*
X126200Y64685D02*
Y77400D01*
X74803Y166339D02*
X75600Y165542D01*
Y145900D02*
Y165542D01*
X72168Y136811D02*
X79724Y144368D01*
X69882Y136811D02*
X72168D01*
X79724Y144368D02*
Y157480D01*
X124595Y125984D02*
X127953D01*
X285800Y47000D02*
Y49000D01*
Y47000D02*
X298351Y34449D01*
X146968Y35400D02*
X148031Y34337D01*
Y30709D02*
Y34337D01*
X137992Y30709D02*
X138340D01*
X138583Y30951D01*
X143032Y35400D01*
X138583Y26772D02*
Y30951D01*
Y38583D01*
X142717Y108268D02*
Y124016D01*
Y76772D02*
Y100394D01*
X138779Y104331D02*
X142717Y100394D01*
X263960Y342520D02*
X265748D01*
X236221Y294291D02*
Y325787D01*
X272638Y320866D02*
Y334646D01*
X308071Y265748D02*
X308071Y265748D01*
Y291339D01*
X308071Y356299D02*
X308071Y356299D01*
X233268Y291339D02*
X236221Y294291D01*
X232283Y291339D02*
X233268D01*
X228284Y289682D02*
Y292995D01*
X230300Y295012D01*
Y312977D01*
X255906Y280405D02*
Y280512D01*
X248031Y272531D02*
X255906Y280405D01*
X222043Y278557D02*
X224025Y276575D01*
X226378D01*
X230378Y274918D02*
Y278232D01*
X228035Y280575D02*
X230378Y278232D01*
X228025Y280575D02*
X228035D01*
X226300Y282300D02*
X228025Y280575D01*
X230300Y272012D02*
X232378Y274090D01*
Y285587D01*
X228284Y289682D02*
X232378Y285587D01*
X232283Y291339D02*
X236221Y287402D01*
X226300Y270840D02*
X230378Y274918D01*
X40604Y300100D02*
X46260Y294444D01*
X37402Y272638D02*
Y279921D01*
X34449Y282874D02*
X37402Y279921D01*
X46260Y272638D02*
Y294444D01*
X23622Y265748D02*
X23622Y265748D01*
X23622Y265748D02*
Y283465D01*
X23622Y283465D01*
Y334646D01*
X53149Y265748D02*
X53150Y265748D01*
Y283465D01*
X53149Y334646D02*
X53150Y334645D01*
Y283465D02*
Y334645D01*
X59001Y265803D02*
X59055Y265748D01*
X59001Y265803D02*
X60039Y266841D01*
Y283464D01*
X59001Y312937D02*
X60039Y311899D01*
Y283464D02*
Y311899D01*
X63976Y281744D02*
X64039Y281807D01*
Y285121D01*
X63976Y285184D02*
X64039Y285121D01*
X59001Y312937D02*
X60039Y313976D01*
X63976Y195866D02*
Y281744D01*
Y285184D02*
Y334646D01*
X109252Y282481D02*
Y283465D01*
Y265748D02*
Y283465D01*
X193898Y279394D02*
X196850Y282346D01*
X193898Y276575D02*
Y279394D01*
X202693Y290493D02*
X202900Y290700D01*
X202693Y280823D02*
X202900Y280616D01*
X205709Y275591D02*
X207677Y277559D01*
Y282480D01*
X202693Y280823D02*
Y290493D01*
X205709Y275591D02*
X206693Y274606D01*
X343535Y234917D02*
X346806Y238189D01*
X347441D01*
X334646Y224014D02*
X337531Y226900D01*
X341469D02*
X344900D01*
X347400Y229400D01*
X143900Y333200D02*
X145861D01*
X137900Y339200D02*
X143900Y333200D01*
X137900Y339200D02*
Y340831D01*
X137800Y340932D02*
X137900Y340831D01*
X137795Y344868D02*
Y356100D01*
X12795Y124016D02*
Y128795D01*
X16769Y139300D02*
X23500D01*
X16769Y139300D02*
X16769Y139300D01*
X23950Y138850D02*
X27559Y142459D01*
X6426Y139300D02*
X12832D01*
X5906Y138779D02*
X6426Y139300D01*
X13386Y146260D01*
X23622Y76772D02*
Y128194D01*
X34113Y138685D01*
X31496Y129921D02*
X36417Y125000D01*
X18701Y126101D02*
X33285Y140685D01*
X12795Y128795D02*
X17600Y133600D01*
X27559Y142459D02*
Y151243D01*
X87661Y61982D02*
Y76460D01*
X91663Y64463D02*
Y75770D01*
X209700Y90435D02*
Y91657D01*
X213700Y95657D02*
Y103600D01*
X209700Y91657D02*
X213700Y95657D01*
X212557Y110400D02*
X218504Y104453D01*
X205800Y110400D02*
X212557D01*
X207000Y87735D02*
X209700Y90435D01*
X191500Y66615D02*
Y92000D01*
X195500Y89700D02*
X196035Y90235D01*
X203429D01*
X191500Y66615D02*
X197929Y60186D01*
X191500Y92000D02*
X194000Y94500D01*
X218200Y91557D02*
X218504Y91861D01*
Y104453D01*
X218200Y84950D02*
Y91557D01*
X222200Y84800D02*
X226400Y80600D01*
X218200Y84950D02*
X224400Y78750D01*
X203400Y100535D02*
Y108000D01*
X227200Y97500D02*
Y120200D01*
X229200Y101157D02*
X231200Y99157D01*
X229200Y101157D02*
Y121028D01*
X231200Y56003D02*
Y99157D01*
X230118Y54921D02*
X231200Y56003D01*
X222200Y84800D02*
X223000Y85600D01*
Y90000D01*
X96148Y4858D02*
X110909D01*
X127953Y21902D01*
Y22145D01*
X154300Y268473D02*
Y278500D01*
X152559Y266732D02*
X154300Y268473D01*
X238800Y279043D02*
Y282357D01*
X250200Y288100D02*
Y290500D01*
X272638Y304281D02*
X273700Y305343D01*
Y308657D01*
X272638Y309719D02*
X273700Y308657D01*
X272638Y309719D02*
Y320866D01*
X266732Y265748D02*
Y304311D01*
X265700Y305343D02*
X266732Y304311D01*
X265700Y305343D02*
Y308657D01*
X266732Y309689D01*
Y334646D01*
D15*
X177165Y283465D02*
D03*
X247400Y240000D02*
D03*
X254100Y245700D02*
D03*
X226300Y248819D02*
D03*
X253300Y234200D02*
D03*
X175197Y313976D02*
D03*
X176399Y305118D02*
D03*
X196100Y323700D02*
D03*
X310600Y212700D02*
D03*
X319300Y216000D02*
D03*
X334646Y219488D02*
D03*
X295400Y245300D02*
D03*
X334500Y280900D02*
D03*
X160300Y214400D02*
D03*
X142700Y238600D02*
D03*
X142717Y186800D02*
D03*
X324600Y212300D02*
D03*
X285000Y174000D02*
D03*
X232000Y187800D02*
D03*
X280800Y218400D02*
D03*
X319000Y151300D02*
D03*
X327500Y309400D02*
D03*
X350600Y324800D02*
D03*
X329600Y189400D02*
D03*
X329300Y181400D02*
D03*
X317900Y306900D02*
D03*
X318900Y173400D02*
D03*
X324760Y196228D02*
D03*
X318898Y189961D02*
D03*
X335629Y187007D02*
D03*
X290000Y189900D02*
D03*
X258100Y150200D02*
D03*
X268200Y119800D02*
D03*
X277700Y152500D02*
D03*
X211300Y137000D02*
D03*
X221500Y125900D02*
D03*
X319000Y243800D02*
D03*
X268700Y152700D02*
D03*
X319700Y41400D02*
D03*
X245400Y151000D02*
D03*
X220800Y153200D02*
D03*
X210236Y149016D02*
D03*
X177700Y181600D02*
D03*
X173800Y175100D02*
D03*
X307900Y235900D02*
D03*
X173800Y216100D02*
D03*
X236220Y237204D02*
D03*
X229170Y243204D02*
D03*
X261000Y241100D02*
D03*
X222000Y187800D02*
D03*
X242800Y280700D02*
D03*
X223730Y233200D02*
D03*
X223700Y239300D02*
D03*
X217700D02*
D03*
X142717Y283465D02*
D03*
X126200Y149800D02*
D03*
X119900Y149600D02*
D03*
X121500Y235100D02*
D03*
X128700Y235200D02*
D03*
X129500Y212000D02*
D03*
X127000Y173200D02*
D03*
X127300Y195600D02*
D03*
X77756Y221457D02*
D03*
X358267Y324802D02*
D03*
X296260Y151770D02*
D03*
X97441Y188976D02*
D03*
X189961Y40354D02*
D03*
X319882Y82677D02*
D03*
X263779Y98425D02*
D03*
X246200Y92500D02*
D03*
X173228Y74803D02*
D03*
X46260Y78740D02*
D03*
X123977Y87598D02*
D03*
X161417Y56496D02*
D03*
X169291Y57087D02*
D03*
X79724Y78740D02*
D03*
X52165Y82043D02*
D03*
X354331Y49213D02*
D03*
X280512Y29528D02*
D03*
X277559Y22638D02*
D03*
X241142Y31496D02*
D03*
X220472D02*
D03*
X23622Y7874D02*
D03*
X37402Y29528D02*
D03*
X324803Y63976D02*
D03*
X342519Y51181D02*
D03*
X198819Y40354D02*
D03*
X284449Y82677D02*
D03*
X289370Y94488D02*
D03*
X297400Y57100D02*
D03*
X211614Y56102D02*
D03*
X266732Y92520D02*
D03*
X10827Y88583D02*
D03*
X23622Y99409D02*
D03*
X250000Y99410D02*
D03*
X335300Y180800D02*
D03*
X324900Y154331D02*
D03*
X298228Y100394D02*
D03*
X45276Y185039D02*
D03*
X109252Y228652D02*
D03*
X262700Y190400D02*
D03*
X69882Y186024D02*
D03*
X60039Y188976D02*
D03*
X41339Y199803D02*
D03*
X42323Y210630D02*
D03*
X109252Y190945D02*
D03*
X53149Y174212D02*
D03*
X219647Y216315D02*
D03*
X74100Y230800D02*
D03*
X10000Y228346D02*
D03*
X354331Y280512D02*
D03*
X287402Y277559D02*
D03*
X77756Y263779D02*
D03*
X83661Y269462D02*
D03*
X12795Y281496D02*
D03*
X341535D02*
D03*
X325787Y294094D02*
D03*
X282600Y313800D02*
D03*
X126969Y314961D02*
D03*
X83661D02*
D03*
X178150Y335630D02*
D03*
X83661Y305118D02*
D03*
X130905D02*
D03*
X125700Y334700D02*
D03*
X220472Y312007D02*
D03*
X224410Y306102D02*
D03*
X294291Y324803D02*
D03*
X354331Y340551D02*
D03*
X272638Y186024D02*
D03*
X180118Y30512D02*
D03*
Y74803D02*
D03*
X77756Y21654D02*
D03*
X84646Y25591D02*
D03*
X99410Y40354D02*
D03*
X266732Y22638D02*
D03*
X208661Y186024D02*
D03*
X226300Y285900D02*
D03*
X258858Y291339D02*
D03*
X268701Y212008D02*
D03*
X178150Y246063D02*
D03*
X123031Y247047D02*
D03*
X164000Y244800D02*
D03*
X45276Y193898D02*
D03*
X29528Y272638D02*
D03*
X327756Y325787D02*
D03*
X308071Y356299D02*
D03*
X137795Y356100D02*
D03*
X108268D02*
D03*
X202900Y290700D02*
D03*
X319882Y271400D02*
D03*
X122400Y339900D02*
D03*
X208100Y195700D02*
D03*
X325400Y266100D02*
D03*
X88600Y228500D02*
D03*
X227600Y23400D02*
D03*
X98000Y80100D02*
D03*
X225500Y212200D02*
D03*
X126200Y77400D02*
D03*
X329484Y97531D02*
D03*
X193100Y181700D02*
D03*
X74200Y211100D02*
D03*
X118200Y57700D02*
D03*
X6000Y57000D02*
D03*
X308071Y188976D02*
D03*
X278543Y342520D02*
D03*
X326772Y341535D02*
D03*
X319882D02*
D03*
X312992D02*
D03*
X83661Y72835D02*
D03*
X109252Y241142D02*
D03*
X59055D02*
D03*
X137992Y30709D02*
D03*
X258858Y356299D02*
D03*
X228346Y357283D02*
D03*
X132874Y8858D02*
D03*
X109252Y103346D02*
D03*
X59055Y57087D02*
D03*
X227362Y8858D02*
D03*
X148031Y30709D02*
D03*
X109252Y51181D02*
D03*
X29527Y88427D02*
D03*
X44291Y136811D02*
D03*
X75787Y247047D02*
D03*
X131758Y100394D02*
D03*
X222000Y116000D02*
D03*
X319882Y26575D02*
D03*
X329724Y29528D02*
D03*
X310039Y22638D02*
D03*
X302165Y8858D02*
D03*
X308071Y5906D02*
D03*
X272638Y104331D02*
D03*
X250000Y53150D02*
D03*
X245079Y46260D02*
D03*
X5906Y138779D02*
D03*
X39671Y154528D02*
D03*
X77756Y169291D02*
D03*
X268701Y10827D02*
D03*
X321000Y118900D02*
D03*
X329500Y134700D02*
D03*
X53150Y47244D02*
D03*
X68504Y45276D02*
D03*
X118706Y100394D02*
D03*
X159449Y190945D02*
D03*
X23622Y54134D02*
D03*
X44291Y103347D02*
D03*
X69882Y136811D02*
D03*
X91911D02*
D03*
X254921Y94488D02*
D03*
X76772Y104331D02*
D03*
X61024Y103347D02*
D03*
X343504Y358268D02*
D03*
X295276Y356299D02*
D03*
X6000Y22638D02*
D03*
Y14764D02*
D03*
X61024Y7874D02*
D03*
X127953Y22145D02*
D03*
Y30709D02*
D03*
X344488Y8858D02*
D03*
X60039Y356100D02*
D03*
X76772Y190945D02*
D03*
X40400Y117800D02*
D03*
X123000Y117300D02*
D03*
X172244Y88582D02*
D03*
X157300Y102500D02*
D03*
X173800Y102700D02*
D03*
X165600Y102300D02*
D03*
X155900Y91700D02*
D03*
X163535Y91535D02*
D03*
X233900Y103600D02*
D03*
X165900Y40900D02*
D03*
X249200Y7400D02*
D03*
X354600Y41300D02*
D03*
X123500Y8858D02*
D03*
X89200Y247300D02*
D03*
X194300Y237300D02*
D03*
X347400Y229400D02*
D03*
X354900Y229300D02*
D03*
X201900Y46600D02*
D03*
X216300D02*
D03*
X209100D02*
D03*
X6000Y40100D02*
D03*
X9350Y133739D02*
D03*
X32480Y144685D02*
D03*
X10000Y245200D02*
D03*
X42100Y305200D02*
D03*
X205800Y324600D02*
D03*
X254400Y322900D02*
D03*
X240400Y333000D02*
D03*
X229900Y334300D02*
D03*
X221600Y335400D02*
D03*
X160433Y326772D02*
D03*
X77300Y356100D02*
D03*
X86700D02*
D03*
X95800Y322800D02*
D03*
Y315200D02*
D03*
X5500Y324000D02*
D03*
X83661Y341535D02*
D03*
X75787D02*
D03*
X83661Y334646D02*
D03*
X125400Y354000D02*
D03*
X186900Y324000D02*
D03*
X128000Y266200D02*
D03*
X181500Y158700D02*
D03*
X177600Y153800D02*
D03*
X138900Y154500D02*
D03*
X78500Y124300D02*
D03*
Y116800D02*
D03*
X91500Y100400D02*
D03*
X137500Y60400D02*
D03*
X213700Y90000D02*
D03*
X187200Y136100D02*
D03*
X192300Y132700D02*
D03*
X335000Y142500D02*
D03*
X355100Y135000D02*
D03*
X348400Y137400D02*
D03*
X326600Y125000D02*
D03*
X327000Y119000D02*
D03*
X341400Y91000D02*
D03*
X335400D02*
D03*
X43307Y261811D02*
D03*
X50197Y239173D02*
D03*
X45200Y248400D02*
D03*
X23300Y244600D02*
D03*
X75600Y241000D02*
D03*
X32100Y176000D02*
D03*
X32200Y182700D02*
D03*
X32100Y189100D02*
D03*
X45700Y174400D02*
D03*
X35100Y230500D02*
D03*
X254800Y184100D02*
D03*
X254700Y190700D02*
D03*
X274500Y119600D02*
D03*
X184700Y55100D02*
D03*
X91300Y58400D02*
D03*
X87500Y53200D02*
D03*
X5500Y347400D02*
D03*
X208100Y309800D02*
D03*
X180000Y115400D02*
D03*
X174400Y127000D02*
D03*
X286000Y125100D02*
D03*
X351500Y89900D02*
D03*
X46500Y330300D02*
D03*
X38386Y356100D02*
D03*
X16400Y340300D02*
D03*
X15748Y307845D02*
D03*
X6600Y310700D02*
D03*
X13700Y51200D02*
D03*
X351500Y56400D02*
D03*
X143900Y333200D02*
D03*
X81400Y31800D02*
D03*
X76500Y39000D02*
D03*
X351500Y96700D02*
D03*
X20600Y229900D02*
D03*
X23500Y139300D02*
D03*
X58900Y147800D02*
D03*
X68898Y150591D02*
D03*
X75600Y145900D02*
D03*
X107800Y148700D02*
D03*
X127953Y125984D02*
D03*
X285800Y49000D02*
D03*
X138779Y104331D02*
D03*
X265748Y342520D02*
D03*
X272638Y291339D02*
D03*
X254921Y309055D02*
D03*
X301181Y291339D02*
D03*
X308071D02*
D03*
X232283D02*
D03*
X255906Y280512D02*
D03*
X226378Y276575D02*
D03*
X37402Y272638D02*
D03*
X46260D02*
D03*
X23622Y283465D02*
D03*
X53150D02*
D03*
X60039Y283464D02*
D03*
X73819Y283465D02*
D03*
X109252D02*
D03*
X122047D02*
D03*
X164370D02*
D03*
X193898Y276575D02*
D03*
X207677Y282480D02*
D03*
X31496Y129921D02*
D03*
X17600Y133600D02*
D03*
X91663Y64463D02*
D03*
X265200Y60000D02*
D03*
X213700Y103600D02*
D03*
X195500Y89700D02*
D03*
X227200Y97500D02*
D03*
X223000Y90000D02*
D03*
X109252Y8858D02*
D03*
X154300Y278500D02*
D03*
X269700Y307000D02*
D03*
D20*
X135000Y143500D02*
D03*
X145000D02*
D03*
X155000D02*
D03*
X165000D02*
D03*
X175000D02*
D03*
X185000D02*
D03*
X195000D02*
D03*
X205000D02*
D03*
X215000D02*
D03*
X225000D02*
D03*
X235000D02*
D03*
X245000D02*
D03*
X255000D02*
D03*
X265000D02*
D03*
X275000D02*
D03*
X285000D02*
D03*
X295000D02*
D03*
X305000D02*
D03*
X315000D02*
D03*
X325000D02*
D03*
X135000Y166500D02*
D03*
X145000D02*
D03*
X155000D02*
D03*
X165000D02*
D03*
X175000D02*
D03*
X185000D02*
D03*
X195000D02*
D03*
X205000D02*
D03*
X215000D02*
D03*
X225000D02*
D03*
X235000D02*
D03*
X245000D02*
D03*
X255000D02*
D03*
X265000D02*
D03*
X275000D02*
D03*
X285000D02*
D03*
X295000D02*
D03*
X305000D02*
D03*
X315000D02*
D03*
X325000D02*
D03*
X135000Y203500D02*
D03*
X145000D02*
D03*
X155000D02*
D03*
X165000D02*
D03*
X175000D02*
D03*
X185000D02*
D03*
X195000D02*
D03*
X205000D02*
D03*
X215000D02*
D03*
X225000D02*
D03*
X235000D02*
D03*
X245000D02*
D03*
X255000D02*
D03*
X265000D02*
D03*
X275000D02*
D03*
X285000D02*
D03*
X295000D02*
D03*
X305000D02*
D03*
X315000D02*
D03*
X325000D02*
D03*
X135000Y226500D02*
D03*
X145000D02*
D03*
X155000D02*
D03*
X165000D02*
D03*
X175000D02*
D03*
X185000D02*
D03*
X195000D02*
D03*
X205000D02*
D03*
X215000D02*
D03*
X225000D02*
D03*
X235000D02*
D03*
X245000D02*
D03*
X255000D02*
D03*
X265000D02*
D03*
X275000D02*
D03*
X285000D02*
D03*
X295000D02*
D03*
X305000D02*
D03*
X315000D02*
D03*
X325000D02*
D03*
D21*
X94630Y199492D02*
D03*
X92030D02*
D03*
X89430D02*
D03*
X86930D02*
D03*
X84330D02*
D03*
X81830D02*
D03*
X79230D02*
D03*
X76630D02*
D03*
Y176492D02*
D03*
X79230D02*
D03*
X81830D02*
D03*
X84330D02*
D03*
X86930D02*
D03*
X89430D02*
D03*
X92030D02*
D03*
X94630D02*
D03*
D22*
X206693Y246063D02*
D03*
Y241063D02*
D03*
Y236063D02*
D03*
Y251063D02*
D03*
Y256063D02*
D03*
D23*
X94488Y40354D02*
D03*
X88583D02*
D03*
X74803Y56102D02*
D03*
X80709D02*
D03*
X49213Y130905D02*
D03*
X43307D02*
D03*
X44291Y149606D02*
D03*
X50197D02*
D03*
X50197Y226378D02*
D03*
X44291D02*
D03*
X34449Y244094D02*
D03*
X40354D02*
D03*
X33858Y288386D02*
D03*
X39764D02*
D03*
X33465Y326772D02*
D03*
X39370D02*
D03*
X18701Y14764D02*
D03*
X12795D02*
D03*
X18701Y19685D02*
D03*
X12795D02*
D03*
X88583Y46260D02*
D03*
X94488D02*
D03*
X80709Y50197D02*
D03*
X74803D02*
D03*
X50197Y144685D02*
D03*
X44291D02*
D03*
X44291Y231299D02*
D03*
X50197D02*
D03*
X40354Y238583D02*
D03*
X34449D02*
D03*
X39764Y283465D02*
D03*
X33858D02*
D03*
X39370Y321850D02*
D03*
X33465D02*
D03*
X87008Y86811D02*
D03*
X92913D02*
D03*
X36024Y86417D02*
D03*
X41929D02*
D03*
X46063Y48622D02*
D03*
X40157D02*
D03*
X324803Y48228D02*
D03*
X330709D02*
D03*
X291339Y48228D02*
D03*
X297244D02*
D03*
X255906Y50197D02*
D03*
X261811D02*
D03*
X218504Y54331D02*
D03*
X224410D02*
D03*
X125852Y54251D02*
D03*
X131758D02*
D03*
X92913Y93898D02*
D03*
X98819D02*
D03*
X42323Y94291D02*
D03*
X48228D02*
D03*
X40157Y41535D02*
D03*
X34252D02*
D03*
X180118Y46260D02*
D03*
X186024D02*
D03*
X180118Y36417D02*
D03*
X186024D02*
D03*
X335630Y29528D02*
D03*
X341535D02*
D03*
X302165D02*
D03*
X308071D02*
D03*
X266732Y31496D02*
D03*
X272638D02*
D03*
X230315Y40354D02*
D03*
X236221D02*
D03*
X136811Y40354D02*
D03*
X142717D02*
D03*
X103346Y29528D02*
D03*
X109252D02*
D03*
X53150D02*
D03*
X59055D02*
D03*
X29528Y29528D02*
D03*
X23622D02*
D03*
X335630Y76772D02*
D03*
X341535D02*
D03*
X302165D02*
D03*
X308071D02*
D03*
X266732D02*
D03*
X272638D02*
D03*
X230315Y76772D02*
D03*
X236221D02*
D03*
X136811Y76772D02*
D03*
X142717D02*
D03*
X103347D02*
D03*
X109252D02*
D03*
X53150D02*
D03*
X59055D02*
D03*
X29528Y76772D02*
D03*
X23622D02*
D03*
X335630Y105315D02*
D03*
X341535D02*
D03*
X302165Y124016D02*
D03*
X308071D02*
D03*
X266732Y130905D02*
D03*
X272638D02*
D03*
X230315Y124016D02*
D03*
X236221D02*
D03*
X136811Y124016D02*
D03*
X142717D02*
D03*
X103347D02*
D03*
X109252D02*
D03*
X53150D02*
D03*
X59055D02*
D03*
X29528Y105315D02*
D03*
X23622D02*
D03*
X335630Y124016D02*
D03*
X341535D02*
D03*
X302165Y180118D02*
D03*
X308071D02*
D03*
X266732D02*
D03*
X272638D02*
D03*
X230315Y180118D02*
D03*
X236221D02*
D03*
X136811Y180118D02*
D03*
X142717D02*
D03*
X103346D02*
D03*
X109252D02*
D03*
X53150D02*
D03*
X59055D02*
D03*
X29528Y124016D02*
D03*
X23622D02*
D03*
X335630Y238189D02*
D03*
X341535D02*
D03*
X302165Y195866D02*
D03*
X308071D02*
D03*
X266732D02*
D03*
X272638D02*
D03*
X230315Y195866D02*
D03*
X236221D02*
D03*
X136647Y191900D02*
D03*
X142553D02*
D03*
X103346Y195866D02*
D03*
X109252D02*
D03*
X53150D02*
D03*
X59055D02*
D03*
X29528Y238189D02*
D03*
X23622D02*
D03*
X335630Y265748D02*
D03*
X341535D02*
D03*
X302165D02*
D03*
X308071D02*
D03*
X266732D02*
D03*
X272638D02*
D03*
X230315Y265748D02*
D03*
X236221D02*
D03*
X136811Y265748D02*
D03*
X142717D02*
D03*
X103346D02*
D03*
X109252D02*
D03*
X53150D02*
D03*
X59055D02*
D03*
X29528Y265748D02*
D03*
X23622D02*
D03*
X335630Y312992D02*
D03*
X341535D02*
D03*
X302165D02*
D03*
X308071D02*
D03*
X266732Y320866D02*
D03*
X272638D02*
D03*
X230315Y312992D02*
D03*
X236221D02*
D03*
X136811Y312992D02*
D03*
X142717D02*
D03*
X103346D02*
D03*
X109252D02*
D03*
X53150D02*
D03*
X59055D02*
D03*
X29528Y312992D02*
D03*
X23622D02*
D03*
X335630Y334646D02*
D03*
X341535D02*
D03*
X302165D02*
D03*
X308071D02*
D03*
X266732D02*
D03*
X272638D02*
D03*
X230315Y325787D02*
D03*
X236221D02*
D03*
X136811Y325787D02*
D03*
X142717D02*
D03*
X103346Y334646D02*
D03*
X109252D02*
D03*
X53150D02*
D03*
X59055D02*
D03*
X29528Y334646D02*
D03*
X23622D02*
D03*
X347441Y29528D02*
D03*
X353346D02*
D03*
X313976Y33465D02*
D03*
X319882D02*
D03*
X278543Y35433D02*
D03*
X284449D02*
D03*
X242126Y40354D02*
D03*
X248031D02*
D03*
X147638Y40354D02*
D03*
X153543D02*
D03*
X114173Y29528D02*
D03*
X120079D02*
D03*
X63976D02*
D03*
X69882D02*
D03*
X18701Y29528D02*
D03*
X12795D02*
D03*
X347441Y76772D02*
D03*
X353346D02*
D03*
X313976D02*
D03*
X319882D02*
D03*
X278543D02*
D03*
X284449D02*
D03*
X242126Y76772D02*
D03*
X248031D02*
D03*
X147638Y76772D02*
D03*
X153543D02*
D03*
X114173Y76772D02*
D03*
X120079D02*
D03*
X63976Y76772D02*
D03*
X69882D02*
D03*
X18701Y76772D02*
D03*
X12795D02*
D03*
X347441Y105315D02*
D03*
X353346D02*
D03*
X313976Y132874D02*
D03*
X319882D02*
D03*
X278543Y130905D02*
D03*
X284449D02*
D03*
X242126Y130905D02*
D03*
X248031D02*
D03*
X147638Y130905D02*
D03*
X153543D02*
D03*
X114173Y130905D02*
D03*
X120079D02*
D03*
X63976Y124016D02*
D03*
X69882D02*
D03*
X18701Y105315D02*
D03*
X12795D02*
D03*
X347441Y124016D02*
D03*
X353346D02*
D03*
X313976Y180118D02*
D03*
X319882D02*
D03*
X278543D02*
D03*
X284449D02*
D03*
X242126Y180118D02*
D03*
X248031D02*
D03*
X147638Y180118D02*
D03*
X153543D02*
D03*
X114173Y180118D02*
D03*
X120079D02*
D03*
X63976D02*
D03*
X69882D02*
D03*
X18701Y124016D02*
D03*
X12795D02*
D03*
X347441Y238189D02*
D03*
X353346D02*
D03*
X313976Y195866D02*
D03*
X319882D02*
D03*
X278543D02*
D03*
X284449D02*
D03*
X242126Y195866D02*
D03*
X248031D02*
D03*
X147747Y192400D02*
D03*
X153653D02*
D03*
X114173Y195866D02*
D03*
X120079D02*
D03*
X63976D02*
D03*
X69882D02*
D03*
X18701Y238189D02*
D03*
X12795D02*
D03*
X347441Y265748D02*
D03*
X353346D02*
D03*
X313976D02*
D03*
X319882D02*
D03*
X278543D02*
D03*
X284449D02*
D03*
X242126Y265748D02*
D03*
X248031D02*
D03*
X147638Y265748D02*
D03*
X153543D02*
D03*
X114173Y265748D02*
D03*
X120079D02*
D03*
X63976D02*
D03*
X69882D02*
D03*
X18701Y265748D02*
D03*
X12795D02*
D03*
X347441Y312992D02*
D03*
X353346D02*
D03*
X313976D02*
D03*
X319882D02*
D03*
X278543Y320866D02*
D03*
X284449D02*
D03*
X242126Y312992D02*
D03*
X248031D02*
D03*
X147638Y312992D02*
D03*
X153543D02*
D03*
X114173Y312992D02*
D03*
X120079D02*
D03*
X63976D02*
D03*
X69882D02*
D03*
X18701Y312992D02*
D03*
X12795D02*
D03*
X347441Y334646D02*
D03*
X353346D02*
D03*
X313976D02*
D03*
X319882D02*
D03*
X278543Y334646D02*
D03*
X284449D02*
D03*
X242126Y325787D02*
D03*
X248031D02*
D03*
X147638Y325787D02*
D03*
X153543D02*
D03*
X114173Y334646D02*
D03*
X120079D02*
D03*
X63976D02*
D03*
X69882D02*
D03*
X18701Y334646D02*
D03*
X12795D02*
D03*
D24*
X37402Y130905D02*
D03*
Y125000D02*
D03*
X324803Y58071D02*
D03*
Y52165D02*
D03*
X291339Y58071D02*
D03*
Y52165D02*
D03*
X255906Y60039D02*
D03*
Y54134D02*
D03*
X218504Y64961D02*
D03*
Y59055D02*
D03*
X125852Y64685D02*
D03*
Y58779D02*
D03*
D25*
X91142Y24606D02*
D03*
X93701Y32480D02*
D03*
X88583D02*
D03*
X77756Y70866D02*
D03*
X75197Y62992D02*
D03*
X80315D02*
D03*
X46260Y116142D02*
D03*
X48819Y124016D02*
D03*
X43701D02*
D03*
X47638Y164370D02*
D03*
X45079Y156496D02*
D03*
X50197D02*
D03*
X47244Y211614D02*
D03*
X49803Y219488D02*
D03*
X44685D02*
D03*
X37402Y258661D02*
D03*
X34843Y250787D02*
D03*
X39961D02*
D03*
X36417Y304134D02*
D03*
X33858Y296260D02*
D03*
X38976D02*
D03*
X36417Y342520D02*
D03*
X33858Y334646D02*
D03*
X38976D02*
D03*
D26*
X346653Y44291D02*
D03*
X336417Y48031D02*
D03*
Y40551D02*
D03*
X313189Y44291D02*
D03*
X302953Y48031D02*
D03*
Y40551D02*
D03*
X277756Y46260D02*
D03*
X267520Y50000D02*
D03*
Y42520D02*
D03*
X240354Y51181D02*
D03*
X230118Y54921D02*
D03*
Y47441D02*
D03*
X146850Y51181D02*
D03*
X136614Y54921D02*
D03*
Y47441D02*
D03*
X113878Y90486D02*
D03*
X103642Y94226D02*
D03*
Y86746D02*
D03*
X63976Y90551D02*
D03*
X53740Y94291D02*
D03*
Y86811D02*
D03*
X18701Y45276D02*
D03*
X28937Y41536D02*
D03*
Y49016D02*
D03*
D27*
X180429Y100535D02*
D03*
Y97935D02*
D03*
Y95335D02*
D03*
Y92835D02*
D03*
Y90235D02*
D03*
Y87735D02*
D03*
Y85135D02*
D03*
Y82535D02*
D03*
X203429D02*
D03*
Y85135D02*
D03*
Y87735D02*
D03*
Y90235D02*
D03*
Y92835D02*
D03*
Y95335D02*
D03*
Y97935D02*
D03*
Y100535D02*
D03*
D28*
X206693Y274606D02*
D03*
X196851Y287283D02*
D03*
X216575D02*
D03*
D29*
X189724Y352756D02*
D03*
X199724D02*
D03*
X209724D02*
D03*
X219724D02*
D03*
X146417D02*
D03*
X156417D02*
D03*
X166417D02*
D03*
X176417D02*
D03*
X189724Y13386D02*
D03*
X199724D02*
D03*
X209724D02*
D03*
X219724D02*
D03*
X146417D02*
D03*
X156417D02*
D03*
X166417D02*
D03*
X176417D02*
D03*
D30*
X13386Y176417D02*
D03*
Y166417D02*
D03*
Y156417D02*
D03*
Y146417D02*
D03*
Y219724D02*
D03*
Y209724D02*
D03*
Y199724D02*
D03*
Y189724D02*
D03*
X352756Y176417D02*
D03*
Y166417D02*
D03*
Y156417D02*
D03*
Y146417D02*
D03*
Y219724D02*
D03*
Y209724D02*
D03*
Y199724D02*
D03*
Y189724D02*
D03*
D31*
X146968Y35400D02*
D03*
X143032D02*
D03*
X337531Y226900D02*
D03*
X341469D02*
D03*
X16769Y139300D02*
D03*
X12832D02*
D03*
D32*
X137900Y340831D02*
D03*
Y344769D02*
D03*
M02*
