G04 Layer_Color=128*
%FSLAX25Y25*%
%MOIN*%
G70*
G01*
G75*
%ADD20R,0.04100X0.06300*%
%ADD21R,0.01400X0.05800*%
%ADD22R,0.09843X0.02992*%
%ADD23R,0.02756X0.03543*%
%ADD24R,0.03543X0.02756*%
%ADD25R,0.02165X0.04528*%
%ADD26R,0.04528X0.02362*%
%ADD27R,0.05800X0.01400*%
%ADD28R,0.03937X0.07874*%
%ADD29R,0.07000X0.24000*%
%ADD30R,0.24000X0.07000*%
%ADD31R,0.02362X0.01969*%
%ADD32R,0.01969X0.02362*%
D20*
X135000Y143500D02*
D03*
X145000D02*
D03*
X155000D02*
D03*
X165000D02*
D03*
X175000D02*
D03*
X185000D02*
D03*
X195000D02*
D03*
X205000D02*
D03*
X215000D02*
D03*
X225000D02*
D03*
X235000D02*
D03*
X245000D02*
D03*
X255000D02*
D03*
X265000D02*
D03*
X275000D02*
D03*
X285000D02*
D03*
X295000D02*
D03*
X305000D02*
D03*
X315000D02*
D03*
X325000D02*
D03*
X135000Y166500D02*
D03*
X145000D02*
D03*
X155000D02*
D03*
X165000D02*
D03*
X175000D02*
D03*
X185000D02*
D03*
X195000D02*
D03*
X205000D02*
D03*
X215000D02*
D03*
X225000D02*
D03*
X235000D02*
D03*
X245000D02*
D03*
X255000D02*
D03*
X265000D02*
D03*
X275000D02*
D03*
X285000D02*
D03*
X295000D02*
D03*
X305000D02*
D03*
X315000D02*
D03*
X325000D02*
D03*
X135000Y203500D02*
D03*
X145000D02*
D03*
X155000D02*
D03*
X165000D02*
D03*
X175000D02*
D03*
X185000D02*
D03*
X195000D02*
D03*
X205000D02*
D03*
X215000D02*
D03*
X225000D02*
D03*
X235000D02*
D03*
X245000D02*
D03*
X255000D02*
D03*
X265000D02*
D03*
X275000D02*
D03*
X285000D02*
D03*
X295000D02*
D03*
X305000D02*
D03*
X315000D02*
D03*
X325000D02*
D03*
X135000Y226500D02*
D03*
X145000D02*
D03*
X155000D02*
D03*
X165000D02*
D03*
X175000D02*
D03*
X185000D02*
D03*
X195000D02*
D03*
X205000D02*
D03*
X215000D02*
D03*
X225000D02*
D03*
X235000D02*
D03*
X245000D02*
D03*
X255000D02*
D03*
X265000D02*
D03*
X275000D02*
D03*
X285000D02*
D03*
X295000D02*
D03*
X305000D02*
D03*
X315000D02*
D03*
X325000D02*
D03*
D21*
X94630Y199492D02*
D03*
X92030D02*
D03*
X89430D02*
D03*
X86930D02*
D03*
X84330D02*
D03*
X81830D02*
D03*
X79230D02*
D03*
X76630D02*
D03*
Y176492D02*
D03*
X79230D02*
D03*
X81830D02*
D03*
X84330D02*
D03*
X86930D02*
D03*
X89430D02*
D03*
X92030D02*
D03*
X94630D02*
D03*
D22*
X206693Y246063D02*
D03*
Y241063D02*
D03*
Y236063D02*
D03*
Y251063D02*
D03*
Y256063D02*
D03*
D23*
X94488Y40354D02*
D03*
X88583D02*
D03*
X74803Y56102D02*
D03*
X80709D02*
D03*
X49213Y130905D02*
D03*
X43307D02*
D03*
X44291Y149606D02*
D03*
X50197D02*
D03*
X50197Y226378D02*
D03*
X44291D02*
D03*
X34449Y244094D02*
D03*
X40354D02*
D03*
X33858Y288386D02*
D03*
X39764D02*
D03*
X33465Y326772D02*
D03*
X39370D02*
D03*
X18701Y14764D02*
D03*
X12795D02*
D03*
X18701Y19685D02*
D03*
X12795D02*
D03*
X88583Y46260D02*
D03*
X94488D02*
D03*
X80709Y50197D02*
D03*
X74803D02*
D03*
X50197Y144685D02*
D03*
X44291D02*
D03*
X44291Y231299D02*
D03*
X50197D02*
D03*
X40354Y238583D02*
D03*
X34449D02*
D03*
X39764Y283465D02*
D03*
X33858D02*
D03*
X39370Y321850D02*
D03*
X33465D02*
D03*
X87008Y86811D02*
D03*
X92913D02*
D03*
X36024Y86417D02*
D03*
X41929D02*
D03*
X46063Y48622D02*
D03*
X40157D02*
D03*
X324803Y48228D02*
D03*
X330709D02*
D03*
X291339Y48228D02*
D03*
X297244D02*
D03*
X255906Y50197D02*
D03*
X261811D02*
D03*
X218504Y54331D02*
D03*
X224410D02*
D03*
X125852Y54251D02*
D03*
X131758D02*
D03*
X92913Y93898D02*
D03*
X98819D02*
D03*
X42323Y94291D02*
D03*
X48228D02*
D03*
X40157Y41535D02*
D03*
X34252D02*
D03*
X180118Y46260D02*
D03*
X186024D02*
D03*
X180118Y36417D02*
D03*
X186024D02*
D03*
X335630Y29528D02*
D03*
X341535D02*
D03*
X302165D02*
D03*
X308071D02*
D03*
X266732Y31496D02*
D03*
X272638D02*
D03*
X230315Y40354D02*
D03*
X236221D02*
D03*
X136811Y40354D02*
D03*
X142717D02*
D03*
X103346Y29528D02*
D03*
X109252D02*
D03*
X53150D02*
D03*
X59055D02*
D03*
X29528Y29528D02*
D03*
X23622D02*
D03*
X335630Y76772D02*
D03*
X341535D02*
D03*
X302165D02*
D03*
X308071D02*
D03*
X266732D02*
D03*
X272638D02*
D03*
X230315Y76772D02*
D03*
X236221D02*
D03*
X136811Y76772D02*
D03*
X142717D02*
D03*
X103347D02*
D03*
X109252D02*
D03*
X53150D02*
D03*
X59055D02*
D03*
X29528Y76772D02*
D03*
X23622D02*
D03*
X335630Y105315D02*
D03*
X341535D02*
D03*
X302165Y124016D02*
D03*
X308071D02*
D03*
X266732Y130905D02*
D03*
X272638D02*
D03*
X230315Y124016D02*
D03*
X236221D02*
D03*
X136811Y124016D02*
D03*
X142717D02*
D03*
X103347D02*
D03*
X109252D02*
D03*
X53150D02*
D03*
X59055D02*
D03*
X29528Y105315D02*
D03*
X23622D02*
D03*
X335630Y124016D02*
D03*
X341535D02*
D03*
X302165Y180118D02*
D03*
X308071D02*
D03*
X266732D02*
D03*
X272638D02*
D03*
X230315Y180118D02*
D03*
X236221D02*
D03*
X136811Y180118D02*
D03*
X142717D02*
D03*
X103346D02*
D03*
X109252D02*
D03*
X53150D02*
D03*
X59055D02*
D03*
X29528Y124016D02*
D03*
X23622D02*
D03*
X335630Y238189D02*
D03*
X341535D02*
D03*
X302165Y195866D02*
D03*
X308071D02*
D03*
X266732D02*
D03*
X272638D02*
D03*
X230315Y195866D02*
D03*
X236221D02*
D03*
X136647Y191900D02*
D03*
X142553D02*
D03*
X103346Y195866D02*
D03*
X109252D02*
D03*
X53150D02*
D03*
X59055D02*
D03*
X29528Y238189D02*
D03*
X23622D02*
D03*
X335630Y265748D02*
D03*
X341535D02*
D03*
X302165D02*
D03*
X308071D02*
D03*
X266732D02*
D03*
X272638D02*
D03*
X230315Y265748D02*
D03*
X236221D02*
D03*
X136811Y265748D02*
D03*
X142717D02*
D03*
X103346D02*
D03*
X109252D02*
D03*
X53150D02*
D03*
X59055D02*
D03*
X29528Y265748D02*
D03*
X23622D02*
D03*
X335630Y312992D02*
D03*
X341535D02*
D03*
X302165D02*
D03*
X308071D02*
D03*
X266732Y320866D02*
D03*
X272638D02*
D03*
X230315Y312992D02*
D03*
X236221D02*
D03*
X136811Y312992D02*
D03*
X142717D02*
D03*
X103346D02*
D03*
X109252D02*
D03*
X53150D02*
D03*
X59055D02*
D03*
X29528Y312992D02*
D03*
X23622D02*
D03*
X335630Y334646D02*
D03*
X341535D02*
D03*
X302165D02*
D03*
X308071D02*
D03*
X266732D02*
D03*
X272638D02*
D03*
X230315Y325787D02*
D03*
X236221D02*
D03*
X136811Y325787D02*
D03*
X142717D02*
D03*
X103346Y334646D02*
D03*
X109252D02*
D03*
X53150D02*
D03*
X59055D02*
D03*
X29528Y334646D02*
D03*
X23622D02*
D03*
X347441Y29528D02*
D03*
X353346D02*
D03*
X313976Y33465D02*
D03*
X319882D02*
D03*
X278543Y35433D02*
D03*
X284449D02*
D03*
X242126Y40354D02*
D03*
X248031D02*
D03*
X147638Y40354D02*
D03*
X153543D02*
D03*
X114173Y29528D02*
D03*
X120079D02*
D03*
X63976D02*
D03*
X69882D02*
D03*
X18701Y29528D02*
D03*
X12795D02*
D03*
X347441Y76772D02*
D03*
X353346D02*
D03*
X313976D02*
D03*
X319882D02*
D03*
X278543D02*
D03*
X284449D02*
D03*
X242126Y76772D02*
D03*
X248031D02*
D03*
X147638Y76772D02*
D03*
X153543D02*
D03*
X114173Y76772D02*
D03*
X120079D02*
D03*
X63976Y76772D02*
D03*
X69882D02*
D03*
X18701Y76772D02*
D03*
X12795D02*
D03*
X347441Y105315D02*
D03*
X353346D02*
D03*
X313976Y132874D02*
D03*
X319882D02*
D03*
X278543Y130905D02*
D03*
X284449D02*
D03*
X242126Y130905D02*
D03*
X248031D02*
D03*
X147638Y130905D02*
D03*
X153543D02*
D03*
X114173Y130905D02*
D03*
X120079D02*
D03*
X63976Y124016D02*
D03*
X69882D02*
D03*
X18701Y105315D02*
D03*
X12795D02*
D03*
X347441Y124016D02*
D03*
X353346D02*
D03*
X313976Y180118D02*
D03*
X319882D02*
D03*
X278543D02*
D03*
X284449D02*
D03*
X242126Y180118D02*
D03*
X248031D02*
D03*
X147638Y180118D02*
D03*
X153543D02*
D03*
X114173Y180118D02*
D03*
X120079D02*
D03*
X63976D02*
D03*
X69882D02*
D03*
X18701Y124016D02*
D03*
X12795D02*
D03*
X347441Y238189D02*
D03*
X353346D02*
D03*
X313976Y195866D02*
D03*
X319882D02*
D03*
X278543D02*
D03*
X284449D02*
D03*
X242126Y195866D02*
D03*
X248031D02*
D03*
X147747Y192400D02*
D03*
X153653D02*
D03*
X114173Y195866D02*
D03*
X120079D02*
D03*
X63976D02*
D03*
X69882D02*
D03*
X18701Y238189D02*
D03*
X12795D02*
D03*
X347441Y265748D02*
D03*
X353346D02*
D03*
X313976D02*
D03*
X319882D02*
D03*
X278543D02*
D03*
X284449D02*
D03*
X242126Y265748D02*
D03*
X248031D02*
D03*
X147638Y265748D02*
D03*
X153543D02*
D03*
X114173Y265748D02*
D03*
X120079D02*
D03*
X63976D02*
D03*
X69882D02*
D03*
X18701Y265748D02*
D03*
X12795D02*
D03*
X347441Y312992D02*
D03*
X353346D02*
D03*
X313976D02*
D03*
X319882D02*
D03*
X278543Y320866D02*
D03*
X284449D02*
D03*
X242126Y312992D02*
D03*
X248031D02*
D03*
X147638Y312992D02*
D03*
X153543D02*
D03*
X114173Y312992D02*
D03*
X120079D02*
D03*
X63976D02*
D03*
X69882D02*
D03*
X18701Y312992D02*
D03*
X12795D02*
D03*
X347441Y334646D02*
D03*
X353346D02*
D03*
X313976D02*
D03*
X319882D02*
D03*
X278543Y334646D02*
D03*
X284449D02*
D03*
X242126Y325787D02*
D03*
X248031D02*
D03*
X147638Y325787D02*
D03*
X153543D02*
D03*
X114173Y334646D02*
D03*
X120079D02*
D03*
X63976D02*
D03*
X69882D02*
D03*
X18701Y334646D02*
D03*
X12795D02*
D03*
D24*
X37402Y130905D02*
D03*
Y125000D02*
D03*
X324803Y58071D02*
D03*
Y52165D02*
D03*
X291339Y58071D02*
D03*
Y52165D02*
D03*
X255906Y60039D02*
D03*
Y54134D02*
D03*
X218504Y64961D02*
D03*
Y59055D02*
D03*
X125852Y64685D02*
D03*
Y58779D02*
D03*
D25*
X91142Y24606D02*
D03*
X93701Y32480D02*
D03*
X88583D02*
D03*
X77756Y70866D02*
D03*
X75197Y62992D02*
D03*
X80315D02*
D03*
X46260Y116142D02*
D03*
X48819Y124016D02*
D03*
X43701D02*
D03*
X47638Y164370D02*
D03*
X45079Y156496D02*
D03*
X50197D02*
D03*
X47244Y211614D02*
D03*
X49803Y219488D02*
D03*
X44685D02*
D03*
X37402Y258661D02*
D03*
X34843Y250787D02*
D03*
X39961D02*
D03*
X36417Y304134D02*
D03*
X33858Y296260D02*
D03*
X38976D02*
D03*
X36417Y342520D02*
D03*
X33858Y334646D02*
D03*
X38976D02*
D03*
D26*
X346653Y44291D02*
D03*
X336417Y48031D02*
D03*
Y40551D02*
D03*
X313189Y44291D02*
D03*
X302953Y48031D02*
D03*
Y40551D02*
D03*
X277756Y46260D02*
D03*
X267520Y50000D02*
D03*
Y42520D02*
D03*
X240354Y51181D02*
D03*
X230118Y54921D02*
D03*
Y47441D02*
D03*
X146850Y51181D02*
D03*
X136614Y54921D02*
D03*
Y47441D02*
D03*
X113878Y90486D02*
D03*
X103642Y94226D02*
D03*
Y86746D02*
D03*
X63976Y90551D02*
D03*
X53740Y94291D02*
D03*
Y86811D02*
D03*
X18701Y45276D02*
D03*
X28937Y41536D02*
D03*
Y49016D02*
D03*
D27*
X180429Y100535D02*
D03*
Y97935D02*
D03*
Y95335D02*
D03*
Y92835D02*
D03*
Y90235D02*
D03*
Y87735D02*
D03*
Y85135D02*
D03*
Y82535D02*
D03*
X203429D02*
D03*
Y85135D02*
D03*
Y87735D02*
D03*
Y90235D02*
D03*
Y92835D02*
D03*
Y95335D02*
D03*
Y97935D02*
D03*
Y100535D02*
D03*
D28*
X206693Y274606D02*
D03*
X196851Y287283D02*
D03*
X216575D02*
D03*
D29*
X189724Y352756D02*
D03*
X199724D02*
D03*
X209724D02*
D03*
X219724D02*
D03*
X146417D02*
D03*
X156417D02*
D03*
X166417D02*
D03*
X176417D02*
D03*
X189724Y13386D02*
D03*
X199724D02*
D03*
X209724D02*
D03*
X219724D02*
D03*
X146417D02*
D03*
X156417D02*
D03*
X166417D02*
D03*
X176417D02*
D03*
D30*
X13386Y176417D02*
D03*
Y166417D02*
D03*
Y156417D02*
D03*
Y146417D02*
D03*
Y219724D02*
D03*
Y209724D02*
D03*
Y199724D02*
D03*
Y189724D02*
D03*
X352756Y176417D02*
D03*
Y166417D02*
D03*
Y156417D02*
D03*
Y146417D02*
D03*
Y219724D02*
D03*
Y209724D02*
D03*
Y199724D02*
D03*
Y189724D02*
D03*
D31*
X146968Y35400D02*
D03*
X143032D02*
D03*
X337531Y226900D02*
D03*
X341469D02*
D03*
X16769Y139300D02*
D03*
X12832D02*
D03*
D32*
X137900Y340831D02*
D03*
Y344769D02*
D03*
M02*
