G04 Layer_Physical_Order=1*
G04 Layer_Color=255*
%FSLAX25Y25*%
%MOIN*%
G70*
G01*
G75*
%ADD10R,0.03740X0.01575*%
%ADD11R,0.03937X0.06299*%
%ADD12R,0.02953X0.05315*%
%ADD13C,0.01000*%
%ADD14C,0.00600*%
%ADD15C,0.05000*%
D10*
X302756Y203740D02*
D03*
Y206693D02*
D03*
Y209646D02*
D03*
X295670D02*
D03*
Y206693D02*
D03*
Y203740D02*
D03*
X210236Y14763D02*
D03*
Y17717D02*
D03*
Y20670D02*
D03*
X203150D02*
D03*
Y17717D02*
D03*
Y14763D02*
D03*
X162992D02*
D03*
Y17717D02*
D03*
Y20670D02*
D03*
X155906D02*
D03*
Y17717D02*
D03*
Y14763D02*
D03*
X68504D02*
D03*
Y17717D02*
D03*
Y20670D02*
D03*
X61418D02*
D03*
Y17717D02*
D03*
Y14763D02*
D03*
X21260D02*
D03*
Y17717D02*
D03*
Y20670D02*
D03*
X14174D02*
D03*
Y17717D02*
D03*
Y14763D02*
D03*
X344882Y67914D02*
D03*
Y64961D02*
D03*
Y62008D02*
D03*
X351968D02*
D03*
Y64961D02*
D03*
Y67914D02*
D03*
X295670D02*
D03*
Y64961D02*
D03*
Y62008D02*
D03*
X302756D02*
D03*
Y64961D02*
D03*
Y67914D02*
D03*
X250394Y67914D02*
D03*
Y64961D02*
D03*
Y62008D02*
D03*
X257480D02*
D03*
Y64961D02*
D03*
Y67914D02*
D03*
X203150Y67914D02*
D03*
Y64961D02*
D03*
Y62008D02*
D03*
X210236D02*
D03*
Y64961D02*
D03*
Y67914D02*
D03*
X155906D02*
D03*
Y64961D02*
D03*
Y62008D02*
D03*
X162992D02*
D03*
Y64961D02*
D03*
Y67914D02*
D03*
X108662D02*
D03*
Y64961D02*
D03*
Y62008D02*
D03*
X115748D02*
D03*
Y64961D02*
D03*
Y67914D02*
D03*
X61418D02*
D03*
Y64961D02*
D03*
Y62008D02*
D03*
X68504D02*
D03*
Y64961D02*
D03*
Y67914D02*
D03*
X14174D02*
D03*
Y64961D02*
D03*
Y62008D02*
D03*
X21260D02*
D03*
Y64961D02*
D03*
Y67914D02*
D03*
X351968Y109252D02*
D03*
Y112205D02*
D03*
Y115158D02*
D03*
X344882D02*
D03*
Y112205D02*
D03*
Y109252D02*
D03*
X302756D02*
D03*
Y112205D02*
D03*
Y115158D02*
D03*
X295670D02*
D03*
Y112205D02*
D03*
Y109252D02*
D03*
X257480Y109252D02*
D03*
Y112205D02*
D03*
Y115158D02*
D03*
X250394D02*
D03*
Y112205D02*
D03*
Y109252D02*
D03*
X210236Y109252D02*
D03*
Y112205D02*
D03*
Y115158D02*
D03*
X203150D02*
D03*
Y112205D02*
D03*
Y109252D02*
D03*
X162992D02*
D03*
Y112205D02*
D03*
Y115158D02*
D03*
X155906D02*
D03*
Y112205D02*
D03*
Y109252D02*
D03*
X115748D02*
D03*
Y112205D02*
D03*
Y115158D02*
D03*
X108662D02*
D03*
Y112205D02*
D03*
Y109252D02*
D03*
X68504D02*
D03*
Y112205D02*
D03*
Y115158D02*
D03*
X61418D02*
D03*
Y112205D02*
D03*
Y109252D02*
D03*
X21260D02*
D03*
Y112205D02*
D03*
Y115158D02*
D03*
X14174D02*
D03*
Y112205D02*
D03*
Y109252D02*
D03*
X344882Y162402D02*
D03*
Y159449D02*
D03*
Y156496D02*
D03*
X351968D02*
D03*
Y159449D02*
D03*
Y162402D02*
D03*
X295670D02*
D03*
Y159449D02*
D03*
Y156496D02*
D03*
X302756D02*
D03*
Y159449D02*
D03*
Y162402D02*
D03*
X250394Y162402D02*
D03*
Y159449D02*
D03*
Y156496D02*
D03*
X257480D02*
D03*
Y159449D02*
D03*
Y162402D02*
D03*
X203150Y162402D02*
D03*
Y159449D02*
D03*
Y156496D02*
D03*
X210236D02*
D03*
Y159449D02*
D03*
Y162402D02*
D03*
X155906D02*
D03*
Y159449D02*
D03*
Y156496D02*
D03*
X162992D02*
D03*
Y159449D02*
D03*
Y162402D02*
D03*
X108662D02*
D03*
Y159449D02*
D03*
Y156496D02*
D03*
X115748D02*
D03*
Y159449D02*
D03*
Y162402D02*
D03*
X61418D02*
D03*
Y159449D02*
D03*
Y156496D02*
D03*
X68504D02*
D03*
Y159449D02*
D03*
Y162402D02*
D03*
X14174D02*
D03*
Y159449D02*
D03*
Y156496D02*
D03*
X21260D02*
D03*
Y159449D02*
D03*
Y162402D02*
D03*
X351968Y203740D02*
D03*
Y206693D02*
D03*
Y209646D02*
D03*
X344882D02*
D03*
Y206693D02*
D03*
Y203740D02*
D03*
X257480Y203740D02*
D03*
Y206693D02*
D03*
Y209646D02*
D03*
X250394D02*
D03*
Y206693D02*
D03*
Y203740D02*
D03*
X210236Y203740D02*
D03*
Y206693D02*
D03*
Y209646D02*
D03*
X203150D02*
D03*
Y206693D02*
D03*
Y203740D02*
D03*
X162992D02*
D03*
Y206693D02*
D03*
Y209646D02*
D03*
X155906D02*
D03*
Y206693D02*
D03*
Y203740D02*
D03*
X115748D02*
D03*
Y206693D02*
D03*
Y209646D02*
D03*
X108662D02*
D03*
Y206693D02*
D03*
Y203740D02*
D03*
X68504D02*
D03*
Y206693D02*
D03*
Y209646D02*
D03*
X61418D02*
D03*
Y206693D02*
D03*
Y203740D02*
D03*
X21260D02*
D03*
Y206693D02*
D03*
Y209646D02*
D03*
X14174D02*
D03*
Y206693D02*
D03*
Y203740D02*
D03*
X344882Y256890D02*
D03*
Y253937D02*
D03*
Y250984D02*
D03*
X351968D02*
D03*
Y253937D02*
D03*
Y256890D02*
D03*
X295670D02*
D03*
Y253937D02*
D03*
Y250984D02*
D03*
X302756D02*
D03*
Y253937D02*
D03*
Y256890D02*
D03*
X250394Y256890D02*
D03*
Y253937D02*
D03*
Y250984D02*
D03*
X257480D02*
D03*
Y253937D02*
D03*
Y256890D02*
D03*
X203150Y256890D02*
D03*
Y253937D02*
D03*
Y250984D02*
D03*
X210236D02*
D03*
Y253937D02*
D03*
Y256890D02*
D03*
X155906D02*
D03*
Y253937D02*
D03*
Y250984D02*
D03*
X162992D02*
D03*
Y253937D02*
D03*
Y256890D02*
D03*
X108662D02*
D03*
Y253937D02*
D03*
Y250984D02*
D03*
X115748D02*
D03*
Y253937D02*
D03*
Y256890D02*
D03*
X61418D02*
D03*
Y253937D02*
D03*
Y250984D02*
D03*
X68504D02*
D03*
Y253937D02*
D03*
Y256890D02*
D03*
X14174D02*
D03*
Y253937D02*
D03*
Y250984D02*
D03*
X21260D02*
D03*
Y253937D02*
D03*
Y256890D02*
D03*
X351968Y298228D02*
D03*
Y301181D02*
D03*
Y304134D02*
D03*
X344882D02*
D03*
Y301181D02*
D03*
Y298228D02*
D03*
X302756D02*
D03*
Y301181D02*
D03*
Y304134D02*
D03*
X295670D02*
D03*
Y301181D02*
D03*
Y298228D02*
D03*
X257480Y298228D02*
D03*
Y301181D02*
D03*
Y304134D02*
D03*
X250394D02*
D03*
Y301181D02*
D03*
Y298228D02*
D03*
X210236Y298228D02*
D03*
Y301181D02*
D03*
Y304134D02*
D03*
X203150D02*
D03*
Y301181D02*
D03*
Y298228D02*
D03*
X162992D02*
D03*
Y301181D02*
D03*
Y304134D02*
D03*
X155906D02*
D03*
Y301181D02*
D03*
Y298228D02*
D03*
X21260D02*
D03*
Y301181D02*
D03*
Y304134D02*
D03*
X14174D02*
D03*
Y301181D02*
D03*
Y298228D02*
D03*
X344882Y351378D02*
D03*
Y348425D02*
D03*
Y345472D02*
D03*
X351968D02*
D03*
Y348425D02*
D03*
Y351378D02*
D03*
X295670Y349410D02*
D03*
Y346457D02*
D03*
Y343504D02*
D03*
X302756D02*
D03*
Y346457D02*
D03*
Y349410D02*
D03*
X250394Y349410D02*
D03*
Y346457D02*
D03*
Y343504D02*
D03*
X257480D02*
D03*
Y346457D02*
D03*
Y349410D02*
D03*
X203150Y349410D02*
D03*
Y346457D02*
D03*
Y343504D02*
D03*
X210236D02*
D03*
Y346457D02*
D03*
Y349410D02*
D03*
X155906D02*
D03*
Y346457D02*
D03*
Y343504D02*
D03*
X162992D02*
D03*
Y346457D02*
D03*
Y349410D02*
D03*
X108662D02*
D03*
Y346457D02*
D03*
Y343504D02*
D03*
X115748D02*
D03*
Y346457D02*
D03*
Y349410D02*
D03*
X61418D02*
D03*
Y346457D02*
D03*
Y343504D02*
D03*
X68504D02*
D03*
Y346457D02*
D03*
Y349410D02*
D03*
X14174Y351378D02*
D03*
Y348425D02*
D03*
Y345472D02*
D03*
X21260D02*
D03*
Y348425D02*
D03*
Y351378D02*
D03*
X68504Y298228D02*
D03*
Y301181D02*
D03*
Y304134D02*
D03*
X61418D02*
D03*
Y301181D02*
D03*
Y298228D02*
D03*
X115748D02*
D03*
Y301181D02*
D03*
Y304134D02*
D03*
X108662D02*
D03*
Y301181D02*
D03*
Y298228D02*
D03*
X351968Y14763D02*
D03*
Y17717D02*
D03*
Y20670D02*
D03*
X344882D02*
D03*
Y17717D02*
D03*
Y14763D02*
D03*
X257480Y14764D02*
D03*
Y17717D02*
D03*
Y20670D02*
D03*
X250394D02*
D03*
Y17717D02*
D03*
Y14764D02*
D03*
X302756Y14763D02*
D03*
Y17717D02*
D03*
Y20670D02*
D03*
X295670D02*
D03*
Y17717D02*
D03*
Y14763D02*
D03*
X115748D02*
D03*
Y17717D02*
D03*
Y20670D02*
D03*
X108662D02*
D03*
Y17717D02*
D03*
Y14763D02*
D03*
D11*
X294685Y221106D02*
D03*
X305709D02*
D03*
X343898Y31496D02*
D03*
X354921D02*
D03*
X294685D02*
D03*
X305709D02*
D03*
X249410D02*
D03*
X260433D02*
D03*
X202165D02*
D03*
X213189D02*
D03*
X154921D02*
D03*
X165945D02*
D03*
X107677D02*
D03*
X118701D02*
D03*
X60433D02*
D03*
X71457D02*
D03*
X22307D02*
D03*
X11283D02*
D03*
X60433Y80709D02*
D03*
X71457D02*
D03*
X22244D02*
D03*
X11220D02*
D03*
X343898Y125984D02*
D03*
X354921D02*
D03*
X294685D02*
D03*
X305709D02*
D03*
X249410Y125984D02*
D03*
X260433D02*
D03*
X202165Y125984D02*
D03*
X213189D02*
D03*
X154921D02*
D03*
X165945D02*
D03*
X107677Y125984D02*
D03*
X118701D02*
D03*
X60433Y125984D02*
D03*
X71457D02*
D03*
X343898Y175197D02*
D03*
X354921D02*
D03*
X294685D02*
D03*
X305709D02*
D03*
X249410D02*
D03*
X260433D02*
D03*
X202165D02*
D03*
X213189D02*
D03*
X154921D02*
D03*
X165945D02*
D03*
X107677D02*
D03*
X118701D02*
D03*
X60433D02*
D03*
X71457D02*
D03*
X22244D02*
D03*
X11220D02*
D03*
X343898Y221106D02*
D03*
X354921D02*
D03*
X249410Y221106D02*
D03*
X260433D02*
D03*
X202165Y221106D02*
D03*
X213189D02*
D03*
X154921D02*
D03*
X165945D02*
D03*
X107677Y220472D02*
D03*
X118701D02*
D03*
X60433Y221106D02*
D03*
X71457D02*
D03*
X22244Y220472D02*
D03*
X11220D02*
D03*
X343898Y269685D02*
D03*
X354921D02*
D03*
X294685D02*
D03*
X305709D02*
D03*
X249410Y269685D02*
D03*
X260433D02*
D03*
X202165Y269685D02*
D03*
X213189D02*
D03*
X154921D02*
D03*
X165945D02*
D03*
X107677D02*
D03*
X118701D02*
D03*
X60433D02*
D03*
X71457D02*
D03*
X22244D02*
D03*
X11220D02*
D03*
X343898Y315945D02*
D03*
X354921D02*
D03*
X294685D02*
D03*
X305709D02*
D03*
X249410Y315945D02*
D03*
X260433D02*
D03*
X202165Y315945D02*
D03*
X213189D02*
D03*
X154921D02*
D03*
X165945D02*
D03*
X107677D02*
D03*
X118701D02*
D03*
X60433D02*
D03*
X71457D02*
D03*
X22244D02*
D03*
X11220D02*
D03*
X343898Y332677D02*
D03*
X354921D02*
D03*
X294685D02*
D03*
X305709D02*
D03*
X249410D02*
D03*
X260433D02*
D03*
X202165D02*
D03*
X213189D02*
D03*
X154921D02*
D03*
X165945D02*
D03*
X107677D02*
D03*
X118701D02*
D03*
X60433D02*
D03*
X71457D02*
D03*
X22244D02*
D03*
X11220D02*
D03*
X22244Y125984D02*
D03*
X11220D02*
D03*
X107677Y80709D02*
D03*
X118701D02*
D03*
X154921D02*
D03*
X165945D02*
D03*
X202165D02*
D03*
X213189D02*
D03*
X343898D02*
D03*
X354921D02*
D03*
X294685D02*
D03*
X305709D02*
D03*
X249410Y80709D02*
D03*
X260433D02*
D03*
D12*
X192913Y151969D02*
D03*
Y166929D02*
D03*
Y8268D02*
D03*
Y23228D02*
D03*
X98425Y8268D02*
D03*
Y23228D02*
D03*
X51181Y8268D02*
D03*
Y23228D02*
D03*
X31496Y8268D02*
D03*
Y23228D02*
D03*
X240158Y57480D02*
D03*
Y72441D02*
D03*
X192913Y57480D02*
D03*
Y72441D02*
D03*
X145669Y57480D02*
D03*
Y72441D02*
D03*
X98425Y57480D02*
D03*
Y72441D02*
D03*
X51181Y57480D02*
D03*
Y72441D02*
D03*
X31496Y57480D02*
D03*
Y72441D02*
D03*
X334646Y102756D02*
D03*
Y117717D02*
D03*
X285433Y102756D02*
D03*
Y117717D02*
D03*
X240158Y102756D02*
D03*
Y117717D02*
D03*
X192913Y102756D02*
D03*
Y117717D02*
D03*
X145669Y102756D02*
D03*
Y117717D02*
D03*
X98425Y102756D02*
D03*
Y117717D02*
D03*
X51181Y102756D02*
D03*
Y117717D02*
D03*
X31496Y102756D02*
D03*
Y117717D02*
D03*
X334646Y151969D02*
D03*
Y166929D02*
D03*
X285433Y151969D02*
D03*
Y166929D02*
D03*
X240158Y151969D02*
D03*
Y166929D02*
D03*
X98425Y151969D02*
D03*
Y166929D02*
D03*
X51181Y151969D02*
D03*
Y166929D02*
D03*
X334646Y197244D02*
D03*
Y212205D02*
D03*
X285433Y197244D02*
D03*
Y212205D02*
D03*
X240158Y197244D02*
D03*
Y212205D02*
D03*
X192913Y197244D02*
D03*
Y212205D02*
D03*
X333661Y246457D02*
D03*
Y261417D02*
D03*
X284449Y246457D02*
D03*
Y261417D02*
D03*
X239173Y246457D02*
D03*
Y261417D02*
D03*
X191929Y246457D02*
D03*
Y261417D02*
D03*
X97441Y246457D02*
D03*
Y261417D02*
D03*
X31496Y246457D02*
D03*
Y261417D02*
D03*
X333661Y291732D02*
D03*
Y306693D02*
D03*
X284449Y291732D02*
D03*
Y306693D02*
D03*
X239173Y291732D02*
D03*
Y306693D02*
D03*
X191929Y291732D02*
D03*
Y306693D02*
D03*
X144685Y291732D02*
D03*
Y306693D02*
D03*
X97441Y291732D02*
D03*
Y306693D02*
D03*
X50197Y291732D02*
D03*
Y306693D02*
D03*
X31496Y291732D02*
D03*
Y306693D02*
D03*
Y355906D02*
D03*
Y340945D02*
D03*
X51181Y355906D02*
D03*
Y340945D02*
D03*
X98425Y355906D02*
D03*
Y340945D02*
D03*
X145669Y355906D02*
D03*
Y340945D02*
D03*
X192913Y355906D02*
D03*
Y340945D02*
D03*
X240158Y355906D02*
D03*
Y340945D02*
D03*
X285433Y355906D02*
D03*
Y340945D02*
D03*
X334646Y355906D02*
D03*
Y340945D02*
D03*
X50197Y246457D02*
D03*
Y261417D02*
D03*
X144685Y246457D02*
D03*
Y261417D02*
D03*
X145669Y197244D02*
D03*
Y212205D02*
D03*
X51181Y197244D02*
D03*
Y212205D02*
D03*
X31496Y197244D02*
D03*
Y212205D02*
D03*
X98425Y197244D02*
D03*
Y212205D02*
D03*
X145669Y151969D02*
D03*
Y166929D02*
D03*
X31496Y151969D02*
D03*
Y166929D02*
D03*
X285433Y57480D02*
D03*
Y72441D02*
D03*
X334646Y57480D02*
D03*
Y72441D02*
D03*
X240158Y8268D02*
D03*
Y23228D02*
D03*
X285433Y8268D02*
D03*
Y23228D02*
D03*
X334646Y8268D02*
D03*
Y23228D02*
D03*
X145669Y8268D02*
D03*
Y23228D02*
D03*
D13*
X177165Y283465D02*
X192312D01*
X195547Y286700D01*
X30575Y189898D02*
X54071D01*
X247400Y240000D02*
X247899D01*
X250143Y244000D02*
X252443Y241700D01*
X245743Y244000D02*
X250143D01*
X254100Y245700D02*
Y249884D01*
X258100Y244043D02*
Y250364D01*
X226300Y248819D02*
X236811D01*
X253100Y234000D02*
X253300Y234200D01*
X257900Y236000D02*
X261000Y239100D01*
X257157Y236000D02*
X257900D01*
X254957Y238200D02*
X257157Y236000D01*
X251643Y238200D02*
X254957D01*
X166146Y313976D02*
X175197D01*
X177198Y309976D02*
X181072Y306102D01*
X164281Y309976D02*
X177198D01*
X175633Y305118D02*
X176399D01*
X163311Y300862D02*
X203150D01*
X173664Y307087D02*
X175633Y305118D01*
X158858Y307087D02*
X173664D01*
X196100Y323554D02*
Y323700D01*
X308943Y216700D02*
X318600D01*
X319300Y216000D01*
X308243D02*
X308943Y216700D01*
X302024Y216000D02*
X308243D01*
X310100Y212700D02*
X310600D01*
X307046Y209646D02*
X310100Y212700D01*
X295670Y209646D02*
X302024Y216000D01*
X301543Y225756D02*
X336252D01*
X294291Y218504D02*
X301543Y225756D01*
X336252D02*
X343504Y218504D01*
X284924Y246394D02*
X295418Y235900D01*
X284386Y246394D02*
X284924D01*
X295670Y245570D02*
Y250984D01*
X295400Y245300D02*
X295670Y245570D01*
X295319Y253587D02*
X295670Y253937D01*
X257830Y253587D02*
X295319D01*
X293588Y269488D02*
X294488D01*
X285517Y261417D02*
X293588Y269488D01*
X284449Y261417D02*
X285517D01*
X284049Y269400D02*
X287402Y272753D01*
X261558Y269400D02*
X284049D01*
X348300Y294816D02*
Y303000D01*
X334384Y280900D02*
X348300Y294816D01*
X160300Y214400D02*
X162992Y211708D01*
Y209646D02*
Y211708D01*
X254094Y190606D02*
X256057Y188643D01*
X159449Y190945D02*
Y208197D01*
X155906Y209646D02*
X158000D01*
X159449Y208197D01*
X166370Y216100D02*
X173800D01*
X164370Y218100D02*
X166370Y216100D01*
X164370Y218100D02*
Y218504D01*
X115748Y203740D02*
X155906D01*
X169086Y225204D02*
X195071D01*
X168535Y225756D02*
X169086Y225204D01*
X163355Y225756D02*
X168535D01*
X162803Y225204D02*
X163355Y225756D01*
X161228Y225204D02*
X162803D01*
X149606Y213583D02*
X161228Y225204D01*
X133574Y213583D02*
X149606D01*
X169915Y227204D02*
X209219D01*
X169363Y227756D02*
X169915Y227204D01*
X162527Y227756D02*
X169363D01*
X161975Y227204D02*
X162527Y227756D01*
X142067Y227204D02*
X161975D01*
X170743Y229204D02*
X208391D01*
X170192Y229756D02*
X170743Y229204D01*
X161698Y229756D02*
X170192D01*
X161147Y229204D02*
X161698Y229756D01*
X142896Y229204D02*
X161147D01*
X142700Y194275D02*
X145669Y197244D01*
X142700Y194275D02*
X142717Y194258D01*
Y186800D02*
Y194258D01*
X142700Y238600D02*
Y244472D01*
X134700Y237400D02*
X142896Y229204D01*
X132700Y236572D02*
X142067Y227204D01*
X132700Y236572D02*
Y236857D01*
X130357Y239200D02*
X132700Y236857D01*
X302756Y209646D02*
X307046D01*
X302756Y203740D02*
X344882D01*
X303075Y206374D02*
X344882D01*
X324600Y212300D02*
X325300Y213000D01*
Y218000D01*
X322300Y221000D02*
X325300Y218000D01*
X316600Y221000D02*
X322300D01*
X315300Y219700D02*
X316600Y221000D01*
X304134Y219700D02*
X315300D01*
X302756Y206693D02*
X303075Y206374D01*
X304134Y218504D02*
Y219700D01*
X265935Y174000D02*
X285000D01*
X265736Y174200D02*
X265935Y174000D01*
X264736Y173200D02*
X265736Y174200D01*
X310636Y183057D02*
X325300D01*
X310556Y182976D02*
X310636Y183057D01*
X305586Y182976D02*
X310556D01*
X305505Y183057D02*
X305586Y182976D01*
X294870Y183057D02*
X305505D01*
X309808Y185057D02*
X323245D01*
X309728Y184976D02*
X309808Y185057D01*
X306414Y184976D02*
X309728D01*
X306333Y185057D02*
X306414Y184976D01*
X294042Y185057D02*
X306333D01*
X323245D02*
X328644Y190456D01*
X292885Y183900D02*
X294042Y185057D01*
X293714Y181900D02*
X294870Y183057D01*
X325300D02*
X327643Y185400D01*
X232000Y186486D02*
Y187800D01*
X232473D01*
X237920Y190398D02*
X248741D01*
X234518Y193800D02*
X237920Y190398D01*
X229515Y193800D02*
X234518D01*
X238749Y192398D02*
X247698D01*
X235346Y195800D02*
X238749Y192398D01*
X228686Y195800D02*
X235346D01*
X237092Y188398D02*
X251198D01*
X233690Y191800D02*
X237092Y188398D01*
X230343Y191800D02*
X233690D01*
X263503Y218400D02*
X280800D01*
X261431Y220472D02*
X263503Y218400D01*
X294000Y187929D02*
X302102D01*
X319000Y151300D02*
X320400D01*
X313308D02*
X319000D01*
X303106Y159098D02*
X344532D01*
X302756Y162402D02*
X344882D01*
X303688Y165800D02*
X325657D01*
X310630Y148622D02*
X313308Y151300D01*
X320400D02*
X341066Y130634D01*
X327500Y309400D02*
Y310000D01*
X362267Y306165D02*
Y341473D01*
X364267Y303243D02*
Y344394D01*
X329600Y189400D02*
Y190564D01*
X331557Y185400D02*
X335501Y181455D01*
X327643Y185400D02*
X331557D01*
X329274Y181400D02*
X329300D01*
X300743Y306900D02*
X317900D01*
X317200Y173400D02*
X318900D01*
X315403Y175197D02*
X317200Y173400D01*
X328674Y182000D02*
X329274Y181400D01*
X324760Y196228D02*
Y197060D01*
X317913Y189961D02*
X318898D01*
X324760Y197060D02*
X327306Y199606D01*
X329600Y190564D02*
X329964Y190200D01*
X335629Y187007D02*
X335630D01*
X335629D02*
X351531D01*
X270988Y201452D02*
X286541Y185900D01*
X271800Y196700D02*
X284600Y183900D01*
X273918Y190400D02*
X282418Y181900D01*
X326573Y179900D02*
X328674Y182000D01*
X256700Y187915D02*
X264715Y179900D01*
X286541Y185900D02*
X291971D01*
X284600Y183900D02*
X292885D01*
X282418Y181900D02*
X293714D01*
X264715Y179900D02*
X326573D01*
X291971Y185900D02*
X294000Y187929D01*
X290000Y189900D02*
Y195827D01*
X287008Y198819D02*
X290000Y195827D01*
X302102Y187929D02*
X304071Y189898D01*
X267192Y154208D02*
X268700Y152700D01*
X252681Y154208D02*
X267192D01*
X249400Y151926D02*
X258100Y143226D01*
X250394Y156496D02*
X252681Y154208D01*
X258100Y143226D02*
Y150200D01*
X213645Y134780D02*
X273180D01*
X263833Y125100D02*
X286000D01*
X262433Y123700D02*
X263833Y125100D01*
X260433Y125700D02*
X262433Y123700D01*
X256542Y119800D02*
X268200D01*
X270858Y115158D02*
X274500Y118800D01*
X257480Y115158D02*
X270858D01*
X260215Y111800D02*
X295265D01*
X253665Y130634D02*
X287673D01*
X273180Y134780D02*
X279700Y141300D01*
X273700Y154157D02*
X274485Y154942D01*
Y156700D01*
X279585Y148729D02*
X282457D01*
X279357Y148500D02*
X279585Y148729D01*
X276043Y148500D02*
X279357D01*
X273700Y150843D02*
X276043Y148500D01*
X273700Y150843D02*
Y154157D01*
X257684Y156700D02*
X274485D01*
X257830Y159098D02*
X288442D01*
X257480Y162402D02*
X295670D01*
X288543Y159200D02*
X292257D01*
X288442Y159098D02*
X288543Y159200D01*
X292257D02*
X292358Y159098D01*
X295319D01*
X138044Y134843D02*
X139302Y136100D01*
X187200D01*
X139764Y141732D02*
X240512D01*
X211300Y137125D02*
X213645Y134780D01*
X240512Y141732D02*
X245400Y146621D01*
Y151000D01*
X242398Y130634D02*
X249016Y124016D01*
X210599Y130634D02*
X242398D01*
X211893Y145016D02*
X219777Y152900D01*
X208579Y145016D02*
X211893D01*
X201395Y152200D02*
X208579Y145016D01*
X192300Y132700D02*
X200600D01*
X211300Y137000D02*
Y137125D01*
X213189Y125900D02*
X221500D01*
X247816Y124016D02*
X249016D01*
X241516Y117717D02*
X247816Y124016D01*
X321657Y246457D02*
X333661D01*
X319000Y243800D02*
X321657Y246457D01*
X257480Y156496D02*
X257684Y156700D01*
X302756Y156496D02*
X310630Y148622D01*
X318300Y40000D02*
X319700Y41400D01*
X324000Y169800D02*
X330080D01*
X262739Y175197D02*
X264736Y173200D01*
X260827Y175197D02*
X262739D01*
X249400Y151926D02*
Y152657D01*
X247057Y155000D02*
X249400Y152657D01*
X243743Y155000D02*
X247057D01*
X241400Y152657D02*
X243743Y155000D01*
X241400Y150726D02*
Y152657D01*
X240158Y151969D02*
X241400Y150726D01*
X210586Y159098D02*
X250044D01*
X237509Y162402D02*
X250394D01*
X237477Y162370D02*
X237509Y162402D01*
X210268Y162370D02*
X237477D01*
X237102Y164402D02*
X239300Y166600D01*
X236680Y164402D02*
X237102D01*
X236649Y164370D02*
X236680Y164402D01*
X213047Y164370D02*
X236649D01*
X250044Y159098D02*
X250394Y159449D01*
X219777Y152900D02*
X220800Y153200D01*
X193539Y152200D02*
X201395D01*
X192913Y151575D02*
X193539Y152200D01*
X210236Y149016D02*
Y156496D01*
X173703Y175197D02*
X173800Y175100D01*
X165945Y175197D02*
X173703D01*
X125975Y182000D02*
X177300D01*
X177700Y181600D01*
X295418Y235900D02*
X307900D01*
X240358Y227200D02*
X247158Y234000D01*
X249443Y236000D02*
X251643Y238200D01*
X246329Y236000D02*
X249443D01*
X247158Y234000D02*
X253100D01*
X243400Y238727D02*
Y241657D01*
X237877Y233204D02*
X243400Y238727D01*
X238705Y231204D02*
X247450Y239949D01*
X239529Y229200D02*
X246329Y236000D01*
X243400Y241657D02*
X245743Y244000D01*
X255757Y241700D02*
X258100Y244043D01*
X252443Y241700D02*
X255757D01*
X257480Y250984D02*
X258100Y250364D01*
X253000Y250984D02*
X254100Y249884D01*
X234706Y237204D02*
X236220D01*
X234563Y233204D02*
X237877D01*
X232220Y235547D02*
X234563Y233204D01*
X232220Y235547D02*
Y236862D01*
X229877Y239204D02*
X232220Y236862D01*
X233735Y231204D02*
X238705D01*
X231739Y233200D02*
X233735Y231204D01*
X223730Y233200D02*
X231739D01*
X229784Y242126D02*
X234706Y237204D01*
X223700Y239204D02*
X229877D01*
X236811Y248819D02*
X239173Y246457D01*
X210586Y253587D02*
X250044D01*
X210236Y256890D02*
X250394D01*
X241634Y260827D02*
X249016Y268209D01*
X210630Y260827D02*
X241634D01*
X240618Y269314D02*
X245638Y274335D01*
X211614Y269314D02*
X240618D01*
X261000Y239100D02*
Y241100D01*
X250044Y253587D02*
X250394Y253937D01*
X217163Y227200D02*
X240358D01*
X244344Y225756D02*
X250306Y219794D01*
X241742Y225756D02*
X244344D01*
X241186Y225200D02*
X241742Y225756D01*
X216335Y225200D02*
X241186D01*
X222000Y187800D02*
Y189114D01*
X218000Y194700D02*
X218600Y195300D01*
X218000Y186143D02*
Y194700D01*
X235989Y197800D02*
X237795Y199606D01*
X218600Y195300D02*
X225358D01*
X226000Y190285D02*
X229515Y193800D01*
X228000Y185315D02*
Y189457D01*
X227858Y197800D02*
X235989D01*
X225358Y195300D02*
X227858Y197800D01*
X222000Y189114D02*
X228686Y195800D01*
X228000Y189457D02*
X230343Y191800D01*
X234157Y184100D02*
X254800D01*
X234057Y184200D02*
X234157Y184100D01*
X227657Y177800D02*
X234057Y184200D01*
X226000Y186143D02*
Y190285D01*
X225314Y179800D02*
X232000Y186486D01*
X216186Y177800D02*
X227657D01*
X213583Y175197D02*
X216186Y177800D01*
X209202Y195700D02*
X216000Y188901D01*
X218686Y179800D02*
X225314D01*
X216640Y181846D02*
X218686Y179800D01*
X193246Y181846D02*
X216640D01*
X224485Y181800D02*
X228000Y185315D01*
X219515Y181800D02*
X224485D01*
X216000Y185315D02*
X219515Y181800D01*
X216000Y185315D02*
Y188901D01*
X223657Y183800D02*
X226000Y186143D01*
X220343Y183800D02*
X223657D01*
X218000Y186143D02*
X220343Y183800D01*
X228700Y280700D02*
X242800D01*
X216716Y250984D02*
X223700Y244000D01*
Y239300D02*
Y244000D01*
X217992Y229200D02*
X239529D01*
X142717Y283465D02*
Y289764D01*
X108121Y154208D02*
X116829Y145500D01*
X121900D01*
X126200Y149800D01*
X119504Y156496D02*
X126200Y149800D01*
X115748Y156496D02*
X119504D01*
X110404D02*
X117300Y149600D01*
X119900D01*
X108662Y156496D02*
X110404D01*
X118701Y230553D02*
X121500Y233352D01*
X118701Y220472D02*
Y230553D01*
X114700Y237000D02*
X118900Y241200D01*
X109252Y228652D02*
X119800Y239200D01*
X130357D01*
X118900Y241200D02*
X131185D01*
X134700Y237400D02*
Y237685D01*
X131185Y241200D02*
X134700Y237685D01*
X121500Y233352D02*
Y235100D01*
X110600Y212000D02*
X129500D01*
X131157Y216000D02*
X133574Y213583D01*
X63197Y237000D02*
X114700D01*
X127000Y171691D02*
X127754Y172446D01*
X125003Y175197D02*
X127754Y172446D01*
X119095Y175197D02*
X125003D01*
X127000Y171691D02*
Y173200D01*
X112300Y202409D02*
Y209646D01*
X119109Y195600D02*
X127300D01*
X112300Y202409D02*
X119109Y195600D01*
X366142Y367142D02*
Y395587D01*
X0Y367142D02*
Y395587D01*
X196566Y394587D02*
X366142D01*
X0D02*
X166375D01*
X360142Y396587D02*
X366142Y394587D01*
X360142Y392587D02*
X366142Y394587D01*
X0D02*
X6000Y392587D01*
X0Y394587D02*
X6000Y396587D01*
X75957Y221457D02*
X77756D01*
X73004Y218504D02*
X75957Y221457D01*
X357283Y351378D02*
X364267Y344394D01*
X359252Y298228D02*
X364267Y303243D01*
X355315Y348425D02*
X362267Y341473D01*
X357284Y301181D02*
X362267Y306165D01*
X211614Y218504D02*
X213510Y220400D01*
X293067Y326028D02*
X294291Y324803D01*
X243110Y318898D02*
X249016Y312992D01*
X265901Y329724D02*
X291339D01*
X264204Y328028D02*
X265901Y329724D01*
X257480Y346776D02*
X295351D01*
X257480Y349410D02*
X295670D01*
X258858Y334646D02*
X270669D01*
X258858Y313800D02*
X282600D01*
X296064Y151575D02*
X296260Y151770D01*
X97441Y188976D02*
Y191776D01*
X192976Y44354D02*
X199866D01*
X189961Y41339D02*
X192976Y44354D01*
X189961Y40354D02*
Y41339D01*
X177901Y35433D02*
X195866D01*
X201772Y29528D01*
X154528Y31496D02*
Y33216D01*
X308071Y82677D02*
X319882D01*
X306102Y80709D02*
X308071Y82677D01*
X260827Y80709D02*
X262795Y82677D01*
X284449D01*
X263779Y97648D02*
Y98425D01*
X252631Y86500D02*
X263779Y97648D01*
X250000Y61614D02*
X250394Y62008D01*
X250000Y53150D02*
Y61614D01*
X249016Y79232D02*
Y80709D01*
Y78075D02*
Y79232D01*
X242224Y72441D02*
X249016Y79232D01*
X228000Y86500D02*
X252631D01*
X201772Y79232D02*
Y80709D01*
X194980Y72441D02*
X201772Y79232D01*
X126200Y77400D02*
X134158Y85358D01*
X166339Y80709D02*
X172244Y74803D01*
X173228D01*
X168958Y85358D02*
X172183Y88582D01*
X46260Y78740D02*
Y87460D01*
X54398Y95598D01*
X53347Y82043D02*
X64902Y93598D01*
X98000Y80100D02*
X109498Y91598D01*
X118701Y82322D02*
X123977Y87598D01*
X205457Y62008D02*
X211488Y55976D01*
X203150Y62008D02*
X205457D01*
X155906D02*
X161417Y56496D01*
X167913Y57087D02*
X169291D01*
X162992Y62008D02*
X167913Y57087D01*
X112769Y57900D02*
X118000D01*
X108662Y62008D02*
X112769Y57900D01*
X77756Y80709D02*
X79724Y78740D01*
X71850Y80709D02*
X77756D01*
X66365Y72835D02*
X83661D01*
X52165Y82043D02*
X53347D01*
X344882Y20670D02*
X348330Y24117D01*
X351938Y26846D02*
X351968D01*
Y20670D02*
Y26846D01*
X358268Y67914D02*
X362443Y63738D01*
X359252Y14764D02*
X362443Y17955D01*
Y63738D01*
X356299Y64961D02*
X360236Y61024D01*
Y21653D02*
Y61024D01*
X356299Y17717D02*
X360236Y21653D01*
X260827Y31496D02*
X262795Y29528D01*
X280512D01*
X264438Y26638D02*
X268389D01*
X261300Y23500D02*
X264438Y26638D01*
X268389D02*
X272389Y22638D01*
X277559D01*
X301181Y36417D02*
X336614D01*
X343504Y29528D01*
X294291D02*
X301181Y36417D01*
X287402D02*
X294291Y29528D01*
X255906Y36417D02*
X287402D01*
X249016Y29528D02*
X255906Y36417D01*
X208661D02*
X242126D01*
X201772Y29528D02*
X208661Y36417D01*
X114173D02*
X147979D01*
X107283Y29528D02*
X114173Y36417D01*
X30784Y36146D02*
X37402Y29528D01*
X19323Y36146D02*
X30784D01*
X18445Y35267D02*
X19323Y36146D01*
X18445Y27725D02*
Y35267D01*
Y27725D02*
X21260Y24910D01*
Y20670D02*
Y24910D01*
X22638Y27756D02*
Y29528D01*
X21260Y14764D02*
X61418D01*
X23622Y7874D02*
Y9842D01*
X6890Y39370D02*
X8858D01*
X12795Y35433D01*
Y29528D02*
Y35433D01*
X323146Y67976D02*
X328429D01*
X319780Y64610D02*
X323146Y67976D01*
X303106Y64610D02*
X319780D01*
X322318Y69976D02*
X329871D01*
X319619Y70106D02*
X321490Y71976D01*
X305342Y70106D02*
X319619D01*
X320255Y67914D02*
X322318Y69976D01*
X302756Y67914D02*
X320255D01*
X328740Y62008D02*
X344882D01*
X342519Y51181D02*
Y53149D01*
X336401Y57300D02*
X341535Y52165D01*
X294739Y80709D02*
X305342Y70106D01*
X297400Y57100D02*
Y62008D01*
X223193Y81693D02*
X228000Y86500D01*
X213200Y81693D02*
X223193D01*
X162992Y67914D02*
X203150D01*
X10827Y80709D02*
Y88583D01*
X5906Y76182D02*
X14174Y67914D01*
X5906Y102363D02*
X12795Y109252D01*
X5906Y76182D02*
Y102363D01*
X2953Y104330D02*
X10827Y112205D01*
X2953Y73819D02*
Y104330D01*
Y73819D02*
X11811Y64961D01*
X35827Y94882D02*
X44291Y103347D01*
X21260Y94882D02*
X35827Y94882D01*
X23622Y99213D02*
Y99409D01*
Y99213D02*
X23622Y99213D01*
X362205Y157480D02*
X362236Y157449D01*
X355315Y159449D02*
X360236Y154528D01*
X346800Y121254D02*
X347760Y122213D01*
Y129755D01*
X346881Y130634D02*
X347760Y129755D01*
X310192Y129921D02*
X337598D01*
X309480Y130634D02*
X310192Y129921D01*
X302725Y130634D02*
X309480D01*
X302012Y129921D02*
X302725Y130634D01*
X299213Y129921D02*
X302012D01*
X337598D02*
X343504Y124016D01*
X87911Y132811D02*
X91911Y136811D01*
X68225Y132811D02*
X87911D01*
X68162Y132874D02*
X68225Y132811D01*
X48228Y132874D02*
X68162D01*
X6571Y166640D02*
Y196137D01*
X13886Y162689D02*
X14174Y162402D01*
Y154302D02*
Y156496D01*
X349912Y180600D02*
X355315Y175197D01*
X340880Y180600D02*
X349912D01*
X330080Y169800D02*
X340880Y180600D01*
X351531Y187007D02*
X361221Y177318D01*
Y166339D02*
Y177318D01*
X294291Y173721D02*
Y175197D01*
X249016Y175197D02*
X249464D01*
X240256Y166437D02*
X249016Y175197D01*
X306414Y192976D02*
X309728D01*
X304071Y190633D02*
X306414Y192976D01*
X304071Y189898D02*
Y190633D01*
X311759Y190945D02*
X316929D01*
X309728Y192976D02*
X311759Y190945D01*
X316929D02*
X317913Y189961D01*
X335630Y187007D02*
X348300Y199678D01*
X298228Y100394D02*
Y101828D01*
X299200Y102800D01*
X295670Y151969D02*
X296064Y151575D01*
X290870Y134700D02*
X329500D01*
X302756Y148477D02*
Y156496D01*
X292995Y138716D02*
X302756Y148477D01*
X43306Y185039D02*
X45276D01*
X53740Y246457D02*
X59055Y241142D01*
X287039Y225756D02*
X294291Y218504D01*
X256268Y225756D02*
X287039D01*
X241240Y210728D02*
X256268Y225756D01*
X77457Y228500D02*
X88600D01*
X75757Y226800D02*
X77457Y228500D01*
X56789Y226800D02*
X75757D01*
X261153Y186290D02*
X272371D01*
X262700Y190400D02*
X273918D01*
X154976Y175197D02*
X165802Y164370D01*
X154528Y175197D02*
X154976D01*
X162992Y162402D02*
X163023Y162370D01*
X202220Y175197D02*
X213047Y164370D01*
X201772Y175197D02*
X202220D01*
X210236Y162402D02*
X210268Y162370D01*
X193209Y166634D02*
X201772Y175197D01*
X154528Y173721D02*
Y175197D01*
X107283Y173721D02*
Y175197D01*
X102249Y183846D02*
X124129D01*
X94575Y182000D02*
X100403D01*
X102249Y183846D01*
X124129D02*
X125975Y182000D01*
X90551Y186024D02*
X94575Y182000D01*
X68504Y162402D02*
X108662D01*
X76106Y170941D02*
Y185456D01*
X71539Y190024D02*
X76106Y185456D01*
X66839Y190024D02*
X71539D01*
X69882Y186024D02*
X70865D01*
X71850Y185039D01*
X76106Y170941D02*
X77756Y169291D01*
X71850Y185039D02*
X71850Y185039D01*
Y175197D02*
Y185039D01*
X58070Y188976D02*
X60039D01*
Y190945D01*
X21323Y203803D02*
X61354D01*
X38780Y197244D02*
X41339Y199803D01*
X21579Y206374D02*
X61418D01*
X54134Y185039D02*
X58070Y188976D01*
X43307Y185039D02*
X54134D01*
X116098Y159098D02*
X155555D01*
X6571Y196137D02*
X14174Y203740D01*
X4571Y165705D02*
Y199453D01*
X4921Y199803D01*
X360236Y165354D02*
X361221Y166339D01*
X349854Y165354D02*
X360236D01*
X216300Y213500D02*
X219115Y216315D01*
X219647D01*
X213510Y220400D02*
X221400D01*
X75857Y215100D02*
X77374Y213583D01*
X72543Y215100D02*
X75857D01*
X71026Y213583D02*
X72543Y215100D01*
X64961Y213583D02*
X71026D01*
X60039Y218504D02*
X64961Y213583D01*
X55617Y230800D02*
X74100D01*
X51306Y232283D02*
X56789Y226800D01*
X50197Y236221D02*
X55617Y230800D01*
X25098Y246555D02*
X31496D01*
X46200Y247500D02*
Y248800D01*
X21260Y250984D02*
Y251059D01*
X14764Y225394D02*
Y241536D01*
X12795Y223425D02*
X14764Y225394D01*
X12795Y218504D02*
Y223425D01*
X5906Y216383D02*
Y223578D01*
X9843Y227515D01*
Y228346D01*
X5906Y216383D02*
X8434Y213854D01*
X10555D01*
X10827Y213583D01*
X12795Y269685D02*
X12795Y269685D01*
Y281496D01*
X348500Y252400D02*
Y272716D01*
Y252400D02*
X349916Y250984D01*
X346609Y274606D02*
X348500Y272716D01*
X333906Y274606D02*
X346609D01*
X325400Y266100D02*
X333906Y274606D01*
X354331Y269685D02*
Y280512D01*
X287402Y272753D02*
Y277559D01*
X249016Y268209D02*
Y269685D01*
X245638Y274335D02*
X249835D01*
X192126Y260039D02*
X201772Y269685D01*
X156496D02*
X166142Y260039D01*
X154528Y269685D02*
X156496D01*
X163342Y253587D02*
X202800D01*
X173229Y250984D02*
X178150Y246063D01*
X162992Y250984D02*
X173229D01*
X146260Y261417D02*
X154528Y269685D01*
X117791Y259178D02*
X142445D01*
X107283Y269685D02*
X117791Y259178D01*
X100492Y261417D02*
X107283Y268209D01*
Y269685D01*
X76772Y263779D02*
X77756D01*
X72835Y267716D02*
X76772Y263779D01*
X69882Y267716D02*
X72835D01*
X69882D02*
X71850Y269685D01*
X3906Y293276D02*
X4921Y294291D01*
X3906Y260858D02*
X10827Y253937D01*
X3906Y260858D02*
Y293276D01*
X5906Y291338D02*
X12795Y298228D01*
X5906Y263627D02*
Y291338D01*
Y263627D02*
X8434Y261098D01*
X17800Y272874D02*
X19532Y274606D01*
X17800Y252000D02*
Y272874D01*
X19532Y274606D02*
X27521D01*
X29528Y272600D01*
X8434Y261098D02*
X8587D01*
X12795Y256890D01*
X302756Y298228D02*
X344882D01*
X303075Y300862D02*
X344882D01*
X265901Y318898D02*
X288386D01*
X294291Y312992D01*
X71850Y315945D02*
X72835Y314961D01*
X81693D01*
X124016D02*
X126969D01*
X123031Y315945D02*
X124016Y314961D01*
X63824Y315945D02*
X69729Y310039D01*
X100394Y306103D02*
X107283Y312992D01*
X60039Y315945D02*
X63824D01*
X170276Y343504D02*
X178150Y335630D01*
X176493Y331630D02*
X198756D01*
X170796Y337327D02*
X176493Y331630D01*
X62354Y304134D02*
X64641Y306422D01*
X61418Y304134D02*
X62354D01*
X64641Y306422D02*
X70995D01*
X72299Y305118D01*
X66234Y304134D02*
X68504D01*
X65100Y303000D02*
X66234Y304134D01*
X72299Y305118D02*
X82677D01*
X68823Y300862D02*
X108662D01*
X68504Y298228D02*
X108662D01*
X181072Y306102D02*
X194390D01*
X195374Y307087D01*
X201772Y313484D01*
X194882Y306594D02*
X195374Y307087D01*
X158312Y315945D02*
X164281Y309976D01*
X154528Y315945D02*
X158312D01*
X150000Y306693D02*
X154528Y311221D01*
X135086Y306594D02*
X147638D01*
X132562Y309118D02*
X135086Y306594D01*
X107283Y315945D02*
X111068D01*
X129922Y304134D02*
X130905Y305118D01*
X115748Y304134D02*
X129922D01*
X116067Y300862D02*
X155906D01*
X115748Y298228D02*
X155906D01*
X119095Y315945D02*
X123031D01*
X164370Y329724D02*
Y334646D01*
X161417Y326772D02*
X164370Y329724D01*
X125700Y334600D02*
Y334700D01*
X201772Y313484D02*
Y315945D01*
X162992Y298228D02*
X203150D01*
X264204Y320595D02*
X265901Y318898D01*
X294291Y312992D02*
X301894Y320595D01*
X309480D01*
X311176Y318898D01*
X337599D01*
X343504Y312992D01*
X294291Y311221D02*
Y312992D01*
X289173Y306102D02*
X294291Y311221D01*
X223978Y306534D02*
X224410Y306102D01*
X198756Y331630D02*
X200787Y333661D01*
X201772Y334646D01*
X155512Y333661D02*
X155512D01*
X154528Y334646D02*
X155512Y333661D01*
X154528Y332677D02*
X159177Y337327D01*
X200787Y333661D02*
X201772Y332677D01*
X159177Y337327D02*
X170796D01*
X155906Y304134D02*
X158858Y307087D01*
X159449Y344488D02*
Y352515D01*
X151212Y360752D02*
X159449Y352515D01*
X144064Y360752D02*
X151212D01*
X253937Y344488D02*
Y352515D01*
X245700Y360752D02*
X253937Y352515D01*
X228346Y357283D02*
X231815Y360752D01*
X245700D01*
X309480Y328028D02*
X311176Y329724D01*
X326036D01*
X301028D02*
X302725Y328028D01*
X297244Y329724D02*
X301028D01*
X210299Y343567D02*
X230252D01*
X291339Y329724D02*
X294291Y332677D01*
X329413Y329787D02*
X329476Y329724D01*
X326099Y329787D02*
X329413D01*
X326036Y329724D02*
X326099Y329787D01*
X302725Y328028D02*
X309480D01*
X350331Y338894D02*
X351059Y338166D01*
X351915Y343793D02*
Y345472D01*
X350331Y342208D02*
X351915Y343793D01*
X350331Y338894D02*
Y342208D01*
X351059Y326402D02*
Y338166D01*
X351082Y325787D02*
X351377D01*
X348400Y323105D02*
X351082Y325787D01*
X351377D02*
Y326083D01*
X351059Y326402D02*
X351377Y326083D01*
X354331Y340338D02*
Y340551D01*
X353346Y339354D02*
X354331Y340338D01*
X353346Y334646D02*
Y339354D01*
X345472Y338736D02*
Y344882D01*
Y338736D02*
X347760Y336448D01*
X344882Y345472D02*
X345472Y344882D01*
X351915Y345472D02*
X351968D01*
X347760Y328906D02*
Y336448D01*
X327756Y325787D02*
X344641D01*
X347760Y328906D01*
X272371Y186290D02*
X272638Y186024D01*
X173806Y24200D02*
X180118Y30512D01*
X158000Y24200D02*
X173806D01*
X155900Y22100D02*
X158000Y24200D01*
X68504Y14764D02*
X108662D01*
X100682Y40118D02*
X100700Y40100D01*
X100446Y40354D02*
X100682Y40118D01*
X98700Y42100D02*
X100446Y40354D01*
X99410D02*
X100446D01*
X160433Y20670D02*
X162992D01*
X159300Y19536D02*
X160433Y20670D01*
X159300Y8700D02*
Y19536D01*
X295670Y20670D02*
X298622Y23622D01*
X250394Y20670D02*
X253224Y23500D01*
X348500Y164000D02*
X349854Y165354D01*
X349410Y156496D02*
X351968D01*
X348500Y157405D02*
X349410Y156496D01*
X210236Y349410D02*
X250394D01*
X210236Y346776D02*
X250075D01*
X204100Y190585D02*
X208661Y186024D01*
X204100Y190585D02*
Y199650D01*
X208661Y290354D02*
Y294094D01*
X206600Y296156D02*
X208661Y294094D01*
X258858Y289158D02*
X259456Y289756D01*
X258858Y289158D02*
Y290354D01*
X216400Y306534D02*
X223978D01*
X259842Y212008D02*
X268701D01*
X257480Y209646D02*
X259842Y212008D01*
X250394Y209646D02*
X252952D01*
X254256Y201452D02*
X270988D01*
X253937Y201772D02*
X254256Y201452D01*
X257480Y203740D02*
X295670D01*
X257799Y206374D02*
X295670D01*
X253937Y201772D02*
Y208661D01*
X252952Y209646D02*
X253937Y208661D01*
X122047Y247047D02*
X123031D01*
X118111Y250984D02*
X122047Y247047D01*
X115748Y250984D02*
X118111D01*
X61354Y203803D02*
X61418Y203740D01*
X21260D02*
X21323Y203803D01*
X14174Y209646D02*
X15999D01*
X17600Y208045D01*
X10827Y213583D02*
X17263D01*
X329476Y329724D02*
X338583D01*
X348400Y307634D02*
Y323105D01*
X263596Y343504D02*
X264580Y342520D01*
X211614Y357283D02*
X228346D01*
X206693Y352362D02*
X211614Y357283D01*
X206693Y344488D02*
Y352362D01*
X205708Y343504D02*
X206693Y344488D01*
X203150Y343504D02*
X205708D01*
X210236D02*
X210299Y343567D01*
X98425Y356299D02*
X108268D01*
Y355436D02*
Y356299D01*
Y355436D02*
X109252Y354452D01*
X61355Y349346D02*
X61418Y349410D01*
X253224Y23500D02*
X261300D01*
X109600Y209646D02*
Y211000D01*
X45950Y247750D02*
X46200Y247500D01*
X112300Y113958D02*
Y114000D01*
X111100Y115158D02*
X111142D01*
X108662D02*
X111100D01*
X115748Y62008D02*
X120000D01*
X100700Y40100D02*
X114200D01*
X100682Y40118D02*
X114173D01*
X327306Y199606D02*
X330905D01*
X19300Y118000D02*
X21260Y115158D01*
X17263Y213583D02*
X21200Y209646D01*
X21260D01*
X112300D02*
X115748D01*
X306134Y271400D02*
X319882D01*
X304134Y269400D02*
X306134Y271400D01*
X314340Y117500D02*
X317000Y114840D01*
X298542Y117500D02*
X314340D01*
X296200Y115158D02*
X298542Y117500D01*
X295670Y115158D02*
X296200D01*
X302700Y250984D02*
X302756D01*
X344900Y304134D02*
X348400Y307634D01*
X344882Y304134D02*
X344900D01*
X119351Y339900D02*
X122400D01*
X203150Y304134D02*
X205466D01*
X206600Y303000D01*
Y296156D02*
Y303000D01*
X348500Y157405D02*
Y164000D01*
X170096Y343504D02*
X178000Y335600D01*
X68504Y62008D02*
X68600D01*
X349916Y250984D02*
X351968D01*
X302756Y62008D02*
X302800D01*
X155906Y304134D02*
X156800D01*
X203150Y115158D02*
X205642D01*
X206800Y114000D01*
X257480Y343504D02*
X263596D01*
X257480Y250984D02*
X258100D01*
X157816D02*
X164000Y244800D01*
X155906Y250984D02*
X157816D01*
X221400Y220400D02*
X225500Y216300D01*
Y212200D02*
Y216300D01*
X208054Y213500D02*
X216300D01*
X204200Y209646D02*
X208054Y213500D01*
X203150Y209646D02*
X204200D01*
X250394Y250984D02*
X253000D01*
X304134Y312992D02*
Y313000D01*
X324500D01*
X108662Y209646D02*
X109600D01*
X344882D02*
X347000D01*
X348300Y208346D01*
X6334Y304134D02*
X14174D01*
X155900Y20670D02*
Y22100D01*
Y20670D02*
X155906D01*
X61418Y209646D02*
X64800D01*
Y202000D02*
Y209646D01*
X109600Y211000D02*
X110600Y212000D01*
X250394Y20670D02*
X251500D01*
X258858Y29528D02*
Y33200D01*
X305634Y119500D02*
X320400D01*
X299200Y102800D02*
Y114000D01*
X300358Y115158D01*
X302756D01*
X111142D02*
X112300Y114000D01*
X111096Y343400D02*
X112300Y344604D01*
X204100Y199650D02*
X206800Y202350D01*
Y208446D01*
X208000Y209646D01*
X210236D01*
X193100Y181700D02*
Y197244D01*
X20200Y304134D02*
X21260D01*
X108662D02*
X111000D01*
X112100Y303034D01*
Y296000D02*
Y303034D01*
X108662Y20670D02*
X108700D01*
X68504Y250984D02*
X71851D01*
X72746Y209646D02*
X74200Y211100D01*
X68504Y209646D02*
X72746D01*
X69882Y218504D02*
X73004D01*
X112300Y20670D02*
X115748D01*
X112300Y12500D02*
Y20670D01*
X117126Y29528D02*
Y29800D01*
X299200Y19870D02*
X300000Y20670D01*
X302756D01*
X111100Y115158D02*
X112300Y113958D01*
Y106800D02*
Y113958D01*
X158104Y156496D02*
X160400Y154200D01*
X155906Y156496D02*
X158104D01*
X210236D02*
X210300D01*
X118000Y57900D02*
X118200Y57700D01*
X16242Y115158D02*
X17800Y113600D01*
X14174Y115158D02*
X16242D01*
X214357Y363500D02*
X251657D01*
X258858Y356299D01*
X11811Y17717D02*
X14174D01*
X117126Y334600D02*
X125700D01*
X117126D02*
Y334646D01*
X5950Y57050D02*
X10908Y62008D01*
X14174D01*
X115748Y115158D02*
X119658D01*
X16784Y250984D02*
X17800Y252000D01*
X14174Y250984D02*
X16784D01*
X295670Y62008D02*
X297400D01*
X159600Y290300D02*
Y303000D01*
X160734Y304134D01*
X162992D01*
X214000D02*
X216400Y306534D01*
X210236Y304134D02*
X214000D01*
X348300Y303000D02*
X349434Y304134D01*
X351968D01*
X162992Y301181D02*
X163311Y300862D01*
X203150D02*
Y301181D01*
X244488Y340945D02*
X249016Y336417D01*
X148685Y129858D02*
X154528Y124016D01*
X249016D02*
Y125984D01*
X294291Y124016D02*
Y125000D01*
X115748Y346776D02*
X155587D01*
X60039Y331942D02*
Y334646D01*
X115748Y343504D02*
X119351Y339900D01*
X270669Y334646D02*
X278543Y342520D01*
X295351Y346776D02*
X295670Y346457D01*
X315882Y337535D02*
X319882Y341535D01*
X311335Y337535D02*
X315882D01*
X326772Y340551D02*
Y341535D01*
X320866Y334646D02*
X326772Y340551D01*
X304134Y334646D02*
X320866D01*
X295670Y343504D02*
X299638Y339535D01*
X309335D01*
X311335Y337535D01*
X304724Y341535D02*
X312992D01*
X294291Y332677D02*
Y334646D01*
X338583Y329724D02*
X343504Y334646D01*
X294291Y332677D02*
X297244Y329724D01*
X154528Y311221D02*
Y312992D01*
X100984Y340945D02*
X107283Y334646D01*
X249016D02*
Y336417D01*
X197244Y340945D02*
X201772Y336417D01*
Y334646D02*
Y336417D01*
X351968Y64961D02*
X356299D01*
X351968Y17717D02*
X356299D01*
X351968Y67914D02*
X358268D01*
X351968Y14764D02*
X359252D01*
X343504Y334646D02*
Y336417D01*
X338976Y340945D02*
X343504Y336417D01*
X287992Y340945D02*
X294291Y334646D01*
X252952Y343504D02*
X253937Y344488D01*
X250394Y343504D02*
X252952D01*
X162992Y346776D02*
X202831D01*
X203150Y346457D01*
X61418Y343504D02*
X61418Y343504D01*
X22638Y311221D02*
Y312992D01*
X60039Y311221D02*
Y312992D01*
X338976Y306693D02*
X343504Y311221D01*
Y312992D01*
X68504Y253937D02*
X68854Y253587D01*
X60039Y216732D02*
Y218504D01*
X53150Y209843D02*
X60039Y216732D01*
X22638D02*
X29528Y209843D01*
X22638Y216732D02*
Y218504D01*
X302756Y111886D02*
Y112205D01*
X344563Y111886D02*
X344882Y112205D01*
X210236Y14764D02*
X250394D01*
X162992D02*
X203150D01*
X115748D02*
X155906D01*
X60039Y27756D02*
Y29528D01*
X21260Y111886D02*
X61099D01*
X21260Y109252D02*
X61418D01*
X21260Y67914D02*
X61418D01*
X61099Y111886D02*
X61418Y112205D01*
X115748Y109252D02*
X155906D01*
X155906Y343504D02*
X158465D01*
X159449Y344488D01*
X257480Y67914D02*
X295670D01*
X68504Y301181D02*
X68823Y300862D01*
X21260Y348425D02*
X23622D01*
X25272Y346776D01*
X61099D02*
X61418Y346457D01*
X68504Y349410D02*
X108662D01*
X68504Y346457D02*
Y346776D01*
X108343D01*
X108662Y346457D01*
X115748D02*
Y346776D01*
X155587D02*
X155906Y346457D01*
X162992Y349410D02*
X203150D01*
X162992Y346457D02*
Y346776D01*
X210236Y346457D02*
Y346776D01*
X250075D02*
X250394Y346457D01*
X257480D02*
Y346776D01*
X302756Y349410D02*
X339567D01*
X341536Y351378D01*
X344882D01*
X302756Y346457D02*
Y346776D01*
X339886D01*
X341535Y348425D01*
X344882D01*
X351968Y351378D02*
X357283D01*
X351968Y298228D02*
X359252D01*
X351968Y348425D02*
X355315D01*
X344882Y300862D02*
Y301181D01*
X302756D02*
X303075Y300862D01*
X295670D02*
Y301181D01*
X257480D02*
X257799Y300862D01*
X210236D02*
Y301181D01*
X250075Y300862D02*
X250394Y301181D01*
X155906Y300862D02*
Y301181D01*
X115748D02*
X116067Y300862D01*
X108662D02*
Y301181D01*
X21260Y298228D02*
X61418D01*
Y300862D02*
Y301181D01*
X21579Y300862D02*
X61418D01*
X21260Y301181D02*
X21579Y300862D01*
X12795Y298228D02*
X14174D01*
X11811Y301181D02*
X14174D01*
X4921Y294291D02*
X11811Y301181D01*
X10827Y253937D02*
X14174D01*
X12795Y256890D02*
X14174D01*
X351968Y301181D02*
X357284D01*
X351968Y256890D02*
X354330D01*
X351968Y203740D02*
X355315D01*
X351968Y206693D02*
X354331D01*
X351968Y253937D02*
X353794D01*
X344882Y206374D02*
Y206693D01*
X295670Y206374D02*
Y206693D01*
X257480D02*
X257799Y206374D01*
X162992Y203740D02*
X203150D01*
X210236D02*
X250394D01*
Y206374D02*
Y206693D01*
X210555Y206374D02*
X250394D01*
X210236Y206693D02*
X210555Y206374D01*
X203150D02*
Y206693D01*
X163311Y206374D02*
X203150D01*
X162992Y206693D02*
X163311Y206374D01*
X155906D02*
Y206693D01*
X116067Y206374D02*
X155906D01*
X115748Y206693D02*
X116067Y206374D01*
X68504Y203740D02*
X108662D01*
Y206374D02*
Y206693D01*
X68823Y206374D02*
X108662D01*
X68504Y206693D02*
X68823Y206374D01*
X61418D02*
Y206693D01*
X21260D02*
X21579Y206374D01*
X11811Y206693D02*
X14174D01*
X4921Y199803D02*
X11811Y206693D01*
X10827Y159449D02*
X14174D01*
X21260Y111886D02*
Y112205D01*
X68504Y111886D02*
Y112205D01*
X108343Y111886D02*
X108662Y112205D01*
X210236Y111886D02*
Y112205D01*
X250075Y111886D02*
X250394Y112205D01*
X257480Y111886D02*
Y112205D01*
X61418Y17398D02*
Y17717D01*
X115748Y67914D02*
X155906D01*
X210236D02*
X250394D01*
X302756Y64961D02*
X303106Y64610D01*
X257480Y159449D02*
X257830Y159098D01*
X295319D02*
X295670Y159449D01*
X210236D02*
X210586Y159098D01*
X202800D02*
X203150Y159449D01*
X190265Y162402D02*
X203150D01*
X115748Y159449D02*
X116098Y159098D01*
X155555D02*
X155906Y159449D01*
X21260D02*
X21610Y159098D01*
X61067D02*
X61418Y159449D01*
X302756Y256890D02*
X344882D01*
X302756Y253937D02*
X303106Y253587D01*
X344532D01*
X344882Y253937D01*
X115748Y256890D02*
X155906D01*
X162992D02*
X203150D01*
X257480D02*
X295670D01*
X257480Y253937D02*
X257830Y253587D01*
X210236Y253937D02*
X210586Y253587D01*
X162992Y253937D02*
X163342Y253587D01*
X202800D02*
X203150Y253937D01*
X68504Y256890D02*
X108662D01*
X351968Y162402D02*
X357283D01*
X362205Y157480D01*
X357283Y109252D02*
X362205Y114173D01*
X351968Y159449D02*
X355315D01*
X12795Y109252D02*
X14174D01*
X11811Y64961D02*
X14174D01*
X10827Y112205D02*
X14174D01*
X155906Y343504D02*
X155906Y343504D01*
X203150Y343504D02*
X203150Y343504D01*
X304659Y341600D02*
X313800D01*
X302756Y343504D02*
X304724Y341535D01*
X162992Y343504D02*
X170276D01*
X29528Y209843D02*
X53150D01*
X61418Y343504D02*
X63421Y341500D01*
X299200Y11824D02*
Y19870D01*
X17800Y98342D02*
Y113600D01*
Y98342D02*
X21260Y94882D01*
X71851Y250984D02*
X75787Y247047D01*
X114173Y40118D02*
X123031Y48976D01*
Y58976D01*
X120000Y62008D02*
X123031Y58976D01*
X210236Y115158D02*
X217700D01*
X218542Y116000D01*
X222000D01*
X210236Y111886D02*
X250075D01*
X210236Y109252D02*
X250394D01*
X264764Y20670D02*
X266732Y22638D01*
X257480Y20670D02*
X264764D01*
X302756Y14764D02*
X344882D01*
X305709Y29825D02*
X308896Y26638D01*
X319819D02*
X319882Y26575D01*
X308896Y26638D02*
X319819D01*
X298622Y23622D02*
X310039D01*
X299200Y11824D02*
X302165Y8858D01*
X308008Y4858D02*
X308071Y4921D01*
Y5906D01*
X257480Y111886D02*
X260129D01*
X257480Y109252D02*
X295670D01*
Y151969D02*
Y156496D01*
X135827Y137795D02*
X139764Y141732D01*
X68702Y151575D02*
X68898Y151379D01*
X39671Y154528D02*
X39961D01*
X257480Y14764D02*
X257543Y14827D01*
X295606D02*
X295670Y14764D01*
X257543Y14827D02*
X295606D01*
X302756Y109252D02*
X344882D01*
X302756Y111886D02*
X344563D01*
X317000Y114840D02*
X325000D01*
X320400Y119500D02*
X321000Y118900D01*
X350000Y117126D02*
Y138189D01*
Y117126D02*
X351968Y115158D01*
X348300Y199678D02*
Y208346D01*
X68504Y115158D02*
X76772D01*
X68504Y109252D02*
X108662D01*
X68504Y111886D02*
X108343D01*
X61418Y62008D02*
X63976Y59449D01*
Y52165D02*
Y59449D01*
X59055Y47244D02*
X63976Y52165D01*
X53150Y47244D02*
X59055D01*
X68504Y45276D02*
Y62008D01*
X112300Y106800D02*
X118706Y100394D01*
X44291Y136811D02*
X69882D01*
X96457Y141732D02*
X103347Y134843D01*
X35433Y141732D02*
X96457D01*
X254200Y94700D02*
X254412Y94488D01*
X254921D01*
X61418Y115158D02*
X61418Y115157D01*
X63244D01*
X64961Y113441D01*
Y107283D02*
Y113441D01*
Y107283D02*
X67913Y104331D01*
X76772D01*
X17600Y194998D02*
Y208045D01*
Y194998D02*
X29528Y183071D01*
X30512Y189961D02*
X30575Y189898D01*
X226300Y285900D02*
X226831Y285369D01*
X343504Y356299D02*
Y358268D01*
X294156Y356299D02*
X295276D01*
X6890Y22638D02*
X11811Y17717D01*
X6890Y22638D02*
X6890D01*
X5906Y14764D02*
X5906Y14764D01*
X108700Y20670D02*
X111652Y23622D01*
X126968D01*
X127953Y22637D01*
Y22145D02*
Y22637D01*
X117126Y29800D02*
X117754Y29172D01*
X117398Y29528D02*
X127953D01*
X99016Y8858D02*
X109252D01*
X98425Y340945D02*
X100984D01*
X149606Y339567D02*
X154528Y334646D01*
X149606Y339567D02*
Y339567D01*
X148228Y340945D02*
X149606Y339567D01*
X145669Y340945D02*
X148228D01*
X192913D02*
X197244D01*
X240158Y340945D02*
X244488D01*
X285433Y340945D02*
X287992D01*
X334646D02*
X338976D01*
X333661Y306693D02*
X338976D01*
X284449Y306102D02*
X289173D01*
X144685Y306693D02*
X150000D01*
X111068Y315945D02*
X117894Y309118D01*
X132562D01*
X22638Y311221D02*
X27756Y306102D01*
X54921D01*
X60039Y311221D01*
X50197Y291732D02*
X50465Y292000D01*
X59646Y355906D02*
X60039Y356299D01*
X51181Y355906D02*
X59646D01*
X192913D02*
X193504Y355315D01*
X206172D01*
X214357Y363500D01*
X285433Y355315D02*
X293172D01*
X294156Y356299D01*
X334646Y356299D02*
X343504D01*
X22244Y268110D02*
X29528Y260827D01*
X22244Y268110D02*
Y269685D01*
X60039D02*
X60433D01*
X60039Y267519D02*
Y269685D01*
X70547Y259178D01*
X95201D01*
X97441Y261417D01*
X98276D01*
X97441D02*
X100492D01*
X142445Y259178D02*
X144685Y261417D01*
X146260D01*
X166142Y260039D02*
X192126D01*
X201772Y269685D02*
X210630Y260827D01*
X97441Y291732D02*
X102756D01*
X142717Y289764D02*
X144685Y291732D01*
X192961Y290700D02*
X202900D01*
X191929Y291732D02*
X192961Y290700D01*
X249016Y312992D02*
X249508Y313484D01*
X249016Y269685D02*
X257874Y260827D01*
X284449D01*
X294488Y269488D02*
X294685Y269685D01*
X284386Y246394D02*
X284449Y246457D01*
X344882Y250984D02*
Y250984D01*
X294488Y269488D02*
X303150Y260827D01*
X333661Y261417D02*
X335630D01*
X343898Y269685D01*
X303150Y260827D02*
X333661D01*
X325787Y294094D02*
X331299D01*
X333661Y291732D01*
X354921Y315945D02*
Y321457D01*
X358267Y324802D01*
X45276Y193898D02*
X47835D01*
X51181Y197244D01*
X79724Y196850D02*
X90551Y186024D01*
X64800Y202000D02*
X67300Y199500D01*
X54071Y189898D02*
X61023Y196850D01*
X79724D01*
X67300Y199500D02*
X89717D01*
X97441Y191776D01*
X98425Y197244D02*
X102953D01*
X109252Y190945D01*
X31496Y197244D02*
X38780D01*
X193100Y181700D02*
X193246Y181846D01*
X237795Y199606D02*
X240158Y197244D01*
X285433Y197244D02*
X287008Y198819D01*
X330905Y199606D02*
X333661Y196850D01*
X335630Y211614D02*
X342520Y218504D01*
X343504D01*
X107283D02*
X111787Y214000D01*
X125843D01*
X127843Y216000D01*
X131157D01*
X30512Y166929D02*
X38229D01*
X22244Y175197D02*
X30512Y166929D01*
X60039Y175197D02*
X60433D01*
X51772Y166929D02*
X60039Y175197D01*
X51181Y166929D02*
X51772D01*
X98425D02*
X106693Y175197D01*
X107283D01*
X107677D01*
X107283D02*
X117780Y164700D01*
X108311Y159098D02*
X108662Y159449D01*
X68504D02*
X68854Y159098D01*
X108311D01*
X69945Y165291D02*
X96787D01*
X98425Y166929D01*
X60039Y175197D02*
X69945Y165291D01*
X239300Y166600D02*
X240093D01*
X249464Y175197D02*
X258861Y165800D01*
X286371D01*
X294291Y173721D01*
X325757Y165900D02*
X333616D01*
X294291Y175197D02*
X303688Y165800D01*
X333616Y165900D02*
X334646Y166929D01*
X335236D01*
X343504Y175197D01*
X324900Y154331D02*
X332283D01*
X334646Y151969D01*
X285433D02*
X285500Y152035D01*
Y152331D02*
X285648Y152183D01*
X249016Y125984D02*
X253665Y130634D01*
X207372Y130600D02*
X210565D01*
X210599Y130634D01*
X200000Y132677D02*
X280380Y132780D01*
X192913Y117717D02*
X194488D01*
X202461Y125689D02*
Y125689D01*
X202165Y125984D02*
X202461Y125689D01*
X194488Y117717D02*
X201772Y125000D01*
X202461Y125689D01*
X201772Y124016D02*
Y125000D01*
Y125000D01*
X202461Y125689D01*
X207372Y130600D01*
X200984Y124803D02*
X201279Y124508D01*
X201772Y124016D01*
X98425Y117717D02*
X99410D01*
X106496Y124803D01*
X107677Y125984D01*
X106496Y124803D02*
X107283Y124016D01*
X113901Y130634D01*
X66658D02*
X100665D01*
X106496Y124803D01*
X60039Y124016D02*
X66658Y130634D01*
X22244Y125984D02*
X23228D01*
X31496Y117717D01*
X31773Y117600D02*
X52200D01*
X58616Y124016D01*
X60039D01*
X51181Y102756D02*
X51772Y103347D01*
X61024D01*
X28149Y99409D02*
X31496Y102756D01*
X23622Y99409D02*
X28149D01*
X23622Y99213D02*
X23720Y99311D01*
X99016Y103346D02*
X109252D01*
X98425Y102756D02*
X99016Y103346D01*
X240158Y102756D02*
X241732Y104331D01*
X272638D01*
X285400Y102756D02*
X285433D01*
X289370Y94488D02*
Y98786D01*
X285400Y102756D02*
X289370Y98786D01*
X328556Y102756D02*
X334646D01*
Y117717D02*
X337205D01*
X343504Y124016D01*
X334646Y72441D02*
X335630D01*
X321490Y71976D02*
X334646D01*
X335630Y72441D02*
X343898Y80709D01*
X285433Y72441D02*
X286024D01*
X294291Y80709D02*
X294685D01*
X286024Y72441D02*
X294291Y80709D01*
X294685D02*
X294739D01*
X249016Y78075D02*
X254491Y72600D01*
X285433D01*
X240158Y72441D02*
X242224D01*
X201772Y80709D02*
X210180Y72300D01*
X239057D01*
X240158Y71200D01*
X192913Y72441D02*
X194980D01*
X164436Y70800D02*
X193000D01*
X145669Y72441D02*
X153937Y80709D01*
X154528D01*
X154921D01*
X154528D02*
X164436Y70800D01*
X143110Y154528D02*
X145669Y151969D01*
X192913Y151575D02*
Y151969D01*
X285433Y117717D02*
X287008D01*
X294685Y125984D02*
X294980Y125689D01*
X294685Y125984D02*
X294685D01*
X287008Y117717D02*
X293799Y124508D01*
X294291Y125000D01*
X294980Y125689D01*
X299213Y129921D01*
X293799Y124508D02*
X294291Y124016D01*
X240158Y117717D02*
X241516D01*
X146246Y116746D02*
X153516Y124016D01*
X154528D01*
X119658Y115158D02*
X121800Y117300D01*
X123000D01*
X172183Y88582D02*
X172244D01*
X134158Y85358D02*
X168958D01*
X157300Y102500D02*
X159743D01*
X167600Y94643D01*
Y89943D02*
Y94643D01*
X165600Y102300D02*
X180118Y87782D01*
Y74803D02*
Y87782D01*
X169536Y106964D02*
X173800Y102700D01*
X160501Y106964D02*
X169536D01*
X159622Y107843D02*
X160501Y106964D01*
X159622Y107843D02*
Y113378D01*
X157842Y115158D02*
X159622Y113378D01*
X155906Y115158D02*
X157842D01*
X155900Y91700D02*
Y91924D01*
X162908Y91535D02*
X163535D01*
X158043Y96400D02*
X162908Y91535D01*
X245298Y91598D02*
X246200Y92500D01*
X226600Y96900D02*
X247491D01*
X250000Y99410D01*
X233900Y103600D02*
X233998D01*
X193574Y22174D02*
X201900Y30500D01*
X160897Y26846D02*
X169315D01*
X177901Y35433D01*
X165945Y31496D02*
Y41555D01*
X165900Y41510D02*
X165945Y41555D01*
X165900Y40900D02*
Y41510D01*
X268028Y11500D02*
X268701Y10827D01*
X240300Y23100D02*
X241400D01*
X248422Y30122D01*
X242126Y36417D02*
X248422Y30122D01*
X286516Y21752D02*
X294291Y29528D01*
X286036Y9264D02*
X290442Y4858D01*
X308008D01*
X335728Y21752D02*
X343504Y29528D01*
X335000Y57300D02*
X336401D01*
X348330Y24117D02*
Y27626D01*
X347900Y28056D02*
X348330Y27626D01*
X347900Y28056D02*
Y49424D01*
X350600Y28184D02*
X351938Y26846D01*
X350600Y28184D02*
Y45482D01*
X354331Y49213D01*
X335542Y9558D02*
X343789D01*
X344488Y8858D01*
X206600Y12691D02*
X210433Y8858D01*
X227362D01*
X239665Y7382D02*
Y7628D01*
X243538Y11500D01*
X268028D01*
X208195Y8268D02*
X212353Y4110D01*
X192913Y8268D02*
X208195D01*
X212353Y4110D02*
X245910D01*
X249200Y7400D01*
X132874Y9843D02*
X144094D01*
X145669Y8268D01*
X153419Y30978D02*
X153937Y31496D01*
X147979Y36417D02*
X153419Y30978D01*
X154528Y29869D01*
X153937Y31496D02*
X154528D01*
X154921D01*
X154528Y33216D02*
X160897Y26846D01*
X147128Y23228D02*
X153419Y29519D01*
Y30978D01*
X145669Y23228D02*
X147128D01*
X154021Y3421D02*
X159300Y8700D01*
X98425Y8268D02*
X99016Y8858D01*
X59646Y8268D02*
X61024Y6890D01*
X51181Y8268D02*
X59646D01*
X23622Y7874D02*
X31102D01*
X31496Y8268D01*
X23622Y54134D02*
X28150D01*
X31496Y57480D01*
X58662D02*
X59055Y57087D01*
X51181Y57480D02*
X58662D01*
X102362Y213583D02*
X107283Y218504D01*
X98783Y213583D02*
X98800Y213600D01*
X77374Y213583D02*
X102362D01*
X192913Y212205D02*
X195472D01*
X201772Y218504D01*
X286516Y210728D02*
X294291Y218504D01*
X71100Y334600D02*
X81693D01*
X71054Y334646D02*
X71100Y334600D01*
X11220Y331298D02*
Y332677D01*
X39847Y247800D02*
X44989D01*
X50197Y246457D02*
X53740D01*
X21260Y251059D02*
X36588D01*
X39847Y247800D01*
X102756Y241142D02*
X109252D01*
X97441Y246457D02*
X102756Y241142D01*
X68854Y253587D02*
X108311D01*
X108662Y253937D01*
X108662Y250984D02*
X108662Y250984D01*
X108662Y250984D02*
X108662D01*
X89200Y247300D02*
X90100D01*
X93784Y250984D01*
X108662D01*
X142700Y244472D02*
X144685Y246457D01*
X191929Y239671D02*
Y246457D01*
Y239671D02*
X194300Y237300D01*
X155555Y253587D02*
X155906Y253937D01*
X115748D02*
X116098Y253587D01*
X155555D01*
X365300Y213725D02*
Y245920D01*
X363300Y215662D02*
Y244431D01*
X354331Y206693D02*
X363300Y215662D01*
X353794Y253937D02*
X363300Y244431D01*
X355315Y203740D02*
X365300Y213725D01*
X354330Y256890D02*
X365300Y245920D01*
X347400Y214214D02*
Y229400D01*
Y214214D02*
X351968Y209646D01*
X354900Y221128D02*
Y229300D01*
Y221128D02*
X354921Y221106D01*
X347400Y229400D02*
Y248466D01*
X344882Y250984D02*
X347400Y248466D01*
X344532Y159098D02*
X344882Y159449D01*
X302756D02*
X303106Y159098D01*
X190233Y162370D02*
X190265Y162402D01*
X189404Y164370D02*
X189436Y164402D01*
X190386D01*
X192913Y166929D01*
X30512Y72441D02*
X31496D01*
X22244Y80709D02*
X30512Y72441D01*
X31496D02*
X51181D01*
X59449Y80709D01*
X60039D01*
X60433D01*
X60039Y79161D02*
Y80709D01*
Y79161D02*
X66365Y72835D01*
X98032D02*
X98425Y72441D01*
X83661Y72835D02*
X98032D01*
X98425Y72441D02*
X106693Y80709D01*
X107677D01*
X115945Y72441D01*
X145669D01*
X329871Y69976D02*
X331934Y67914D01*
X344882D01*
X324803Y63976D02*
X326771D01*
X328740Y62008D01*
X201900Y47400D02*
X202600D01*
X199866Y44354D02*
X201900Y46388D01*
X216300Y47000D02*
Y59804D01*
X201900Y46388D02*
Y46600D01*
Y47400D01*
X198819Y40354D02*
X199173Y40000D01*
X318300D01*
X198420Y57480D02*
X208900Y47000D01*
Y45483D02*
Y47000D01*
X192913Y57480D02*
X198420D01*
X129879Y3421D02*
X154021D01*
X123500Y9800D02*
X129879Y3421D01*
X115000Y9800D02*
X123500D01*
X112300Y12500D02*
X115000Y9800D01*
X5906Y14764D02*
X14174D01*
X15146Y27725D02*
Y39654D01*
X2890Y125410D02*
X10300Y118000D01*
X19300D01*
X2890Y125410D02*
Y143018D01*
X14174Y154302D01*
X11220Y125984D02*
Y131869D01*
X9350Y133739D02*
X11220Y131869D01*
X32480Y144685D02*
X35433Y141732D01*
X45276Y129921D02*
X48228Y132874D01*
X10000Y245200D02*
X11100D01*
X14764Y241536D01*
X6334Y304134D02*
X6468Y304000D01*
X5276Y310000D02*
X11220Y315945D01*
X81693Y334600D02*
Y334646D01*
X69729Y310039D02*
X84461D01*
X88397Y306103D01*
X100394D01*
X201772Y334646D02*
X203587D01*
X210205Y328028D01*
X218657Y318898D02*
X243110D01*
X216960Y320595D02*
X218657Y318898D01*
X207457Y320600D02*
X209457Y322600D01*
X210280Y320595D02*
X216960D01*
X205630Y315945D02*
X210280Y320595D01*
X199054Y320600D02*
X207457D01*
X201772Y315945D02*
X205630D01*
X324500Y313000D02*
X327500Y310000D01*
X295670Y304134D02*
X297977D01*
X300743Y306900D01*
X299100Y293420D02*
Y302304D01*
X300930Y304134D01*
X302756D01*
X257843Y328028D02*
X263023D01*
X263023Y328028D01*
X264204D01*
X257015Y326028D02*
X263851D01*
X263851Y326028D01*
X257843Y320595D02*
X264204D01*
X263851Y326028D02*
X293067D01*
X254100Y322600D02*
X254400Y322900D01*
X256142Y326900D02*
X257015Y326028D01*
X252345Y326900D02*
X256142D01*
X251225Y334646D02*
X257843Y328028D01*
X250733Y313484D02*
X257843Y320595D01*
X249508Y313484D02*
X250733D01*
X249016Y334646D02*
X251225D01*
X250045Y324600D02*
X252345Y326900D01*
X240400Y333000D02*
Y333419D01*
X230252Y343567D02*
X240400Y333419D01*
X243370Y329000D02*
X249016Y334646D01*
X227016Y334300D02*
X229900D01*
X213583Y332677D02*
X213646Y332613D01*
X218730D01*
X219943Y331400D01*
X224116D01*
X227016Y334300D01*
X216700Y329000D02*
X243370D01*
X215779Y328028D02*
X216657Y328906D01*
Y328958D01*
X210205Y328028D02*
X215779D01*
X216657Y328958D02*
X216700Y329000D01*
X196100Y323554D02*
X199054Y320600D01*
X160433Y326772D02*
X161417D01*
X107283Y334646D02*
X114173Y327756D01*
X147638D01*
X154528Y334646D01*
X60039Y331942D02*
X64225Y327756D01*
X100394D02*
X107283Y334646D01*
X64225Y327756D02*
X100394D01*
X14174Y351378D02*
X23095Y360299D01*
X11775Y348425D02*
X14174D01*
X10300Y349900D02*
X11775Y348425D01*
X10300Y349900D02*
Y352988D01*
X19712Y362400D01*
X95800Y322800D02*
X95860Y322740D01*
X96100Y315200D02*
X97600D01*
X103140Y320740D01*
X5500Y324000D02*
X12009Y330509D01*
X11220Y331298D02*
X12009Y330509D01*
X81444Y341535D02*
X83661D01*
X77444Y337535D02*
X81444Y341535D01*
X61418Y343504D02*
X65386Y339535D01*
X68504Y343504D02*
X70472Y341535D01*
X65386Y339535D02*
X72131D01*
X74131Y337535D01*
X77444D01*
X70472Y341535D02*
X75787D01*
X80400Y362400D02*
X86700Y356100D01*
X73401Y360299D02*
X77300Y356400D01*
X141864Y352100D02*
X145669Y355906D01*
X155843Y349346D02*
X155906Y349410D01*
X115748D02*
X115811Y349346D01*
X155843D01*
X125400Y354000D02*
X126600D01*
X128500Y352100D01*
X141864D01*
X121943Y356200D02*
X123743Y358000D01*
X127057D01*
X128857Y356200D01*
X139512D02*
X144064Y360752D01*
X115000Y356200D02*
X121943D01*
X112378Y344661D02*
Y353578D01*
X115000Y356200D01*
X108500Y343400D02*
X111096D01*
X178900Y323585D02*
Y323600D01*
X95860Y322740D02*
X162890D01*
X174400Y327500D02*
X178600Y323300D01*
X174300Y327600D02*
X174400Y327500D01*
X167750Y327600D02*
X174300D01*
X162890Y322740D02*
X167750Y327600D01*
X103140Y320740D02*
X168640D01*
X171500Y323600D01*
X195071Y225204D02*
X201772Y218504D01*
X208472Y225204D01*
X210048D01*
X210599Y225756D01*
X215779D01*
X209219Y227204D02*
X209771Y227756D01*
X216607D01*
X208391Y229204D02*
X208942Y229756D01*
X217436D01*
X217992Y229200D01*
X216607Y227756D02*
X217163Y227200D01*
X215779Y225756D02*
X216335Y225200D01*
X202000Y250984D02*
X204216D01*
X215600Y239600D01*
X217700D01*
X210236Y250984D02*
X216716D01*
X119095Y269685D02*
X124515D01*
X128000Y266200D01*
X147638Y166831D02*
X154528Y173721D01*
X117780Y164700D02*
X121743D01*
X123143Y163300D01*
X126457D01*
X115748Y162402D02*
X121213D01*
X122315Y161300D01*
X127285D01*
X128387Y162402D01*
X155906D01*
X129988Y166831D02*
X147638D01*
X126457Y163300D02*
X129988Y166831D01*
X162992Y156496D02*
X174239D01*
X179843Y162700D02*
X183157D01*
X186758Y159098D01*
X163023Y162370D02*
X176685D01*
X179015Y164700D01*
X183985D01*
X186315Y162370D01*
X190233D01*
X165802Y164370D02*
X175856D01*
X178186Y166700D01*
X184814D01*
X187144Y164370D01*
X189404D01*
X162992Y159449D02*
X163041Y159400D01*
X160400Y154200D02*
X177600D01*
X176800Y152339D02*
X177600Y153138D01*
Y153800D01*
Y152677D02*
Y153800D01*
X174715Y159800D02*
X176943D01*
X179843Y162700D01*
X174239Y156496D02*
X175543Y157800D01*
X180600D01*
X163041Y159400D02*
X174315D01*
X174715Y159800D01*
X180200Y157400D02*
X181500Y158700D01*
X180600Y157800D02*
X181500Y158700D01*
X186758Y159098D02*
X202800D01*
X189712Y156496D02*
X203150D01*
X143083Y154500D02*
X143110Y154528D01*
X138900Y154500D02*
X143083D01*
X78216Y124016D02*
X78500Y124300D01*
X69882Y124016D02*
X78216D01*
X78414Y116800D02*
X78500D01*
X76772Y115158D02*
X78414Y116800D01*
X98425Y57480D02*
X102953D01*
X109252Y51181D01*
X137500Y60400D02*
X142750D01*
X145669Y57480D01*
X199300Y94000D02*
X224657D01*
X197387Y128400D02*
X200984Y124803D01*
X190943Y128400D02*
X197387D01*
X295265Y111800D02*
X295670Y112205D01*
X260129Y111886D02*
X260215Y111800D01*
X250394Y115158D02*
X251900D01*
X289663Y135907D02*
X290870Y134700D01*
X292469Y138716D02*
X292995D01*
X283374Y147811D02*
X292469Y138716D01*
X279700Y141300D02*
X287057D01*
X289663Y138693D01*
Y135907D02*
Y138693D01*
X282457Y148690D02*
Y148729D01*
Y148690D02*
X283335Y147811D01*
X283374D01*
X341066Y130634D02*
X346881D01*
X354921Y134821D02*
X355100Y135000D01*
X354921Y125984D02*
Y134821D01*
X349211Y137400D02*
X350000Y138189D01*
X348400Y137400D02*
X349211D01*
X348400D02*
Y152502D01*
X344882Y156020D02*
Y156496D01*
Y156020D02*
X348400Y152502D01*
X327000Y116840D02*
Y119000D01*
X325000Y114840D02*
X327000Y116840D01*
X325484Y99684D02*
X328556Y102756D01*
X344882Y115158D02*
X346800D01*
Y121254D01*
X351968Y112205D02*
X355315D01*
X360236Y117126D01*
Y154528D01*
X362205Y114173D02*
X362236Y114205D01*
X351968Y109252D02*
X357283D01*
X362236Y114205D02*
Y157449D01*
X325484Y94016D02*
Y99684D01*
Y94016D02*
X332600Y86900D01*
X337700D01*
X341400Y90600D01*
Y92843D01*
X29528Y260827D02*
X53347D01*
X60039Y267519D01*
X50197Y236221D02*
Y239173D01*
X21260Y256890D02*
X61418D01*
X44989Y247800D02*
X45200Y248011D01*
Y248400D01*
X49522Y230500D02*
X51306Y232283D01*
X23300Y244757D02*
X25098Y246555D01*
X23300Y244600D02*
Y244757D01*
X71300Y241000D02*
X75600D01*
X61367Y250933D02*
X71300Y241000D01*
X59055Y241142D02*
X63197Y237000D01*
X178223Y153300D02*
X178923Y154000D01*
X187216D01*
X189712Y156496D01*
X31900Y177569D02*
X32100Y177369D01*
Y176000D02*
Y177369D01*
X38229Y166929D02*
X45700Y174400D01*
X51181Y168919D01*
Y166929D02*
Y168919D01*
X31900Y177569D02*
X32731Y178400D01*
X55216D01*
X66839Y190024D01*
X35100Y230500D02*
X49522D01*
X21260Y253937D02*
X61418D01*
X335501Y181001D02*
Y181455D01*
X305709Y175197D02*
X315403D01*
X232473Y187800D02*
X233300Y186973D01*
X208100Y195700D02*
X209202D01*
X256357Y194700D02*
X258700Y192357D01*
X251198Y188398D02*
X253500Y190700D01*
X254700D01*
X253200Y189713D02*
X254094Y190606D01*
X258700Y188743D02*
Y192357D01*
Y188743D02*
X261153Y186290D01*
X256057Y188557D02*
Y188643D01*
Y188557D02*
X256700Y187915D01*
X256700D01*
X248741Y190398D02*
X253043Y194700D01*
X256357D01*
X252000Y196700D02*
X271800D01*
X247698Y192398D02*
X252000Y196700D01*
X251900Y115158D02*
X256542Y119800D01*
X274500Y118800D02*
Y119600D01*
X305634Y119500D02*
Y125984D01*
X118701Y80709D02*
Y82322D01*
X68504Y67914D02*
X86328D01*
X88915Y70500D01*
X68504Y64961D02*
X86204D01*
X89743Y68500D01*
X86500Y53264D02*
X86614Y53150D01*
X86500Y59257D02*
X89643Y62400D01*
X86500Y53264D02*
Y59257D01*
X95449Y69162D02*
X96328Y68283D01*
X93449Y68334D02*
X96822Y64961D01*
X93283Y68500D02*
X93449Y68334D01*
Y68334D02*
Y68334D01*
X94111Y70500D02*
X95449Y69162D01*
Y69162D02*
Y69162D01*
X108292Y68283D02*
X108662Y67914D01*
X96328Y68283D02*
X108292D01*
X88915Y70500D02*
X94111D01*
X89743Y68500D02*
X93283D01*
X89643Y62400D02*
Y62443D01*
X208400Y309800D02*
X211603Y313003D01*
X208100Y309800D02*
X208400D01*
X164362Y109252D02*
X203150D01*
X115748Y112205D02*
X155906D01*
X162992D02*
X177538D01*
X178343Y111400D01*
X181657D01*
X182462Y112205D01*
X203150D01*
X179758Y115158D02*
X180000Y115400D01*
X162992Y115158D02*
X179758D01*
X161512Y131000D02*
X188343D01*
X154528Y124016D02*
X161512Y131000D01*
X188343D02*
X190943Y128400D01*
X167039Y127000D02*
X174400D01*
X287673Y130634D02*
X293799Y124508D01*
X351500Y89900D02*
X352242D01*
X32256Y356299D02*
X38386D01*
X19712Y362400D02*
X80400D01*
X23095Y360299D02*
X73401D01*
X21260Y351378D02*
X24606D01*
X26638Y349346D01*
X61355D01*
X25272Y346776D02*
X61099D01*
X5500Y347400D02*
X6099D01*
X8026Y345472D01*
X14174D01*
X16400Y340300D02*
Y340613D01*
X21260Y345472D01*
X6468Y304000D02*
X11668Y309200D01*
X13023Y307845D01*
X15748D01*
X5276Y310000D02*
X5400Y309876D01*
X6224Y310700D01*
X6600D01*
X13700Y41100D02*
X15146Y39654D01*
X13700Y41100D02*
Y51200D01*
X347900Y49424D02*
X351441Y52965D01*
Y56341D02*
X351500Y56400D01*
X13700Y51200D02*
X20000Y57500D01*
Y62008D01*
X76500Y33736D02*
Y39000D01*
X60039Y29528D02*
X73512Y43000D01*
X71500Y29528D02*
X72291D01*
X76500Y33736D01*
X72557Y22957D02*
X81400Y31800D01*
X329484Y97531D02*
X330316Y96700D01*
X351500D01*
X351441Y52965D02*
Y56341D01*
X58900Y147800D02*
Y148580D01*
X54398Y95598D02*
X150682D01*
X151484Y96400D01*
X158043D01*
X64902Y93598D02*
X154225D01*
X155900Y91924D01*
X109498Y91598D02*
X150345D01*
X165192Y87535D02*
X167600Y89943D01*
X150345Y91598D02*
X154408Y87535D01*
X165192D01*
X352242Y89900D02*
X353043Y90700D01*
X354921Y88821D01*
Y80709D02*
Y88821D01*
X14400Y26980D02*
X15146Y27725D01*
X14174Y20670D02*
X14400D01*
Y26980D01*
X37402Y151969D02*
X39961Y154528D01*
X31496Y151969D02*
X37402D01*
X51181D02*
X55512D01*
X58900Y148580D01*
X61418Y156496D02*
X62992D01*
X21610Y159098D02*
X35757D01*
X37186Y160528D01*
X42156D01*
X43586Y159098D01*
X61067D01*
X21260Y162402D02*
X21385Y162528D01*
X61292D02*
X61418Y162402D01*
X21385Y162528D02*
X61292D01*
X35983Y156496D02*
X38014Y158528D01*
X41328D01*
X43360Y156496D01*
X55861D01*
X62992D02*
X68898Y150591D01*
Y151379D01*
X70555Y146591D02*
X72898Y148934D01*
X21260Y156496D02*
X35983D01*
X55861D02*
X65766Y146591D01*
X70555D01*
X68649Y156496D02*
X72898Y152247D01*
Y148934D02*
Y152247D01*
X115748Y156496D02*
X115852Y156600D01*
X75600Y145900D02*
X97210D01*
X105315Y137795D01*
X98425Y151969D02*
X104921D01*
X107800Y148700D02*
Y149090D01*
X104921Y151969D02*
X107800Y149090D01*
X103883Y156496D02*
X106170Y154208D01*
X108121D01*
X68504Y156496D02*
X68649D01*
X103883D01*
X118110Y125984D02*
X127953D01*
X113901Y130634D02*
X128960D01*
X129736Y129858D01*
X148685D01*
X103347Y134843D02*
X138044D01*
X105315Y137795D02*
X135827D01*
X84646Y25591D02*
X87598Y22638D01*
X102165D01*
X107283Y27756D01*
X21260Y17717D02*
X21579Y17398D01*
X61418D01*
X22638Y27756D02*
X27756Y22638D01*
X54921D01*
X60039Y27756D01*
X73512Y43000D02*
X87906D01*
X94551Y36354D01*
X101441D02*
X107283Y30512D01*
Y27756D02*
Y30512D01*
X94551Y36354D02*
X101441D01*
X328429Y67976D02*
X331444Y64961D01*
X344882D01*
X140354Y102756D02*
X145669D01*
X138779Y104331D02*
X140354Y102756D01*
X205800Y324600D02*
X250045D01*
X209457Y322600D02*
X254100D01*
X264580Y342520D02*
X265748D01*
X255234Y304134D02*
X257480D01*
X254100Y303000D02*
X255234Y304134D01*
X250394Y304528D02*
X254921Y309055D01*
X257480Y298228D02*
X295670D01*
X257799Y300862D02*
X295670D01*
X239173Y306693D02*
X240150D01*
Y306148D02*
Y306693D01*
X210236Y298228D02*
X210362Y298102D01*
X250268D02*
X250394Y298228D01*
Y304134D02*
X251600D01*
X250394D02*
Y304528D01*
X246681Y300102D02*
X247441Y300862D01*
X250075D01*
X254100Y295113D02*
Y303000D01*
Y295113D02*
X259456Y289756D01*
X210362Y298102D02*
X250268D01*
X210236Y300862D02*
X242607D01*
X243367Y300102D01*
X246681D01*
X240150Y306148D02*
X244150D01*
X249016Y311015D01*
Y312992D01*
X226831Y285369D02*
X227878Y286417D01*
X234252D01*
X239173Y291339D01*
Y291732D01*
X244551Y286354D01*
X266669D01*
X272638Y292323D01*
X284449Y290354D02*
Y291732D01*
X299100Y293420D02*
X301181Y291339D01*
X308071Y290354D02*
Y291339D01*
X284449Y290354D02*
X288386Y286417D01*
X304134D01*
X308071Y290354D01*
X255906Y280405D02*
Y280512D01*
X249835Y274335D02*
X255906Y280405D01*
X226378Y276575D02*
Y278378D01*
X44603Y277622D02*
X74740D01*
X82900Y269462D01*
X37402Y272638D02*
X39619D01*
X44603Y277622D01*
X23622Y283465D02*
Y283858D01*
X31496Y291732D01*
X50465Y292000D02*
X59001Y283464D01*
X60039D01*
X65100Y292183D02*
Y303000D01*
Y292183D02*
X73819Y283465D01*
X109252D02*
Y285236D01*
X102756Y291732D02*
X109252Y285236D01*
X122047Y283465D02*
Y286053D01*
X112100Y296000D02*
X122047Y286053D01*
X159600Y290300D02*
X164370Y285530D01*
Y283465D02*
Y285530D01*
X195547Y286700D02*
X205007D01*
X208661Y290354D01*
X22638Y334646D02*
X28543Y340551D01*
X54134D01*
X60039Y334646D01*
X128857Y356200D02*
X139512D01*
X31496Y129921D02*
X45276D01*
X10521Y162689D02*
X13886D01*
X6571Y166640D02*
X10521Y162689D01*
X4571Y165705D02*
X10827Y159449D01*
X11220Y170134D02*
Y175197D01*
Y170134D02*
X17889Y163465D01*
X17600Y133600D02*
X17889Y133889D01*
Y163465D01*
X68504Y17717D02*
X76036D01*
X76099Y17653D01*
X79413D01*
X79476Y17717D01*
X108662D01*
X115748D02*
X155906D01*
X162992D02*
X203150D01*
X210236D02*
X250394D01*
X257480D02*
X295670D01*
X302756D02*
X344882D01*
X21260Y64961D02*
X61418D01*
X89643Y62443D02*
X91663Y64463D01*
X96822Y64961D02*
X108662D01*
X115748D02*
X155906D01*
X162992D02*
X203150D01*
X210236D02*
X250394D01*
X210236Y62008D02*
X214096D01*
X216300Y59804D01*
X257480Y64961D02*
X295670D01*
X262368Y60000D02*
X265200D01*
X257480Y62008D02*
X260361D01*
X262368Y60000D01*
X285800Y49000D02*
Y59643D01*
X301400Y60652D02*
X302756Y62008D01*
X301400Y55443D02*
Y60652D01*
X299057Y53100D02*
X301400Y55443D01*
X281698Y60000D02*
X283340Y61643D01*
X265200Y60000D02*
X281698D01*
X283340Y61643D02*
X287201D01*
X287205Y61638D01*
X295743Y53100D02*
X299057D01*
X293400Y55443D02*
X295743Y53100D01*
X351500Y56400D02*
Y61539D01*
X351968Y62008D01*
X212043Y99600D02*
X215357D01*
X219157Y103400D02*
X234198D01*
X215357Y99600D02*
X219157Y103400D01*
X192913Y102756D02*
X208887D01*
X212043Y99600D01*
X206800Y107672D02*
X210872Y103600D01*
X213700D01*
X206800Y107672D02*
Y114000D01*
X195500Y90200D02*
X199300Y94000D01*
X195500Y89700D02*
Y90200D01*
X226600Y96900D02*
X227200Y97500D01*
X223000Y89300D02*
Y90000D01*
X227058Y91598D02*
X245298D01*
X224657Y94000D02*
X227058Y91598D01*
X248000Y88500D02*
X254200Y94700D01*
X223000Y89300D02*
X243743D01*
X244543Y88500D01*
X248000D01*
X68504Y20670D02*
X76772D01*
X77756Y21654D01*
X61418Y20670D02*
X63705Y22957D01*
X72557D01*
X203150Y20670D02*
X205880Y23400D01*
X227600D01*
X206600Y18859D02*
X208410Y20670D01*
X206600Y12691D02*
Y18859D01*
X208410Y20670D02*
X210236D01*
X305709Y29825D02*
Y31496D01*
X287205Y61638D02*
X289662D01*
X293400Y57900D01*
Y55443D02*
Y57900D01*
X240100Y57600D02*
X245472Y52228D01*
Y46260D02*
Y52228D01*
X161816Y270030D02*
X164370D01*
X154300Y277546D02*
Y278500D01*
Y277546D02*
X161816Y270030D01*
X226378Y278378D02*
X228700Y280700D01*
D14*
X167975Y391987D02*
X168975Y390988D01*
X170974D01*
X171974Y391987D01*
Y395986D01*
X170974Y396986D01*
X168975D01*
X167975Y395986D01*
Y394986D01*
X168975Y393987D01*
X171974D01*
X173973Y395986D02*
X174973Y396986D01*
X176972D01*
X177972Y395986D01*
Y394986D01*
X176972Y393987D01*
X175973D01*
X176972D01*
X177972Y392987D01*
Y391987D01*
X176972Y390988D01*
X174973D01*
X173973Y391987D01*
X179971Y390988D02*
Y391987D01*
X180971D01*
Y390988D01*
X179971D01*
X184970Y395986D02*
X185969Y396986D01*
X187969D01*
X188968Y395986D01*
Y391987D01*
X187969Y390988D01*
X185969D01*
X184970Y391987D01*
Y395986D01*
X190968D02*
X191967Y396986D01*
X193967D01*
X194966Y395986D01*
Y391987D01*
X193967Y390988D01*
X191967D01*
X190968Y391987D01*
Y395986D01*
D15*
X177165Y283465D02*
D03*
X247400Y240000D02*
D03*
X254100Y245700D02*
D03*
X226300Y248819D02*
D03*
X253300Y234200D02*
D03*
X175197Y313976D02*
D03*
X176399Y305118D02*
D03*
X196100Y323700D02*
D03*
X310600Y212700D02*
D03*
X319300Y216000D02*
D03*
X334646Y219488D02*
D03*
X295400Y245300D02*
D03*
X334500Y280900D02*
D03*
X160300Y214400D02*
D03*
X142700Y238600D02*
D03*
X142717Y186800D02*
D03*
X324600Y212300D02*
D03*
X285000Y174000D02*
D03*
X232000Y187800D02*
D03*
X280800Y218400D02*
D03*
X319000Y151300D02*
D03*
X327500Y309400D02*
D03*
X350600Y324800D02*
D03*
X329600Y189400D02*
D03*
X329300Y181400D02*
D03*
X317900Y306900D02*
D03*
X318900Y173400D02*
D03*
X324760Y196228D02*
D03*
X318898Y189961D02*
D03*
X335629Y187007D02*
D03*
X290000Y189900D02*
D03*
X258100Y150200D02*
D03*
X268200Y119800D02*
D03*
X277700Y152500D02*
D03*
X211300Y137000D02*
D03*
X221500Y125900D02*
D03*
X319000Y243800D02*
D03*
X268700Y152700D02*
D03*
X319700Y41400D02*
D03*
X245400Y151000D02*
D03*
X220800Y153200D02*
D03*
X210236Y149016D02*
D03*
X177700Y181600D02*
D03*
X173800Y175100D02*
D03*
X307900Y235900D02*
D03*
X173800Y216100D02*
D03*
X236220Y237204D02*
D03*
X229170Y243204D02*
D03*
X261000Y241100D02*
D03*
X222000Y187800D02*
D03*
X242800Y280700D02*
D03*
X223730Y233200D02*
D03*
X223700Y239300D02*
D03*
X217700D02*
D03*
X142717Y283465D02*
D03*
X126200Y149800D02*
D03*
X119900Y149600D02*
D03*
X121500Y235100D02*
D03*
X128700Y235200D02*
D03*
X129500Y212000D02*
D03*
X127000Y173200D02*
D03*
X127300Y195600D02*
D03*
X77756Y221457D02*
D03*
X358267Y324802D02*
D03*
X296260Y151770D02*
D03*
X97441Y188976D02*
D03*
X189961Y40354D02*
D03*
X319882Y82677D02*
D03*
X263779Y98425D02*
D03*
X246200Y92500D02*
D03*
X173228Y74803D02*
D03*
X46260Y78740D02*
D03*
X123977Y87598D02*
D03*
X161417Y56496D02*
D03*
X169291Y57087D02*
D03*
X79724Y78740D02*
D03*
X52165Y82043D02*
D03*
X354331Y49213D02*
D03*
X280512Y29528D02*
D03*
X277559Y22638D02*
D03*
X241142Y31496D02*
D03*
X220472D02*
D03*
X23622Y7874D02*
D03*
X37402Y29528D02*
D03*
X324803Y63976D02*
D03*
X342519Y51181D02*
D03*
X198819Y40354D02*
D03*
X284449Y82677D02*
D03*
X289370Y94488D02*
D03*
X297400Y57100D02*
D03*
X211614Y56102D02*
D03*
X266732Y92520D02*
D03*
X10827Y88583D02*
D03*
X23622Y99409D02*
D03*
X250000Y99410D02*
D03*
X335300Y180800D02*
D03*
X324900Y154331D02*
D03*
X298228Y100394D02*
D03*
X45276Y185039D02*
D03*
X109252Y228652D02*
D03*
X262700Y190400D02*
D03*
X69882Y186024D02*
D03*
X60039Y188976D02*
D03*
X41339Y199803D02*
D03*
X42323Y210630D02*
D03*
X109252Y190945D02*
D03*
X53149Y174212D02*
D03*
X219647Y216315D02*
D03*
X74100Y230800D02*
D03*
X10000Y228346D02*
D03*
X354331Y280512D02*
D03*
X287402Y277559D02*
D03*
X77756Y263779D02*
D03*
X83661Y269462D02*
D03*
X12795Y281496D02*
D03*
X341535D02*
D03*
X325787Y294094D02*
D03*
X282600Y313800D02*
D03*
X126969Y314961D02*
D03*
X83661D02*
D03*
X178150Y335630D02*
D03*
X83661Y305118D02*
D03*
X130905D02*
D03*
X125700Y334700D02*
D03*
X220472Y312007D02*
D03*
X224410Y306102D02*
D03*
X294291Y324803D02*
D03*
X354331Y340551D02*
D03*
X272638Y186024D02*
D03*
X180118Y30512D02*
D03*
Y74803D02*
D03*
X77756Y21654D02*
D03*
X84646Y25591D02*
D03*
X99410Y40354D02*
D03*
X266732Y22638D02*
D03*
X208661Y186024D02*
D03*
X226300Y285900D02*
D03*
X258858Y291339D02*
D03*
X268701Y212008D02*
D03*
X178150Y246063D02*
D03*
X123031Y247047D02*
D03*
X164000Y244800D02*
D03*
X45276Y193898D02*
D03*
X29528Y272638D02*
D03*
X327756Y325787D02*
D03*
X308071Y356299D02*
D03*
X137795Y356100D02*
D03*
X108268D02*
D03*
X202900Y290700D02*
D03*
X319882Y271400D02*
D03*
X122400Y339900D02*
D03*
X208100Y195700D02*
D03*
X325400Y266100D02*
D03*
X88600Y228500D02*
D03*
X227600Y23400D02*
D03*
X98000Y80100D02*
D03*
X225500Y212200D02*
D03*
X126200Y77400D02*
D03*
X329484Y97531D02*
D03*
X193100Y181700D02*
D03*
X74200Y211100D02*
D03*
X118200Y57700D02*
D03*
X6000Y57000D02*
D03*
X308071Y188976D02*
D03*
X278543Y342520D02*
D03*
X326772Y341535D02*
D03*
X319882D02*
D03*
X312992D02*
D03*
X83661Y72835D02*
D03*
X109252Y241142D02*
D03*
X59055D02*
D03*
X137992Y30709D02*
D03*
X258858Y356299D02*
D03*
X228346Y357283D02*
D03*
X132874Y8858D02*
D03*
X109252Y103346D02*
D03*
X59055Y57087D02*
D03*
X227362Y8858D02*
D03*
X148031Y30709D02*
D03*
X109252Y51181D02*
D03*
X29527Y88427D02*
D03*
X44291Y136811D02*
D03*
X75787Y247047D02*
D03*
X131758Y100394D02*
D03*
X222000Y116000D02*
D03*
X319882Y26575D02*
D03*
X329724Y29528D02*
D03*
X310039Y22638D02*
D03*
X302165Y8858D02*
D03*
X308071Y5906D02*
D03*
X272638Y104331D02*
D03*
X250000Y53150D02*
D03*
X245079Y46260D02*
D03*
X5906Y138779D02*
D03*
X39671Y154528D02*
D03*
X77756Y169291D02*
D03*
X268701Y10827D02*
D03*
X321000Y118900D02*
D03*
X329500Y134700D02*
D03*
X53150Y47244D02*
D03*
X68504Y45276D02*
D03*
X118706Y100394D02*
D03*
X159449Y190945D02*
D03*
X23622Y54134D02*
D03*
X44291Y103347D02*
D03*
X69882Y136811D02*
D03*
X91911D02*
D03*
X254921Y94488D02*
D03*
X76772Y104331D02*
D03*
X61024Y103347D02*
D03*
X343504Y358268D02*
D03*
X295276Y356299D02*
D03*
X6000Y22638D02*
D03*
Y14764D02*
D03*
X61024Y7874D02*
D03*
X127953Y22145D02*
D03*
Y30709D02*
D03*
X344488Y8858D02*
D03*
X60039Y356100D02*
D03*
X76772Y190945D02*
D03*
X40400Y117800D02*
D03*
X123000Y117300D02*
D03*
X172244Y88582D02*
D03*
X157300Y102500D02*
D03*
X173800Y102700D02*
D03*
X165600Y102300D02*
D03*
X155900Y91700D02*
D03*
X163535Y91535D02*
D03*
X233900Y103600D02*
D03*
X165900Y40900D02*
D03*
X249200Y7400D02*
D03*
X354600Y41300D02*
D03*
X123500Y8858D02*
D03*
X89200Y247300D02*
D03*
X194300Y237300D02*
D03*
X347400Y229400D02*
D03*
X354900Y229300D02*
D03*
X201900Y46600D02*
D03*
X216300D02*
D03*
X209100D02*
D03*
X6000Y40100D02*
D03*
X9350Y133739D02*
D03*
X32480Y144685D02*
D03*
X10000Y245200D02*
D03*
X42100Y305200D02*
D03*
X205800Y324600D02*
D03*
X254400Y322900D02*
D03*
X240400Y333000D02*
D03*
X229900Y334300D02*
D03*
X221600Y335400D02*
D03*
X160433Y326772D02*
D03*
X77300Y356100D02*
D03*
X86700D02*
D03*
X95800Y322800D02*
D03*
Y315200D02*
D03*
X5500Y324000D02*
D03*
X83661Y341535D02*
D03*
X75787D02*
D03*
X83661Y334646D02*
D03*
X125400Y354000D02*
D03*
X186900Y324000D02*
D03*
X128000Y266200D02*
D03*
X181500Y158700D02*
D03*
X177600Y153800D02*
D03*
X138900Y154500D02*
D03*
X78500Y124300D02*
D03*
Y116800D02*
D03*
X91500Y100400D02*
D03*
X137500Y60400D02*
D03*
X213700Y90000D02*
D03*
X187200Y136100D02*
D03*
X192300Y132700D02*
D03*
X335000Y142500D02*
D03*
X355100Y135000D02*
D03*
X348400Y137400D02*
D03*
X326600Y125000D02*
D03*
X327000Y119000D02*
D03*
X341400Y91000D02*
D03*
X335400D02*
D03*
X43307Y261811D02*
D03*
X50197Y239173D02*
D03*
X45200Y248400D02*
D03*
X23300Y244600D02*
D03*
X75600Y241000D02*
D03*
X32100Y176000D02*
D03*
X32200Y182700D02*
D03*
X32100Y189100D02*
D03*
X45700Y174400D02*
D03*
X35100Y230500D02*
D03*
X254800Y184100D02*
D03*
X254700Y190700D02*
D03*
X274500Y119600D02*
D03*
X184700Y55100D02*
D03*
X91300Y58400D02*
D03*
X87500Y53200D02*
D03*
X5500Y347400D02*
D03*
X208100Y309800D02*
D03*
X180000Y115400D02*
D03*
X174400Y127000D02*
D03*
X286000Y125100D02*
D03*
X351500Y89900D02*
D03*
X46500Y330300D02*
D03*
X38386Y356100D02*
D03*
X16400Y340300D02*
D03*
X15748Y307845D02*
D03*
X6600Y310700D02*
D03*
X13700Y51200D02*
D03*
X351500Y56400D02*
D03*
X143900Y333200D02*
D03*
X81400Y31800D02*
D03*
X76500Y39000D02*
D03*
X351500Y96700D02*
D03*
X20600Y229900D02*
D03*
X23500Y139300D02*
D03*
X58900Y147800D02*
D03*
X68898Y150591D02*
D03*
X75600Y145900D02*
D03*
X107800Y148700D02*
D03*
X127953Y125984D02*
D03*
X285800Y49000D02*
D03*
X138779Y104331D02*
D03*
X265748Y342520D02*
D03*
X272638Y291339D02*
D03*
X254921Y309055D02*
D03*
X301181Y291339D02*
D03*
X308071D02*
D03*
X232283D02*
D03*
X255906Y280512D02*
D03*
X226378Y276575D02*
D03*
X37402Y272638D02*
D03*
X46260D02*
D03*
X23622Y283465D02*
D03*
X53150D02*
D03*
X60039Y283464D02*
D03*
X73819Y283465D02*
D03*
X109252D02*
D03*
X122047D02*
D03*
X164370D02*
D03*
X193898Y276575D02*
D03*
X207677Y282480D02*
D03*
X31496Y129921D02*
D03*
X17600Y133600D02*
D03*
X91663Y64463D02*
D03*
X265200Y60000D02*
D03*
X213700Y103600D02*
D03*
X195500Y89700D02*
D03*
X227200Y97500D02*
D03*
X223000Y90000D02*
D03*
X109252Y8858D02*
D03*
X154300Y278500D02*
D03*
X269700Y307000D02*
D03*
M02*
