G04 Layer_Color=255*
%FSLAX25Y25*%
%MOIN*%
G70*
G01*
G75*
%ADD10R,0.02953X0.05315*%
%ADD11R,0.03740X0.01575*%
%ADD12R,0.03937X0.06299*%
D10*
X334646Y8268D02*
D03*
Y23228D02*
D03*
X285433Y8268D02*
D03*
Y23228D02*
D03*
X240158Y8268D02*
D03*
Y23228D02*
D03*
X192913Y8268D02*
D03*
Y23228D02*
D03*
X145669Y8268D02*
D03*
Y23228D02*
D03*
X98425Y8268D02*
D03*
Y23228D02*
D03*
X51181Y8268D02*
D03*
Y23228D02*
D03*
X31496Y8268D02*
D03*
Y23228D02*
D03*
X334646Y57480D02*
D03*
Y72441D02*
D03*
X285433Y57480D02*
D03*
Y72441D02*
D03*
X240158Y57480D02*
D03*
Y72441D02*
D03*
X192913Y57480D02*
D03*
Y72441D02*
D03*
X145669Y57480D02*
D03*
Y72441D02*
D03*
X98425Y57480D02*
D03*
Y72441D02*
D03*
X51181Y57480D02*
D03*
Y72441D02*
D03*
X31496Y57480D02*
D03*
Y72441D02*
D03*
X334646Y102756D02*
D03*
Y117717D02*
D03*
X285433Y102756D02*
D03*
Y117717D02*
D03*
X240158Y102756D02*
D03*
Y117717D02*
D03*
X192913Y102756D02*
D03*
Y117717D02*
D03*
X145669Y102756D02*
D03*
Y117717D02*
D03*
X98425Y102756D02*
D03*
Y117717D02*
D03*
X51181Y102756D02*
D03*
Y117717D02*
D03*
X31496Y102756D02*
D03*
Y117717D02*
D03*
X334646Y151969D02*
D03*
Y166929D02*
D03*
X285433Y151969D02*
D03*
Y166929D02*
D03*
X240158Y151969D02*
D03*
Y166929D02*
D03*
X192913Y151969D02*
D03*
Y166929D02*
D03*
X145669Y151969D02*
D03*
Y166929D02*
D03*
X98425Y151969D02*
D03*
Y166929D02*
D03*
X51181Y151969D02*
D03*
Y166929D02*
D03*
X31496Y151969D02*
D03*
Y166929D02*
D03*
X334646Y197244D02*
D03*
Y212205D02*
D03*
X285433Y197244D02*
D03*
Y212205D02*
D03*
X240158Y197244D02*
D03*
Y212205D02*
D03*
X192913Y197244D02*
D03*
Y212205D02*
D03*
X145669Y197244D02*
D03*
Y212205D02*
D03*
X98425Y197244D02*
D03*
Y212205D02*
D03*
X51181Y197244D02*
D03*
Y212205D02*
D03*
X31496Y197244D02*
D03*
Y212205D02*
D03*
X333661Y246457D02*
D03*
Y261417D02*
D03*
X284449Y246457D02*
D03*
Y261417D02*
D03*
X239173Y246457D02*
D03*
Y261417D02*
D03*
X191929Y246457D02*
D03*
Y261417D02*
D03*
X144685Y246457D02*
D03*
Y261417D02*
D03*
X97441Y246457D02*
D03*
Y261417D02*
D03*
X50197Y246457D02*
D03*
Y261417D02*
D03*
X31496Y246457D02*
D03*
Y261417D02*
D03*
X333661Y291732D02*
D03*
Y306693D02*
D03*
X284449Y291732D02*
D03*
Y306693D02*
D03*
X239173Y291732D02*
D03*
Y306693D02*
D03*
X191929Y291732D02*
D03*
Y306693D02*
D03*
X144685Y291732D02*
D03*
Y306693D02*
D03*
X97441Y291732D02*
D03*
Y306693D02*
D03*
X50197Y291732D02*
D03*
Y306693D02*
D03*
X31496Y291732D02*
D03*
Y306693D02*
D03*
X334646Y355906D02*
D03*
Y340945D02*
D03*
X285433Y355906D02*
D03*
Y340945D02*
D03*
X240158Y355906D02*
D03*
Y340945D02*
D03*
X192913Y355906D02*
D03*
Y340945D02*
D03*
X145669Y355906D02*
D03*
Y340945D02*
D03*
X98425Y355906D02*
D03*
Y340945D02*
D03*
X51181Y355906D02*
D03*
Y340945D02*
D03*
X31496Y355906D02*
D03*
Y340945D02*
D03*
D11*
X351968Y14763D02*
D03*
Y17717D02*
D03*
Y20670D02*
D03*
X344882D02*
D03*
Y17717D02*
D03*
Y14763D02*
D03*
X302756D02*
D03*
Y17717D02*
D03*
Y20670D02*
D03*
X295670D02*
D03*
Y17717D02*
D03*
Y14763D02*
D03*
X257480Y14764D02*
D03*
Y17717D02*
D03*
Y20670D02*
D03*
X250394D02*
D03*
Y17717D02*
D03*
Y14764D02*
D03*
X210236Y14763D02*
D03*
Y17717D02*
D03*
Y20670D02*
D03*
X203150D02*
D03*
Y17717D02*
D03*
Y14763D02*
D03*
X162992D02*
D03*
Y17717D02*
D03*
Y20670D02*
D03*
X155906D02*
D03*
Y17717D02*
D03*
Y14763D02*
D03*
X115748D02*
D03*
Y17717D02*
D03*
Y20670D02*
D03*
X108662D02*
D03*
Y17717D02*
D03*
Y14763D02*
D03*
X68504D02*
D03*
Y17717D02*
D03*
Y20670D02*
D03*
X61418D02*
D03*
Y17717D02*
D03*
Y14763D02*
D03*
X21260D02*
D03*
Y17717D02*
D03*
Y20670D02*
D03*
X14174D02*
D03*
Y17717D02*
D03*
Y14763D02*
D03*
X344882Y67914D02*
D03*
Y64961D02*
D03*
Y62008D02*
D03*
X351968D02*
D03*
Y64961D02*
D03*
Y67914D02*
D03*
X295670D02*
D03*
Y64961D02*
D03*
Y62008D02*
D03*
X302756D02*
D03*
Y64961D02*
D03*
Y67914D02*
D03*
X250394Y67914D02*
D03*
Y64961D02*
D03*
Y62008D02*
D03*
X257480D02*
D03*
Y64961D02*
D03*
Y67914D02*
D03*
X203150Y67914D02*
D03*
Y64961D02*
D03*
Y62008D02*
D03*
X210236D02*
D03*
Y64961D02*
D03*
Y67914D02*
D03*
X155906D02*
D03*
Y64961D02*
D03*
Y62008D02*
D03*
X162992D02*
D03*
Y64961D02*
D03*
Y67914D02*
D03*
X108662D02*
D03*
Y64961D02*
D03*
Y62008D02*
D03*
X115748D02*
D03*
Y64961D02*
D03*
Y67914D02*
D03*
X61418D02*
D03*
Y64961D02*
D03*
Y62008D02*
D03*
X68504D02*
D03*
Y64961D02*
D03*
Y67914D02*
D03*
X14174D02*
D03*
Y64961D02*
D03*
Y62008D02*
D03*
X21260D02*
D03*
Y64961D02*
D03*
Y67914D02*
D03*
X351968Y109252D02*
D03*
Y112205D02*
D03*
Y115158D02*
D03*
X344882D02*
D03*
Y112205D02*
D03*
Y109252D02*
D03*
X302756D02*
D03*
Y112205D02*
D03*
Y115158D02*
D03*
X295670D02*
D03*
Y112205D02*
D03*
Y109252D02*
D03*
X257480Y109252D02*
D03*
Y112205D02*
D03*
Y115158D02*
D03*
X250394D02*
D03*
Y112205D02*
D03*
Y109252D02*
D03*
X210236Y109252D02*
D03*
Y112205D02*
D03*
Y115158D02*
D03*
X203150D02*
D03*
Y112205D02*
D03*
Y109252D02*
D03*
X162992D02*
D03*
Y112205D02*
D03*
Y115158D02*
D03*
X155906D02*
D03*
Y112205D02*
D03*
Y109252D02*
D03*
X115748D02*
D03*
Y112205D02*
D03*
Y115158D02*
D03*
X108662D02*
D03*
Y112205D02*
D03*
Y109252D02*
D03*
X68504D02*
D03*
Y112205D02*
D03*
Y115158D02*
D03*
X61418D02*
D03*
Y112205D02*
D03*
Y109252D02*
D03*
X21260D02*
D03*
Y112205D02*
D03*
Y115158D02*
D03*
X14174D02*
D03*
Y112205D02*
D03*
Y109252D02*
D03*
X344882Y162402D02*
D03*
Y159449D02*
D03*
Y156496D02*
D03*
X351968D02*
D03*
Y159449D02*
D03*
Y162402D02*
D03*
X295670D02*
D03*
Y159449D02*
D03*
Y156496D02*
D03*
X302756D02*
D03*
Y159449D02*
D03*
Y162402D02*
D03*
X250394Y162402D02*
D03*
Y159449D02*
D03*
Y156496D02*
D03*
X257480D02*
D03*
Y159449D02*
D03*
Y162402D02*
D03*
X203150Y162402D02*
D03*
Y159449D02*
D03*
Y156496D02*
D03*
X210236D02*
D03*
Y159449D02*
D03*
Y162402D02*
D03*
X155906D02*
D03*
Y159449D02*
D03*
Y156496D02*
D03*
X162992D02*
D03*
Y159449D02*
D03*
Y162402D02*
D03*
X108662D02*
D03*
Y159449D02*
D03*
Y156496D02*
D03*
X115748D02*
D03*
Y159449D02*
D03*
Y162402D02*
D03*
X61418D02*
D03*
Y159449D02*
D03*
Y156496D02*
D03*
X68504D02*
D03*
Y159449D02*
D03*
Y162402D02*
D03*
X14174D02*
D03*
Y159449D02*
D03*
Y156496D02*
D03*
X21260D02*
D03*
Y159449D02*
D03*
Y162402D02*
D03*
X351968Y203740D02*
D03*
Y206693D02*
D03*
Y209646D02*
D03*
X344882D02*
D03*
Y206693D02*
D03*
Y203740D02*
D03*
X302756D02*
D03*
Y206693D02*
D03*
Y209646D02*
D03*
X295670D02*
D03*
Y206693D02*
D03*
Y203740D02*
D03*
X257480Y203740D02*
D03*
Y206693D02*
D03*
Y209646D02*
D03*
X250394D02*
D03*
Y206693D02*
D03*
Y203740D02*
D03*
X210236Y203740D02*
D03*
Y206693D02*
D03*
Y209646D02*
D03*
X203150D02*
D03*
Y206693D02*
D03*
Y203740D02*
D03*
X162992D02*
D03*
Y206693D02*
D03*
Y209646D02*
D03*
X155906D02*
D03*
Y206693D02*
D03*
Y203740D02*
D03*
X115748D02*
D03*
Y206693D02*
D03*
Y209646D02*
D03*
X108662D02*
D03*
Y206693D02*
D03*
Y203740D02*
D03*
X68504D02*
D03*
Y206693D02*
D03*
Y209646D02*
D03*
X61418D02*
D03*
Y206693D02*
D03*
Y203740D02*
D03*
X21260D02*
D03*
Y206693D02*
D03*
Y209646D02*
D03*
X14174D02*
D03*
Y206693D02*
D03*
Y203740D02*
D03*
X344882Y256890D02*
D03*
Y253937D02*
D03*
Y250984D02*
D03*
X351968D02*
D03*
Y253937D02*
D03*
Y256890D02*
D03*
X295670D02*
D03*
Y253937D02*
D03*
Y250984D02*
D03*
X302756D02*
D03*
Y253937D02*
D03*
Y256890D02*
D03*
X250394Y256890D02*
D03*
Y253937D02*
D03*
Y250984D02*
D03*
X257480D02*
D03*
Y253937D02*
D03*
Y256890D02*
D03*
X203150Y256890D02*
D03*
Y253937D02*
D03*
Y250984D02*
D03*
X210236D02*
D03*
Y253937D02*
D03*
Y256890D02*
D03*
X155906D02*
D03*
Y253937D02*
D03*
Y250984D02*
D03*
X162992D02*
D03*
Y253937D02*
D03*
Y256890D02*
D03*
X108662D02*
D03*
Y253937D02*
D03*
Y250984D02*
D03*
X115748D02*
D03*
Y253937D02*
D03*
Y256890D02*
D03*
X61418D02*
D03*
Y253937D02*
D03*
Y250984D02*
D03*
X68504D02*
D03*
Y253937D02*
D03*
Y256890D02*
D03*
X14174D02*
D03*
Y253937D02*
D03*
Y250984D02*
D03*
X21260D02*
D03*
Y253937D02*
D03*
Y256890D02*
D03*
X351968Y298228D02*
D03*
Y301181D02*
D03*
Y304134D02*
D03*
X344882D02*
D03*
Y301181D02*
D03*
Y298228D02*
D03*
X302756D02*
D03*
Y301181D02*
D03*
Y304134D02*
D03*
X295670D02*
D03*
Y301181D02*
D03*
Y298228D02*
D03*
X257480Y298228D02*
D03*
Y301181D02*
D03*
Y304134D02*
D03*
X250394D02*
D03*
Y301181D02*
D03*
Y298228D02*
D03*
X210236Y298228D02*
D03*
Y301181D02*
D03*
Y304134D02*
D03*
X203150D02*
D03*
Y301181D02*
D03*
Y298228D02*
D03*
X162992D02*
D03*
Y301181D02*
D03*
Y304134D02*
D03*
X155906D02*
D03*
Y301181D02*
D03*
Y298228D02*
D03*
X115748D02*
D03*
Y301181D02*
D03*
Y304134D02*
D03*
X108662D02*
D03*
Y301181D02*
D03*
Y298228D02*
D03*
X68504D02*
D03*
Y301181D02*
D03*
Y304134D02*
D03*
X61418D02*
D03*
Y301181D02*
D03*
Y298228D02*
D03*
X21260D02*
D03*
Y301181D02*
D03*
Y304134D02*
D03*
X14174D02*
D03*
Y301181D02*
D03*
Y298228D02*
D03*
X344882Y351378D02*
D03*
Y348425D02*
D03*
Y345472D02*
D03*
X351968D02*
D03*
Y348425D02*
D03*
Y351378D02*
D03*
X295670D02*
D03*
Y348425D02*
D03*
Y345472D02*
D03*
X302756D02*
D03*
Y348425D02*
D03*
Y351378D02*
D03*
X250394D02*
D03*
Y348425D02*
D03*
Y345472D02*
D03*
X257480D02*
D03*
Y348425D02*
D03*
Y351378D02*
D03*
X203150D02*
D03*
Y348425D02*
D03*
Y345472D02*
D03*
X210236D02*
D03*
Y348425D02*
D03*
Y351378D02*
D03*
X155906D02*
D03*
Y348425D02*
D03*
Y345472D02*
D03*
X162992D02*
D03*
Y348425D02*
D03*
Y351378D02*
D03*
X108662D02*
D03*
Y348425D02*
D03*
Y345472D02*
D03*
X115748D02*
D03*
Y348425D02*
D03*
Y351378D02*
D03*
X61418D02*
D03*
Y348425D02*
D03*
Y345472D02*
D03*
X68504D02*
D03*
Y348425D02*
D03*
Y351378D02*
D03*
X14174D02*
D03*
Y348425D02*
D03*
Y345472D02*
D03*
X21260D02*
D03*
Y348425D02*
D03*
Y351378D02*
D03*
D12*
X343898Y31496D02*
D03*
X354921D02*
D03*
X294685D02*
D03*
X305709D02*
D03*
X249410D02*
D03*
X260433D02*
D03*
X202165D02*
D03*
X213189D02*
D03*
X154921D02*
D03*
X165945D02*
D03*
X107677D02*
D03*
X118701D02*
D03*
X60433D02*
D03*
X71457D02*
D03*
X22307D02*
D03*
X11283D02*
D03*
X343898Y80709D02*
D03*
X354921D02*
D03*
X294685D02*
D03*
X305709D02*
D03*
X249410Y80709D02*
D03*
X260433D02*
D03*
X202165Y80709D02*
D03*
X213189D02*
D03*
X154921D02*
D03*
X165945D02*
D03*
X107677D02*
D03*
X118701D02*
D03*
X60433D02*
D03*
X71457D02*
D03*
X22244D02*
D03*
X11220D02*
D03*
X343898Y125984D02*
D03*
X354921D02*
D03*
X294685D02*
D03*
X305709D02*
D03*
X249410Y125984D02*
D03*
X260433D02*
D03*
X202165Y125984D02*
D03*
X213189D02*
D03*
X154921D02*
D03*
X165945D02*
D03*
X107677Y125984D02*
D03*
X118701D02*
D03*
X60433Y125984D02*
D03*
X71457D02*
D03*
X22244Y125984D02*
D03*
X11220D02*
D03*
X343898Y175197D02*
D03*
X354921D02*
D03*
X294685D02*
D03*
X305709D02*
D03*
X249410D02*
D03*
X260433D02*
D03*
X202165D02*
D03*
X213189D02*
D03*
X154921D02*
D03*
X165945D02*
D03*
X107677D02*
D03*
X118701D02*
D03*
X60433D02*
D03*
X71457D02*
D03*
X22244D02*
D03*
X11220D02*
D03*
X343898Y221106D02*
D03*
X354921D02*
D03*
X294685D02*
D03*
X305709D02*
D03*
X249410Y221106D02*
D03*
X260433D02*
D03*
X202165Y221106D02*
D03*
X213189D02*
D03*
X154921D02*
D03*
X165945D02*
D03*
X107677Y220472D02*
D03*
X118701D02*
D03*
X60433Y221106D02*
D03*
X71457D02*
D03*
X22244Y220472D02*
D03*
X11220D02*
D03*
X343898Y269685D02*
D03*
X354921D02*
D03*
X294685D02*
D03*
X305709D02*
D03*
X249410Y269685D02*
D03*
X260433D02*
D03*
X202165Y269685D02*
D03*
X213189D02*
D03*
X154921D02*
D03*
X165945D02*
D03*
X107677D02*
D03*
X118701D02*
D03*
X60433D02*
D03*
X71457D02*
D03*
X22244D02*
D03*
X11220D02*
D03*
X343898Y315945D02*
D03*
X354921D02*
D03*
X294685D02*
D03*
X305709D02*
D03*
X249410Y315945D02*
D03*
X260433D02*
D03*
X202165Y315945D02*
D03*
X213189D02*
D03*
X154921D02*
D03*
X165945D02*
D03*
X107677D02*
D03*
X118701D02*
D03*
X60433D02*
D03*
X71457D02*
D03*
X22244D02*
D03*
X11220D02*
D03*
X343898Y332677D02*
D03*
X354921D02*
D03*
X294685D02*
D03*
X305709D02*
D03*
X249410D02*
D03*
X260433D02*
D03*
X202165D02*
D03*
X213189D02*
D03*
X154921D02*
D03*
X165945D02*
D03*
X107677D02*
D03*
X118701D02*
D03*
X60433D02*
D03*
X71457D02*
D03*
X22244D02*
D03*
X11220D02*
D03*
M02*
