G04 Layer_Color=8421504*
%FSLAX24Y24*%
%MOIN*%
G70*
G01*
G75*
%ADD10R,0.0374X0.0158*%
%ADD11R,0.0295X0.0532*%
%ADD12R,0.0394X0.0630*%
D10*
X25039Y1476D02*
D03*
Y1772D02*
D03*
Y2067D02*
D03*
X25748D02*
D03*
Y1772D02*
D03*
Y1476D02*
D03*
X20315Y1476D02*
D03*
Y1772D02*
D03*
Y2067D02*
D03*
X21024D02*
D03*
Y1772D02*
D03*
Y1476D02*
D03*
X25039Y20374D02*
D03*
Y20669D02*
D03*
Y20965D02*
D03*
X25748D02*
D03*
Y20669D02*
D03*
Y20374D02*
D03*
X15591Y10925D02*
D03*
Y11220D02*
D03*
Y11516D02*
D03*
X16299D02*
D03*
Y11220D02*
D03*
Y10925D02*
D03*
X29567Y20374D02*
D03*
Y20669D02*
D03*
Y20965D02*
D03*
X30276D02*
D03*
Y20669D02*
D03*
Y20374D02*
D03*
X1417Y1476D02*
D03*
Y1772D02*
D03*
Y2067D02*
D03*
X2126D02*
D03*
Y1772D02*
D03*
Y1476D02*
D03*
X6142D02*
D03*
Y1772D02*
D03*
Y2067D02*
D03*
X6850D02*
D03*
Y1772D02*
D03*
Y1476D02*
D03*
X35197Y6791D02*
D03*
Y6496D02*
D03*
Y6201D02*
D03*
X34488D02*
D03*
Y6496D02*
D03*
Y6791D02*
D03*
X30276D02*
D03*
Y6496D02*
D03*
Y6201D02*
D03*
X29567D02*
D03*
Y6496D02*
D03*
Y6791D02*
D03*
X25748Y6791D02*
D03*
Y6496D02*
D03*
Y6201D02*
D03*
X25039D02*
D03*
Y6496D02*
D03*
Y6791D02*
D03*
X21024Y6791D02*
D03*
Y6496D02*
D03*
Y6201D02*
D03*
X20315D02*
D03*
Y6496D02*
D03*
Y6791D02*
D03*
X16299D02*
D03*
Y6496D02*
D03*
Y6201D02*
D03*
X15591D02*
D03*
Y6496D02*
D03*
Y6791D02*
D03*
X11575D02*
D03*
Y6496D02*
D03*
Y6201D02*
D03*
X10866D02*
D03*
Y6496D02*
D03*
Y6791D02*
D03*
X6850D02*
D03*
Y6496D02*
D03*
Y6201D02*
D03*
X6142D02*
D03*
Y6496D02*
D03*
Y6791D02*
D03*
X2126D02*
D03*
Y6496D02*
D03*
Y6201D02*
D03*
X1417D02*
D03*
Y6496D02*
D03*
Y6791D02*
D03*
Y10925D02*
D03*
Y11220D02*
D03*
Y11516D02*
D03*
X2126D02*
D03*
Y11220D02*
D03*
Y10925D02*
D03*
X6142D02*
D03*
Y11220D02*
D03*
Y11516D02*
D03*
X6850D02*
D03*
Y11220D02*
D03*
Y10925D02*
D03*
X10866D02*
D03*
Y11220D02*
D03*
Y11516D02*
D03*
X11575D02*
D03*
Y11220D02*
D03*
Y10925D02*
D03*
X20315D02*
D03*
Y11220D02*
D03*
Y11516D02*
D03*
X21024D02*
D03*
Y11220D02*
D03*
Y10925D02*
D03*
X25039Y10925D02*
D03*
Y11220D02*
D03*
Y11516D02*
D03*
X25748D02*
D03*
Y11220D02*
D03*
Y10925D02*
D03*
X29567Y10925D02*
D03*
Y11220D02*
D03*
Y11516D02*
D03*
X30276D02*
D03*
Y11220D02*
D03*
Y10925D02*
D03*
X34488D02*
D03*
Y11220D02*
D03*
Y11516D02*
D03*
X35197D02*
D03*
Y11220D02*
D03*
Y10925D02*
D03*
Y16240D02*
D03*
Y15945D02*
D03*
Y15650D02*
D03*
X34488D02*
D03*
Y15945D02*
D03*
Y16240D02*
D03*
X30276D02*
D03*
Y15945D02*
D03*
Y15650D02*
D03*
X29567D02*
D03*
Y15945D02*
D03*
Y16240D02*
D03*
X25748Y16240D02*
D03*
Y15945D02*
D03*
Y15650D02*
D03*
X25039D02*
D03*
Y15945D02*
D03*
Y16240D02*
D03*
X21024Y16240D02*
D03*
Y15945D02*
D03*
Y15650D02*
D03*
X20315D02*
D03*
Y15945D02*
D03*
Y16240D02*
D03*
X16299D02*
D03*
Y15945D02*
D03*
Y15650D02*
D03*
X15591D02*
D03*
Y15945D02*
D03*
Y16240D02*
D03*
X11575D02*
D03*
Y15945D02*
D03*
Y15650D02*
D03*
X10866D02*
D03*
Y15945D02*
D03*
Y16240D02*
D03*
X6850D02*
D03*
Y15945D02*
D03*
Y15650D02*
D03*
X6142D02*
D03*
Y15945D02*
D03*
Y16240D02*
D03*
X2126D02*
D03*
Y15945D02*
D03*
Y15650D02*
D03*
X1417D02*
D03*
Y15945D02*
D03*
Y16240D02*
D03*
Y20374D02*
D03*
Y20669D02*
D03*
Y20965D02*
D03*
X2126D02*
D03*
Y20669D02*
D03*
Y20374D02*
D03*
X6142D02*
D03*
Y20669D02*
D03*
Y20965D02*
D03*
X6850D02*
D03*
Y20669D02*
D03*
Y20374D02*
D03*
X10866D02*
D03*
Y20669D02*
D03*
Y20965D02*
D03*
X11575D02*
D03*
Y20669D02*
D03*
Y20374D02*
D03*
X15591D02*
D03*
Y20669D02*
D03*
Y20965D02*
D03*
X16299D02*
D03*
Y20669D02*
D03*
Y20374D02*
D03*
X20315D02*
D03*
Y20669D02*
D03*
Y20965D02*
D03*
X21024D02*
D03*
Y20669D02*
D03*
Y20374D02*
D03*
X34488D02*
D03*
Y20669D02*
D03*
Y20965D02*
D03*
X35197D02*
D03*
Y20669D02*
D03*
Y20374D02*
D03*
Y25689D02*
D03*
Y25394D02*
D03*
Y25098D02*
D03*
X34488D02*
D03*
Y25394D02*
D03*
Y25689D02*
D03*
X30276D02*
D03*
Y25394D02*
D03*
Y25098D02*
D03*
X29567D02*
D03*
Y25394D02*
D03*
Y25689D02*
D03*
X25748Y25689D02*
D03*
Y25394D02*
D03*
Y25098D02*
D03*
X25039D02*
D03*
Y25394D02*
D03*
Y25689D02*
D03*
X21024Y25689D02*
D03*
Y25394D02*
D03*
Y25098D02*
D03*
X20315D02*
D03*
Y25394D02*
D03*
Y25689D02*
D03*
X16299D02*
D03*
Y25394D02*
D03*
Y25098D02*
D03*
X15591D02*
D03*
Y25394D02*
D03*
Y25689D02*
D03*
X11575D02*
D03*
Y25394D02*
D03*
Y25098D02*
D03*
X10866D02*
D03*
Y25394D02*
D03*
Y25689D02*
D03*
X6850D02*
D03*
Y25394D02*
D03*
Y25098D02*
D03*
X6142D02*
D03*
Y25394D02*
D03*
Y25689D02*
D03*
X2126D02*
D03*
Y25394D02*
D03*
Y25098D02*
D03*
X1417D02*
D03*
Y25394D02*
D03*
Y25689D02*
D03*
Y29823D02*
D03*
Y30118D02*
D03*
Y30413D02*
D03*
X2126D02*
D03*
Y30118D02*
D03*
Y29823D02*
D03*
X15591D02*
D03*
Y30118D02*
D03*
Y30413D02*
D03*
X16299D02*
D03*
Y30118D02*
D03*
Y29823D02*
D03*
X20315D02*
D03*
Y30118D02*
D03*
Y30413D02*
D03*
X21024D02*
D03*
Y30118D02*
D03*
Y29823D02*
D03*
X25039Y29823D02*
D03*
Y30118D02*
D03*
Y30413D02*
D03*
X25748D02*
D03*
Y30118D02*
D03*
Y29823D02*
D03*
X29567Y29823D02*
D03*
Y30118D02*
D03*
Y30413D02*
D03*
X30276D02*
D03*
Y30118D02*
D03*
Y29823D02*
D03*
X34488D02*
D03*
Y30118D02*
D03*
Y30413D02*
D03*
X35197D02*
D03*
Y30118D02*
D03*
Y29823D02*
D03*
Y35138D02*
D03*
Y34843D02*
D03*
Y34547D02*
D03*
X34488D02*
D03*
Y34843D02*
D03*
Y35138D02*
D03*
X30276D02*
D03*
Y34843D02*
D03*
Y34547D02*
D03*
X29567D02*
D03*
Y34843D02*
D03*
Y35138D02*
D03*
X25748D02*
D03*
Y34843D02*
D03*
Y34547D02*
D03*
X25039D02*
D03*
Y34843D02*
D03*
Y35138D02*
D03*
X21024D02*
D03*
Y34843D02*
D03*
Y34547D02*
D03*
X20315D02*
D03*
Y34843D02*
D03*
Y35138D02*
D03*
X16299D02*
D03*
Y34843D02*
D03*
Y34547D02*
D03*
X15591D02*
D03*
Y34843D02*
D03*
Y35138D02*
D03*
X11575D02*
D03*
Y34843D02*
D03*
Y34547D02*
D03*
X10866D02*
D03*
Y34843D02*
D03*
Y35138D02*
D03*
X6850D02*
D03*
Y34843D02*
D03*
Y34547D02*
D03*
X6142D02*
D03*
Y34843D02*
D03*
Y35138D02*
D03*
X2126D02*
D03*
Y34843D02*
D03*
Y34547D02*
D03*
X1417D02*
D03*
Y34843D02*
D03*
Y35138D02*
D03*
X10866Y29823D02*
D03*
Y30118D02*
D03*
Y30413D02*
D03*
X11575D02*
D03*
Y30118D02*
D03*
Y29823D02*
D03*
X6142D02*
D03*
Y30118D02*
D03*
Y30413D02*
D03*
X6850D02*
D03*
Y30118D02*
D03*
Y29823D02*
D03*
X34488Y1476D02*
D03*
Y1772D02*
D03*
Y2067D02*
D03*
X35197D02*
D03*
Y1772D02*
D03*
Y1476D02*
D03*
X29567D02*
D03*
Y1772D02*
D03*
Y2067D02*
D03*
X30276D02*
D03*
Y1772D02*
D03*
Y1476D02*
D03*
X15591D02*
D03*
Y1772D02*
D03*
Y2067D02*
D03*
X16299D02*
D03*
Y1772D02*
D03*
Y1476D02*
D03*
X10866D02*
D03*
Y1772D02*
D03*
Y2067D02*
D03*
X11575D02*
D03*
Y1772D02*
D03*
Y1476D02*
D03*
D11*
X33465Y11772D02*
D03*
Y10276D02*
D03*
X19291Y2323D02*
D03*
Y827D02*
D03*
X9843Y2323D02*
D03*
Y827D02*
D03*
X5118Y2323D02*
D03*
Y827D02*
D03*
X3150Y2323D02*
D03*
Y827D02*
D03*
X24016Y7244D02*
D03*
Y5748D02*
D03*
X19291Y7244D02*
D03*
Y5748D02*
D03*
X14567Y7244D02*
D03*
Y5748D02*
D03*
X9843Y7244D02*
D03*
Y5748D02*
D03*
X5118Y7244D02*
D03*
Y5748D02*
D03*
X3150Y7244D02*
D03*
Y5748D02*
D03*
X28543Y11772D02*
D03*
Y10276D02*
D03*
X24016Y11772D02*
D03*
Y10276D02*
D03*
X19291Y11772D02*
D03*
Y10276D02*
D03*
X14567Y11772D02*
D03*
Y10276D02*
D03*
X9843Y11772D02*
D03*
Y10276D02*
D03*
X5118Y11772D02*
D03*
Y10276D02*
D03*
X3150Y11772D02*
D03*
Y10276D02*
D03*
X33465Y16693D02*
D03*
Y15197D02*
D03*
X28543Y16693D02*
D03*
Y15197D02*
D03*
X24016Y16693D02*
D03*
Y15197D02*
D03*
X9843Y16693D02*
D03*
Y15197D02*
D03*
X5118Y16693D02*
D03*
Y15197D02*
D03*
X33465Y21220D02*
D03*
Y19724D02*
D03*
X28543Y21220D02*
D03*
Y19724D02*
D03*
X24016Y21220D02*
D03*
Y19724D02*
D03*
X19291Y21220D02*
D03*
Y19724D02*
D03*
X33366Y26142D02*
D03*
Y24646D02*
D03*
X28445Y26142D02*
D03*
Y24646D02*
D03*
X23917Y26142D02*
D03*
Y24646D02*
D03*
X19193Y26142D02*
D03*
Y24646D02*
D03*
X9744Y26142D02*
D03*
Y24646D02*
D03*
X3150Y26142D02*
D03*
Y24646D02*
D03*
X33366Y30669D02*
D03*
Y29173D02*
D03*
X28445Y30669D02*
D03*
Y29173D02*
D03*
X23917Y30669D02*
D03*
Y29173D02*
D03*
X19193Y30669D02*
D03*
Y29173D02*
D03*
X14468Y30669D02*
D03*
Y29173D02*
D03*
X5020Y30669D02*
D03*
Y29173D02*
D03*
X3150Y30669D02*
D03*
Y29173D02*
D03*
X9744Y30669D02*
D03*
Y29173D02*
D03*
X5020Y26142D02*
D03*
Y24646D02*
D03*
X14468Y26142D02*
D03*
Y24646D02*
D03*
X3150Y21220D02*
D03*
Y19724D02*
D03*
X5118Y21220D02*
D03*
Y19724D02*
D03*
X9843Y21220D02*
D03*
Y19724D02*
D03*
X14567Y21220D02*
D03*
Y19724D02*
D03*
Y16693D02*
D03*
Y15197D02*
D03*
X28543Y7244D02*
D03*
Y5748D02*
D03*
X33465Y7244D02*
D03*
Y5748D02*
D03*
X14567Y2323D02*
D03*
Y827D02*
D03*
X24016Y2323D02*
D03*
Y827D02*
D03*
X28543Y2323D02*
D03*
Y827D02*
D03*
X33465Y2323D02*
D03*
Y827D02*
D03*
X19291Y16693D02*
D03*
Y15197D02*
D03*
X33465Y34094D02*
D03*
Y35591D02*
D03*
X28543Y34094D02*
D03*
Y35591D02*
D03*
X24016Y34094D02*
D03*
Y35591D02*
D03*
X19291Y34094D02*
D03*
Y35591D02*
D03*
X14567Y34094D02*
D03*
Y35591D02*
D03*
X9843Y34094D02*
D03*
Y35591D02*
D03*
X5118Y34094D02*
D03*
Y35591D02*
D03*
X3150Y34094D02*
D03*
Y35591D02*
D03*
X3150Y16693D02*
D03*
Y15197D02*
D03*
D12*
X30571Y22111D02*
D03*
X29469D02*
D03*
X7146D02*
D03*
X6043D02*
D03*
X35492Y3150D02*
D03*
X34390D02*
D03*
X30571D02*
D03*
X29469D02*
D03*
X26043D02*
D03*
X24941D02*
D03*
X21319D02*
D03*
X20217D02*
D03*
X16594D02*
D03*
X15492D02*
D03*
X11870D02*
D03*
X10768D02*
D03*
X7146D02*
D03*
X6043D02*
D03*
X7146Y8071D02*
D03*
X6043D02*
D03*
X26043Y12598D02*
D03*
X24941D02*
D03*
X21319Y12598D02*
D03*
X20217D02*
D03*
X16594D02*
D03*
X15492D02*
D03*
X11870Y12598D02*
D03*
X10768D02*
D03*
X7146Y12598D02*
D03*
X6043D02*
D03*
X35492Y17520D02*
D03*
X34390D02*
D03*
X30571D02*
D03*
X29469D02*
D03*
X26043D02*
D03*
X24941D02*
D03*
X21319D02*
D03*
X20217D02*
D03*
X16594D02*
D03*
X15492D02*
D03*
X11870D02*
D03*
X10768D02*
D03*
X7146D02*
D03*
X6043D02*
D03*
X1122D02*
D03*
X2224D02*
D03*
X35492Y22111D02*
D03*
X34390D02*
D03*
X26043Y22111D02*
D03*
X24941D02*
D03*
X21319Y22111D02*
D03*
X20217D02*
D03*
X16594D02*
D03*
X15492D02*
D03*
X11870Y22047D02*
D03*
X10768D02*
D03*
X1122D02*
D03*
X2224D02*
D03*
X35492Y26969D02*
D03*
X34390D02*
D03*
X30571D02*
D03*
X29469D02*
D03*
X26043Y26969D02*
D03*
X24941D02*
D03*
X21319Y26969D02*
D03*
X20217D02*
D03*
X16594D02*
D03*
X15492D02*
D03*
X11870D02*
D03*
X10768D02*
D03*
X30571Y31594D02*
D03*
X29469D02*
D03*
X26043Y31594D02*
D03*
X24941D02*
D03*
X21319Y31594D02*
D03*
X20217D02*
D03*
X16594D02*
D03*
X15492D02*
D03*
X11870D02*
D03*
X10768D02*
D03*
X7146D02*
D03*
X6043D02*
D03*
X1122D02*
D03*
X2224D02*
D03*
X35492Y33268D02*
D03*
X34390D02*
D03*
X30571D02*
D03*
X29469D02*
D03*
X26043D02*
D03*
X24941D02*
D03*
X21319D02*
D03*
X20217D02*
D03*
X16594D02*
D03*
X15492D02*
D03*
X11870D02*
D03*
X10768D02*
D03*
X7146D02*
D03*
X6043D02*
D03*
X1122D02*
D03*
X2224D02*
D03*
X35492Y31594D02*
D03*
X34390D02*
D03*
X1122Y26969D02*
D03*
X2224D02*
D03*
X7146D02*
D03*
X6043D02*
D03*
X1122Y12598D02*
D03*
X2224D02*
D03*
X30571D02*
D03*
X29469D02*
D03*
X35492D02*
D03*
X34390D02*
D03*
X1122Y8071D02*
D03*
X2224D02*
D03*
X11870D02*
D03*
X10768D02*
D03*
X16594D02*
D03*
X15492D02*
D03*
X26043Y8071D02*
D03*
X24941D02*
D03*
X30571Y8071D02*
D03*
X29469D02*
D03*
X35492D02*
D03*
X34390D02*
D03*
X1128Y3150D02*
D03*
X2231D02*
D03*
X21319Y8071D02*
D03*
X20217D02*
D03*
M02*
