G04 Layer_Color=16711935*
%FSLAX25Y25*%
%MOIN*%
G70*
G01*
G75*
%ADD56C,0.00394*%
D56*
X94882Y38484D02*
Y42224D01*
X88189Y38484D02*
Y42224D01*
X94882D01*
X88189Y38484D02*
X94882D01*
X74410Y54232D02*
Y57972D01*
X81102Y54232D02*
Y57972D01*
X74410Y54232D02*
X81102D01*
X74410Y57972D02*
X81102D01*
X49606Y129035D02*
Y132776D01*
X42913Y129035D02*
Y132776D01*
X49606D01*
X42913Y129035D02*
X49606D01*
X43898Y147736D02*
Y151476D01*
X50591Y147736D02*
Y151476D01*
X43898Y147736D02*
X50591D01*
X43898Y151476D02*
X50591D01*
X50590Y224508D02*
Y228248D01*
X43898Y224508D02*
Y228248D01*
X50590D01*
X43898Y224508D02*
X50590D01*
X34055Y242224D02*
Y245965D01*
X40748Y242224D02*
Y245965D01*
X34055Y242224D02*
X40748D01*
X34055Y245965D02*
X40748D01*
X33465Y286516D02*
Y290256D01*
X40157Y286516D02*
Y290256D01*
X33465Y286516D02*
X40157D01*
X33465Y290256D02*
X40157D01*
X33071Y324902D02*
Y328642D01*
X39764Y324902D02*
Y328642D01*
X33071Y324902D02*
X39764D01*
X33071Y328642D02*
X39764D01*
X19094Y12894D02*
Y16634D01*
X12402Y12894D02*
Y16634D01*
X19094D01*
X12402Y12894D02*
X19094D01*
Y17815D02*
Y21555D01*
X12402Y17815D02*
Y21555D01*
X19094D01*
X12402Y17815D02*
X19094D01*
X88189Y44390D02*
Y48130D01*
X94882Y44390D02*
Y48130D01*
X88189Y44390D02*
X94882D01*
X88189Y48130D02*
X94882D01*
X81102Y48327D02*
Y52067D01*
X74410Y48327D02*
Y52067D01*
X81102D01*
X74410Y48327D02*
X81102D01*
X35531Y131299D02*
X39272D01*
X35531Y124606D02*
X39272D01*
X35531D02*
Y131299D01*
X39272Y124606D02*
Y131299D01*
X50590Y142815D02*
Y146555D01*
X43898Y142815D02*
Y146555D01*
X50590D01*
X43898Y142815D02*
X50590D01*
X43898Y229429D02*
Y233169D01*
X50591Y229429D02*
Y233169D01*
X43898Y229429D02*
X50591D01*
X43898Y233169D02*
X50591D01*
X40748Y236713D02*
Y240453D01*
X34055Y236713D02*
Y240453D01*
X40748D01*
X34055Y236713D02*
X40748D01*
X40157Y281594D02*
Y285335D01*
X33465Y281594D02*
Y285335D01*
X40157D01*
X33465Y281594D02*
X40157D01*
X39846Y319630D02*
Y323370D01*
X33154Y319630D02*
Y323370D01*
X39846D01*
X33154Y319630D02*
X39846D01*
X322933Y58465D02*
X326673D01*
X322933Y51772D02*
X326673D01*
X322933D02*
Y58465D01*
X326673Y51772D02*
Y58465D01*
X289469D02*
X293209D01*
X289469Y51772D02*
X293209D01*
X289469D02*
Y58465D01*
X293209Y51772D02*
Y58465D01*
X254130Y61046D02*
X257870D01*
X254130Y54353D02*
X257870D01*
X254130D02*
Y61046D01*
X257870Y54353D02*
Y61046D01*
X216634Y65354D02*
X220374D01*
X216634Y58661D02*
X220374D01*
X216634D02*
Y65354D01*
X220374Y58661D02*
Y65354D01*
X123982Y65078D02*
X127722D01*
X123982Y58385D02*
X127722D01*
X123982D02*
Y65078D01*
X127722Y58385D02*
Y65078D01*
X86614Y84941D02*
Y88681D01*
X93307Y84941D02*
Y88681D01*
X86614Y84941D02*
X93307D01*
X86614Y88681D02*
X93307D01*
X35630Y84547D02*
Y88287D01*
X42323Y84547D02*
Y88287D01*
X35630Y84547D02*
X42323D01*
X35630Y88287D02*
X42323D01*
X46457Y46752D02*
Y50492D01*
X39764Y46752D02*
Y50492D01*
X46457D01*
X39764Y46752D02*
X46457D01*
X324409Y46358D02*
Y50098D01*
X331102Y46358D02*
Y50098D01*
X324409Y46358D02*
X331102D01*
X324409Y50098D02*
X331102D01*
X290945Y46358D02*
Y50098D01*
X297638Y46358D02*
Y50098D01*
X290945Y46358D02*
X297638D01*
X290945Y50098D02*
X297638D01*
X255512Y48327D02*
Y52067D01*
X262205Y48327D02*
Y52067D01*
X255512Y48327D02*
X262205D01*
X255512Y52067D02*
X262205D01*
X218110Y52461D02*
Y56201D01*
X224803Y52461D02*
Y56201D01*
X218110Y52461D02*
X224803D01*
X218110Y56201D02*
X224803D01*
X125458Y52381D02*
Y56122D01*
X132151Y52381D02*
Y56122D01*
X125458Y52381D02*
X132151D01*
X125458Y56122D02*
X132151D01*
X92520Y92027D02*
Y95768D01*
X99213Y92027D02*
Y95768D01*
X92520Y92027D02*
X99213D01*
X92520Y95768D02*
X99213D01*
X41929Y92421D02*
Y96161D01*
X48622Y92421D02*
Y96161D01*
X41929Y92421D02*
X48622D01*
X41929Y96161D02*
X48622D01*
X40551Y39665D02*
Y43406D01*
X33858Y39665D02*
Y43406D01*
X40551D01*
X33858Y39665D02*
X40551D01*
X179724Y44390D02*
Y48130D01*
X186417Y44390D02*
Y48130D01*
X179724Y44390D02*
X186417D01*
X179724Y48130D02*
X186417D01*
X179724Y34547D02*
Y38287D01*
X186417Y34547D02*
Y38287D01*
X179724Y34547D02*
X186417D01*
X179724Y38287D02*
X186417D01*
X335236Y27657D02*
Y31398D01*
X341929Y27657D02*
Y31398D01*
X335236Y27657D02*
X341929D01*
X335236Y31398D02*
X341929D01*
X301772Y27657D02*
Y31398D01*
X308465Y27657D02*
Y31398D01*
X301772Y27657D02*
X308465D01*
X301772Y31398D02*
X308465D01*
X266339Y29626D02*
Y33366D01*
X273031Y29626D02*
Y33366D01*
X266339Y29626D02*
X273031D01*
X266339Y33366D02*
X273031D01*
X229921Y38484D02*
Y42224D01*
X236614Y38484D02*
Y42224D01*
X229921Y38484D02*
X236614D01*
X229921Y42224D02*
X236614D01*
X136417Y38484D02*
Y42224D01*
X143110Y38484D02*
Y42224D01*
X136417Y38484D02*
X143110D01*
X136417Y42224D02*
X143110D01*
X102953Y27657D02*
Y31398D01*
X109645Y27657D02*
Y31398D01*
X102953Y27657D02*
X109645D01*
X102953Y31398D02*
X109645D01*
X52756Y27657D02*
Y31398D01*
X59449Y27657D02*
Y31398D01*
X52756Y27657D02*
X59449D01*
X52756Y31398D02*
X59449D01*
X29921Y27657D02*
Y31398D01*
X23228Y27657D02*
Y31398D01*
X29921D01*
X23228Y27657D02*
X29921D01*
X332736Y75402D02*
Y79142D01*
X339429Y75402D02*
Y79142D01*
X332736Y75402D02*
X339429D01*
X332736Y79142D02*
X339429D01*
X301772Y74902D02*
Y78642D01*
X308465Y74902D02*
Y78642D01*
X301772Y74902D02*
X308465D01*
X301772Y78642D02*
X308465D01*
X266339Y74902D02*
Y78642D01*
X273031Y74902D02*
Y78642D01*
X266339Y74902D02*
X273031D01*
X266339Y78642D02*
X273031D01*
X229921Y74901D02*
Y78642D01*
X236614Y74901D02*
Y78642D01*
X229921Y74901D02*
X236614D01*
X229921Y78642D02*
X236614D01*
X136417Y74902D02*
Y78642D01*
X143110Y74902D02*
Y78642D01*
X136417Y74902D02*
X143110D01*
X136417Y78642D02*
X143110D01*
X102953Y74902D02*
Y78642D01*
X109646Y74902D02*
Y78642D01*
X102953Y74902D02*
X109646D01*
X102953Y78642D02*
X109646D01*
X52756Y74902D02*
Y78642D01*
X59449Y74902D02*
Y78642D01*
X52756Y74902D02*
X59449D01*
X52756Y78642D02*
X59449D01*
X29921Y74902D02*
Y78642D01*
X23228Y74902D02*
Y78642D01*
X29921D01*
X23228Y74902D02*
X29921D01*
X332866Y103260D02*
Y107000D01*
X339559Y103260D02*
Y107000D01*
X332866Y103260D02*
X339559D01*
X332866Y107000D02*
X339559D01*
X301772Y122146D02*
Y125886D01*
X308465Y122146D02*
Y125886D01*
X301772Y122146D02*
X308465D01*
X301772Y125886D02*
X308465D01*
X272547Y109030D02*
Y112770D01*
X265854Y109030D02*
Y112770D01*
X272547D01*
X265854Y109030D02*
X272547D01*
X230153Y123630D02*
Y127370D01*
X236846Y123630D02*
Y127370D01*
X230153Y123630D02*
X236846D01*
X230153Y127370D02*
X236846D01*
X136417Y122146D02*
Y125886D01*
X143110Y122146D02*
Y125886D01*
X136417Y122146D02*
X143110D01*
X136417Y125886D02*
X143110D01*
X102953Y122146D02*
Y125886D01*
X109646Y122146D02*
Y125886D01*
X102953Y122146D02*
X109646D01*
X102953Y125886D02*
X109646D01*
X52756Y122146D02*
Y125886D01*
X59449Y122146D02*
Y125886D01*
X52756Y122146D02*
X59449D01*
X52756Y125886D02*
X59449D01*
X29921Y103445D02*
Y107185D01*
X23228Y103445D02*
Y107185D01*
X29921D01*
X23228Y103445D02*
X29921D01*
X332653Y122130D02*
Y125870D01*
X339347Y122130D02*
Y125870D01*
X332653Y122130D02*
X339347D01*
X332653Y125870D02*
X339347D01*
X301772Y178248D02*
Y181988D01*
X308465Y178248D02*
Y181988D01*
X301772Y178248D02*
X308465D01*
X301772Y181988D02*
X308465D01*
X271654Y179330D02*
Y183070D01*
X278346Y179330D02*
Y183070D01*
X271654Y179330D02*
X278346D01*
X271654Y183070D02*
X278346D01*
X229921Y171248D02*
Y174988D01*
X236614Y171248D02*
Y174988D01*
X229921Y171248D02*
X236614D01*
X229921Y174988D02*
X236614D01*
X136153Y171130D02*
Y174870D01*
X142847Y171130D02*
Y174870D01*
X136153Y171130D02*
X142847D01*
X136153Y174870D02*
X142847D01*
X102953Y172748D02*
Y176488D01*
X109646Y172748D02*
Y176488D01*
X102953Y172748D02*
X109646D01*
X102953Y176488D02*
X109646D01*
X52756Y178248D02*
Y181988D01*
X59449Y178248D02*
Y181988D01*
X52756Y178248D02*
X59449D01*
X52756Y181988D02*
X59449D01*
X29921Y122146D02*
Y125886D01*
X23228Y122146D02*
Y125886D01*
X29921D01*
X23228Y122146D02*
X29921D01*
X335236Y236319D02*
Y240059D01*
X341929Y236319D02*
Y240059D01*
X335236Y236319D02*
X341929D01*
X335236Y240059D02*
X341929D01*
X301772Y193996D02*
Y197736D01*
X308465Y193996D02*
Y197736D01*
X301772Y193996D02*
X308465D01*
X301772Y197736D02*
X308465D01*
X270654Y192630D02*
Y196370D01*
X277346Y192630D02*
Y196370D01*
X270654Y192630D02*
X277346D01*
X270654Y196370D02*
X277346D01*
X203847Y195130D02*
Y198870D01*
X197153Y195130D02*
Y198870D01*
X203847D01*
X197153Y195130D02*
X203847D01*
X136153Y195130D02*
Y198870D01*
X142847Y195130D02*
Y198870D01*
X136153Y195130D02*
X142847D01*
X136153Y198870D02*
X142847D01*
X102953Y203496D02*
Y207236D01*
X109645Y203496D02*
Y207236D01*
X102953Y203496D02*
X109645D01*
X102953Y207236D02*
X109645D01*
X52653Y202930D02*
Y206670D01*
X59346Y202930D02*
Y206670D01*
X52653Y202930D02*
X59346D01*
X52653Y206670D02*
X59346D01*
X29921Y236319D02*
Y240059D01*
X23228Y236319D02*
Y240059D01*
X29921D01*
X23228Y236319D02*
X29921D01*
X335236Y263878D02*
Y267618D01*
X341929Y263878D02*
Y267618D01*
X335236Y263878D02*
X341929D01*
X335236Y267618D02*
X341929D01*
X301772Y263878D02*
Y267618D01*
X308465Y263878D02*
Y267618D01*
X301772Y263878D02*
X308465D01*
X301772Y267618D02*
X308465D01*
X266339Y263878D02*
Y267618D01*
X273031Y263878D02*
Y267618D01*
X266339Y263878D02*
X273031D01*
X266339Y267618D02*
X273031D01*
X229921Y263878D02*
Y267618D01*
X236614Y263878D02*
Y267618D01*
X229921Y263878D02*
X236614D01*
X229921Y267618D02*
X236614D01*
X136417Y263878D02*
Y267618D01*
X143110Y263878D02*
Y267618D01*
X136417Y263878D02*
X143110D01*
X136417Y267618D02*
X143110D01*
X102953Y263878D02*
Y267618D01*
X109645Y263878D02*
Y267618D01*
X102953Y263878D02*
X109645D01*
X102953Y267618D02*
X109645D01*
X52756Y263878D02*
Y267618D01*
X59449Y263878D02*
Y267618D01*
X52756Y263878D02*
X59449D01*
X52756Y267618D02*
X59449D01*
X29921Y263878D02*
Y267618D01*
X23228Y263878D02*
Y267618D01*
X29921D01*
X23228Y263878D02*
X29921D01*
X335236Y311122D02*
Y314862D01*
X341929Y311122D02*
Y314862D01*
X335236Y311122D02*
X341929D01*
X335236Y314862D02*
X341929D01*
X301772Y311122D02*
Y314862D01*
X308465Y311122D02*
Y314862D01*
X301772Y311122D02*
X308465D01*
X301772Y314862D02*
X308465D01*
X266339Y318996D02*
Y322736D01*
X273031Y318996D02*
Y322736D01*
X266339Y318996D02*
X273031D01*
X266339Y322736D02*
X273031D01*
X228921Y311122D02*
Y314862D01*
X235614Y311122D02*
Y314862D01*
X228921Y311122D02*
X235614D01*
X228921Y314862D02*
X235614D01*
X136417Y311122D02*
Y314862D01*
X143110Y311122D02*
Y314862D01*
X136417Y311122D02*
X143110D01*
X136417Y314862D02*
X143110D01*
X102953Y311122D02*
Y314862D01*
X109646Y311122D02*
Y314862D01*
X102953Y311122D02*
X109646D01*
X102953Y314862D02*
X109646D01*
X52756Y311122D02*
Y314862D01*
X59449Y311122D02*
Y314862D01*
X52756Y311122D02*
X59449D01*
X52756Y314862D02*
X59449D01*
X29921Y311122D02*
Y314862D01*
X23228Y311122D02*
Y314862D01*
X29921D01*
X23228Y311122D02*
X29921D01*
X335236Y332776D02*
Y336516D01*
X341929Y332776D02*
Y336516D01*
X335236Y332776D02*
X341929D01*
X335236Y336516D02*
X341929D01*
X301772Y332776D02*
Y336516D01*
X308465Y332776D02*
Y336516D01*
X301772Y332776D02*
X308465D01*
X301772Y336516D02*
X308465D01*
X266339Y332776D02*
Y336516D01*
X273031Y332776D02*
Y336516D01*
X266339Y332776D02*
X273031D01*
X266339Y336516D02*
X273031D01*
X228921Y323917D02*
Y327657D01*
X235614Y323917D02*
Y327657D01*
X228921Y323917D02*
X235614D01*
X228921Y327657D02*
X235614D01*
X119917Y324417D02*
Y328157D01*
X126610Y324417D02*
Y328157D01*
X119917Y324417D02*
X126610D01*
X119917Y328157D02*
X126610D01*
X102953Y332776D02*
Y336516D01*
X109646Y332776D02*
Y336516D01*
X102953Y332776D02*
X109646D01*
X102953Y336516D02*
X109646D01*
X52756Y332776D02*
Y336516D01*
X59449Y332776D02*
Y336516D01*
X52756Y332776D02*
X59449D01*
X52756Y336516D02*
X59449D01*
X29921Y332776D02*
Y336516D01*
X23228Y332776D02*
Y336516D01*
X29921D01*
X23228Y332776D02*
X29921D01*
X347047Y27657D02*
Y31398D01*
X353740Y27657D02*
Y31398D01*
X347047Y27657D02*
X353740D01*
X347047Y31398D02*
X353740D01*
X313583Y31594D02*
Y35335D01*
X320276Y31594D02*
Y35335D01*
X313583Y31594D02*
X320276D01*
X313583Y35335D02*
X320276D01*
X278150Y33563D02*
Y37303D01*
X284842Y33563D02*
Y37303D01*
X278150Y33563D02*
X284842D01*
X278150Y37303D02*
X284842D01*
X241732Y38484D02*
Y42224D01*
X248425Y38484D02*
Y42224D01*
X241732Y38484D02*
X248425D01*
X241732Y42224D02*
X248425D01*
X147244Y38484D02*
Y42224D01*
X153937Y38484D02*
Y42224D01*
X147244Y38484D02*
X153937D01*
X147244Y42224D02*
X153937D01*
X113779Y27657D02*
Y31398D01*
X120473Y27657D02*
Y31398D01*
X113779Y27657D02*
X120473D01*
X113779Y31398D02*
X120473D01*
X63583Y27657D02*
Y31398D01*
X70276Y27657D02*
Y31398D01*
X63583Y27657D02*
X70276D01*
X63583Y31398D02*
X70276D01*
X19094Y27657D02*
Y31398D01*
X12402Y27657D02*
Y31398D01*
X19094D01*
X12402Y27657D02*
X19094D01*
X344547Y75402D02*
Y79142D01*
X351240Y75402D02*
Y79142D01*
X344547Y75402D02*
X351240D01*
X344547Y79142D02*
X351240D01*
X313583Y74902D02*
Y78642D01*
X320276Y74902D02*
Y78642D01*
X313583Y74902D02*
X320276D01*
X313583Y78642D02*
X320276D01*
X278150Y74902D02*
Y78642D01*
X284842Y74902D02*
Y78642D01*
X278150Y74902D02*
X284842D01*
X278150Y78642D02*
X284842D01*
X241732Y74901D02*
Y78642D01*
X248425Y74901D02*
Y78642D01*
X241732Y74901D02*
X248425D01*
X241732Y78642D02*
X248425D01*
X147244Y74902D02*
Y78642D01*
X153937Y74902D02*
Y78642D01*
X147244Y74902D02*
X153937D01*
X147244Y78642D02*
X153937D01*
X113779Y74901D02*
Y78642D01*
X120472Y74901D02*
Y78642D01*
X113779Y74901D02*
X120472D01*
X113779Y78642D02*
X120472D01*
X63583Y74902D02*
Y78642D01*
X70276Y74902D02*
Y78642D01*
X63583Y74902D02*
X70276D01*
X63583Y78642D02*
X70276D01*
X19094Y74902D02*
Y78642D01*
X12402Y74902D02*
Y78642D01*
X19094D01*
X12402Y74902D02*
X19094D01*
X346654Y103630D02*
Y107370D01*
X353346Y103630D02*
Y107370D01*
X346654Y103630D02*
X353346D01*
X346654Y107370D02*
X353346D01*
X313653Y122630D02*
Y126370D01*
X320346Y122630D02*
Y126370D01*
X313653Y122630D02*
X320346D01*
X313653Y126370D02*
X320346D01*
X278150Y129035D02*
Y132776D01*
X284842Y129035D02*
Y132776D01*
X278150Y129035D02*
X284842D01*
X278150Y132776D02*
X284842D01*
X242154Y123630D02*
Y127370D01*
X248847Y123630D02*
Y127370D01*
X242154Y123630D02*
X248847D01*
X242154Y127370D02*
X248847D01*
X147244Y129035D02*
Y132776D01*
X153937Y129035D02*
Y132776D01*
X147244Y129035D02*
X153937D01*
X147244Y132776D02*
X153937D01*
X113779Y129035D02*
Y132775D01*
X120472Y129035D02*
Y132775D01*
X113779Y129035D02*
X120472D01*
X113779Y132775D02*
X120472D01*
X63583Y122146D02*
Y125886D01*
X70276Y122146D02*
Y125886D01*
X63583Y122146D02*
X70276D01*
X63583Y125886D02*
X70276D01*
X19094Y103445D02*
Y107185D01*
X12402Y103445D02*
Y107185D01*
X19094D01*
X12402Y103445D02*
X19094D01*
X347047Y122146D02*
Y125886D01*
X353740Y122146D02*
Y125886D01*
X347047Y122146D02*
X353740D01*
X347047Y125886D02*
X353740D01*
X313583Y178248D02*
Y181988D01*
X320276Y178248D02*
Y181988D01*
X313583Y178248D02*
X320276D01*
X313583Y181988D02*
X320276D01*
X282102Y179448D02*
Y183188D01*
X288795Y179448D02*
Y183188D01*
X282102Y179448D02*
X288795D01*
X282102Y183188D02*
X288795D01*
X241732Y171248D02*
Y174988D01*
X248425Y171248D02*
Y174988D01*
X241732Y171248D02*
X248425D01*
X241732Y174988D02*
X248425D01*
X149653Y173130D02*
Y176870D01*
X156346Y173130D02*
Y176870D01*
X149653Y173130D02*
X156346D01*
X149653Y176870D02*
X156346D01*
X113779Y172748D02*
Y176488D01*
X120473Y172748D02*
Y176488D01*
X113779Y172748D02*
X120473D01*
X113779Y176488D02*
X120473D01*
X63583Y178248D02*
Y181988D01*
X70276Y178248D02*
Y181988D01*
X63583Y178248D02*
X70276D01*
X63583Y181988D02*
X70276D01*
X19094Y122146D02*
Y125886D01*
X12402Y122146D02*
Y125886D01*
X19094D01*
X12402Y122146D02*
X19094D01*
X347047Y236319D02*
Y240059D01*
X353740Y236319D02*
Y240059D01*
X347047Y236319D02*
X353740D01*
X347047Y240059D02*
X353740D01*
X313583Y193996D02*
Y197736D01*
X320276Y193996D02*
Y197736D01*
X313583Y193996D02*
X320276D01*
X313583Y197736D02*
X320276D01*
X278153Y233930D02*
Y237670D01*
X284846Y233930D02*
Y237670D01*
X278153Y233930D02*
X284846D01*
X278153Y237670D02*
X284846D01*
X241897Y194630D02*
Y198370D01*
X235204Y194630D02*
Y198370D01*
X241897D01*
X235204Y194630D02*
X241897D01*
X150154Y235130D02*
Y238870D01*
X156846Y235130D02*
Y238870D01*
X150154Y235130D02*
X156846D01*
X150154Y238870D02*
X156846D01*
X113779Y203496D02*
Y207236D01*
X120473Y203496D02*
Y207236D01*
X113779Y203496D02*
X120473D01*
X113779Y207236D02*
X120473D01*
X63653Y202630D02*
Y206370D01*
X70346Y202630D02*
Y206370D01*
X63653Y202630D02*
X70346D01*
X63653Y206370D02*
X70346D01*
X19094Y236319D02*
Y240059D01*
X12402Y236319D02*
Y240059D01*
X19094D01*
X12402Y236319D02*
X19094D01*
X347047Y263878D02*
Y267618D01*
X353740Y263878D02*
Y267618D01*
X347047Y263878D02*
X353740D01*
X347047Y267618D02*
X353740D01*
X313583Y263878D02*
Y267618D01*
X320276Y263878D02*
Y267618D01*
X313583Y263878D02*
X320276D01*
X313583Y267618D02*
X320276D01*
X278150Y263878D02*
Y267618D01*
X284842Y263878D02*
Y267618D01*
X278150Y263878D02*
X284842D01*
X278150Y267618D02*
X284842D01*
X241732Y263878D02*
Y267618D01*
X248425Y263878D02*
Y267618D01*
X241732Y263878D02*
X248425D01*
X241732Y267618D02*
X248425D01*
X147244Y263878D02*
Y267618D01*
X153937Y263878D02*
Y267618D01*
X147244Y263878D02*
X153937D01*
X147244Y267618D02*
X153937D01*
X113779Y263878D02*
Y267618D01*
X120473Y263878D02*
Y267618D01*
X113779Y263878D02*
X120473D01*
X113779Y267618D02*
X120473D01*
X63583Y263878D02*
Y267618D01*
X70276Y263878D02*
Y267618D01*
X63583Y263878D02*
X70276D01*
X63583Y267618D02*
X70276D01*
X19094Y263878D02*
Y267618D01*
X12402Y263878D02*
Y267618D01*
X19094D01*
X12402Y263878D02*
X19094D01*
X347047Y311122D02*
Y314862D01*
X353740Y311122D02*
Y314862D01*
X347047Y311122D02*
X353740D01*
X347047Y314862D02*
X353740D01*
X313583Y311122D02*
Y314862D01*
X320276Y311122D02*
Y314862D01*
X313583Y311122D02*
X320276D01*
X313583Y314862D02*
X320276D01*
X278150Y318996D02*
Y322736D01*
X284842Y318996D02*
Y322736D01*
X278150Y318996D02*
X284842D01*
X278150Y322736D02*
X284842D01*
X241732Y311122D02*
Y314862D01*
X248425Y311122D02*
Y314862D01*
X241732Y311122D02*
X248425D01*
X241732Y314862D02*
X248425D01*
X147244Y311122D02*
Y314862D01*
X153937Y311122D02*
Y314862D01*
X147244Y311122D02*
X153937D01*
X147244Y314862D02*
X153937D01*
X113779Y311122D02*
Y314862D01*
X120473Y311122D02*
Y314862D01*
X113779Y311122D02*
X120473D01*
X113779Y314862D02*
X120473D01*
X63583Y311122D02*
Y314862D01*
X70276Y311122D02*
Y314862D01*
X63583Y311122D02*
X70276D01*
X63583Y314862D02*
X70276D01*
X19094Y311122D02*
Y314862D01*
X12402Y311122D02*
Y314862D01*
X19094D01*
X12402Y311122D02*
X19094D01*
X347047Y332776D02*
Y336516D01*
X353740Y332776D02*
Y336516D01*
X347047Y332776D02*
X353740D01*
X347047Y336516D02*
X353740D01*
X313583Y332776D02*
Y336516D01*
X320276Y332776D02*
Y336516D01*
X313583Y332776D02*
X320276D01*
X313583Y336516D02*
X320276D01*
X278150Y332776D02*
Y336516D01*
X284842Y332776D02*
Y336516D01*
X278150Y332776D02*
X284842D01*
X278150Y336516D02*
X284842D01*
X241732Y323917D02*
Y327657D01*
X248425Y323917D02*
Y327657D01*
X241732Y323917D02*
X248425D01*
X241732Y327657D02*
X248425D01*
X130744Y324417D02*
Y328157D01*
X137437Y324417D02*
Y328157D01*
X130744Y324417D02*
X137437D01*
X130744Y328157D02*
X137437D01*
X113779Y332776D02*
Y336516D01*
X120473Y332776D02*
Y336516D01*
X113779Y332776D02*
X120473D01*
X113779Y336516D02*
X120473D01*
X63583Y332776D02*
Y336516D01*
X70276Y332776D02*
Y336516D01*
X63583Y332776D02*
X70276D01*
X63583Y336516D02*
X70276D01*
X19094Y332776D02*
Y336516D01*
X12402Y332776D02*
Y336516D01*
X19094D01*
X12402Y332776D02*
X19094D01*
X139081Y340635D02*
Y344965D01*
X136719Y340635D02*
Y344965D01*
Y340635D02*
X139081D01*
X136719Y344965D02*
X139081D01*
X12835Y140681D02*
X17165D01*
X12835Y138319D02*
X17165D01*
Y140681D01*
X12835Y138319D02*
Y140681D01*
X337335Y225719D02*
X341665D01*
X337335Y228081D02*
X341665D01*
X337335Y225719D02*
Y228081D01*
X341665Y225719D02*
Y228081D01*
X136735Y32181D02*
X141065D01*
X136735Y29819D02*
X141065D01*
Y32181D01*
X136735Y29819D02*
Y32181D01*
M02*
