G04 Layer_Color=2752767*
%FSLAX24Y24*%
%MOIN*%
G70*
G01*
G75*
%ADD55C,0.0020*%
D55*
X30930Y740D02*
Y900D01*
X31090D01*
Y740D01*
X30930D01*
X30137D02*
Y900D01*
X30297D01*
Y740D01*
X30137D01*
X34130D02*
Y900D01*
X34290D01*
Y740D01*
X34130D01*
X31950Y2200D02*
Y2360D01*
X32110D01*
Y2200D01*
X31950D01*
X27760Y2270D02*
Y2430D01*
X27920D01*
Y2270D01*
X27760D01*
X24840Y660D02*
Y820D01*
X25000D01*
Y660D01*
X24840D01*
X26730D02*
Y820D01*
X26890D01*
Y660D01*
X26730D01*
X2880Y27430D02*
Y27590D01*
X3040D01*
Y27430D01*
X2880D01*
X8270Y30510D02*
Y30670D01*
X8430D01*
Y30510D01*
X8270D01*
X23980Y33130D02*
Y33290D01*
X24140D01*
Y33130D01*
X23980D01*
X14310Y33080D02*
Y33240D01*
X14470D01*
Y33080D01*
X14310D01*
X14290Y32270D02*
Y32430D01*
X14450D01*
Y32270D01*
X14290D01*
X5960Y35620D02*
Y35780D01*
X6120D01*
Y35620D01*
X5960D01*
X10740Y35630D02*
Y35790D01*
X10900D01*
Y35630D01*
X10740D01*
X25800D02*
Y35790D01*
X25960D01*
Y35630D01*
X25800D01*
X23220Y35800D02*
Y35960D01*
X23380D01*
Y35800D01*
X23220D01*
X31340Y34320D02*
Y34480D01*
X31500D01*
Y34320D01*
X31340D01*
X26920D02*
Y34480D01*
X27080D01*
Y34320D01*
X26920D01*
X22680Y35330D02*
Y35490D01*
X22840D01*
Y35330D01*
X22680D01*
X22080Y33460D02*
Y33620D01*
X22240D01*
Y33460D01*
X22080D01*
X12460Y35320D02*
Y35480D01*
X12620D01*
Y35320D01*
X12460D01*
X8370Y35370D02*
Y35530D01*
X8530D01*
Y35370D01*
X8370D01*
X3759Y35530D02*
Y35690D01*
X3919D01*
Y35530D01*
X3759D01*
X20780Y18840D02*
Y19000D01*
X20940D01*
Y18840D01*
X20780D01*
X20580Y28150D02*
Y28310D01*
X20740D01*
Y28150D01*
X20580D01*
X20280Y28810D02*
Y28970D01*
X20440D01*
Y28810D01*
X20280D01*
X4160Y31180D02*
Y31340D01*
X4320D01*
Y31180D01*
X4160D01*
X4130Y30440D02*
Y30600D01*
X4290D01*
Y30440D01*
X4130D01*
X32800Y17730D02*
Y17890D01*
X32960D01*
Y17730D01*
X32800D01*
X21290Y9500D02*
Y9660D01*
X21450D01*
Y9500D01*
X21290D01*
X22420Y8670D02*
Y8830D01*
X22580D01*
Y8670D01*
X22420D01*
X21270Y10300D02*
Y10460D01*
X21430D01*
Y10300D01*
X21270D01*
Y8800D02*
Y8960D01*
X21430D01*
Y8800D01*
X21270D01*
X28320Y4860D02*
Y5020D01*
X28480D01*
Y4860D01*
X28320D01*
X34160Y5130D02*
Y5290D01*
X34320D01*
Y5130D01*
X34160D01*
X25850Y15010D02*
Y15170D01*
X26010D01*
Y15010D01*
X25850D01*
X29860Y15030D02*
Y15190D01*
X30020D01*
Y15030D01*
X29860D01*
X31630Y17330D02*
Y17490D01*
X31790D01*
Y17330D01*
X31630D01*
X28360Y27140D02*
Y27300D01*
X28520D01*
Y27140D01*
X28360D01*
X28340Y31290D02*
Y31450D01*
X28500D01*
Y31290D01*
X28340D01*
X31960Y30460D02*
Y30620D01*
X32120D01*
Y30460D01*
X31960D01*
X5090Y23790D02*
Y23950D01*
X5250D01*
Y23790D01*
X5090D01*
X8620Y5170D02*
Y5330D01*
X8780D01*
Y5170D01*
X8620D01*
X9020Y5720D02*
Y5880D01*
X9180D01*
Y5720D01*
X9020D01*
X9010Y6400D02*
Y6560D01*
X9170D01*
Y6400D01*
X9010D01*
X3150Y18130D02*
Y18290D01*
X3310D01*
Y18130D01*
X3150D01*
Y17370D02*
Y17530D01*
X3310D01*
Y17370D01*
X3150D01*
X3140Y18860D02*
Y19020D01*
X3300D01*
Y18860D01*
X3140D01*
X11750Y14880D02*
Y15040D01*
X11910D01*
Y14880D01*
X11750D01*
X8710Y11600D02*
Y11760D01*
X8870D01*
Y11600D01*
X8710D01*
X8730Y12430D02*
Y12590D01*
X8890D01*
Y12430D01*
X8730D01*
X17660Y15150D02*
Y15310D01*
X17820D01*
Y15150D01*
X17660D01*
X26570Y8730D02*
Y8890D01*
X26730D01*
Y8730D01*
X26570D01*
X19720Y18790D02*
Y18950D01*
X19880D01*
Y18790D01*
X19720D01*
X18910D02*
Y18950D01*
X19070D01*
Y18790D01*
X18910D01*
X27130Y13370D02*
Y13530D01*
X27290D01*
Y13370D01*
X27130D01*
X31910Y11700D02*
Y11860D01*
X32070D01*
Y11700D01*
X31910D01*
X28350Y8270D02*
Y8430D01*
X28510D01*
Y8270D01*
X28350D01*
X31900D02*
Y8430D01*
X32060D01*
Y8270D01*
X31900D01*
X13660Y6040D02*
Y6200D01*
X13820D01*
Y6040D01*
X13660D01*
X30740Y18850D02*
Y19010D01*
X30900D01*
Y18850D01*
X30740D01*
X3022Y12960D02*
Y13120D01*
X3182D01*
Y12960D01*
X3022D01*
X2320Y13680D02*
Y13840D01*
X2480D01*
Y13680D01*
X2320D01*
X2260Y9810D02*
Y9970D01*
X2420D01*
Y9810D01*
X2260D01*
X4510Y7830D02*
Y7990D01*
X4670D01*
Y7830D01*
X4510D01*
X3710Y7800D02*
Y7960D01*
X3870D01*
Y7800D01*
X3710D01*
X9640Y7940D02*
Y8100D01*
X9800D01*
Y7940D01*
X9640D01*
X24840Y5250D02*
Y5410D01*
X25000D01*
Y5250D01*
X24840D01*
X4380Y13680D02*
Y13840D01*
X4540D01*
Y13680D01*
X4380D01*
X20940Y15000D02*
Y15160D01*
X21100D01*
Y15000D01*
X20940D01*
X21820Y21070D02*
Y21230D01*
X21980D01*
Y21070D01*
X21820D01*
X29250Y19490D02*
Y19650D01*
X29410D01*
Y19490D01*
X29250D01*
X17180Y10290D02*
Y10450D01*
X17340D01*
Y10290D01*
X17180D01*
X19430Y27440D02*
Y27600D01*
X19590D01*
Y27440D01*
X19430D01*
X10050Y4690D02*
Y4850D01*
X10210D01*
Y4690D01*
X10050D01*
X4070Y20990D02*
Y21150D01*
X4230D01*
Y20990D01*
X4070D01*
X470Y11730D02*
Y11890D01*
X630D01*
Y11730D01*
X470D01*
X1000Y13270D02*
Y13430D01*
X1160D01*
Y13270D01*
X1000D01*
X17710Y33490D02*
Y33650D01*
X17870D01*
Y33490D01*
X17710D01*
X33470Y17420D02*
Y17580D01*
X33630D01*
Y17420D01*
X33470D01*
X32980Y18920D02*
Y19080D01*
X33140D01*
Y18920D01*
X32980D01*
X33480Y18250D02*
Y18410D01*
X33640D01*
Y18250D01*
X33480D01*
X22820Y830D02*
Y990D01*
X22980D01*
Y830D01*
X22820D01*
X20380Y4720D02*
Y4880D01*
X20540D01*
Y4720D01*
X20380D01*
X20140Y3920D02*
Y4080D01*
X20300D01*
Y3920D01*
X20140D01*
X19150Y4090D02*
Y4250D01*
X19310D01*
Y4090D01*
X19150D01*
X18170Y2870D02*
Y3030D01*
X18330D01*
Y2870D01*
X18170D01*
X13640Y2270D02*
Y2430D01*
X13800D01*
Y2270D01*
X13640D01*
X15300Y27700D02*
Y27860D01*
X15460D01*
Y27700D01*
X15300D01*
X28130Y12390D02*
Y12550D01*
X28290D01*
Y12390D01*
X28130D01*
X27310Y11890D02*
Y12050D01*
X27470D01*
Y11890D01*
X27310D01*
X15865Y18820D02*
Y18980D01*
X16025D01*
Y18820D01*
X15865D01*
X16670D02*
Y18980D01*
X16830D01*
Y18820D01*
X16670D01*
X22920Y24520D02*
Y24680D01*
X23080D01*
Y24520D01*
X22920D01*
X32520Y25770D02*
Y25930D01*
X32680D01*
Y25770D01*
X32520D01*
X25065Y13520D02*
Y13680D01*
X25225D01*
Y13520D01*
X25065D01*
X27140Y15020D02*
Y15180D01*
X27300D01*
Y15020D01*
X27140D01*
X35420Y13670D02*
Y13830D01*
X35580D01*
Y13670D01*
X35420D01*
X35620Y32420D02*
Y32580D01*
X35780D01*
Y32420D01*
X35620D01*
X7570Y720D02*
Y880D01*
X7730D01*
Y720D01*
X7570D01*
X8385Y2479D02*
Y2639D01*
X8545D01*
Y2479D01*
X8385D01*
X7696Y2085D02*
Y2245D01*
X7856D01*
Y2085D01*
X7696D01*
X6022Y707D02*
Y867D01*
X6182D01*
Y707D01*
X6022D01*
X33520Y32420D02*
Y32580D01*
X33680D01*
Y32420D01*
X33520D01*
X17670Y29270D02*
Y29430D01*
X17830D01*
Y29270D01*
X17670D01*
X12920Y30470D02*
Y30630D01*
X13080D01*
Y30470D01*
X12920D01*
X17440Y31318D02*
Y31478D01*
X17600D01*
Y31318D01*
X17440D01*
X25670Y28020D02*
Y28180D01*
X25830D01*
Y28020D01*
X25670D01*
X24070Y27320D02*
Y27480D01*
X24230D01*
Y27320D01*
X24070D01*
X23170Y29120D02*
Y29280D01*
X23330D01*
Y29120D01*
X23170D01*
X23770Y18320D02*
Y18480D01*
X23930D01*
Y18320D01*
X23770D01*
X30720Y35570D02*
Y35730D01*
X30880D01*
Y35570D01*
X30720D01*
X21770Y24270D02*
Y24430D01*
X21930D01*
Y24270D01*
X21770D01*
Y24970D02*
Y25130D01*
X21930D01*
Y24970D01*
X21770D01*
X26270Y19320D02*
Y19480D01*
X26430D01*
Y19320D01*
X26270D01*
X24870Y27670D02*
Y27830D01*
X25030D01*
Y27670D01*
X24870D01*
X14170Y28070D02*
Y28230D01*
X14330D01*
Y28070D01*
X14170D01*
X29070Y4120D02*
Y4280D01*
X29230D01*
Y4120D01*
X29070D01*
X35320Y4020D02*
Y4180D01*
X35480D01*
Y4020D01*
X35320D01*
X35070Y5560D02*
Y5720D01*
X35230D01*
Y5560D01*
X35070D01*
X29820Y5620D02*
Y5780D01*
X29980D01*
Y5620D01*
X29820D01*
X31890Y4060D02*
Y4220D01*
X32050D01*
Y4060D01*
X31890D01*
X21120Y5470D02*
Y5630D01*
X21280D01*
Y5470D01*
X21120D01*
X6770Y4920D02*
Y5080D01*
X6930D01*
Y4920D01*
X6770D01*
X10845Y5038D02*
Y5198D01*
X11005D01*
Y5038D01*
X10845D01*
X19220Y13220D02*
Y13380D01*
X19380D01*
Y13220D01*
X19220D01*
X27370Y24070D02*
Y24230D01*
X27530D01*
Y24070D01*
X27370D01*
X24670Y9120D02*
Y9280D01*
X24830D01*
Y9120D01*
X24670D01*
X32670Y11570D02*
Y11730D01*
X32830D01*
Y11570D01*
X32670D01*
X32020Y15070D02*
Y15230D01*
X32180D01*
Y15070D01*
X32020D01*
X32620Y12370D02*
Y12530D01*
X32780D01*
Y12370D01*
X32620D01*
X34320Y13770D02*
Y13930D01*
X34480D01*
Y13770D01*
X34320D01*
X33870Y9020D02*
Y9180D01*
X34030D01*
Y9020D01*
X33870D01*
X24670Y9936D02*
Y10096D01*
X24830D01*
Y9936D01*
X24670D01*
X22640Y9670D02*
Y9830D01*
X22800D01*
Y9670D01*
X22640D01*
X25820Y9420D02*
Y9580D01*
X25980D01*
Y9420D01*
X25820D01*
X26563D02*
Y9580D01*
X26723D01*
Y9420D01*
X26563D01*
X23310Y10280D02*
Y10440D01*
X23470D01*
Y10280D01*
X23310D01*
X28420Y9420D02*
Y9580D01*
X28580D01*
Y9420D01*
X28420D01*
X30720Y9470D02*
Y9630D01*
X30880D01*
Y9470D01*
X30720D01*
X26065Y13475D02*
Y13635D01*
X26225D01*
Y13475D01*
X26065D01*
X15420Y24320D02*
Y24480D01*
X15580D01*
Y24320D01*
X15420D01*
X720Y34070D02*
Y34230D01*
X880D01*
Y34070D01*
X720D01*
Y32320D02*
Y32480D01*
X880D01*
Y32320D01*
X720D01*
X7920Y33820D02*
Y33980D01*
X8080D01*
Y33820D01*
X7920D01*
X8420Y32020D02*
Y32180D01*
X8580D01*
Y32020D01*
X8420D01*
X17670Y32370D02*
Y32530D01*
X17830D01*
Y32370D01*
X17670D01*
X9170Y32270D02*
Y32430D01*
X9330D01*
Y32270D01*
X9170D01*
Y35670D02*
Y35830D01*
X9330D01*
Y35670D01*
X9170D01*
X14190Y23780D02*
Y23940D01*
X14350D01*
Y23780D01*
X14190D01*
X19530Y32290D02*
Y32450D01*
X19690D01*
Y32290D01*
X19530D01*
X17920Y11460D02*
Y11620D01*
X18080D01*
Y11460D01*
X17920D01*
X18070Y15790D02*
Y15950D01*
X18230D01*
Y15790D01*
X18070D01*
X17300Y17430D02*
Y17590D01*
X17460D01*
Y17430D01*
X17300D01*
X15650Y10170D02*
Y10330D01*
X15810D01*
Y10170D01*
X15650D01*
X9720Y18820D02*
Y18980D01*
X9880D01*
Y18820D01*
X9720D01*
X13120D02*
Y18980D01*
X13280D01*
Y18820D01*
X13120D01*
X9020D02*
Y18980D01*
X9180D01*
Y18820D01*
X9020D01*
X14192D02*
Y18980D01*
X14352D01*
Y18820D01*
X14192D01*
X17820Y17920D02*
Y18080D01*
X17980D01*
Y17920D01*
X17820D01*
X8320Y18820D02*
Y18980D01*
X8480D01*
Y18820D01*
X8320D01*
X12558Y17382D02*
Y17542D01*
X12718D01*
Y17382D01*
X12558D01*
X10845Y19620D02*
Y19780D01*
X11005D01*
Y19620D01*
X10845D01*
X8320Y13620D02*
Y13780D01*
X8480D01*
Y13620D01*
X8320D01*
X5810Y14700D02*
Y14860D01*
X5970D01*
Y14700D01*
X5810D01*
X6810Y14979D02*
Y15139D01*
X6970D01*
Y14979D01*
X6810D01*
X7480Y14510D02*
Y14670D01*
X7640D01*
Y14510D01*
X7480D01*
X7920Y11920D02*
Y12080D01*
X8080D01*
Y11920D01*
X7920D01*
X9520Y13420D02*
Y13580D01*
X9680D01*
Y13420D01*
X9520D01*
X7330Y23100D02*
Y23260D01*
X7490D01*
Y23100D01*
X7330D01*
X13540Y21180D02*
Y21340D01*
X13700D01*
Y21180D01*
X13540D01*
X27184Y10353D02*
Y10513D01*
X27344D01*
Y10353D01*
X27184D01*
X1450Y32360D02*
Y32520D01*
X1610D01*
Y32360D01*
X1450D01*
X30980Y21190D02*
Y21350D01*
X31140D01*
Y21190D01*
X30980D01*
X31850Y21520D02*
Y21680D01*
X32010D01*
Y21520D01*
X31850D01*
X33385Y21869D02*
Y22029D01*
X33545D01*
Y21869D01*
X33385D01*
X29460Y24450D02*
Y24610D01*
X29620D01*
Y24450D01*
X29460D01*
X32670Y30860D02*
Y31020D01*
X32830D01*
Y30860D01*
X32670D01*
X22070Y12510D02*
Y12670D01*
X22230D01*
Y12510D01*
X22070D01*
X31820Y24300D02*
Y24460D01*
X31980D01*
Y24300D01*
X31820D01*
X22000Y15240D02*
Y15400D01*
X22160D01*
Y15240D01*
X22000D01*
X30710Y23510D02*
Y23670D01*
X30870D01*
Y23510D01*
X30710D01*
X12540Y14900D02*
Y15060D01*
X12700D01*
Y14900D01*
X12540D01*
X12070Y23430D02*
Y23590D01*
X12230D01*
Y23430D01*
X12070D01*
X7696Y22066D02*
Y22226D01*
X7856D01*
Y22066D01*
X7696D01*
X17243Y7400D02*
Y7560D01*
X17403D01*
Y7400D01*
X17243D01*
X12318Y8680D02*
Y8840D01*
X12478D01*
Y8680D01*
X12318D01*
X16062Y5570D02*
Y5730D01*
X16222D01*
Y5570D01*
X16062D01*
X16849Y5629D02*
Y5789D01*
X17009D01*
Y5629D01*
X16849D01*
X7892Y7794D02*
Y7954D01*
X8052D01*
Y7794D01*
X7892D01*
X24034Y3070D02*
Y3230D01*
X24194D01*
Y3070D01*
X24034D01*
X21967D02*
Y3230D01*
X22127D01*
Y3070D01*
X21967D01*
X2282Y707D02*
Y867D01*
X2442D01*
Y707D01*
X2282D01*
X3660Y2873D02*
Y3033D01*
X3820D01*
Y2873D01*
X3660D01*
X1003Y8778D02*
Y8938D01*
X1163D01*
Y8778D01*
X1003D01*
X4448Y18424D02*
Y18584D01*
X4608D01*
Y18424D01*
X4448D01*
X10845Y22785D02*
Y22945D01*
X11005D01*
Y22785D01*
X10845D01*
X920Y22755D02*
Y22915D01*
X1080D01*
Y22755D01*
X920D01*
X35353Y27971D02*
Y28131D01*
X35513D01*
Y27971D01*
X35353D01*
X7696Y26298D02*
Y26458D01*
X7856D01*
Y26298D01*
X7696D01*
X8286Y26866D02*
Y27026D01*
X8446D01*
Y26866D01*
X8286D01*
X1200Y28070D02*
Y28230D01*
X1360D01*
Y28070D01*
X1200D01*
X32499Y29329D02*
Y29489D01*
X32659D01*
Y29329D01*
X32499D01*
X12617Y31416D02*
Y31576D01*
X12777D01*
Y31416D01*
X12617D01*
X25806Y29054D02*
Y29214D01*
X25966D01*
Y29054D01*
X25806D01*
X17735Y24526D02*
Y24686D01*
X17895D01*
Y24526D01*
X17735D01*
X12223Y24625D02*
Y24785D01*
X12383D01*
Y24625D01*
X12223D01*
X4448Y19310D02*
Y19470D01*
X4608D01*
Y19310D01*
X4448D01*
X13700Y35530D02*
Y35690D01*
X13860D01*
Y35530D01*
X13700D01*
X8780Y22770D02*
Y22930D01*
X8940D01*
Y22770D01*
X8780D01*
X22680Y2260D02*
Y2420D01*
X22840D01*
Y2260D01*
X22680D01*
X12540Y7660D02*
Y7820D01*
X12700D01*
Y7660D01*
X12540D01*
X27774Y34172D02*
Y34332D01*
X27934D01*
Y34172D01*
X27774D01*
X32597Y34074D02*
Y34234D01*
X32757D01*
Y34074D01*
X32597D01*
X8286Y7203D02*
Y7363D01*
X8446D01*
Y7203D01*
X8286D01*
X10845Y24034D02*
Y24194D01*
X11005D01*
Y24034D01*
X10845D01*
X13207Y806D02*
Y966D01*
X13367D01*
Y806D01*
X13207D01*
X10845Y10255D02*
Y10415D01*
X11005D01*
Y10255D01*
X10845D01*
X14723Y2991D02*
Y3151D01*
X14883D01*
Y2991D01*
X14723D01*
X2873Y8763D02*
Y8923D01*
X3033D01*
Y8763D01*
X2873D01*
X13096Y9959D02*
Y10119D01*
X13256D01*
Y9959D01*
X13096D01*
X22120Y11520D02*
Y11680D01*
X22280D01*
Y11520D01*
X22120D01*
X32892Y2873D02*
Y3033D01*
X33052D01*
Y2873D01*
X32892D01*
X24428Y4546D02*
Y4706D01*
X24588D01*
Y4546D01*
X24428D01*
X7696Y16849D02*
Y17009D01*
X7856D01*
Y16849D01*
X7696D01*
X5235Y4644D02*
Y4804D01*
X5395D01*
Y4644D01*
X5235D01*
X11791Y9959D02*
Y10119D01*
X11951D01*
Y9959D01*
X11791D01*
X2282Y5333D02*
Y5493D01*
X2442D01*
Y5333D01*
X2282D01*
X4349Y10255D02*
Y10415D01*
X4509D01*
Y10255D01*
X4349D01*
X6022D02*
Y10415D01*
X6182D01*
Y10255D01*
X6022D01*
X34270Y35747D02*
Y35907D01*
X34430D01*
Y35747D01*
X34270D01*
X520Y2184D02*
Y2344D01*
X680D01*
Y2184D01*
X520D01*
Y1396D02*
Y1556D01*
X680D01*
Y1396D01*
X520D01*
X12715Y2135D02*
Y2295D01*
X12875D01*
Y2135D01*
X12715D01*
Y2991D02*
Y3151D01*
X12875D01*
Y2991D01*
X12715D01*
X3960Y11700D02*
Y11860D01*
X4120D01*
Y11700D01*
X3960D01*
X12220Y11650D02*
Y11810D01*
X12380D01*
Y11650D01*
X12220D01*
X17144Y8778D02*
Y8938D01*
X17304D01*
Y8778D01*
X17144D01*
X15510Y9090D02*
Y9250D01*
X15670D01*
Y9090D01*
X15510D01*
X16274Y9074D02*
Y9234D01*
X16434D01*
Y9074D01*
X16274D01*
X16510Y4010D02*
Y4170D01*
X16670D01*
Y4010D01*
X16510D01*
X12270Y806D02*
Y966D01*
X12430D01*
Y806D01*
X12270D01*
X8840Y24650D02*
Y24810D01*
X9000D01*
Y24650D01*
X8840D01*
X34660Y22860D02*
Y23020D01*
X34820D01*
Y22860D01*
X34660D01*
X35410Y22850D02*
Y23010D01*
X35570D01*
Y22850D01*
X35410D01*
X21550Y4580D02*
Y4740D01*
X21710D01*
Y4580D01*
X21550D01*
X520Y3930D02*
Y4090D01*
X680D01*
Y3930D01*
X520D01*
X3168Y14389D02*
Y14548D01*
X3328D01*
Y14389D01*
X3168D01*
X920Y24440D02*
Y24600D01*
X1080D01*
Y24440D01*
X920D01*
X25360Y32210D02*
Y32370D01*
X25520D01*
Y32210D01*
X25360D01*
X12720Y26540D02*
Y26700D01*
X12880D01*
Y26540D01*
X12720D01*
X13810Y15370D02*
Y15530D01*
X13970D01*
Y15370D01*
X13810D01*
X9070Y9960D02*
Y10120D01*
X9230D01*
Y9960D01*
X9070D01*
X4251Y26101D02*
Y26261D01*
X4411D01*
Y26101D01*
X4251D01*
X2250Y24380D02*
Y24540D01*
X2410D01*
Y24380D01*
X2250D01*
X4490Y17360D02*
Y17520D01*
X4650D01*
Y17360D01*
X4490D01*
X3430Y22970D02*
Y23130D01*
X3590D01*
Y22970D01*
X3430D01*
X17360Y12620D02*
Y12780D01*
X17520D01*
Y12620D01*
X17360D01*
X35070Y8910D02*
Y9070D01*
X35230D01*
Y8910D01*
X35070D01*
X1290Y5040D02*
Y5200D01*
X1450D01*
Y5040D01*
X1290D01*
X1980Y22910D02*
Y23070D01*
X2140D01*
Y22910D01*
X1980D01*
X10700Y14790D02*
Y14950D01*
X10860D01*
Y14790D01*
X10700D01*
X12715Y12518D02*
Y12678D01*
X12875D01*
Y12518D01*
X12715D01*
X13798Y10353D02*
Y10513D01*
X13958D01*
Y10353D01*
X13798D01*
X27184Y29054D02*
Y29214D01*
X27344D01*
Y29054D01*
X27184D01*
X30038D02*
Y29214D01*
X30198D01*
Y29054D01*
X30038D01*
X30727D02*
Y29214D01*
X30887D01*
Y29054D01*
X30727D01*
X3660Y27184D02*
Y27344D01*
X3820D01*
Y27184D01*
X3660D01*
X2282Y28266D02*
Y28426D01*
X2442D01*
Y28266D01*
X2282D01*
X5235D02*
Y28426D01*
X5395D01*
Y28266D01*
X5235D01*
X5924Y28266D02*
Y28426D01*
X6084D01*
Y28266D01*
X5924D01*
X10845Y28266D02*
Y28426D01*
X11005D01*
Y28266D01*
X10845D01*
X1680Y13280D02*
Y13440D01*
X1840D01*
Y13280D01*
X1680D01*
X10845Y806D02*
Y966D01*
X11005D01*
Y806D01*
X10845D01*
X3810Y15360D02*
Y15520D01*
X3970D01*
Y15360D01*
X3810D01*
X3980Y19930D02*
Y20090D01*
X4140D01*
Y19930D01*
X3980D01*
X8260Y31350D02*
Y31510D01*
X8420D01*
Y31350D01*
X8260D01*
X7870Y33140D02*
Y33300D01*
X8030D01*
Y33140D01*
X7870D01*
X4160Y34050D02*
Y34210D01*
X4320D01*
Y34050D01*
X4160D01*
X12570Y33380D02*
Y33540D01*
X12730D01*
Y33380D01*
X12570D01*
X13090Y34000D02*
Y34160D01*
X13250D01*
Y34000D01*
X13090D01*
X22060Y23360D02*
Y23520D01*
X22220D01*
Y23360D01*
X22060D01*
X32390Y21070D02*
Y21230D01*
X32550D01*
Y21070D01*
X32390D01*
X32640Y15460D02*
Y15620D01*
X32800D01*
Y15460D01*
X32640D01*
X34870Y13270D02*
Y13430D01*
X35030D01*
Y13270D01*
X34870D01*
X33500Y14360D02*
Y14520D01*
X33660D01*
Y14360D01*
X33500D01*
X32500Y6300D02*
Y6460D01*
X32660D01*
Y6300D01*
X32500D01*
X7720Y24370D02*
Y24530D01*
X7880D01*
Y24370D01*
X7720D01*
X5826Y24034D02*
Y24194D01*
X5986D01*
Y24034D01*
X5826D01*
X6830Y24380D02*
Y24540D01*
X6990D01*
Y24380D01*
X6830D01*
X16970Y32240D02*
Y32400D01*
X17130D01*
Y32240D01*
X16970D01*
X21740Y30840D02*
Y31000D01*
X21900D01*
Y30840D01*
X21740D01*
X22710Y30470D02*
Y30630D01*
X22870D01*
Y30470D01*
X22710D01*
X24835Y18190D02*
Y18350D01*
X24995D01*
Y18190D01*
X24835D01*
X26470Y11860D02*
Y12020D01*
X26630D01*
Y11860D01*
X26470D01*
X30090Y9960D02*
Y10120D01*
X30250D01*
Y9960D01*
X30090D01*
X35690Y11750D02*
Y11910D01*
X35850D01*
Y11750D01*
X35690D01*
X7650Y3640D02*
Y3800D01*
X7810D01*
Y3640D01*
X7650D01*
X23500Y28380D02*
Y28540D01*
X23660D01*
Y28380D01*
X23500D01*
X22460Y27320D02*
Y27480D01*
X22620D01*
Y27320D01*
X22460D01*
X22920Y21770D02*
Y21930D01*
X23080D01*
Y21770D01*
X22920D01*
X26370Y23370D02*
Y23530D01*
X26530D01*
Y23370D01*
X26370D01*
X26510Y21280D02*
Y21440D01*
X26670D01*
Y21280D01*
X26510D01*
X27840Y21340D02*
Y21500D01*
X28000D01*
Y21340D01*
X27840D01*
X26890Y18690D02*
Y18850D01*
X27050D01*
Y18690D01*
X26890D01*
X28665Y17390D02*
Y17550D01*
X28825D01*
Y17390D01*
X28665D01*
X27590Y18700D02*
Y18860D01*
X27750D01*
Y18700D01*
X27590D01*
X25110Y19450D02*
Y19610D01*
X25270D01*
Y19450D01*
X25110D01*
X33520Y28070D02*
Y28230D01*
X33680D01*
Y28070D01*
X33520D01*
X24470Y23370D02*
Y23530D01*
X24630D01*
Y23370D01*
X24470D01*
X22770D02*
Y23530D01*
X22930D01*
Y23370D01*
X22770D01*
X23620D02*
Y23530D01*
X23780D01*
Y23370D01*
X23620D01*
X24640Y24410D02*
Y24570D01*
X24800D01*
Y24410D01*
X24640D01*
X5826Y18719D02*
Y18879D01*
X5986D01*
Y18719D01*
X5826D01*
X16850Y21250D02*
Y21410D01*
X17010D01*
Y21250D01*
X16850D01*
X30660Y15100D02*
Y15260D01*
X30820D01*
Y15100D01*
X30660D01*
X5830Y5550D02*
Y5710D01*
X5990D01*
Y5550D01*
X5830D01*
X11740Y5610D02*
Y5770D01*
X11900D01*
Y5610D01*
X11740D01*
X20270Y5560D02*
Y5720D01*
X20430D01*
Y5560D01*
X20270D01*
X35670Y34010D02*
Y34170D01*
X35830D01*
Y34010D01*
X35670D01*
X684Y30684D02*
Y30844D01*
X844D01*
Y30684D01*
X684D01*
X31910Y27140D02*
Y27300D01*
X32070D01*
Y27140D01*
X31910D01*
X23260Y18960D02*
Y19120D01*
X23420D01*
Y18960D01*
X23260D01*
X31870Y18820D02*
Y18980D01*
X32030D01*
Y18820D01*
X31870D01*
X6940Y18600D02*
Y18760D01*
X7100D01*
Y18600D01*
X6940D01*
X6910Y19430D02*
Y19590D01*
X7070D01*
Y19430D01*
X6910D01*
X14950Y18800D02*
Y18960D01*
X15110D01*
Y18800D01*
X14950D01*
X520Y5620D02*
Y5780D01*
X680D01*
Y5620D01*
X520D01*
M02*
