G04 Layer_Color=2752767*
%FSLAX25Y25*%
%MOIN*%
G70*
G01*
G75*
%ADD59C,0.00200*%
D59*
X59600Y356200D02*
Y357800D01*
X61200D01*
Y356200D01*
X59600D01*
X107400Y356300D02*
Y357900D01*
X109000D01*
Y356300D01*
X107400D01*
X258000D02*
Y357900D01*
X259600D01*
Y356300D01*
X258000D01*
X232200Y358000D02*
Y359600D01*
X233800D01*
Y358000D01*
X232200D01*
X313400Y343200D02*
Y344800D01*
X315000D01*
Y343200D01*
X313400D01*
X269200D02*
Y344800D01*
X270800D01*
Y343200D01*
X269200D01*
X226800Y353300D02*
Y354900D01*
X228400D01*
Y353300D01*
X226800D01*
X220800Y334600D02*
Y336200D01*
X222400D01*
Y334600D01*
X220800D01*
X124600Y353200D02*
Y354800D01*
X126200D01*
Y353200D01*
X124600D01*
X83700Y353700D02*
Y355300D01*
X85300D01*
Y353700D01*
X83700D01*
X37586Y355300D02*
Y356900D01*
X39186D01*
Y355300D01*
X37586D01*
X207800Y188400D02*
Y190000D01*
X209400D01*
Y188400D01*
X207800D01*
X205800Y281500D02*
Y283100D01*
X207400D01*
Y281500D01*
X205800D01*
X202800Y288100D02*
Y289700D01*
X204400D01*
Y288100D01*
X202800D01*
X41600Y311800D02*
Y313400D01*
X43200D01*
Y311800D01*
X41600D01*
X41300Y304400D02*
Y306000D01*
X42900D01*
Y304400D01*
X41300D01*
X328000Y177300D02*
Y178900D01*
X329600D01*
Y177300D01*
X328000D01*
X212900Y95000D02*
Y96600D01*
X214500D01*
Y95000D01*
X212900D01*
X224200Y86700D02*
Y88300D01*
X225800D01*
Y86700D01*
X224200D01*
X212700Y103000D02*
Y104600D01*
X214300D01*
Y103000D01*
X212700D01*
Y88000D02*
Y89600D01*
X214300D01*
Y88000D01*
X212700D01*
X283200Y48600D02*
Y50200D01*
X284800D01*
Y48600D01*
X283200D01*
X341600Y51300D02*
Y52900D01*
X343200D01*
Y51300D01*
X341600D01*
X258500Y150100D02*
Y151700D01*
X260100D01*
Y150100D01*
X258500D01*
X298600Y150300D02*
Y151900D01*
X300200D01*
Y150300D01*
X298600D01*
X316300Y173300D02*
Y174900D01*
X317900D01*
Y173300D01*
X316300D01*
X283600Y271400D02*
Y273000D01*
X285200D01*
Y271400D01*
X283600D01*
X283400Y312900D02*
Y314500D01*
X285000D01*
Y312900D01*
X283400D01*
X319600Y304600D02*
Y306200D01*
X321200D01*
Y304600D01*
X319600D01*
X50900Y237900D02*
Y239500D01*
X52500D01*
Y237900D01*
X50900D01*
X86200Y51700D02*
Y53300D01*
X87800D01*
Y51700D01*
X86200D01*
X90200Y57200D02*
Y58800D01*
X91800D01*
Y57200D01*
X90200D01*
X90100Y64000D02*
Y65600D01*
X91700D01*
Y64000D01*
X90100D01*
X31500Y181300D02*
Y182900D01*
X33100D01*
Y181300D01*
X31500D01*
Y173700D02*
Y175300D01*
X33100D01*
Y173700D01*
X31500D01*
X31400Y188600D02*
Y190200D01*
X33000D01*
Y188600D01*
X31400D01*
X117500Y148800D02*
Y150400D01*
X119100D01*
Y148800D01*
X117500D01*
X87100Y116000D02*
Y117600D01*
X88700D01*
Y116000D01*
X87100D01*
X87300Y124300D02*
Y125900D01*
X88900D01*
Y124300D01*
X87300D01*
X176600Y151500D02*
Y153100D01*
X178200D01*
Y151500D01*
X176600D01*
X265700Y87300D02*
Y88900D01*
X267300D01*
Y87300D01*
X265700D01*
X197200Y187900D02*
Y189500D01*
X198800D01*
Y187900D01*
X197200D01*
X189100D02*
Y189500D01*
X190700D01*
Y187900D01*
X189100D01*
X149500Y188000D02*
Y189600D01*
X151100D01*
Y188000D01*
X149500D01*
X271300Y133700D02*
Y135300D01*
X272900D01*
Y133700D01*
X271300D01*
X319100Y117000D02*
Y118600D01*
X320700D01*
Y117000D01*
X319100D01*
X283500Y82700D02*
Y84300D01*
X285100D01*
Y82700D01*
X283500D01*
X319000D02*
Y84300D01*
X320600D01*
Y82700D01*
X319000D01*
X136600Y60400D02*
Y62000D01*
X138200D01*
Y60400D01*
X136600D01*
X307400Y188500D02*
Y190100D01*
X309000D01*
Y188500D01*
X307400D01*
X30217Y129600D02*
Y131200D01*
X31817D01*
Y129600D01*
X30217D01*
X23200Y136800D02*
Y138400D01*
X24800D01*
Y136800D01*
X23200D01*
X22600Y98100D02*
Y99700D01*
X24200D01*
Y98100D01*
X22600D01*
X45100Y78300D02*
Y79900D01*
X46700D01*
Y78300D01*
X45100D01*
X37100Y78000D02*
Y79600D01*
X38700D01*
Y78000D01*
X37100D01*
X96400Y79400D02*
Y81000D01*
X98000D01*
Y79400D01*
X96400D01*
X248400Y52500D02*
Y54100D01*
X250000D01*
Y52500D01*
X248400D01*
X43800Y136800D02*
Y138400D01*
X45400D01*
Y136800D01*
X43800D01*
X209400Y150000D02*
Y151600D01*
X211000D01*
Y150000D01*
X209400D01*
X218200Y210700D02*
Y212300D01*
X219800D01*
Y210700D01*
X218200D01*
X292500Y194900D02*
Y196500D01*
X294100D01*
Y194900D01*
X292500D01*
X171800Y102900D02*
Y104500D01*
X173400D01*
Y102900D01*
X171800D01*
X194300Y274400D02*
Y276000D01*
X195900D01*
Y274400D01*
X194300D01*
X100500Y46900D02*
Y48500D01*
X102100D01*
Y46900D01*
X100500D01*
X40700Y209900D02*
Y211500D01*
X42300D01*
Y209900D01*
X40700D01*
X4700Y117300D02*
Y118900D01*
X6300D01*
Y117300D01*
X4700D01*
X10000Y132700D02*
Y134300D01*
X11600D01*
Y132700D01*
X10000D01*
X177100Y334900D02*
Y336500D01*
X178700D01*
Y334900D01*
X177100D01*
X334700Y174200D02*
Y175800D01*
X336300D01*
Y174200D01*
X334700D01*
X329800Y189200D02*
Y190800D01*
X331400D01*
Y189200D01*
X329800D01*
X334800Y182500D02*
Y184100D01*
X336400D01*
Y182500D01*
X334800D01*
X228200Y8300D02*
Y9900D01*
X229800D01*
Y8300D01*
X228200D01*
X203800Y47200D02*
Y48800D01*
X205400D01*
Y47200D01*
X203800D01*
X201400Y39200D02*
Y40800D01*
X203000D01*
Y39200D01*
X201400D01*
X191500Y40900D02*
Y42500D01*
X193100D01*
Y40900D01*
X191500D01*
X181700Y28700D02*
Y30300D01*
X183300D01*
Y28700D01*
X181700D01*
X136400Y22700D02*
Y24300D01*
X138000D01*
Y22700D01*
X136400D01*
X153000Y277000D02*
Y278600D01*
X154600D01*
Y277000D01*
X153000D01*
X281300Y123900D02*
Y125500D01*
X282900D01*
Y123900D01*
X281300D01*
X273100Y118900D02*
Y120500D01*
X274700D01*
Y118900D01*
X273100D01*
X240700Y332700D02*
Y334300D01*
X242300D01*
Y332700D01*
X240700D01*
X158649Y188200D02*
Y189800D01*
X160249D01*
Y188200D01*
X158649D01*
X166700D02*
Y189800D01*
X168300D01*
Y188200D01*
X166700D01*
X229200Y245200D02*
Y246800D01*
X230800D01*
Y245200D01*
X229200D01*
X325200Y257700D02*
Y259300D01*
X326800D01*
Y257700D01*
X325200D01*
X250650Y135200D02*
Y136800D01*
X252250D01*
Y135200D01*
X250650D01*
X271400Y150200D02*
Y151800D01*
X273000D01*
Y150200D01*
X271400D01*
X354200Y136700D02*
Y138300D01*
X355800D01*
Y136700D01*
X354200D01*
X356200Y324200D02*
Y325800D01*
X357800D01*
Y324200D01*
X356200D01*
X75700Y7200D02*
Y8800D01*
X77300D01*
Y7200D01*
X75700D01*
X83846Y24791D02*
Y26391D01*
X85446D01*
Y24791D01*
X83846D01*
X76956Y20854D02*
Y22454D01*
X78556D01*
Y20854D01*
X76956D01*
X60224Y7074D02*
Y8674D01*
X61824D01*
Y7074D01*
X60224D01*
X335200Y324200D02*
Y325800D01*
X336800D01*
Y324200D01*
X335200D01*
X176700Y292700D02*
Y294300D01*
X178300D01*
Y292700D01*
X176700D01*
X129200Y304700D02*
Y306300D01*
X130800D01*
Y304700D01*
X129200D01*
X174397Y313176D02*
Y314776D01*
X175996D01*
Y313176D01*
X174397D01*
X256700Y280200D02*
Y281800D01*
X258300D01*
Y280200D01*
X256700D01*
X240700Y273200D02*
Y274800D01*
X242300D01*
Y273200D01*
X240700D01*
X231700Y291200D02*
Y292800D01*
X233300D01*
Y291200D01*
X231700D01*
X237700Y183200D02*
Y184800D01*
X239300D01*
Y183200D01*
X237700D01*
X307200Y355700D02*
Y357300D01*
X308800D01*
Y355700D01*
X307200D01*
X217700Y242700D02*
Y244300D01*
X219300D01*
Y242700D01*
X217700D01*
Y249700D02*
Y251300D01*
X219300D01*
Y249700D01*
X217700D01*
X262700Y193200D02*
Y194800D01*
X264300D01*
Y193200D01*
X262700D01*
X248700Y276700D02*
Y278300D01*
X250300D01*
Y276700D01*
X248700D01*
X141700Y280700D02*
Y282300D01*
X143300D01*
Y280700D01*
X141700D01*
X290700Y41200D02*
Y42800D01*
X292300D01*
Y41200D01*
X290700D01*
X353200Y40200D02*
Y41800D01*
X354800D01*
Y40200D01*
X353200D01*
X352700Y48700D02*
Y50300D01*
X354300D01*
Y48700D01*
X352700D01*
X350700Y55600D02*
Y57200D01*
X352300D01*
Y55600D01*
X350700D01*
X298200Y56200D02*
Y57800D01*
X299800D01*
Y56200D01*
X298200D01*
X318900Y40600D02*
Y42200D01*
X320500D01*
Y40600D01*
X318900D01*
X211200Y54700D02*
Y56300D01*
X212800D01*
Y54700D01*
X211200D01*
X67700Y49200D02*
Y50800D01*
X69300D01*
Y49200D01*
X67700D01*
X108452Y50381D02*
Y51981D01*
X110052D01*
Y50381D01*
X108452D01*
X192200Y132200D02*
Y133800D01*
X193800D01*
Y132200D01*
X192200D01*
X273700Y240700D02*
Y242300D01*
X275300D01*
Y240700D01*
X273700D01*
X246700Y91200D02*
Y92800D01*
X248300D01*
Y91200D01*
X246700D01*
X326700Y115700D02*
Y117300D01*
X328300D01*
Y115700D01*
X326700D01*
X320200Y150700D02*
Y152300D01*
X321800D01*
Y150700D01*
X320200D01*
X322200Y133200D02*
Y134800D01*
X323800D01*
Y133200D01*
X322200D01*
X326200Y123700D02*
Y125300D01*
X327800D01*
Y123700D01*
X326200D01*
X343200Y137700D02*
Y139300D01*
X344800D01*
Y137700D01*
X343200D01*
X338700Y90200D02*
Y91800D01*
X340300D01*
Y90200D01*
X338700D01*
X246700Y99357D02*
Y100957D01*
X248300D01*
Y99357D01*
X246700D01*
X226400Y96700D02*
Y98300D01*
X228000D01*
Y96700D01*
X226400D01*
X258200Y94200D02*
Y95800D01*
X259800D01*
Y94200D01*
X258200D01*
X265628D02*
Y95800D01*
X267228D01*
Y94200D01*
X265628D01*
X233100Y102800D02*
Y104400D01*
X234700D01*
Y102800D01*
X233100D01*
X284200Y94200D02*
Y95800D01*
X285800D01*
Y94200D01*
X284200D01*
X307200Y94700D02*
Y96300D01*
X308800D01*
Y94700D01*
X307200D01*
X260650Y134750D02*
Y136350D01*
X262250D01*
Y134750D01*
X260650D01*
X154200Y243200D02*
Y244800D01*
X155800D01*
Y243200D01*
X154200D01*
X143200Y324200D02*
Y325800D01*
X144800D01*
Y324200D01*
X143200D01*
X7200Y340700D02*
Y342300D01*
X8800D01*
Y340700D01*
X7200D01*
Y323200D02*
Y324800D01*
X8800D01*
Y323200D01*
X7200D01*
X79200Y338200D02*
Y339800D01*
X80800D01*
Y338200D01*
X79200D01*
X84200Y320200D02*
Y321800D01*
X85800D01*
Y320200D01*
X84200D01*
X176700Y323700D02*
Y325300D01*
X178300D01*
Y323700D01*
X176700D01*
X91700Y322700D02*
Y324300D01*
X93300D01*
Y322700D01*
X91700D01*
Y356700D02*
Y358300D01*
X93300D01*
Y356700D01*
X91700D01*
X141900Y237800D02*
Y239400D01*
X143500D01*
Y237800D01*
X141900D01*
X143100Y332400D02*
Y334000D01*
X144700D01*
Y332400D01*
X143100D01*
X195300Y322900D02*
Y324500D01*
X196900D01*
Y322900D01*
X195300D01*
X179200Y114600D02*
Y116200D01*
X180800D01*
Y114600D01*
X179200D01*
X180700Y157900D02*
Y159500D01*
X182300D01*
Y157900D01*
X180700D01*
X173000Y174300D02*
Y175900D01*
X174600D01*
Y174300D01*
X173000D01*
X156500Y101700D02*
Y103300D01*
X158100D01*
Y101700D01*
X156500D01*
X97200Y188200D02*
Y189800D01*
X98800D01*
Y188200D01*
X97200D01*
X131200D02*
Y189800D01*
X132800D01*
Y188200D01*
X131200D01*
X90200D02*
Y189800D01*
X91800D01*
Y188200D01*
X90200D01*
X141917D02*
Y189800D01*
X143517D01*
Y188200D01*
X141917D01*
X178200Y179200D02*
Y180800D01*
X179800D01*
Y179200D01*
X178200D01*
X83200Y188200D02*
Y189800D01*
X84800D01*
Y188200D01*
X83200D01*
X125582Y173818D02*
Y175418D01*
X127182D01*
Y173818D01*
X125582D01*
X108452Y196200D02*
Y197800D01*
X110052D01*
Y196200D01*
X108452D01*
X83200Y136200D02*
Y137800D01*
X84800D01*
Y136200D01*
X83200D01*
X58100Y147000D02*
Y148600D01*
X59700D01*
Y147000D01*
X58100D01*
X68098Y149791D02*
Y151391D01*
X69698D01*
Y149791D01*
X68098D01*
X74800Y145100D02*
Y146700D01*
X76400D01*
Y145100D01*
X74800D01*
X79200Y119200D02*
Y120800D01*
X80800D01*
Y119200D01*
X79200D01*
X95200Y134200D02*
Y135800D01*
X96800D01*
Y134200D01*
X95200D01*
X73300Y231000D02*
Y232600D01*
X74900D01*
Y231000D01*
X73300D01*
X135400Y211800D02*
Y213400D01*
X137000D01*
Y211800D01*
X135400D01*
X128200Y212000D02*
Y213600D01*
X129800D01*
Y212000D01*
X128200D01*
X271838Y103531D02*
Y105131D01*
X273438D01*
Y103531D01*
X271838D01*
X14500Y323600D02*
Y325200D01*
X16100D01*
Y323600D01*
X14500D01*
X309800Y211900D02*
Y213500D01*
X311400D01*
Y211900D01*
X309800D01*
X318500Y215200D02*
Y216800D01*
X320100D01*
Y215200D01*
X318500D01*
X333846Y218688D02*
Y220288D01*
X335446D01*
Y218688D01*
X333846D01*
X294600Y244500D02*
Y246100D01*
X296200D01*
Y244500D01*
X294600D01*
X326700Y308600D02*
Y310200D01*
X328300D01*
Y308600D01*
X326700D01*
X220700Y125100D02*
Y126700D01*
X222300D01*
Y125100D01*
X220700D01*
X318200Y243000D02*
Y244600D01*
X319800D01*
Y243000D01*
X318200D01*
X220000Y152400D02*
Y154000D01*
X221600D01*
Y152400D01*
X220000D01*
X307100Y235100D02*
Y236700D01*
X308700D01*
Y235100D01*
X307100D01*
X125400Y149000D02*
Y150600D01*
X127000D01*
Y149000D01*
X125400D01*
X120700Y234300D02*
Y235900D01*
X122300D01*
Y234300D01*
X120700D01*
X127900Y234400D02*
Y236000D01*
X129500D01*
Y234400D01*
X127900D01*
X76956Y220657D02*
Y222257D01*
X78556D01*
Y220657D01*
X76956D01*
X172428Y74003D02*
Y75603D01*
X174028D01*
Y74003D01*
X172428D01*
X123177Y86798D02*
Y88398D01*
X124777D01*
Y86798D01*
X123177D01*
X160617Y55696D02*
Y57296D01*
X162217D01*
Y55696D01*
X160617D01*
X168491Y56287D02*
Y57887D01*
X170091D01*
Y56287D01*
X168491D01*
X78924Y77940D02*
Y79540D01*
X80524D01*
Y77940D01*
X78924D01*
X276759Y21838D02*
Y23438D01*
X278359D01*
Y21838D01*
X276759D01*
X240342Y30696D02*
Y32296D01*
X241942D01*
Y30696D01*
X240342D01*
X219672D02*
Y32296D01*
X221272D01*
Y30696D01*
X219672D01*
X22822Y7074D02*
Y8674D01*
X24422D01*
Y7074D01*
X22822D01*
X36602Y28728D02*
Y30328D01*
X38202D01*
Y28728D01*
X36602D01*
X10027Y87783D02*
Y89383D01*
X11627D01*
Y87783D01*
X10027D01*
X44476Y184239D02*
Y185839D01*
X46076D01*
Y184239D01*
X44476D01*
X108452Y227852D02*
Y229452D01*
X110052D01*
Y227852D01*
X108452D01*
X9200Y227547D02*
Y229147D01*
X10800D01*
Y227547D01*
X9200D01*
X353531Y279712D02*
Y281312D01*
X355131D01*
Y279712D01*
X353531D01*
X76956Y262980D02*
Y264580D01*
X78556D01*
Y262980D01*
X76956D01*
X82861Y268662D02*
Y270262D01*
X84461D01*
Y268662D01*
X82861D01*
X11995Y280696D02*
Y282296D01*
X13595D01*
Y280696D01*
X11995D01*
X324987Y293294D02*
Y294894D01*
X326587D01*
Y293294D01*
X324987D01*
X126169Y314161D02*
Y315761D01*
X127769D01*
Y314161D01*
X126169D01*
X82861Y304318D02*
Y305918D01*
X84461D01*
Y304318D01*
X82861D01*
X265932Y21838D02*
Y23438D01*
X267532D01*
Y21838D01*
X265932D01*
X258058Y290539D02*
Y292139D01*
X259658D01*
Y290539D01*
X258058D01*
X177350Y245263D02*
Y246863D01*
X178950D01*
Y245263D01*
X177350D01*
X122231Y246247D02*
Y247847D01*
X123831D01*
Y246247D01*
X122231D01*
X44476Y193098D02*
Y194698D01*
X46076D01*
Y193098D01*
X44476D01*
X28728Y271838D02*
Y273438D01*
X30328D01*
Y271838D01*
X28728D01*
X136995Y355300D02*
Y356900D01*
X138595D01*
Y355300D01*
X136995D01*
X87800Y227700D02*
Y229300D01*
X89400D01*
Y227700D01*
X87800D01*
X226800Y22600D02*
Y24200D01*
X228400D01*
Y22600D01*
X226800D01*
X125400Y76600D02*
Y78200D01*
X127000D01*
Y76600D01*
X125400D01*
X5200Y56200D02*
Y57800D01*
X6800D01*
Y56200D01*
X5200D01*
X277743Y341720D02*
Y343320D01*
X279343D01*
Y341720D01*
X277743D01*
X325972Y340735D02*
Y342335D01*
X327572D01*
Y340735D01*
X325972D01*
X82861Y72035D02*
Y73635D01*
X84461D01*
Y72035D01*
X82861D01*
X108452Y240342D02*
Y241942D01*
X110052D01*
Y240342D01*
X108452D01*
X132074Y8058D02*
Y9658D01*
X133674D01*
Y8058D01*
X132074D01*
X108452Y102546D02*
Y104146D01*
X110052D01*
Y102546D01*
X108452D01*
X147231Y29909D02*
Y31509D01*
X148831D01*
Y29909D01*
X147231D01*
X28727Y87627D02*
Y89227D01*
X30327D01*
Y87627D01*
X28727D01*
X130958Y99594D02*
Y101194D01*
X132558D01*
Y99594D01*
X130958D01*
X221200Y115200D02*
Y116800D01*
X222800D01*
Y115200D01*
X221200D01*
X319082Y25775D02*
Y27375D01*
X320682D01*
Y25775D01*
X319082D01*
X328924Y28728D02*
Y30328D01*
X330524D01*
Y28728D01*
X328924D01*
X309239Y21838D02*
Y23438D01*
X310839D01*
Y21838D01*
X309239D01*
X301365Y8058D02*
Y9658D01*
X302965D01*
Y8058D01*
X301365D01*
X244279Y45460D02*
Y47060D01*
X245879D01*
Y45460D01*
X244279D01*
X76956Y168491D02*
Y170091D01*
X78556D01*
Y168491D01*
X76956D01*
X267901Y10027D02*
Y11627D01*
X269501D01*
Y10027D01*
X267901D01*
X52350Y46444D02*
Y48044D01*
X53950D01*
Y46444D01*
X52350D01*
X117906Y99594D02*
Y101194D01*
X119506D01*
Y99594D01*
X117906D01*
X22822Y53334D02*
Y54934D01*
X24422D01*
Y53334D01*
X22822D01*
X43491Y102547D02*
Y104147D01*
X45091D01*
Y102547D01*
X43491D01*
X60224D02*
Y104147D01*
X61824D01*
Y102547D01*
X60224D01*
X342704Y357468D02*
Y359068D01*
X344304D01*
Y357468D01*
X342704D01*
X5200Y21838D02*
Y23438D01*
X6800D01*
Y21838D01*
X5200D01*
Y13964D02*
Y15564D01*
X6800D01*
Y13964D01*
X5200D01*
X127153Y21346D02*
Y22945D01*
X128753D01*
Y21346D01*
X127153D01*
Y29909D02*
Y31509D01*
X128753D01*
Y29909D01*
X127153D01*
X343688Y8058D02*
Y9658D01*
X345288D01*
Y8058D01*
X343688D01*
X39600Y117000D02*
Y118600D01*
X41200D01*
Y117000D01*
X39600D01*
X122200Y116500D02*
Y118100D01*
X123800D01*
Y116500D01*
X122200D01*
X171444Y87783D02*
Y89382D01*
X173044D01*
Y87783D01*
X171444D01*
X155100Y90900D02*
Y92500D01*
X156700D01*
Y90900D01*
X155100D01*
X162735Y90735D02*
Y92335D01*
X164335D01*
Y90735D01*
X162735D01*
X165100Y40100D02*
Y41700D01*
X166700D01*
Y40100D01*
X165100D01*
X248400Y6600D02*
Y8200D01*
X250000D01*
Y6600D01*
X248400D01*
X122700Y8058D02*
Y9658D01*
X124300D01*
Y8058D01*
X122700D01*
X88400Y246500D02*
Y248100D01*
X90000D01*
Y246500D01*
X88400D01*
X346600Y228600D02*
Y230200D01*
X348200D01*
Y228600D01*
X346600D01*
X354100Y228500D02*
Y230100D01*
X355700D01*
Y228500D01*
X354100D01*
X215500Y45800D02*
Y47400D01*
X217100D01*
Y45800D01*
X215500D01*
X5200Y39300D02*
Y40900D01*
X6800D01*
Y39300D01*
X5200D01*
X31680Y143885D02*
Y145485D01*
X33280D01*
Y143885D01*
X31680D01*
X9200Y244400D02*
Y246000D01*
X10800D01*
Y244400D01*
X9200D01*
X253600Y322100D02*
Y323700D01*
X255200D01*
Y322100D01*
X253600D01*
X127200Y265400D02*
Y267000D01*
X128800D01*
Y265400D01*
X127200D01*
X138100Y153700D02*
Y155300D01*
X139700D01*
Y153700D01*
X138100D01*
X90700Y99600D02*
Y101200D01*
X92300D01*
Y99600D01*
X90700D01*
X42507Y261011D02*
Y262611D01*
X44107D01*
Y261011D01*
X42507D01*
X22500Y243800D02*
Y245400D01*
X24100D01*
Y243800D01*
X22500D01*
X44900Y173600D02*
Y175200D01*
X46500D01*
Y173600D01*
X44900D01*
X34300Y229700D02*
Y231300D01*
X35900D01*
Y229700D01*
X34300D01*
X173600Y126200D02*
Y127800D01*
X175200D01*
Y126200D01*
X173600D01*
X350700Y89100D02*
Y90700D01*
X352300D01*
Y89100D01*
X350700D01*
X12900Y50400D02*
Y52000D01*
X14500D01*
Y50400D01*
X12900D01*
X19800Y229100D02*
Y230700D01*
X21400D01*
Y229100D01*
X19800D01*
X107000Y147900D02*
Y149500D01*
X108600D01*
Y147900D01*
X107000D01*
X127153Y125184D02*
Y126784D01*
X128753D01*
Y125184D01*
X127153D01*
X137979Y103531D02*
Y105131D01*
X139579D01*
Y103531D01*
X137979D01*
X271838Y290539D02*
Y292139D01*
X273438D01*
Y290539D01*
X271838D01*
X300381D02*
Y292139D01*
X301981D01*
Y290539D01*
X300381D01*
X307271D02*
Y292139D01*
X308871D01*
Y290539D01*
X307271D01*
X36602Y271838D02*
Y273438D01*
X38202D01*
Y271838D01*
X36602D01*
X22822Y282665D02*
Y284265D01*
X24422D01*
Y282665D01*
X22822D01*
X52350D02*
Y284265D01*
X53950D01*
Y282665D01*
X52350D01*
X59239Y282664D02*
Y284264D01*
X60839D01*
Y282664D01*
X59239D01*
X73019Y282665D02*
Y284265D01*
X74619D01*
Y282665D01*
X73019D01*
X108452D02*
Y284265D01*
X110052D01*
Y282665D01*
X108452D01*
X121247D02*
Y284265D01*
X122847D01*
Y282665D01*
X121247D01*
X16800Y132800D02*
Y134400D01*
X18400D01*
Y132800D01*
X16800D01*
X264400Y59200D02*
Y60800D01*
X266000D01*
Y59200D01*
X264400D01*
X108452Y8058D02*
Y9658D01*
X110052D01*
Y8058D01*
X108452D01*
X38100Y153600D02*
Y155200D01*
X39700D01*
Y153600D01*
X38100D01*
X39800Y199300D02*
Y200900D01*
X41400D01*
Y199300D01*
X39800D01*
X82600Y313500D02*
Y315100D01*
X84200D01*
Y313500D01*
X82600D01*
X78700Y331400D02*
Y333000D01*
X80300D01*
Y331400D01*
X78700D01*
X41600Y340500D02*
Y342100D01*
X43200D01*
Y340500D01*
X41600D01*
X125700Y333800D02*
Y335400D01*
X127300D01*
Y333800D01*
X125700D01*
X130900Y340000D02*
Y341600D01*
X132500D01*
Y340000D01*
X130900D01*
X220600Y233600D02*
Y235200D01*
X222200D01*
Y233600D01*
X220600D01*
X323900Y210700D02*
Y212300D01*
X325500D01*
Y210700D01*
X323900D01*
X326400Y154600D02*
Y156200D01*
X328000D01*
Y154600D01*
X326400D01*
X348700Y132700D02*
Y134300D01*
X350300D01*
Y132700D01*
X348700D01*
X335000Y143600D02*
Y145200D01*
X336600D01*
Y143600D01*
X335000D01*
X325000Y63000D02*
Y64600D01*
X326600D01*
Y63000D01*
X325000D01*
X308100Y5300D02*
Y6900D01*
X309700D01*
Y5300D01*
X308100D01*
X278900Y28500D02*
Y30100D01*
X280500D01*
Y28500D01*
X278900D01*
X77200Y243700D02*
Y245300D01*
X78800D01*
Y243700D01*
X77200D01*
X58255Y240342D02*
Y241942D01*
X59855D01*
Y240342D01*
X58255D01*
X68300Y243800D02*
Y245400D01*
X69900D01*
Y243800D01*
X68300D01*
X169700Y322400D02*
Y324000D01*
X171300D01*
Y322400D01*
X169700D01*
X217400Y308400D02*
Y310000D01*
X219000D01*
Y308400D01*
X217400D01*
X227100Y304700D02*
Y306300D01*
X228700D01*
Y304700D01*
X227100D01*
X248346Y181900D02*
Y183500D01*
X249946D01*
Y181900D01*
X248346D01*
X264700Y118600D02*
Y120200D01*
X266300D01*
Y118600D01*
X264700D01*
X300900Y99600D02*
Y101200D01*
X302500D01*
Y99600D01*
X300900D01*
X356900Y117500D02*
Y119100D01*
X358500D01*
Y117500D01*
X356900D01*
X76500Y36400D02*
Y38000D01*
X78100D01*
Y36400D01*
X76500D01*
X235000Y283800D02*
Y285400D01*
X236600D01*
Y283800D01*
X235000D01*
X224600Y273200D02*
Y274800D01*
X226200D01*
Y273200D01*
X224600D01*
X229200Y217700D02*
Y219300D01*
X230800D01*
Y217700D01*
X229200D01*
X263700Y233700D02*
Y235300D01*
X265300D01*
Y233700D01*
X263700D01*
X265100Y212800D02*
Y214400D01*
X266700D01*
Y212800D01*
X265100D01*
X278400Y213400D02*
Y215000D01*
X280000D01*
Y213400D01*
X278400D01*
X268900Y186900D02*
Y188500D01*
X270500D01*
Y186900D01*
X268900D01*
X286648Y173900D02*
Y175500D01*
X288248D01*
Y173900D01*
X286648D01*
X275900Y187000D02*
Y188600D01*
X277500D01*
Y187000D01*
X275900D01*
X251100Y194500D02*
Y196100D01*
X252700D01*
Y194500D01*
X251100D01*
X335200Y280700D02*
Y282300D01*
X336800D01*
Y280700D01*
X335200D01*
X244700Y233700D02*
Y235300D01*
X246300D01*
Y233700D01*
X244700D01*
X227700D02*
Y235300D01*
X229300D01*
Y233700D01*
X227700D01*
X236200D02*
Y235300D01*
X237800D01*
Y233700D01*
X236200D01*
X246400Y244100D02*
Y245700D01*
X248000D01*
Y244100D01*
X246400D01*
X58255Y187192D02*
Y188792D01*
X59855D01*
Y187192D01*
X58255D01*
X168500Y212500D02*
Y214100D01*
X170100D01*
Y212500D01*
X168500D01*
X306600Y151000D02*
Y152600D01*
X308200D01*
Y151000D01*
X306600D01*
X58300Y55500D02*
Y57100D01*
X59900D01*
Y55500D01*
X58300D01*
X117400Y56100D02*
Y57700D01*
X119000D01*
Y56100D01*
X117400D01*
X202700Y55600D02*
Y57200D01*
X204300D01*
Y55600D01*
X202700D01*
X356700Y340100D02*
Y341700D01*
X358300D01*
Y340100D01*
X356700D01*
X6838Y306838D02*
Y308438D01*
X8438D01*
Y306838D01*
X6838D01*
X319100Y271400D02*
Y273000D01*
X320700D01*
Y271400D01*
X319100D01*
X232600Y189600D02*
Y191200D01*
X234200D01*
Y189600D01*
X232600D01*
X318700Y188200D02*
Y189800D01*
X320300D01*
Y188200D01*
X318700D01*
X69400Y186000D02*
Y187600D01*
X71000D01*
Y186000D01*
X69400D01*
X69100Y194300D02*
Y195900D01*
X70700D01*
Y194300D01*
X69100D01*
M02*
