M48
;Layer_Color=9474304
;FILE_FORMAT=2:4
INCH,TZ
;TYPE=PLATED
T1F00S00C0.0280
;TYPE=NON_PLATED
%
T01
X600Y1476
Y2264
Y4010
X1360Y5610
X2362Y5413
X5315Y4724
X3740Y2953
X2362Y787
X6102
X7650Y800
X7776Y2165
X8465Y2559
X7730Y3720
X6850Y5000
X8700Y5250
X10130Y4770
X10925Y5118
X12795Y3071
Y2215
X13720Y2350
X14803Y3071
X16590Y4090
X17890Y2990
X19230Y4170
X20220Y4000
X20460Y4800
X21200Y5550
X13287Y886
X12350
X10925
X22900Y910
X22760Y2340
X22047Y3150
X21630Y4660
X24508Y4626
X24920Y5330
X24114Y3150
X24920Y740
X26810
X27840Y2270
X28400Y4940
X29150Y4200
X31970Y4140
X32030Y2280
X32972Y2953
X34210Y820
X31010
X30217
X34240Y5210
X35400Y4100
X35150Y5640
X32580Y6380
X31980Y8350
X30800Y9550
X30170Y10040
X28500Y9500
X28430Y8350
X26650Y8810
X26643Y9500
X25900
X24750Y9200
Y10016
X23390Y10360
X22720Y9750
X22500Y8750
X21350Y8880
X21370Y9580
X21350Y10380
X22200Y11600
X22150Y12590
X22080Y15320
X25930Y15090
X27220Y15100
X27210Y13450
X26145Y13555
X25145Y13600
X26550Y11940
X27390Y11970
X28210Y12470
X27264Y10433
X31990Y11780
X32750Y11650
X32700Y12450
X33580Y14440
X34400Y13850
X34950Y13350
X35500Y13750
X35770Y11830
X35150Y8990
X33950Y9100
X29900Y5700
X29940Y15110
X30740Y15180
X32100Y15150
X32720Y15540
X32880Y17810
X33550Y17500
X33580Y18470
X33050Y19000
X31950Y18900
X30820Y18930
X29330Y19570
X27670Y18780
X26970Y18770
X26350Y19400
X25190Y19530
X24915Y18270
X23850Y18400
X23350Y19060
X21900Y21150
X28745Y17470
X31710Y17410
X32470Y21150
X20860Y18920
X19800Y18870
X18990
X17900Y18000
X17380Y17510
X16750Y18900
X15945
X15030Y18880
X14272Y18900
X13200
X12638Y17462
X12620Y14980
X11830Y14960
X10780Y14870
X9600Y13500
X8400Y13700
X8810Y12510
X8790Y11680
X8000Y12000
X7560Y14590
X6890Y15059
X5890Y14780
X5906Y18799
X7020Y18680
X6990Y19510
X8400Y18900
X9100
X9800
X10925Y19700
X7776Y16929
X13890Y15450
X12795Y12598
X12300Y11730
X11871Y10039
X10925Y10335
X9150Y10040
X9720Y8020
X7972Y7874
X8366Y7283
X9090Y6480
X9100Y5800
X11820Y5690
X13740Y6120
X12620Y7740
X12398Y8760
X13176Y10039
X13878Y10433
X15730Y10250
X15590Y9170
X16354Y9154
X17224Y8858
X17323Y7480
X16929Y5709
X16142Y5650
X20350Y5640
X17260Y10370
X18000Y11540
X17440Y12700
X19300Y13300
X17740Y15230
X18150Y15870
X21020Y15080
X6102Y10335
X5910Y5630
X4590Y7910
X3790Y7880
X2953Y8843
X2340Y9890
X1083Y8858
X550Y11810
X1080Y13350
X1760Y13360
X2400Y13760
X3102Y13040
X3248Y14468
X3890Y15440
X4460Y13760
X4040Y11780
X4429Y10335
X4570Y17440
X4528Y18504
Y19390
X4060Y20010
X4150Y21070
X3220Y18940
X3230Y18210
Y17450
X3510Y23050
X2060Y22990
X1000Y22835
Y24520
X2330Y24460
X5170Y23870
X4331Y26181
X3740Y27264
X2960Y27510
X2362Y28346
X1280Y28150
X764Y30764
X800Y32400
X1530Y32440
X800Y34150
X4240Y34130
X3839Y35610
X4240Y31260
X4210Y30520
X5315Y28346
X6004Y28346
X7776Y26378
X8366Y26946
X8920Y24730
X7800Y24450
X6910Y24460
X5906Y24114
X7410Y23180
X7776Y22146
X8860Y22850
X10925Y22865
X10925Y24114
X12150Y23510
X12303Y24705
X12800Y26620
X14250Y28150
X15380Y27780
X18050Y26620
X18030Y24720
X17080
X16930Y21330
X13620Y21260
X14270Y23860
X10925Y28346
X13000Y30550
X12697Y31496
X12650Y33460
X13170Y34080
X12540Y35400
X13780Y35610
X10820Y35710
X9250Y35750
X8450Y35450
X8000Y33900
X7950Y33220
X8500Y32100
X8340Y31430
X8350Y30590
X9250Y32350
X14370
X14390Y33160
X17050Y32320
X17750Y32450
X17790Y33570
X17520Y31398
X17750Y29350
X20360Y28890
X19270Y27560
X19610Y32370
X6040Y35700
X22760Y35410
X23300Y35880
X25880Y35710
X27000Y34400
X27854Y34252
X28420Y31370
X27264Y29134
X25886
X25750Y28100
X24950Y27750
X24150Y27400
X22540
X23580Y28460
X23250Y29200
X22790Y30550
X21820Y30920
X22160Y33540
X24060Y33210
X25440Y32290
X30118Y29134
X30807
X32579Y29409
X32040Y30540
X32750Y30940
X33600Y32500
X35700
X35750Y34090
X34350Y35827
X32677Y34154
X31420Y34400
X30800Y35650
X31990Y27220
X32600Y25850
X31900Y24380
X30790Y23590
X29540Y24530
X27450Y24150
X26450Y23450
X24550
X23700
X22850
X22140Y23440
X21870Y24580
X23000Y24600
X24720Y24490
X23000Y21850
X26590Y21360
X27920Y21420
X31060Y21270
X31930Y21600
X33465Y21949
X34740Y22940
X35490Y22930
X35433Y28051
X33600Y28150
X28440Y27220
M30
